<?xml version="1.0" encoding="iso-8859-1"?>
<!-- Generator: Adobe Illustrator 16.0.0, SVG Export Plug-In . SVG Version: 6.00 Build 0)  -->
<!DOCTYPE svg PUBLIC "-//W3C//DTD SVG 1.1//EN" "http://www.w3.org/Graphics/SVG/1.1/DTD/svg11.dtd">
<svg version="1.1" id="Layer_1" xmlns="http://www.w3.org/2000/svg" xmlns:xlink="http://www.w3.org/1999/xlink" x="0px" y="0px"
	 width="22.084px" height="30.528px" viewBox="0 0 22.084 30.528" style="enable-background:new 0 0 22.084 30.528;"
	 xml:space="preserve">
<g>
	<path d="M0,0v30.528h22.084V0H0z M20.795,29.238H1.289V1.289h19.506V29.238z"/>
	<rect x="4.352" y="15.654" width="14.024" height="1.317"/>
	<rect x="4.352" y="18.718" width="14.024" height="1.318"/>
	<rect x="4.352" y="21.779" width="14.024" height="1.318"/>
	<rect x="4.352" y="24.601" width="14.024" height="1.318"/>
	<path d="M12.086,9.738l0.205,0.692h1.549l-1.769-4.855h-1.462l-1.787,4.855h1.502l0.218-0.692H12.086z M11.338,7.201h0.014
		l0.435,1.497h-0.917L11.338,7.201z"/>
	<polygon points="15.31,6.998 15.31,8.194 14.113,8.194 14.113,9.234 15.31,9.234 15.31,10.431 16.351,10.431 16.351,9.234 
		17.547,9.234 17.547,8.194 16.351,8.194 16.351,6.998 	"/>
	<path d="M12.993,14.214c3.348,0,6.071-2.158,6.071-5.505S16.341,2.64,12.993,2.64c-1.024,0-2.596,0.496-2.837,0.708
		C9.913,3.562,9.99,4.049,10.439,3.839c0.451-0.21,1.632-0.633,2.554-0.633c3.035,0,5.505,2.469,5.505,5.503
		s-2.47,4.938-5.505,4.938c-3.034,0-5.503-1.903-5.503-4.938c0-0.962,0.506-2.462,0.686-2.653c0.18-0.193-0.274-0.683-0.456-0.341
		C7.541,6.056,6.924,7.62,6.924,8.709C6.924,12.056,9.646,14.214,12.993,14.214z"/>
</g>
<g>
</g>
<g>
</g>
<g>
</g>
<g>
</g>
<g>
</g>
<g>
</g>
<g>
</g>
<g>
</g>
<g>
</g>
<g>
</g>
<g>
</g>
<g>
</g>
<g>
</g>
<g>
</g>
<g>
</g>
</svg>
