<?xml version="1.0" encoding="iso-8859-1"?>
<!-- Generator: Adobe Illustrator 16.0.0, SVG Export Plug-In . SVG Version: 6.00 Build 0)  -->
<!DOCTYPE svg PUBLIC "-//W3C//DTD SVG 1.1//EN" "http://www.w3.org/Graphics/SVG/1.1/DTD/svg11.dtd">
<svg version="1.1" id="Layer_1" xmlns="http://www.w3.org/2000/svg" xmlns:xlink="http://www.w3.org/1999/xlink" x="0px" y="0px"
	 width="28.021px" height="33.416px" viewBox="0 0 28.021 33.416" style="enable-background:new 0 0 28.021 33.416;"
	 xml:space="preserve">
<path d="M12.381,20.591l0.368,1.243h2.78l-3.173-8.716H9.73l-3.208,8.716h2.696l0.393-1.243H12.381z M11.038,16.037h0.024
	l0.78,2.688h-1.646L11.038,16.037z"/>
<polygon points="18.169,15.673 18.169,17.82 16.02,17.82 16.02,19.687 18.169,19.687 18.169,21.834 20.034,21.834 20.034,19.687 
	22.183,19.687 22.183,17.82 20.034,17.82 20.034,15.673 "/>
<path d="M14.009,28.625c6.01,0,10.898-3.874,10.898-9.881c0-6.008-4.889-10.895-10.898-10.895c-1.838,0-4.659,0.891-5.092,1.271
	c-0.435,0.384-0.298,1.259,0.509,0.882c0.81-0.377,2.931-1.136,4.583-1.136c5.448,0,9.882,4.432,9.882,9.878
	s-4.434,8.862-9.882,8.862c-5.446,0-9.877-3.416-9.877-8.862c0-1.728,0.908-4.419,1.23-4.763c0.322-0.348-0.493-1.226-0.818-0.612
	c-0.321,0.612-1.429,3.42-1.429,5.375C3.115,24.751,8.002,28.625,14.009,28.625z"/>
<path d="M21.926,0l-0.244,0.022L21.66,0H0v33.416h28.021V8.991V6.362V6.098L21.926,0z M1.5,31.916V1.5h19.151v5.97h5.87v24.446H1.5z
	"/>
<g>
</g>
<g>
</g>
<g>
</g>
<g>
</g>
<g>
</g>
<g>
</g>
<g>
</g>
<g>
</g>
<g>
</g>
<g>
</g>
<g>
</g>
<g>
</g>
<g>
</g>
<g>
</g>
<g>
</g>
</svg>
