<?xml version="1.0" encoding="iso-8859-1"?>
<!-- Generator: Adobe Illustrator 16.0.0, SVG Export Plug-In . SVG Version: 6.00 Build 0)  -->
<!DOCTYPE svg PUBLIC "-//W3C//DTD SVG 1.1//EN" "http://www.w3.org/Graphics/SVG/1.1/DTD/svg11.dtd">
<svg version="1.1" id="Layer_1" xmlns="http://www.w3.org/2000/svg" xmlns:xlink="http://www.w3.org/1999/xlink" x="0px" y="0px"
	 width="30.019px" height="22.059px" viewBox="0 0 30.019 22.059" style="enable-background:new 0 0 30.019 22.059;"
	 xml:space="preserve">
<g>
	<path d="M3.498,12.56L0,22.059h2.939l0.427-1.357h3.02l0.398,1.357h3.033L6.358,12.56H3.498z M4.004,18.666l0.918-2.927h0.026
		L5.8,18.666H4.004z"/>
	<path d="M18.54,5.009c-0.15-0.191-0.325-0.348-0.525-0.473c-0.199-0.125-0.406-0.222-0.618-0.292
		c0.354-0.195,0.639-0.435,0.851-0.719c0.213-0.283,0.32-0.665,0.32-1.144c0-0.24-0.041-0.499-0.121-0.778
		c-0.079-0.279-0.231-0.539-0.458-0.778s-0.537-0.437-0.931-0.592C16.663,0.077,16.154,0,15.533,0h-5.202v9.499h5.389
		c0.417,0,0.826-0.062,1.225-0.187c0.398-0.124,0.754-0.306,1.063-0.545c0.311-0.239,0.561-0.539,0.752-0.898
		c0.191-0.359,0.285-0.778,0.285-1.258c0-0.345-0.045-0.652-0.138-0.917C18.813,5.428,18.691,5.199,18.54,5.009z M13.259,2.261
		h1.542c0.302,0,0.544,0.049,0.726,0.147C15.709,2.505,15.8,2.673,15.8,2.913c0,0.311-0.09,0.519-0.267,0.625
		c-0.177,0.107-0.422,0.16-0.732,0.16h-1.542V2.261z M16.026,6.785C15.964,6.9,15.88,6.991,15.773,7.057
		c-0.106,0.067-0.229,0.113-0.365,0.14c-0.139,0.026-0.283,0.04-0.434,0.04h-1.716v-1.77h1.836c0.683,0,1.024,0.288,1.024,0.865
		C16.119,6.518,16.088,6.669,16.026,6.785z"/>
	<path d="M27.146,15.667c-0.046,0.222-0.104,0.43-0.18,0.625c-0.075,0.195-0.174,0.364-0.294,0.505
		c-0.119,0.142-0.266,0.252-0.438,0.333c-0.172,0.08-0.384,0.119-0.632,0.119c-0.346,0-0.634-0.074-0.864-0.226
		c-0.23-0.15-0.416-0.35-0.554-0.599c-0.137-0.248-0.236-0.527-0.298-0.837c-0.063-0.311-0.094-0.626-0.094-0.945
		c0-0.318,0.031-0.634,0.094-0.944c0.062-0.311,0.161-0.59,0.298-0.838c0.138-0.248,0.323-0.448,0.554-0.599
		c0.23-0.15,0.519-0.226,0.864-0.226c0.302,0,0.548,0.058,0.738,0.173c0.191,0.115,0.344,0.248,0.46,0.399
		c0.114,0.151,0.195,0.305,0.238,0.459c0.045,0.156,0.075,0.277,0.094,0.366h2.848c-0.126-1.198-0.544-2.123-1.258-2.774
		c-0.714-0.652-1.727-0.983-3.04-0.991c-0.736,0-1.399,0.119-1.989,0.359c-0.589,0.239-1.095,0.577-1.516,1.01
		c-0.422,0.436-0.746,0.958-0.973,1.57c-0.226,0.612-0.339,1.291-0.339,2.035c0,0.701,0.107,1.356,0.319,1.963
		c0.214,0.607,0.525,1.133,0.938,1.576c0.411,0.444,0.915,0.794,1.51,1.052c0.594,0.257,1.278,0.385,2.049,0.385
		c0.692,0,1.309-0.115,1.85-0.345c0.54-0.231,0.995-0.535,1.363-0.912c0.368-0.377,0.647-0.8,0.838-1.27
		c0.19-0.471,0.285-0.944,0.285-1.424H27.146z"/>
</g>
<g>
</g>
<g>
</g>
<g>
</g>
<g>
</g>
<g>
</g>
<g>
</g>
<g>
</g>
<g>
</g>
<g>
</g>
<g>
</g>
<g>
</g>
<g>
</g>
<g>
</g>
<g>
</g>
<g>
</g>
</svg>
