<?xml version="1.0" encoding="iso-8859-1"?>
<!-- Generator: Adobe Illustrator 16.0.0, SVG Export Plug-In . SVG Version: 6.00 Build 0)  -->
<!DOCTYPE svg PUBLIC "-//W3C//DTD SVG 1.1//EN" "http://www.w3.org/Graphics/SVG/1.1/DTD/svg11.dtd">
<svg version="1.1" id="Layer_1" xmlns="http://www.w3.org/2000/svg" xmlns:xlink="http://www.w3.org/1999/xlink" x="0px" y="0px"
	 width="31.739px" height="21.806px" viewBox="0 0 31.739 21.806" style="enable-background:new 0 0 31.739 21.806;"
	 xml:space="preserve">
<g>
	<path d="M5.02,18.089c-0.035,0.096-0.083,0.179-0.143,0.247c-0.059,0.069-0.129,0.124-0.216,0.163
		c-0.084,0.04-0.188,0.059-0.31,0.059c-0.167,0-0.311-0.035-0.423-0.11c-0.114-0.073-0.203-0.171-0.272-0.293
		c-0.066-0.122-0.115-0.259-0.144-0.412c-0.032-0.15-0.047-0.306-0.047-0.462s0.015-0.313,0.047-0.464
		c0.028-0.151,0.077-0.29,0.144-0.411c0.069-0.122,0.158-0.219,0.272-0.293c0.112-0.074,0.256-0.111,0.423-0.111
		c0.149,0,0.269,0.028,0.362,0.085s0.168,0.121,0.226,0.195c0.057,0.074,0.095,0.149,0.117,0.225
		c0.022,0.078,0.037,0.137,0.045,0.18h1.397c-0.062-0.586-0.269-1.04-0.616-1.359c-0.351-0.319-0.849-0.48-1.491-0.486
		c-0.36,0-0.686,0.06-0.976,0.177c-0.289,0.117-0.537,0.282-0.743,0.494c-0.206,0.216-0.366,0.472-0.478,0.771
		C2.084,16.583,2.03,16.915,2.03,17.28c0,0.344,0.052,0.664,0.157,0.961c0.104,0.299,0.256,0.557,0.458,0.772
		c0.204,0.219,0.45,0.392,0.741,0.517c0.291,0.127,0.626,0.189,1.005,0.189c0.339,0,0.641-0.057,0.907-0.17
		c0.265-0.113,0.487-0.262,0.668-0.448c0.181-0.185,0.318-0.392,0.411-0.62c0.094-0.231,0.14-0.465,0.14-0.7H5.109
		C5.087,17.891,5.058,17.992,5.02,18.089z"/>
	<path d="M0,21.787h9.193v-9.19H0V21.787z M1.086,13.685h7.022V20.7H1.086V13.685z"/>
	<path d="M12.493,14.546l-1.046,3.677l0.88-0.326l0.127-0.517l0.89-0.326l0.117,0.423l0.88-0.326l-1.005-2.897L12.493,14.546z
		 M12.644,16.607l0.27-1.11l0.01-0.002l0.25,0.921L12.644,16.607z"/>
	<path d="M31.711,9.675l-5.616,2.176l0.028,9.222l5.616-2.175L31.711,9.675z M27.206,19.488l-0.022-6.895l3.447-1.333l0.019,6.894
		L27.206,19.488z"/>
	<path d="M21.879,18.892c0.197-0.06,0.37-0.149,0.522-0.267c0.151-0.117,0.275-0.265,0.368-0.44
		c0.094-0.177,0.141-0.381,0.141-0.617c0-0.169-0.023-0.32-0.068-0.449c-0.046-0.131-0.105-0.243-0.18-0.337
		c-0.073-0.092-0.16-0.17-0.258-0.231c-0.098-0.061-0.198-0.108-0.304-0.143c0.176-0.098,0.314-0.214,0.419-0.351
		c0.104-0.14,0.156-0.328,0.156-0.563c0-0.116-0.021-0.245-0.059-0.382c-0.04-0.137-0.115-0.264-0.226-0.382
		c-0.11-0.116-0.264-0.213-0.457-0.289s-0.441-0.115-0.747-0.115h-2.55v4.659h2.643C21.484,18.984,21.684,18.953,21.879,18.892z
		 M20.073,15.437h0.757c0.146,0,0.265,0.022,0.355,0.07c0.089,0.048,0.134,0.13,0.134,0.248c0,0.152-0.044,0.254-0.132,0.306
		c-0.087,0.054-0.206,0.079-0.357,0.079h-0.757V15.437z M20.914,17.875h-0.841v-0.868h0.899c0.335,0,0.503,0.142,0.503,0.423
		c0,0.094-0.015,0.167-0.046,0.224c-0.03,0.056-0.071,0.101-0.124,0.132c-0.053,0.034-0.113,0.058-0.18,0.068
		C21.061,17.867,20.988,17.875,20.914,17.875z"/>
	<path d="M29.394,15.836c-0.022,0.073-0.053,0.141-0.089,0.2c-0.036,0.062-0.081,0.112-0.132,0.156
		c-0.053,0.044-0.117,0.076-0.192,0.098c-0.105,0.03-0.193,0.03-0.263-0.002c-0.071-0.032-0.126-0.086-0.17-0.16
		c-0.043-0.076-0.072-0.166-0.091-0.27c-0.02-0.103-0.028-0.211-0.028-0.323c0-0.113,0.009-0.227,0.028-0.341
		c0.019-0.114,0.048-0.222,0.091-0.32c0.044-0.099,0.099-0.186,0.17-0.26c0.069-0.071,0.157-0.123,0.263-0.152
		c0.09-0.025,0.166-0.026,0.225-0.001c0.057,0.022,0.104,0.057,0.139,0.1c0.035,0.042,0.059,0.09,0.071,0.14
		c0.014,0.051,0.023,0.091,0.028,0.12l0.854-0.242c-0.037-0.405-0.162-0.691-0.376-0.858c-0.215-0.168-0.52-0.201-0.918-0.095
		c-0.223,0.062-0.426,0.159-0.606,0.294c-0.182,0.133-0.336,0.295-0.465,0.485c-0.131,0.188-0.23,0.403-0.301,0.639
		c-0.069,0.235-0.105,0.485-0.105,0.751c0,0.248,0.033,0.471,0.098,0.666c0.066,0.195,0.163,0.354,0.291,0.473
		c0.128,0.119,0.281,0.197,0.465,0.233c0.182,0.035,0.39,0.017,0.624-0.054c0.21-0.062,0.396-0.158,0.561-0.287
		c0.162-0.129,0.298-0.275,0.408-0.439c0.11-0.163,0.194-0.336,0.25-0.517c0.059-0.179,0.086-0.353,0.086-0.52l-0.861,0.251
		C29.435,15.681,29.416,15.76,29.394,15.836z"/>
	<polygon points="27.582,9.147 22.003,11.134 25.809,11.134 31.245,9.157 	"/>
	<path d="M17.802,2.729H8.605v9.19h9.196V2.729z M16.715,10.831H9.693V3.815h7.021V10.831z"/>
	<path d="M18.708,11.939l5.615-2.175l-0.027-9.221l-5.615,2.173L18.708,11.939z M23.214,2.128l0.019,6.893l-3.444,1.334l-0.02-6.893
		L23.214,2.128z"/>
	<polygon points="23.829,0.024 13.939,0 8.605,2.001 18.394,2.001 	"/>
	<path d="M12.695,8.739h1.481l0.193,0.665h1.489l-1.697-4.657H12.76l-1.715,4.657h1.441L12.695,8.739z M13.458,6.306h0.013
		l0.417,1.435h-0.88L13.458,6.306z"/>
	<path d="M22.455,7.665c0.117-0.082,0.221-0.18,0.312-0.295c0.09-0.111,0.164-0.239,0.22-0.381c0.055-0.142,0.084-0.295,0.084-0.46
		c0-0.118-0.015-0.22-0.041-0.301c-0.028-0.083-0.063-0.15-0.106-0.2c-0.045-0.053-0.097-0.09-0.154-0.113
		c-0.059-0.023-0.119-0.036-0.182-0.043c0.104-0.1,0.188-0.209,0.25-0.327c0.061-0.117,0.094-0.259,0.094-0.423
		c0-0.083-0.013-0.167-0.037-0.257c-0.021-0.087-0.067-0.163-0.134-0.225s-0.156-0.1-0.272-0.118
		c-0.116-0.018-0.267,0.004-0.449,0.061l-1.557,0.488v3.325l1.611-0.547C22.217,7.81,22.338,7.745,22.455,7.665z M21.362,5.582
		l0.459-0.146c0.09-0.028,0.161-0.036,0.215-0.019s0.08,0.065,0.08,0.149c0,0.107-0.025,0.188-0.078,0.242
		c-0.053,0.054-0.124,0.095-0.217,0.124l-0.459,0.149V5.582z M21.872,7.142l-0.51,0.171V6.696l0.546-0.18
		c0.201-0.064,0.303,0.001,0.303,0.2c0,0.064-0.008,0.122-0.026,0.165C22.166,6.929,22.141,6.968,22.109,7
		C22.078,7.035,22.041,7.063,22,7.085C21.961,7.108,21.918,7.128,21.872,7.142z"/>
	<path d="M18.339,12.439l-2.317,0.016v8.596h9.196v-9.188h-5.257L18.339,12.439z M24.131,19.963H17.11v-7.014h7.021V19.963z"/>
	<polygon points="8.164,9.874 5.332,9.865 0,11.87 8.164,11.87 	"/>
	<polygon points="14.608,12.464 14.627,18.887 11.183,20.223 11.162,13.33 13.375,12.471 10.311,12.492 10.072,12.585 
		10.101,21.806 15.716,19.632 15.694,12.457 	"/>
</g>
<g>
</g>
<g>
</g>
<g>
</g>
<g>
</g>
<g>
</g>
<g>
</g>
<g>
</g>
<g>
</g>
<g>
</g>
<g>
</g>
<g>
</g>
<g>
</g>
<g>
</g>
<g>
</g>
<g>
</g>
</svg>
