<?xml version="1.0" encoding="iso-8859-1"?>
<!-- Generator: Adobe Illustrator 16.0.0, SVG Export Plug-In . SVG Version: 6.00 Build 0)  -->
<!DOCTYPE svg PUBLIC "-//W3C//DTD SVG 1.1//EN" "http://www.w3.org/Graphics/SVG/1.1/DTD/svg11.dtd">
<svg version="1.1" id="Layer_1" xmlns="http://www.w3.org/2000/svg" xmlns:xlink="http://www.w3.org/1999/xlink" x="0px" y="0px"
	 width="23.949px" height="30.501px" viewBox="0 0 23.949 30.501" style="enable-background:new 0 0 23.949 30.501;"
	 xml:space="preserve">
<g>
	<path d="M6.789,10.689H8.75l0.258,0.882h1.971L8.733,5.403H6.876l-2.272,6.168h1.909L6.789,10.689z M7.8,7.468h0.017l0.553,1.899
		H7.205L7.8,7.468z"/>
	<path d="M14.505,11.68h3.499c0.271,0,0.536-0.04,0.795-0.121c0.259-0.081,0.49-0.199,0.69-0.354
		c0.202-0.156,0.365-0.351,0.488-0.583c0.125-0.233,0.187-0.506,0.187-0.817c0-0.224-0.03-0.423-0.09-0.596
		c-0.061-0.173-0.141-0.321-0.238-0.445c-0.099-0.123-0.212-0.225-0.342-0.306c-0.13-0.08-0.263-0.145-0.402-0.191
		c0.23-0.125,0.415-0.281,0.553-0.467c0.138-0.184,0.208-0.43,0.208-0.742c0-0.155-0.026-0.323-0.079-0.504
		c-0.052-0.183-0.151-0.35-0.297-0.507c-0.146-0.154-0.349-0.282-0.604-0.384c-0.257-0.101-0.587-0.152-0.989-0.152h-3.379V11.68z
		 M16.406,6.979h1.002c0.195,0,0.353,0.032,0.472,0.096c0.117,0.064,0.176,0.174,0.176,0.327c0,0.203-0.058,0.339-0.172,0.406
		c-0.116,0.07-0.274,0.104-0.476,0.104h-1.002V6.979z M16.406,9.062h1.192c0.444,0,0.665,0.189,0.665,0.562
		c0,0.122-0.02,0.221-0.061,0.296c-0.04,0.073-0.094,0.132-0.163,0.176c-0.069,0.044-0.149,0.074-0.238,0.091
		c-0.089,0.017-0.184,0.025-0.281,0.025h-1.115V9.062z"/>
	<path d="M9.734,5.528c0.268,0.287,0.594,0.515,0.98,0.682c0.385,0.168,0.829,0.251,1.33,0.251c0.449,0,0.85-0.074,1.201-0.225
		c0.351-0.149,0.646-0.347,0.885-0.593c0.238-0.243,0.42-0.519,0.544-0.824s0.186-0.612,0.186-0.924h-1.866
		c-0.028,0.145-0.067,0.279-0.117,0.406c-0.049,0.126-0.112,0.236-0.189,0.328c-0.079,0.092-0.173,0.163-0.285,0.216
		c-0.112,0.052-0.249,0.077-0.411,0.077c-0.225,0-0.412-0.049-0.562-0.147c-0.15-0.097-0.27-0.226-0.358-0.388
		c-0.089-0.161-0.154-0.343-0.194-0.544c-0.041-0.201-0.061-0.406-0.061-0.614s0.02-0.41,0.061-0.612
		c0.04-0.201,0.104-0.383,0.194-0.544c0.089-0.161,0.208-0.291,0.358-0.389c0.149-0.099,0.337-0.148,0.562-0.148
		c0.196,0,0.355,0.038,0.48,0.113c0.124,0.074,0.223,0.161,0.297,0.26c0.075,0.098,0.127,0.197,0.155,0.297
		c0.03,0.102,0.05,0.181,0.062,0.238h1.849c-0.082-0.777-0.353-1.379-0.816-1.801C13.554,0.221,12.897,0.005,12.044,0
		c-0.478,0-0.909,0.076-1.292,0.234C10.37,0.388,10.042,0.607,9.768,0.89c-0.273,0.282-0.483,0.622-0.63,1.02
		c-0.147,0.396-0.22,0.838-0.22,1.32c0,0.455,0.07,0.882,0.207,1.275C9.263,4.898,9.466,5.24,9.734,5.528z"/>
	<path d="M23.002,14.91v-1.509l-0.218-0.085c-0.074-0.029-1.847-0.718-4.212-0.718c-2.533,0-4.715,0.771-6.491,2.293
		c-1.775-1.521-3.958-2.293-6.49-2.293c-2.366,0-4.139,0.688-4.212,0.718l-0.217,0.085v1.396C0.445,14.933,0,15.173,0,15.564
		c0,2.037,0,14.398,0,14.398h10.605c0.367,0.33,0.904,0.538,1.503,0.538s1.136-0.208,1.503-0.538h10.338c0,0,0-13.685,0-14.398
		C23.949,15.245,23.589,15.038,23.002,14.91z M11.968,28.828c-0.881-0.363-3.914-1.516-6.951-1.516
		c-1.199,0-2.262,0.184-3.169,0.548V13.878c0.529-0.177,1.97-0.594,3.744-0.594c2.331,0,4.335,0.706,5.972,2.081v8.345l0.404-0.444
		V28.828z M22.315,27.862c-0.973-0.39-2.089-0.587-3.327-0.587c-3.035,0-5.924,1.162-6.792,1.545v-5.555L12.6,23.71v-8.345
		c1.636-1.375,3.64-2.081,5.972-2.081c1.768,0,3.213,0.417,3.743,0.594V27.862z"/>
</g>
<g>
</g>
<g>
</g>
<g>
</g>
<g>
</g>
<g>
</g>
<g>
</g>
<g>
</g>
<g>
</g>
<g>
</g>
<g>
</g>
<g>
</g>
<g>
</g>
<g>
</g>
<g>
</g>
<g>
</g>
</svg>
