<?xml version="1.0" encoding="iso-8859-1"?>
<!-- Generator: Adobe Illustrator 16.0.0, SVG Export Plug-In . SVG Version: 6.00 Build 0)  -->
<!DOCTYPE svg PUBLIC "-//W3C//DTD SVG 1.1//EN" "http://www.w3.org/Graphics/SVG/1.1/DTD/svg11.dtd">
<svg version="1.1" id="Layer_1" xmlns="http://www.w3.org/2000/svg" xmlns:xlink="http://www.w3.org/1999/xlink" x="0px" y="0px"
	 width="31.406px" height="24.285px" viewBox="0 0 31.406 24.285" style="enable-background:new 0 0 31.406 24.285;"
	 xml:space="preserve">
<g>
	<path style="fill:#070909;" d="M7.697,9.924h18.765c-0.646-2.988-2.46-5.167-5.651-5.703c-3.201-0.538-5.844,0.927-6.903,1.641
		c0.046-0.934,0.092-1.965,0.115-2.562c0.034-0.806,1.452-1.233,2.136-1.887C16.566,1.024,16.149,0,16.149,0
		s-3.546,1.571-3.45,3.091c0.048,0.741,0.056,1.778,0.053,2.647c-0.995-0.662-3.095-1.746-6.056-1.605
		c-4.09,0.192-6.77,3.198-6.694,7.656c0.075,6.18,5.563,11.398,9.386,11.398c0.939,0,1.712-0.119,2.31-0.267l-0.07,0.445
		l0.703-0.363l0.329,1.283l0.441-1.102l0.727,0.771v-0.771l0.962,0.294l-0.228-0.692c0.616,0.208,1.537,0.415,2.766,0.415
		c3.021,0,7.083-2.589,8.695-6.721H7.697V9.924z M9.547,19.589c0,0-2.358-0.346-3.906-2.329c-1.548-1.98-1.081-4.794-1.081-4.794
		s1.034,2.605,2.1,4.22C7.724,18.301,9.547,19.589,9.547,19.589z"/>
	<path style="fill:#070909;" d="M11.18,14.802V13.27c0-0.141-0.013-0.269-0.041-0.382c-0.027-0.114-0.075-0.211-0.144-0.289
		c-0.067-0.079-0.156-0.139-0.271-0.183c-0.112-0.043-0.25-0.064-0.417-0.064c-0.083,0-0.165,0.011-0.244,0.034
		c-0.079,0.024-0.154,0.056-0.222,0.096c-0.067,0.043-0.127,0.094-0.177,0.153c-0.052,0.061-0.091,0.125-0.118,0.196h-0.01v-1.324
		h-0.29v3.294h0.29v-1.389c0.004-0.117,0.021-0.225,0.055-0.325c0.035-0.1,0.085-0.186,0.148-0.259
		c0.064-0.071,0.144-0.129,0.233-0.17c0.091-0.042,0.194-0.063,0.312-0.063c0.116,0,0.213,0.018,0.293,0.055
		c0.077,0.038,0.14,0.088,0.187,0.153c0.046,0.064,0.078,0.14,0.097,0.228c0.019,0.088,0.027,0.183,0.027,0.284v1.486H11.18z"/>
	<path style="fill:#070909;" d="M12.674,12.666v-0.245h-0.484v-0.715h-0.291v0.715h-0.414v0.245h0.414v1.628
		c-0.003,0.204,0.034,0.344,0.112,0.42c0.075,0.077,0.211,0.116,0.404,0.116c0.044,0,0.087-0.002,0.13-0.005
		c0.044-0.003,0.088-0.004,0.129-0.004v-0.249c-0.082,0.009-0.167,0.014-0.248,0.014c-0.105-0.006-0.171-0.036-0.196-0.089
		c-0.026-0.054-0.04-0.128-0.04-0.224v-1.606H12.674z"/>
	<path style="fill:#070909;" d="M14.041,12.666v-0.245h-0.485v-0.715h-0.291v0.715H12.85v0.245h0.415v1.628
		c-0.003,0.204,0.034,0.344,0.111,0.42c0.076,0.077,0.213,0.116,0.405,0.116c0.044,0,0.088-0.002,0.13-0.005
		c0.043-0.003,0.086-0.004,0.13-0.004v-0.249c-0.083,0.009-0.167,0.014-0.25,0.014c-0.105-0.006-0.17-0.036-0.196-0.089
		c-0.025-0.054-0.039-0.128-0.039-0.224v-1.606H14.041z"/>
	<path style="fill:#070909;" d="M14.46,12.421v3.262h0.29V14.35h0.01c0.03,0.086,0.075,0.161,0.133,0.226
		c0.055,0.064,0.12,0.119,0.195,0.164c0.073,0.044,0.152,0.077,0.237,0.099c0.084,0.021,0.172,0.031,0.26,0.031
		c0.182,0,0.34-0.033,0.473-0.101c0.136-0.068,0.246-0.159,0.336-0.274c0.088-0.116,0.154-0.25,0.198-0.402
		c0.042-0.152,0.064-0.312,0.064-0.482c0-0.169-0.022-0.33-0.064-0.482c-0.044-0.152-0.11-0.286-0.198-0.402
		c-0.09-0.116-0.2-0.207-0.336-0.274c-0.133-0.067-0.291-0.102-0.473-0.102c-0.193,0-0.366,0.046-0.518,0.139
		c-0.153,0.091-0.264,0.219-0.331,0.382h-0.009v-0.452H14.46z M14.79,13.225c0.026-0.124,0.071-0.231,0.135-0.323
		c0.066-0.093,0.151-0.166,0.26-0.222s0.241-0.083,0.4-0.083c0.139,0,0.257,0.03,0.355,0.09c0.099,0.061,0.18,0.138,0.243,0.233
		c0.062,0.096,0.108,0.204,0.139,0.326c0.027,0.121,0.044,0.243,0.044,0.367c0,0.123-0.017,0.245-0.044,0.367
		c-0.03,0.121-0.077,0.23-0.139,0.325c-0.063,0.096-0.145,0.174-0.243,0.234s-0.217,0.09-0.355,0.09c-0.153,0-0.283-0.03-0.388-0.09
		c-0.107-0.06-0.192-0.138-0.259-0.234c-0.067-0.095-0.115-0.204-0.144-0.325c-0.029-0.122-0.045-0.244-0.045-0.367
		C14.75,13.477,14.764,13.347,14.79,13.225z"/>
	<rect x="17.279" y="12.495" style="fill:#070909;" width="0.388" height="0.489"/>
	<rect x="17.279" y="14.313" style="fill:#070909;" width="0.388" height="0.49"/>
	<polygon style="fill:#070909;" points="18.054,14.871 18.303,14.871 19.711,11.438 19.476,11.438 	"/>
	<polygon style="fill:#070909;" points="21.246,11.438 21.012,11.438 19.591,14.871 19.84,14.871 	"/>
	<polygon style="fill:#070909;" points="22.309,14.802 22.889,12.8 22.897,12.8 23.485,14.802 23.803,14.802 24.567,12.421 
		24.26,12.421 23.649,14.46 23.642,14.46 23.061,12.421 22.732,12.421 22.151,14.46 22.142,14.46 21.533,12.421 21.224,12.421 
		21.988,14.802 	"/>
	<polygon style="fill:#070909;" points="27.068,14.46 27.06,14.46 26.478,12.421 26.152,12.421 25.569,14.46 25.561,14.46 
		24.95,12.421 24.642,12.421 25.407,14.802 25.728,14.802 26.308,12.8 26.316,12.8 26.902,14.802 27.221,14.802 27.987,12.421 
		27.678,12.421 	"/>
	<polygon style="fill:#070909;" points="31.096,12.421 30.486,14.46 30.477,14.46 29.897,12.421 29.569,12.421 28.988,14.46 
		28.979,14.46 28.37,12.421 28.061,12.421 28.827,14.802 29.145,14.802 29.726,12.8 29.735,12.8 30.321,14.802 30.64,14.802 
		31.406,12.421 	"/>
</g>
<g>
</g>
<g>
</g>
<g>
</g>
<g>
</g>
<g>
</g>
<g>
</g>
<g>
</g>
<g>
</g>
<g>
</g>
<g>
</g>
<g>
</g>
<g>
</g>
<g>
</g>
<g>
</g>
<g>
</g>
</svg>
