<?xml version="1.0" encoding="iso-8859-1"?>
<!-- Generator: Adobe Illustrator 16.0.0, SVG Export Plug-In . SVG Version: 6.00 Build 0)  -->
<!DOCTYPE svg PUBLIC "-//W3C//DTD SVG 1.1//EN" "http://www.w3.org/Graphics/SVG/1.1/DTD/svg11.dtd">
<svg version="1.1" id="Layer_1" xmlns="http://www.w3.org/2000/svg" xmlns:xlink="http://www.w3.org/1999/xlink" x="0px" y="0px"
	 width="31.089px" height="28.238px" viewBox="0 0 31.089 28.238" style="enable-background:new 0 0 31.089 28.238;"
	 xml:space="preserve">
<path style="fill:#070909;" d="M24.198,4.907c-3.723-0.625-6.793,1.079-8.026,1.908c0.051-1.086,0.107-2.285,0.135-2.98
	c0.038-0.937,1.687-1.434,2.484-2.193C19.265,1.19,18.778,0,18.778,0s-4.121,1.827-4.011,3.594c0.055,0.862,0.063,2.068,0.062,3.078
	c-1.157-0.769-3.599-2.03-7.043-1.867c-4.755,0.224-7.873,3.719-7.784,8.902c0.09,7.186,6.468,13.254,10.915,13.254
	c1.094,0,1.99-0.139,2.685-0.311l-0.081,0.517l0.815-0.422l0.386,1.493l0.512-1.282l0.846,0.898v-0.898l1.117,0.343l-0.264-0.805
	c0.717,0.242,1.786,0.482,3.216,0.482c4.447,0,10.849-4.811,10.938-11.996C31.176,9.797,29.05,5.723,24.198,4.907z M6.561,20.07
	c-1.801-2.303-1.256-5.575-1.256-5.575s1.201,3.03,2.438,4.907c1.237,1.877,3.356,3.375,3.356,3.375S8.359,22.375,6.561,20.07z"/>
<g>
</g>
<g>
</g>
<g>
</g>
<g>
</g>
<g>
</g>
<g>
</g>
<g>
</g>
<g>
</g>
<g>
</g>
<g>
</g>
<g>
</g>
<g>
</g>
<g>
</g>
<g>
</g>
<g>
</g>
</svg>
