<?xml version="1.0" encoding="iso-8859-1"?>
<!-- Generator: Adobe Illustrator 16.0.0, SVG Export Plug-In . SVG Version: 6.00 Build 0)  -->
<!DOCTYPE svg PUBLIC "-//W3C//DTD SVG 1.1//EN" "http://www.w3.org/Graphics/SVG/1.1/DTD/svg11.dtd">
<svg version="1.1" id="Layer_1" xmlns="http://www.w3.org/2000/svg" xmlns:xlink="http://www.w3.org/1999/xlink" x="0px" y="0px"
	 width="28.021px" height="33.416px" viewBox="0 0 28.021 33.416" style="enable-background:new 0 0 28.021 33.416;"
	 xml:space="preserve">
<g>
	<polygon points="18.169,14.975 18.169,17.122 16.02,17.122 16.02,18.988 18.169,18.988 18.169,21.136 20.034,21.136 20.034,18.988 
		22.183,18.988 22.183,17.122 20.034,17.122 20.034,14.975 	"/>
	<path d="M8.917,8.422C8.482,8.806,8.619,9.681,9.426,9.304c0.81-0.377,2.931-1.136,4.583-1.136c5.448,0,9.882,4.432,9.882,9.878
		s-4.434,8.862-9.882,8.862c-5.446,0-9.877-3.416-9.877-8.862c0-1.728,0.908-4.419,1.23-4.763c0.322-0.348-0.493-1.226-0.818-0.612
		c-0.321,0.612-1.429,3.42-1.429,5.375c0,6.007,4.887,9.881,10.894,9.881c6.01,0,10.898-3.874,10.898-9.881
		c0-6.008-4.889-10.895-10.898-10.895C12.171,7.151,9.35,8.042,8.917,8.422z"/>
	<path d="M12.748,21.728c0.36-0.112,0.68-0.276,0.96-0.492s0.507-0.486,0.679-0.81c0.172-0.324,0.258-0.702,0.258-1.134
		c0-0.313-0.042-0.589-0.126-0.828c-0.084-0.24-0.194-0.446-0.33-0.618s-0.294-0.314-0.474-0.426c-0.18-0.112-0.366-0.2-0.558-0.265
		c0.319-0.176,0.575-0.392,0.768-0.647c0.191-0.256,0.287-0.601,0.287-1.032c0-0.216-0.035-0.45-0.107-0.702
		s-0.21-0.486-0.414-0.702s-0.483-0.394-0.84-0.534c-0.356-0.14-0.814-0.21-1.374-0.21H6.785v8.568h4.859
		C12.021,21.896,12.389,21.84,12.748,21.728z M9.425,15.367h1.392c0.271,0,0.49,0.044,0.654,0.132
		c0.164,0.089,0.246,0.24,0.246,0.456c0,0.28-0.08,0.469-0.24,0.564s-0.38,0.144-0.66,0.144H9.425V15.367z M10.973,19.855H9.425
		V18.26h1.656c0.615,0,0.923,0.26,0.923,0.779c0,0.168-0.027,0.305-0.084,0.408c-0.055,0.104-0.131,0.187-0.228,0.246
		c-0.096,0.061-0.206,0.103-0.33,0.126C11.238,19.844,11.108,19.855,10.973,19.855z"/>
	<path d="M21.925,0l-0.243,0.022L21.66,0H0v33.416h28.021V8.991V6.362V6.098L21.925,0z M26.521,31.916H1.5V1.5h19.151v5.97h5.87
		V31.916z"/>
</g>
<g>
</g>
<g>
</g>
<g>
</g>
<g>
</g>
<g>
</g>
<g>
</g>
<g>
</g>
<g>
</g>
<g>
</g>
<g>
</g>
<g>
</g>
<g>
</g>
<g>
</g>
<g>
</g>
<g>
</g>
</svg>
