<?xml version="1.0" encoding="iso-8859-1"?>
<!-- Generator: Adobe Illustrator 16.0.0, SVG Export Plug-In . SVG Version: 6.00 Build 0)  -->
<!DOCTYPE svg PUBLIC "-//W3C//DTD SVG 1.1//EN" "http://www.w3.org/Graphics/SVG/1.1/DTD/svg11.dtd">
<svg version="1.1" id="Layer_1" xmlns="http://www.w3.org/2000/svg" xmlns:xlink="http://www.w3.org/1999/xlink" x="0px" y="0px"
	 width="31.302px" height="26.052px" viewBox="0 0 31.302 26.052" style="enable-background:new 0 0 31.302 26.052;"
	 xml:space="preserve">
<g>
	<path d="M12.636,13.869c-1.943-0.327-3.548,0.562-4.191,0.995c0.027-0.566,0.056-1.192,0.071-1.556
		c0.02-0.489,0.881-0.749,1.297-1.145c0.247-0.236-0.006-0.857-0.006-0.857s-2.152,0.954-2.095,1.877
		c0.028,0.449,0.034,1.079,0.032,1.607c-0.604-0.403-1.879-1.061-3.678-0.976c-2.483,0.117-4.111,1.942-4.065,4.65
		c0.046,3.752,3.377,6.92,5.7,6.92c0.571,0,1.039-0.072,1.402-0.163L7.06,25.493l0.427-0.221l0.2,0.78l0.268-0.669l0.44,0.469
		v-0.469l0.584,0.179l-0.138-0.42c0.374,0.126,0.933,0.252,1.679,0.252c2.322,0,5.666-2.512,5.711-6.264
		C16.279,16.422,15.169,14.294,12.636,13.869z M3.425,21.787c-0.94-1.203-0.656-2.912-0.656-2.912s0.628,1.583,1.275,2.563
		c0.646,0.98,1.752,1.763,1.752,1.763S4.365,22.99,3.425,21.787z"/>
	<path d="M17.11,20.56h10.11v-4.732h1.015v-1.585H15.914c0,0,0.67,0.778,1.017,1.585c0.499,0,9.712,0,9.712,0v4.156h-9.43
		C17.188,20.179,17.149,20.37,17.11,20.56z"/>
	<path d="M24.049,18.271h-6.795c0.016,0.267,0.024,0.538,0.02,0.815h6.775V18.271z"/>
	<path d="M28.325,2.159V0h-2.787v2.159H14.297V0h-2.786v2.159H7.668v6.903v1.321v0.618h0.54h0.613h4.083v1.276h3.314v-1.276h6.605
		v1.427h3.315v-1.427h4.011v11.094H16.624c-0.179,0.407-0.388,0.791-0.623,1.153h15.301V2.159H28.325z M30.149,9.849h-4.011V8.514
		h-3.315v1.335h-6.605V8.363h-3.314v1.458H8.821V9.663v-0.6v-5.75h21.329V9.849z"/>
</g>
<g>
</g>
<g>
</g>
<g>
</g>
<g>
</g>
<g>
</g>
<g>
</g>
<g>
</g>
<g>
</g>
<g>
</g>
<g>
</g>
<g>
</g>
<g>
</g>
<g>
</g>
<g>
</g>
<g>
</g>
</svg>
