<?xml version="1.0" encoding="iso-8859-1"?>
<!-- Generator: Adobe Illustrator 16.0.0, SVG Export Plug-In . SVG Version: 6.00 Build 0)  -->
<!DOCTYPE svg PUBLIC "-//W3C//DTD SVG 1.1//EN" "http://www.w3.org/Graphics/SVG/1.1/DTD/svg11.dtd">
<svg version="1.1" id="Layer_1" xmlns="http://www.w3.org/2000/svg" xmlns:xlink="http://www.w3.org/1999/xlink" x="0px" y="0px"
	 width="29.936px" height="25.749px" viewBox="0 0 29.936 25.749" style="enable-background:new 0 0 29.936 25.749;"
	 xml:space="preserve">
<g>
	<path d="M0,18.165h10.91l-3.76,7.584h2.9l1.288-2.613h6.719l1.288,2.613h2.931l-3.786-7.584h11.446v-1.257H0V18.165z
		 M13.789,18.165h1.818l1.497,3.036h-4.812L13.789,18.165z"/>
	<polygon points="0,0 0,1.325 1.29,1.325 1.29,1.29 28.646,1.29 28.646,1.325 29.936,1.325 29.936,0 	"/>
	<path d="M5.166,5.082C5.255,4.963,5.3,4.803,5.3,4.602c0-0.101-0.017-0.209-0.05-0.326C5.216,4.16,5.152,4.05,5.058,3.95
		C4.962,3.849,4.832,3.767,4.667,3.701C4.501,3.636,4.288,3.604,4.028,3.604H1.847v3.982h2.259c0.175,0,0.346-0.027,0.513-0.078
		C4.787,7.456,4.936,7.38,5.065,7.279c0.13-0.1,0.236-0.226,0.315-0.376C5.46,6.753,5.5,6.577,5.5,6.376
		c0-0.145-0.02-0.273-0.059-0.385C5.403,5.879,5.352,5.784,5.289,5.704S5.152,5.558,5.068,5.505
		c-0.083-0.051-0.17-0.093-0.259-0.122C4.958,5.301,5.076,5.201,5.166,5.082z M3.075,4.552h0.646c0.127,0,0.228,0.021,0.304,0.062
		S4.14,4.726,4.14,4.825c0,0.13-0.037,0.218-0.112,0.263C3.954,5.133,3.851,5.154,3.721,5.154H3.075V4.552z M4.234,6.449
		C4.208,6.496,4.173,6.535,4.128,6.563C4.083,6.591,4.032,6.61,3.975,6.621C3.917,6.632,3.857,6.638,3.794,6.638H3.075V5.896h0.769
		c0.286,0,0.43,0.121,0.43,0.362C4.274,6.337,4.261,6.4,4.234,6.449z"/>
	<path d="M7.084,3.604L5.617,7.586H6.85l0.18-0.569h1.266l0.167,0.569h1.272l-1.45-3.982H7.084z M7.296,6.164l0.384-1.227h0.011
		l0.357,1.227H7.296z"/>
	<path d="M11.281,4.847c0.058-0.104,0.135-0.188,0.231-0.251c0.096-0.063,0.218-0.095,0.362-0.095c0.127,0,0.23,0.024,0.31,0.073
		c0.08,0.048,0.144,0.104,0.192,0.167c0.049,0.063,0.082,0.127,0.101,0.193c0.018,0.064,0.031,0.116,0.039,0.154h1.193
		c-0.052-0.503-0.228-0.891-0.526-1.164c-0.299-0.273-0.725-0.413-1.275-0.416c-0.309,0-0.586,0.05-0.834,0.151
		c-0.247,0.1-0.459,0.241-0.636,0.423c-0.176,0.183-0.312,0.402-0.407,0.659C9.937,4.999,9.89,5.283,9.89,5.595
		c0,0.293,0.044,0.569,0.134,0.823c0.089,0.256,0.22,0.475,0.393,0.661c0.173,0.186,0.384,0.333,0.633,0.44
		c0.25,0.108,0.536,0.162,0.859,0.162c0.29,0,0.548-0.048,0.775-0.145c0.227-0.097,0.417-0.224,0.571-0.383
		c0.155-0.158,0.272-0.335,0.352-0.533c0.08-0.196,0.121-0.395,0.121-0.596h-1.206c-0.018,0.092-0.043,0.18-0.075,0.262
		c-0.031,0.082-0.072,0.153-0.123,0.213c-0.05,0.059-0.111,0.105-0.184,0.139c-0.073,0.034-0.161,0.05-0.266,0.05
		c-0.144,0-0.266-0.031-0.362-0.094c-0.097-0.063-0.174-0.146-0.231-0.251c-0.057-0.104-0.1-0.221-0.125-0.352
		c-0.027-0.13-0.039-0.262-0.039-0.396c0-0.134,0.012-0.266,0.039-0.396C11.181,5.069,11.224,4.953,11.281,4.847z"/>
	<polygon points="14.273,3.604 14.273,7.586 15.501,7.586 15.501,6.41 15.84,6.036 16.822,7.586 18.351,7.586 16.671,5.16 
		18.116,3.604 16.605,3.604 15.512,4.976 15.501,4.976 15.501,3.604 	"/>
	<polygon points="20.258,4.625 21.374,4.625 21.374,7.586 22.601,7.586 22.601,4.625 23.716,4.625 23.716,3.604 20.258,3.604 	"/>
	<path d="M25.244,7.524c0.249,0.104,0.524,0.156,0.826,0.156s0.577-0.053,0.826-0.156c0.249-0.104,0.462-0.248,0.639-0.432
		c0.176-0.184,0.313-0.403,0.41-0.658C28.04,6.18,28.088,5.9,28.088,5.595S28.04,5.01,27.943,4.756
		c-0.097-0.255-0.233-0.475-0.41-0.659c-0.177-0.184-0.39-0.327-0.639-0.432c-0.249-0.104-0.524-0.156-0.826-0.156
		s-0.577,0.052-0.826,0.156c-0.249,0.105-0.462,0.248-0.638,0.432c-0.177,0.184-0.313,0.404-0.411,0.659
		C24.098,5.01,24.05,5.29,24.05,5.595s0.048,0.585,0.145,0.839c0.097,0.255,0.233,0.475,0.411,0.658
		C24.782,7.277,24.995,7.42,25.244,7.524z M25.358,5.048c0.054-0.141,0.12-0.252,0.198-0.332c0.079-0.081,0.164-0.136,0.256-0.167
		c0.093-0.031,0.179-0.048,0.257-0.048s0.164,0.017,0.257,0.048c0.092,0.031,0.178,0.087,0.256,0.167
		c0.078,0.08,0.145,0.19,0.198,0.332c0.053,0.142,0.081,0.324,0.081,0.546c0,0.223-0.027,0.406-0.081,0.547
		c-0.054,0.141-0.12,0.252-0.198,0.332c-0.078,0.08-0.164,0.136-0.256,0.167c-0.093,0.033-0.179,0.047-0.257,0.047
		s-0.164-0.014-0.257-0.047c-0.093-0.031-0.178-0.087-0.256-0.167c-0.078-0.08-0.144-0.19-0.198-0.332
		C25.305,6,25.277,5.818,25.277,5.595C25.277,5.373,25.305,5.19,25.358,5.048z"/>
	<path d="M5.292,12.212c-0.105-0.087-0.226-0.159-0.359-0.215s-0.271-0.104-0.412-0.146c-0.141-0.037-0.281-0.071-0.416-0.103
		c-0.136-0.03-0.257-0.064-0.365-0.099c-0.108-0.036-0.196-0.077-0.265-0.124s-0.105-0.104-0.108-0.175
		c0-0.057,0.015-0.102,0.044-0.138c0.03-0.035,0.067-0.062,0.111-0.08c0.045-0.019,0.093-0.032,0.145-0.039
		c0.052-0.007,0.099-0.011,0.14-0.011c0.063,0,0.126,0.008,0.19,0.022c0.063,0.015,0.121,0.041,0.173,0.078
		c0.052,0.034,0.092,0.076,0.12,0.128c0.028,0.052,0.037,0.115,0.025,0.19h1.161c-0.008-0.242-0.058-0.445-0.151-0.611
		s-0.215-0.299-0.368-0.401c-0.153-0.103-0.327-0.177-0.524-0.221c-0.197-0.045-0.403-0.068-0.619-0.068
		c-0.205,0-0.404,0.026-0.596,0.076c-0.193,0.051-0.364,0.13-0.513,0.237c-0.149,0.108-0.269,0.245-0.36,0.41
		s-0.137,0.363-0.137,0.594c0,0.2,0.041,0.365,0.123,0.493c0.082,0.128,0.187,0.235,0.315,0.318c0.127,0.083,0.273,0.15,0.435,0.2
		c0.161,0.051,0.32,0.099,0.476,0.144c0.171,0.047,0.312,0.089,0.425,0.124c0.111,0.036,0.198,0.069,0.262,0.101
		c0.063,0.032,0.107,0.065,0.134,0.101c0.026,0.036,0.039,0.079,0.039,0.131c0,0.075-0.017,0.135-0.05,0.182
		c-0.033,0.046-0.076,0.083-0.129,0.112c-0.052,0.028-0.107,0.046-0.167,0.055c-0.06,0.01-0.114,0.015-0.162,0.015
		c-0.115,0-0.23-0.019-0.346-0.056s-0.195-0.115-0.24-0.234c-0.03-0.078-0.044-0.166-0.044-0.263H2.049
		c0,0.212,0.033,0.395,0.1,0.547c0.067,0.152,0.153,0.283,0.257,0.391c0.104,0.106,0.221,0.193,0.352,0.256
		c0.129,0.063,0.26,0.114,0.39,0.15c0.13,0.038,0.253,0.061,0.368,0.073c0.115,0.011,0.21,0.017,0.285,0.017
		c0.223,0,0.444-0.023,0.663-0.069c0.22-0.047,0.417-0.123,0.592-0.229c0.174-0.106,0.316-0.247,0.424-0.421
		c0.108-0.175,0.161-0.392,0.161-0.653c0-0.182-0.031-0.337-0.095-0.466C5.483,12.408,5.398,12.299,5.292,12.212z"/>
	<path d="M7.295,11.541c0.057-0.104,0.135-0.188,0.231-0.25c0.097-0.064,0.217-0.096,0.362-0.096c0.126,0,0.229,0.025,0.31,0.073
		c0.08,0.048,0.145,0.104,0.192,0.167c0.049,0.063,0.082,0.127,0.101,0.193c0.019,0.065,0.031,0.116,0.039,0.153h1.193
		c-0.052-0.502-0.227-0.889-0.527-1.163c-0.299-0.273-0.724-0.412-1.274-0.416c-0.309,0-0.587,0.051-0.834,0.151
		c-0.248,0.1-0.459,0.242-0.635,0.424c-0.177,0.182-0.313,0.401-0.407,0.658c-0.094,0.256-0.142,0.542-0.142,0.853
		c0,0.294,0.045,0.569,0.134,0.823s0.22,0.475,0.393,0.662c0.173,0.185,0.384,0.333,0.633,0.439
		c0.249,0.108,0.535,0.162,0.859,0.162c0.29,0,0.548-0.048,0.775-0.146c0.227-0.096,0.417-0.223,0.572-0.382
		c0.154-0.157,0.271-0.335,0.351-0.532c0.081-0.198,0.121-0.396,0.121-0.596H8.536c-0.019,0.092-0.044,0.179-0.075,0.261
		c-0.032,0.081-0.073,0.153-0.123,0.212c-0.05,0.06-0.111,0.105-0.184,0.139c-0.073,0.034-0.161,0.05-0.265,0.05
		c-0.145,0-0.265-0.032-0.362-0.095c-0.097-0.063-0.174-0.147-0.231-0.251c-0.058-0.104-0.1-0.221-0.126-0.352
		c-0.026-0.129-0.039-0.262-0.039-0.396c0-0.133,0.013-0.266,0.039-0.396C7.195,11.762,7.237,11.645,7.295,11.541z"/>
	<polygon points="13.856,14.278 13.856,10.296 12.629,10.296 12.629,11.68 11.48,11.68 11.48,10.296 10.253,10.296 10.253,14.278 
		11.48,14.278 11.48,12.701 12.629,12.701 12.629,14.278 	"/>
	<path d="M17.214,10.358c-0.249-0.104-0.524-0.157-0.826-0.157s-0.576,0.053-0.825,0.157c-0.25,0.104-0.462,0.247-0.639,0.432
		c-0.177,0.183-0.313,0.403-0.41,0.657c-0.097,0.255-0.146,0.535-0.146,0.839c0,0.306,0.048,0.585,0.146,0.84
		c0.096,0.254,0.233,0.474,0.41,0.659c0.176,0.184,0.389,0.328,0.639,0.432c0.249,0.104,0.524,0.156,0.825,0.156
		s0.577-0.052,0.826-0.156c0.249-0.104,0.462-0.248,0.639-0.432c0.176-0.185,0.313-0.405,0.41-0.659
		c0.097-0.254,0.145-0.534,0.145-0.84c0-0.304-0.048-0.584-0.145-0.839c-0.097-0.254-0.234-0.474-0.41-0.657
		C17.676,10.605,17.462,10.462,17.214,10.358z M17.099,12.834c-0.054,0.141-0.12,0.252-0.198,0.332
		c-0.078,0.081-0.164,0.136-0.256,0.167c-0.093,0.031-0.178,0.047-0.257,0.047c-0.078,0-0.163-0.016-0.256-0.047
		c-0.094-0.032-0.179-0.087-0.257-0.167c-0.078-0.08-0.145-0.19-0.198-0.332c-0.054-0.142-0.081-0.324-0.081-0.547
		c0-0.222,0.026-0.405,0.081-0.546c0.054-0.141,0.12-0.251,0.198-0.332c0.078-0.08,0.163-0.136,0.257-0.167
		c0.093-0.032,0.178-0.047,0.256-0.047c0.079,0,0.164,0.016,0.257,0.047c0.093,0.031,0.178,0.088,0.256,0.167
		c0.078,0.08,0.144,0.191,0.198,0.332c0.054,0.142,0.081,0.324,0.081,0.546C17.18,12.511,17.153,12.693,17.099,12.834z"/>
	<path d="M19.364,10.791c-0.177,0.183-0.313,0.403-0.41,0.657c-0.097,0.255-0.146,0.535-0.146,0.839c0,0.306,0.048,0.585,0.146,0.84
		c0.096,0.254,0.232,0.474,0.41,0.659c0.176,0.184,0.389,0.328,0.639,0.432c0.249,0.104,0.524,0.156,0.825,0.156
		c0.301,0,0.577-0.052,0.826-0.156s0.462-0.248,0.639-0.432c0.177-0.185,0.313-0.405,0.41-0.659c0.097-0.254,0.145-0.534,0.145-0.84
		c0-0.304-0.048-0.584-0.145-0.839c-0.097-0.254-0.233-0.474-0.41-0.657c-0.177-0.185-0.39-0.329-0.639-0.432
		c-0.249-0.104-0.524-0.157-0.826-0.157c-0.301,0-0.577,0.053-0.825,0.157C19.753,10.462,19.54,10.605,19.364,10.791z
		 M20.116,11.741c0.054-0.141,0.12-0.251,0.199-0.332c0.078-0.08,0.164-0.136,0.256-0.167c0.093-0.032,0.178-0.047,0.256-0.047
		s0.164,0.016,0.257,0.047c0.092,0.031,0.179,0.088,0.257,0.167c0.078,0.08,0.144,0.191,0.198,0.332
		c0.053,0.142,0.081,0.324,0.081,0.546c0,0.224-0.028,0.406-0.081,0.547c-0.054,0.141-0.12,0.252-0.198,0.332
		c-0.078,0.081-0.165,0.136-0.257,0.167c-0.093,0.031-0.179,0.047-0.257,0.047s-0.164-0.016-0.256-0.047
		c-0.092-0.032-0.178-0.087-0.256-0.167c-0.079-0.08-0.145-0.19-0.199-0.332c-0.053-0.142-0.081-0.324-0.081-0.547
		C20.036,12.065,20.063,11.882,20.116,11.741z"/>
	<polygon points="23.365,14.278 26.354,14.278 26.354,13.258 24.592,13.258 24.592,10.296 23.365,10.296 	"/>
</g>
<g>
</g>
<g>
</g>
<g>
</g>
<g>
</g>
<g>
</g>
<g>
</g>
<g>
</g>
<g>
</g>
<g>
</g>
<g>
</g>
<g>
</g>
<g>
</g>
<g>
</g>
<g>
</g>
<g>
</g>
</svg>
