<?xml version="1.0" encoding="iso-8859-1"?>
<!-- Generator: Adobe Illustrator 16.0.0, SVG Export Plug-In . SVG Version: 6.00 Build 0)  -->
<!DOCTYPE svg PUBLIC "-//W3C//DTD SVG 1.1//EN" "http://www.w3.org/Graphics/SVG/1.1/DTD/svg11.dtd">
<svg version="1.1" id="Layer_1" xmlns="http://www.w3.org/2000/svg" xmlns:xlink="http://www.w3.org/1999/xlink" x="0px" y="0px"
	 width="31.981px" height="19.055px" viewBox="0 0 31.981 19.055" style="enable-background:new 0 0 31.981 19.055;"
	 xml:space="preserve">
<path d="M24.454,4c-0.687,0-1.351,0.102-1.983,0.274V2.035h-3.303C18.965,0.889,17.702,0,16.157,0s-2.808,0.889-3.01,2.035H9.427
	v2.218C8.819,4.094,8.184,4,7.527,4C3.377,4,0,7.377,0,11.527s3.377,7.527,7.527,7.527c2.805,0,5.251-1.545,6.546-3.825h3.833
	c1.295,2.28,3.742,3.825,6.546,3.825c4.15,0,7.527-3.377,7.527-7.527S28.604,4,24.454,4z M7.527,16.81
	c-2.913,0-5.282-2.37-5.282-5.282s2.369-5.281,5.282-5.281s5.282,2.369,5.282,5.281S10.44,16.81,7.527,16.81z M18.715,6.667h-5.45
	c-0.392-0.462-0.84-0.872-1.332-1.229h8.113C19.556,5.795,19.107,6.205,18.715,6.667z M24.454,16.81
	c-2.913,0-5.282-2.37-5.282-5.282s2.369-5.281,5.282-5.281s5.282,2.369,5.282,5.281S27.366,16.81,24.454,16.81z"/>
<g>
</g>
<g>
</g>
<g>
</g>
<g>
</g>
<g>
</g>
<g>
</g>
<g>
</g>
<g>
</g>
<g>
</g>
<g>
</g>
<g>
</g>
<g>
</g>
<g>
</g>
<g>
</g>
<g>
</g>
</svg>
