<?xml version="1.0" encoding="iso-8859-1"?>
<!-- Generator: Adobe Illustrator 16.0.0, SVG Export Plug-In . SVG Version: 6.00 Build 0)  -->
<!DOCTYPE svg PUBLIC "-//W3C//DTD SVG 1.1//EN" "http://www.w3.org/Graphics/SVG/1.1/DTD/svg11.dtd">
<svg version="1.1" id="Layer_1" xmlns="http://www.w3.org/2000/svg" xmlns:xlink="http://www.w3.org/1999/xlink" x="0px" y="0px"
	 width="26.534px" height="31.982px" viewBox="0 0 26.534 31.982" style="enable-background:new 0 0 26.534 31.982;"
	 xml:space="preserve">
<g>
	<polygon points="24.711,25.827 24.711,25.274 26.534,25.274 26.534,24.542 0,24.542 0,25.274 0.015,25.274 0.015,31.252 0,31.252 
		0,31.982 26.534,31.982 26.534,31.252 24.711,31.252 24.711,30.925 1.867,30.925 1.867,30.687 1.836,30.687 1.836,30.546 
		24.711,30.546 24.711,30.24 1.847,30.24 1.847,30.126 1.836,30.126 1.836,29.987 1.847,29.987 1.847,29.938 24.711,29.938 
		24.711,29.515 1.807,29.515 1.807,29.438 1.793,29.438 1.793,29.297 1.807,29.297 1.807,29.212 24.711,29.212 24.711,28.83 
		1.786,28.83 1.786,28.527 24.711,28.527 24.711,28.165 1.786,28.165 1.786,27.862 24.711,27.862 24.711,27.479 1.826,27.479 
		1.826,27.177 24.711,27.177 24.711,26.794 1.807,26.794 1.807,26.492 24.711,26.492 24.711,26.129 1.807,26.129 1.807,25.827 	"/>
	<polygon points="23.174,23.661 23.163,23.661 23.163,19.9 23.174,19.9 23.174,19.439 12.443,19.439 2.671,19.439 2.671,19.9 
		4.079,19.9 4.079,20.226 21.97,20.226 21.97,20.527 4.079,20.527 4.079,20.891 21.97,20.891 21.97,21.192 4.079,21.192 
		4.079,21.576 21.929,21.576 21.929,21.741 21.955,21.741 21.955,21.878 4.079,21.878 4.079,22.26 21.949,22.26 21.949,22.387 
		21.955,22.387 21.955,22.524 21.949,22.524 21.949,22.563 4.079,22.563 4.079,22.925 21.949,22.925 21.949,23.076 21.955,23.076 
		21.955,23.214 21.949,23.214 21.949,23.228 4.079,23.228 4.079,23.661 2.671,23.661 2.671,24.121 23.174,24.121 	"/>
	<path d="M20.497,17.226h-1.936v-5.16L14.606,9.5l4.131-2.562l-0.019-0.03l0.009-0.005V1.745h1.769V0h-1.769h-0.821h-8H9.086H7.354
		v1.745H8.38h0.706v5.149l3.903,2.601l-4.079,2.53l0.019,0.028L8.919,12.06v5.167H8.38H7.354v1.746h13.144V17.226z M9.908,6.452
		V1.745h8v4.701l-4.095,2.54L9.908,6.452z M17.74,17.226h-8v-4.708l4.031-2.5l3.968,2.645V17.226z"/>
	<polygon points="17.418,4.107 10.401,4.107 10.401,6.033 13.807,8.283 17.418,6.042 	"/>
	<polygon points="12.126,15.84 10.196,16.099 10.196,16.837 17.308,16.837 17.308,16.099 15.55,15.885 13.751,15.177 	"/>
</g>
<g>
</g>
<g>
</g>
<g>
</g>
<g>
</g>
<g>
</g>
<g>
</g>
<g>
</g>
<g>
</g>
<g>
</g>
<g>
</g>
<g>
</g>
<g>
</g>
<g>
</g>
<g>
</g>
<g>
</g>
</svg>
