<?xml version="1.0" encoding="iso-8859-1"?>
<!-- Generator: Adobe Illustrator 16.0.0, SVG Export Plug-In . SVG Version: 6.00 Build 0)  -->
<!DOCTYPE svg PUBLIC "-//W3C//DTD SVG 1.1//EN" "http://www.w3.org/Graphics/SVG/1.1/DTD/svg11.dtd">
<svg version="1.1" id="Layer_1" xmlns="http://www.w3.org/2000/svg" xmlns:xlink="http://www.w3.org/1999/xlink" x="0px" y="0px"
	 width="22.725px" height="31.459px" viewBox="0 0 22.725 31.459" style="enable-background:new 0 0 22.725 31.459;"
	 xml:space="preserve">
<path d="M4.578,4.912l-0.364-0.25l17.209-1.868l-0.021-0.193L3.968,4.493L3.666,4.285l17.409-1.903l-0.021-0.193L3.421,4.118
	l-0.334-0.23l17.679-1.956l-0.021-0.193L2.841,3.719L2.468,3.462l17.907-1.991l-0.021-0.192L2.224,3.294L1.819,3.016l0.579-0.059
	l18.424-2.004L20.146,0L0,2.135v0.292v0.778v25.659l3.649,2.576v0.02l19.071-1.935l0.004-26.453L4.578,4.912z M19.613,14.762
	L8.248,15.998v-6.4l11.365-1.237V14.762z"/>
<g>
</g>
<g>
</g>
<g>
</g>
<g>
</g>
<g>
</g>
<g>
</g>
<g>
</g>
<g>
</g>
<g>
</g>
<g>
</g>
<g>
</g>
<g>
</g>
<g>
</g>
<g>
</g>
<g>
</g>
</svg>
