<?xml version="1.0" encoding="iso-8859-1"?>
<!-- Generator: Adobe Illustrator 16.0.0, SVG Export Plug-In . SVG Version: 6.00 Build 0)  -->
<!DOCTYPE svg PUBLIC "-//W3C//DTD SVG 1.1//EN" "http://www.w3.org/Graphics/SVG/1.1/DTD/svg11.dtd">
<svg version="1.1" id="Layer_1" xmlns="http://www.w3.org/2000/svg" xmlns:xlink="http://www.w3.org/1999/xlink" x="0px" y="0px"
	 width="30.354px" height="28.479px" viewBox="0 0 30.354 28.479" style="enable-background:new 0 0 30.354 28.479;"
	 xml:space="preserve">
<g>
	<path d="M25.786,1.552l-2.745,3.885l0.005,0.004l-2.093,2.962l0,0l-6.416,9.082l-1.688,6.792l6.162-3.498l8.59-12.12l0.008,0.005
		l2.745-3.886L25.786,1.552z M18.705,20.358l-3.52,1.994l-1.131-0.8l0.937-3.807l0.388-0.549l0.236,2.113l1.393-0.603L17,20.287
		l1.985-0.325L18.705,20.358z M25.019,4.443l1.016-1.438l2.867,2.024l-1.016,1.438L25.019,4.443z"/>
	<polygon points="19.455,21.27 19.33,21.34 13.167,24.839 11.862,25.58 12.224,24.123 13.912,17.329 13.941,17.211 14.011,17.113 
		20.953,7.287 20.953,4.443 1.307,4.443 1.307,4.09 20.275,4.09 20.275,3.928 1.307,3.928 1.307,3.553 20.275,3.553 20.275,3.392 
		1.307,3.392 1.307,3.002 20.275,3.002 20.275,2.84 1.307,2.84 1.307,2.398 20.275,2.398 20.275,2.237 1.307,2.237 1.307,1.847 
		20.208,1.847 20.208,1.686 1.307,1.686 1.307,1.291 20.815,1.291 20.815,0 0.017,0 0.017,4.443 0,4.443 0,28.479 20.953,28.479 
		20.953,19.156 19.538,21.154 	"/>
</g>
<g>
</g>
<g>
</g>
<g>
</g>
<g>
</g>
<g>
</g>
<g>
</g>
<g>
</g>
<g>
</g>
<g>
</g>
<g>
</g>
<g>
</g>
<g>
</g>
<g>
</g>
<g>
</g>
<g>
</g>
</svg>
