<?xml version="1.0" encoding="iso-8859-1"?>
<!-- Generator: Adobe Illustrator 16.0.0, SVG Export Plug-In . SVG Version: 6.00 Build 0)  -->
<!DOCTYPE svg PUBLIC "-//W3C//DTD SVG 1.1//EN" "http://www.w3.org/Graphics/SVG/1.1/DTD/svg11.dtd">
<svg version="1.1" id="Layer_1" xmlns="http://www.w3.org/2000/svg" xmlns:xlink="http://www.w3.org/1999/xlink" x="0px" y="0px"
	 width="30.833px" height="27.016px" viewBox="0 0 30.833 27.016" style="enable-background:new 0 0 30.833 27.016;"
	 xml:space="preserve">
<g>
	<path d="M18.886,3.849v9.804l-1.28-0.82l-1.28,1.684V4.109l-1.076,0.109l-0.313-0.215l14.779-1.604l-0.018-0.166L14.726,3.858
		l-0.26-0.178l14.95-1.635L29.398,1.88L14.255,3.535l-0.287-0.197l15.182-1.68l-0.018-0.165l-15.375,1.7l-0.32-0.22l15.378-1.71
		l-0.018-0.165L13.228,2.83L12.88,2.59l0.498-0.051l15.821-1.721L28.619,0l-17.3,1.833v0.25v0.668v6.44
		C10.52,8.944,9.19,8.668,7.165,8.646c-3.74-0.04-5.722,2.058-6.021,2.682c-0.161,0.335-0.128,0.695,0.098,1.07
		c0.31,0.52,0.634,0.546,0.975,0.573c0.324,0.026,0.689,0.057,1.253,0.488c0.907,0.696,0.787,1.943,0.715,2.37H0v4.562h8.662V15.83
		H4.554c0.086-0.542,0.17-1.864-0.863-2.657c-0.648-0.498-1.109-0.536-1.444-0.563c-0.32-0.025-0.479-0.039-0.695-0.397
		c-0.16-0.268-0.188-0.506-0.082-0.725c0.214-0.448,2.381-2.679,5.843-2.488c1.897,0.105,3.207,0.385,4.005,0.618v15.17l3.134,2.211
		v0.018l16.377-1.661l0.004-22.717L18.886,3.849z M4.345,16.848c0.34,0,0.615,0.275,0.615,0.615v1.6
		c0,0.339-0.275,0.615-0.615,0.615H4.316c-0.34,0-0.614-0.276-0.614-0.615v-1.6c0-0.34,0.274-0.615,0.614-0.615H4.345z"/>
	<path d="M0,22.783c0,2.337,1.895,4.232,4.232,4.232h0.197c2.338,0,4.232-1.896,4.232-4.232v-2.148H0V22.783z"/>
</g>
<g>
</g>
<g>
</g>
<g>
</g>
<g>
</g>
<g>
</g>
<g>
</g>
<g>
</g>
<g>
</g>
<g>
</g>
<g>
</g>
<g>
</g>
<g>
</g>
<g>
</g>
<g>
</g>
<g>
</g>
</svg>
