<?xml version="1.0" encoding="utf-8"?>
<!-- Generator: Adobe Illustrator 16.0.4, SVG Export Plug-In . SVG Version: 6.00 Build 0)  -->
<!DOCTYPE svg PUBLIC "-//W3C//DTD SVG 1.1//EN" "http://www.w3.org/Graphics/SVG/1.1/DTD/svg11.dtd">
<svg version="1.1" id="Layer_1" xmlns="http://www.w3.org/2000/svg" xmlns:xlink="http://www.w3.org/1999/xlink" x="0px" y="0px"
	 width="31.385px" height="28.605px" viewBox="0 0 31.385 28.605" enable-background="new 0 0 31.385 28.605" xml:space="preserve">
<path d="M22.976,0.593v27.42h8.409V0.593H22.976z M30.233,26.862h-6.108V1.745h6.108V26.862z M29.315,5.793h-4.265V4.615h4.265
	V5.793z M29.31,7.74h-4.267V6.56h4.267V7.74z M25.051,22.625h4.265v1.179h-4.265V22.625z M14.006,1.806L6.124,0L0,26.728
	l8.198,1.878l5.808-25.343v25.02h8.411V0.863h-8.411V1.806z M7.334,27.227l-5.955-1.365L6.988,1.379l5.956,1.365L7.334,27.227z
	 M15.157,2.014h6.109v15.502h-6.109V2.014z M16.172,20.601v-1.097h4.224v1.097H16.172z M20.396,21.337v1.097h-4.224v-1.097H20.396z
	 M15.157,24.422h6.109v2.709h-6.109V24.422z M16.079,4.615h4.265v1.178h-4.265V4.615z M4.528,18.478L7.72,4.545l1.063,0.243
	L5.591,18.721L4.528,18.478z M6.657,18.966L9.852,5.033l1.063,0.243L7.721,19.21L6.657,18.966z"/>
</svg>
