<?xml version="1.0" encoding="iso-8859-1"?>
<!-- Generator: Adobe Illustrator 16.0.0, SVG Export Plug-In . SVG Version: 6.00 Build 0)  -->
<!DOCTYPE svg PUBLIC "-//W3C//DTD SVG 1.1//EN" "http://www.w3.org/Graphics/SVG/1.1/DTD/svg11.dtd">
<svg version="1.1" id="Layer_1" xmlns="http://www.w3.org/2000/svg" xmlns:xlink="http://www.w3.org/1999/xlink" x="0px" y="0px"
	 width="28.058px" height="29.835px" viewBox="0 0 28.058 29.835" style="enable-background:new 0 0 28.058 29.835;"
	 xml:space="preserve">
<g>
	<path d="M28.058,27.519l-5.911-7.048l0.918-0.767l-1.219-1.454c0.7-1.267,1.101-2.722,1.101-4.272c0-2.251-0.851-4.303-2.238-5.868
		c-0.027-0.031-0.054-0.06-0.082-0.09c-0.201-0.22-0.413-0.43-0.635-0.63c-0.03-0.028-0.062-0.057-0.094-0.085
		c-0.51-0.445-1.066-0.835-1.668-1.155c-0.014-0.008-0.03-0.014-0.044-0.021c-0.27-0.143-0.548-0.269-0.833-0.381
		c-0.085-0.035-0.17-0.064-0.256-0.094c-0.222-0.082-0.448-0.154-0.679-0.216c-0.105-0.029-0.21-0.056-0.316-0.082
		c-0.229-0.055-0.461-0.096-0.697-0.132c-0.101-0.015-0.2-0.034-0.303-0.045c-0.335-0.04-0.674-0.064-1.019-0.064
		c-4.888,0-8.864,3.977-8.864,8.863c0,4.889,3.977,8.866,8.864,8.866c1.046,0,2.045-0.193,2.977-0.525l1.191,1.42l1.135-0.951
		l1.936,2.308l0,0l3.975,4.739L28.058,27.519z M19.208,13.847c0,2.843-2.304,5.149-5.147,5.149c-2.492,0-4.569-1.771-5.045-4.122
		l-0.011,0.001c-0.051-0.291-0.083-0.59-0.083-0.897c0-2.844,2.315-5.16,5.161-5.16c2.308,0,4.266,1.523,4.925,3.617
		C19.137,12.883,19.208,13.356,19.208,13.847z"/>
	<path d="M18.665,24.233l-0.494,0.415l-0.414-0.495l-0.91-1.084c-0.909,0.279-1.836,0.42-2.764,0.42
		c-5.243,0-9.509-4.266-9.509-9.51c0-5.242,4.266-9.508,9.509-9.508c2.899,0,5.496,1.308,7.241,3.361l0.001-4.95L4.296,4.609
		L3.954,4.375l16.149-1.754l-0.021-0.181L3.724,4.216L3.438,4.021l16.339-1.786l-0.02-0.182L3.209,3.864L2.896,3.648l16.591-1.835
		l-0.021-0.181l-16.8,1.859L2.315,3.25L19.12,1.381L19.101,1.2L2.087,3.092l-0.38-0.261l0.544-0.056l17.288-1.881L18.905,0L0,2.002
		v0.274v0.731v24.079l3.424,2.417v0.019l17.897-1.816v-1.608l-2.017-2.402L18.665,24.233z"/>
	<path d="M15.813,11.614c-0.159-0.157-0.37-0.286-0.627-0.387c-0.258-0.101-0.576-0.151-0.952-0.151
		c-0.382,0-0.705,0.059-0.971,0.174c-0.266,0.116-0.483,0.268-0.654,0.453c-0.169,0.186-0.296,0.396-0.379,0.63
		c-0.082,0.236-0.132,0.474-0.146,0.717H13.7c-0.016-0.17,0.015-0.323,0.093-0.458c0.077-0.134,0.209-0.201,0.395-0.201
		c0.3,0,0.449,0.131,0.449,0.395c0,0.089-0.027,0.163-0.079,0.225c-0.051,0.063-0.114,0.115-0.188,0.158
		c-0.074,0.044-0.152,0.084-0.236,0.121c-0.082,0.035-0.154,0.069-0.216,0.1c-0.15,0.083-0.264,0.185-0.341,0.311
		c-0.077,0.123-0.132,0.25-0.162,0.379c-0.031,0.128-0.047,0.255-0.047,0.378c0,0.12,0.003,0.216,0.008,0.294h1.432
		c0-0.088,0.006-0.165,0.019-0.232c0.015-0.068,0.035-0.126,0.066-0.178c0.03-0.052,0.075-0.101,0.131-0.146
		c0.057-0.047,0.13-0.094,0.218-0.141c0.129-0.066,0.255-0.132,0.379-0.196s0.235-0.146,0.335-0.244
		c0.103-0.098,0.183-0.22,0.245-0.368c0.063-0.146,0.093-0.338,0.093-0.576c-0.01-0.171-0.053-0.35-0.128-0.538
		S15.972,11.771,15.813,11.614z"/>
	<rect x="13.282" y="15.2" width="1.609" height="1.532"/>
</g>
<g>
</g>
<g>
</g>
<g>
</g>
<g>
</g>
<g>
</g>
<g>
</g>
<g>
</g>
<g>
</g>
<g>
</g>
<g>
</g>
<g>
</g>
<g>
</g>
<g>
</g>
<g>
</g>
<g>
</g>
</svg>
