<?xml version="1.0" encoding="iso-8859-1"?>
<!-- Generator: Adobe Illustrator 16.0.0, SVG Export Plug-In . SVG Version: 6.00 Build 0)  -->
<!DOCTYPE svg PUBLIC "-//W3C//DTD SVG 1.1//EN" "http://www.w3.org/Graphics/SVG/1.1/DTD/svg11.dtd">
<svg version="1.1" id="Layer_1" xmlns="http://www.w3.org/2000/svg" xmlns:xlink="http://www.w3.org/1999/xlink" x="0px" y="0px"
	 width="31.976px" height="31.587px" viewBox="0 0 31.976 31.587" style="enable-background:new 0 0 31.976 31.587;"
	 xml:space="preserve">
<g>
	<path d="M16.021,14.015l0.532,0.585V3.636c2.149-1.807,4.783-2.733,7.846-2.733c2.321,0,4.222,0.547,4.917,0.779v7.124h2.148
		c0-2.603,0-4.611,0-4.908c0-0.419-0.475-0.691-1.246-0.859V1.055l-0.286-0.113C29.835,0.905,27.505,0,24.399,0
		c-3.328,0-6.195,1.014-8.528,3.014C13.54,1.014,10.673,0,7.345,0C4.237,0,1.908,0.905,1.813,0.943L1.526,1.055v1.836
		C0.585,3.066,0,3.382,0,3.896c0,2.676,0,18.918,0,18.918h13.932c0.483,0.432,1.188,0.705,1.975,0.705
		c0.286,0,0.553-0.046,0.808-0.112v-2.383c-0.282,0.113-0.521,0.214-0.692,0.289V14.015z M15.722,21.323
		c-1.156-0.478-5.141-1.993-9.13-1.993c-1.576,0-2.974,0.242-4.164,0.72V1.681c0.695-0.232,2.587-0.779,4.917-0.779
		c3.064,0,5.696,0.926,7.847,2.733V14.6l0.53-0.585V21.323z"/>
	<path d="M17.649,10.097v21.49h14.325l0.001-21.49H17.649z M25.113,30.508c-0.381,0-0.689-0.31-0.689-0.69s0.309-0.69,0.689-0.69
		c0.383,0,0.69,0.309,0.69,0.69S25.496,30.508,25.113,30.508z M29.904,28.024H19.72V12.168h10.185V28.024z"/>
	<rect x="20.905" y="13.843" width="7.94" height="0.725"/>
	<rect x="20.905" y="15.233" width="7.94" height="0.726"/>
	<rect x="20.905" y="16.764" width="7.94" height="0.726"/>
	<rect x="20.905" y="18.155" width="7.94" height="0.725"/>
	<rect x="20.905" y="19.565" width="7.94" height="0.725"/>
	<rect x="20.905" y="20.956" width="7.94" height="0.726"/>
	<rect x="20.905" y="22.346" width="7.94" height="0.726"/>
	<rect x="20.905" y="23.736" width="7.94" height="0.725"/>
	<rect x="20.905" y="25.06" width="7.94" height="0.726"/>
	<path d="M4.219,3.948l0.19,0.719C9.191,3.4,13.493,5.746,13.537,5.77l0.362-0.649C13.713,5.018,9.296,2.603,4.219,3.948z"/>
	<path d="M4.219,6.052l0.19,0.719c4.782-1.269,9.084,1.079,9.128,1.103l0.362-0.648C13.713,7.121,9.296,4.707,4.219,6.052z"/>
	<path d="M4.219,8.029l0.19,0.718c4.782-1.267,9.084,1.08,9.128,1.103l0.362-0.649C13.713,9.099,9.296,6.685,4.219,8.029z"/>
	<path d="M4.219,10.196l0.19,0.718c4.782-1.268,9.084,1.079,9.128,1.103l0.362-0.648C13.713,11.265,9.296,8.85,4.219,10.196z"/>
	<path d="M4.219,12.203l0.19,0.719c4.782-1.268,9.084,1.08,9.128,1.103l0.362-0.648C13.713,13.273,9.296,10.859,4.219,12.203z"/>
	<path d="M4.219,14.266l0.19,0.719c4.782-1.269,9.084,1.079,9.128,1.102l0.362-0.648C13.713,15.334,9.296,12.921,4.219,14.266z"/>
	<path d="M4.219,16.333l0.19,0.719c4.782-1.268,9.084,1.079,9.128,1.104l0.362-0.649C13.713,17.402,9.296,14.987,4.219,16.333z"/>
</g>
<g>
</g>
<g>
</g>
<g>
</g>
<g>
</g>
<g>
</g>
<g>
</g>
<g>
</g>
<g>
</g>
<g>
</g>
<g>
</g>
<g>
</g>
<g>
</g>
<g>
</g>
<g>
</g>
<g>
</g>
</svg>
