<?xml version="1.0" encoding="iso-8859-1"?>
<!-- Generator: Adobe Illustrator 16.0.0, SVG Export Plug-In . SVG Version: 6.00 Build 0)  -->
<!DOCTYPE svg PUBLIC "-//W3C//DTD SVG 1.1//EN" "http://www.w3.org/Graphics/SVG/1.1/DTD/svg11.dtd">
<svg version="1.1" id="Layer_1" xmlns="http://www.w3.org/2000/svg" xmlns:xlink="http://www.w3.org/1999/xlink" x="0px" y="0px"
	 width="26.609px" height="32.05px" viewBox="0 0 26.609 32.05" style="enable-background:new 0 0 26.609 32.05;"
	 xml:space="preserve">
<g>
	<path d="M15.306,29.178L0.769,17.044c0,0-0.769,0.28-0.769,1.315c0,1.035,0.322,1.249,0.322,1.249L15.306,32.05
		c0,0-0.43-0.883-0.43-1.53C14.876,29.872,15.306,29.178,15.306,29.178z"/>
	<path d="M15.374,31.598c0,0.288,0.269,0.339,0.39,0.315s9.685-6.354,9.685-6.354l0.036-0.928l-9.886,6.552
		C15.598,31.183,15.374,31.309,15.374,31.598z"/>
	<path d="M15.299,30.664c0.13,0.153,0.241,0.161,0.348,0.112c0.108-0.051,9.233-6.288,9.233-6.288L24.886,24l-9.437,6.349
		C15.449,30.349,15.168,30.511,15.299,30.664z"/>
	<path d="M15.585,29.88l9.298-6.277l-0.008-0.477l-9.398,6.358c0,0-0.244,0.162-0.126,0.324C15.468,29.97,15.585,29.88,15.585,29.88
		z"/>
	<polygon points="24.896,21.691 15.742,27.765 1.82,16.245 1.261,16.573 15.558,28.917 25.35,22.083 	"/>
	<path d="M0.884,14.478l14.984,12.443c0,0-0.43-0.882-0.43-1.531c0-0.648,0.43-1.341,0.43-1.341L1.332,11.915
		c0,0-0.769,0.28-0.769,1.315S0.884,14.478,0.884,14.478z"/>
	<path d="M15.936,26.467c0,0.289,0.27,0.34,0.39,0.316c0.121-0.024,9.685-6.354,9.685-6.354l0.037-0.929l-9.886,6.553
		C16.161,26.053,15.936,26.179,15.936,26.467z"/>
	<path d="M15.861,25.534c0.13,0.153,0.241,0.162,0.348,0.113c0.107-0.052,9.233-6.288,9.233-6.288l0.006-0.489l-9.437,6.348
		C16.012,25.218,15.731,25.381,15.861,25.534z"/>
	<path d="M16.147,24.75l9.298-6.277l-0.007-0.475l-9.399,6.357c0,0-0.243,0.162-0.126,0.324C16.03,24.84,16.147,24.75,16.147,24.75z
		"/>
	<polygon points="25.458,16.561 16.305,22.634 2.383,11.115 1.823,11.443 16.12,23.788 25.912,16.954 	"/>
	<path d="M1.447,9.222l14.983,12.443c0,0-0.429-0.883-0.429-1.531c0-0.649,0.429-1.342,0.429-1.342L1.894,6.658
		c0,0-0.769,0.28-0.769,1.315C1.125,9.009,1.447,9.222,1.447,9.222z"/>
	<path d="M16.724,20.797c0,0-0.226,0.125-0.226,0.414s0.27,0.34,0.391,0.315c0.121-0.024,9.685-6.353,9.685-6.353l0.036-0.929
		L16.724,20.797z"/>
	<path d="M16.424,20.278c0.13,0.153,0.241,0.162,0.349,0.112c0.108-0.05,9.233-6.287,9.233-6.287l0.005-0.49l-9.436,6.349
		C16.575,19.962,16.293,20.125,16.424,20.278z"/>
	<path d="M16.709,19.495l9.298-6.278L26,12.74l-9.397,6.357c0,0-0.244,0.162-0.127,0.325C16.592,19.584,16.709,19.495,16.709,19.495
		z"/>
	<path d="M26.475,11.698L12.953,0L2.386,6.187l14.297,12.344L26.475,11.698z M7.2,7.52l7.044-4.185l2.67,2.282L9.954,9.98L7.2,7.52z
		 M12.539,9.518L12.25,9.25l3.118-2.039l0.227,0.287L12.539,9.518z"/>
</g>
<g>
</g>
<g>
</g>
<g>
</g>
<g>
</g>
<g>
</g>
<g>
</g>
<g>
</g>
<g>
</g>
<g>
</g>
<g>
</g>
<g>
</g>
<g>
</g>
<g>
</g>
<g>
</g>
<g>
</g>
</svg>
