<?xml version="1.0" encoding="iso-8859-1"?>
<!-- Generator: Adobe Illustrator 16.0.0, SVG Export Plug-In . SVG Version: 6.00 Build 0)  -->
<!DOCTYPE svg PUBLIC "-//W3C//DTD SVG 1.1//EN" "http://www.w3.org/Graphics/SVG/1.1/DTD/svg11.dtd">
<svg version="1.1" id="Layer_1" xmlns="http://www.w3.org/2000/svg" xmlns:xlink="http://www.w3.org/1999/xlink" x="0px" y="0px"
	 width="27.591px" height="29.503px" viewBox="0 0 27.591 29.503" style="enable-background:new 0 0 27.591 29.503;"
	 xml:space="preserve">
<g>
	<path d="M26.5,11.543V9.805l-0.252-0.1c-0.085-0.033-2.128-0.826-4.852-0.826c-0.272,0-0.536,0.016-0.802,0.03
		c0.01-0.151,0.028-0.3,0.028-0.454c0-3.481-2.833-6.313-6.313-6.313S8,4.975,8,8.456c0,0.178,0.01,0.353,0.028,0.527
		C7.511,8.921,6.985,8.879,6.441,8.879c-2.725,0-4.768,0.793-4.853,0.827l-0.25,0.099v1.609C0.513,11.568,0,11.845,0,12.296
		c0,2.348,0,16.589,0,16.589h12.218c0.423,0.378,1.04,0.618,1.731,0.618c0.69,0,1.309-0.24,1.731-0.618h11.91c0,0,0-15.766,0-16.589
		C27.591,11.928,27.175,11.69,26.5,11.543z M13.787,27.578c-1.015-0.419-4.508-1.748-8.008-1.748c-1.382,0-2.606,0.211-3.65,0.631
		V10.353C2.738,10.15,4.396,9.67,6.441,9.67c2.686,0,4.995,0.813,6.881,2.398v9.614l0.465-0.512V27.578z M13.918,11.522
		c-1.209-1.038-2.587-1.764-4.11-2.19C9.751,9.046,9.714,8.756,9.714,8.456c0-2.537,2.063-4.598,4.597-4.598
		c1.741,0,3.259,0.972,4.04,2.402c0.327,0.636,0.516,1.354,0.516,2.118c0,0.263-0.03,0.519-0.073,0.771
		C16.96,9.527,15.327,10.314,13.918,11.522z M25.708,26.466c-1.121-0.451-2.407-0.678-3.833-0.678c-3.495,0-6.826,1.34-7.825,1.782
		v-6.4l0.466,0.512v-9.614c1.886-1.585,4.194-2.398,6.881-2.398c2.035,0,3.701,0.481,4.312,0.683V26.466z"/>
	<path d="M9.964,8.224v0.464h0.53c-0.004-0.077-0.01-0.154-0.01-0.232c0-0.079,0.006-0.155,0.01-0.232H9.964z"/>
	<path d="M14.543,4.639v-0.53h-0.464v0.53c0.078-0.005,0.154-0.012,0.231-0.012C14.39,4.627,14.466,4.634,14.543,4.639z"/>
	<path d="M18.127,8.224C18.133,8.3,18.14,8.376,18.14,8.456c0,0.078-0.007,0.155-0.013,0.232h0.531V8.224H18.127z"/>
	<polygon points="14.474,5.041 14.148,5.041 14.15,8.685 16.634,8.685 16.634,8.227 14.474,8.227 	"/>
	<path d="M20.453,5.925c0.912-0.564,1.522-1.571,1.522-2.723C21.976,1.434,20.542,0,18.774,0c-1.33,0-2.472,0.813-2.955,1.968
		C17.953,2.406,19.696,3.926,20.453,5.925z"/>
	<path d="M8.151,5.925c0.757-1.999,2.501-3.519,4.634-3.957C12.302,0.813,11.161,0,9.83,0C8.063,0,6.629,1.434,6.629,3.202
		C6.629,4.354,7.238,5.361,8.151,5.925z"/>
</g>
<g>
</g>
<g>
</g>
<g>
</g>
<g>
</g>
<g>
</g>
<g>
</g>
<g>
</g>
<g>
</g>
<g>
</g>
<g>
</g>
<g>
</g>
<g>
</g>
<g>
</g>
<g>
</g>
<g>
</g>
</svg>
