<?xml version="1.0" encoding="iso-8859-1"?>
<!-- Generator: Adobe Illustrator 16.0.0, SVG Export Plug-In . SVG Version: 6.00 Build 0)  -->
<!DOCTYPE svg PUBLIC "-//W3C//DTD SVG 1.1//EN" "http://www.w3.org/Graphics/SVG/1.1/DTD/svg11.dtd">
<svg version="1.1" id="Layer_1" xmlns="http://www.w3.org/2000/svg" xmlns:xlink="http://www.w3.org/1999/xlink" x="0px" y="0px"
	 width="31.034px" height="27.04px" viewBox="0 0 31.034 27.04" style="enable-background:new 0 0 31.034 27.04;"
	 xml:space="preserve">
<g>
	<polygon points="28.903,7.471 28.903,6.825 31.034,6.825 31.034,5.968 0,5.968 0,6.825 0.018,6.825 0.018,13.816 0,13.816 
		0,14.669 31.034,14.669 31.034,13.816 28.903,13.816 28.903,13.434 2.185,13.434 2.185,13.155 2.148,13.155 2.148,12.991 
		28.903,12.991 28.903,12.633 2.16,12.633 2.16,12.5 2.148,12.5 2.148,12.336 2.16,12.336 2.16,12.278 28.903,12.278 28.903,11.783 
		2.114,11.783 2.114,11.694 2.098,11.694 2.098,11.53 2.114,11.53 2.114,11.431 28.903,11.431 28.903,10.983 2.09,10.983 
		2.09,10.628 28.903,10.628 28.903,10.204 2.09,10.204 2.09,9.852 28.903,9.852 28.903,9.403 2.137,9.403 2.137,9.049 28.903,9.049 
		28.903,8.603 2.114,8.603 2.114,8.249 28.903,8.249 28.903,7.824 2.114,7.824 2.114,7.471 	"/>
	<polygon points="0,15.754 0.018,15.754 0.018,20.153 0,20.153 0,20.691 31.034,20.691 31.034,20.153 28.903,20.153 28.903,19.671 
		1.705,19.671 1.705,19.316 28.903,19.316 28.903,18.893 1.705,18.893 1.705,18.54 28.903,18.54 28.903,18.091 1.752,18.091 
		1.752,17.968 1.745,17.968 1.745,17.804 1.752,17.804 1.752,17.738 28.903,17.738 28.903,17.291 1.729,17.291 1.729,16.937 
		28.903,16.937 28.903,16.513 1.729,16.513 1.729,16.159 28.903,16.159 28.903,15.754 31.034,15.754 31.034,15.215 0,15.215 	"/>
	<polygon points="0,22.103 0.018,22.103 0.018,26.501 0,26.501 0,27.04 31.034,27.04 31.034,26.501 28.903,26.501 28.903,26.081 
		1.548,26.081 1.548,25.727 28.903,25.727 28.903,25.303 1.548,25.303 1.548,24.95 28.903,24.95 28.903,24.501 1.595,24.501 
		1.595,24.417 1.594,24.417 1.594,24.252 1.595,24.252 1.595,24.148 28.903,24.148 28.903,23.701 1.572,23.701 1.572,23.347 
		28.903,23.347 28.903,22.923 1.572,22.923 1.572,22.569 28.903,22.569 28.903,22.103 31.034,22.103 31.034,21.564 0,21.564 	"/>
	<polygon points="27.104,4.937 27.092,4.937 27.092,0.538 27.104,0.538 27.104,0 3.125,0 3.125,0.538 4.771,0.538 4.771,0.919 
		25.696,0.919 25.696,1.272 4.771,1.272 4.771,1.697 25.696,1.697 25.696,2.05 4.771,2.05 4.771,2.498 25.648,2.498 25.648,2.691 
		25.678,2.691 25.678,2.853 4.771,2.853 4.771,3.299 25.672,3.299 25.672,3.448 25.678,3.448 25.678,3.607 25.672,3.607 
		25.672,3.653 4.771,3.653 4.771,4.077 25.672,4.077 25.672,4.254 25.678,4.254 25.678,4.414 25.672,4.414 25.672,4.431 
		4.771,4.431 4.771,4.937 3.125,4.937 3.125,5.476 27.104,5.476 	"/>
</g>
<g>
</g>
<g>
</g>
<g>
</g>
<g>
</g>
<g>
</g>
<g>
</g>
<g>
</g>
<g>
</g>
<g>
</g>
<g>
</g>
<g>
</g>
<g>
</g>
<g>
</g>
<g>
</g>
<g>
</g>
</svg>
