<?xml version="1.0" encoding="iso-8859-1"?>
<!-- Generator: Adobe Illustrator 16.0.0, SVG Export Plug-In . SVG Version: 6.00 Build 0)  -->
<!DOCTYPE svg PUBLIC "-//W3C//DTD SVG 1.1//EN" "http://www.w3.org/Graphics/SVG/1.1/DTD/svg11.dtd">
<svg version="1.1" id="Layer_1" xmlns="http://www.w3.org/2000/svg" xmlns:xlink="http://www.w3.org/1999/xlink" x="0px" y="0px"
	 width="25.576px" height="26.527px" viewBox="0 0 25.576 26.527" style="enable-background:new 0 0 25.576 26.527;"
	 xml:space="preserve">
<g>
	<path d="M7.157,5.647C7.091,5.856,7.024,6.066,6.985,6.286C6.938,6.56,6.913,6.842,6.913,7.128c0,2.822,2.379,5.108,5.316,5.108
		c2.934,0,5.313-2.286,5.313-5.108c0-0.564-0.118-1.097-0.293-1.604l1.081-1.431l-1.935-0.655l0.378-1.899l-2.362,0.648L13.325,0
		l-2.016,2.021l-1.563-1.74L9.011,2.579L6.503,1.79l0.945,2.03L5.623,4.313L7.157,5.647z"/>
	<path d="M23.106,24.096v-0.025h-0.09v-0.673h-0.83V13.004H9.373H8.21H6.9H5.889H3.39v10.394H2.728v0.673v0.025H0v2.431h1.76h7.594
		h7.974h7.08h1.168v-2.431H23.106z M13.01,19.787c-0.715,0-1.294-0.571-1.294-1.277c0-0.705,0.58-1.277,1.294-1.277
		c0.715,0,1.295,0.572,1.295,1.277C14.305,19.216,13.725,19.787,13.01,19.787z"/>
</g>
<g>
</g>
<g>
</g>
<g>
</g>
<g>
</g>
<g>
</g>
<g>
</g>
<g>
</g>
<g>
</g>
<g>
</g>
<g>
</g>
<g>
</g>
<g>
</g>
<g>
</g>
<g>
</g>
<g>
</g>
</svg>
