<?xml version="1.0" encoding="iso-8859-1"?>
<!-- Generator: Adobe Illustrator 16.0.0, SVG Export Plug-In . SVG Version: 6.00 Build 0)  -->
<!DOCTYPE svg PUBLIC "-//W3C//DTD SVG 1.1//EN" "http://www.w3.org/Graphics/SVG/1.1/DTD/svg11.dtd">
<svg version="1.1" id="Layer_1" xmlns="http://www.w3.org/2000/svg" xmlns:xlink="http://www.w3.org/1999/xlink" x="0px" y="0px"
	 width="23.733px" height="32.118px" viewBox="0 0 23.733 32.118" style="enable-background:new 0 0 23.733 32.118;"
	 xml:space="preserve">
<g>
	<path d="M22.746,19.915v-7.043l-10.747,1.712L1.248,12.871v6.858C0.514,20.164,0,21.128,0,22.253c0,1.126,0.514,2.089,1.248,2.524
		v5.63l10.751,1.711l10.747-1.711v-5.814c0.593-0.493,0.987-1.354,0.987-2.34C23.733,21.268,23.339,20.408,22.746,19.915z
		 M11.51,31.055l-9.287-1.48v-4.56c1.12-0.073,2.013-1.275,2.013-2.762c0-1.485-0.893-2.688-2.013-2.761v-5.478l9.287,1.479V31.055z
		 M21.772,15.977v3.522c-0.054-0.004-0.104-0.021-0.157-0.021c-1.169,0-2.118,1.244-2.118,2.775c0,1.532,0.949,2.775,2.118,2.775
		c0.054,0,0.104-0.016,0.157-0.021v4.567l-9.288,1.479v-15.56l9.288-1.48V15.977z"/>
	<path d="M4.1,8.794C4.001,9.116,3.9,9.444,3.842,9.786c-0.068,0.427-0.106,0.865-0.106,1.312c0,0.422,0.042,0.834,0.104,1.238
		l8.159,1.298l7.517-1.197c0.074-0.436,0.121-0.882,0.121-1.339c0-0.88-0.176-1.709-0.439-2.5l1.616-2.228L17.92,5.353l0.565-2.958
		l-3.532,1.011L13.326,0L10.31,3.148L7.973,0.438L6.871,4.015l-3.75-1.229l1.413,3.16L1.806,6.715L4.1,8.794z"/>
</g>
<g>
</g>
<g>
</g>
<g>
</g>
<g>
</g>
<g>
</g>
<g>
</g>
<g>
</g>
<g>
</g>
<g>
</g>
<g>
</g>
<g>
</g>
<g>
</g>
<g>
</g>
<g>
</g>
<g>
</g>
</svg>
