<?xml version="1.0" encoding="iso-8859-1"?>
<!-- Generator: Adobe Illustrator 16.0.0, SVG Export Plug-In . SVG Version: 6.00 Build 0)  -->
<!DOCTYPE svg PUBLIC "-//W3C//DTD SVG 1.1//EN" "http://www.w3.org/Graphics/SVG/1.1/DTD/svg11.dtd">
<svg version="1.1" id="Layer_1" xmlns="http://www.w3.org/2000/svg" xmlns:xlink="http://www.w3.org/1999/xlink" x="0px" y="0px"
	 width="27.696px" height="29.928px" viewBox="0 0 27.696 29.928" style="enable-background:new 0 0 27.696 29.928;"
	 xml:space="preserve">
<g>
	<path d="M25.131,19.087h-2.592c0.163-0.668,0.176-1.411-0.057-2.217c-0.511-2.418-2.147-4.158-2.147-4.158l-3.473-0.646
		c0,0-0.648,1.992-2.433,2.096c-1.785,0.103-2.461-2.096-2.461-2.096l-3.881,0.645c0,0-1.131,1.174-1.749,3.028
		c-0.414,1.063-0.157,2.204,0.467,3.347H2.565L0,29.928h27.696L25.131,19.087z M19.845,15.616c0.372,0.507,0.719,1.203,0.891,1.97
		c0.104,0.462-0.051,1.012-0.295,1.502h-0.357v-2.44V16.58v-0.138l-0.356,0.031L19.845,15.616z M14.853,17.412v-0.053l4.765-0.411
		v8.04L14.853,25.4V17.412z M9.478,16.948l4.384,0.377l0.381,0.033V25.4l-4.766-0.412V16.948z M8.296,16.597
		c0.249-0.411,0.665-0.943,0.876-1.205l0.099,1.073l-0.258-0.022v0.083v2.468C8.768,18.544,8.007,17.074,8.296,16.597z
		 M3.585,20.376h4.07c0.406,0.531,0.868,1.056,1.358,1.565v3.472l5.23,0.452l0.304,0.026l0.305-0.026l5.23-0.452v-3.202
		c0.642-0.349,1.389-0.98,1.915-1.835h2.114l1.955,8.262H1.63L3.585,20.376z"/>
	<path d="M9.994,5.24C9.936,5.435,9.875,5.628,9.84,5.832C9.799,6.086,9.776,6.349,9.776,6.614c0,2.619,2.121,4.739,4.739,4.739
		c2.617,0,4.739-2.12,4.739-4.739c0-0.523-0.106-1.018-0.262-1.489l0.962-1.329l-1.724-0.605l0.337-1.764l-2.105,0.603L15.493,0
		l-1.798,1.875l-1.393-1.614l-0.655,2.132L9.411,1.66l0.842,1.885L8.626,4.001L9.994,5.24z"/>
</g>
<g>
</g>
<g>
</g>
<g>
</g>
<g>
</g>
<g>
</g>
<g>
</g>
<g>
</g>
<g>
</g>
<g>
</g>
<g>
</g>
<g>
</g>
<g>
</g>
<g>
</g>
<g>
</g>
<g>
</g>
</svg>
