<?xml version="1.0" encoding="iso-8859-1"?>
<!-- Generator: Adobe Illustrator 16.0.0, SVG Export Plug-In . SVG Version: 6.00 Build 0)  -->
<!DOCTYPE svg PUBLIC "-//W3C//DTD SVG 1.1//EN" "http://www.w3.org/Graphics/SVG/1.1/DTD/svg11.dtd">
<svg version="1.1" id="Layer_1" xmlns="http://www.w3.org/2000/svg" xmlns:xlink="http://www.w3.org/1999/xlink" x="0px" y="0px"
	 width="31.809px" height="19.391px" viewBox="0 0 31.809 19.391" style="enable-background:new 0 0 31.809 19.391;"
	 xml:space="preserve">
<g>
	<path d="M12.249,0C8.771,0,5.911,2.227,5.624,5.053H0v3.745l0.7,0.351l4.033,2.114V10.24H7.48v2.463l2.987,1.567h2.923l3.718-2.02
		V10.24h2.746v0.52l2.97-1.611V9.147l0.003-0.001l0.522-0.349V5.053h-4.476C18.585,2.227,15.727,0,12.249,0z M7.208,5.053
		c0.301-1.957,2.443-3.479,5.041-3.479c2.596,0,4.74,1.521,5.041,3.479H7.208z"/>
	<polygon points="19.854,14.102 17.108,14.102 17.108,12.699 13.578,14.615 13.49,14.664 13.39,14.664 10.467,14.664 10.371,14.664 
		10.285,14.618 7.48,13.148 7.48,14.102 4.732,14.102 4.732,11.708 0.7,9.593 0.7,19.391 22.825,19.391 22.825,9.596 19.854,11.209 
			"/>
	<polygon points="29.479,4.907 29.479,0.526 27.703,0.526 27.703,4.907 25.372,4.907 25.372,19.391 31.809,19.391 31.809,4.907 	"/>
</g>
<g>
</g>
<g>
</g>
<g>
</g>
<g>
</g>
<g>
</g>
<g>
</g>
<g>
</g>
<g>
</g>
<g>
</g>
<g>
</g>
<g>
</g>
<g>
</g>
<g>
</g>
<g>
</g>
<g>
</g>
</svg>
