<?xml version="1.0" encoding="iso-8859-1"?>
<!-- Generator: Adobe Illustrator 16.0.0, SVG Export Plug-In . SVG Version: 6.00 Build 0)  -->
<!DOCTYPE svg PUBLIC "-//W3C//DTD SVG 1.1//EN" "http://www.w3.org/Graphics/SVG/1.1/DTD/svg11.dtd">
<svg version="1.1" id="Layer_1" xmlns="http://www.w3.org/2000/svg" xmlns:xlink="http://www.w3.org/1999/xlink" x="0px" y="0px"
	 width="28.693px" height="31.699px" viewBox="0 0 28.693 31.699" style="enable-background:new 0 0 28.693 31.699;"
	 xml:space="preserve">
<g>
	<path d="M23.194,14.078c-0.212-2.07-1.552-3.873-3.501-4.997V0h-9.188v9.028c-2.001,1.119-3.379,2.947-3.594,5.05H0v4.604
		l0.86,0.431l4.957,2.599v-1.257h3.375v3.027l3.671,1.925h3.592l4.567-2.479v-2.473h3.376v0.639l3.649-1.981v0l0.004-0.002
		l0.642-0.428v-4.604H23.194z M12.936,3.382h0.352c0.174-0.654,0.491-1.17,0.949-1.546c0.469-0.387,1.03-0.581,1.684-0.581
		c0.518,0,1.066,0.153,1.644,0.458l-0.58,1.235c-0.328-0.213-0.646-0.318-0.957-0.318c-0.474,0-0.815,0.25-1.022,0.752h1.856
		l-0.301,0.727h-1.686c-0.005,0.028-0.008,0.056-0.008,0.082c0,0.028,0,0.057,0,0.091c0,0.038,0,0.073,0,0.106
		c0,0.026,0.003,0.054,0.008,0.082h1.545l-0.302,0.727h-1.096c0.202,0.491,0.562,0.737,1.079,0.737c0.345,0,0.724-0.137,1.138-0.41
		v1.521c-0.377,0.17-0.826,0.254-1.35,0.254c-0.654,0-1.21-0.188-1.668-0.564c-0.452-0.387-0.763-0.899-0.933-1.538h-0.638
		l0.303-0.727h0.229c-0.005-0.021-0.008-0.046-0.008-0.075c0-0.033,0-0.067,0-0.105c0-0.039,0-0.071,0-0.099
		c0-0.033,0.003-0.06,0.008-0.082h-0.548L12.936,3.382z M8.858,14.078c0.369-2.403,3.004-4.273,6.194-4.273
		c3.19,0,5.825,1.87,6.194,4.273H8.858z"/>
	<polygon points="24.398,25.199 21.022,25.199 21.022,23.477 16.685,25.831 16.578,25.89 16.455,25.89 12.863,25.89 12.745,25.89 
		12.638,25.834 9.192,24.027 9.192,25.199 5.816,25.199 5.816,22.257 0.86,19.658 0.86,31.699 28.047,31.699 28.047,19.662 
		24.398,21.644 	"/>
</g>
<g>
</g>
<g>
</g>
<g>
</g>
<g>
</g>
<g>
</g>
<g>
</g>
<g>
</g>
<g>
</g>
<g>
</g>
<g>
</g>
<g>
</g>
<g>
</g>
<g>
</g>
<g>
</g>
<g>
</g>
</svg>
