<?xml version="1.0" encoding="iso-8859-1"?>
<!-- Generator: Adobe Illustrator 16.0.0, SVG Export Plug-In . SVG Version: 6.00 Build 0)  -->
<!DOCTYPE svg PUBLIC "-//W3C//DTD SVG 1.1//EN" "http://www.w3.org/Graphics/SVG/1.1/DTD/svg11.dtd">
<svg version="1.1" id="Layer_1" xmlns="http://www.w3.org/2000/svg" xmlns:xlink="http://www.w3.org/1999/xlink" x="0px" y="0px"
	 width="28.694px" height="31.699px" viewBox="0 0 28.694 31.699" style="enable-background:new 0 0 28.694 31.699;"
	 xml:space="preserve">
<g>
	<path d="M23.195,14.078c-0.211-2.071-1.551-3.874-3.501-4.997V0h-9.188v9.027c-2,1.119-3.379,2.947-3.594,5.051H0v4.604l0.86,0.43
		l4.957,2.598v-1.256h3.376v3.027l3.671,1.924h3.592l4.568-2.48v-2.472h3.375v0.639l3.648-1.981v-0.001l0.004-0.002l0.642-0.427
		v-4.604H23.195z M14.94,4.867c-0.108-0.027-0.221-0.062-0.336-0.102c-0.207-0.07-0.396-0.144-0.567-0.223
		c-0.172-0.078-0.318-0.171-0.438-0.279c-0.122-0.108-0.214-0.238-0.28-0.386c-0.066-0.149-0.098-0.331-0.098-0.549
		c0-0.307,0.062-0.573,0.185-0.797c0.123-0.224,0.283-0.408,0.477-0.552c0.194-0.144,0.412-0.25,0.654-0.319
		c0.242-0.066,0.482-0.101,0.719-0.101V0.954h0.393v0.604c0.262,0,0.515,0.035,0.757,0.101c0.242,0.069,0.455,0.175,0.639,0.319
		c0.184,0.144,0.33,0.327,0.439,0.548c0.108,0.223,0.162,0.487,0.162,0.794H16.2c-0.01-0.096-0.026-0.176-0.049-0.242
		c-0.023-0.065-0.056-0.119-0.098-0.159c-0.043-0.041-0.097-0.073-0.162-0.099c-0.066-0.025-0.146-0.047-0.243-0.068v0.848
		c0.489,0.105,0.879,0.224,1.169,0.351c0.29,0.129,0.511,0.27,0.666,0.424c0.153,0.154,0.253,0.321,0.299,0.503
		c0.045,0.181,0.068,0.377,0.068,0.589c0,0.207-0.039,0.413-0.117,0.621c-0.079,0.206-0.206,0.393-0.382,0.559
		c-0.177,0.167-0.405,0.303-0.685,0.408c-0.28,0.106-0.619,0.159-1.018,0.159v0.678c-0.13-0.008-0.261-0.014-0.393-0.017V7.216
		c-0.398,0-0.737-0.054-1.017-0.163c-0.28-0.108-0.509-0.251-0.688-0.431c-0.179-0.179-0.311-0.385-0.397-0.616
		c-0.086-0.232-0.133-0.472-0.144-0.719h1.619c0,0.066,0.006,0.138,0.019,0.22c0.012,0.08,0.04,0.157,0.083,0.23
		c0.042,0.073,0.104,0.136,0.186,0.189c0.081,0.053,0.194,0.084,0.34,0.095V4.955C15.153,4.925,15.048,4.895,14.94,4.867z
		 M8.859,14.078c0.369-2.403,3.004-4.273,6.194-4.273s5.825,1.87,6.194,4.273H8.859z"/>
	<polygon points="24.399,25.199 21.023,25.199 21.023,23.476 16.686,25.831 16.578,25.889 16.456,25.889 12.864,25.889 
		12.745,25.889 12.639,25.834 9.193,24.027 9.193,25.199 5.817,25.199 5.817,22.256 0.86,19.658 0.86,31.699 28.047,31.699 
		28.047,19.662 24.399,21.643 	"/>
	<path d="M16.275,5.561c0-0.132-0.055-0.231-0.166-0.299c-0.111-0.068-0.265-0.135-0.462-0.201v0.961
		c0.177-0.015,0.326-0.059,0.446-0.133C16.215,5.816,16.275,5.706,16.275,5.561z"/>
	<path d="M15.254,2.754c-0.136,0-0.259,0.021-0.371,0.06c-0.111,0.041-0.167,0.136-0.167,0.288c0,0.202,0.179,0.337,0.537,0.408
		V2.754z"/>
</g>
<g>
</g>
<g>
</g>
<g>
</g>
<g>
</g>
<g>
</g>
<g>
</g>
<g>
</g>
<g>
</g>
<g>
</g>
<g>
</g>
<g>
</g>
<g>
</g>
<g>
</g>
<g>
</g>
<g>
</g>
</svg>
