<?xml version="1.0" encoding="iso-8859-1"?>
<!-- Generator: Adobe Illustrator 16.0.0, SVG Export Plug-In . SVG Version: 6.00 Build 0)  -->
<!DOCTYPE svg PUBLIC "-//W3C//DTD SVG 1.1//EN" "http://www.w3.org/Graphics/SVG/1.1/DTD/svg11.dtd">
<svg version="1.1" id="Layer_1" xmlns="http://www.w3.org/2000/svg" xmlns:xlink="http://www.w3.org/1999/xlink" x="0px" y="0px"
	 width="28.693px" height="22.141px" viewBox="0 0 28.693 22.141" style="enable-background:new 0 0 28.693 22.141;"
	 xml:space="preserve">
<g>
	<path d="M23.195,4.52c0-0.001-0.001-0.004-0.002-0.006h-1.887V0H8.209v4.513H6.912C6.911,4.515,6.91,4.518,6.91,4.52H0v4.604
		l0.22,0.11l12.812,4.349l-0.021,3.129h3.164l-0.005-2.993l12.523-4.872V4.52H23.195z M19.372,1.934V4.52h-9.229V1.934H19.372z"/>
	<polygon points="17.465,18.001 11.711,18.001 11.735,14.504 0.86,10.813 0.86,16.55 0.86,22.141 28.048,22.141 28.048,16.55 
		28.048,10.481 17.462,14.6 	"/>
</g>
<g>
</g>
<g>
</g>
<g>
</g>
<g>
</g>
<g>
</g>
<g>
</g>
<g>
</g>
<g>
</g>
<g>
</g>
<g>
</g>
<g>
</g>
<g>
</g>
<g>
</g>
<g>
</g>
<g>
</g>
</svg>
