<?xml version="1.0" encoding="iso-8859-1"?>
<!-- Generator: Adobe Illustrator 16.0.0, SVG Export Plug-In . SVG Version: 6.00 Build 0)  -->
<!DOCTYPE svg PUBLIC "-//W3C//DTD SVG 1.1//EN" "http://www.w3.org/Graphics/SVG/1.1/DTD/svg11.dtd">
<svg version="1.1" id="Layer_1" xmlns="http://www.w3.org/2000/svg" xmlns:xlink="http://www.w3.org/1999/xlink" x="0px" y="0px"
	 width="24.048px" height="28.571px" viewBox="0 0 24.048 28.571" style="enable-background:new 0 0 24.048 28.571;"
	 xml:space="preserve">
<path d="M23.871,1.824c0.334-0.537,0.184-1.249-0.352-1.613c-0.536-0.364-1.253-0.243-1.63,0.264l-0.004-0.002l-8.473,12.446
	c-1.846-0.915-3.207-0.254-4.49,1.632c-1.072,1.573-0.821,3.687-1.144,5.711c-0.125,0.604-0.424,1.615-0.69,2.18
	c-0.09,0.191-0.125,0.346-0.121,0.474c-0.994,0.194-0.875,1.936,0.328,2.082c1.617,0.195,4.781,0.183,6.77,0.992
	c-2.631,0.832-7.227,0.52-9.222,0.237c-3.304-0.469-0.912-2.199-0.554-3.861c0.201-0.93-0.539-1.673-1.118-2.283
	c-2.043-2.15,1.518-3.228,2.458-4.146c0.767-0.751,0.481-1.924,0.204-2.798c-0.699-2.208-3.752-3.622-0.764-5.853
	C6.36,6.323,7.831,5.728,9.003,4.593c0.972-0.941-0.511-2.422-1.482-1.482c-2.67,2.584-7.32,3.51-5.348,8.175
	c0.264,0.625,2.536,2.914,1.34,3.659c-1.013,0.632-1.974,1.128-2.846,1.962c-1.206,1.153-0.598,2.985,0.406,4.021
	c2,2.064-1.109,2.731-0.505,4.925c0.499,1.812,3.417,2.478,4.968,2.568c3.238,0.189,8.628,0.556,11.313-1.583
	c0.469-0.373,0.342-1.089,0-1.482c-1.56-1.791-4.914-2.076-7.61-2.282c0.474-0.145,0.98-0.33,1.484-0.546l0,0
	c1.942-0.827,4.05-2.159,4.755-3.417c1.218-2.176,1.113-3.541-0.112-4.781l8.511-12.502L23.871,1.824z M7.538,22.808
	c0.011-0.033,0.028-0.076,0.053-0.13c0.215-0.457,0.448-1.171,0.606-1.773c0.606,0.087,1.301,0.019,1.946-0.191
	c0.012,0.331,0.014,0.704,0.014,1.037c0.001,0.142,0.001,0.281,0.002,0.412C8.695,22.75,7.836,22.854,7.538,22.808z"/>
<g>
</g>
<g>
</g>
<g>
</g>
<g>
</g>
<g>
</g>
<g>
</g>
<g>
</g>
<g>
</g>
<g>
</g>
<g>
</g>
<g>
</g>
<g>
</g>
<g>
</g>
<g>
</g>
<g>
</g>
</svg>
