<?xml version="1.0" encoding="iso-8859-1"?>
<!-- Generator: Adobe Illustrator 16.0.0, SVG Export Plug-In . SVG Version: 6.00 Build 0)  -->
<!DOCTYPE svg PUBLIC "-//W3C//DTD SVG 1.1//EN" "http://www.w3.org/Graphics/SVG/1.1/DTD/svg11.dtd">
<svg version="1.1" id="Layer_1" xmlns="http://www.w3.org/2000/svg" xmlns:xlink="http://www.w3.org/1999/xlink" x="0px" y="0px"
	 width="28.021px" height="33.416px" viewBox="0 0 28.021 33.416" style="enable-background:new 0 0 28.021 33.416;"
	 xml:space="preserve">
<g>
	<polygon points="18.169,15.038 18.169,17.186 16.02,17.186 16.02,19.052 18.169,19.052 18.169,21.199 20.034,21.199 20.034,19.052 
		22.183,19.052 22.183,17.186 20.034,17.186 20.034,15.038 	"/>
	<path d="M8.917,8.485C8.482,8.869,8.619,9.744,9.426,9.367c0.81-0.377,2.931-1.136,4.583-1.136c5.448,0,9.882,4.432,9.882,9.878
		s-4.434,8.862-9.882,8.862c-5.446,0-9.877-3.416-9.877-8.862c0-1.728,0.908-4.419,1.23-4.763c0.322-0.348-0.493-1.226-0.818-0.612
		c-0.321,0.612-1.429,3.42-1.429,5.375c0,6.007,4.887,9.881,10.894,9.881c6.01,0,10.898-3.874,10.898-9.881
		c0-6.008-4.889-10.895-10.898-10.895C12.171,7.215,9.35,8.105,8.917,8.485z"/>
	<path d="M7.837,21.262c0.371,0.4,0.825,0.716,1.361,0.948c0.536,0.231,1.152,0.348,1.848,0.348c0.625,0,1.181-0.104,1.668-0.313
		c0.488-0.208,0.898-0.481,1.23-0.821s0.584-0.723,0.756-1.146s0.258-0.852,0.258-1.284h-2.592c-0.04,0.2-0.094,0.389-0.162,0.564
		c-0.067,0.176-0.156,0.328-0.264,0.456s-0.24,0.228-0.396,0.3c-0.155,0.072-0.346,0.108-0.569,0.108
		c-0.313,0-0.572-0.068-0.78-0.204s-0.374-0.316-0.498-0.54s-0.214-0.477-0.27-0.756c-0.056-0.28-0.085-0.564-0.085-0.853
		s0.029-0.571,0.085-0.852s0.146-0.532,0.27-0.756c0.124-0.225,0.29-0.404,0.498-0.54c0.208-0.137,0.468-0.204,0.78-0.204
		c0.271,0,0.493,0.052,0.666,0.155c0.172,0.104,0.31,0.225,0.414,0.36c0.104,0.137,0.176,0.274,0.216,0.414s0.067,0.25,0.084,0.33
		h2.567c-0.111-1.08-0.489-1.914-1.134-2.502c-0.644-0.588-1.558-0.886-2.742-0.895c-0.663,0-1.262,0.108-1.793,0.324
		c-0.532,0.216-0.989,0.521-1.369,0.912c-0.38,0.393-0.671,0.864-0.875,1.416s-0.307,1.164-0.307,1.836
		c0,0.632,0.096,1.223,0.289,1.771C7.183,20.388,7.464,20.861,7.837,21.262z"/>
	<path d="M21.925,0l-0.243,0.022L21.659,0H0v33.416h28.021V8.991V6.362V6.098L21.925,0z M26.521,31.916H1.5V1.5h19.151v5.97h5.87
		V31.916z"/>
</g>
<g>
</g>
<g>
</g>
<g>
</g>
<g>
</g>
<g>
</g>
<g>
</g>
<g>
</g>
<g>
</g>
<g>
</g>
<g>
</g>
<g>
</g>
<g>
</g>
<g>
</g>
<g>
</g>
<g>
</g>
</svg>
