<?xml version="1.0" encoding="iso-8859-1"?>
<!-- Generator: Adobe Illustrator 16.0.0, SVG Export Plug-In . SVG Version: 6.00 Build 0)  -->
<!DOCTYPE svg PUBLIC "-//W3C//DTD SVG 1.1//EN" "http://www.w3.org/Graphics/SVG/1.1/DTD/svg11.dtd">
<svg version="1.1" id="Layer_1" xmlns="http://www.w3.org/2000/svg" xmlns:xlink="http://www.w3.org/1999/xlink" x="0px" y="0px"
	 width="23.615px" height="26.988px" viewBox="0 0 23.615 26.988" style="enable-background:new 0 0 23.615 26.988;"
	 xml:space="preserve">
<g>
	<rect y="12.008" width="23.615" height="2.94"/>
	<path d="M5.651,9.937h2.938V0.113H6.272C6.255,0.518,6.158,0.858,5.983,1.137c-0.174,0.277-0.397,0.5-0.67,0.663
		C5.041,1.964,4.735,2.082,4.396,2.153c-0.339,0.07-0.687,0.102-1.044,0.092v2.033h2.3V9.937z"/>
	<path d="M20.148,7.538h-4.446V7.524c0.461-0.283,0.946-0.556,1.453-0.818c0.509-0.264,0.975-0.559,1.398-0.883
		s0.772-0.703,1.045-1.136c0.271-0.433,0.409-0.965,0.409-1.595c0-0.518-0.097-0.972-0.289-1.362
		c-0.193-0.391-0.467-0.713-0.818-0.968c-0.354-0.253-0.777-0.444-1.271-0.571C17.136,0.064,16.592,0,15.998,0
		c-0.658,0-1.254,0.094-1.785,0.283c-0.531,0.188-0.979,0.463-1.348,0.825c-0.366,0.363-0.641,0.807-0.819,1.334
		c-0.178,0.526-0.248,1.128-0.212,1.806h2.654c-0.02-0.602,0.082-1.089,0.304-1.461c0.221-0.371,0.614-0.557,1.179-0.557
		c0.329,0,0.609,0.087,0.84,0.26c0.229,0.174,0.345,0.488,0.345,0.939c0,0.179-0.044,0.339-0.133,0.479
		c-0.091,0.141-0.203,0.269-0.339,0.381c-0.137,0.113-0.282,0.216-0.438,0.312c-0.155,0.093-0.295,0.178-0.417,0.253
		c-0.31,0.188-0.631,0.379-0.96,0.572c-0.329,0.192-0.646,0.395-0.952,0.606c-0.307,0.211-0.594,0.44-0.861,0.685
		c-0.268,0.245-0.506,0.508-0.714,0.791c-0.243,0.33-0.43,0.697-0.556,1.102c-0.128,0.404-0.177,0.847-0.148,1.326h8.511V7.538z"/>
	<path d="M14.332,21.075c-0.291-0.273-0.639-0.482-1.044-0.629c-0.404-0.145-0.843-0.218-1.313-0.218
		c-0.452,0-0.861,0.052-1.227,0.155c-0.368,0.104-0.716,0.306-1.045,0.606c0.026-0.244,0.082-0.487,0.161-0.727
		c0.08-0.24,0.19-0.456,0.332-0.649c0.142-0.193,0.311-0.349,0.509-0.466c0.197-0.118,0.433-0.176,0.705-0.176
		c0.33,0,0.583,0.056,0.763,0.169c0.206,0.15,0.344,0.329,0.409,0.536h2.583c-0.159-0.969-0.55-1.667-1.171-2.096
		s-1.464-0.642-2.526-0.642c-0.753,0-1.409,0.133-1.963,0.401c-0.555,0.269-1.016,0.643-1.383,1.123
		c-0.368,0.479-0.641,1.049-0.819,1.708s-0.269,1.375-0.269,2.146c0,0.602,0.077,1.186,0.232,1.75
		c0.156,0.565,0.403,1.063,0.742,1.496c0.339,0.433,0.773,0.779,1.306,1.038c0.531,0.258,1.169,0.387,1.913,0.387
		c0.582,0,1.121-0.074,1.615-0.225c0.494-0.15,0.921-0.379,1.277-0.685c0.357-0.305,0.638-0.685,0.84-1.135
		c0.201-0.452,0.304-0.979,0.304-1.582c0-0.48-0.082-0.913-0.246-1.299C14.853,21.677,14.626,21.347,14.332,21.075z M12.266,24.364
		c-0.269,0.263-0.615,0.395-1.037,0.395c-0.396,0-0.718-0.126-0.968-0.382c-0.248-0.253-0.375-0.579-0.375-0.974
		c0-0.366,0.129-0.676,0.382-0.925c0.255-0.249,0.575-0.374,0.961-0.374c0.442,0,0.791,0.129,1.051,0.388
		c0.26,0.26,0.389,0.563,0.389,0.911C12.668,23.78,12.534,24.1,12.266,24.364z"/>
</g>
<g>
</g>
<g>
</g>
<g>
</g>
<g>
</g>
<g>
</g>
<g>
</g>
<g>
</g>
<g>
</g>
<g>
</g>
<g>
</g>
<g>
</g>
<g>
</g>
<g>
</g>
<g>
</g>
<g>
</g>
</svg>
