<?xml version="1.0" encoding="iso-8859-1"?>
<!-- Generator: Adobe Illustrator 16.0.0, SVG Export Plug-In . SVG Version: 6.00 Build 0)  -->
<!DOCTYPE svg PUBLIC "-//W3C//DTD SVG 1.1//EN" "http://www.w3.org/Graphics/SVG/1.1/DTD/svg11.dtd">
<svg version="1.1" id="Layer_1" xmlns="http://www.w3.org/2000/svg" xmlns:xlink="http://www.w3.org/1999/xlink" x="0px" y="0px"
	 width="25.017px" height="31.577px" viewBox="0 0 25.017 31.577" style="enable-background:new 0 0 25.017 31.577;"
	 xml:space="preserve">
<g>
	<rect x="18.529" y="17.124" width="1.755" height="0.698"/>
	<rect x="15.163" y="17.124" width="1.755" height="0.698"/>
	<rect x="11.539" y="17.124" width="1.755" height="0.698"/>
	<rect x="8.188" y="17.124" width="1.755" height="0.698"/>
	<rect x="4.565" y="17.124" width="1.754" height="0.698"/>
	<path d="M17.613,19.006H14.39h-0.219h-3.223h-0.323H7.405h-0.22H3.641v3.011H3.64v3.332h0.001v3.01h3.544h0.22h3.221h0.323h3.223
		h0.219h3.223h0.322h3.442v-3.332h0v-2.688h0v-3.333h-3.442H17.613z M3.962,22.339h3.119v2.688H3.962V22.339z M7.507,22.339h3.118
		v2.688H7.507V22.339z M10.948,22.339L10.948,22.339h3.12v2.688h-3.119h0V22.339z M14.493,22.339h3.119v2.688h-3.119V22.339z
		 M14.493,19.329h3.119v2.688h-3.119V19.329z M10.948,19.329h3.119v2.688h-3.119V19.329z M7.507,19.329h3.118v2.688h0H7.507V19.329z
		 M3.963,19.329h3.119v2.688H3.963V19.329z M7.082,28.037H3.963v-2.688h3.119V28.037z M10.625,28.037H7.507v-2.688h3.118h0V28.037z
		 M14.067,28.037h-3.119v-2.688h3.119V28.037z M17.612,28.037h-3.119v-2.688h3.119V28.037z M21.054,28.037h-3.119v-2.688h3.119
		V28.037z M21.054,25.027h-3.119v-2.688h3.119V25.027z M17.936,19.329h3.119v2.688h-3.119V19.329z"/>
	<rect x="3.889" y="3.985" width="17.41" height="11.392"/>
	<path d="M21.313,0.914V0h-0.914v0.914h-2.506V0h-0.914v0.914h-2.194V0h-0.914v0.914h-2.319V0h-0.914v0.914H8.283V0H7.369v0.914
		H4.836V0H3.922v0.914H0v30.664h25.017V0.914H21.313z M23.727,30.288H1.29V2.203h2.632V2.58h0.914V2.203h2.533V2.58h0.914V2.203
		h2.356V2.58h0.914V2.203h2.319V2.58h0.914V2.203h2.194V2.58h0.914V2.203h2.506V2.58h0.914V2.203h2.415V30.288z"/>
</g>
<g>
</g>
<g>
</g>
<g>
</g>
<g>
</g>
<g>
</g>
<g>
</g>
<g>
</g>
<g>
</g>
<g>
</g>
<g>
</g>
<g>
</g>
<g>
</g>
<g>
</g>
<g>
</g>
<g>
</g>
</svg>
