<?xml version="1.0" encoding="iso-8859-1"?>
<!-- Generator: Adobe Illustrator 16.0.0, SVG Export Plug-In . SVG Version: 6.00 Build 0)  -->
<!DOCTYPE svg PUBLIC "-//W3C//DTD SVG 1.1//EN" "http://www.w3.org/Graphics/SVG/1.1/DTD/svg11.dtd">
<svg version="1.1" id="Layer_1" xmlns="http://www.w3.org/2000/svg" xmlns:xlink="http://www.w3.org/1999/xlink" x="0px" y="0px"
	 width="26.171px" height="31.711px" viewBox="0 0 26.171 31.711" style="enable-background:new 0 0 26.171 31.711;"
	 xml:space="preserve">
<g>
	<polygon points="23.031,23.261 17.361,27.742 20.503,31.711 21.997,27.777 26.171,27.232 	"/>
	<polygon points="7.391,25.05 11.325,26.545 11.87,30.718 15.841,27.578 11.361,21.909 	"/>
	<path d="M17.361,18.741c-1.758,0-3.19,1.431-3.19,3.189c0,1.76,1.432,3.19,3.19,3.19c1.759,0,3.191-1.431,3.191-3.19
		C20.553,20.172,19.121,18.741,17.361,18.741z M18.881,23.973l-1.52-0.801l-1.519,0.801l0.29-1.691l-1.229-1.199l1.699-0.246
		l0.759-1.539l0.76,1.539l1.699,0.246l-1.229,1.199L18.881,23.973z"/>
	<path d="M21.237,21.911c0-2.144-1.736-3.877-3.878-3.877c-2.139,0-3.875,1.733-3.875,3.877c0,2.14,1.736,3.873,3.875,3.873
		C19.5,25.784,21.237,24.051,21.237,21.911z M17.361,25.336c-1.877,0-3.405-1.527-3.405-3.405s1.528-3.405,3.405-3.405
		c1.879,0,3.405,1.527,3.405,3.405S19.24,25.336,17.361,25.336z"/>
</g>
<polygon points="18.458,0 18.252,0.02 18.234,0 0,0 0,28.131 10.642,28.131 10.351,26.868 1.263,26.868 1.263,1.263 17.385,1.263 
	17.385,6.288 22.327,6.288 22.327,21.519 23.59,22.535 23.59,7.569 23.59,5.355 23.59,5.133 "/>
<g>
	<path d="M2.903,8.38H6.3c0.406,0,0.737,0.051,0.995,0.152s0.46,0.23,0.608,0.387c0.147,0.156,0.248,0.325,0.299,0.508
		c0.052,0.183,0.079,0.353,0.079,0.509c0,0.313-0.07,0.562-0.208,0.747c-0.139,0.186-0.325,0.342-0.556,0.469
		c0.139,0.047,0.273,0.11,0.404,0.191s0.245,0.185,0.343,0.309c0.099,0.125,0.178,0.273,0.239,0.447
		c0.061,0.174,0.091,0.374,0.091,0.6c0,0.313-0.062,0.587-0.187,0.821c-0.125,0.234-0.289,0.43-0.491,0.587
		c-0.203,0.156-0.435,0.274-0.695,0.355c-0.261,0.082-0.527,0.122-0.8,0.122H2.903V8.38z M4.814,10.796h1.008
		c0.203,0,0.362-0.035,0.478-0.104s0.174-0.206,0.174-0.408c0-0.157-0.06-0.267-0.178-0.33C6.177,9.889,6.02,9.857,5.823,9.857
		H4.814V10.796z M4.814,13.106h1.121c0.098,0,0.192-0.009,0.282-0.025c0.09-0.018,0.169-0.048,0.239-0.092
		c0.069-0.043,0.125-0.103,0.165-0.178s0.061-0.174,0.061-0.296c0-0.376-0.223-0.564-0.669-0.564H4.814V13.106z"/>
	<path d="M9.341,8.38h5.135v1.59h-3.224v0.773h2.928v1.478h-2.928v0.773h3.319v1.59H9.341V8.38z"/>
	<path d="M19.369,10.691c-0.012-0.058-0.032-0.138-0.061-0.239c-0.029-0.102-0.082-0.201-0.157-0.3s-0.175-0.186-0.3-0.261
		s-0.285-0.112-0.482-0.112c-0.226,0-0.415,0.049-0.565,0.147c-0.151,0.099-0.271,0.229-0.36,0.391
		c-0.09,0.162-0.155,0.345-0.196,0.548s-0.061,0.408-0.061,0.617c0,0.208,0.02,0.414,0.061,0.616
		c0.041,0.203,0.105,0.386,0.196,0.548c0.089,0.162,0.209,0.292,0.36,0.391c0.15,0.099,0.339,0.147,0.565,0.147
		c0.162,0,0.3-0.025,0.413-0.078c0.113-0.052,0.208-0.124,0.287-0.217s0.142-0.203,0.191-0.33c0.049-0.128,0.088-0.264,0.117-0.408
		h1.877c0,0.313-0.063,0.622-0.187,0.93c-0.125,0.307-0.307,0.583-0.547,0.829c-0.24,0.247-0.537,0.445-0.891,0.596
		s-0.756,0.226-1.208,0.226c-0.504,0-0.95-0.084-1.338-0.252s-0.717-0.396-0.986-0.687c-0.269-0.289-0.474-0.633-0.612-1.029
		c-0.139-0.396-0.208-0.824-0.208-1.281c0-0.487,0.074-0.931,0.221-1.33c0.148-0.399,0.359-0.741,0.634-1.025
		c0.275-0.283,0.605-0.504,0.991-0.66s0.818-0.234,1.299-0.234c0.857,0.006,1.519,0.222,1.985,0.647s0.74,1.029,0.821,1.812H19.369z
		"/>
</g>
<rect x="3.006" y="17.101" width="8.769" height="1.192"/>
<rect x="3.006" y="19.416" width="8.769" height="1.191"/>
<g>
</g>
<g>
</g>
<g>
</g>
<g>
</g>
<g>
</g>
<g>
</g>
<g>
</g>
<g>
</g>
<g>
</g>
<g>
</g>
<g>
</g>
<g>
</g>
<g>
</g>
<g>
</g>
<g>
</g>
</svg>
