<?xml version="1.0" encoding="iso-8859-1"?>
<!-- Generator: Adobe Illustrator 16.0.0, SVG Export Plug-In . SVG Version: 6.00 Build 0)  -->
<!DOCTYPE svg PUBLIC "-//W3C//DTD SVG 1.1//EN" "http://www.w3.org/Graphics/SVG/1.1/DTD/svg11.dtd">
<svg version="1.1" id="Layer_1" xmlns="http://www.w3.org/2000/svg" xmlns:xlink="http://www.w3.org/1999/xlink" x="0px" y="0px"
	 width="27.47px" height="26.934px" viewBox="0 0 27.47 26.934" style="enable-background:new 0 0 27.47 26.934;"
	 xml:space="preserve">
<g>
	<rect x="1.414" y="20.736" width="0.32" height="0.16"/>
	<rect x="23.129" y="20.736" width="0.647" height="0.16"/>
	<rect x="3.678" y="20.736" width="0.648" height="0.16"/>
	<rect x="7.571" y="20.736" width="0.647" height="0.16"/>
	<rect x="21.832" y="20.736" width="0.648" height="0.16"/>
	<rect x="8.867" y="20.736" width="0.648" height="0.16"/>
	<rect x="4.977" y="20.736" width="0.649" height="0.16"/>
	<rect x="16.645" y="20.736" width="0.649" height="0.16"/>
	<rect x="6.273" y="20.736" width="0.648" height="0.16"/>
	<rect x="24.427" y="20.736" width="0.649" height="0.16"/>
	<rect x="15.35" y="20.736" width="0.648" height="0.16"/>
	<rect x="2.379" y="20.736" width="0.649" height="0.16"/>
	<rect x="11.461" y="20.736" width="0.647" height="0.16"/>
	<rect x="14.052" y="20.736" width="0.65" height="0.16"/>
	<rect x="20.535" y="20.736" width="0.648" height="0.16"/>
	<rect x="17.942" y="20.736" width="0.648" height="0.16"/>
	<rect x="10.163" y="20.736" width="0.649" height="0.16"/>
	<rect x="26.985" y="20.736" width="0.319" height="0.16"/>
	<rect x="1.662" y="14.424" width="0.32" height="0.16"/>
	<rect x="24.453" y="14.424" width="0.643" height="0.16"/>
	<polygon points="19.958,14.424 19.818,14.424 19.818,14.234 19.657,14.234 19.657,14.424 19.315,14.424 19.315,14.584 
		19.657,14.584 19.657,14.89 19.818,14.89 19.818,14.584 19.958,14.584 	"/>
	<rect x="23.168" y="14.424" width="0.642" height="0.16"/>
	<rect x="7.762" y="14.424" width="0.643" height="0.16"/>
	<rect x="10.33" y="14.424" width="0.642" height="0.16"/>
	<rect x="11.613" y="14.424" width="0.642" height="0.16"/>
	<rect x="9.046" y="14.424" width="0.643" height="0.16"/>
	<rect x="16.748" y="14.424" width="0.643" height="0.16"/>
	<polygon points="26.383,14.424 25.926,14.424 25.926,14.024 25.764,14.024 25.764,14.424 25.738,14.424 25.738,14.584 
		25.764,14.584 25.764,14.677 25.926,14.677 25.926,14.584 26.383,14.584 	"/>
	<rect x="5.194" y="14.424" width="0.641" height="0.16"/>
	<rect x="18.031" y="14.424" width="0.643" height="0.16"/>
	<rect x="14.18" y="14.424" width="0.643" height="0.16"/>
	<rect x="3.908" y="14.424" width="0.643" height="0.16"/>
	<rect x="2.622" y="14.424" width="0.643" height="0.16"/>
	<rect x="20.601" y="14.424" width="0.641" height="0.16"/>
	<rect x="21.884" y="14.424" width="0.642" height="0.16"/>
	<polygon points="6.479,14.584 7.038,14.584 7.038,14.614 7.198,14.614 7.198,13.964 7.038,13.964 7.038,14.424 6.479,14.424 	"/>
	<rect x="15.464" y="14.424" width="0.642" height="0.16"/>
	<rect x="26.985" y="14.424" width="0.319" height="0.16"/>
	<rect x="9.999" y="8.485" width="0.655" height="0.161"/>
	<rect x="3.449" y="8.485" width="0.656" height="0.161"/>
	<rect x="12.616" y="8.485" width="0.654" height="0.161"/>
	<rect x="2.138" y="8.485" width="0.656" height="0.161"/>
	<rect x="4.76" y="8.485" width="0.655" height="0.161"/>
	<rect x="24.402" y="8.485" width="0.654" height="0.161"/>
	<rect x="11.309" y="8.485" width="0.654" height="0.161"/>
	<rect x="23.091" y="8.485" width="0.655" height="0.161"/>
	<rect x="17.854" y="8.485" width="0.654" height="0.161"/>
	<rect x="25.713" y="8.485" width="0.655" height="0.161"/>
	<rect x="20.472" y="8.485" width="0.654" height="0.161"/>
	<rect x="15.234" y="8.485" width="0.656" height="0.161"/>
	<rect x="21.781" y="8.485" width="0.655" height="0.161"/>
	<rect x="19.163" y="8.485" width="0.655" height="0.161"/>
	<rect x="6.07" y="8.485" width="0.655" height="0.161"/>
	<rect x="8.688" y="8.485" width="0.655" height="0.161"/>
	<rect x="16.544" y="8.485" width="0.655" height="0.161"/>
	<rect x="7.38" y="8.485" width="0.654" height="0.161"/>
	<rect x="13.926" y="8.485" width="0.656" height="0.161"/>
	<rect x="26.985" y="8.485" width="0.319" height="0.161"/>
	<rect x="1.414" y="2.172" width="0.32" height="0.16"/>
	<rect x="14.133" y="2.172" width="0.654" height="0.16"/>
	<rect x="16.743" y="2.172" width="0.653" height="0.16"/>
	<rect x="15.438" y="2.172" width="0.651" height="0.16"/>
	<rect x="8.914" y="2.172" width="0.653" height="0.16"/>
	<rect x="21.963" y="2.172" width="0.652" height="0.16"/>
	<rect x="6.303" y="2.172" width="0.653" height="0.16"/>
	<rect x="19.354" y="2.172" width="0.652" height="0.16"/>
	<rect x="20.658" y="2.172" width="0.651" height="0.16"/>
	<rect x="2.384" y="2.172" width="0.654" height="0.16"/>
	<rect x="4.998" y="2.172" width="0.653" height="0.16"/>
	<rect x="18.048" y="2.172" width="0.652" height="0.16"/>
	<rect x="3.691" y="2.172" width="0.652" height="0.16"/>
	<rect x="11.522" y="2.172" width="0.653" height="0.16"/>
	<rect x="23.269" y="2.172" width="0.653" height="0.16"/>
	<rect x="12.829" y="2.172" width="0.651" height="0.16"/>
	<rect x="10.219" y="2.172" width="0.653" height="0.16"/>
	<rect x="7.608" y="2.172" width="0.653" height="0.16"/>
	<rect x="24.575" y="2.172" width="0.653" height="0.16"/>
	<rect x="27.149" y="2.172" width="0.32" height="0.16"/>
	<rect x="7.038" y="0.028" width="0.16" height="0.321"/>
	<rect x="7.038" y="4.889" width="0.16" height="0.648"/>
	<rect x="7.038" y="6.187" width="0.16" height="0.647"/>
	<rect x="7.038" y="10.075" width="0.16" height="0.649"/>
	<rect x="7.038" y="8.78" width="0.16" height="0.646"/>
	<rect x="7.038" y="7.483" width="0.16" height="0.648"/>
	<rect x="7.038" y="0.995" width="0.16" height="0.649"/>
	<rect x="7.038" y="2.294" width="0.16" height="0.648"/>
	<rect x="7.038" y="3.592" width="0.16" height="0.649"/>
	<rect x="7.038" y="19.151" width="0.16" height="0.647"/>
	<rect x="7.038" y="20.448" width="0.16" height="0.647"/>
	<rect x="7.038" y="17.854" width="0.16" height="0.648"/>
	<rect x="7.038" y="11.372" width="0.16" height="0.648"/>
	<rect x="7.038" y="15.262" width="0.16" height="0.647"/>
	<rect x="7.038" y="21.745" width="0.16" height="0.646"/>
	<rect x="7.038" y="24.341" width="0.16" height="0.65"/>
	<rect x="7.038" y="12.668" width="0.16" height="0.649"/>
	<rect x="7.038" y="23.042" width="0.16" height="0.649"/>
	<rect x="7.038" y="16.559" width="0.16" height="0.647"/>
	<rect x="13.351" y="0.189" width="0.162" height="0.319"/>
	<rect x="13.351" y="16.559" width="0.162" height="0.642"/>
	<rect x="13.351" y="19.128" width="0.162" height="0.641"/>
	<rect x="13.351" y="17.843" width="0.162" height="0.643"/>
	<rect x="13.351" y="15.274" width="0.162" height="0.643"/>
	<rect x="13.351" y="21.694" width="0.162" height="0.643"/>
	<rect x="13.351" y="24.267" width="0.162" height="0.642"/>
	<rect x="13.351" y="22.979" width="0.162" height="0.643"/>
	<polygon points="13.513,20.411 13.351,20.411 13.351,20.736 12.758,20.736 12.758,20.896 13.351,20.896 13.351,21.053 
		13.513,21.053 	"/>
	<polygon points="13.513,14.584 13.538,14.584 13.538,14.424 13.513,14.424 13.513,13.992 13.351,13.992 13.351,14.424 
		12.897,14.424 12.897,14.584 13.351,14.584 13.351,14.633 13.513,14.633 	"/>
	<rect x="13.351" y="8.856" width="0.162" height="0.643"/>
	<rect x="13.351" y="11.424" width="0.162" height="0.641"/>
	<rect x="13.351" y="3.721" width="0.162" height="0.643"/>
	<rect x="13.351" y="1.149" width="0.162" height="0.643"/>
	<rect x="13.351" y="12.706" width="0.162" height="0.645"/>
	<rect x="13.351" y="10.141" width="0.162" height="0.642"/>
	<rect x="13.351" y="5.006" width="0.162" height="0.641"/>
	<rect x="13.351" y="2.435" width="0.162" height="0.644"/>
	<rect x="13.351" y="6.288" width="0.162" height="0.642"/>
	<rect x="13.351" y="7.572" width="0.162" height="0.643"/>
	<rect x="19.657" y="0.165" width="0.161" height="0.321"/>
	<rect x="19.657" y="12.926" width="0.161" height="0.656"/>
	<rect x="19.657" y="11.616" width="0.161" height="0.653"/>
	<rect x="19.657" y="7.689" width="0.161" height="0.655"/>
	<rect x="19.657" y="8.999" width="0.161" height="0.654"/>
	<rect x="19.657" y="2.449" width="0.161" height="0.656"/>
	<rect x="19.657" y="6.381" width="0.161" height="0.652"/>
	<rect x="19.657" y="10.308" width="0.161" height="0.655"/>
	<rect x="19.657" y="1.138" width="0.161" height="0.656"/>
	<rect x="19.657" y="5.069" width="0.161" height="0.656"/>
	<rect x="19.657" y="3.761" width="0.161" height="0.653"/>
	<rect x="19.657" y="23.402" width="0.161" height="0.655"/>
	<rect x="19.657" y="22.09" width="0.161" height="0.654"/>
	<polygon points="19.818,20.896 19.888,20.896 19.888,20.736 19.239,20.736 19.239,20.896 19.657,20.896 19.657,21.437 
		19.818,21.437 	"/>
	<rect x="19.657" y="19.472" width="0.161" height="0.654"/>
	<rect x="19.657" y="24.712" width="0.161" height="0.656"/>
	<rect x="19.657" y="18.163" width="0.161" height="0.655"/>
	<rect x="19.657" y="15.544" width="0.161" height="0.655"/>
	<rect x="19.657" y="16.853" width="0.161" height="0.655"/>
	<rect x="25.764" width="0.162" height="0.321"/>
	<polygon points="25.926,20.896 26.376,20.896 26.376,20.736 25.926,20.736 25.926,20.55 25.764,20.55 25.764,20.736 25.726,20.736 
		25.726,20.896 25.764,20.896 25.764,21.202 25.926,21.202 	"/>
	<rect x="25.764" y="21.854" width="0.162" height="0.654"/>
	<rect x="25.764" y="23.161" width="0.162" height="0.653"/>
	<rect x="25.764" y="0.97" width="0.162" height="0.654"/>
	<rect x="25.764" y="16.634" width="0.162" height="0.653"/>
	<polygon points="25.926,2.332 26.536,2.332 26.536,2.172 25.881,2.172 25.881,2.278 25.764,2.278 25.764,2.931 25.926,2.931 	"/>
	<rect x="25.764" y="24.468" width="0.162" height="0.655"/>
	<rect x="25.764" y="17.938" width="0.162" height="0.654"/>
	<rect x="25.764" y="12.72" width="0.162" height="0.654"/>
	<rect x="25.764" y="4.891" width="0.162" height="0.652"/>
	<rect x="25.764" y="15.33" width="0.162" height="0.651"/>
	<rect x="25.764" y="6.195" width="0.162" height="0.652"/>
	<rect x="25.764" y="7.501" width="0.162" height="0.653"/>
	<rect x="25.764" y="3.585" width="0.162" height="0.652"/>
	<rect x="25.764" y="10.11" width="0.162" height="0.652"/>
	<rect x="25.764" y="19.245" width="0.162" height="0.65"/>
	<rect x="25.764" y="11.415" width="0.162" height="0.651"/>
	<rect x="25.764" y="8.806" width="0.162" height="0.652"/>
	<rect x="14.296" y="15.121" width="4.698" height="5.146"/>
	<rect x="7.977" y="15.121" width="4.699" height="5.146"/>
	<rect x="7.87" y="9.178" width="4.698" height="4.819"/>
	<rect x="1.779" y="15.121" width="4.699" height="5.146"/>
	<polygon points="25.171,21.518 20.472,21.518 20.472,25.645 18.994,25.645 18.994,21.518 14.296,21.518 14.296,25.645 
		13.513,25.645 13.513,25.513 13.351,25.513 13.351,25.645 12.514,25.645 12.514,21.518 7.814,21.518 7.814,25.645 7.198,25.645 
		7.198,25.602 7.038,25.602 7.038,25.645 6.479,25.645 6.479,21.437 1.779,21.437 1.779,25.645 1.289,25.645 1.289,8.646 
		1.485,8.646 1.485,8.485 1.289,8.485 1.289,0.103 0,0.103 0,26.934 27.309,26.934 27.309,25.645 25.171,25.645 	"/>
</g>
<g>
</g>
<g>
</g>
<g>
</g>
<g>
</g>
<g>
</g>
<g>
</g>
<g>
</g>
<g>
</g>
<g>
</g>
<g>
</g>
<g>
</g>
<g>
</g>
<g>
</g>
<g>
</g>
<g>
</g>
</svg>
