<?xml version="1.0" encoding="iso-8859-1"?>
<!-- Generator: Adobe Illustrator 16.0.0, SVG Export Plug-In . SVG Version: 6.00 Build 0)  -->
<!DOCTYPE svg PUBLIC "-//W3C//DTD SVG 1.1//EN" "http://www.w3.org/Graphics/SVG/1.1/DTD/svg11.dtd">
<svg version="1.1" id="Layer_1" xmlns="http://www.w3.org/2000/svg" xmlns:xlink="http://www.w3.org/1999/xlink" x="0px" y="0px"
	 width="26.271px" height="31.675px" viewBox="0 0 26.271 31.675" style="enable-background:new 0 0 26.271 31.675;"
	 xml:space="preserve">
<g>
	<path d="M26.263,25.884V7.937L23.171,0l-3.669,7.803l-0.027,18.081h-0.012v5.791h6.809v-5.791H26.263z M25.004,30.406H20.73v-2.144
		h4.273V30.406z M25.631,8.815l-1.72-1.935l-0.962,1.578L21.849,6.88l-1.745,1.719V8.008L22.2,3.555h1.687l1.744,4.443V8.815z"/>
	<path d="M0,25.813h16.48V9.332H0V25.813z M1.288,10.622H15.19v13.902H1.288V10.622z"/>
	<polygon points="2.262,17.221 2.965,19.721 6.161,23.018 13.37,16.765 13.37,12.128 6.21,20.452 	"/>
</g>
<g>
</g>
<g>
</g>
<g>
</g>
<g>
</g>
<g>
</g>
<g>
</g>
<g>
</g>
<g>
</g>
<g>
</g>
<g>
</g>
<g>
</g>
<g>
</g>
<g>
</g>
<g>
</g>
<g>
</g>
</svg>
