<?xml version="1.0" encoding="iso-8859-1"?>
<!-- Generator: Adobe Illustrator 16.0.0, SVG Export Plug-In . SVG Version: 6.00 Build 0)  -->
<!DOCTYPE svg PUBLIC "-//W3C//DTD SVG 1.1//EN" "http://www.w3.org/Graphics/SVG/1.1/DTD/svg11.dtd">
<svg version="1.1" id="Layer_1" xmlns="http://www.w3.org/2000/svg" xmlns:xlink="http://www.w3.org/1999/xlink" x="0px" y="0px"
	 width="29.327px" height="29.12px" viewBox="0 0 29.327 29.12" style="enable-background:new 0 0 29.327 29.12;"
	 xml:space="preserve">
<g>
	<path d="M10.958,17.368L7.644,24.14c0.628,0.269,1.281,0.485,1.956,0.649l1.498-7.374C11.05,17.402,11.004,17.383,10.958,17.368z"
		/>
	<path d="M17.164,10.452l6.995-2.765c-0.713-1.683-1.783-3.181-3.115-4.396L16.282,9.14C16.642,9.525,16.939,9.969,17.164,10.452z"
		/>
	<path d="M9.782,16.793l-5.005,5.633c0.593,0.473,1.229,0.891,1.901,1.25l3.306-6.76C9.916,16.876,9.848,16.837,9.782,16.793z"/>
	<path d="M24.532,8.693l-7.021,2.775c0.08,0.355,0.125,0.726,0.125,1.105c0,2.21-1.426,4.09-3.405,4.778l1.792,7.311
		c5.261-1.505,9.124-6.353,9.124-12.089C25.147,11.221,24.93,9.917,24.532,8.693z"/>
	<path d="M12.574,17.637c-0.143,0-0.283-0.01-0.421-0.021l-1.501,7.386c0.626,0.097,1.269,0.146,1.922,0.146
		c0.823,0,1.627-0.083,2.408-0.233l-1.794-7.318C12.985,17.621,12.782,17.637,12.574,17.637z"/>
	<path d="M7.511,12.574c0-0.661,0.131-1.291,0.362-1.869L1.368,6.883C0.496,8.593,0,10.525,0,12.574c0,3.604,1.527,6.856,3.965,9.15
		l4.99-5.616C8.063,15.195,7.511,13.949,7.511,12.574z"/>
	<path d="M12.574,7.511c1.079,0,2.079,0.343,2.901,0.92l4.746-5.828C18.101,0.973,15.449,0,12.574,0
		C8.071,0,4.116,2.381,1.895,5.947l6.477,3.806C9.283,8.401,10.827,7.511,12.574,7.511z"/>
	<rect x="23.456" y="23.045" width="5.871" height="0.967"/>
	<rect x="23.456" y="24.789" width="5.871" height="0.968"/>
	<rect x="23.456" y="26.481" width="5.871" height="0.967"/>
	<rect x="23.456" y="28.154" width="5.871" height="0.966"/>
	<rect x="21.723" y="23.045" width="1.096" height="0.967"/>
	<rect x="21.723" y="24.789" width="1.096" height="0.968"/>
	<rect x="21.723" y="26.481" width="1.096" height="0.967"/>
	<rect x="21.723" y="28.154" width="1.096" height="0.966"/>
</g>
<g>
</g>
<g>
</g>
<g>
</g>
<g>
</g>
<g>
</g>
<g>
</g>
<g>
</g>
<g>
</g>
<g>
</g>
<g>
</g>
<g>
</g>
<g>
</g>
<g>
</g>
<g>
</g>
<g>
</g>
</svg>
