<?xml version="1.0" encoding="iso-8859-1"?>
<!-- Generator: Adobe Illustrator 16.0.0, SVG Export Plug-In . SVG Version: 6.00 Build 0)  -->
<!DOCTYPE svg PUBLIC "-//W3C//DTD SVG 1.1//EN" "http://www.w3.org/Graphics/SVG/1.1/DTD/svg11.dtd">
<svg version="1.1" id="Layer_1" xmlns="http://www.w3.org/2000/svg" xmlns:xlink="http://www.w3.org/1999/xlink" x="0px" y="0px"
	 width="30.039px" height="28.747px" viewBox="0 0 30.039 28.747" style="enable-background:new 0 0 30.039 28.747;"
	 xml:space="preserve">
<g>
	<path d="M14.111,20.318c-3.133,0-5.683-2.548-5.683-5.681c0-2.974,2.296-5.415,5.206-5.658V0.538C6.074,0.791,0,7.015,0,14.638
		c0,7.78,6.33,14.109,14.111,14.109c3.668,0,7.011-1.408,9.521-3.713l-5.849-6.074C16.794,19.804,15.513,20.318,14.111,20.318z"/>
	<path d="M21.597,15.609c-0.142,1.517-0.884,2.856-1.98,3.792l5.848,6.075c2.7-2.478,4.438-5.987,4.575-9.899L21.597,15.609z"/>
	<path d="M20.646,14.11c0,0.18-0.011,0.357-0.026,0.533l8.442-0.032c0.007-0.167,0.013-0.333,0.013-0.501
		C29.074,6.329,22.745,0,14.964,0c-0.16,0-0.317,0.007-0.476,0.013v8.439c0.156-0.012,0.315-0.023,0.476-0.023
		C18.098,8.429,20.646,10.978,20.646,14.11z"/>
</g>
<g>
</g>
<g>
</g>
<g>
</g>
<g>
</g>
<g>
</g>
<g>
</g>
<g>
</g>
<g>
</g>
<g>
</g>
<g>
</g>
<g>
</g>
<g>
</g>
<g>
</g>
<g>
</g>
<g>
</g>
</svg>
