<?xml version="1.0" encoding="iso-8859-1"?>
<!-- Generator: Adobe Illustrator 16.0.0, SVG Export Plug-In . SVG Version: 6.00 Build 0)  -->
<!DOCTYPE svg PUBLIC "-//W3C//DTD SVG 1.1//EN" "http://www.w3.org/Graphics/SVG/1.1/DTD/svg11.dtd">
<svg version="1.1" id="Layer_1" xmlns="http://www.w3.org/2000/svg" xmlns:xlink="http://www.w3.org/1999/xlink" x="0px" y="0px"
	 width="28.482px" height="28.483px" viewBox="0 0 28.482 28.483" style="enable-background:new 0 0 28.482 28.483;"
	 xml:space="preserve">
<g>
	<path d="M12.414,8.521c0.353,0,0.697,0.031,1.039,0.08l1.207-4.731c-0.729-0.133-1.478-0.214-2.246-0.214
		c-1.721,0-3.36,0.354-4.852,0.988l1.942,4.461C10.4,8.729,11.384,8.521,12.414,8.521z"/>
	<path d="M24.788,15.304c-0.157-2.584-1.105-4.956-2.611-6.875l-3.892,2.903c0.896,1.109,1.488,2.477,1.641,3.972H24.788z"/>
	<path d="M8.922,9.382L6.982,4.925c-2.254,1.103-4.126,2.86-5.361,5.033l4.337,2.219C6.671,10.995,7.695,10.026,8.922,9.382z"/>
	<path d="M15.291,4.006L14.09,8.714c1.461,0.332,2.761,1.09,3.766,2.135l3.909-2.918C20.093,6.014,17.847,4.616,15.291,4.006z"/>
	<path d="M4.864,16.07c0-1.195,0.286-2.321,0.782-3.327l-4.325-2.214C0.483,12.2,0,14.078,0,16.07c0,0.467,0.029,0.928,0.082,1.38
		l4.815-0.736C4.878,16.501,4.864,16.288,4.864,16.07z"/>
	<path d="M4.981,17.354L0.18,18.088c0.511,3.11,2.174,5.831,4.544,7.708l2.79-3.993C6.203,20.681,5.286,19.121,4.981,17.354z"/>
	<path d="M24.821,15.948h-4.862c0,0.041,0.005,0.081,0.005,0.122c0,1.985-0.776,3.787-2.033,5.136l3.41,3.469
		c2.154-2.233,3.487-5.263,3.487-8.604C24.828,16.029,24.822,15.989,24.821,15.948z"/>
	<path d="M12.414,23.618c-1.638,0-3.152-0.529-4.392-1.42l-2.781,3.985c2.027,1.442,4.5,2.3,7.173,2.3
		c3.272,0,6.244-1.282,8.465-3.358l-3.408-3.466C16.13,22.872,14.359,23.618,12.414,23.618z"/>
	<path d="M28.244,13.333l-2.404,0.438c0.129,0.749,0.211,1.513,0.211,2.299c0,1.499-0.258,2.937-0.71,4.287l2.287,0.869
		c0.553-1.619,0.854-3.354,0.854-5.156C28.482,15.136,28.398,14.222,28.244,13.333z"/>
	<path d="M21.381,5.821l1.733-1.727C20.271,1.552,16.521,0,12.414,0c-0.016,0-0.031,0.002-0.048,0.002v2.434
		c0.017,0,0.032-0.002,0.048-0.002C15.847,2.434,18.98,3.719,21.381,5.821z"/>
	<path d="M22.344,25.386l1.727,1.727c1.434-1.512,2.574-3.303,3.337-5.279l-2.28-0.866C24.484,22.616,23.536,24.116,22.344,25.386z"
		/>
	<path d="M25.726,13.136l2.397-0.438c-0.679-3.166-2.292-5.986-4.537-8.161l-1.728,1.718C23.763,8.089,25.136,10.465,25.726,13.136z
		"/>
</g>
<g>
</g>
<g>
</g>
<g>
</g>
<g>
</g>
<g>
</g>
<g>
</g>
<g>
</g>
<g>
</g>
<g>
</g>
<g>
</g>
<g>
</g>
<g>
</g>
<g>
</g>
<g>
</g>
<g>
</g>
</svg>
