<?xml version="1.0" encoding="iso-8859-1"?>
<!-- Generator: Adobe Illustrator 16.0.0, SVG Export Plug-In . SVG Version: 6.00 Build 0)  -->
<!DOCTYPE svg PUBLIC "-//W3C//DTD SVG 1.1//EN" "http://www.w3.org/Graphics/SVG/1.1/DTD/svg11.dtd">
<svg version="1.1" id="Layer_1" xmlns="http://www.w3.org/2000/svg" xmlns:xlink="http://www.w3.org/1999/xlink" x="0px" y="0px"
	 width="28.664px" height="31.99px" viewBox="0 0 28.664 31.99" style="enable-background:new 0 0 28.664 31.99;"
	 xml:space="preserve">
<g>
	<ellipse cx="5.074" cy="22.946" rx="2.711" ry="2.664"/>
	<polygon points="5.119,27.187 4.088,26.011 1.695,26.44 1.695,31.196 2.548,31.196 2.59,31.99 7.485,31.99 7.526,31.196 
		8.164,31.196 8.164,26.44 6.12,26.011 	"/>
	<ellipse cx="14.185" cy="22.821" rx="2.71" ry="2.663"/>
	<polygon points="14.229,27.061 13.199,25.884 10.806,26.314 10.806,31.069 11.659,31.069 11.701,31.864 16.596,31.864 
		16.637,31.069 17.274,31.069 17.274,26.314 15.23,25.884 	"/>
	<ellipse cx="23.048" cy="22.819" rx="2.711" ry="2.664"/>
	<polygon points="23.093,27.061 22.063,25.884 19.669,26.314 19.669,31.069 20.522,31.069 20.564,31.864 25.459,31.864 25.5,31.069 
		26.137,31.069 26.137,26.314 24.094,25.884 	"/>
	<ellipse cx="9.969" cy="12.452" rx="2.174" ry="2.136"/>
	<polygon points="7.978,19.703 11.902,19.703 11.936,19.065 12.446,19.065 12.446,15.253 10.807,14.908 10.005,15.852 9.179,14.908 
		7.261,15.253 7.261,19.065 7.944,19.065 	"/>
	<ellipse cx="19.08" cy="12.351" rx="2.173" ry="2.135"/>
	<polygon points="19.116,15.751 18.29,14.808 16.372,15.151 16.372,18.966 17.055,18.966 17.089,19.602 21.014,19.602 
		21.046,18.966 21.557,18.966 21.557,15.151 19.919,14.808 	"/>
	<ellipse cx="26.186" cy="12.351" rx="2.174" ry="2.135"/>
	<polygon points="27.025,14.808 26.223,15.751 25.397,14.808 23.479,15.151 23.479,18.966 24.162,18.966 24.195,19.602 
		28.12,19.602 28.152,18.966 28.664,18.966 28.664,15.151 	"/>
	<ellipse cx="2.709" cy="12.35" rx="2.173" ry="2.135"/>
	<polygon points="4.675,18.965 5.186,18.965 5.186,15.151 3.547,14.806 2.745,15.75 1.919,14.806 0,15.151 0,18.965 0.684,18.965 
		0.718,19.601 4.643,19.601 	"/>
	<circle cx="14.304" cy="2.311" r="2.311"/>
	<polygon points="12.251,10.216 16.418,10.216 16.626,6.167 20.752,4.801 20.396,3.721 16.627,4.968 15.145,4.968 14.265,5.989 
		13.412,4.968 11.55,5.25 11.421,9.469 12.214,9.469 	"/>
</g>
<g>
</g>
<g>
</g>
<g>
</g>
<g>
</g>
<g>
</g>
<g>
</g>
<g>
</g>
<g>
</g>
<g>
</g>
<g>
</g>
<g>
</g>
<g>
</g>
<g>
</g>
<g>
</g>
<g>
</g>
</svg>
