<?xml version="1.0" encoding="iso-8859-1"?>
<!-- Generator: Adobe Illustrator 16.0.0, SVG Export Plug-In . SVG Version: 6.00 Build 0)  -->
<!DOCTYPE svg PUBLIC "-//W3C//DTD SVG 1.1//EN" "http://www.w3.org/Graphics/SVG/1.1/DTD/svg11.dtd">
<svg version="1.1" id="Layer_1" xmlns="http://www.w3.org/2000/svg" xmlns:xlink="http://www.w3.org/1999/xlink" x="0px" y="0px"
	 width="31.245px" height="30.011px" viewBox="0 0 31.245 30.011" style="enable-background:new 0 0 31.245 30.011;"
	 xml:space="preserve">
<g>
	<path d="M14.355,10.906l-2.418,12.695l-0.002-0.001L1.711,25.115l13.641,4.896l12.146-1.633l3.747-15.816L14.355,10.906z
		 M11.957,28.101l-3.349-1.279l1.614-0.214l3.757,1.253L11.957,28.101z M26.389,27.051l-13.512-3.822l2.172-11.205l14.495,1.703
		L26.389,27.051z"/>
	<path d="M9.612,13.887L8.823,14.68l-0.001-0.002l-0.229,0.23L0,23.539l8.969-0.68L9.612,13.887z M1.048,23.077l0.477-0.48
		l0.247,0.243l0.153-0.152l-0.247-0.246l0.222-0.224l0.42,0.417l0.152-0.155l-0.421-0.415l0.165-0.167l0.287,0.284l0.152-0.154
		l-0.286-0.283l0.226-0.229l0.42,0.416l0.152-0.156l-0.42-0.415l0.164-0.166l0.288,0.284l0.151-0.152l-0.286-0.285l0.209-0.211
		l0.42,0.416l0.152-0.153l-0.421-0.416L3.59,20.51l0.287,0.283l0.152-0.152l-0.288-0.284l0.228-0.229l0.42,0.416l0.152-0.153
		L4.12,19.975l0.165-0.168l0.287,0.285l0.152-0.153l-0.287-0.285l0.204-0.204l0.007,0.006l0.11-0.117l0.315,0.312l0.153-0.153
		l-0.333-0.329l0.165-0.166l0.199,0.197l0.151-0.152l-0.197-0.198l0.227-0.228l0.331,0.329l0.151-0.154l-0.33-0.329l0.165-0.165
		l0.196,0.194l0.154-0.153L5.91,18.147l0.223-0.225l0.369,0.366l0.152-0.154l-0.369-0.364l0.165-0.167l0.236,0.233l0.15-0.154
		l-0.233-0.231l0.226-0.228l0.368,0.364l0.152-0.156L6.983,17.07l0.165-0.167l0.232,0.231l0.152-0.155L7.301,16.75l0.209-0.209
		l0.365,0.361l0.152-0.154l-0.365-0.361l0.166-0.165l0.23,0.228l0.152-0.152l-0.23-0.229l0.228-0.228l0.363,0.359l0.152-0.153
		L8.36,15.688l0.165-0.167l0.229,0.228l0.152-0.154l-0.229-0.226l0.479-0.482L8.61,22.502L1.048,23.077z"/>
	<path d="M7.516,21.509l0.272-3.803l-4.072,4.092L7.516,21.509z M7.158,21.151l-2.445,0.187l2.62-2.631L7.158,21.151z"/>
	<path d="M21.793,20.658c-0.589-0.35-1.355-0.155-1.707,0.434s-0.157,1.354,0.434,1.707c0.591,0.351,1.356,0.157,1.705-0.433
		C22.578,21.775,22.383,21.01,21.793,20.658z M21.671,22.035c-0.17,0.283-0.538,0.375-0.82,0.208
		c-0.284-0.17-0.377-0.537-0.209-0.82c0.168-0.282,0.537-0.377,0.821-0.208C21.746,21.383,21.84,21.752,21.671,22.035z"/>
	<path d="M21.976,20.352c0.591,0.353,1.356,0.158,1.707-0.433c0.351-0.589,0.156-1.355-0.433-1.706
		c-0.592-0.352-1.357-0.157-1.707,0.432C21.191,19.235,21.384,20.001,21.976,20.352z M22.099,18.976
		c0.169-0.284,0.536-0.377,0.819-0.208s0.377,0.537,0.208,0.819c-0.168,0.284-0.536,0.378-0.819,0.209
		C22.023,19.628,21.93,19.26,22.099,18.976z"/>
	<path d="M26.885,20.836l-1.256-0.75l-3.086,0.819l0.744,3.099l1.201,0.862l-0.688-3.21l0.006,0.002L26.885,20.836z M23.531,21.542
		c-0.09,0.151-0.285,0.201-0.436,0.111c-0.15-0.089-0.201-0.285-0.11-0.437c0.089-0.15,0.284-0.2,0.436-0.11
		C23.572,21.197,23.62,21.392,23.531,21.542z"/>
	<path d="M4.407,13.309l0.258,0.317l0.506-0.409c0.431,0.247,0.929,0.395,1.459,0.402c1.678,0.027,3.065-1.314,3.093-2.991
		C9.751,8.95,8.409,7.563,6.731,7.535s-3.064,1.313-3.094,2.993c-0.005,0.358,0.056,0.701,0.165,1.023l-0.495,0.4l0.319,0.395
		l-2.451,1.988l0.779,0.962L4.407,13.309z M6.709,8.807c0.979,0.015,1.759,0.823,1.744,1.8c-0.018,0.978-0.826,1.759-1.802,1.742
		c-0.977-0.017-1.757-0.825-1.741-1.801C4.926,9.57,5.733,8.79,6.709,8.807z"/>
	<path d="M19.722,6.884l0.049,0.009l0.273-0.101l-0.076,0.262l-0.011,0.048c-0.031,0.244,0.528,0.862,1.048,1.163
		c0.605,0.35,1.172,0.347,1.649-0.007c0.025-0.02,0.051-0.044,0.076-0.064l0.229,0.303l-0.347,0.282l0.168,0.206l0.339-0.275
		l1.724,2.274l-0.205-0.89l-1.246-1.608l0.248-0.202l-0.166-0.205L23.23,8.277l-0.262-0.339c0.181-0.242,0.297-0.541,0.339-0.886
		c0.093-0.759-0.194-1.597-0.431-1.791c-0.07-0.058-0.139-0.065-0.187-0.058l-0.207-0.005L22.6,5.024l0.029-0.085
		c0.02-0.167,0.047-0.395-3.142-2.566c-1.534-1.048-3.096-2.049-3.112-2.059L15.885,0l0.238,0.532
		C16.777,1.985,18.967,6.74,19.722,6.884z M18.068,1.832c2.098,1.396,3.947,2.708,4.197,3.069l-0.411,0.633l0.821,0.016
		c0.122,0.143,0.366,0.813,0.289,1.463c-0.031,0.246-0.109,0.456-0.222,0.635l-0.006-0.009l-3.173-3.677l-0.049,0.049l2.956,3.84
		l0.046,0.063c-0.025,0.022-0.046,0.047-0.072,0.067c-0.274,0.205-0.591,0.249-0.943,0.133c-0.603-0.2-1.114-0.81-1.194-0.985
		l0.263-0.903l-0.816,0.305c-0.356-0.198-1.367-2.035-2.399-4.176l0.711,0.088L18.068,1.832z M17.838,1.681L17.835,2.18
		l-0.601-0.071c-0.184-0.39-0.369-0.786-0.552-1.184C17.068,1.176,17.456,1.428,17.838,1.681z"/>
	<path d="M25.649,9.242l1.68-1.902l1.496-5.109h0.003l0.477-1.637l-1.924-0.561l-0.478,1.638l0.003,0.001l-1.478,5.071L25.649,9.242
		z M27.634,0.497l1.21,0.352l-0.177,0.605l-1.208-0.353L27.634,0.497z M26.006,7.236l0.402-0.367l0.182,0.538l0.635-0.343
		l-0.049,0.168l-0.958,1.084L25.74,8.18l-0.128-1.4l0.067-0.23L26.006,7.236z"/>
	<path d="M21.106,15.893c0.017-1.012-0.397-1.805-1.341-1.963c-0.725-0.121-1.323,0.211-1.564,0.372
		c0.011-0.212,0.022-0.445,0.027-0.581c0.008-0.183,0.329-0.278,0.483-0.426c0.095-0.088-0.003-0.319-0.003-0.319
		s-0.801,0.354-0.78,0.698c0.012,0.168,0.013,0.402,0.013,0.6c-0.225-0.149-0.7-0.396-1.371-0.363
		c-0.926,0.042-1.533,0.724-1.516,1.732c0.017,1.399,1.26,2.58,2.124,2.58c0.214,0,0.389-0.026,0.523-0.06l-0.017,0.101l0.16-0.081
		l0.074,0.29l0.101-0.25l0.163,0.175v-0.175l0.219,0.066l-0.052-0.157c0.141,0.049,0.348,0.094,0.626,0.094
		C19.843,18.226,21.088,17.29,21.106,15.893z M16.33,16.881c-0.35-0.447-0.243-1.084-0.243-1.084s0.233,0.59,0.474,0.955
		c0.242,0.366,0.654,0.657,0.654,0.657S16.683,17.331,16.33,16.881z"/>
	<path d="M13.101,3.842l-0.427,0.377l-0.199,0.177l-1.93,1.707l-0.199,0.177L9.928,6.647l0.373,0.422l0.248-0.219l0.17-0.15
		l1.099,1.242l1.497-0.205L12.87,9.219l0.013,0.004L12.88,9.225l1.104,1.248l-0.131,0.115l-0.248,0.218l0.372,0.422l3.175-2.806
		l-0.372-0.421l-0.467,0.413l-1.102-1.245l-1.503,0.225l0.45-1.502l-0.012-0.003l0.001-0.002l-1.101-1.246l0.428-0.377L13.101,3.842
		z M15.137,7.486l0.976,1.104l-1.93,1.707l-1.006-1.136l0.439-1.465L15.137,7.486z M13.852,5.951l-0.445,1.488L11.922,7.66
		l-1.005-1.138l1.933-1.705L13.852,5.951z"/>
	<polygon points="12.017,7.453 13.32,7.27 13.713,5.959 13.3,5.492 11.604,6.988 	"/>
	<polygon points="15.991,8.589 15.833,8.41 15.363,8.733 14.779,8.946 14.527,9.453 14.117,9.929 14.274,10.105 	"/>
	<path d="M13.44,3.203l-0.078-2.838L2.137,0.674l0.076,2.837L13.44,3.203z M12.883,0.873l0.051,1.851l-0.598,0.016l-0.025-0.878
		l-0.354,0.01l0.022,0.877L11.596,2.76L11.58,2.19L11.224,2.2l0.016,0.569l-0.527,0.015l-0.024-0.878l-0.356,0.008l0.024,0.881
		l-0.385,0.01l-0.017-0.57L9.6,2.243l0.017,0.571l-0.52,0.015L9.07,1.856L8.714,1.867L8.74,2.838L8.356,2.85l-0.02-0.664L7.98,2.196
		L8,2.859L7.472,2.872L7.445,1.903L7.09,1.912l0.025,0.97L6.733,2.894L6.715,2.23L6.357,2.239l0.02,0.664L5.889,2.917L5.863,1.944
		l-0.357,0.01l0.027,0.973l-0.385,0.01L5.13,2.274L4.774,2.283l0.018,0.663L4.265,2.961L4.238,1.989L3.882,2l0.027,0.971L3.524,2.98
		L3.506,2.318l-0.356,0.01l0.02,0.664L2.692,3.004L2.642,1.153L12.883,0.873z"/>
</g>
<g>
</g>
<g>
</g>
<g>
</g>
<g>
</g>
<g>
</g>
<g>
</g>
<g>
</g>
<g>
</g>
<g>
</g>
<g>
</g>
<g>
</g>
<g>
</g>
<g>
</g>
<g>
</g>
<g>
</g>
</svg>
