<?xml version="1.0" encoding="iso-8859-1"?>
<!-- Generator: Adobe Illustrator 16.0.0, SVG Export Plug-In . SVG Version: 6.00 Build 0)  -->
<!DOCTYPE svg PUBLIC "-//W3C//DTD SVG 1.1//EN" "http://www.w3.org/Graphics/SVG/1.1/DTD/svg11.dtd">
<svg version="1.1" id="Layer_1" xmlns="http://www.w3.org/2000/svg" xmlns:xlink="http://www.w3.org/1999/xlink" x="0px" y="0px"
	 width="30.098px" height="28.155px" viewBox="0 0 30.098 28.155" style="enable-background:new 0 0 30.098 28.155;"
	 xml:space="preserve">
<g>
	<path d="M2.035,18.936L0,28.155h28.789l-2.033-9.219H2.035z M11.553,26.884l0.415-1.878h4.855l0.414,1.878H11.553z"/>
	<g>
		<path d="M24.024,3.653c-1.45,0-2.634,1.182-2.634,2.632c0,1.452,1.184,2.633,2.634,2.633c1.451,0,2.634-1.181,2.634-2.633
			C26.658,4.835,25.476,3.653,24.024,3.653z M24.024,8.221c-1.067,0-1.935-0.867-1.935-1.935c0-1.068,0.867-1.934,1.935-1.934
			c1.069,0,1.935,0.866,1.935,1.934C25.959,7.354,25.094,8.221,24.024,8.221z"/>
		<path d="M23.917,0c-3.412,0-6.179,2.767-6.179,6.179c0,3.413,2.767,6.178,6.179,6.178s6.181-2.766,6.181-6.178
			C30.098,2.767,27.329,0,23.917,0z M24.024,9.241c-1.629,0-2.955-1.326-2.955-2.956c0-1.628,1.326-2.954,2.955-2.954
			c1.63,0,2.956,1.326,2.956,2.954C26.98,7.916,25.654,9.241,24.024,9.241z"/>
	</g>
	<path d="M26.691,12.697c-0.553,0.217-1.139,0.368-1.749,0.439v3.759H3.849V5.508h13.193c0.05-0.609,0.179-1.194,0.373-1.749H2.1
		v14.594h24.592V12.697z"/>
</g>
<g>
</g>
<g>
</g>
<g>
</g>
<g>
</g>
<g>
</g>
<g>
</g>
<g>
</g>
<g>
</g>
<g>
</g>
<g>
</g>
<g>
</g>
<g>
</g>
<g>
</g>
<g>
</g>
<g>
</g>
</svg>
