<?xml version="1.0" encoding="iso-8859-1"?>
<!-- Generator: Adobe Illustrator 16.0.0, SVG Export Plug-In . SVG Version: 6.00 Build 0)  -->
<!DOCTYPE svg PUBLIC "-//W3C//DTD SVG 1.1//EN" "http://www.w3.org/Graphics/SVG/1.1/DTD/svg11.dtd">
<svg version="1.1" id="Layer_1" xmlns="http://www.w3.org/2000/svg" xmlns:xlink="http://www.w3.org/1999/xlink" x="0px" y="0px"
	 width="30.065px" height="27.875px" viewBox="0 0 30.065 27.875" style="enable-background:new 0 0 30.065 27.875;"
	 xml:space="preserve">
<g>
	<path d="M13.176,8.77l-2.419,12.696h-0.001L0.532,22.979l13.641,4.896l12.146-1.631l3.746-15.817L13.176,8.77z M10.778,25.965
		l-3.35-1.278l1.615-0.215l3.757,1.253L10.778,25.965z M25.211,24.915l-13.513-3.821l2.171-11.206l14.496,1.703L25.211,24.915z"/>
	<path d="M2.489,13.929c0,2.423,1.972,4.393,4.392,4.393c2.423,0,4.394-1.97,4.394-4.393c0-2.421-1.971-4.393-4.394-4.393
		C4.461,9.536,2.489,11.508,2.489,13.929z M2.912,13.929c0-1.141,0.486-2.166,1.258-2.891c0.238,0.5,0.843,1.67,1.796,2.849
		c-0.231,0.221-0.449,0.435-0.654,0.643c-0.824-0.866-1.89-0.665-2.394-0.499C2.917,13.996,2.912,13.964,2.912,13.929z
		 M3.702,16.294c-0.412-0.554-0.688-1.213-0.766-1.936c0.388-0.145,1.392-0.4,2.149,0.401C4.428,15.439,3.943,16.003,3.702,16.294z
		 M5.661,17.704c-0.686-0.221-1.29-0.628-1.756-1.156c0.219-0.266,0.706-0.84,1.383-1.541C5.934,15.935,5.771,17.186,5.661,17.704z
		 M6.881,17.897c-0.313,0-0.618-0.039-0.911-0.107c0.124-0.565,0.315-1.961-0.457-3.015c0.204-0.207,0.424-0.423,0.656-0.643
		c0.084,0.1,0.173,0.198,0.262,0.297c1.209,1.328,2.355,2.314,2.806,2.688C8.577,17.606,7.765,17.897,6.881,17.897z M10.852,13.929
		c0,1.191-0.529,2.259-1.362,2.987c-0.402-0.332-1.58-1.333-2.825-2.7c-0.091-0.101-0.179-0.201-0.264-0.301
		c0.064-0.061,0.128-0.119,0.193-0.18c0.242-0.221,0.485-0.423,0.729-0.611c0.604,0.621,1.577,0.773,2.382,0.773
		c0.477,0,0.892-0.053,1.141-0.093C10.846,13.845,10.852,13.888,10.852,13.929z M10.002,11.484c0.443,0.563,0.738,1.25,0.823,2
		c-0.587,0.095-2.375,0.299-3.247-0.555C8.653,12.136,9.643,11.649,10.002,11.484z M9.789,11.233
		c-0.429,0.203-1.385,0.69-2.414,1.451c-0.629-0.955,0.307-2.184,0.631-2.56C8.698,10.329,9.309,10.719,9.789,11.233z M7.12,12.88
		c-0.246,0.193-0.495,0.399-0.741,0.622c-0.061,0.056-0.121,0.11-0.181,0.167c-0.983-1.22-1.583-2.425-1.778-2.848
		C5.097,10.284,5.951,9.96,6.881,9.96c0.269,0,0.528,0.027,0.782,0.078C7.233,10.565,6.396,11.822,7.12,12.88z"/>
	<path d="M16.875,8.083c0.954-0.64,1.21-1.938,0.568-2.892c-0.641-0.954-1.938-1.208-2.891-0.567c-0.954,0.639-1.21,1.937-0.57,2.89
		C14.623,8.469,15.921,8.724,16.875,8.083z M15.085,8.126c-0.308-0.109-0.589-0.297-0.812-0.561
		c0.114-0.159,0.441-0.525,0.953-0.411C15.146,7.597,15.104,7.946,15.085,8.126z M15.232,8.171c0.016-0.163,0.058-0.518,0.138-0.972
		c0.499,0.195,0.766,0.731,0.86,0.965C15.9,8.258,15.557,8.258,15.232,8.171z M16.763,7.917C16.64,8,16.508,8.064,16.375,8.114
		c-0.102-0.254-0.394-0.855-0.977-1.066c0.026-0.135,0.055-0.277,0.088-0.427c0.06,0.017,0.12,0.033,0.181,0.048
		c0.827,0.204,1.541,0.289,1.816,0.317C17.354,7.354,17.111,7.684,16.763,7.917z M17.241,5.255c0.012,0.017,0.024,0.032,0.036,0.049
		c0.314,0.469,0.388,1.029,0.252,1.536c-0.245-0.024-0.974-0.106-1.826-0.317c-0.062-0.016-0.123-0.031-0.184-0.047
		c0.011-0.042,0.02-0.081,0.029-0.124c0.036-0.149,0.08-0.294,0.125-0.433c0.402,0.085,0.826-0.112,1.143-0.326
		C17.004,5.468,17.154,5.338,17.241,5.255z M17.149,5.135c-0.206,0.193-0.856,0.747-1.425,0.642
		c0.212-0.599,0.473-1.051,0.571-1.212C16.621,4.67,16.918,4.861,17.149,5.135z M15.15,4.558c0.326-0.103,0.671-0.111,0.996-0.035
		c-0.117,0.193-0.363,0.637-0.568,1.211C15.078,5.521,15.123,4.79,15.15,4.558z M14.664,4.79c0.104-0.07,0.215-0.131,0.328-0.176
		c-0.029,0.321-0.027,1.037,0.538,1.262c-0.047,0.141-0.091,0.288-0.129,0.441c-0.009,0.038-0.018,0.076-0.026,0.114
		c-0.709-0.221-1.265-0.538-1.453-0.651C14.047,5.389,14.298,5.036,14.664,4.79z M13.88,5.931c0.226,0.135,0.774,0.436,1.46,0.647
		c-0.031,0.147-0.062,0.291-0.087,0.427c-0.553-0.124-0.92,0.236-1.074,0.437c-0.009-0.014-0.02-0.026-0.029-0.038
		C13.849,6.953,13.769,6.42,13.88,5.931z"/>
	<path d="M12.049,3.161c0.872,0,1.581-0.709,1.581-1.581c0-0.871-0.709-1.58-1.581-1.58s-1.581,0.709-1.581,1.58
		C10.468,2.452,11.177,3.161,12.049,3.161z M11.609,2.939c-0.248-0.08-0.463-0.227-0.632-0.416c0.078-0.097,0.255-0.304,0.498-0.555
		C11.708,2.304,11.648,2.753,11.609,2.939z M12.049,3.009c-0.113,0-0.223-0.014-0.329-0.04c0.045-0.203,0.114-0.704-0.163-1.083
		c0.073-0.076,0.152-0.152,0.235-0.232c0.029,0.036,0.063,0.072,0.093,0.107c0.437,0.478,0.85,0.833,1.012,0.968
		C12.658,2.904,12.366,3.009,12.049,3.009z M13.477,1.58c0,0.429-0.19,0.813-0.489,1.074c-0.145-0.118-0.57-0.479-1.017-0.971
		c-0.033-0.037-0.064-0.072-0.095-0.108c0.022-0.021,0.045-0.043,0.069-0.065c0.087-0.078,0.174-0.151,0.262-0.219
		c0.218,0.223,0.568,0.279,0.857,0.279c0.173,0,0.32-0.021,0.41-0.034C13.476,1.551,13.477,1.566,13.477,1.58z M13.172,0.701
		c0.16,0.203,0.267,0.449,0.296,0.719c-0.212,0.035-0.854,0.108-1.168-0.199C12.687,0.935,13.042,0.759,13.172,0.701z M13.095,0.61
		c-0.155,0.072-0.498,0.249-0.869,0.523C12,0.788,12.336,0.347,12.453,0.212C12.703,0.285,12.923,0.425,13.095,0.61z M12.049,0.151
		c0.097,0,0.189,0.01,0.28,0.029c-0.152,0.189-0.455,0.642-0.194,1.022c-0.088,0.069-0.179,0.144-0.267,0.224
		c-0.021,0.02-0.044,0.04-0.065,0.06c-0.354-0.438-0.57-0.872-0.641-1.024C11.407,0.269,11.714,0.151,12.049,0.151z M10.621,1.58
		c0-0.409,0.174-0.779,0.451-1.039c0.085,0.18,0.304,0.6,0.646,1.025c-0.082,0.078-0.161,0.155-0.235,0.231
		c-0.297-0.313-0.68-0.241-0.861-0.182C10.622,1.604,10.621,1.593,10.621,1.58z M10.629,1.735c0.14-0.053,0.501-0.145,0.773,0.145
		c-0.236,0.244-0.411,0.447-0.498,0.551C10.755,2.232,10.656,1.996,10.629,1.735z"/>
	<path d="M2.605,9.642c0.663-0.564,0.744-1.564,0.18-2.229C2.22,6.748,1.221,6.669,0.557,7.234
		c-0.665,0.564-0.745,1.564-0.181,2.228C0.941,10.125,1.941,10.206,2.605,9.642z M2.507,9.526C2.18,9.803,1.764,9.906,1.371,9.849
		C1.368,9.66,1.367,9.104,1.451,8.444c0.007-0.049,0.015-0.096,0.021-0.143c0.032,0.004,0.063,0.006,0.096,0.011
		C1.683,8.327,1.796,8.348,1.903,8.37C1.875,8.681,2.061,8.983,2.249,9.203c0.11,0.13,0.222,0.231,0.29,0.291
		C2.528,9.504,2.518,9.517,2.507,9.526z M2.623,9.414C2.461,9.276,1.986,8.832,2.018,8.396C2.485,8.504,2.85,8.662,2.979,8.723
		C2.928,8.976,2.809,9.216,2.623,9.414z M2.998,8.604c-0.156-0.07-0.513-0.219-0.962-0.322c0.116-0.396,0.67-0.425,0.85-0.425
		C2.992,8.096,3.027,8.354,2.998,8.604z M2.668,7.512c0.063,0.072,0.117,0.151,0.161,0.23c-0.245,0.007-0.784,0.07-0.905,0.517
		C1.814,8.235,1.699,8.215,1.58,8.2C1.552,8.195,1.522,8.191,1.493,8.188c0.104-0.553,0.294-0.999,0.364-1.15
		C2.164,7.099,2.452,7.257,2.668,7.512z M0.655,7.349C0.968,7.083,1.362,6.979,1.74,7.02C1.659,7.202,1.479,7.639,1.379,8.177
		c-0.114-0.012-0.225-0.021-0.328-0.03C1.096,7.72,0.792,7.474,0.628,7.375C0.638,7.366,0.645,7.357,0.655,7.349z M0.542,7.456
		C0.674,7.528,0.978,7.744,0.935,8.14C0.596,8.117,0.327,8.116,0.19,8.117C0.246,7.875,0.363,7.646,0.542,7.456z M0.17,8.232
		c0.122-0.003,0.395-0.003,0.743,0.02C0.81,8.646,0.429,8.893,0.262,8.983C0.162,8.742,0.133,8.483,0.17,8.232z M1.029,8.26
		c0.105,0.008,0.214,0.018,0.329,0.03C1.352,8.335,1.344,8.383,1.338,8.431C1.256,9.07,1.254,9.616,1.256,9.827
		C0.969,9.759,0.699,9.605,0.494,9.362C0.419,9.276,0.36,9.184,0.31,9.088C0.494,8.989,0.92,8.717,1.029,8.26z"/>
	<path d="M20.813,13.527c-1.578,0.673-2.316,2.506-1.643,4.086c0.672,1.579,2.506,2.317,4.087,1.644
		c1.578-0.674,2.316-2.506,1.643-4.086C24.226,13.592,22.394,12.854,20.813,13.527z M24.622,15.288
		c0.074,0.176,0.129,0.353,0.167,0.531c-0.464-0.132-1.517-0.329-2.004,0.437c-0.195-0.108-0.397-0.213-0.612-0.31
		c-0.052-0.025-0.106-0.049-0.159-0.073c0.522-0.979,1.142-1.706,1.362-1.95C23.916,14.215,24.363,14.682,24.622,15.288z
		 M20.932,13.804c0.742-0.317,1.548-0.285,2.234,0.016c-0.261,0.295-0.854,1.015-1.357,1.964c-0.209-0.089-0.409-0.174-0.603-0.248
		c0.335-0.778-0.092-1.418-0.339-1.7C20.888,13.825,20.908,13.813,20.932,13.804z M20.658,13.938
		c0.201,0.213,0.646,0.796,0.336,1.515c-0.627-0.242-1.129-0.4-1.386-0.478C19.853,14.552,20.208,14.189,20.658,13.938z
		 M19.5,15.179c0.233,0.068,0.743,0.227,1.389,0.474c-0.427,0.679-1.288,0.919-1.656,0.993C19.187,16.136,19.284,15.63,19.5,15.179z
		 M19.445,17.494c-0.087-0.204-0.145-0.414-0.182-0.625c0.402-0.076,1.366-0.338,1.838-1.135c0.191,0.077,0.395,0.16,0.602,0.249
		c-0.04,0.082-0.082,0.167-0.12,0.253c-0.53,1.158-0.855,2.18-0.975,2.577C20.107,18.52,19.69,18.071,19.445,17.494z M23.138,18.979
		c-0.776,0.333-1.62,0.285-2.326-0.057c0.104-0.355,0.43-1.4,0.976-2.592c0.039-0.089,0.08-0.173,0.122-0.258
		c0.056,0.026,0.114,0.051,0.171,0.078c0.211,0.096,0.411,0.198,0.602,0.304c-0.237,0.568-0.065,1.244,0.158,1.77
		c0.131,0.311,0.281,0.565,0.378,0.718C23.19,18.954,23.165,18.971,23.138,18.979z M23.42,18.841
		c-0.226-0.356-0.856-1.467-0.541-2.272c0.816,0.48,1.409,0.991,1.618,1.18C24.251,18.193,23.887,18.576,23.42,18.841z
		 M24.599,17.538c-0.251-0.224-0.833-0.71-1.618-1.17c0.45-0.676,1.512-0.405,1.848-0.302
		C24.886,16.576,24.803,17.083,24.599,17.538z"/>
	<path d="M21.536,7.146c0.38,0.252,0.798,0.403,1.221,0.468c0.46,0.069,0.929,0.034,1.367-0.105c0.642-0.201,1.221-0.612,1.62-1.216
		c0.03-0.046,0.054-0.091,0.081-0.139c0.29-0.49,0.429-1.033,0.422-1.571c-0.009-0.736-0.287-1.459-0.8-2.019
		c-0.163-0.176-0.347-0.339-0.558-0.479c-0.271-0.18-0.563-0.309-0.863-0.392c-0.72-0.2-1.485-0.123-2.148,0.201
		c-0.365,0.177-0.696,0.429-0.973,0.751c-0.078,0.094-0.153,0.189-0.224,0.294c-0.371,0.559-0.527,1.197-0.497,1.822
		c0.031,0.619,0.249,1.222,0.636,1.72C21.017,6.733,21.255,6.96,21.536,7.146z M21.329,4.223l0.075-1.245l-0.252-0.167
		c0.283-0.324,0.631-0.572,1.012-0.728l0.727,0.481l1.117-0.556l0.002-0.016c0.248,0.074,0.491,0.186,0.719,0.336
		c0.165,0.109,0.314,0.235,0.448,0.371l-0.07,0.035l-0.077,1.247l0.926,0.613c0.005,0.478-0.118,0.96-0.374,1.397l-0.27-0.178
		l-1.117,0.557l-0.051,0.82c-0.436,0.158-0.906,0.204-1.368,0.131l0.039-0.626l-1.042-0.69l-0.688,0.342
		c-0.394-0.484-0.605-1.086-0.614-1.698L21.329,4.223z"/>
	<polygon points="24.274,5.274 24.351,4.028 23.31,3.341 22.193,3.896 22.116,5.143 23.157,5.832 	"/>
	<path d="M5.763,7.966c0.303,0.103,0.626,0.16,0.965,0.16c0.454,0,0.887-0.104,1.275-0.286c0.423-0.195,0.792-0.484,1.082-0.842
		c0.423-0.522,0.678-1.186,0.678-1.91c0-0.053-0.005-0.104-0.007-0.159c-0.031-0.569-0.215-1.1-0.519-1.544
		C8.824,2.776,8.192,2.329,7.458,2.146c-0.234-0.057-0.479-0.093-0.73-0.093c-0.326,0-0.641,0.054-0.936,0.15
		C5.08,2.433,4.484,2.922,4.111,3.558C3.904,3.906,3.767,4.301,3.716,4.723c-0.015,0.12-0.023,0.241-0.023,0.365
		c0,0.674,0.222,1.293,0.592,1.796C4.651,7.382,5.165,7.765,5.763,7.966z M4.453,3.558h0.872l0.624-1.082L5.941,2.462
		c0.25-0.074,0.513-0.116,0.786-0.116c0.198,0,0.391,0.023,0.578,0.063L7.268,2.476l0.623,1.082h1.111
		C9.27,3.953,9.433,4.425,9.463,4.929H9.139L8.515,6.011l0.412,0.711c-0.277,0.373-0.645,0.672-1.07,0.865L7.543,7.044H6.295
		L5.912,7.708c-0.598-0.186-1.106-0.57-1.451-1.076l0.479-0.829l-0.624-1.08H4.013C4.068,4.296,4.223,3.897,4.453,3.558z"/>
	<polygon points="7.352,6.135 7.975,5.053 7.352,3.972 6.104,3.972 5.479,5.053 6.104,6.135 	"/>
	<path d="M17.452,13.992c0.216-0.265,0.345-0.604,0.345-0.973c0-0.028-0.003-0.054-0.004-0.081c-0.015-0.29-0.108-0.561-0.264-0.787
		c-0.211-0.311-0.533-0.538-0.907-0.631c-0.119-0.031-0.243-0.048-0.371-0.048c-0.167,0-0.326,0.026-0.478,0.076
		c-0.362,0.117-0.666,0.366-0.857,0.69c-0.104,0.177-0.176,0.378-0.201,0.593c-0.008,0.062-0.012,0.123-0.012,0.188
		c0,0.342,0.112,0.658,0.302,0.915c0.188,0.254,0.448,0.448,0.754,0.551c0.154,0.052,0.318,0.082,0.492,0.082
		c0.231,0,0.45-0.054,0.649-0.146C17.114,14.322,17.304,14.175,17.452,13.992z M16.666,14.016h-0.638l-0.194,0.339
		c-0.304-0.095-0.564-0.291-0.739-0.548l0.243-0.424l-0.316-0.551h-0.155c0.03-0.217,0.106-0.419,0.225-0.593h0.445l0.317-0.553
		l-0.003-0.005c0.126-0.04,0.261-0.061,0.4-0.061c0.101,0,0.198,0.013,0.294,0.032l-0.02,0.033l0.317,0.553h0.567
		c0.136,0.201,0.219,0.441,0.233,0.699h-0.164L17.16,13.49l0.211,0.361c-0.142,0.189-0.329,0.343-0.546,0.441L16.666,14.016z"/>
	<polygon points="15.932,12.451 15.613,13.001 15.932,13.553 16.567,13.553 16.888,13.001 16.567,12.451 	"/>
	<path d="M18.729,19.803c-0.108-0.182-0.26-0.324-0.436-0.419c-0.241-0.129-0.524-0.167-0.797-0.102
		c-0.086,0.022-0.174,0.053-0.256,0.096c-0.106,0.056-0.2,0.128-0.281,0.209c-0.193,0.197-0.305,0.46-0.318,0.733
		c-0.009,0.151,0.014,0.304,0.069,0.45c0.016,0.042,0.033,0.084,0.055,0.126c0.116,0.22,0.295,0.384,0.503,0.486
		c0.205,0.101,0.44,0.139,0.672,0.102c0.116-0.019,0.231-0.055,0.344-0.113c0.149-0.078,0.272-0.186,0.368-0.313
		c0.106-0.135,0.178-0.295,0.212-0.462c0.05-0.244,0.019-0.506-0.104-0.743C18.749,19.836,18.738,19.82,18.729,19.803z
		 M18.562,21.001l-0.196-0.124l-0.411,0.215l-0.011,0.282c-0.227,0.042-0.461,0.001-0.66-0.104l0.014-0.354l-0.391-0.247l-0.1,0.051
		c-0.053-0.149-0.071-0.307-0.054-0.457l0.285-0.151l0.02-0.461l-0.004-0.003c0.069-0.068,0.148-0.127,0.237-0.174
		c0.064-0.033,0.133-0.059,0.201-0.078l-0.002,0.028l0.392,0.249l0.364-0.191c0.155,0.085,0.29,0.211,0.386,0.371l-0.106,0.056
		l-0.02,0.463l0.258,0.162C18.736,20.703,18.668,20.865,18.562,21.001z"/>
	<polygon points="17.365,20.114 17.345,20.575 17.736,20.825 18.146,20.61 18.164,20.148 17.774,19.9 	"/>
	<path d="M0.898,20.188c0.186,0.146,0.403,0.249,0.634,0.298c0.333,0.071,0.693,0.034,1.023-0.134
		c0.023-0.013,0.044-0.028,0.07-0.041c0.25-0.144,0.449-0.35,0.581-0.592c0.182-0.327,0.238-0.719,0.152-1.094
		c-0.029-0.12-0.069-0.239-0.128-0.353c-0.074-0.15-0.171-0.278-0.283-0.392c-0.27-0.27-0.629-0.427-1.004-0.451
		c-0.205-0.012-0.416,0.017-0.619,0.09c-0.059,0.021-0.117,0.045-0.173,0.074c-0.307,0.155-0.536,0.399-0.678,0.685
		c-0.143,0.281-0.197,0.604-0.151,0.922c0.023,0.161,0.072,0.321,0.151,0.474C0.579,19.882,0.725,20.054,0.898,20.188z
		 M0.628,18.301l0.488,0.024l0.347-0.533l-0.069-0.136c0.206-0.073,0.421-0.096,0.631-0.069l0.201,0.396l0.637,0.034l0.003-0.007
		c0.092,0.096,0.171,0.207,0.233,0.328c0.046,0.09,0.081,0.184,0.106,0.279l-0.041-0.002l-0.347,0.532l0.257,0.506
		c-0.118,0.214-0.294,0.395-0.517,0.524l-0.076-0.146l-0.635-0.034l-0.228,0.35c-0.232-0.039-0.453-0.136-0.641-0.284l0.175-0.269
		l-0.288-0.566l-0.39-0.021C0.42,18.894,0.479,18.574,0.628,18.301z"/>
	<polygon points="2.105,19.542 2.487,19.03 2.235,18.445 1.604,18.371 1.225,18.881 1.474,19.466 	"/>
</g>
<g>
</g>
<g>
</g>
<g>
</g>
<g>
</g>
<g>
</g>
<g>
</g>
<g>
</g>
<g>
</g>
<g>
</g>
<g>
</g>
<g>
</g>
<g>
</g>
<g>
</g>
<g>
</g>
<g>
</g>
</svg>
