<?xml version="1.0" encoding="iso-8859-1"?>
<!-- Generator: Adobe Illustrator 16.0.0, SVG Export Plug-In . SVG Version: 6.00 Build 0)  -->
<!DOCTYPE svg PUBLIC "-//W3C//DTD SVG 1.1//EN" "http://www.w3.org/Graphics/SVG/1.1/DTD/svg11.dtd">
<svg version="1.1" id="Layer_1" xmlns="http://www.w3.org/2000/svg" xmlns:xlink="http://www.w3.org/1999/xlink" x="0px" y="0px"
	 width="29.652px" height="29.263px" viewBox="0 0 29.652 29.263" style="enable-background:new 0 0 29.652 29.263;"
	 xml:space="preserve">
<g>
	<path d="M10.226,22.853L10.226,22.853L0,24.366l13.642,4.896l12.146-1.632l3.745-15.817l-16.888-1.656L10.226,22.853z M12.31,16.58
		c0.262-0.719,0.769-1.352,1.497-1.735c0.391-0.207,0.806-0.323,1.221-0.357l-0.16,0.085l0.006,0.146l-0.224,0.118l-0.132,0.213
		l0.033,0.099l0.072-0.021l0.109-0.197l0.151-0.105l0.033,0.063l-0.151,0.114l-0.146,0.276l-0.095-0.001l-0.1,0.177l0.069,0.278
		l0.039-0.02l0.038,0.104l-0.074,0.026l0.025,0.087l0.031,0.136l-0.104,0.27l0.098,0.226l-0.165,0.112l-0.181-0.093l-0.161,0.076
		l-0.106,0.03l-0.154,0.354l-0.082,0.062c0,0,0.02,0.09,0.024,0.099S13.69,17.44,13.69,17.44l-0.482,0.255l0.015,0.067l-0.243,0.077
		L12.9,18.009l-0.229,0.098l-0.159,0.25l-0.059,0.244l0.085,0.169l0.063-0.012l0.038-0.179l0.056-0.02l0.076-0.011l0.066-0.029
		l-0.043-0.086l0.031-0.07l0.104,0.036l0.056-0.018l-0.019-0.089l0.048-0.021l0.076,0.102l0.169,0.125l0.133,0.001l0.317,0.058
		l0.154-0.135l0.122,0.006l0.079,0.165l0.144,0.063l0.358-0.143l0.217,0.038l0.109-0.03l-0.023-0.13l0.082-0.134l-0.129-0.249
		l-0.028-0.236l0.135-0.084l0.081-0.125l-0.093-0.18l0.107-0.189l-0.004-0.114l-0.052,0.021l-0.098-0.161l0.053-0.105l-0.056-0.192
		l-0.241-0.056l-0.079-0.245l0.244-0.149l-0.059-0.178l0.158-0.001l0.063-0.058l-0.258-0.138l-0.056-0.145l0.08-0.104l0.125-0.029
		l0.178,0.001l0.178,0.128l0.176,0.331l-0.103,0.052l0.007,0.15l0.169-0.103l0.132,0.04l0.207,0.114l0.086-0.03l0.271,0.079
		l0.199,0.13l0.005-0.024l0.183,0.063l0.012,0.054l-0.015,0.035l0.077,0.019l0.012,0.01l-0.02-0.055l-0.012-0.063l0.053-0.027
		l0.036,0.016l0.032,0.063l0.002,0.035l-0.034,0.05l0.02,0.028l0.004-0.003l0.002,0.009l0.06,0.081l0.047-0.011l0.015,0.055
		l-0.046,0.025l-0.056-0.029l-0.046,0.033l0.033,0.182c0,0,0,0-0.001,0l0.022,0.036l0.069-0.034l-0.011-0.154l0.031-0.023
		l0.088,0.084l0.102-0.046l0.008-0.143l0.163-0.095l-0.15-0.11l-0.028-0.054l0.135-0.052l-0.06-0.226l-0.106-0.051l-0.191,0.102
		l-0.126-0.124l-0.156,0.006l-0.045-0.06l0.159-0.085l-0.056-0.149l0.011-0.095l0.088-0.083l0.279,0.174l0.102,0.104l-0.075,0.055
		L17,16.021l0.045-0.017l0.047,0.065l0.017-0.006l-0.005-0.037l0.041-0.03l0.053,0.084l0.084,0.022l0.006,0.002l-0.002,0.001
		l0.026,0.007l0.121,0.173l-0.025,0.118l-0.228-0.154l0.08,0.308l0.109-0.013l0.063,0.118l0.102,0.002l-0.023-0.098l0.101-0.053
		l-0.024-0.325l-0.116-0.171l-0.109-0.075l-0.125,0.076l-0.041-0.115l0.063-0.058l0.147,0.056l-0.089-0.193l-0.046-0.044
		l-0.075,0.01l0.026,0.075l-0.078,0.024l-0.071-0.116l-0.056,0.006l-0.096-0.171c0,0,0.096-0.056,0.092-0.063
		c-0.004-0.008,0.074,0.134,0.074,0.134l0.154,0.05l-0.001-0.071l-0.111-0.036l-0.06-0.128l0.063-0.129L17.05,15.09l-0.211-0.102
		l0.081,0.154l-0.038,0.036l-0.059-0.02l0.085,0.171l-0.047,0.057l-0.095-0.193l0.042-0.033l-0.037-0.134l0.001-0.082l-0.075-0.141
		c0.584,0.286,1.088,0.752,1.414,1.37c0.376,0.712,0.451,1.505,0.277,2.23l-0.076-0.002l-0.121-0.102l-0.088-0.022l-0.063,0.048
		l0.026,0.072l-0.079,0.092l0.108,0.094l-0.127,0.089l-0.019-0.034l-0.036-0.102l-0.072-0.098l-0.198-0.025l-0.099-0.133
		l-0.137,0.045l0.02,0.068l-0.092,0.025l-0.047-0.16l-0.098-0.119l-0.088,0.012l-0.145,0.105l0.006,0.097l0.07,0.131l0.053,0.084
		l0.084-0.011l0.253,0.044l0.029,0.1l0.129,0.046L17.526,18.8l-0.03,0.298l-0.05-0.009l-0.048-0.102l-0.033,0.068l0.018,0.067
		l0.067,0.056l0.085-0.047l0.033,0.022l0.015-0.038l0.003-0.19l0.089-0.097l0.064,0.123l-0.019,0.058l-0.034,0.154l-0.107,0.062
		l-0.059,0.169l0.18-0.043l0.081,0.054l-0.122,0.083l-0.042,0.116l0.08,0.146c-0.058,0.067-0.118,0.132-0.183,0.194l-0.023-0.008
		l-0.12-0.225l0.031-0.191l-0.089-0.136l-0.089,0.046L17.2,19.386l0.01-0.068l-0.069-0.283l0.162-0.085l-0.191-0.303l-0.104-0.071
		l-0.067-0.125l-0.026-0.064l-0.165-0.107l-0.158,0.083l-0.389-0.192l-0.082,0.076l0.032,0.064l-0.099,0.03l-0.041-0.034
		l-0.24,0.123l-0.164,0.431l0.062,0.117l0.022-0.003l0.111,0.211l0.089,0.032l0.063,0.118l-0.032,0.101l0.076,0.188l-0.248,0.102
		l-0.246,0.383h-0.253l-0.091,0.057l-0.037,0.124l-0.226,0.119l-0.087,0.185l-0.188,0.099l0.05,0.093
		c-0.909-0.181-1.73-0.754-2.195-1.634c-0.271-0.514-0.373-1.068-0.352-1.612L12.31,16.58z M10.246,27.352l-3.348-1.278l1.614-0.214
		l3.756,1.254L10.246,27.352z M27.834,12.978L24.68,26.303L11.167,22.48l0.771-3.975c0.065,0.264,0.154,0.525,0.287,0.776
		c0.629,1.19,1.854,1.864,3.118,1.849c0.269-0.004,0.54-0.039,0.808-0.106c0.067-0.016,0.136-0.036,0.203-0.059
		c0.188-0.061,0.378-0.138,0.561-0.235c0.011-0.005,0.021-0.011,0.032-0.017c0.089-0.049,0.175-0.101,0.259-0.154
		c0.278-0.184,0.521-0.402,0.729-0.646l0.002,0.002l0.046-0.035l-0.002-0.021c0.257-0.313,0.452-0.669,0.586-1.044
		c0.008-0.025,0.017-0.051,0.024-0.074c0.023-0.071,0.045-0.143,0.063-0.214c0.209-0.807,0.129-1.693-0.289-2.486
		c-0.423-0.802-1.117-1.367-1.911-1.649c-0.183-0.065-0.374-0.115-0.568-0.147c-0.73-0.127-1.507-0.024-2.21,0.348
		c-0.488,0.257-0.878,0.622-1.181,1.043l0.845-4.36L27.834,12.978z"/>
	<polygon points="8.351,1.725 8.358,1.783 8.271,1.801 8.26,1.924 8.364,1.924 8.5,1.909 8.572,1.824 8.496,1.797 8.455,1.748 
		8.394,1.648 8.364,1.506 8.247,1.531 8.214,1.58 8.214,1.637 8.271,1.677 	"/>
	<polygon points="8.251,1.772 8.258,1.696 8.188,1.667 8.093,1.688 8.022,1.803 8.022,1.876 8.104,1.876 	"/>
	<path d="M6.283,2.099L6.26,2.152H6.159v0.055h0.024c0,0,0.001,0.01,0.004,0.024L6.25,2.227l0.038-0.023L6.3,2.152l0.049-0.004
		l0.021-0.042L6.322,2.098L6.283,2.099z"/>
	<polygon points="6.02,2.195 6.015,2.245 6.089,2.24 6.097,2.188 6.054,2.152 	"/>
	<polygon points="17.646,18.133 17.545,18.177 17.587,18.258 17.655,18.361 17.752,18.383 17.743,18.311 17.765,18.258 
		17.817,18.167 17.917,18.085 17.85,18.002 17.797,17.997 17.752,18.021 17.745,18.081 17.738,18.165 17.696,18.195 	"/>
	<polygon points="17.66,18.107 17.725,18.079 17.718,18.014 17.66,17.946 17.541,17.938 17.483,17.969 17.517,18.033 	"/>
	<path d="M16.434,16.664l0.03,0.048l0.035,0.02l0.043-0.012l0.024,0.038l0.041-0.002l-0.012-0.041l-0.018-0.031l-0.052,0.006
		l-0.043-0.081l-0.043,0.023l0.012,0.019C16.452,16.65,16.444,16.656,16.434,16.664z"/>
	<polygon points="16.431,16.574 16.44,16.525 16.393,16.516 16.351,16.534 16.386,16.59 	"/>
	<path d="M1.302,19.413c0.002,0.001,0.003,0.001,0.003,0.001c0.002,0.002,0.003,0.003,0.004,0.005
		c0.764,0.632,1.737,0.851,2.645,0.683c0.084-0.017,0.166-0.035,0.248-0.058c0.62-0.167,1.198-0.521,1.638-1.054
		c0.441-0.531,0.681-1.162,0.729-1.805c0.007-0.085,0.01-0.169,0.01-0.253c-0.003-0.924-0.399-1.837-1.164-2.472
		c0,0-0.001-0.002-0.003-0.002c0,0-0.001-0.001-0.003-0.002c-0.002-0.003-0.005-0.005-0.008-0.007
		c-0.763-0.624-1.729-0.838-2.63-0.671c-0.083,0.015-0.165,0.034-0.249,0.057c-0.62,0.167-1.197,0.52-1.638,1.051
		c-0.439,0.532-0.679,1.165-0.729,1.807c-0.006,0.084-0.009,0.17-0.009,0.254c0.003,0.916,0.394,1.825,1.149,2.458
		C1.297,19.408,1.3,19.411,1.302,19.413z M1.586,19.289l1.036-1.25c0.342,0.299,0.629,0.623,0.849,0.95
		C2.762,19.436,2.052,19.568,1.586,19.289z M3.48,17.003l0.656-0.791c0.376,0.296,0.77,0.528,1.158,0.69
		c-0.164,0.352-0.387,0.71-0.666,1.051L3.48,17.003z M4.455,18.154c-0.243,0.271-0.505,0.502-0.77,0.693
		c-0.232-0.353-0.533-0.697-0.896-1.012l0.522-0.63L4.455,18.154z M3.276,16.834l-1.159-0.962c0.283-0.339,0.596-0.625,0.912-0.853
		c0.234,0.356,0.537,0.707,0.904,1.022L3.276,16.834z M3.108,17.037l-0.522,0.631c-0.38-0.3-0.779-0.535-1.173-0.697
		c0.138-0.298,0.318-0.6,0.539-0.89L3.108,17.037z M2.277,19.686c0.414-0.028,0.875-0.193,1.331-0.475
		c0.123,0.212,0.218,0.427,0.28,0.632C3.354,19.939,2.795,19.891,2.277,19.686z M4.138,19.786c-0.07-0.233-0.176-0.476-0.315-0.718
		c0.29-0.205,0.573-0.454,0.837-0.745L5.476,19C5.099,19.388,4.634,19.651,4.138,19.786z M5.652,18.801l-0.819-0.678
		c0.298-0.364,0.533-0.747,0.705-1.127c0.263,0.093,0.521,0.151,0.765,0.177C6.258,17.75,6.044,18.32,5.652,18.801z M5.858,15.363
		c0.296,0.47,0.448,1.01,0.453,1.555c-0.213-0.024-0.44-0.078-0.674-0.158C5.829,16.259,5.906,15.774,5.858,15.363z M5.396,16.664
		c-0.363-0.155-0.735-0.375-1.092-0.656l1.035-1.249C5.7,15.163,5.7,15.885,5.396,16.664z M5.138,14.587l-1.037,1.252
		c-0.347-0.302-0.635-0.631-0.856-0.962C3.958,14.43,4.673,14.299,5.138,14.587z M4.423,14.183
		c-0.409,0.031-0.864,0.195-1.314,0.474c-0.121-0.209-0.214-0.418-0.276-0.618C3.36,13.941,3.91,13.987,4.423,14.183z M2.586,14.094
		c0.067,0.229,0.172,0.468,0.307,0.704c-0.343,0.241-0.676,0.544-0.979,0.906l-0.809-0.669C1.505,14.562,2.025,14.245,2.586,14.094z
		 M0.943,15.244l0.807,0.668c-0.24,0.315-0.433,0.643-0.58,0.965c-0.259-0.088-0.511-0.146-0.749-0.171
		C0.459,16.196,0.631,15.689,0.943,15.244z M0.852,18.495c-0.289-0.466-0.436-0.997-0.441-1.533
		c0.209,0.022,0.433,0.075,0.661,0.153C0.883,17.609,0.805,18.088,0.852,18.495z M1.313,17.209c0.367,0.155,0.744,0.379,1.105,0.662
		l-1.036,1.252C1.012,18.721,1.006,17.995,1.313,17.209z"/>
	<path d="M13.142,8.577C13.37,9.009,13.729,9.374,14.2,9.61c0.468,0.235,0.979,0.303,1.46,0.23c0.063-0.011,0.127-0.022,0.19-0.037
		c0.677-0.16,1.283-0.604,1.623-1.271c0.001-0.004,0.001-0.006,0.002-0.008s0.001-0.003,0.003-0.003l0.001-0.004
		c0.337-0.673,0.333-1.432,0.052-2.072c-0.024-0.06-0.053-0.118-0.084-0.174c-0.229-0.431-0.59-0.798-1.059-1.033
		c-0.47-0.234-0.979-0.303-1.461-0.229c-0.064,0.01-0.128,0.021-0.19,0.036c-0.682,0.159-1.291,0.611-1.629,1.284v0.003
		c-0.001,0-0.001,0.001-0.003,0.002c0,0.002-0.002,0.005-0.002,0.008c-0.333,0.672-0.326,1.423-0.049,2.062
		C13.081,8.463,13.109,8.52,13.142,8.577z M13.321,8.486c0.158-0.089,0.315-0.207,0.467-0.349c0.237,0.213,0.52,0.407,0.839,0.571
		l-0.356,0.712C13.851,9.206,13.528,8.875,13.321,8.486z M13.93,7.998c0.223-0.232,0.43-0.517,0.603-0.844l0.697,0.352l-0.512,1.022
		C14.417,8.376,14.152,8.195,13.93,7.998z M14.454,9.504l0.355-0.71c0.274,0.123,0.549,0.21,0.813,0.263
		c-0.021,0.207-0.021,0.402,0.002,0.585C15.239,9.699,14.835,9.658,14.454,9.504z M15.65,8.86c-0.244-0.051-0.497-0.132-0.751-0.247
		l0.51-1.019l0.556,0.28C15.81,8.207,15.704,8.542,15.65,8.86z M15.501,7.416l0.504-1.008c0.243,0.134,0.458,0.287,0.645,0.449
		c-0.22,0.233-0.424,0.514-0.594,0.836L15.501,7.416z M15.814,9.604c-0.019-0.159-0.018-0.333,0.001-0.515
		c0.398,0.055,0.766,0.03,1.06-0.073C16.579,9.309,16.211,9.509,15.814,9.604z M15.844,8.896c0.052-0.298,0.152-0.616,0.3-0.933
		l1.104,0.553C17.015,8.859,16.478,8.987,15.844,8.896z M17.336,8.336l-1.102-0.553c0.162-0.306,0.354-0.571,0.558-0.79
		C17.242,7.442,17.464,7.944,17.336,8.336z M17.512,7.757c-0.092-0.303-0.293-0.613-0.58-0.904c0.137-0.127,0.279-0.233,0.419-0.314
		C17.516,6.917,17.575,7.34,17.512,7.757z M16.456,5.507c0.353,0.213,0.627,0.512,0.812,0.856c-0.162,0.092-0.321,0.212-0.479,0.356
		c-0.199-0.18-0.433-0.347-0.693-0.492L16.456,5.507z M16.28,5.41l-0.363,0.724c-0.318-0.157-0.643-0.268-0.953-0.33
		c0.022-0.211,0.021-0.41-0.001-0.596C15.397,5.143,15.856,5.203,16.28,5.41z M14.936,6c0.289,0.062,0.592,0.164,0.891,0.313
		L15.32,7.326l-0.699-0.35C14.777,6.647,14.881,6.314,14.936,6z M14.772,5.246c0.02,0.16,0.019,0.338-0.002,0.525
		c-0.403-0.057-0.774-0.03-1.07,0.075C13.996,5.547,14.371,5.342,14.772,5.246z M14.742,5.967c-0.054,0.294-0.152,0.606-0.299,0.919
		L13.34,6.333C13.579,5.998,14.112,5.874,14.742,5.967z M13.249,6.514l1.104,0.552c-0.163,0.31-0.358,0.579-0.565,0.8
		C13.334,7.412,13.115,6.906,13.249,6.514z M13.072,7.111c0.094,0.298,0.293,0.606,0.576,0.891c-0.136,0.127-0.274,0.231-0.412,0.31
		C13.075,7.939,13.017,7.522,13.072,7.111z"/>
	<path d="M21.377,16.739c0.112,0.604,0.482,1.16,1.061,1.485c0,0,0.001,0,0.002,0c0,0,0,0,0.002,0.002
		c0.002,0,0.003,0.002,0.007,0.004c0.574,0.319,1.234,0.346,1.808,0.129c0.053-0.021,0.105-0.043,0.156-0.068
		c0.388-0.184,0.726-0.484,0.953-0.886c0.225-0.402,0.308-0.847,0.264-1.273c-0.006-0.057-0.015-0.112-0.024-0.169
		c-0.111-0.602-0.478-1.153-1.048-1.48c-0.002-0.001-0.004-0.002-0.007-0.002c0-0.002-0.002-0.002-0.002-0.002
		c-0.001,0-0.001-0.002-0.002-0.002c-0.578-0.324-1.244-0.352-1.82-0.133c-0.052,0.02-0.104,0.042-0.155,0.065
		c-0.389,0.186-0.727,0.484-0.953,0.888c-0.226,0.402-0.308,0.846-0.264,1.273C21.359,16.628,21.367,16.684,21.377,16.739z
		 M21.555,16.716c0.142-0.01,0.3-0.001,0.461,0.024c-0.066,0.353-0.059,0.679,0.021,0.945
		C21.786,17.411,21.621,17.074,21.555,16.716z M22.186,16.773c0.258,0.059,0.527,0.159,0.795,0.301l-0.531,0.947
		C22.165,17.797,22.078,17.323,22.186,16.773z M23.646,16.257l0.269-0.477c0.286,0.153,0.577,0.259,0.854,0.319
		c-0.055,0.211-0.138,0.43-0.248,0.648L23.646,16.257z M24.437,16.903c-0.148,0.259-0.317,0.483-0.499,0.67
		c-0.195-0.206-0.437-0.398-0.716-0.564l0.337-0.599L24.437,16.903z M23.492,16.168l-0.865-0.484
		c0.129-0.207,0.273-0.391,0.424-0.547c0.195,0.203,0.434,0.393,0.708,0.557L23.492,16.168z M23.404,16.324l-0.336,0.599
		c-0.283-0.151-0.569-0.257-0.844-0.318c0.066-0.251,0.169-0.511,0.313-0.77L23.404,16.324z M22.604,18.109l0.531-0.946
		c0.266,0.157,0.493,0.339,0.678,0.53C23.396,18.072,22.942,18.243,22.604,18.109z M23.121,18.289
		c0.267-0.068,0.546-0.23,0.809-0.468c0.104,0.124,0.189,0.251,0.254,0.375C23.85,18.322,23.481,18.356,23.121,18.289z
		 M24.339,18.129c-0.071-0.142-0.168-0.285-0.285-0.426c0.196-0.2,0.381-0.438,0.536-0.713l0.61,0.344
		C24.995,17.695,24.69,17.964,24.339,18.129z M25.429,15.986c-0.141,0.01-0.294,0.001-0.453-0.024
		c0.066-0.347,0.059-0.669-0.019-0.933C25.2,15.303,25.361,15.634,25.429,15.986z M25.453,16.153
		c0.033,0.342-0.02,0.696-0.171,1.024l-0.608-0.343c0.119-0.235,0.207-0.474,0.266-0.703C25.119,16.158,25.292,16.167,25.453,16.153
		z M24.807,15.93c-0.261-0.058-0.536-0.16-0.807-0.303l0.533-0.947C24.825,14.9,24.914,15.377,24.807,15.93z M24.379,14.595
		l-0.533,0.944c-0.26-0.154-0.487-0.334-0.671-0.524C23.589,14.639,24.039,14.467,24.379,14.595z M23.878,14.414
		c-0.27,0.07-0.553,0.232-0.821,0.473c-0.104-0.125-0.191-0.254-0.258-0.381C23.138,14.378,23.513,14.344,23.878,14.414z
		 M22.642,14.572c0.073,0.146,0.173,0.292,0.293,0.434c-0.166,0.17-0.322,0.367-0.462,0.59l-0.618-0.349
		C22.059,14.948,22.33,14.719,22.642,14.572z M21.763,15.4l0.621,0.348c-0.151,0.275-0.263,0.554-0.33,0.824
		c-0.185-0.029-0.36-0.036-0.524-0.024C21.491,16.163,21.563,15.764,21.763,15.4z"/>
	<path d="M25.717,10.154c1.633,0.471,3.344-0.475,3.814-2.106c0.472-1.63-0.475-3.343-2.106-3.814
		c-1.176-0.338-2.395,0.058-3.158,0.919c-0.008,0.004-0.015,0.006-0.017,0.008l0.003,0.006c-0.289,0.328-0.512,0.725-0.641,1.174
		c-0.021,0.067-0.036,0.132-0.05,0.199C23.219,8.108,24.151,9.703,25.717,10.154z M24.796,9.395l0.005-0.002
		c-0.002-0.006-0.135-0.265-0.186-0.765c0.242,0.144,0.536,0.285,0.885,0.413c-0.002,0.36,0.036,0.627,0.071,0.797
		C25.283,9.73,25.023,9.579,24.796,9.395z M25.505,8.774c-0.369-0.145-0.67-0.303-0.909-0.458c-0.005-0.267,0.015-0.579,0.079-0.94
		c0.26,0.143,0.572,0.29,0.948,0.431C25.555,8.173,25.519,8.497,25.505,8.774z M25.674,7.555c-0.379-0.144-0.692-0.295-0.947-0.44
		c0.028-0.132,0.062-0.268,0.103-0.409c0.037-0.129,0.076-0.25,0.117-0.364c0.29,0.011,0.636,0.048,1.03,0.124
		c-0.051,0.148-0.101,0.302-0.147,0.469C25.766,7.152,25.716,7.359,25.674,7.555z M27.186,8.242
		c0.371,0.069,0.693,0.103,0.969,0.112c-0.138,0.336-0.287,0.611-0.434,0.835c-0.267,0.01-0.583-0.007-0.945-0.065
		C26.91,8.879,27.051,8.588,27.186,8.242z M26.513,9.074c-0.145-0.031-0.291-0.065-0.448-0.11c-0.106-0.03-0.209-0.063-0.306-0.097
		c0.008-0.275,0.038-0.601,0.104-0.976c0.145,0.05,0.295,0.099,0.455,0.145c0.217,0.063,0.422,0.113,0.614,0.155
		C26.793,8.542,26.648,8.836,26.513,9.074z M27.023,7.951c-0.198-0.042-0.41-0.092-0.636-0.157
		c-0.168-0.049-0.324-0.102-0.475-0.152c0.041-0.2,0.094-0.413,0.158-0.639c0.052-0.173,0.104-0.332,0.156-0.485
		c0.171,0.038,0.346,0.083,0.532,0.136c0.212,0.063,0.405,0.126,0.587,0.192c-0.037,0.167-0.081,0.342-0.134,0.529
		C27.152,7.582,27.09,7.771,27.023,7.951z M26.829,6.411c-0.179-0.052-0.35-0.095-0.515-0.133c0.148-0.384,0.303-0.696,0.448-0.945
		c0.096,0.023,0.195,0.048,0.297,0.078c0.165,0.047,0.314,0.099,0.459,0.151c-0.009,0.285-0.043,0.63-0.119,1.031
		C27.224,6.53,27.033,6.469,26.829,6.411z M26.064,6.223c-0.39-0.077-0.731-0.117-1.025-0.132c0.149-0.375,0.315-0.676,0.474-0.916
		c0.279,0,0.608,0.026,0.987,0.102C26.357,5.533,26.208,5.846,26.064,6.223z M25.852,9.929c-0.027-0.103-0.087-0.372-0.094-0.796
		c0.076,0.024,0.153,0.05,0.236,0.073c0.131,0.038,0.256,0.069,0.378,0.099c-0.216,0.335-0.4,0.536-0.497,0.629
		C25.867,9.933,25.858,9.931,25.852,9.929z M26.994,9.99c-0.269,0.04-0.546,0.042-0.824,0.002c0.122-0.133,0.288-0.34,0.469-0.635
		c0.337,0.063,0.636,0.086,0.898,0.088C27.279,9.778,27.063,9.942,26.994,9.99z M27.525,9.855c0.102-0.11,0.217-0.25,0.336-0.419
		c0.203-0.016,0.379-0.042,0.523-0.072C28.13,9.576,27.838,9.742,27.525,9.855z M28.765,8.979c-0.068,0.032-0.314,0.135-0.728,0.186
		c0.133-0.224,0.267-0.492,0.389-0.808c0.352-0.006,0.604-0.049,0.761-0.086C29.08,8.529,28.937,8.769,28.765,8.979z M29.25,6.293
		c-0.102-0.097-0.229-0.204-0.387-0.318c-0.009-0.196-0.029-0.367-0.057-0.511C28.998,5.713,29.149,5.994,29.25,6.293z
		 M28.867,6.299c0.32,0.254,0.471,0.464,0.506,0.518c0.04,0.291,0.035,0.594-0.021,0.894c-0.118-0.118-0.311-0.283-0.598-0.467
		C28.825,6.888,28.86,6.572,28.867,6.299z M28.692,7.51c0.321,0.214,0.496,0.393,0.569,0.475c-0.063,0.022-0.309,0.097-0.741,0.114
		c0.036-0.106,0.071-0.216,0.104-0.329C28.651,7.679,28.672,7.595,28.692,7.51z M28.424,5.059c0.038,0.084,0.132,0.333,0.173,0.74
		c-0.228-0.14-0.496-0.28-0.821-0.409c-0.002-0.363-0.045-0.627-0.083-0.79C27.964,4.716,28.21,4.872,28.424,5.059z M27.77,5.661
		c0.344,0.146,0.622,0.302,0.847,0.452c0.003,0.277-0.021,0.607-0.094,0.99c-0.238-0.138-0.531-0.281-0.881-0.419
		C27.72,6.293,27.756,5.953,27.77,5.661z M28.469,7.367c-0.025,0.106-0.054,0.217-0.086,0.332c-0.041,0.143-0.087,0.274-0.131,0.401
		C27.979,8.096,27.655,8.067,27.274,8c0.062-0.174,0.123-0.355,0.181-0.555c0.051-0.179,0.095-0.347,0.131-0.508
		C27.942,7.081,28.235,7.229,28.469,7.367z M27.402,4.502c0.022,0.065,0.102,0.328,0.116,0.791c-0.125-0.044-0.253-0.087-0.39-0.125
		c-0.077-0.022-0.152-0.041-0.228-0.061C27.127,4.764,27.316,4.578,27.402,4.502z M26.242,4.386
		c0.287-0.034,0.583-0.024,0.879,0.036c-0.122,0.123-0.295,0.324-0.484,0.625c-0.353-0.074-0.667-0.111-0.944-0.121
		C25.983,4.557,26.215,4.404,26.242,4.386z M25.727,4.498c-0.104,0.107-0.225,0.25-0.35,0.426c-0.222,0.008-0.41,0.031-0.567,0.06
		C25.083,4.767,25.395,4.602,25.727,4.498z M24.422,5.357c0.102-0.043,0.365-0.135,0.782-0.17c-0.147,0.243-0.297,0.539-0.431,0.895
		c-0.374-0.004-0.651,0.03-0.83,0.066C24.062,5.854,24.225,5.588,24.422,5.357z M23.85,6.429c0.116-0.03,0.396-0.088,0.83-0.092
		c-0.032,0.095-0.063,0.192-0.095,0.297c-0.033,0.118-0.062,0.232-0.089,0.344c-0.345-0.218-0.555-0.405-0.657-0.51
		C23.842,6.455,23.846,6.442,23.85,6.429z M23.778,6.76c0.14,0.126,0.355,0.295,0.661,0.483c-0.063,0.334-0.093,0.632-0.1,0.895
		c-0.355-0.271-0.525-0.499-0.57-0.567C23.733,7.307,23.734,7.033,23.778,6.76z M24.346,8.456c0.013,0.227,0.04,0.417,0.072,0.571
		c-0.234-0.276-0.412-0.594-0.526-0.936C24.008,8.201,24.157,8.326,24.346,8.456z"/>
	<path d="M7.59,9.805c-0.745,0.321-1.203,1.035-1.234,1.797c-0.002,0.006-0.005,0.009-0.006,0.012l0.006,0.003
		c-0.012,0.289,0.041,0.586,0.163,0.87c0.019,0.042,0.038,0.082,0.058,0.123c0.483,0.948,1.631,1.374,2.623,0.948
		c1.035-0.443,1.516-1.646,1.072-2.68C9.828,9.843,8.625,9.362,7.59,9.805z M8.729,10.972c-0.125-0.234-0.247-0.424-0.363-0.579
		c0.237-0.069,0.446-0.107,0.623-0.122c0.119,0.14,0.246,0.32,0.369,0.546C9.178,10.846,8.968,10.896,8.729,10.972z M8.8,11.506
		c0.057,0.132,0.103,0.254,0.146,0.374c-0.12,0.063-0.249,0.126-0.392,0.187c-0.108,0.046-0.21,0.086-0.31,0.12
		c-0.062-0.12-0.123-0.249-0.186-0.394c-0.046-0.108-0.086-0.213-0.124-0.313c0.103-0.051,0.212-0.104,0.331-0.156
		c0.133-0.057,0.26-0.104,0.381-0.146C8.697,11.279,8.748,11.387,8.8,11.506z M8.566,11.026c-0.116,0.041-0.238,0.089-0.367,0.145
		c-0.115,0.05-0.22,0.099-0.32,0.149c-0.085-0.259-0.138-0.484-0.167-0.674c0.059-0.028,0.12-0.056,0.185-0.084
		C8,10.519,8.1,10.481,8.195,10.449C8.312,10.598,8.438,10.789,8.566,11.026z M7.904,11.859c0.06,0.139,0.121,0.267,0.182,0.385
		c-0.255,0.084-0.479,0.139-0.67,0.172c-0.041-0.081-0.081-0.162-0.12-0.254c-0.035-0.081-0.064-0.16-0.093-0.235
		c0.152-0.117,0.348-0.242,0.581-0.37C7.819,11.655,7.859,11.755,7.904,11.859z M8.165,12.394c0.119,0.217,0.236,0.399,0.348,0.546
		c-0.25,0.081-0.472,0.126-0.66,0.147c-0.113-0.135-0.235-0.303-0.354-0.515C7.691,12.535,7.914,12.48,8.165,12.394z M8.325,12.336
		c0.096-0.034,0.191-0.071,0.294-0.115c0.139-0.061,0.264-0.119,0.379-0.179c0.077,0.237,0.125,0.448,0.156,0.629
		c-0.086,0.045-0.178,0.09-0.276,0.131c-0.067,0.029-0.134,0.056-0.197,0.081C8.568,12.736,8.448,12.557,8.325,12.336z
		 M8.954,11.439c-0.049-0.113-0.098-0.217-0.147-0.314C9.051,11.048,9.263,11,9.441,10.974c0.032,0.065,0.063,0.136,0.095,0.207
		c0.039,0.091,0.071,0.178,0.101,0.261c-0.141,0.111-0.319,0.233-0.542,0.359C9.053,11.685,9.008,11.565,8.954,11.439z
		 M9.616,10.953c0.253-0.025,0.418-0.008,0.491,0.006c-0.023,0.037-0.119,0.177-0.334,0.367c-0.025-0.067-0.054-0.138-0.083-0.211
		C9.665,11.059,9.641,11.006,9.616,10.953z M10.038,10.78c-0.111-0.012-0.279-0.015-0.503,0.011
		c-0.113-0.213-0.227-0.39-0.339-0.532c0.271-0.003,0.437,0.04,0.478,0.053C9.815,10.444,9.94,10.602,10.038,10.78z M9.391,10.096
		c-0.095-0.008-0.203-0.01-0.331-0.001C8.973,9.997,8.889,9.919,8.813,9.856C9.018,9.902,9.213,9.984,9.391,10.096z M8.448,9.809
		c0.055,0.028,0.208,0.116,0.4,0.307c-0.175,0.023-0.372,0.064-0.594,0.136C8.101,10.065,7.971,9.949,7.881,9.88
		C8.07,9.827,8.26,9.804,8.448,9.809z M7.691,9.953c0.039,0.023,0.189,0.125,0.392,0.356C8,10.339,7.918,10.372,7.831,10.407
		c-0.05,0.023-0.096,0.044-0.143,0.066C7.661,10.202,7.68,10.027,7.691,9.953z M7.727,11.397c-0.232,0.124-0.423,0.245-0.581,0.36
		c-0.081-0.253-0.122-0.477-0.141-0.667c0.142-0.117,0.321-0.241,0.55-0.363C7.588,10.92,7.642,11.143,7.727,11.397z M7.048,10.381
		c0.134-0.139,0.288-0.258,0.465-0.352c-0.011,0.114-0.014,0.291,0.015,0.523c-0.213,0.11-0.39,0.224-0.535,0.335
		C6.986,10.576,7.041,10.399,7.048,10.381z M6.829,10.652c-0.008,0.102-0.009,0.224-0.001,0.367
		c-0.109,0.096-0.195,0.188-0.264,0.27C6.613,11.062,6.703,10.846,6.829,10.652z M6.521,11.643c0.035-0.066,0.13-0.222,0.33-0.414
		c0.026,0.186,0.074,0.399,0.154,0.638c-0.193,0.155-0.321,0.289-0.397,0.383C6.546,12.05,6.517,11.844,6.521,11.643z M6.678,12.433
		c0.047-0.064,0.166-0.212,0.387-0.396c0.024,0.063,0.048,0.125,0.077,0.19c0.032,0.075,0.065,0.146,0.1,0.215
		c-0.269,0.034-0.455,0.024-0.553,0.013C6.686,12.449,6.682,12.44,6.678,12.433z M6.779,12.632c0.126,0.006,0.308,0.003,0.542-0.03
		c0.108,0.197,0.219,0.363,0.326,0.5c-0.297,0.012-0.479-0.035-0.531-0.051C6.986,12.93,6.872,12.789,6.779,12.632z M7.397,13.267
		c0.106,0.008,0.234,0.009,0.387-0.004c0.1,0.113,0.195,0.198,0.276,0.263C7.824,13.482,7.601,13.395,7.397,13.267z M8.408,13.555
		l0.001-0.004c-0.003,0-0.18-0.077-0.415-0.313c0.184-0.026,0.395-0.079,0.627-0.156c0.15,0.183,0.282,0.305,0.371,0.377
		C8.8,13.523,8.603,13.554,8.408,13.555z M9.188,13.379c-0.004,0.003-0.01,0.005-0.013,0.008c-0.058-0.042-0.202-0.154-0.384-0.369
		c0.051-0.02,0.101-0.039,0.153-0.062c0.082-0.035,0.16-0.071,0.233-0.108C9.208,13.111,9.197,13.291,9.188,13.379z M9.15,11.963
		c0.219-0.122,0.398-0.239,0.543-0.351c0.07,0.229,0.11,0.435,0.128,0.61c-0.131,0.118-0.301,0.241-0.512,0.363
		C9.276,12.404,9.227,12.195,9.15,11.963z M9.786,12.938c-0.122,0.134-0.262,0.25-0.423,0.347c0.008-0.12,0.006-0.294-0.025-0.522
		c0.199-0.108,0.361-0.223,0.498-0.333C9.843,12.71,9.801,12.885,9.786,12.938z M10.002,12.646c0.006-0.099,0.006-0.219-0.005-0.357
		c0.1-0.092,0.177-0.179,0.239-0.255C10.193,12.25,10.112,12.457,10.002,12.646z M9.975,12.076c-0.026-0.171-0.07-0.363-0.141-0.577
		c0.179-0.15,0.289-0.278,0.354-0.363c0.055,0.179,0.082,0.36,0.082,0.54C10.247,11.723,10.164,11.877,9.975,12.076z"/>
	<path d="M17.75,2.979l0.066-0.059l0.032,0.015l0.088-0.107L17.89,2.815l-0.076,0.098L17.81,2.872l-0.03-0.011L17.71,2.952
		l0.004-0.151l0.071-0.095h0.091l0.061-0.069L17.929,2.56l0.04-0.02l0.012,0.104c0,0-0.063,0.085-0.06,0.081
		c0.004-0.004,0.062,0.036,0.062,0.036l0.074-0.104l-0.018-0.032l0.05-0.073l-0.034-0.039l-0.038,0.035l-0.023-0.04l0.013-0.039
		l0.09-0.105l0.006,0.102l0.049,0.02l0.059-0.055l-0.078-0.055l0.017-0.082l0.069-0.117l0.185-0.104l0.058,0.044l0.05-0.041
		l0.026,0.06l-0.053,0.07l0.035,0.06l-0.159,0.134l0.031-0.177L18.313,2.24l-0.069,0.118l0.002,0.017l0.001,0.005l0.007,0.056
		l-0.035,0.053l0.028,0.016l0.021-0.012l0.007,0.007L18.25,2.545l0.021,0.021l-0.029,0.041L18.19,2.579l-0.034,0.09L18.127,2.88
		l0.072,0.028l0.057-0.022l0.074-0.073l0.091,0.068l0.023-0.043L18.4,2.749l0.039-0.108L18.33,2.558l0.002-0.076l0.118-0.098
		l0.064,0.063l0.025-0.032l0.023-0.117l0.099,0.067l0.084-0.035L18.8,2.375l-0.024,0.076l0.021,0.009l0.088-0.047l0.038,0.03
		l-0.014,0.022h-0.002l-0.098,0.071l-0.031-0.019l0.002-0.04l-0.025-0.02l-0.03,0.022l0.019,0.027l-0.03,0.055l-0.005,0.005
		l0.002,0.002l-0.012,0.019l-0.038-0.007l-0.021,0.012l-0.027,0.037l0.001,0.025l0.03,0.021l0.032-0.021l0.028-0.028L18.7,2.637
		l0.009,0.051l-0.024,0.001L18.658,2.71l0.01,0.125l0.016-0.004l-0.025,0.151l0.025,0.182l0.04,0.041l-0.013,0.152l0.011,0.088
		l0.103,0.068l-0.086,0.047l-0.057-0.044l-0.149,0.195l-0.027,0.14l0.045,0.104L18.6,4.02l0.082,0.016l0.069-0.071l0.015-0.189
		l0.05,0.021l0.04,0.092l0.09-0.087l0.151,0.102l0.122-0.115l-0.027-0.156l0.096-0.087l0.075,0.001l0.069-0.103l-0.026-0.024
		l0.066-0.033l0.138,0.01L19.69,3.29l0.095,0.01l0.084,0.058l0.132-0.084l0.111-0.146l0.101,0.008l0.069-0.049l0.047,0.054
		l0.033,0.139l0.176,0.166l0.001,0.102l-0.075,0.094l0.028,0.071l0.119,0.055l0.049,0.199l0.033,0.078l-0.029,0.133l-0.04,0.073
		l0.024,0.021l0.048-0.036l0.024,0.028l0.007,0.068h0.049l0.039-0.048l0.034,0.03l0.025,0.04l0.026,0.026l0.114-0.028l0.024,0.034
		l-0.077,0.097l-0.159,0.035l-0.187-0.021L20.5,4.39l-0.119,0.002l-0.108-0.12l-0.035,0.027l-0.274-0.208
		c0,0-0.146,0.041-0.149,0.047c-0.005,0.006-0.051,0.043-0.051,0.043l-0.058-0.03l-0.248,0.011l-0.045-0.054l-0.087-0.072
		l0.008-0.131L19.224,3.84l-0.106,0.12l-0.184,0.017l-0.074,0.055l-0.042,0.04l-0.034-0.036L18.73,4.088l0.021,0.017l-0.144,0.118
		l-0.13-0.006l-0.024-0.056l-0.199-0.007l-0.106-0.057l-0.029,0.037l0.104,0.058l0.143,0.009l0.031,0.034l-0.05,0.05l-0.158-0.019
		l-0.127-0.096l-0.085,0.045l-0.091-0.069c0.129,0.231,0.305,0.44,0.526,0.608c0.884,0.672,2.17,0.475,2.865-0.439
		c0.394-0.519,0.517-1.158,0.388-1.738l-0.042,0.056l-0.107-0.082l-0.129,0.002l-0.129-0.099l-0.083,0.013l-0.058-0.035
		l-0.066-0.148l-0.286-0.036l-0.124-0.114L20.55,2.229L20.482,2.24L20.43,2.31l0.005,0.062l-0.096,0.123l0.008,0.013l-0.052,0.068
		L20,2.603l-0.135-0.105l0.01-0.034l-0.044-0.049l-0.028,0.037l-0.065-0.025l0.011-0.282l-0.09-0.068l0.021-0.126l0.03-0.033
		l0.058-0.073l0.013-0.08l0.127-0.198L20,1.635l0.148-0.121l0.04-0.012l0.02-0.027l-0.049-0.039l0.056-0.09l0.121-0.037l0.1-0.132
		V1.16c-0.054-0.019-0.107-0.037-0.162-0.052l-0.065,0.089L20.13,1.204l-0.08-0.047l-0.011,0.062l0.072,0.092l-0.114,0.014
		l-0.064-0.043l-0.098,0.022L19.794,1.31l-0.055,0.071l0.078,0.025l0.113-0.052l0.027-0.003l-0.005,0.025l0.049,0.036l-0.014,0.056
		l-0.035,0.03h-0.049l0.048-0.057l-0.01-0.033l-0.181,0.067l-0.044-0.019l0.006,0.089l-0.052,0.045l0.041,0.158l0.026,0.047
		l-0.034,0.055L19.646,1.93l-0.056,0.029l-0.099-0.053l-0.029-0.049l0.044-0.091l0.081-0.072L19.55,1.648l-0.036,0.03l-0.061-0.065
		l0.053-0.098l-0.037-0.121l0.038-0.07l0.05-0.049l0.016-0.021l-0.085-0.048l-0.024,0.089l-0.078-0.02l-0.034,0.035l-0.045-0.023
		l-0.01-0.057l0.029-0.1l-0.019-0.045c-0.471,0.102-0.915,0.372-1.234,0.79c-0.276,0.366-0.42,0.789-0.435,1.209L17.7,3.001
		L17.75,2.979z M18.74,2.801l-0.021-0.021l-0.006-0.028l0.03-0.009l0.021,0.021L18.74,2.801z M18.814,2.684l-0.02,0.032
		c-0.008-0.006-0.014-0.01-0.014-0.01l-0.008,0.013L18.75,2.701l0.037-0.047L18.77,2.625l0.014-0.02l0.021-0.018l0.012,0.022
		l-0.017,0.025l0.019,0.022L18.814,2.684z M19.315,1.698l-0.03,0.038l-0.032-0.025L19.226,1.64l0.025-0.053l0.038-0.021l0.032,0.029
		L19.315,1.698z M19.242,1.451l0.072,0.034l0.068,0.006l0.036-0.004l0.039-0.024l0.014,0.061l-0.043,0.07l-0.037,0.048l-0.05-0.047
		l0.021-0.048l-0.029-0.016L19.283,1.55l-0.036,0.015l-0.025-0.02l-0.013-0.033L19.242,1.451z"/>
	<path d="M6.577,7.754c1.504,0,2.809-0.86,3.452-2.114c0.138-0.269,0.244-0.556,0.316-0.854c0.019-0.075,0.035-0.152,0.049-0.23
		c0.039-0.22,0.06-0.445,0.06-0.678c0-0.012,0-0.026-0.001-0.039c-0.001-0.114-0.007-0.228-0.017-0.337
		C10.4,3.132,10.312,2.775,10.18,2.445h0.003L10.171,2.38l-0.021-0.009C9.974,1.953,9.725,1.575,9.423,1.247
		c-0.021-0.021-0.04-0.042-0.061-0.063c-0.058-0.06-0.116-0.118-0.179-0.173C8.496,0.384,7.58,0,6.577,0
		C5.566,0,4.644,0.39,3.953,1.027C3.792,1.177,3.643,1.338,3.51,1.512C3.004,2.167,2.7,2.987,2.7,3.877
		C2.7,6.015,4.439,7.754,6.577,7.754z M3.305,2.484v0.203l0.148,0.07V3.04l0.14,0.241L3.708,3.3l0.017-0.083l-0.138-0.21
		L3.561,2.803h0.08l0.034,0.21L3.872,3.3L3.821,3.393l0.124,0.19l0.311,0.078V3.609l0.123,0.019l-0.01,0.087l0.096,0.019
		l0.152,0.042L4.83,4.018l0.271,0.021l0.025,0.223L4.941,4.392L4.934,4.589L4.906,4.711l0.269,0.336l0.021,0.115
		c0,0,0.098,0.026,0.109,0.026c0.011,0,0.218,0.157,0.218,0.157v0.609l0.075,0.021L5.547,6.256l0.124,0.166L5.649,6.7l0.163,0.288
		l0.212,0.184l0.212,0.005l0.02-0.066L6.101,6.979l0.009-0.065l0.028-0.081L6.143,6.75L6.038,6.748L5.986,6.682l0.086-0.084
		l0.014-0.064L5.987,6.507l0.005-0.06l0.141-0.021l0.21-0.103l0.071-0.129L6.637,5.91L6.586,5.688L6.654,5.57l0.203,0.006
		l0.137-0.108L7.038,5.04l0.153-0.194l0.027-0.123l-0.14-0.046L6.988,4.527L6.674,4.524L6.426,4.428L6.414,4.252L6.332,4.106
		L6.106,4.104L5.977,3.9L5.861,3.843L5.855,3.906l-0.21,0.012L5.57,3.811L5.35,3.767L5.169,3.975L4.885,3.927l-0.02-0.32
		L4.658,3.571L4.74,3.414L4.717,3.323L4.445,3.507L4.273,3.486L4.213,3.352L4.25,3.215L4.344,3.04l0.218-0.109H4.98V3.06l0.15,0.069
		L5.119,2.908l0.109-0.107l0.219-0.145l0.015-0.102l0.22-0.228l0.23-0.129l-0.02-0.018L6.05,2.033l0.059,0.015l0.026,0.033
		l0.06-0.065l0.015-0.008L6.143,1.999L6.077,1.978V1.913l0.035-0.028H6.19L6.226,1.9l0.031,0.061l0.036-0.005V1.95l0.013,0.003
		l0.108-0.016L6.43,1.885L6.491,1.9v0.057L6.434,1.998L6.442,2.06L6.64,2.122l0.001,0.003L6.686,2.12l0.003-0.085L6.531,1.963
		L6.523,1.922l0.131-0.044l0.005-0.125L6.523,1.671l-0.009-0.21l-0.187,0.09H6.26l0.018-0.158l-0.253-0.06L5.919,1.411v0.242
		L5.73,1.713L5.655,1.871L5.573,1.885V1.682L5.396,1.659L5.309,1.601l-0.037-0.13l0.317-0.187l0.156-0.047L5.76,1.343l0.087-0.007
		l0.007-0.052l0.091-0.013l0.001-0.019l-0.04-0.016L5.896,1.183l0.112-0.01l0.067-0.07l0.003-0.006l0,0l0.021-0.02l0.233-0.029
		l0.104,0.087L6.167,1.278L6.512,1.36l0.045-0.115h0.15L6.76,1.145L6.654,1.117V0.99L6.318,0.844L6.089,0.87L5.958,0.938l0.01,0.165
		L5.832,1.082L5.811,0.99l0.131-0.117L5.704,0.861l-0.067,0.02L5.607,0.962l0.089,0.015L5.679,1.065l-0.151,0.01L5.504,1.132
		l-0.22,0.007c0,0-0.005-0.124-0.014-0.124s0.171-0.003,0.171-0.003l0.131-0.127L5.5,0.849L5.406,0.94L5.249,0.933L5.154,0.801
		H4.953l-0.21,0.157h0.192l0.018,0.057L4.902,1.062l0.214,0.007l0.033,0.076l-0.241-0.01L4.896,1.077l-0.15-0.033L4.667,0.999
		L4.487,1c0.587-0.427,1.309-0.681,2.09-0.681c0.9,0,1.722,0.337,2.35,0.889L8.884,1.284L8.72,1.348L8.65,1.423l0.017,0.089
		l0.085,0.01l0.051,0.128l0.146-0.058l0.023,0.171H8.93L8.809,1.744L8.676,1.767L8.547,1.947l-0.185,0.03L8.336,2.135l0.078,0.018
		L8.393,2.254L8.208,2.218L8.041,2.254L8.005,2.348l0.029,0.195l0.099,0.046l0.165-0.001l0.111-0.01l0.036-0.089l0.172-0.227
		l0.116,0.024l0.112-0.104l0.021,0.081l0.277,0.187L9.111,2.498L8.985,2.491l0.048,0.067l0.078,0.017L9.2,2.538L9.198,2.43
		l0.04-0.021L9.207,2.375L9.021,2.272L8.973,2.135h0.154l0.048,0.048L9.31,2.298l0.005,0.14l0.137,0.145l0.051-0.2L9.598,2.33
		l0.019,0.164l0.092,0.103l0.187-0.003c0.036,0.091,0.067,0.186,0.097,0.28l-0.021,0.02H9.688l-0.174-0.13L9.332,2.781v0.112H9.274
		L9.212,2.849l-0.315-0.08V2.564L8.498,2.597L8.374,2.663H8.215L8.138,2.654L7.945,2.762v0.201L7.553,3.246l0.032,0.122h0.079
		l-0.02,0.115l-0.058,0.02L7.585,3.805l0.339,0.388h0.149l0.008-0.023h0.267l0.077-0.071h0.15l0.083,0.084l0.225,0.023L8.854,4.502
		l0.25,0.442l-0.133,0.25l0.009,0.119l0.104,0.103v0.283l0.138,0.185v0.235h0.117C8.684,6.922,7.689,7.436,6.577,7.436
		c-1.961,0-3.558-1.597-3.558-3.559C3.02,3.385,3.121,2.913,3.305,2.484z"/>
</g>
<g>
</g>
<g>
</g>
<g>
</g>
<g>
</g>
<g>
</g>
<g>
</g>
<g>
</g>
<g>
</g>
<g>
</g>
<g>
</g>
<g>
</g>
<g>
</g>
<g>
</g>
<g>
</g>
<g>
</g>
</svg>
