<?xml version="1.0" encoding="iso-8859-1"?>
<!-- Generator: Adobe Illustrator 16.0.0, SVG Export Plug-In . SVG Version: 6.00 Build 0)  -->
<!DOCTYPE svg PUBLIC "-//W3C//DTD SVG 1.1//EN" "http://www.w3.org/Graphics/SVG/1.1/DTD/svg11.dtd">
<svg version="1.1" id="Layer_1" xmlns="http://www.w3.org/2000/svg" xmlns:xlink="http://www.w3.org/1999/xlink" x="0px" y="0px"
	 width="13.524px" height="29.873px" viewBox="0 0 13.524 29.873" style="enable-background:new 0 0 13.524 29.873;"
	 xml:space="preserve">
<path d="M13.524,13.912c0,0-1.413,0.286-3.186,0.508l-0.84-3.626h0.647V4.753H7.937V0H5.588v4.753H3.379v6.041h0.647l-0.838,3.622
	C1.416,14.193,0,13.912,0,13.912v2.704c0,0,1.101,0.22,2.58,0.423L0.02,28.1l0.736,0.169l-0.212,0.97l0.448,0.099l-0.089,0.409
	l0.254,0.056l0.09-0.41l0.545,0.12l0.209-0.955l0.812,0.188l2.684-11.408c0.44,0.026,0.878,0.042,1.299,0.042
	c0.401,0,0.815-0.015,1.231-0.039l2.683,11.404l0.806-0.186l0.225,1.023l0.546-0.12l0.088,0.41l0.256-0.056l-0.09-0.409l0.448-0.099
	l-0.228-1.039l0.741-0.171l-2.56-11.055c1.48-0.206,2.579-0.429,2.579-0.429V13.912z M4.073,5.447h5.379V10.1H9.337H7.2H6.325H4.188
	H4.073V5.447z M2.297,27.914L0.853,27.58L3.271,17.13c0.49,0.059,1.004,0.113,1.526,0.158L2.297,27.914z M5.423,14.628
	c-0.517-0.032-1.038-0.077-1.542-0.132l0.857-3.702h1.586L5.423,14.628z M6.797,14.676c-0.219,0-0.444-0.005-0.67-0.013l0.635-2.704
	l0.637,2.707C7.196,14.672,6.994,14.676,6.797,14.676z M7.2,10.793h1.586l0.858,3.708c-0.504,0.054-1.025,0.099-1.542,0.131
	L7.2,10.793z M12.672,27.58l-1.444,0.334l-2.5-10.622c0.521-0.043,1.037-0.097,1.526-0.157L12.672,27.58z"/>
<g>
</g>
<g>
</g>
<g>
</g>
<g>
</g>
<g>
</g>
<g>
</g>
<g>
</g>
<g>
</g>
<g>
</g>
<g>
</g>
<g>
</g>
<g>
</g>
<g>
</g>
<g>
</g>
<g>
</g>
</svg>
