<?xml version="1.0" encoding="iso-8859-1"?>
<!-- Generator: Adobe Illustrator 16.0.0, SVG Export Plug-In . SVG Version: 6.00 Build 0)  -->
<!DOCTYPE svg PUBLIC "-//W3C//DTD SVG 1.1//EN" "http://www.w3.org/Graphics/SVG/1.1/DTD/svg11.dtd">
<svg version="1.1" id="Layer_1" xmlns="http://www.w3.org/2000/svg" xmlns:xlink="http://www.w3.org/1999/xlink" x="0px" y="0px"
	 width="28.021px" height="33.416px" viewBox="0 0 28.021 33.416" style="enable-background:new 0 0 28.021 33.416;"
	 xml:space="preserve">
<g>
	<polygon points="18.169,14.904 18.169,17.052 16.02,17.052 16.02,18.918 18.169,18.918 18.169,21.065 20.034,21.065 20.034,18.918 
		22.183,18.918 22.183,17.052 20.034,17.052 20.034,14.904 	"/>
	<path d="M8.917,8.352C8.482,8.735,8.619,9.61,9.426,9.233c0.81-0.377,2.931-1.136,4.583-1.136c5.448,0,9.882,4.432,9.882,9.878
		s-4.434,8.862-9.882,8.862c-5.446,0-9.877-3.416-9.877-8.862c0-1.728,0.908-4.419,1.23-4.763c0.322-0.348-0.493-1.226-0.818-0.612
		c-0.321,0.612-1.429,3.42-1.429,5.375c0,6.007,4.887,9.881,10.894,9.881c6.01,0,10.898-3.874,10.898-9.881
		c0-6.008-4.889-10.895-10.898-10.895C12.171,7.081,9.35,7.972,8.917,8.352z"/>
	<path d="M12.501,22.076c0.553-0.2,1.009-0.486,1.369-0.858c0.359-0.372,0.627-0.823,0.804-1.355
		c0.176-0.532,0.264-1.126,0.264-1.782c0-0.536-0.067-1.063-0.204-1.578c-0.136-0.516-0.355-0.972-0.659-1.368
		c-0.305-0.396-0.703-0.716-1.195-0.96c-0.491-0.244-1.093-0.366-1.805-0.366H6.741v8.568h3.816
		C11.302,22.376,11.949,22.276,12.501,22.076z M9.382,20.18v-4.176h0.84c0.48,0,0.857,0.08,1.134,0.24s0.483,0.352,0.624,0.576
		c0.141,0.224,0.229,0.449,0.264,0.678c0.036,0.228,0.055,0.41,0.055,0.546c0,0.2-0.022,0.424-0.066,0.672s-0.132,0.48-0.264,0.696
		c-0.133,0.216-0.322,0.397-0.57,0.546s-0.576,0.222-0.984,0.222H9.382z"/>
	<path d="M21.925,0l-0.243,0.022L21.659,0H0v33.416h28.021V8.991V6.362V6.098L21.925,0z M26.521,31.916H1.5V1.5h19.151v5.97h5.87
		V31.916z"/>
</g>
<g>
</g>
<g>
</g>
<g>
</g>
<g>
</g>
<g>
</g>
<g>
</g>
<g>
</g>
<g>
</g>
<g>
</g>
<g>
</g>
<g>
</g>
<g>
</g>
<g>
</g>
<g>
</g>
<g>
</g>
</svg>
