<?xml version="1.0" encoding="iso-8859-1"?>
<!-- Generator: Adobe Illustrator 16.0.0, SVG Export Plug-In . SVG Version: 6.00 Build 0)  -->
<!DOCTYPE svg PUBLIC "-//W3C//DTD SVG 1.1//EN" "http://www.w3.org/Graphics/SVG/1.1/DTD/svg11.dtd">
<svg version="1.1" id="Layer_1" xmlns="http://www.w3.org/2000/svg" xmlns:xlink="http://www.w3.org/1999/xlink" x="0px" y="0px"
	 width="21.913px" height="31.172px" viewBox="0 0 21.913 31.172" style="enable-background:new 0 0 21.913 31.172;"
	 xml:space="preserve">
<g>
	<rect x="3.696" y="17.797" width="9.624" height="1.125"/>
	<rect x="3.696" y="14.948" width="11.874" height="1.125"/>
	<rect x="3.696" y="21.087" width="5.938" height="1.125"/>
	<rect x="3.696" y="11.949" width="9.624" height="1.125"/>
	<rect x="3.696" y="6.324" width="7.108" height="3.874"/>
	<path d="M17.913,23.226c0-1.738-1.408-3.145-3.145-3.145c-1.733,0-3.141,1.406-3.141,3.145c0,1.733,1.407,3.139,3.141,3.139
		C16.505,26.365,17.913,24.959,17.913,23.226z"/>
	<polygon points="19.368,24.32 14.771,27.952 17.317,31.172 18.529,27.982 21.913,27.54 	"/>
	<polygon points="6.687,25.77 9.877,26.982 10.318,30.366 13.538,27.82 9.906,23.223 	"/>
	<path d="M7.215,26.998H1.396V1.395h12.007L13.379,6.27h5.183v17.367l0.951-0.674l0.443,0.553V4.875h-0.01l0.022-0.023l-5.165-4.813
		V0H0v28.394h8.954l-0.097-0.75L7.215,26.998z M14.795,1.938l3.151,2.937H14.78L14.795,1.938z"/>
</g>
<g>
</g>
<g>
</g>
<g>
</g>
<g>
</g>
<g>
</g>
<g>
</g>
<g>
</g>
<g>
</g>
<g>
</g>
<g>
</g>
<g>
</g>
<g>
</g>
<g>
</g>
<g>
</g>
<g>
</g>
</svg>
