<?xml version="1.0" encoding="iso-8859-1"?>
<!-- Generator: Adobe Illustrator 16.0.0, SVG Export Plug-In . SVG Version: 6.00 Build 0)  -->
<!DOCTYPE svg PUBLIC "-//W3C//DTD SVG 1.1//EN" "http://www.w3.org/Graphics/SVG/1.1/DTD/svg11.dtd">
<svg version="1.1" id="Layer_1" xmlns="http://www.w3.org/2000/svg" xmlns:xlink="http://www.w3.org/1999/xlink" x="0px" y="0px"
	 width="23.052px" height="30.145px" viewBox="0 0 23.052 30.145" style="enable-background:new 0 0 23.052 30.145;"
	 xml:space="preserve">
<g>
	<path d="M0,0v30.145h23.052V0H0z M21.762,28.855H1.29V1.289h20.472V28.855z"/>
	<polygon points="10.455,12.439 11.515,9.648 14.475,9.262 12.247,6.445 8.228,9.622 	"/>
	<polygon points="5.414,12.234 7.979,9.721 4.394,6.061 1.83,8.573 4.717,9.332 	"/>
	<path d="M8.228,7.764c1.248,0,2.262-1.014,2.262-2.262S9.476,3.238,8.228,3.238S5.964,4.254,5.964,5.502S6.979,7.764,8.228,7.764z
		 M7.688,4.725l0.539-1.092l0.539,1.092l1.206,0.175L9.099,5.75l0.206,1.199L8.227,6.383L7.15,6.949L7.355,5.75L6.484,4.899
		L7.688,4.725z"/>
	<path d="M8.225,8.234c1.519,0,2.75-1.229,2.75-2.746c0-1.521-1.232-2.751-2.75-2.751c-1.517,0-2.748,1.231-2.748,2.751
		C5.478,7.005,6.708,8.234,8.225,8.234z M8.228,3.086c1.332,0,2.415,1.084,2.415,2.416c0,1.331-1.083,2.415-2.415,2.415
		c-1.333,0-2.416-1.084-2.416-2.415C5.812,4.17,6.895,3.086,8.228,3.086z"/>
	<rect x="3.586" y="14.75" width="15.904" height="1.037"/>
	<rect x="3.586" y="17.006" width="15.904" height="1.038"/>
	<rect x="3.586" y="19.424" width="15.904" height="1.038"/>
	<rect x="3.586" y="21.681" width="15.904" height="1.038"/>
	<rect x="3.586" y="24.043" width="8.462" height="1.037"/>
</g>
<g>
</g>
<g>
</g>
<g>
</g>
<g>
</g>
<g>
</g>
<g>
</g>
<g>
</g>
<g>
</g>
<g>
</g>
<g>
</g>
<g>
</g>
<g>
</g>
<g>
</g>
<g>
</g>
<g>
</g>
</svg>
