<?xml version="1.0" encoding="iso-8859-1"?>
<!-- Generator: Adobe Illustrator 16.0.0, SVG Export Plug-In . SVG Version: 6.00 Build 0)  -->
<!DOCTYPE svg PUBLIC "-//W3C//DTD SVG 1.1//EN" "http://www.w3.org/Graphics/SVG/1.1/DTD/svg11.dtd">
<svg version="1.1" id="Layer_1" xmlns="http://www.w3.org/2000/svg" xmlns:xlink="http://www.w3.org/1999/xlink" x="0px" y="0px"
	 width="29.016px" height="20px" viewBox="0 0 29.016 20" style="enable-background:new 0 0 29.016 20;" xml:space="preserve">
<g>
	<rect x="10.505" y="7.279" width="8.168" height="0.86"/>
	<rect x="7.684" y="5.344" width="13.81" height="0.859"/>
	<polygon points="21.732,16.682 22.31,17.327 26.63,17.327 26.63,2.174 2.387,2.174 2.387,17.327 9.342,17.327 9.291,16.682 
		3.031,16.682 3.031,2.819 25.985,2.819 25.985,16.682 	"/>
	<path d="M11.5,12.656c0,1.603,1.302,2.901,2.903,2.901c1.604,0,2.906-1.299,2.906-2.901c0-1.607-1.302-2.906-2.906-2.906
		C12.802,9.75,11.5,11.049,11.5,12.656z"/>
	<polygon points="21.008,16.643 18.654,13.667 14.405,17.024 16.76,20 17.879,17.051 	"/>
	<polygon points="9.91,12.654 6.935,15.008 9.883,16.128 10.291,19.254 13.267,16.901 	"/>
	<polygon points="12.774,18.385 11.312,19.674 15.331,19.683 14.344,18.393 	"/>
	<polygon points="0,0 0,19.674 9.577,19.674 9.458,18.385 1.29,18.385 1.29,1.29 27.728,1.29 27.728,18.385 18.286,18.385 
		17.773,19.674 29.016,19.674 29.016,0 	"/>
</g>
<g>
</g>
<g>
</g>
<g>
</g>
<g>
</g>
<g>
</g>
<g>
</g>
<g>
</g>
<g>
</g>
<g>
</g>
<g>
</g>
<g>
</g>
<g>
</g>
<g>
</g>
<g>
</g>
<g>
</g>
</svg>
