<?xml version="1.0" encoding="iso-8859-1"?>
<!-- Generator: Adobe Illustrator 16.0.0, SVG Export Plug-In . SVG Version: 6.00 Build 0)  -->
<!DOCTYPE svg PUBLIC "-//W3C//DTD SVG 1.1//EN" "http://www.w3.org/Graphics/SVG/1.1/DTD/svg11.dtd">
<svg version="1.1" id="Layer_1" xmlns="http://www.w3.org/2000/svg" xmlns:xlink="http://www.w3.org/1999/xlink" x="0px" y="0px"
	 width="31.107px" height="22.987px" viewBox="0 0 31.107 22.987" style="enable-background:new 0 0 31.107 22.987;"
	 xml:space="preserve">
<g>
	<rect x="4.016" y="13.215" width="14.175" height="1.065"/>
	<rect x="4.016" y="11.125" width="14.175" height="1.065"/>
	<rect x="4.016" y="8.79" width="14.175" height="1.065"/>
	<rect x="6.475" y="6.537" width="9.34" height="1.065"/>
	<circle cx="24.396" cy="15.521" r="2.953"/>
	<polygon points="28.716,16.549 24.397,19.962 26.79,22.987 27.928,19.99 31.107,19.575 	"/>
	<polygon points="16.801,17.912 19.798,19.05 20.214,22.23 23.238,19.837 19.826,15.52 	"/>
	<path d="M15.631,18.779H1.312V1.311h20.157v6.4h6.638v6.661l1.312,1.213V6.401L22.781,0H0v20.09l18.196-0.021l-0.011-0.709
		L15.631,18.779z M22.781,1.983l4.581,4.418h-4.581V1.983z"/>
</g>
<g>
</g>
<g>
</g>
<g>
</g>
<g>
</g>
<g>
</g>
<g>
</g>
<g>
</g>
<g>
</g>
<g>
</g>
<g>
</g>
<g>
</g>
<g>
</g>
<g>
</g>
<g>
</g>
<g>
</g>
</svg>
