<?xml version="1.0" encoding="iso-8859-1"?>
<!-- Generator: Adobe Illustrator 16.0.0, SVG Export Plug-In . SVG Version: 6.00 Build 0)  -->
<!DOCTYPE svg PUBLIC "-//W3C//DTD SVG 1.1//EN" "http://www.w3.org/Graphics/SVG/1.1/DTD/svg11.dtd">
<svg version="1.1" id="Layer_1" xmlns="http://www.w3.org/2000/svg" xmlns:xlink="http://www.w3.org/1999/xlink" x="0px" y="0px"
	 width="31.804px" height="30.762px" viewBox="0 0 31.804 30.762" style="enable-background:new 0 0 31.804 30.762;"
	 xml:space="preserve">
<g>
	<polygon points="1.229,23.472 1.229,9.96 14.773,9.96 13.973,8.731 0,8.731 0,24.701 10.132,24.701 11.941,23.472 	"/>
	<polygon points="23.406,23.472 22.807,23.472 23.91,24.701 24.635,24.701 24.635,15.803 23.406,15.369 	"/>
	<rect x="9.096" y="12.674" width="7.334" height="0.935"/>
	<rect x="6.367" y="15.071" width="12.794" height="1.031"/>
	<rect x="6.367" y="17.23" width="12.794" height="1.032"/>
	<rect x="6.367" y="19.274" width="12.794" height="1.03"/>
	<path d="M20.707,23.764c0-1.531-1.24-2.77-2.77-2.77c-1.527,0-2.766,1.239-2.766,2.77c0,1.527,1.239,2.766,2.766,2.766
		C19.467,26.529,20.707,25.291,20.707,23.764z"/>
	<polygon points="17.939,27.927 20.182,30.762 21.25,27.952 24.23,27.563 21.988,24.728 	"/>
	<polygon points="10.818,26.004 13.629,27.072 14.018,30.052 16.854,27.81 13.655,23.761 	"/>
	<polygon points="14.638,0 13.793,1.187 16.396,3.042 13.64,6.911 18.366,12.93 25.247,15.18 28.003,11.312 29.27,12.213 
		27.315,14.958 26.682,14.506 25.028,16.827 26.998,18.23 28.651,15.909 28.229,15.608 30.184,12.865 30.957,13.416 31.804,12.229 	
		"/>
</g>
<g>
</g>
<g>
</g>
<g>
</g>
<g>
</g>
<g>
</g>
<g>
</g>
<g>
</g>
<g>
</g>
<g>
</g>
<g>
</g>
<g>
</g>
<g>
</g>
<g>
</g>
<g>
</g>
<g>
</g>
</svg>
