<?xml version="1.0" encoding="utf-8"?>
<!-- Generator: Adobe Illustrator 16.0.4, SVG Export Plug-In . SVG Version: 6.00 Build 0)  -->
<!DOCTYPE svg PUBLIC "-//W3C//DTD SVG 1.1//EN" "http://www.w3.org/Graphics/SVG/1.1/DTD/svg11.dtd">
<svg version="1.1" id="Layer_1" xmlns="http://www.w3.org/2000/svg" xmlns:xlink="http://www.w3.org/1999/xlink" x="0px" y="0px"
	 width="20.908px" height="20.527px" viewBox="0 0 20.908 20.527" enable-background="new 0 0 20.908 20.527" xml:space="preserve">
<path d="M4.664,0.48l16.244,16.244l-3.629,3.63L1.034,4.11L4.664,0.48z M16.825,8.164c2.254,0,4.082-1.827,4.082-4.082
	C20.907,1.828,19.079,0,16.825,0s-4.082,1.828-4.082,4.082C12.743,6.337,14.571,8.164,16.825,8.164z M4.082,12.363
	C1.828,12.363,0,14.19,0,16.445c0,2.254,1.828,4.082,4.082,4.082s4.082-1.828,4.082-4.082C8.164,14.19,6.336,12.363,4.082,12.363z"
	/>
</svg>
