<?xml version="1.0" encoding="iso-8859-1"?>
<!-- Generator: Adobe Illustrator 16.0.0, SVG Export Plug-In . SVG Version: 6.00 Build 0)  -->
<!DOCTYPE svg PUBLIC "-//W3C//DTD SVG 1.1//EN" "http://www.w3.org/Graphics/SVG/1.1/DTD/svg11.dtd">
<svg version="1.1" id="Layer_1" xmlns="http://www.w3.org/2000/svg" xmlns:xlink="http://www.w3.org/1999/xlink" x="0px" y="0px"
	 width="27.47px" height="26.844px" viewBox="0 0 27.47 26.844" style="enable-background:new 0 0 27.47 26.844;"
	 xml:space="preserve">
<g>
	<rect x="1.414" y="20.646" width="0.321" height="0.161"/>
	<rect x="25.726" y="20.646" width="0.649" height="0.161"/>
	<rect x="6.273" y="20.646" width="0.649" height="0.161"/>
	<rect x="19.24" y="20.646" width="0.647" height="0.161"/>
	<rect x="8.868" y="20.646" width="0.648" height="0.161"/>
	<rect x="4.978" y="20.646" width="0.648" height="0.161"/>
	<rect x="15.351" y="20.646" width="0.647" height="0.161"/>
	<rect x="20.537" y="20.646" width="0.646" height="0.161"/>
	<rect x="21.833" y="20.646" width="0.647" height="0.161"/>
	<rect x="23.129" y="20.646" width="0.648" height="0.161"/>
	<polygon points="13.405,20.646 12.869,20.646 12.869,20.018 12.708,20.018 12.708,20.66 12.757,20.66 12.757,20.807 13.405,20.807 
			"/>
	<rect x="16.646" y="20.646" width="0.647" height="0.161"/>
	<rect x="11.461" y="20.646" width="0.649" height="0.161"/>
	<rect x="2.38" y="20.646" width="0.648" height="0.161"/>
	<rect x="17.944" y="20.646" width="0.646" height="0.161"/>
	<rect x="14.053" y="20.646" width="0.65" height="0.161"/>
	<rect x="7.571" y="20.646" width="0.648" height="0.161"/>
	<rect x="3.679" y="20.646" width="0.648" height="0.161"/>
	<rect x="10.164" y="20.646" width="0.649" height="0.161"/>
	<rect x="26.985" y="20.646" width="0.32" height="0.161"/>
	<rect x="1.663" y="14.332" width="0.318" height="0.16"/>
	<rect x="16.75" y="14.332" width="0.642" height="0.16"/>
	<rect x="20.601" y="14.332" width="0.641" height="0.16"/>
	<rect x="7.762" y="14.332" width="0.642" height="0.16"/>
	<rect x="18.032" y="14.332" width="0.643" height="0.16"/>
	<rect x="19.316" y="14.332" width="0.642" height="0.16"/>
	<path d="M23.169,14.332v0.16h0.377c0,0.78,0.632,1.413,1.413,1.413c0.78,0,1.412-0.633,1.412-1.413h0.012v-0.16h-0.028
		c-0.079-0.705-0.672-1.253-1.396-1.253c-0.725,0-1.316,0.548-1.397,1.253H23.169z"/>
	<rect x="3.909" y="14.332" width="0.643" height="0.16"/>
	<rect x="12.897" y="14.332" width="0.643" height="0.16"/>
	<rect x="11.614" y="14.332" width="0.642" height="0.16"/>
	<rect x="14.181" y="14.332" width="0.644" height="0.16"/>
	<rect x="5.194" y="14.332" width="0.644" height="0.16"/>
	<rect x="21.885" y="14.332" width="0.642" height="0.16"/>
	<rect x="6.478" y="14.332" width="0.643" height="0.16"/>
	<rect x="15.464" y="14.332" width="0.642" height="0.16"/>
	<rect x="2.622" y="14.332" width="0.644" height="0.16"/>
	<rect x="26.985" y="14.332" width="0.32" height="0.16"/>
	<rect x="13.926" y="8.395" width="0.656" height="0.16"/>
	<rect x="15.236" y="8.395" width="0.655" height="0.16"/>
	<rect x="11.309" y="8.395" width="0.655" height="0.16"/>
	<rect x="10" y="8.395" width="0.654" height="0.16"/>
	<rect x="16.544" y="8.395" width="0.655" height="0.16"/>
	<rect x="20.472" y="8.395" width="0.655" height="0.16"/>
	<rect x="23.091" y="8.395" width="0.655" height="0.16"/>
	<rect x="21.782" y="8.395" width="0.655" height="0.16"/>
	<rect x="2.138" y="8.395" width="0.657" height="0.16"/>
	<rect x="3.45" y="8.395" width="0.655" height="0.16"/>
	<rect x="25.713" y="8.395" width="0.657" height="0.16"/>
	<rect x="4.761" y="8.395" width="0.655" height="0.16"/>
	<rect x="7.38" y="8.395" width="0.656" height="0.16"/>
	<rect x="8.69" y="8.395" width="0.654" height="0.16"/>
	<rect x="26.985" y="8.395" width="0.32" height="0.16"/>
	<rect x="1.414" y="2.08" width="0.321" height="0.161"/>
	<rect x="14.134" y="2.08" width="0.654" height="0.161"/>
	<rect x="25.882" y="2.08" width="0.654" height="0.161"/>
	<rect x="20.659" y="2.08" width="0.65" height="0.161"/>
	<rect x="16.743" y="2.08" width="0.653" height="0.161"/>
	<polygon points="18.701,2.241 18.806,2.241 18.806,1.585 18.646,1.585 18.646,2.08 18.049,2.08 18.049,2.241 18.701,2.241 	"/>
	<rect x="21.964" y="2.08" width="0.652" height="0.161"/>
	<rect x="15.439" y="2.08" width="0.651" height="0.161"/>
	<rect x="19.354" y="2.08" width="0.653" height="0.161"/>
	<rect x="23.269" y="2.08" width="0.652" height="0.161"/>
	<rect x="4.999" y="2.08" width="0.651" height="0.161"/>
	<rect x="10.221" y="2.08" width="0.651" height="0.161"/>
	<rect x="8.914" y="2.08" width="0.653" height="0.161"/>
	<rect x="7.609" y="2.08" width="0.652" height="0.161"/>
	<rect x="3.691" y="2.08" width="0.653" height="0.161"/>
	<rect x="11.523" y="2.08" width="0.653" height="0.161"/>
	<rect x="2.385" y="2.08" width="0.653" height="0.161"/>
	<rect x="27.15" y="2.08" width="0.319" height="0.161"/>
	<rect x="6.394" y="9.597" width="0.161" height="0.646"/>
	<rect x="6.394" y="13.484" width="0.161" height="0.649"/>
	<rect x="6.394" y="12.188" width="0.161" height="0.649"/>
	<rect x="6.394" y="22.563" width="0.161" height="0.648"/>
	<rect x="6.394" y="23.859" width="0.161" height="0.651"/>
	<rect x="6.394" y="21.264" width="0.161" height="0.648"/>
	<path d="M6.555,16.077H6.394v0.615c-0.041-0.004-0.08-0.012-0.12-0.012c-0.779,0-1.413,0.632-1.413,1.412s0.634,1.413,1.413,1.413
		c0.781,0,1.413-0.633,1.413-1.413c0-0.684-0.486-1.254-1.132-1.384V16.077z"/>
	<rect x="6.394" y="10.894" width="0.161" height="0.646"/>
	<rect x="6.394" y="4.409" width="0.161" height="0.647"/>
	<rect x="6.394" y="5.706" width="0.161" height="0.647"/>
	<rect x="6.394" y="7.004" width="0.161" height="0.647"/>
	<rect x="6.394" y="3.111" width="0.161" height="0.65"/>
	<polygon points="6.394,8.947 6.555,8.947 6.555,8.555 6.726,8.555 6.726,8.395 6.555,8.395 6.555,8.299 6.394,8.299 6.394,8.395 
		6.07,8.395 6.07,8.555 6.394,8.555 	"/>
	<rect x="6.394" y="0.516" width="0.161" height="0.648"/>
	<rect x="6.394" y="19.968" width="0.161" height="0.648"/>
	<rect x="6.394" y="14.779" width="0.161" height="0.65"/>
	<polygon points="6.394,2.461 6.555,2.461 6.555,2.241 6.956,2.241 6.956,2.08 6.555,2.08 6.555,1.813 6.394,1.813 6.394,2.08 
		6.305,2.08 6.305,2.241 6.394,2.241 	"/>
	<rect x="6.394" y="25.121" width="0.161" height="0.319"/>
	<rect x="12.708" width="0.161" height="0.117"/>
	<polygon points="12.869,2.241 13.479,2.241 13.479,2.08 12.869,2.08 12.869,2.042 12.708,2.042 12.708,2.686 12.869,2.686 	"/>
	<rect x="12.708" y="12.314" width="0.161" height="0.644"/>
	<rect x="12.708" y="7.182" width="0.161" height="0.642"/>
	<rect x="12.708" y="0.757" width="0.161" height="0.644"/>
	<rect x="12.708" y="13.6" width="0.161" height="0.642"/>
	<polygon points="12.617,8.555 12.708,8.555 12.708,9.106 12.869,9.106 12.869,8.555 13.271,8.555 13.271,8.395 12.617,8.395 	"/>
	<rect x="12.708" y="14.883" width="0.161" height="0.644"/>
	<rect x="12.708" y="16.166" width="0.161" height="0.643"/>
	<rect x="12.708" y="21.303" width="0.161" height="0.643"/>
	<rect x="12.708" y="11.032" width="0.161" height="0.641"/>
	<rect x="12.708" y="9.748" width="0.161" height="0.643"/>
	<rect x="12.708" y="22.589" width="0.161" height="0.641"/>
	<rect x="12.708" y="23.873" width="0.161" height="0.645"/>
	<rect x="12.708" y="17.451" width="0.161" height="0.642"/>
	<rect x="12.708" y="18.735" width="0.161" height="0.642"/>
	<rect x="12.708" y="25.121" width="0.161" height="0.319"/>
	<rect x="18.646" y="12.06" width="0.16" height="0.658"/>
	<rect x="18.646" y="21.226" width="0.16" height="0.655"/>
	<rect x="18.646" y="10.751" width="0.16" height="0.654"/>
	<rect x="18.646" y="19.916" width="0.16" height="0.655"/>
	<rect x="18.646" y="14.679" width="0.16" height="0.655"/>
	<rect x="18.646" y="15.988" width="0.16" height="0.653"/>
	<rect x="18.646" y="2.896" width="0.16" height="0.655"/>
	<rect x="18.646" y="18.607" width="0.16" height="0.653"/>
	<rect x="18.646" y="17.297" width="0.16" height="0.657"/>
	<rect x="18.646" y="13.371" width="0.16" height="0.653"/>
	<rect x="18.646" y="0.272" width="0.16" height="0.656"/>
	<rect x="18.646" y="5.516" width="0.16" height="0.653"/>
	<rect x="18.646" y="4.206" width="0.16" height="0.653"/>
	<rect x="18.646" y="22.537" width="0.16" height="0.655"/>
	<rect x="18.646" y="23.849" width="0.16" height="0.655"/>
	<rect x="18.646" y="25.121" width="0.16" height="0.319"/>
	<rect x="24.959" y="7.05" width="0.16" height="0.652"/>
	<rect x="24.959" y="5.744" width="0.16" height="0.651"/>
	<rect x="24.959" y="3.134" width="0.16" height="0.652"/>
	<rect x="24.959" y="0.519" width="0.16" height="0.654"/>
	<polygon points="24.959,2.479 25.119,2.479 25.119,2.241 25.229,2.241 25.229,2.08 25.119,2.08 25.119,1.825 24.959,1.825 
		24.959,2.08 24.575,2.08 24.575,2.241 24.959,2.241 	"/>
	<rect x="24.959" y="4.438" width="0.16" height="0.652"/>
	<rect x="24.959" y="12.268" width="0.16" height="0.654"/>
	<rect x="24.959" y="16.183" width="0.16" height="0.652"/>
	<rect x="24.959" y="10.963" width="0.16" height="0.653"/>
	<rect x="24.959" y="9.658" width="0.16" height="0.652"/>
	<rect x="24.959" y="24.018" width="0.16" height="0.653"/>
	<rect x="24.959" y="21.404" width="0.16" height="0.652"/>
	<rect x="24.959" y="22.71" width="0.16" height="0.652"/>
	<rect x="24.959" y="17.487" width="0.16" height="0.654"/>
	<polygon points="24.959,9.007 25.119,9.007 25.119,8.354 24.959,8.354 24.959,8.395 24.402,8.395 24.402,8.555 24.959,8.555 	"/>
	<rect x="24.959" y="18.792" width="0.16" height="0.654"/>
	<polygon points="25.119,20.098 24.959,20.098 24.959,20.646 24.428,20.646 24.428,20.807 25.076,20.807 25.076,20.75 25.119,20.75 
			"/>
	<polygon points="25.119,25.286 24.959,25.286 24.959,25.553 1.29,25.553 1.29,8.555 1.485,8.555 1.485,8.395 1.29,8.395 
		1.29,0.013 0,0.013 0,26.844 27.309,26.844 27.309,25.553 25.119,25.553 	"/>
	<circle cx="10" cy="14.133" r="1.413"/>
	<path d="M12.708,6.025v0.513h0.161V6.009c0.704-0.081,1.251-0.671,1.251-1.396c0-0.781-0.634-1.414-1.412-1.414
		c-0.781,0-1.414,0.633-1.414,1.414C11.294,5.393,11.927,6.025,12.708,6.025z"/>
	<path d="M18.646,9.53v0.567h0.16V9.547c0.78,0,1.413-0.634,1.413-1.413c0-0.781-0.633-1.414-1.413-1.414s-1.414,0.633-1.414,1.414
		C17.392,8.859,17.941,9.449,18.646,9.53z"/>
</g>
<g>
</g>
<g>
</g>
<g>
</g>
<g>
</g>
<g>
</g>
<g>
</g>
<g>
</g>
<g>
</g>
<g>
</g>
<g>
</g>
<g>
</g>
<g>
</g>
<g>
</g>
<g>
</g>
<g>
</g>
</svg>
