<?xml version="1.0" encoding="iso-8859-1"?>
<!-- Generator: Adobe Illustrator 16.0.0, SVG Export Plug-In . SVG Version: 6.00 Build 0)  -->
<!DOCTYPE svg PUBLIC "-//W3C//DTD SVG 1.1//EN" "http://www.w3.org/Graphics/SVG/1.1/DTD/svg11.dtd">
<svg version="1.1" id="Layer_1" xmlns="http://www.w3.org/2000/svg" xmlns:xlink="http://www.w3.org/1999/xlink" x="0px" y="0px"
	 width="28.021px" height="33.416px" viewBox="0 0 28.021 33.416" style="enable-background:new 0 0 28.021 33.416;"
	 xml:space="preserve">
<g>
	<polygon points="18.64,15.207 18.64,17.354 16.49,17.354 16.49,19.221 18.64,19.221 18.64,21.368 20.505,21.368 20.505,19.221 
		22.653,19.221 22.653,17.354 20.505,17.354 20.505,15.207 	"/>
	<path d="M9.388,8.654C8.953,9.038,9.09,9.913,9.896,9.536c0.81-0.377,2.931-1.136,4.583-1.136c5.448,0,9.882,4.432,9.882,9.878
		s-4.434,8.862-9.882,8.862c-5.446,0-9.877-3.416-9.877-8.862c0-1.728,0.908-4.419,1.23-4.763c0.322-0.348-0.493-1.226-0.818-0.612
		c-0.321,0.612-1.429,3.42-1.429,5.375c0,6.007,4.887,9.881,10.894,9.881c6.01,0,10.898-3.874,10.898-9.881
		c0-6.008-4.889-10.895-10.898-10.895C12.642,7.384,9.82,8.274,9.388,8.654z"/>
	<polygon points="15.693,20.148 11.109,20.148 11.109,19.081 15.153,19.081 15.153,17.041 11.109,17.041 11.109,15.973 
		15.561,15.973 15.561,13.776 8.469,13.776 8.469,22.345 15.693,22.345 	"/>
	<path d="M21.925,0l-0.244,0.022L21.659,0H0v33.416h28.021V8.991V6.362V6.098L21.925,0z M26.521,31.916H1.5V1.5h19.151v5.97h5.871
		V31.916z"/>
</g>
<g>
</g>
<g>
</g>
<g>
</g>
<g>
</g>
<g>
</g>
<g>
</g>
<g>
</g>
<g>
</g>
<g>
</g>
<g>
</g>
<g>
</g>
<g>
</g>
<g>
</g>
<g>
</g>
<g>
</g>
</svg>
