<?xml version="1.0" encoding="iso-8859-1"?>
<!-- Generator: Adobe Illustrator 16.0.0, SVG Export Plug-In . SVG Version: 6.00 Build 0)  -->
<!DOCTYPE svg PUBLIC "-//W3C//DTD SVG 1.1//EN" "http://www.w3.org/Graphics/SVG/1.1/DTD/svg11.dtd">
<svg version="1.1" id="Layer_1" xmlns="http://www.w3.org/2000/svg" xmlns:xlink="http://www.w3.org/1999/xlink" x="0px" y="0px"
	 width="31.248px" height="27.438px" viewBox="0 0 31.248 27.438" style="enable-background:new 0 0 31.248 27.438;"
	 xml:space="preserve">
<path d="M31.248,2.162V0H0v2.162h4.739v6.941v0.072l0.104,0.031c-1.045,1.827-1.64,3.944-1.607,6.196
	c0.093,6.73,5.645,12.13,12.374,12.036c4.733-0.065,8.805-2.833,10.772-6.81c0.422-0.85,0.746-1.755,0.961-2.701
	c0.054-0.239,0.1-0.481,0.14-0.726c0.113-0.695,0.171-1.408,0.161-2.137c-0.001-0.042-0.004-0.083-0.005-0.124
	c-0.009-0.358-0.031-0.712-0.07-1.062c-0.129-1.16-0.423-2.272-0.854-3.312c-0.033-0.076-0.063-0.155-0.096-0.231
	c-0.226-0.516-0.498-1.004-0.789-1.479l0.039-0.014V8.816V2.162h2.306v4.995h-1.152v3.926l0.116,0.3h3.469V7.156H29.84V2.162H31.248
	z M26.339,12.658c0.014,0.064,0.029,0.128,0.044,0.192l-0.078-0.15L26.339,12.658z M25.678,10.698l-0.116-0.003l-0.218,0.029v-0.495
	l0.072-0.078C25.508,10.33,25.597,10.513,25.678,10.698z M23.465,9.746L23.621,9.9l0.416,0.359l0.019,0.435l0.433,0.461l0.161-0.631
	l0.3-0.166l0.057,0.518l0.293,0.322l0.583-0.01c0.113,0.291,0.214,0.587,0.304,0.888l-0.064,0.058h-0.894l-0.543-0.405l-0.573,0.055
	v0.35h-0.181l-0.195-0.139l-0.991-0.252v-0.642l-1.258,0.098l-0.391,0.208h-0.498l-0.246-0.024l-0.606,0.335v0.634l-1.238,0.893
	l0.104,0.381h0.251l-0.065,0.364l-0.176,0.065l-0.01,0.95l1.07,1.219h0.466l0.027-0.074h0.838l0.241-0.223h0.475l0.262,0.26
	l0.706,0.074l-0.093,0.94l0.787,1.387l-0.414,0.792l0.027,0.372l0.327,0.325v0.896l0.427,0.576v0.745h0.37
	c-2.055,2.524-5.186,4.139-8.688,4.139c-6.178,0-11.201-5.024-11.201-11.201c0-1.553,0.318-3.037,0.895-4.383v0.637l0.465,0.224
	v0.887l0.446,0.763l0.362,0.053l0.047-0.259l-0.428-0.662l-0.084-0.642h0.252L6.3,12.511l0.619,0.902l-0.162,0.294l0.396,0.601
	l0.976,0.243v-0.159l0.394,0.056l-0.039,0.279l0.308,0.057l0.475,0.13l0.67,0.763l0.856,0.064l0.084,0.698l-0.586,0.41l-0.028,0.624
	l-0.084,0.381l0.848,1.062l0.064,0.364c0,0,0.308,0.083,0.345,0.083s0.688,0.494,0.688,0.494v1.917l0.232,0.065l-0.157,0.885
	l0.39,0.521l-0.071,0.877l0.517,0.908l0.662,0.579l0.667,0.013l0.066-0.215l-0.491-0.412l0.029-0.205l0.088-0.251l0.02-0.256
	l-0.332-0.008l-0.167-0.21l0.275-0.266l0.037-0.201l-0.307-0.087l0.018-0.185l0.438-0.067l0.666-0.32l0.224-0.41l0.698-0.893
	l-0.16-0.698l0.215-0.373l0.643,0.019l0.433-0.342l0.141-1.348l0.479-0.608l0.084-0.392l-0.438-0.14l-0.287-0.474l-0.987-0.008
	l-0.783-0.299l-0.036-0.558l-0.261-0.456l-0.708-0.011l-0.409-0.641l-0.363-0.177l-0.019,0.195l-0.661,0.04l-0.242-0.337
	l-0.688-0.139l-0.567,0.656l-0.894-0.152l-0.064-1.006l-0.653-0.111l0.262-0.495l-0.075-0.284l-0.857,0.573L8.186,14l-0.192-0.421
	l0.117-0.434l0.298-0.548l0.684-0.347h1.321l-0.003,0.402l0.475,0.222l-0.037-0.688l0.342-0.345l0.691-0.453l0.015-0.108
	l3.731,1.098l0.13,0.038l0.029-0.01l0.34-0.121V12.25l0.854-0.268l3.03-1.071l0.018,0.121l0.311,0.145l0.52-0.002l0.349-0.033
	l0.109-0.279l0.434-0.566l0.306-0.108l0.169,0.035l0.171-0.155l0.208-0.073l0.043,0.159l0.875,0.591l-0.108,0.142l-0.394-0.021
	l0.152,0.215l0.241,0.054l0.285-0.119l-0.005-0.342l0.126-0.063l-0.102-0.108l-0.584-0.325l-0.115-0.33l0.293-0.104H23.465z"/>
<g>
</g>
<g>
</g>
<g>
</g>
<g>
</g>
<g>
</g>
<g>
</g>
<g>
</g>
<g>
</g>
<g>
</g>
<g>
</g>
<g>
</g>
<g>
</g>
<g>
</g>
<g>
</g>
<g>
</g>
</svg>
