<?xml version="1.0" encoding="iso-8859-1"?>
<!-- Generator: Adobe Illustrator 16.0.0, SVG Export Plug-In . SVG Version: 6.00 Build 0)  -->
<!DOCTYPE svg PUBLIC "-//W3C//DTD SVG 1.1//EN" "http://www.w3.org/Graphics/SVG/1.1/DTD/svg11.dtd">
<svg version="1.1" id="Layer_1" xmlns="http://www.w3.org/2000/svg" xmlns:xlink="http://www.w3.org/1999/xlink" x="0px" y="0px"
	 width="31.841px" height="31.472px" viewBox="0 0 31.841 31.472" style="enable-background:new 0 0 31.841 31.472;"
	 xml:space="preserve">
<g>
	<polygon points="19.669,11.051 19.685,11.172 19.502,11.21 19.478,11.469 19.697,11.469 19.987,11.441 20.138,11.263 
		19.979,11.201 19.891,11.1 19.759,10.888 19.697,10.587 19.45,10.637 19.381,10.743 19.381,10.862 19.499,10.943 	"/>
	<polygon points="19.459,11.15 19.472,10.988 19.327,10.925 19.124,10.972 18.975,11.213 18.975,11.369 19.149,11.369 	"/>
	<path d="M15.091,12.121l0.131-0.011l0.083-0.052l0.021-0.104l0.107-0.009l0.042-0.087l-0.099-0.021l-0.085,0.002l-0.045,0.114
		h-0.216v0.111h0.052C15.083,12.066,15.085,12.09,15.091,12.121z"/>
	<polygon points="14.899,12.029 14.806,11.955 14.735,12.043 14.727,12.151 14.884,12.139 	"/>
	<path d="M23.629,3.149c-0.27,0.534-0.125,1.202,0.375,1.566c0.474,0.345,1.109,0.303,1.538-0.06
		c-0.023,0.203-0.1,0.598-0.365,0.891c0.847,0.604,1.131-0.656,0.618-1.189c0.032-0.053,0.063-0.105,0.088-0.16
		c0.186-0.328,0.363-1.143-0.43-1.691c-0.682-0.473-1.196-0.074-1.455,0.207c-0.079,0.059-0.152,0.127-0.218,0.206
		c-0.983-0.485-1.533,0.471-1.011,0.874C23.055,3.295,23.479,3.176,23.629,3.149z M24.006,3.199
		c0.182,0.053,0.468-0.119,0.468-0.119s0.064,0.092-0.14,0.372c0.111,0.161,0.724-0.14,0.724-0.14l-0.279,0.383
		c0.132,0.166,0.69,0.482,0.69,0.482l0.008,0.029c-0.006,0.01-0.01,0.02-0.016,0.026c-0.29,0.398-0.851,0.487-1.25,0.198
		C23.818,4.146,23.729,3.597,24.006,3.199z"/>
	<polygon points="21.491,8.033 21.491,8.034 22.276,6.956 22.462,7.092 21.677,8.17 21.585,8.296 22.082,8.658 22.174,8.531 
		22.065,8.452 22.851,7.374 23.495,7.844 23.763,6.142 24.112,5.732 24.127,6.988 24.603,7.182 24.587,5.18 24.195,4.895 
		23.771,4.586 23.416,4.327 21.559,4.799 21.469,5.292 22.891,4.969 22.68,5.354 21.057,6.067 21.889,6.673 21.103,7.751 
		20.992,7.672 20.901,7.798 21.399,8.16 	"/>
	<path d="M17.713,1.102c-0.084,0.586,0.323,1.127,0.909,1.21c0.585,0.081,1.126-0.324,1.21-0.911
		c0.051-0.365,0.226-0.682-0.028-0.912c-0.153-0.137-0.889-0.297-1.107-0.328c-0.262-0.037-0.631,0.128-0.837,0.258
		C17.602,0.581,17.758,0.776,17.713,1.102z M18.048,1.043c0.2-0.01,0.323,0.075,0.323,0.075l0.348-0.113
		c0,0-0.198,0.217-0.038,0.158c0.346-0.065,0.709,0.032,0.893,0.097c0.001,0.043,0.001,0.085-0.005,0.129
		c-0.062,0.437-0.459,0.74-0.888,0.68s-0.726-0.463-0.663-0.898C18.023,1.125,18.036,1.084,18.048,1.043z"/>
	<polygon points="17.745,3.262 17.441,5.145 17.651,5.174 17.465,6.496 17.332,6.477 17.31,6.632 17.919,6.718 17.94,6.563 
		18.128,5.242 18.355,5.274 18.169,6.595 18.147,6.75 18.756,6.837 18.777,6.681 18.644,6.662 18.831,5.342 19.087,5.377 
		19.328,3.673 19.864,4.696 20.18,4.32 19.344,2.59 17.942,2.392 16.484,4.06 16.796,4.497 	"/>
	<path d="M31.82,13.375c-0.131-0.818-0.774-0.916-1.157-0.906c-0.097-0.018-0.197-0.022-0.299-0.016
		c-0.33-1.045-1.4-0.781-1.331-0.125c0.558-0.139,0.936,0.086,1.06,0.176c-0.573,0.175-0.955,0.741-0.872,1.354
		c0.079,0.58,0.549,1.011,1.107,1.068c-0.162,0.124-0.501,0.343-0.896,0.354c0.148,1.028,1.257,0.362,1.287-0.377
		c0.06-0.014,0.119-0.027,0.175-0.048C31.261,14.763,31.972,14.327,31.82,13.375z M30.493,13.711c-0.028,0.21,0.13,0.832,0.13,0.832
		l-0.016,0.026c-0.011,0.002-0.021,0.006-0.031,0.007c-0.487,0.066-0.939-0.276-1.006-0.766c-0.065-0.48,0.269-0.925,0.747-1
		c0.088,0.167,0.409,0.256,0.409,0.256s-0.021,0.109-0.365,0.156c-0.038,0.19,0.602,0.425,0.602,0.425L30.493,13.711z"/>
	<polygon points="29.225,14.119 29.153,13.601 29.095,13.164 27.47,12.149 27.051,12.426 28.269,13.229 27.845,13.343 
		26.206,12.665 26.344,13.684 25.021,13.863 25.004,13.729 24.85,13.75 24.932,14.36 25.087,14.339 25.087,14.34 26.408,14.16 
		26.439,14.389 25.118,14.567 24.963,14.589 25.045,15.197 25.2,15.176 25.182,15.043 26.503,14.864 26.61,15.654 28.024,14.67 
		28.562,14.64 27.665,15.519 27.854,15.995 29.289,14.6 	"/>
	<path d="M29.282,9.423c0.335-0.155,0.696-0.181,0.751-0.52c0.031-0.202-0.232-0.906-0.326-1.108
		c-0.11-0.238-0.45-0.459-0.671-0.562c-0.275-0.128-0.356,0.11-0.654,0.248c-0.537,0.249-0.769,0.884-0.521,1.421
		C28.11,9.438,28.745,9.672,29.282,9.423z M28.491,7.773c0.041-0.018,0.082-0.029,0.123-0.042c0.115,0.163,0.111,0.312,0.111,0.312
		l0.285,0.23c0,0-0.291-0.049-0.153,0.053c0.242,0.256,0.356,0.615,0.403,0.804c-0.036,0.023-0.07,0.047-0.111,0.066
		c-0.399,0.184-0.87,0.017-1.052-0.378C27.915,8.427,28.092,7.959,28.491,7.773z"/>
	<polygon points="25.034,8.557 26.587,8.682 24.841,9.45 24.93,9.644 23.719,10.204 23.663,10.081 23.521,10.147 23.779,10.706 
		23.922,10.64 25.132,10.079 25.229,10.288 24.019,10.85 23.876,10.914 24.135,11.473 24.276,11.406 24.22,11.285 25.431,10.725 
		25.539,10.958 27.102,10.234 26.533,11.24 27.021,11.301 28.019,9.659 27.424,8.375 25.232,8.057 	"/>
	<path d="M28.209,23.988c0.5-0.977-0.448-1.542-0.858-1.025c0.493,0.293,0.605,0.719,0.63,0.869c-0.53-0.278-1.2-0.144-1.572,0.351
		c-0.352,0.469-0.32,1.104,0.036,1.539c-0.203-0.026-0.597-0.109-0.885-0.379c-0.618,0.837,0.639,1.141,1.18,0.637
		c0.051,0.032,0.104,0.064,0.158,0.089c0.325,0.191,1.137,0.382,1.698-0.401c0.483-0.675,0.094-1.196-0.186-1.459
		C28.354,24.128,28.286,24.055,28.209,23.988z M27.666,24.532c-0.161,0.108,0.129,0.726,0.129,0.726l-0.379-0.285
		c-0.167,0.129-0.493,0.684-0.493,0.684l-0.029,0.006c-0.009-0.006-0.019-0.01-0.026-0.016c-0.394-0.296-0.474-0.857-0.178-1.253
		c0.292-0.388,0.843-0.468,1.234-0.186c-0.054,0.182,0.112,0.47,0.112,0.47S27.943,24.74,27.666,24.532z"/>
	<polygon points="23.934,24.742 25.936,24.758 26.228,24.37 26.542,23.952 26.807,23.601 26.364,21.736 25.871,21.639 
		26.174,23.065 25.792,22.849 25.103,21.214 24.484,22.036 23.419,21.234 23.501,21.125 23.375,21.031 23.006,21.523 23.13,21.617 
		23.13,21.618 24.195,22.42 24.058,22.604 22.991,21.803 22.866,21.708 22.497,22.199 22.622,22.293 22.702,22.186 23.769,22.987 
		23.289,23.625 24.986,23.919 25.39,24.274 24.135,24.27 	"/>
	<path d="M30.348,19.295c-0.557-0.201-1.17,0.088-1.37,0.644s0.087,1.169,0.644,1.369c0.348,0.125,0.621,0.361,0.899,0.159
		c0.165-0.121,0.473-0.809,0.548-1.018c0.089-0.248,0.003-0.644-0.083-0.872C30.88,19.293,30.655,19.406,30.348,19.295z
		 M30.195,19.936l0.041,0.364c0,0-0.172-0.239-0.146-0.07c-0.008,0.352-0.179,0.688-0.278,0.854
		c-0.042-0.008-0.084-0.016-0.126-0.031c-0.413-0.149-0.63-0.6-0.483-1.007c0.147-0.407,0.601-0.616,1.016-0.468
		c0.042,0.016,0.079,0.036,0.117,0.057C30.304,19.832,30.195,19.936,30.195,19.936z"/>
	<polygon points="29.037,19.257 27.702,17.489 27.21,17.705 28.226,18.886 26.444,18.205 26.372,18.404 25.117,17.951 
		25.163,17.825 25.016,17.772 24.807,18.352 24.954,18.404 26.209,18.856 26.131,19.073 24.876,18.621 24.729,18.568 24.52,19.146 
		24.667,19.199 24.713,19.072 25.968,19.524 25.881,19.768 27.501,20.352 26.389,20.668 26.692,21.053 28.557,20.587 	"/>
	<path d="M19.381,28.686c0.13,0.559-0.101,0.934-0.191,1.056c-0.167-0.575-0.727-0.966-1.342-0.893
		c-0.581,0.069-1.019,0.532-1.085,1.09c-0.122-0.164-0.334-0.507-0.34-0.901c-1.031,0.133-0.381,1.251,0.357,1.293
		c0.012,0.061,0.025,0.119,0.045,0.177c0.087,0.366,0.511,1.085,1.465,0.948c0.821-0.119,0.928-0.76,0.925-1.143
		c0.019-0.098,0.025-0.197,0.021-0.299C20.285,29.699,20.037,28.625,19.381,28.686z M18.616,30.367c0,0-0.109-0.024-0.15-0.369
		c-0.19-0.041-0.435,0.596-0.435,0.596l-0.057-0.471c-0.209-0.031-0.833,0.116-0.833,0.116l-0.026-0.017
		c-0.002-0.011-0.005-0.02-0.007-0.031c-0.058-0.488,0.292-0.934,0.781-0.993c0.482-0.058,0.921,0.284,0.989,0.763
		C18.71,30.047,18.616,30.367,18.616,30.367z"/>
	<polygon points="17.587,28.848 18.107,28.785 18.544,28.733 19.584,27.124 19.313,26.701 18.492,27.906 18.386,27.48 
		19.089,25.853 18.067,25.975 17.909,24.65 18.044,24.633 18.024,24.479 17.414,24.552 17.433,24.707 17.432,24.707 17.59,26.031 
		17.361,26.059 17.203,24.734 17.186,24.579 16.574,24.652 16.594,24.807 16.727,24.791 16.885,26.115 16.094,26.211 17.055,27.639 
		17.077,28.177 16.212,27.267 15.732,27.448 17.105,28.905 	"/>
	<path d="M22.69,27.768c-0.54,0.239-0.783,0.87-0.543,1.412c0.149,0.338,0.169,0.698,0.507,0.76
		c0.202,0.034,0.911-0.219,1.114-0.309c0.24-0.107,0.466-0.443,0.572-0.663c0.132-0.273-0.105-0.357-0.238-0.657
		C23.862,27.77,23.23,27.527,22.69,27.768z M23.536,28.646l-0.235,0.279c0,0,0.054-0.289-0.05-0.153
		c-0.26,0.238-0.62,0.347-0.81,0.391c-0.023-0.036-0.047-0.071-0.064-0.112c-0.18-0.402-0.003-0.87,0.393-1.046
		c0.395-0.176,0.86,0.008,1.039,0.409c0.019,0.042,0.029,0.083,0.041,0.125C23.685,28.652,23.536,28.646,23.536,28.646z"/>
	<polygon points="23.576,25.152 23.08,24.945 22.931,26.496 22.189,24.738 21.995,24.825 21.453,23.605 21.577,23.551 
		21.514,23.408 20.951,23.657 21.015,23.801 21.557,25.02 21.346,25.113 20.804,23.895 20.74,23.75 20.18,24 20.243,24.143 
		20.365,24.089 20.907,25.309 20.672,25.412 21.37,26.987 20.373,26.402 20.305,26.889 21.931,27.913 23.224,27.338 	"/>
	<path d="M9.888,27.604c-0.212,0.534-0.614,0.711-0.759,0.76c0.19-0.567-0.048-1.207-0.596-1.498
		c-0.517-0.273-1.141-0.141-1.514,0.279c-0.005-0.204,0.015-0.606,0.234-0.934c-0.923-0.479-1.024,0.811-0.441,1.266
		c-0.024,0.057-0.048,0.112-0.063,0.171c-0.138,0.352-0.197,1.183,0.665,1.613c0.742,0.37,1.195-0.097,1.411-0.413
		c0.07-0.069,0.133-0.147,0.187-0.235C10.054,28.953,10.461,27.928,9.888,27.604z M8.748,28.367
		c-0.187-0.025-0.446,0.185-0.446,0.185s-0.076-0.082,0.086-0.389c-0.133-0.142-0.696,0.242-0.696,0.242l0.222-0.42
		c-0.153-0.144-0.752-0.378-0.752-0.378l-0.012-0.028c0.004-0.009,0.007-0.021,0.012-0.028c0.23-0.436,0.772-0.604,1.208-0.373
		C8.799,27.404,8.966,27.935,8.748,28.367z"/>
	<polygon points="11.259,25.108 10.35,24.627 10.973,23.448 11.093,23.512 11.166,23.374 10.622,23.086 10.549,23.225 
		10.549,23.224 9.925,24.402 9.722,24.295 10.345,23.116 10.418,22.979 9.875,22.691 9.802,22.828 9.921,22.892 9.297,24.07 
		8.592,23.698 8.57,25.421 8.282,25.875 8.089,24.635 7.591,24.51 7.891,26.49 8.32,26.717 8.783,26.962 9.172,27.168 
		10.942,26.437 10.961,25.935 9.601,26.458 9.755,26.047 	"/>
	<path d="M13.131,28.732c-0.58-0.109-1.141,0.271-1.25,0.853c-0.068,0.362-0.259,0.671-0.015,0.913
		c0.146,0.144,0.873,0.338,1.091,0.38c0.259,0.048,0.636-0.099,0.848-0.22c0.265-0.148,0.117-0.354,0.178-0.674
		C14.094,29.401,13.712,28.843,13.131,28.732z M13.645,30.025c-0.199,0-0.318-0.09-0.318-0.09l-0.354,0.098
		c0,0,0.21-0.207,0.046-0.156c-0.349,0.049-0.706-0.066-0.887-0.139c0.001-0.043,0.003-0.085,0.011-0.129
		c0.082-0.434,0.492-0.718,0.918-0.637c0.426,0.08,0.703,0.495,0.621,0.929C13.674,29.945,13.659,29.985,13.645,30.025z"/>
	<polygon points="14.052,27.824 14.442,25.957 14.234,25.918 14.482,24.607 14.615,24.632 14.645,24.479 14.039,24.363 
		14.01,24.517 13.762,25.828 13.535,25.785 13.784,24.475 13.813,24.32 13.209,24.207 13.18,24.36 13.313,24.385 13.063,25.695 
		12.811,25.648 12.489,27.34 12.002,26.291 11.67,26.653 12.424,28.42 13.813,28.684 15.348,27.087 15.057,26.635 	"/>
	<path d="M2.979,20.639c-0.532,0.216-0.939,0.048-1.073-0.022c0.541-0.255,0.839-0.87,0.67-1.466
		c-0.162-0.563-0.688-0.922-1.249-0.9c0.144-0.145,0.447-0.409,0.836-0.477c-0.294-0.998-1.294-0.179-1.22,0.557
		c-0.058,0.021-0.114,0.044-0.166,0.072c-0.35,0.145-0.991,0.676-0.705,1.596c0.246,0.793,0.896,0.797,1.274,0.732
		c0.098,0.004,0.197-0.005,0.297-0.026C2.119,21.691,3.142,21.277,2.979,20.639z M1.639,20.345c-0.11-0.153-0.442-0.195-0.442-0.195
		s0.007-0.112,0.341-0.207c0.011-0.194-0.657-0.335-0.657-0.335l0.456-0.131c-0.002-0.211-0.247-0.805-0.247-0.805l0.013-0.027
		c0.011-0.004,0.02-0.009,0.029-0.012c0.473-0.135,0.97,0.141,1.105,0.615C2.369,19.715,2.101,20.201,1.639,20.345z"/>
	<polygon points="6.768,18.678 6.917,18.635 6.749,18.043 6.599,18.086 6.598,18.086 5.316,18.451 5.253,18.229 6.535,17.865 
		6.686,17.822 6.518,17.229 6.367,17.273 6.404,17.402 5.122,17.768 4.902,17 3.644,18.177 3.116,18.283 3.878,17.285 3.623,16.84 
		2.401,18.426 2.534,18.893 2.678,19.396 2.799,19.819 4.552,20.592 4.926,20.258 3.607,19.638 4.011,19.465 5.729,19.902 
		5.447,18.913 6.73,18.547 	"/>
	<path d="M2.927,23.448c-0.31,0.2-0.663,0.276-0.67,0.62c-0.002,0.205,0.359,0.865,0.481,1.051c0.144,0.221,0.511,0.392,0.745,0.461
		c0.29,0.088,0.336-0.16,0.61-0.339c0.496-0.322,0.636-0.983,0.313-1.479S3.423,23.125,2.927,23.448z M3.944,24.968
		c-0.037,0.023-0.076,0.042-0.115,0.06c-0.139-0.146-0.156-0.293-0.156-0.293l-0.313-0.188c0,0,0.294,0.008,0.144-0.074
		c-0.276-0.219-0.44-0.557-0.513-0.737c0.031-0.028,0.063-0.057,0.101-0.081c0.368-0.24,0.858-0.141,1.094,0.222
		C4.421,24.238,4.313,24.728,3.944,24.968z"/>
	<polygon points="7.255,23.701 5.7,23.798 7.319,22.789 7.203,22.61 8.321,21.883 8.395,21.996 8.526,21.911 8.19,21.395 
		8.06,21.48 6.941,22.207 6.814,22.015 7.934,21.287 8.064,21.202 7.73,20.687 7.599,20.771 7.673,20.885 6.554,21.611 
		6.413,21.396 4.97,22.334 5.389,21.257 4.897,21.268 4.144,23.035 4.915,24.221 7.13,24.224 	"/>
	<path d="M2.377,8.548c0.067,0.071,0.146,0.135,0.23,0.188c-0.355,1.038,0.664,1.462,0.996,0.893c-0.53-0.22-0.701-0.625-0.747-0.77
		C3.422,9.059,4.065,8.83,4.362,8.287c0.282-0.514,0.16-1.139-0.254-1.518c0.204-0.003,0.605,0.023,0.93,0.249
		C5.53,6.103,4.243,5.98,3.78,6.557C3.724,6.532,3.667,6.507,3.609,6.49C3.261,6.348,2.43,6.275,1.986,7.131
		C1.604,7.867,2.063,8.327,2.377,8.548z M3.067,8.121c0.145-0.132-0.23-0.7-0.23-0.7l0.416,0.229c0.146-0.152,0.39-0.747,0.39-0.747
		l0.028-0.011C3.682,6.896,3.69,6.898,3.7,6.904c0.431,0.236,0.591,0.781,0.354,1.214c-0.234,0.427-0.767,0.583-1.195,0.36
		c0.028-0.188-0.178-0.449-0.178-0.449S2.764,7.954,3.067,8.121z"/>
	<polygon points="7.813,10.974 8.109,10.435 7.974,10.359 7.973,10.358 6.804,9.717 6.915,9.516 8.084,10.158 8.221,10.232 
		8.516,9.693 8.38,9.619 8.314,9.736 7.146,9.095 7.529,8.395 5.808,8.347 5.358,8.052 6.602,7.877 6.732,7.381 4.749,7.65 
		4.515,8.076 4.263,8.534 4.052,8.92 4.755,10.703 5.257,10.729 4.755,9.359 5.163,9.52 6.078,11.04 6.573,10.139 7.742,10.779 
		7.677,10.898 	"/>
	<path d="M1.046,14.069c0.579,0.12,1.144-0.254,1.263-0.833c0.12-0.578-0.252-1.144-0.832-1.263
		c-0.361-0.074-0.666-0.27-0.913-0.029c-0.146,0.144-0.352,0.867-0.396,1.085c-0.053,0.258,0.089,0.637,0.206,0.851
		C0.519,14.147,0.725,14.003,1.046,14.069z M1.013,13.059c0,0,0.202,0.211,0.154,0.049c-0.044-0.35,0.077-0.706,0.152-0.886
		c0.043,0.002,0.085,0.004,0.129,0.014c0.432,0.088,0.71,0.503,0.622,0.928c-0.087,0.424-0.507,0.695-0.938,0.606
		c-0.044-0.01-0.083-0.023-0.124-0.039c0.005-0.199,0.096-0.317,0.096-0.317L1.013,13.059z"/>
	<polygon points="4.412,11.809 2.633,12.535 2.348,13.92 3.921,15.479 4.377,15.195 3.203,14.172 5.063,14.592 5.106,14.385 
		6.413,14.652 6.387,14.785 6.539,14.816 6.663,14.214 6.511,14.183 5.204,13.914 5.251,13.688 6.557,13.957 6.71,13.987 
		6.834,13.387 6.681,13.354 6.653,13.486 5.347,13.217 5.398,12.965 3.713,12.617 4.769,12.146 	"/>
	<path d="M11.768,2.811c-0.141-0.557,0.083-0.937,0.173-1.06c0.177,0.573,0.744,0.952,1.356,0.868c0.58-0.08,1.01-0.551,1.066-1.109
		c0.125,0.162,0.343,0.5,0.355,0.894c1.028-0.15,0.358-1.257-0.381-1.286c-0.013-0.059-0.026-0.119-0.048-0.175
		c-0.094-0.365-0.53-1.075-1.482-0.921c-0.818,0.133-0.914,0.776-0.903,1.158c-0.018,0.098-0.022,0.197-0.015,0.299
		C10.845,1.813,11.111,2.882,11.768,2.811z M12.501,1.116c0,0,0.11,0.021,0.157,0.363c0.191,0.038,0.425-0.602,0.425-0.602
		l0.064,0.47c0.209,0.027,0.831-0.133,0.831-0.133l0.026,0.017c0.002,0.011,0.006,0.02,0.007,0.031
		c0.067,0.487-0.273,0.939-0.763,1.007c-0.481,0.067-0.926-0.267-1.002-0.744C12.413,1.437,12.501,1.116,12.501,1.116z"/>
	<polygon points="15.438,3.98 14.039,2.549 13.559,2.614 13.039,2.688 12.604,2.746 11.593,4.375 11.871,4.793 12.67,3.573 
		12.785,3.996 12.111,5.637 13.131,5.497 13.313,6.818 13.179,6.836 13.2,6.991 13.81,6.907 13.788,6.752 13.789,6.752 
		13.606,5.432 13.834,5.4 14.017,6.722 14.038,6.876 14.647,6.791 14.625,6.637 14.492,6.656 14.31,5.334 15.101,5.225 
		14.112,3.813 14.08,3.276 14.961,4.171 	"/>
	<path d="M6.374,4.234c0.337,0.488,1.002,0.61,1.488,0.274c0.486-0.335,0.609-1,0.273-1.489C7.927,2.716,7.841,2.365,7.497,2.368
		C7.292,2.371,6.642,2.751,6.46,2.877c-0.217,0.15-0.377,0.521-0.44,0.758C5.939,3.928,6.188,3.967,6.374,4.234z M6.871,3.803
		l0.178-0.318c0,0,0.001,0.293,0.079,0.141c0.21-0.282,0.544-0.455,0.723-0.533C7.88,3.122,7.909,3.152,7.935,3.19
		c0.249,0.362,0.164,0.854-0.192,1.101C7.386,4.536,6.895,4.442,6.645,4.08C6.62,4.043,6.601,4.004,6.582,3.965
		C6.723,3.824,6.871,3.803,6.871,3.803z"/>
	<polygon points="7.476,7.243 8.001,7.354 7.862,5.803 8.915,7.394 9.091,7.272 9.847,8.371 9.736,8.446 9.825,8.576 10.332,8.227 
		10.243,8.098 9.485,7 9.676,6.869 10.433,7.967 10.522,8.096 11.027,7.747 10.938,7.617 10.828,7.694 10.07,6.596 10.282,6.45 
		9.305,5.032 10.393,5.422 10.37,4.932 8.583,4.226 7.419,5.029 	"/>
	<path d="M9.425,10.598c-1.072,1.387-1.712,3.123-1.712,5.007c0,4.523,3.681,8.204,8.204,8.204c3.182,0,5.944-1.822,7.305-4.477
		c0.291-0.568,0.518-1.174,0.67-1.807c0.038-0.161,0.072-0.322,0.101-0.486c0.083-0.467,0.128-0.945,0.128-1.435
		c0-0.028-0.001-0.056-0.002-0.085c-0.002-0.24-0.015-0.479-0.037-0.713c-0.075-0.781-0.263-1.531-0.543-2.233h0.007l-0.024-0.138
		l-0.045-0.02c-0.373-0.881-0.897-1.684-1.538-2.377c-0.042-0.045-0.085-0.09-0.128-0.133c-0.122-0.127-0.246-0.249-0.375-0.367
		C19.977,8.211,18.039,7.4,15.917,7.4c-2.141,0-4.093,0.825-5.555,2.174C10.021,9.888,9.708,10.23,9.425,10.598z M9.559,11.58
		l0.012,0.137l-0.313,0.379C9.352,11.92,9.452,11.748,9.559,11.58z M21.389,10.81l0.002-0.366c0.129,0.137,0.253,0.276,0.371,0.423
		l-0.147,0.22l-0.517-0.005l-0.032-0.107L21.389,10.81z M11.493,9.898V9.885h0.164l0.015-0.057h0.269v0.117l-0.077,0.104h-0.37
		V9.898z M11.756,10.265c0,0,0.164-0.027,0.178-0.027c0.015,0,0,0.164,0,0.164l-0.37,0.022l-0.07-0.084L11.756,10.265z M10.991,14.2
		l0.199-0.368l0.46-0.232h0.889l-0.003,0.271l0.319,0.148l-0.025-0.462l0.229-0.232l0.465-0.305l0.031-0.215l0.463-0.481
		l0.493-0.272l-0.044-0.036l0.333-0.313l0.123,0.032l0.056,0.07l0.126-0.141l0.031-0.014l-0.139-0.019l-0.141-0.047v-0.137
		l0.074-0.061h0.165l0.075,0.033l0.065,0.131l0.08-0.012v-0.012l0.022,0.008l0.23-0.036l0.033-0.112l0.131,0.033v0.121l-0.122,0.085
		l0.019,0.134l0.418,0.129c0,0,0.001,0.002,0.001,0.005l0.096-0.009l0.007-0.181l-0.331-0.151l-0.019-0.086l0.274-0.094l0.013-0.264
		l-0.287-0.175l-0.02-0.444l-0.394,0.193h-0.145l0.038-0.338l-0.537-0.127l-0.222,0.168v0.512l-0.399,0.127l-0.159,0.332
		l-0.174,0.029V10.96l-0.375-0.052l-0.188-0.123l-0.075-0.275l0.671-0.394l0.328-0.101l0.033,0.222l0.183-0.01l0.015-0.111
		l0.191-0.027l0.003-0.038l-0.082-0.035l-0.019-0.117l0.235-0.02l0.142-0.146l0.008-0.012h0.002l0.043-0.044l0.495-0.063L15.62,9.8
		l-0.573,0.306l0.729,0.172l0.095-0.244h0.319l0.112-0.213l-0.226-0.056V9.496L15.37,9.183l-0.487,0.056l-0.275,0.145l0.019,0.35
		l-0.288-0.043l-0.044-0.193l0.275-0.251l-0.5-0.024l-0.145,0.043l-0.063,0.169l0.188,0.032l-0.038,0.187L13.693,9.67l-0.05,0.125
		l-0.463,0.014c0,0-0.013-0.263-0.031-0.263s0.362-0.007,0.362-0.007l0.276-0.269l-0.15-0.075l-0.2,0.193L13.105,9.37l-0.2-0.275
		h-0.426l-0.443,0.331h0.406l0.037,0.12l-0.105,0.1l0.45,0.013l0.069,0.162l-0.508-0.018l-0.024-0.126l-0.319-0.069l-0.169-0.094
		l-0.38,0.004c1.243-0.906,2.771-1.442,4.424-1.442c1.903,0,3.644,0.712,4.971,1.882l-0.09,0.159l-0.347,0.136l-0.146,0.159
		l0.033,0.186l0.179,0.024l0.109,0.271l0.308-0.125l0.052,0.361h-0.094l-0.254-0.038l-0.28,0.048l-0.273,0.385l-0.39,0.062
		l-0.056,0.332l0.165,0.039l-0.048,0.215l-0.387-0.077l-0.354,0.077l-0.075,0.197l0.062,0.414l0.208,0.098l0.349-0.002l0.236-0.021
		l0.072-0.188l0.369-0.479l0.241,0.05l0.239-0.216l0.044,0.169l0.589,0.396l-0.072,0.096l-0.265-0.014l0.102,0.145l0.163,0.036
		l0.191-0.08l-0.004-0.23l0.085-0.042l-0.067-0.072l-0.393-0.219l-0.104-0.291h0.326l0.104,0.104l0.281,0.242l0.012,0.293
		l0.291,0.31l0.107-0.425l0.202-0.109l0.038,0.347l0.196,0.216l0.393-0.007c0.076,0.196,0.144,0.395,0.204,0.597l-0.042,0.039
		h-0.602l-0.365-0.272l-0.385,0.037v0.235h-0.122l-0.132-0.094l-0.666-0.169v-0.432l-0.845,0.065l-0.263,0.141h-0.335l-0.165-0.017
		l-0.407,0.227v0.426l-0.832,0.601l0.068,0.256h0.169l-0.044,0.244l-0.119,0.044l-0.006,0.638l0.72,0.819h0.313l0.019-0.05h0.563
		l0.162-0.149h0.319l0.175,0.175l0.476,0.05l-0.063,0.632l0.528,0.933l-0.278,0.532l0.019,0.25l0.22,0.219v0.602l0.287,0.387v0.501
		h0.248c-1.382,1.696-3.485,2.782-5.839,2.782c-4.151,0-7.529-3.377-7.529-7.528c0-1.045,0.215-2.041,0.601-2.946v0.428l0.313,0.15
		v0.596l0.3,0.512l0.244,0.038l0.031-0.175L9.59,13.762L9.533,13.33h0.169l0.071,0.444l0.416,0.607l-0.107,0.196l0.265,0.404
		l0.657,0.162v-0.105l0.262,0.037l-0.024,0.188l0.206,0.038l0.319,0.087l0.451,0.514l0.575,0.043l0.056,0.47l-0.394,0.275
		l-0.019,0.419l-0.057,0.257l0.569,0.713l0.044,0.244c0,0,0.206,0.056,0.231,0.056c0.024,0,0.463,0.332,0.463,0.332V20l0.156,0.044
		l-0.106,0.595L14,20.988l-0.049,0.59l0.348,0.609l0.446,0.39l0.447,0.009l0.044-0.145l-0.329-0.277l0.02-0.137l0.059-0.169
		l0.013-0.173l-0.223-0.006l-0.112-0.141l0.186-0.179l0.024-0.135l-0.207-0.059l0.013-0.125l0.294-0.045l0.448-0.215l0.149-0.275
		l0.47-0.601l-0.107-0.47l0.145-0.25l0.432,0.013L16.8,18.97l0.094-0.906l0.322-0.409l0.057-0.264l-0.294-0.094l-0.194-0.318
		l-0.663-0.007l-0.525-0.2l-0.025-0.375l-0.175-0.307l-0.476-0.007l-0.275-0.432l-0.243-0.118l-0.013,0.131l-0.444,0.026
		l-0.163-0.227l-0.463-0.094l-0.382,0.441l-0.601-0.103l-0.044-0.677l-0.438-0.075l0.175-0.332l-0.05-0.19l-0.576,0.385
		l-0.362-0.044l-0.129-0.283L10.991,14.2z M12.188,11.128l0.197-0.094l0.178,0.042l-0.061,0.239l-0.192,0.062L12.188,11.128z
		 M13.233,11.691v0.155h-0.45l-0.169-0.048l0.042-0.107l0.217-0.09h0.295v0.09H13.233z M13.44,11.907v0.15l-0.113,0.072l-0.14,0.026
		c0,0,0-0.226,0-0.249H13.44z M13.313,11.847v-0.179l0.154,0.141L13.313,11.847z M13.384,12.207v0.146l-0.107,0.107h-0.239
		l0.037-0.164l0.113-0.01l0.023-0.057L13.384,12.207z M12.788,11.907h0.249l-0.319,0.446l-0.132-0.071l0.028-0.188L12.788,11.907z
		 M13.807,12.156v0.146h-0.239l-0.066-0.095v-0.136h0.02L13.807,12.156z M13.586,11.955l0.068-0.071l0.114,0.071l-0.092,0.076
		L13.586,11.955z"/>
</g>
<g>
</g>
<g>
</g>
<g>
</g>
<g>
</g>
<g>
</g>
<g>
</g>
<g>
</g>
<g>
</g>
<g>
</g>
<g>
</g>
<g>
</g>
<g>
</g>
<g>
</g>
<g>
</g>
<g>
</g>
</svg>
