<?xml version="1.0" encoding="iso-8859-1"?>
<!-- Generator: Adobe Illustrator 16.0.0, SVG Export Plug-In . SVG Version: 6.00 Build 0)  -->
<!DOCTYPE svg PUBLIC "-//W3C//DTD SVG 1.1//EN" "http://www.w3.org/Graphics/SVG/1.1/DTD/svg11.dtd">
<svg version="1.1" id="Layer_1" xmlns="http://www.w3.org/2000/svg" xmlns:xlink="http://www.w3.org/1999/xlink" x="0px" y="0px"
	 width="31.464px" height="23.519px" viewBox="0 0 31.464 23.519" style="enable-background:new 0 0 31.464 23.519;"
	 xml:space="preserve">
<g>
	<path d="M30.219,3.037V1.056l-0.287-0.113C29.835,0.904,27.506,0,24.399,0c-3.328,0-6.194,1.014-8.527,3.015
		C13.54,1.014,10.673,0,7.345,0C4.238,0,1.909,0.904,1.812,0.942L1.526,1.056v1.835C0.585,3.067,0,3.383,0,3.896
		c0,2.676,0,18.918,0,18.918h13.932c0.482,0.432,1.187,0.704,1.975,0.704s1.493-0.272,1.975-0.704h13.583c0,0,0-17.979,0-18.918
		C31.464,3.478,30.99,3.205,30.219,3.037z M15.722,21.322c-1.157-0.476-5.141-1.991-9.13-1.991c-1.576,0-2.973,0.241-4.163,0.719
		V1.681c0.694-0.231,2.587-0.779,4.917-0.779c3.064,0,5.696,0.927,7.846,2.734v10.963l0.531-0.584V21.322z M29.316,20.054
		c-1.278-0.513-2.744-0.772-4.371-0.772c-3.987,0-7.783,1.528-8.924,2.031v-7.298l0.531,0.584V3.636
		c2.15-1.808,4.783-2.734,7.846-2.734c2.322,0,4.221,0.549,4.917,0.779V20.054z"/>
	<path d="M4.215,4.097l0.188,0.707c4.705-1.247,8.938,1.062,8.98,1.086l0.356-0.64C13.557,5.149,9.211,2.773,4.215,4.097z"/>
	<path d="M4.215,6.167l0.188,0.706c4.705-1.248,8.938,1.062,8.98,1.084l0.356-0.637C13.557,7.218,9.211,4.844,4.215,6.167z"/>
	<path d="M4.215,8.111l0.188,0.707c4.705-1.246,8.938,1.063,8.98,1.086l0.356-0.64C13.557,9.163,9.211,6.789,4.215,8.111z"/>
	<path d="M4.215,10.244l0.188,0.706c4.705-1.248,8.938,1.062,8.98,1.086l0.356-0.639C13.557,11.295,9.211,8.919,4.215,10.244z"/>
	<path d="M4.215,12.219l0.188,0.707c4.705-1.248,8.938,1.062,8.98,1.086l0.356-0.64C13.557,13.271,9.211,10.896,4.215,12.219z"/>
	<path d="M4.215,14.249l0.188,0.705c4.705-1.247,8.938,1.063,8.98,1.086l0.356-0.638C13.557,15.3,9.211,12.925,4.215,14.249z"/>
	<path d="M4.215,16.281l0.188,0.707c4.705-1.248,8.938,1.062,8.98,1.085l0.356-0.638C13.557,17.333,9.211,14.958,4.215,16.281z"/>
	<path d="M22.944,6.978v-0.8h-0.521v0.8c-0.314,0-0.631,0.046-0.951,0.136c-0.321,0.09-0.609,0.23-0.866,0.42
		c-0.257,0.191-0.467,0.434-0.631,0.731C19.812,8.561,19.73,8.914,19.73,9.32c0,0.288,0.043,0.529,0.13,0.727
		c0.086,0.197,0.21,0.367,0.37,0.51c0.161,0.145,0.354,0.268,0.581,0.371s0.478,0.201,0.751,0.295
		c0.153,0.053,0.302,0.099,0.446,0.135c0.144,0.037,0.281,0.075,0.415,0.115v1.412c-0.193-0.015-0.344-0.056-0.45-0.125
		c-0.107-0.07-0.189-0.154-0.246-0.252c-0.057-0.096-0.093-0.198-0.11-0.306c-0.017-0.104-0.025-0.202-0.025-0.289H19.45
		c0.014,0.327,0.077,0.645,0.19,0.951c0.113,0.307,0.289,0.578,0.525,0.815c0.237,0.238,0.541,0.428,0.911,0.571
		c0.371,0.143,0.82,0.215,1.347,0.215v0.99h0.521v-0.99c0.527,0,0.976-0.07,1.346-0.209c0.37-0.141,0.672-0.321,0.906-0.542
		c0.233-0.22,0.402-0.467,0.505-0.74c0.104-0.273,0.155-0.547,0.155-0.82c0-0.281-0.03-0.542-0.09-0.782
		c-0.061-0.239-0.191-0.462-0.396-0.664c-0.204-0.204-0.498-0.392-0.881-0.563c-0.384-0.169-0.899-0.324-1.546-0.465V8.56
		c0.126,0.026,0.233,0.059,0.32,0.091c0.086,0.033,0.158,0.076,0.215,0.13c0.056,0.054,0.1,0.124,0.129,0.209
		c0.031,0.088,0.052,0.194,0.066,0.322h1.911c0-0.407-0.071-0.759-0.215-1.053c-0.144-0.293-0.337-0.534-0.581-0.726
		c-0.243-0.189-0.525-0.33-0.846-0.42C23.625,7.023,23.291,6.978,22.944,6.978z M22.423,9.561c-0.474-0.094-0.711-0.274-0.711-0.539
		c0-0.201,0.074-0.328,0.22-0.382c0.147-0.054,0.311-0.08,0.491-0.08V9.561z M23.554,11.878c0.146,0.091,0.22,0.223,0.22,0.396
		c0,0.194-0.08,0.339-0.24,0.436c-0.16,0.096-0.357,0.155-0.59,0.176v-1.272C23.204,11.7,23.407,11.788,23.554,11.878z"/>
</g>
<g>
</g>
<g>
</g>
<g>
</g>
<g>
</g>
<g>
</g>
<g>
</g>
<g>
</g>
<g>
</g>
<g>
</g>
<g>
</g>
<g>
</g>
<g>
</g>
<g>
</g>
<g>
</g>
<g>
</g>
</svg>
