<?xml version="1.0" encoding="iso-8859-1"?>
<!-- Generator: Adobe Illustrator 16.0.0, SVG Export Plug-In . SVG Version: 6.00 Build 0)  -->
<!DOCTYPE svg PUBLIC "-//W3C//DTD SVG 1.1//EN" "http://www.w3.org/Graphics/SVG/1.1/DTD/svg11.dtd">
<svg version="1.1" id="Layer_1" xmlns="http://www.w3.org/2000/svg" xmlns:xlink="http://www.w3.org/1999/xlink" x="0px" y="0px"
	 width="31.464px" height="23.519px" viewBox="0 0 31.464 23.519" style="enable-background:new 0 0 31.464 23.519;"
	 xml:space="preserve">
<g>
	<path d="M24.086,8.465c0.381,0,0.771,0.131,1.171,0.391l0.712-1.513c-0.708-0.373-1.379-0.561-2.013-0.561
		c-0.801,0-1.488,0.237-2.062,0.711c-0.561,0.462-0.948,1.092-1.161,1.893h-0.431l-0.371,0.891h0.671
		c-0.006,0.026-0.01,0.061-0.01,0.101c0,0.033,0,0.073,0,0.12s0,0.091,0,0.13c0,0.033,0.004,0.063,0.01,0.092h-0.28l-0.37,0.89
		h0.781c0.207,0.78,0.586,1.407,1.141,1.882c0.561,0.461,1.241,0.689,2.042,0.689c0.641,0,1.191-0.104,1.652-0.31v-1.862
		c-0.507,0.335-0.971,0.501-1.392,0.501c-0.634,0-1.075-0.3-1.321-0.9h1.341l0.371-0.89h-1.892
		c-0.008-0.034-0.011-0.068-0.011-0.102c0-0.04,0-0.084,0-0.129c0-0.042,0-0.078,0-0.111c0-0.034,0.003-0.067,0.011-0.101h2.063
		l0.369-0.891h-2.272C23.089,8.771,23.507,8.465,24.086,8.465z"/>
	<path d="M30.219,3.036V1.055l-0.285-0.113C29.836,0.904,27.507,0,24.4,0c-3.328,0-6.195,1.013-8.527,3.014
		C13.54,1.013,10.674,0,7.347,0C4.239,0,1.91,0.904,1.813,0.942L1.526,1.055v1.836C0.586,3.065,0,3.382,0,3.896
		c0,2.677,0,18.919,0,18.919h13.934c0.481,0.431,1.186,0.704,1.975,0.704c0.788,0,1.492-0.273,1.974-0.704h13.582
		c0,0,0-17.979,0-18.919C31.464,3.477,30.989,3.204,30.219,3.036z M15.723,21.322c-1.156-0.478-5.142-1.992-9.131-1.992
		c-1.576,0-2.974,0.241-4.163,0.719V1.68C3.123,1.447,5.016,0.9,7.347,0.9c3.063,0,5.694,0.928,7.845,2.734V14.6l0.531-0.586V21.322
		z M29.316,20.054c-1.277-0.513-2.744-0.772-4.37-0.772c-3.987,0-7.782,1.527-8.924,2.03v-7.298l0.531,0.586V3.635
		C18.703,1.828,21.336,0.9,24.4,0.9c2.322,0,4.221,0.548,4.916,0.779V20.054z"/>
	<path d="M4.216,4.097l0.188,0.707c4.704-1.248,8.938,1.061,8.979,1.085L13.74,5.25C13.558,5.149,9.211,2.773,4.216,4.097z"/>
	<path d="M4.216,6.166l0.188,0.707c4.704-1.249,8.938,1.062,8.979,1.085l0.357-0.639C13.558,7.218,9.211,4.843,4.216,6.166z"/>
	<path d="M4.216,8.111l0.188,0.707c4.704-1.247,8.938,1.063,8.979,1.084l0.357-0.639C13.558,9.162,9.211,6.788,4.216,8.111z"/>
	<path d="M4.216,10.243l0.188,0.707c4.704-1.248,8.938,1.061,8.979,1.085l0.357-0.639C13.558,11.294,9.211,8.918,4.216,10.243z"/>
	<path d="M4.216,12.218l0.188,0.707c4.704-1.246,8.938,1.062,8.979,1.086l0.357-0.639C13.558,13.271,9.211,10.896,4.216,12.218z"/>
	<path d="M4.216,14.247l0.188,0.706c4.704-1.246,8.938,1.063,8.979,1.086l0.357-0.638C13.558,15.298,9.211,12.924,4.216,14.247z"/>
	<path d="M4.216,16.281l0.188,0.707c4.704-1.248,8.938,1.062,8.979,1.085l0.357-0.639C13.558,17.333,9.211,14.957,4.216,16.281z"/>
</g>
<g>
</g>
<g>
</g>
<g>
</g>
<g>
</g>
<g>
</g>
<g>
</g>
<g>
</g>
<g>
</g>
<g>
</g>
<g>
</g>
<g>
</g>
<g>
</g>
<g>
</g>
<g>
</g>
<g>
</g>
</svg>
