<?xml version="1.0" encoding="iso-8859-1"?>
<!-- Generator: Adobe Illustrator 16.0.0, SVG Export Plug-In . SVG Version: 6.00 Build 0)  -->
<!DOCTYPE svg PUBLIC "-//W3C//DTD SVG 1.1//EN" "http://www.w3.org/Graphics/SVG/1.1/DTD/svg11.dtd">
<svg version="1.1" id="Layer_1" xmlns="http://www.w3.org/2000/svg" xmlns:xlink="http://www.w3.org/1999/xlink" x="0px" y="0px"
	 width="27.321px" height="26.594px" viewBox="0 0 27.321 26.594" style="enable-background:new 0 0 27.321 26.594;"
	 xml:space="preserve">
<g>
	<path d="M1.29,25.304V9.381l3.215,1.596c-0.049,0.186-0.083,0.377-0.083,0.578c0,1.268,1.03,2.298,2.297,2.298
		c1.268,0,2.297-1.03,2.297-2.298c0-0.255-0.051-0.496-0.13-0.727l1.538-0.895c0.405,0.655,1.123,1.094,1.947,1.094
		c0.613,0,1.168-0.244,1.58-0.636l2.544,2.613c-0.268,0.375-0.43,0.833-0.43,1.329h-0.471v0.161h0.487
		c0.084,1.19,1.068,2.134,2.281,2.134c0.715,0,1.348-0.334,1.77-0.85l1.688,0.971c-0.094,0.251-0.151,0.518-0.151,0.801
		c0,1.267,1.03,2.297,2.297,2.297s2.296-1.03,2.296-2.297c0-1.268-1.029-2.298-2.296-2.298c-0.755,0-1.42,0.372-1.839,0.935
		l-1.655-0.948c0.12-0.277,0.188-0.584,0.188-0.905c0-1.268-1.03-2.298-2.296-2.298c-0.539,0-1.027,0.193-1.42,0.505l-2.592-2.664
		c0.196-0.34,0.317-0.727,0.317-1.146c0-0.119-0.019-0.233-0.036-0.348h0.459V8.223h-0.484c-0.233-1.022-1.145-1.788-2.236-1.788
		c-1.266,0-2.297,1.029-2.297,2.297c0,0.211,0.038,0.412,0.092,0.607l-1.563,0.909C8.188,9.65,7.5,9.259,6.719,9.259
		c-0.837,0-1.563,0.453-1.964,1.122L1.29,8.659V0H0v26.594h27.321v-1.29H1.29z M23.966,15.898c0.911,0,1.652,0.74,1.652,1.652
		c0,0.911-0.741,1.652-1.652,1.652s-1.652-0.741-1.652-1.652C22.313,16.639,23.055,15.898,23.966,15.898z M20.015,14.334h-0.454
		v0.161h0.438c-0.083,0.835-0.78,1.49-1.636,1.49c-0.911,0-1.652-0.742-1.652-1.651c0-0.911,0.741-1.653,1.652-1.653
		C19.273,12.681,20.015,13.423,20.015,14.334z M12.371,7.078c0.91,0,1.652,0.741,1.652,1.653c0,0.91-0.742,1.651-1.652,1.651
		s-1.652-0.741-1.652-1.651c0-0.119,0.014-0.235,0.039-0.348h0.369V8.223h-0.319C11.023,7.562,11.639,7.078,12.371,7.078z
		 M6.719,9.902c0.911,0,1.651,0.741,1.651,1.652s-0.74,1.653-1.651,1.653c-0.912,0-1.652-0.742-1.652-1.653S5.807,9.902,6.719,9.902
		z"/>
	<rect x="26.169" y="2.216" width="0.322" height="0.161"/>
	<rect x="3.699" y="2.216" width="0.66" height="0.161"/>
	<rect x="24.848" y="2.216" width="0.659" height="0.161"/>
	<rect x="5.021" y="2.216" width="0.66" height="0.161"/>
	<rect x="6.342" y="2.216" width="0.661" height="0.161"/>
	<rect x="22.204" y="2.216" width="0.66" height="0.161"/>
	<rect x="23.524" y="2.216" width="0.662" height="0.161"/>
	<rect x="19.561" y="2.216" width="0.66" height="0.161"/>
	<rect x="2.377" y="2.216" width="0.661" height="0.161"/>
	<rect x="16.917" y="2.216" width="0.66" height="0.161"/>
	<rect x="20.882" y="2.216" width="0.661" height="0.161"/>
	<rect x="18.238" y="2.216" width="0.661" height="0.161"/>
	<rect x="10.308" y="2.216" width="0.661" height="0.161"/>
	<rect x="12.952" y="2.216" width="0.659" height="0.161"/>
	<rect x="11.629" y="2.216" width="0.661" height="0.161"/>
	<rect x="8.985" y="2.216" width="0.661" height="0.161"/>
	<rect x="15.595" y="2.216" width="0.661" height="0.161"/>
	<rect x="14.273" y="2.216" width="0.66" height="0.161"/>
	<rect x="7.665" y="2.216" width="0.661" height="0.161"/>
	<rect x="1.394" y="2.216" width="0.323" height="0.161"/>
	<rect x="26.327" y="8.223" width="0.322" height="0.161"/>
	<rect x="15.753" y="8.223" width="0.661" height="0.161"/>
	<rect x="7.823" y="8.223" width="0.661" height="0.161"/>
	<rect x="9.145" y="8.223" width="0.66" height="0.161"/>
	<rect x="18.396" y="8.223" width="0.662" height="0.161"/>
	<rect x="6.5" y="8.223" width="0.661" height="0.161"/>
	<rect x="3.857" y="8.223" width="0.661" height="0.161"/>
	<rect x="2.536" y="8.223" width="0.66" height="0.161"/>
	<rect x="5.18" y="8.223" width="0.661" height="0.161"/>
	<rect x="17.076" y="8.223" width="0.659" height="0.161"/>
	<rect x="22.363" y="8.223" width="0.658" height="0.161"/>
	<rect x="23.684" y="8.223" width="0.661" height="0.161"/>
	<rect x="21.04" y="8.223" width="0.661" height="0.161"/>
	<rect x="25.006" y="8.223" width="0.659" height="0.161"/>
	<rect x="19.719" y="8.223" width="0.66" height="0.161"/>
	<rect x="1.553" y="8.223" width="0.322" height="0.161"/>
	<rect x="26.169" y="14.334" width="0.322" height="0.161"/>
	<rect x="11.629" y="14.334" width="0.661" height="0.161"/>
	<rect x="2.377" y="14.334" width="0.661" height="0.161"/>
	<rect x="5.021" y="14.334" width="0.66" height="0.161"/>
	<rect x="7.665" y="14.334" width="0.661" height="0.161"/>
	<rect x="8.985" y="14.334" width="0.661" height="0.161"/>
	<rect x="6.342" y="14.334" width="0.661" height="0.161"/>
	<rect x="10.308" y="14.334" width="0.661" height="0.161"/>
	<rect x="3.699" y="14.334" width="0.66" height="0.161"/>
	<rect x="22.204" y="14.334" width="0.66" height="0.161"/>
	<rect x="20.882" y="14.334" width="0.661" height="0.161"/>
	<path d="M16.917,14.334v0.161h0.414c0.075,0.504,0.505,0.895,1.031,0.895c0.577,0,1.047-0.468,1.047-1.047
		c0-0.577-0.47-1.046-1.047-1.046c-0.575,0-1.039,0.464-1.045,1.037H16.917z"/>
	<rect x="23.524" y="14.334" width="0.662" height="0.161"/>
	<rect x="24.848" y="14.334" width="0.659" height="0.161"/>
	<rect x="14.273" y="14.334" width="0.66" height="0.161"/>
	<rect x="12.952" y="14.334" width="0.659" height="0.161"/>
	<rect x="1.394" y="14.334" width="0.323" height="0.161"/>
	<rect x="26.17" y="20.647" width="0.322" height="0.159"/>
	<rect x="5.021" y="20.647" width="0.66" height="0.159"/>
	<rect x="12.952" y="20.647" width="0.659" height="0.159"/>
	<rect x="14.273" y="20.647" width="0.661" height="0.159"/>
	<rect x="15.596" y="20.647" width="0.66" height="0.159"/>
	<rect x="18.239" y="20.647" width="0.66" height="0.159"/>
	<rect x="19.561" y="20.647" width="0.661" height="0.159"/>
	<rect x="16.917" y="20.647" width="0.661" height="0.159"/>
	<rect x="7.665" y="20.647" width="0.661" height="0.159"/>
	<rect x="8.986" y="20.647" width="0.662" height="0.159"/>
	<rect x="10.308" y="20.647" width="0.661" height="0.159"/>
	<rect x="11.63" y="20.647" width="0.661" height="0.159"/>
	<rect x="6.344" y="20.647" width="0.66" height="0.159"/>
	<rect x="20.883" y="20.647" width="0.66" height="0.159"/>
	<rect x="2.377" y="20.647" width="0.662" height="0.159"/>
	<rect x="24.848" y="20.647" width="0.66" height="0.159"/>
	<rect x="3.699" y="20.647" width="0.661" height="0.159"/>
	<rect x="22.204" y="20.647" width="0.661" height="0.159"/>
	<rect x="23.525" y="20.647" width="0.661" height="0.159"/>
	<rect x="1.395" y="20.647" width="0.322" height="0.159"/>
	<circle cx="6.713" cy="11.57" r="1.047"/>
	<path d="M12.371,9.777c0.578,0,1.047-0.47,1.047-1.046c0-0.123-0.025-0.238-0.063-0.348h0.417V8.223h-0.49
		c-0.179-0.319-0.517-0.538-0.91-0.538c-0.577,0-1.045,0.468-1.045,1.047C11.326,9.308,11.794,9.777,12.371,9.777z"/>
	<circle cx="23.965" cy="17.55" r="1.046"/>
</g>
<g>
</g>
<g>
</g>
<g>
</g>
<g>
</g>
<g>
</g>
<g>
</g>
<g>
</g>
<g>
</g>
<g>
</g>
<g>
</g>
<g>
</g>
<g>
</g>
<g>
</g>
<g>
</g>
<g>
</g>
</svg>
