<?xml version="1.0" encoding="iso-8859-1"?>
<!-- Generator: Adobe Illustrator 16.0.0, SVG Export Plug-In . SVG Version: 6.00 Build 0)  -->
<!DOCTYPE svg PUBLIC "-//W3C//DTD SVG 1.1//EN" "http://www.w3.org/Graphics/SVG/1.1/DTD/svg11.dtd">
<svg version="1.1" id="Layer_1" xmlns="http://www.w3.org/2000/svg" xmlns:xlink="http://www.w3.org/1999/xlink" x="0px" y="0px"
	 width="31.655px" height="30.982px" viewBox="0 0 31.655 30.982" style="enable-background:new 0 0 31.655 30.982;"
	 xml:space="preserve">
<g>
	<polygon points="31.655,29.02 28.522,27.056 28.522,28.384 2.598,28.384 2.598,3.133 3.926,3.133 1.963,0 0,3.133 1.328,3.133 
		1.328,29.652 28.522,29.652 28.522,30.982 	"/>
	<path d="M4.977,14.9c0.597,0,1.082-0.473,1.105-1.065l4.554-0.899c0.177,0.378,0.559,0.644,1.003,0.644
		c0.613,0,1.111-0.499,1.111-1.112c0-0.209-0.062-0.402-0.163-0.569l3.783-3.865c0.178,0.121,0.392,0.191,0.623,0.191
		c0.073,0,0.143-0.009,0.211-0.021l1.814,4.1c-0.265,0.202-0.439,0.52-0.439,0.878c0,0.614,0.497,1.111,1.111,1.111
		c0.382,0,0.718-0.193,0.918-0.487l4.605,1.863c-0.003,0.035-0.011,0.069-0.011,0.104c0,0.614,0.499,1.112,1.111,1.112
		c0.613,0,1.111-0.498,1.111-1.112c0-0.289-0.114-0.549-0.295-0.747l2.606-4.362c0.121,0.045,0.249,0.072,0.385,0.072
		c0.613,0,1.11-0.497,1.11-1.109c0-0.613-0.498-1.11-1.11-1.11s-1.111,0.497-1.111,1.11c0,0.245,0.082,0.47,0.216,0.653L26.585,14.7
		c-0.087-0.024-0.177-0.039-0.271-0.039c-0.35,0-0.659,0.166-0.862,0.42L20.8,13.197c0,0,0.001-0.012,0.001-0.017
		c0-0.614-0.496-1.109-1.11-1.109c-0.026,0-0.05,0.005-0.076,0.007l-1.847-4.171c0.207-0.201,0.335-0.482,0.335-0.794
		c0-0.612-0.497-1.11-1.11-1.11c-0.613,0-1.11,0.498-1.11,1.11c0,0.149,0.03,0.293,0.083,0.424l-3.848,3.932
		c-0.146-0.068-0.307-0.113-0.48-0.113c-0.558,0-1.016,0.414-1.094,0.952l-4.62,0.913c-0.194-0.323-0.544-0.543-0.949-0.543
		c-0.613,0-1.111,0.498-1.111,1.111C3.866,14.404,4.364,14.9,4.977,14.9z"/>
	<path d="M29.011,24.062c0.613,0,1.111-0.497,1.111-1.11c0-0.614-0.498-1.111-1.111-1.111c-0.302,0-0.575,0.121-0.775,0.317
		l-2.212-1.502c0.059-0.136,0.092-0.284,0.092-0.441c0-0.614-0.498-1.11-1.11-1.11c-0.613,0-1.111,0.496-1.111,1.11
		c0,0.142,0.029,0.276,0.078,0.398l-2.974,2.471c-0.155-0.083-0.328-0.132-0.514-0.132c-0.218,0-0.418,0.064-0.589,0.171
		l-3.025-2.935c0.077-0.148,0.124-0.318,0.124-0.497c0-0.613-0.497-1.111-1.11-1.111s-1.111,0.498-1.111,1.111
		c0,0.082,0.011,0.164,0.029,0.242l-5.244,4.682c-0.168-0.102-0.364-0.163-0.576-0.163c-0.215,0-0.415,0.063-0.586,0.17
		l-2.545-2.995c0.146-0.188,0.236-0.421,0.236-0.678c0-0.613-0.498-1.11-1.111-1.11s-1.111,0.497-1.111,1.11s0.498,1.11,1.111,1.11
		c0.125,0,0.243-0.025,0.355-0.063l2.64,3.107c-0.062,0.14-0.101,0.294-0.101,0.458c0,0.612,0.498,1.109,1.11,1.109
		c0.614,0,1.11-0.497,1.11-1.109c0-0.171-0.041-0.331-0.11-0.476l5.14-4.591c0.2,0.188,0.466,0.306,0.761,0.306
		c0.201,0,0.387-0.059,0.55-0.152l3.042,2.953c-0.064,0.142-0.102,0.295-0.102,0.46c0,0.613,0.497,1.11,1.11,1.11
		c0.613,0,1.11-0.497,1.11-1.11c0-0.192-0.053-0.373-0.141-0.532l2.908-2.414c0.183,0.13,0.403,0.21,0.645,0.21
		c0.224,0,0.432-0.068,0.606-0.183l2.315,1.573c-0.016,0.076-0.025,0.153-0.025,0.235C27.901,23.564,28.398,24.062,29.011,24.062z"
		/>
</g>
<g>
</g>
<g>
</g>
<g>
</g>
<g>
</g>
<g>
</g>
<g>
</g>
<g>
</g>
<g>
</g>
<g>
</g>
<g>
</g>
<g>
</g>
<g>
</g>
<g>
</g>
<g>
</g>
<g>
</g>
</svg>
