<?xml version="1.0" encoding="iso-8859-1"?>
<!-- Generator: Adobe Illustrator 16.0.0, SVG Export Plug-In . SVG Version: 6.00 Build 0)  -->
<!DOCTYPE svg PUBLIC "-//W3C//DTD SVG 1.1//EN" "http://www.w3.org/Graphics/SVG/1.1/DTD/svg11.dtd">
<svg version="1.1" id="Layer_1" xmlns="http://www.w3.org/2000/svg" xmlns:xlink="http://www.w3.org/1999/xlink" x="0px" y="0px"
	 width="31.655px" height="30.982px" viewBox="0 0 31.655 30.982" style="enable-background:new 0 0 31.655 30.982;"
	 xml:space="preserve">
<path d="M31.655,29.019l-3.134-1.963v1.328H3.295l0.757-1.663l0.885-0.661l9.882-1.078l5.633,1.513l3.504-5.093l1.749,0.31
	l0.109,0.021l4.234-0.733l-0.217-1.251l-4.015,0.694l-1.07-0.188l3.653-5.313l-1.045-0.719l-3.981,5.787l-10.084-1.783l-8.141,6.092
	l3.464-7.605l5.91-3.007l12.084-6.9l-0.63-1.103l-12.057,6.886L7.64,15.782l-4.173,9.162l-0.87,0.094V3.132h1.329L1.963,0L0,3.132
	h1.329v26.521h27.193v1.33L31.655,29.019z M13.608,19.572l8.974,1.586l-2.668,3.878l-4.996-1.343l-7.983,0.872L13.608,19.572z"/>
<g>
</g>
<g>
</g>
<g>
</g>
<g>
</g>
<g>
</g>
<g>
</g>
<g>
</g>
<g>
</g>
<g>
</g>
<g>
</g>
<g>
</g>
<g>
</g>
<g>
</g>
<g>
</g>
<g>
</g>
</svg>
