<?xml version="1.0" encoding="iso-8859-1"?>
<!-- Generator: Adobe Illustrator 16.0.0, SVG Export Plug-In . SVG Version: 6.00 Build 0)  -->
<!DOCTYPE svg PUBLIC "-//W3C//DTD SVG 1.1//EN" "http://www.w3.org/Graphics/SVG/1.1/DTD/svg11.dtd">
<svg version="1.1" id="Layer_1" xmlns="http://www.w3.org/2000/svg" xmlns:xlink="http://www.w3.org/1999/xlink" x="0px" y="0px"
	 width="22.407px" height="31.595px" viewBox="0 0 22.407 31.595" style="enable-background:new 0 0 22.407 31.595;"
	 xml:space="preserve">
<polygon points="17.329,3.386 8.866,3.386 8.866,15.011 5.077,15.011 5.077,10.943 0,10.943 0,20.63 5.077,20.63 5.077,16.301 
	8.866,16.301 8.866,27.928 17.329,27.928 17.329,31.595 22.407,31.595 22.407,21.908 17.329,21.908 17.329,26.638 10.155,26.638 
	10.155,16.301 17.329,16.301 17.329,20.63 22.407,20.63 22.407,10.943 17.329,10.943 17.329,15.011 10.155,15.011 10.155,4.674 
	17.329,4.674 17.329,9.686 22.407,9.686 22.407,0 17.329,0 "/>
<g>
</g>
<g>
</g>
<g>
</g>
<g>
</g>
<g>
</g>
<g>
</g>
<g>
</g>
<g>
</g>
<g>
</g>
<g>
</g>
<g>
</g>
<g>
</g>
<g>
</g>
<g>
</g>
<g>
</g>
</svg>
