<?xml version="1.0" encoding="iso-8859-1"?>
<!-- Generator: Adobe Illustrator 16.0.0, SVG Export Plug-In . SVG Version: 6.00 Build 0)  -->
<!DOCTYPE svg PUBLIC "-//W3C//DTD SVG 1.1//EN" "http://www.w3.org/Graphics/SVG/1.1/DTD/svg11.dtd">
<svg version="1.1" id="Layer_1" xmlns="http://www.w3.org/2000/svg" xmlns:xlink="http://www.w3.org/1999/xlink" x="0px" y="0px"
	 width="30.532px" height="27.427px" viewBox="0 0 30.532 27.427" style="enable-background:new 0 0 30.532 27.427;"
	 xml:space="preserve">
<g>
	<path d="M20.002,22.499c0,2.721,2.206,4.928,4.928,4.928h0.229c2.723,0,4.928-2.207,4.928-4.928v-2.502H20.002V22.499z"/>
	<path d="M29.029,12.836c0-1.884,0-3.8,0-5.398c0.477-0.06,0.971-0.12,1.503-0.183V6.844c-0.524,0.06-1.021,0.119-1.503,0.175
		c0-1.846,0-3.195,0-3.425c0-0.387-0.438-0.638-1.15-0.793V0.973l-0.263-0.104C27.526,0.834,25.377,0,22.511,0
		c-3.07,0-5.715,0.935-7.867,2.781C12.491,0.935,9.847,0,6.777,0C3.911,0,1.762,0.834,1.672,0.869L1.409,0.973v1.695
		C0.54,2.829,0,3.12,0,3.595c0,2.469,0,17.454,0,17.454h12.854c0.444,0.397,1.094,0.649,1.822,0.649
		c0.727,0,1.377-0.252,1.822-0.649h2.325V18.32c-1.897,0.45-3.41,1.065-4.041,1.343v-6.734l0.49,0.541V3.354
		c1.983-1.667,4.413-2.522,7.239-2.522c2.143,0,3.894,0.505,4.537,0.718v5.72c-3.289,0.446-5.249,0.919-5.714,1.889
		c-0.187,0.391-0.148,0.809,0.115,1.246c0.361,0.605,0.738,0.636,1.136,0.667c0.377,0.031,0.803,0.067,1.459,0.569
		c1.056,0.81,0.917,2.262,0.832,2.759h-4.873v5.312h10.086V14.4h-4.783c0.1-0.63,0.198-2.171-1.005-3.095
		c-0.755-0.578-1.291-0.623-1.682-0.654c-0.372-0.03-0.558-0.045-0.809-0.463c-0.187-0.313-0.219-0.589-0.096-0.845
		c0.332-0.691,1.825-1.138,5.333-1.64v5.134H29.029z M14.505,19.672c-1.067-0.44-4.742-1.838-8.424-1.838
		c-1.453,0-2.743,0.224-3.84,0.664V1.55c0.64-0.213,2.387-0.718,4.536-0.718c2.826,0,5.255,0.855,7.238,2.522v10.115l0.49-0.541
		V19.672z M25.062,15.586c0.395,0,0.716,0.321,0.716,0.716v1.863c0,0.395-0.321,0.716-0.716,0.716h-0.033
		c-0.396,0-0.716-0.322-0.716-0.716v-1.863c0-0.396,0.32-0.716,0.716-0.716H25.062z"/>
</g>
<g>
</g>
<g>
</g>
<g>
</g>
<g>
</g>
<g>
</g>
<g>
</g>
<g>
</g>
<g>
</g>
<g>
</g>
<g>
</g>
<g>
</g>
<g>
</g>
<g>
</g>
<g>
</g>
<g>
</g>
</svg>
