<?xml version="1.0" encoding="iso-8859-1"?>
<!-- Generator: Adobe Illustrator 16.0.0, SVG Export Plug-In . SVG Version: 6.00 Build 0)  -->
<!DOCTYPE svg PUBLIC "-//W3C//DTD SVG 1.1//EN" "http://www.w3.org/Graphics/SVG/1.1/DTD/svg11.dtd">
<svg version="1.1" id="Layer_1" xmlns="http://www.w3.org/2000/svg" xmlns:xlink="http://www.w3.org/1999/xlink" x="0px" y="0px"
	 width="29.295px" height="31.646px" viewBox="0 0 29.295 31.646" style="enable-background:new 0 0 29.295 31.646;"
	 xml:space="preserve">
<g>
	<path d="M0,7.401h7.403V0H0V7.401z M1.29,1.29h4.822v4.822H1.29V1.29z"/>
	<path d="M0,15.504h7.403V8.101H0V15.504z M1.29,9.392h4.822v4.821H1.29V9.392z"/>
	<path d="M0,23.573h7.403V16.17H0V23.573z M1.29,17.46h4.822v4.822H1.29V17.46z"/>
	<path d="M0,31.646h7.403v-7.403H0V31.646z M1.29,25.533h4.822v4.822H1.29V25.533z"/>
	<rect x="9.387" y="1.488" width="19.424" height="1.45"/>
	<rect x="9.387" y="4.067" width="13.943" height="1.451"/>
	<rect x="9.387" y="9.146" width="19.424" height="1.45"/>
	<rect x="9.387" y="11.725" width="13.943" height="1.45"/>
	<rect x="9.87" y="17.446" width="19.425" height="1.451"/>
	<rect x="9.87" y="20.026" width="13.944" height="1.451"/>
	<rect x="9.87" y="25.346" width="19.425" height="1.45"/>
	<rect x="9.87" y="27.925" width="13.944" height="1.451"/>
</g>
<g>
</g>
<g>
</g>
<g>
</g>
<g>
</g>
<g>
</g>
<g>
</g>
<g>
</g>
<g>
</g>
<g>
</g>
<g>
</g>
<g>
</g>
<g>
</g>
<g>
</g>
<g>
</g>
<g>
</g>
</svg>
