<?xml version="1.0" encoding="iso-8859-1"?>
<!-- Generator: Adobe Illustrator 16.0.0, SVG Export Plug-In . SVG Version: 6.00 Build 0)  -->
<!DOCTYPE svg PUBLIC "-//W3C//DTD SVG 1.1//EN" "http://www.w3.org/Graphics/SVG/1.1/DTD/svg11.dtd">
<svg version="1.1" id="Layer_1" xmlns="http://www.w3.org/2000/svg" xmlns:xlink="http://www.w3.org/1999/xlink" x="0px" y="0px"
	 width="31.5px" height="30.829px" viewBox="0 0 31.5 30.829" style="enable-background:new 0 0 31.5 30.829;" xml:space="preserve"
	>
<g>
	<polygon points="31.5,28.875 28.382,26.922 28.382,28.244 2.584,28.244 2.584,3.117 3.906,3.117 1.953,0 0,3.117 1.321,3.117 
		1.321,29.508 28.382,29.508 28.382,30.829 	"/>
	<rect x="4.396" y="10.531" width="4.262" height="16.338"/>
	<rect x="9.841" y="18.897" width="4.263" height="7.972"/>
	<rect x="15.051" y="20.417" width="4.262" height="6.452"/>
	<rect x="20.418" y="14.885" width="4.262" height="11.984"/>
	<polygon points="17.419,19.63 20.607,12.896 21.463,13.342 21.259,10.788 19.052,12.086 20.048,12.604 17.16,18.7 12.788,15.802 
		7.906,5.815 7.339,6.093 12.295,16.232 	"/>
</g>
<g>
</g>
<g>
</g>
<g>
</g>
<g>
</g>
<g>
</g>
<g>
</g>
<g>
</g>
<g>
</g>
<g>
</g>
<g>
</g>
<g>
</g>
<g>
</g>
<g>
</g>
<g>
</g>
<g>
</g>
</svg>
