<?xml version="1.0" encoding="iso-8859-1"?>
<!-- Generator: Adobe Illustrator 16.0.0, SVG Export Plug-In . SVG Version: 6.00 Build 0)  -->
<!DOCTYPE svg PUBLIC "-//W3C//DTD SVG 1.1//EN" "http://www.w3.org/Graphics/SVG/1.1/DTD/svg11.dtd">
<svg version="1.1" id="Layer_1" xmlns="http://www.w3.org/2000/svg" xmlns:xlink="http://www.w3.org/1999/xlink" x="0px" y="0px"
	 width="31.812px" height="20.928px" viewBox="0 0 31.812 20.928" style="enable-background:new 0 0 31.812 20.928;"
	 xml:space="preserve">
<g>
	<path d="M16.133,16.24C2.432,16.616,0,9.753,0,9.753s0,2.396,0,3.116c0,4.451,6.866,8.059,15.648,8.059
		c8.785,0,16.163-3.607,16.163-8.059c0-0.7,0-3.076,0-3.076S29.836,15.864,16.133,16.24z"/>
	<path d="M29.848,3.969c-1.809-1.581-4.742-2.819-8.281-3.468l-4.878,6.635L29.848,3.969z"/>
	<path d="M31.644,8.767c0.108-0.362,0.168-0.732,0.168-1.11c0-1.125-0.509-2.194-1.416-3.156L17.882,7.513L31.644,8.767z"/>
	<path d="M15.563,7.403l-0.614-7.389C6.61,0.253,0,3.583,0,7.656c0,1.029,0.425,2.011,1.189,2.906L15.563,7.403z"/>
	<path d="M20.854,0.379C19.298,0.134,17.635,0,15.905,0c-0.104,0-0.207,0.002-0.311,0.004l0.563,6.769L20.854,0.379z"/>
	<path d="M1.71,11.108c2.622,2.494,7.992,4.205,14.195,4.205c7.544,0,13.856-2.528,15.49-5.92l-15.465-1.41l-0.807,0.193
		l0.016-0.021L1.71,11.108z"/>
</g>
<g>
</g>
<g>
</g>
<g>
</g>
<g>
</g>
<g>
</g>
<g>
</g>
<g>
</g>
<g>
</g>
<g>
</g>
<g>
</g>
<g>
</g>
<g>
</g>
<g>
</g>
<g>
</g>
<g>
</g>
</svg>
