<?xml version="1.0" encoding="iso-8859-1"?>
<!-- Generator: Adobe Illustrator 16.0.0, SVG Export Plug-In . SVG Version: 6.00 Build 0)  -->
<!DOCTYPE svg PUBLIC "-//W3C//DTD SVG 1.1//EN" "http://www.w3.org/Graphics/SVG/1.1/DTD/svg11.dtd">
<svg version="1.1" id="Layer_1" xmlns="http://www.w3.org/2000/svg" xmlns:xlink="http://www.w3.org/1999/xlink" x="0px" y="0px"
	 width="30.633px" height="23.721px" viewBox="0 0 30.633 23.721" style="enable-background:new 0 0 30.633 23.721;"
	 xml:space="preserve">
<g>
	<rect x="4.841" y="5.923" width="6.287" height="10.036"/>
	<polygon points="0,0 0,21.44 14.252,21.44 14.173,20.15 1.29,20.15 1.29,1.29 29.344,1.29 29.344,20.15 27.118,20.15 28.034,21.44 
		30.633,21.44 30.633,0 	"/>
	<polygon points="27.274,18.274 25.786,18.274 26.243,18.918 27.918,18.918 27.918,2.807 2.714,2.807 2.714,18.918 10.518,18.918 
		11.233,18.274 3.359,18.274 3.359,3.452 27.274,3.452 	"/>
	<rect x="15.161" y="5.896" width="7.696" height="0.98"/>
	<rect x="12.296" y="8.411" width="13.425" height="1.082"/>
	<polygon points="12.296,11.758 17.307,11.758 25.721,11.758 25.721,10.676 12.296,10.676 	"/>
	<circle cx="19.767" cy="16.377" r="2.905"/>
	<polygon points="19.768,20.745 22.121,23.721 23.241,20.773 26.369,20.365 24.016,17.389 	"/>
	<polygon points="12.296,18.729 15.245,19.849 15.653,22.976 18.628,20.623 15.271,16.375 	"/>
</g>
<g>
</g>
<g>
</g>
<g>
</g>
<g>
</g>
<g>
</g>
<g>
</g>
<g>
</g>
<g>
</g>
<g>
</g>
<g>
</g>
<g>
</g>
<g>
</g>
<g>
</g>
<g>
</g>
<g>
</g>
</svg>
