<?xml version="1.0" encoding="iso-8859-1"?>
<!-- Generator: Adobe Illustrator 16.0.0, SVG Export Plug-In . SVG Version: 6.00 Build 0)  -->
<!DOCTYPE svg PUBLIC "-//W3C//DTD SVG 1.1//EN" "http://www.w3.org/Graphics/SVG/1.1/DTD/svg11.dtd">
<svg version="1.1" id="Layer_1" xmlns="http://www.w3.org/2000/svg" xmlns:xlink="http://www.w3.org/1999/xlink" x="0px" y="0px"
	 width="31.655px" height="30.981px" viewBox="0 0 31.655 30.981" style="enable-background:new 0 0 31.655 30.981;"
	 xml:space="preserve">
<g>
	<polygon points="31.655,29.018 28.522,27.055 28.522,28.384 2.597,28.384 2.597,3.134 3.926,3.134 1.963,0 0,3.134 1.328,3.134 
		1.328,29.653 28.522,29.653 28.522,30.981 	"/>
	<path d="M7.184,23.772h0.635v-1.825h1.9v-8.764h-1.9v-1.746H7.184v1.746H5.283v8.764h1.901V23.772z M5.917,13.819h3.167v7.495
		H5.917V13.819z"/>
	<path d="M13.157,16.157h0.635v-1.823h1.901V5.568h-1.901V3.823h-0.635v1.745h-1.9v8.766h1.9V16.157z M11.891,6.203h3.167v7.495
		h-3.167V6.203z"/>
	<path d="M18.908,21.816h0.634v-1.823h1.901v-8.765h-1.901V9.482h-0.634v1.746h-1.901v8.765h1.901V21.816z M17.642,11.862h3.167
		v7.496h-3.167V11.862z"/>
	<path d="M24.579,18.379h0.635v-1.825h1.901V7.789h-1.901V6.045h-0.635v1.744h-1.901v8.765h1.901V18.379z M23.313,8.426h3.167v7.494
		h-3.167V8.426z"/>
</g>
<g>
</g>
<g>
</g>
<g>
</g>
<g>
</g>
<g>
</g>
<g>
</g>
<g>
</g>
<g>
</g>
<g>
</g>
<g>
</g>
<g>
</g>
<g>
</g>
<g>
</g>
<g>
</g>
<g>
</g>
</svg>
