<?xml version="1.0" encoding="iso-8859-1"?>
<!-- Generator: Adobe Illustrator 16.0.0, SVG Export Plug-In . SVG Version: 6.00 Build 0)  -->
<!DOCTYPE svg PUBLIC "-//W3C//DTD SVG 1.1//EN" "http://www.w3.org/Graphics/SVG/1.1/DTD/svg11.dtd">
<svg version="1.1" id="Layer_1" xmlns="http://www.w3.org/2000/svg" xmlns:xlink="http://www.w3.org/1999/xlink" x="0px" y="0px"
	 width="30.608px" height="28.792px" viewBox="0 0 30.608 28.792" style="enable-background:new 0 0 30.608 28.792;"
	 xml:space="preserve">
<g>
	<path d="M30.608,5.436c0-1.433-1.257-2.598-2.802-2.602c-0.184-1.271-1.363-2.253-2.784-2.253c-0.522,0-1.024,0.132-1.467,0.385
		c-0.49-0.354-1.092-0.545-1.717-0.545c-1.055,0-2.019,0.556-2.495,1.411C19.103,1.77,18.856,1.74,18.605,1.74
		c-1.55,0-2.81,1.167-2.81,2.602c0,0.102,0.008,0.205,0.02,0.306c-0.605,0.494-0.949,1.192-0.949,1.948
		c0,1.071,0.694,2.016,1.752,2.412c0.248,1.22,1.394,2.114,2.759,2.114c0.459,0,0.907-0.104,1.311-0.301
		c0.49,0.348,1.085,0.538,1.705,0.538c0.839,0,1.623-0.344,2.154-0.933c0.362,0.151,0.755,0.229,1.15,0.229
		c1.548,0,2.808-1.166,2.808-2.602c0-0.032,0-0.066-0.002-0.1C29.724,7.661,30.608,6.63,30.608,5.436z M28.077,7.322l-0.369,0.044
		l0.068,0.365c0.021,0.116,0.033,0.221,0.033,0.321c0,1.051-0.948,1.905-2.112,1.905c-0.38,0-0.754-0.094-1.083-0.271L24.344,9.54
		l-0.179,0.25c-0.391,0.545-1.054,0.872-1.772,0.872c-0.536,0-1.05-0.185-1.445-0.521l-0.19-0.162l-0.214,0.128
		c-0.348,0.208-0.751,0.318-1.166,0.318c-1.092,0-1.995-0.739-2.101-1.718l-0.024-0.232l-0.225-0.066
		c-0.876-0.254-1.464-0.982-1.464-1.813c0-0.596,0.302-1.146,0.83-1.511l0.193-0.134l-0.051-0.229
		c-0.029-0.124-0.043-0.251-0.043-0.379c0-1.051,0.946-1.905,2.112-1.905c0.274,0,0.546,0.049,0.801,0.143l0.32,0.119l0.125-0.316
		c0.3-0.757,1.099-1.266,1.987-1.266c0.549,0,1.068,0.191,1.466,0.538l0.205,0.18l0.224-0.156c0.374-0.263,0.819-0.4,1.289-0.4
		c1.165,0,2.112,0.854,2.113,1.886l-0.002,0.433l0.39-0.046c0.091-0.013,0.183-0.02,0.275-0.02c1.165,0,2.112,0.855,2.112,1.905
		C29.911,6.387,29.122,7.197,28.077,7.322z"/>
	<path d="M17.477,15.086c1.134,0,2.056-0.772,2.056-1.721c0-0.948-0.922-1.72-2.056-1.72c-1.133,0-2.054,0.772-2.054,1.72
		C15.423,14.314,16.344,15.086,17.477,15.086z M17.477,12.341c0.749,0,1.358,0.46,1.358,1.024c0,0.565-0.609,1.024-1.358,1.024
		c-0.747,0-1.356-0.459-1.356-1.024C16.12,12.801,16.729,12.341,17.477,12.341z"/>
	<path d="M13.112,16.483c0,0.713,0.684,1.293,1.523,1.293s1.523-0.58,1.523-1.293c0-0.712-0.684-1.292-1.523-1.292
		S13.112,15.771,13.112,16.483z M15.462,16.483c0,0.325-0.379,0.596-0.826,0.596c-0.448,0-0.825-0.271-0.825-0.596
		c0-0.323,0.377-0.595,0.825-0.595C15.083,15.888,15.462,16.16,15.462,16.483z"/>
	<path d="M1.142,4.682l3.396,10.519l3.316,4.068L8.527,14L5.12,3.396l0.007-0.001L4.031,0L0.039,1.288l1.096,3.395L1.142,4.682z
		 M6.116,15.376l0.266-1.108l0.944,0.716l0.697-1.336l0.111,0.345l-0.387,3.008L6.76,17.32l-1.862-2.274l-0.154-0.48L6.116,15.376z
		 M3.527,0.984l0.407,1.257L1.429,3.049L1.022,1.793L3.527,0.984z"/>
	<path d="M20.507,14.893v-1.345l-0.193-0.078c-0.014-0.004-0.087-0.031-0.189-0.066c-0.001,0.305-0.084,0.592-0.229,0.854v12.184
		c-0.867-0.348-1.863-0.524-2.966-0.524c-2.706,0-5.282,1.037-6.056,1.378v-4.953l0.36,0.397v-7.441
		c1.043-0.876,2.256-1.441,3.622-1.696c-0.008-0.068-0.027-0.135-0.027-0.206c0-0.146,0.02-0.29,0.054-0.428
		c-1.557,0.261-2.935,0.899-4.111,1.908c-0.525-0.45-1.094-0.821-1.698-1.123l0.021,0.706c0.427,0.239,0.834,0.517,1.216,0.838
		v7.441l0.36-0.397v4.96C9.885,26.979,7.18,25.95,4.473,25.95c-1.069,0-2.019,0.164-2.825,0.489V13.973
		c0.279-0.094,0.849-0.261,1.592-0.383l-0.154-0.594c-1.091,0.185-1.813,0.458-1.855,0.475l-0.194,0.077v1.246
		C0.396,14.914,0,15.127,0,15.477c0,1.816,0,12.837,0,12.837h9.455c0.327,0.294,0.805,0.479,1.339,0.479
		c0.535,0,1.014-0.185,1.341-0.479h9.217c0,0,0-12.2,0-12.837C21.352,15.191,21.03,15.007,20.507,14.893z"/>
</g>
<g>
</g>
<g>
</g>
<g>
</g>
<g>
</g>
<g>
</g>
<g>
</g>
<g>
</g>
<g>
</g>
<g>
</g>
<g>
</g>
<g>
</g>
<g>
</g>
<g>
</g>
<g>
</g>
<g>
</g>
</svg>
