<?xml version="1.0" encoding="iso-8859-1"?>
<!-- Generator: Adobe Illustrator 16.0.0, SVG Export Plug-In . SVG Version: 6.00 Build 0)  -->
<!DOCTYPE svg PUBLIC "-//W3C//DTD SVG 1.1//EN" "http://www.w3.org/Graphics/SVG/1.1/DTD/svg11.dtd">
<svg version="1.1" id="Layer_1" xmlns="http://www.w3.org/2000/svg" xmlns:xlink="http://www.w3.org/1999/xlink" x="0px" y="0px"
	 width="27.47px" height="26.934px" viewBox="0 0 27.47 26.934" style="enable-background:new 0 0 27.47 26.934;"
	 xml:space="preserve">
<g>
	<polygon points="25.845,25.122 25.925,25.122 25.925,24.469 25.845,24.469 25.845,23.814 25.925,23.814 25.925,23.161 
		25.845,23.161 25.845,22.507 25.925,22.507 25.925,21.854 25.845,21.854 25.845,21.201 25.925,21.201 25.925,20.897 26.375,20.897 
		26.375,20.735 25.925,20.735 25.925,20.55 25.845,20.55 25.845,19.896 25.925,19.896 25.925,19.244 25.845,19.244 25.845,18.593 
		25.925,18.593 25.925,17.938 25.845,17.938 25.845,17.286 25.925,17.286 25.925,16.635 25.845,16.635 25.845,15.982 25.925,15.982 
		25.925,15.328 25.845,15.328 25.845,14.677 25.925,14.677 25.925,14.582 26.382,14.582 26.382,14.422 25.925,14.422 25.925,14.024 
		25.845,14.024 25.845,13.373 25.925,13.373 25.925,12.719 25.845,12.719 25.845,12.065 25.925,12.065 25.925,11.415 25.845,11.415 
		25.845,10.763 25.925,10.763 25.925,10.109 25.845,10.109 25.845,9.458 25.925,9.458 25.925,8.806 25.845,8.806 25.845,8.646 
		26.37,8.646 26.37,8.484 25.845,8.484 25.845,8.153 25.925,8.153 25.925,7.5 25.845,7.5 25.845,6.848 25.925,6.848 25.925,6.194 
		25.845,6.194 25.845,5.542 25.925,5.542 25.925,4.89 25.845,4.89 25.845,4.237 25.925,4.237 25.925,3.583 25.845,3.583 
		25.845,3.104 20.91,8.484 20.472,8.484 20.472,8.646 20.763,8.646 15.464,14.422 13.513,15.3 13.513,15.275 13.352,15.275 
		13.352,15.373 7.199,18.139 7.199,17.854 7.038,17.854 7.038,18.212 1.43,20.735 1.414,20.735 1.414,20.743 1.29,20.8 1.29,20.221 
		13.39,14.632 13.513,14.632 13.513,14.582 13.539,14.582 13.539,14.563 15.169,13.812 25.406,2.454 25.764,2.813 25.764,2.931 
		25.881,2.931 26.11,3.159 26.3,2.333 26.536,2.333 26.536,2.171 26.336,2.171 26.695,0.612 24.147,1.196 24.95,1.999 24.795,2.171 
		24.576,2.171 24.576,2.333 24.65,2.333 19.819,7.709 19.819,7.688 19.657,7.688 19.657,7.888 14.838,13.253 12.255,14.446 
		12.255,14.422 11.614,14.422 11.614,14.582 11.958,14.582 7.199,16.781 7.199,16.558 7.038,16.558 7.038,16.856 1.29,19.512 
		1.29,8.646 1.486,8.646 1.486,8.484 1.29,8.484 1.29,0.102 0,0.102 0,26.934 27.309,26.934 27.309,25.644 25.845,25.644 	"/>
	<rect x="26.985" y="20.735" width="0.32" height="0.162"/>
	<rect x="1.662" y="14.422" width="0.319" height="0.16"/>
	<rect x="7.762" y="14.422" width="0.641" height="0.16"/>
	<rect x="10.33" y="14.422" width="0.642" height="0.16"/>
	<rect x="9.046" y="14.422" width="0.643" height="0.16"/>
	<rect x="5.194" y="14.422" width="0.643" height="0.16"/>
	<rect x="14.18" y="14.422" width="0.644" height="0.16"/>
	<rect x="3.908" y="14.422" width="0.644" height="0.16"/>
	<rect x="2.622" y="14.422" width="0.644" height="0.16"/>
	<polygon points="6.478,14.582 7.038,14.582 7.038,14.613 7.199,14.613 7.199,13.965 7.038,13.965 7.038,14.422 6.478,14.422 	"/>
	<rect x="26.985" y="14.422" width="0.32" height="0.16"/>
	<rect x="10" y="8.484" width="0.654" height="0.161"/>
	<rect x="3.45" y="8.484" width="0.655" height="0.161"/>
	<rect x="12.617" y="8.484" width="0.653" height="0.161"/>
	<rect x="2.137" y="8.484" width="0.656" height="0.161"/>
	<rect x="4.76" y="8.484" width="0.655" height="0.161"/>
	<rect x="11.309" y="8.484" width="0.654" height="0.161"/>
	<rect x="17.854" y="8.484" width="0.655" height="0.161"/>
	<rect x="15.236" y="8.484" width="0.655" height="0.161"/>
	<rect x="6.071" y="8.484" width="0.655" height="0.161"/>
	<rect x="8.69" y="8.484" width="0.654" height="0.161"/>
	<rect x="16.544" y="8.484" width="0.655" height="0.161"/>
	<rect x="7.38" y="8.484" width="0.654" height="0.161"/>
	<rect x="13.925" y="8.484" width="0.657" height="0.161"/>
	<rect x="26.985" y="8.484" width="0.32" height="0.161"/>
	<rect x="1.414" y="2.171" width="0.32" height="0.162"/>
	<rect x="14.133" y="2.171" width="0.655" height="0.162"/>
	<rect x="16.743" y="2.171" width="0.653" height="0.162"/>
	<rect x="15.438" y="2.171" width="0.652" height="0.162"/>
	<rect x="8.914" y="2.171" width="0.653" height="0.162"/>
	<rect x="21.963" y="2.171" width="0.653" height="0.162"/>
	<rect x="6.304" y="2.171" width="0.652" height="0.162"/>
	<rect x="19.354" y="2.171" width="0.652" height="0.162"/>
	<rect x="20.658" y="2.171" width="0.652" height="0.162"/>
	<rect x="2.384" y="2.171" width="0.654" height="0.162"/>
	<rect x="4.998" y="2.171" width="0.653" height="0.162"/>
	<rect x="18.048" y="2.171" width="0.653" height="0.162"/>
	<rect x="3.691" y="2.171" width="0.653" height="0.162"/>
	<rect x="11.524" y="2.171" width="0.652" height="0.162"/>
	<rect x="23.269" y="2.171" width="0.652" height="0.162"/>
	<rect x="12.829" y="2.171" width="0.651" height="0.162"/>
	<rect x="10.22" y="2.171" width="0.652" height="0.162"/>
	<rect x="7.609" y="2.171" width="0.652" height="0.162"/>
	<rect x="27.15" y="2.171" width="0.32" height="0.162"/>
	<rect x="7.038" y="0.028" width="0.162" height="0.32"/>
	<rect x="7.038" y="4.888" width="0.162" height="0.649"/>
	<rect x="7.038" y="6.187" width="0.162" height="0.646"/>
	<rect x="7.038" y="10.075" width="0.162" height="0.648"/>
	<rect x="7.038" y="8.779" width="0.162" height="0.649"/>
	<rect x="7.038" y="7.482" width="0.162" height="0.649"/>
	<rect x="7.038" y="0.993" width="0.162" height="0.651"/>
	<rect x="7.038" y="2.294" width="0.162" height="0.648"/>
	<rect x="7.038" y="3.592" width="0.162" height="0.648"/>
	<rect x="7.038" y="11.372" width="0.162" height="0.647"/>
	<rect x="7.038" y="15.261" width="0.162" height="0.648"/>
	<rect x="7.038" y="12.668" width="0.162" height="0.649"/>
	<rect x="13.352" y="0.188" width="0.161" height="0.319"/>
	<rect x="13.352" y="8.855" width="0.161" height="0.644"/>
	<rect x="13.352" y="11.423" width="0.161" height="0.642"/>
	<rect x="13.352" y="3.72" width="0.161" height="0.644"/>
	<rect x="13.352" y="1.148" width="0.161" height="0.644"/>
	<rect x="13.352" y="12.706" width="0.161" height="0.644"/>
	<rect x="13.352" y="10.14" width="0.161" height="0.643"/>
	<rect x="13.352" y="5.004" width="0.161" height="0.644"/>
	<rect x="13.352" y="2.435" width="0.161" height="0.642"/>
	<rect x="13.352" y="6.289" width="0.161" height="0.64"/>
	<rect x="13.352" y="7.571" width="0.161" height="0.644"/>
	<rect x="19.657" y="0.164" width="0.162" height="0.32"/>
	<rect x="19.657" y="8.999" width="0.162" height="0.653"/>
	<rect x="19.657" y="2.448" width="0.162" height="0.656"/>
	<rect x="19.657" y="6.379" width="0.162" height="0.653"/>
	<rect x="19.657" y="1.137" width="0.162" height="0.656"/>
	<rect x="19.657" y="5.069" width="0.162" height="0.655"/>
	<rect x="19.657" y="3.76" width="0.162" height="0.655"/>
	<rect x="25.764" width="0.162" height="0.32"/>
</g>
<g>
</g>
<g>
</g>
<g>
</g>
<g>
</g>
<g>
</g>
<g>
</g>
<g>
</g>
<g>
</g>
<g>
</g>
<g>
</g>
<g>
</g>
<g>
</g>
<g>
</g>
<g>
</g>
<g>
</g>
</svg>
