<?xml version="1.0" encoding="iso-8859-1"?>
<!-- Generator: Adobe Illustrator 16.0.0, SVG Export Plug-In . SVG Version: 6.00 Build 0)  -->
<!DOCTYPE svg PUBLIC "-//W3C//DTD SVG 1.1//EN" "http://www.w3.org/Graphics/SVG/1.1/DTD/svg11.dtd">
<svg version="1.1" id="Layer_1" xmlns="http://www.w3.org/2000/svg" xmlns:xlink="http://www.w3.org/1999/xlink" x="0px" y="0px"
	 width="27.32px" height="26.593px" viewBox="0 0 27.32 26.593" style="enable-background:new 0 0 27.32 26.593;"
	 xml:space="preserve">
<g>
	<polygon points="1.447,25.304 12.164,14.495 12.289,14.495 12.289,14.368 24.035,2.522 23.887,2.378 24.187,2.378 24.187,2.218 
		23.725,2.218 23.576,2.07 17.477,8.224 17.075,8.224 17.075,8.386 17.316,8.386 5.157,20.647 5.021,20.647 5.021,20.784 
		1.29,24.547 1.29,0 0,0 0,26.593 27.32,26.593 27.32,25.304 	"/>
	<rect x="26.168" y="2.218" width="0.322" height="0.16"/>
	<rect x="10.308" y="2.218" width="0.661" height="0.16"/>
	<rect x="7.664" y="2.218" width="0.661" height="0.16"/>
	<rect x="6.344" y="2.218" width="0.659" height="0.16"/>
	<rect x="3.699" y="2.218" width="0.66" height="0.16"/>
	<rect x="2.378" y="2.218" width="0.66" height="0.16"/>
	<rect x="11.629" y="2.218" width="0.66" height="0.16"/>
	<rect x="5.021" y="2.218" width="0.661" height="0.16"/>
	<rect x="15.595" y="2.218" width="0.66" height="0.16"/>
	<rect x="19.561" y="2.218" width="0.66" height="0.16"/>
	<rect x="22.204" y="2.218" width="0.66" height="0.16"/>
	<rect x="12.95" y="2.218" width="0.662" height="0.16"/>
	<rect x="24.848" y="2.218" width="0.66" height="0.16"/>
	<rect x="20.881" y="2.218" width="0.661" height="0.16"/>
	<rect x="14.273" y="2.218" width="0.66" height="0.16"/>
	<rect x="16.916" y="2.218" width="0.662" height="0.16"/>
	<rect x="18.237" y="2.218" width="0.661" height="0.16"/>
	<rect x="8.985" y="2.218" width="0.66" height="0.16"/>
	<rect x="1.395" y="2.218" width="0.322" height="0.16"/>
	<rect x="26.327" y="8.224" width="0.322" height="0.162"/>
	<rect x="19.72" y="8.224" width="0.659" height="0.162"/>
	<rect x="21.039" y="8.224" width="0.662" height="0.162"/>
	<rect x="25.006" y="8.224" width="0.661" height="0.162"/>
	<rect x="3.857" y="8.224" width="0.662" height="0.162"/>
	<rect x="11.788" y="8.224" width="0.66" height="0.162"/>
	<rect x="6.502" y="8.224" width="0.66" height="0.162"/>
	<rect x="7.822" y="8.224" width="0.661" height="0.162"/>
	<rect x="18.396" y="8.224" width="0.661" height="0.162"/>
	<rect x="5.18" y="8.224" width="0.661" height="0.162"/>
	<rect x="9.145" y="8.224" width="0.66" height="0.162"/>
	<rect x="13.109" y="8.224" width="0.661" height="0.162"/>
	<rect x="10.466" y="8.224" width="0.661" height="0.162"/>
	<rect x="14.433" y="8.224" width="0.659" height="0.162"/>
	<rect x="2.536" y="8.224" width="0.66" height="0.162"/>
	<rect x="15.753" y="8.224" width="0.661" height="0.162"/>
	<rect x="22.362" y="8.224" width="0.66" height="0.162"/>
	<rect x="23.684" y="8.224" width="0.661" height="0.162"/>
	<rect x="1.553" y="8.224" width="0.322" height="0.162"/>
	<rect x="26.168" y="14.333" width="0.322" height="0.162"/>
	<rect x="23.524" y="14.333" width="0.662" height="0.162"/>
	<rect x="12.95" y="14.333" width="0.662" height="0.162"/>
	<rect x="10.308" y="14.333" width="0.661" height="0.162"/>
	<rect x="8.985" y="14.333" width="0.66" height="0.162"/>
	<rect x="16.916" y="14.333" width="0.662" height="0.162"/>
	<rect x="15.595" y="14.333" width="0.66" height="0.162"/>
	<rect x="14.273" y="14.333" width="0.66" height="0.162"/>
	<rect x="7.664" y="14.333" width="0.661" height="0.162"/>
	<rect x="3.699" y="14.333" width="0.66" height="0.162"/>
	<rect x="19.561" y="14.333" width="0.66" height="0.162"/>
	<rect x="20.881" y="14.333" width="0.661" height="0.162"/>
	<rect x="5.021" y="14.333" width="0.661" height="0.162"/>
	<rect x="2.378" y="14.333" width="0.66" height="0.162"/>
	<rect x="22.204" y="14.333" width="0.66" height="0.162"/>
	<rect x="24.848" y="14.333" width="0.66" height="0.162"/>
	<rect x="18.237" y="14.333" width="0.661" height="0.162"/>
	<rect x="6.344" y="14.333" width="0.659" height="0.162"/>
	<rect x="1.395" y="14.333" width="0.322" height="0.162"/>
	<rect x="26.17" y="20.647" width="0.321" height="0.161"/>
	<rect x="23.525" y="20.647" width="0.661" height="0.161"/>
	<rect x="24.848" y="20.647" width="0.66" height="0.161"/>
	<rect x="6.344" y="20.647" width="0.661" height="0.161"/>
	<rect x="8.986" y="20.647" width="0.662" height="0.161"/>
	<rect x="7.665" y="20.647" width="0.66" height="0.161"/>
	<rect x="15.596" y="20.647" width="0.661" height="0.161"/>
	<rect x="10.309" y="20.647" width="0.66" height="0.161"/>
	<rect x="2.379" y="20.647" width="0.66" height="0.161"/>
	<rect x="22.204" y="20.647" width="0.66" height="0.161"/>
	<rect x="20.883" y="20.647" width="0.66" height="0.161"/>
	<rect x="3.7" y="20.647" width="0.661" height="0.161"/>
	<rect x="19.561" y="20.647" width="0.66" height="0.161"/>
	<rect x="18.238" y="20.647" width="0.661" height="0.161"/>
	<rect x="14.273" y="20.647" width="0.66" height="0.161"/>
	<rect x="11.63" y="20.647" width="0.661" height="0.161"/>
	<rect x="12.952" y="20.647" width="0.661" height="0.161"/>
	<rect x="16.916" y="20.647" width="0.662" height="0.161"/>
	<rect x="1.396" y="20.647" width="0.321" height="0.161"/>
</g>
<g>
</g>
<g>
</g>
<g>
</g>
<g>
</g>
<g>
</g>
<g>
</g>
<g>
</g>
<g>
</g>
<g>
</g>
<g>
</g>
<g>
</g>
<g>
</g>
<g>
</g>
<g>
</g>
<g>
</g>
</svg>
