<?xml version="1.0" encoding="iso-8859-1"?>
<!-- Generator: Adobe Illustrator 16.0.0, SVG Export Plug-In . SVG Version: 6.00 Build 0)  -->
<!DOCTYPE svg PUBLIC "-//W3C//DTD SVG 1.1//EN" "http://www.w3.org/Graphics/SVG/1.1/DTD/svg11.dtd">
<svg version="1.1" id="Layer_1" xmlns="http://www.w3.org/2000/svg" xmlns:xlink="http://www.w3.org/1999/xlink" x="0px" y="0px"
	 width="30.878px" height="28.919px" viewBox="0 0 30.878 28.919" style="enable-background:new 0 0 30.878 28.919;"
	 xml:space="preserve">
<g>
	<polygon points="20.432,24.211 30.032,16.211 10.833,16.211 	"/>
	<polygon points="20.432,25.506 9.993,16.808 9.993,28.919 30.878,28.919 30.878,16.802 	"/>
	<path d="M2.195,18.131V1.52C2.823,1.31,4.533,0.815,6.642,0.815c2.771,0,5.151,0.837,7.095,2.471v9.915l0.481-0.529v2.141h0.271
		v-2.141l0.479,0.529V3.287c1.945-1.634,4.326-2.471,7.096-2.471c2.1,0,3.817,0.496,4.447,0.704v13.294v0.054h1.942
		c0-0.018,0-0.037,0-0.054c0-4.758,0-10.781,0-11.291c0-0.378-0.429-0.626-1.126-0.777V0.954l-0.26-0.103
		C26.979,0.818,24.874,0,22.063,0c-3.009,0-5.602,0.917-7.711,2.726C12.243,0.917,9.651,0,6.642,0C3.831,0,1.726,0.818,1.638,0.853
		L1.379,0.954v1.66C0.529,2.773,0,3.058,0,3.523c0,2.42,0,17.108,0,17.108h9.014v-2.863C8.036,17.597,7,17.481,5.96,17.481
		C4.534,17.481,3.271,17.699,2.195,18.131z"/>
</g>
<g>
</g>
<g>
</g>
<g>
</g>
<g>
</g>
<g>
</g>
<g>
</g>
<g>
</g>
<g>
</g>
<g>
</g>
<g>
</g>
<g>
</g>
<g>
</g>
<g>
</g>
<g>
</g>
<g>
</g>
</svg>
