<?xml version="1.0" encoding="iso-8859-1"?>
<!-- Generator: Adobe Illustrator 16.0.0, SVG Export Plug-In . SVG Version: 6.00 Build 0)  -->
<!DOCTYPE svg PUBLIC "-//W3C//DTD SVG 1.1//EN" "http://www.w3.org/Graphics/SVG/1.1/DTD/svg11.dtd">
<svg version="1.1" id="Layer_1" xmlns="http://www.w3.org/2000/svg" xmlns:xlink="http://www.w3.org/1999/xlink" x="0px" y="0px"
	 width="31.427px" height="31.537px" viewBox="0 0 31.427 31.537" style="enable-background:new 0 0 31.427 31.537;"
	 xml:space="preserve">
<g>
	<path d="M30.85,1.455H17.334V0H13.75v1.455H0.914H0v1.753h0.914V20.5h13.211v3.22l-7.291,7.817h2.62l4.921-5.284v5.284h1.507V26.26
		l4.914,5.277h2.663l-7.334-7.817V20.5H30.85V3.208h0.577V1.455H30.85z M29.56,19.21H16.125h-2H2.203V3.208H29.56V19.21z"/>
	<polygon points="10.577,10.297 10.577,10.444 10.586,14.987 11.219,15.252 12.839,14.433 12.837,13.604 12.83,7.707 10.963,7.035 
		9.255,7.703 9.255,9.82 10.439,10.246 	"/>
	<polygon points="13.038,7.561 13.038,7.707 13.047,13.691 13.68,13.953 15.3,13.136 15.291,5.363 13.425,4.691 11.717,5.359 
		11.717,7.084 12.9,7.51 	"/>
	<polygon points="8.102,13.598 8.104,13.743 8.11,16.252 8.758,16.521 10.378,15.702 10.367,10.445 9.255,10.043 8.502,9.771 
		6.793,10.439 6.793,13.124 7.964,13.547 	"/>
	<polygon points="7.902,16.907 7.9,16.164 7.894,13.743 6.027,13.071 4.319,13.739 4.319,16.907 6.283,17.726 	"/>
	<rect x="18.398" y="5.422" width="9.688" height="0.875"/>
	<rect x="18.398" y="7.391" width="9.688" height="0.875"/>
	<rect x="18.398" y="9.322" width="9.688" height="0.875"/>
	<rect x="18.398" y="11.291" width="9.688" height="0.875"/>
	<rect x="24.242" y="13.228" width="3.844" height="0.875"/>
	<rect x="24.242" y="15.196" width="3.844" height="0.875"/>
	<rect x="18.398" y="13.228" width="5.063" height="2.844"/>
</g>
<g>
</g>
<g>
</g>
<g>
</g>
<g>
</g>
<g>
</g>
<g>
</g>
<g>
</g>
<g>
</g>
<g>
</g>
<g>
</g>
<g>
</g>
<g>
</g>
<g>
</g>
<g>
</g>
<g>
</g>
</svg>
