<?xml version="1.0" encoding="iso-8859-1"?>
<!-- Generator: Adobe Illustrator 16.0.0, SVG Export Plug-In . SVG Version: 6.00 Build 0)  -->
<!DOCTYPE svg PUBLIC "-//W3C//DTD SVG 1.1//EN" "http://www.w3.org/Graphics/SVG/1.1/DTD/svg11.dtd">
<svg version="1.1" id="Layer_1" xmlns="http://www.w3.org/2000/svg" xmlns:xlink="http://www.w3.org/1999/xlink" x="0px" y="0px"
	 width="27.32px" height="26.592px" viewBox="0 0 27.32 26.592" style="enable-background:new 0 0 27.32 26.592;"
	 xml:space="preserve">
<g>
	<polygon points="1.29,25.304 1.29,0 0,0 0,26.592 27.32,26.592 27.32,25.304 	"/>
	<rect x="26.168" y="2.217" width="0.323" height="0.16"/>
	<rect x="12.951" y="2.217" width="0.661" height="0.16"/>
	<rect x="14.273" y="2.217" width="0.661" height="0.16"/>
	<rect x="10.308" y="2.217" width="0.66" height="0.16"/>
	<rect x="8.986" y="2.217" width="0.661" height="0.16"/>
	<rect x="15.594" y="2.217" width="0.661" height="0.16"/>
	<rect x="11.629" y="2.217" width="0.661" height="0.16"/>
	<rect x="20.881" y="2.217" width="0.662" height="0.16"/>
	<rect x="22.203" y="2.217" width="0.661" height="0.16"/>
	<rect x="23.525" y="2.217" width="0.661" height="0.16"/>
	<rect x="24.846" y="2.217" width="0.661" height="0.16"/>
	<rect x="18.238" y="2.217" width="0.661" height="0.16"/>
	<rect x="16.916" y="2.217" width="0.661" height="0.16"/>
	<rect x="7.664" y="2.217" width="0.661" height="0.16"/>
	<rect x="19.56" y="2.217" width="0.661" height="0.16"/>
	<rect x="2.377" y="2.217" width="0.661" height="0.16"/>
	<rect x="5.021" y="2.217" width="0.661" height="0.16"/>
	<rect x="3.698" y="2.217" width="0.661" height="0.16"/>
	<rect x="6.342" y="2.217" width="0.661" height="0.16"/>
	<rect x="1.394" y="2.217" width="0.322" height="0.16"/>
	<rect x="26.327" y="8.223" width="0.322" height="0.161"/>
	<rect x="18.396" y="8.223" width="0.661" height="0.161"/>
	<rect x="3.857" y="8.223" width="0.661" height="0.161"/>
	<rect x="17.075" y="8.223" width="0.66" height="0.161"/>
	<rect x="15.752" y="8.223" width="0.662" height="0.161"/>
	<rect x="25.004" y="8.223" width="0.662" height="0.161"/>
	<rect x="23.684" y="8.223" width="0.661" height="0.161"/>
	<rect x="22.362" y="8.223" width="0.661" height="0.161"/>
	<rect x="19.718" y="8.223" width="0.661" height="0.161"/>
	<rect x="21.04" y="8.223" width="0.661" height="0.161"/>
	<rect x="2.536" y="8.223" width="0.661" height="0.161"/>
	<rect x="11.788" y="8.223" width="0.662" height="0.161"/>
	<rect x="5.179" y="8.223" width="0.661" height="0.161"/>
	<rect x="14.432" y="8.223" width="0.66" height="0.161"/>
	<rect x="6.5" y="8.223" width="0.662" height="0.161"/>
	<rect x="13.109" y="8.223" width="0.661" height="0.161"/>
	<rect x="1.553" y="8.223" width="0.322" height="0.161"/>
	<rect x="26.168" y="14.253" width="0.323" height="0.16"/>
	<rect x="23.525" y="14.253" width="0.661" height="0.16"/>
	<rect x="15.594" y="14.253" width="0.661" height="0.16"/>
	<rect x="24.846" y="14.253" width="0.661" height="0.16"/>
	<rect x="16.916" y="14.253" width="0.661" height="0.16"/>
	<rect x="6.342" y="14.253" width="0.661" height="0.16"/>
	<rect x="11.629" y="14.253" width="0.661" height="0.16"/>
	<rect x="18.238" y="14.253" width="0.661" height="0.16"/>
	<rect x="12.951" y="14.253" width="0.661" height="0.16"/>
	<rect x="14.273" y="14.253" width="0.661" height="0.16"/>
	<rect x="1.394" y="14.253" width="0.322" height="0.16"/>
	<rect x="26.168" y="20.646" width="0.323" height="0.162"/>
	<rect x="6.343" y="20.646" width="0.661" height="0.162"/>
	<rect x="24.847" y="20.646" width="0.661" height="0.162"/>
	<rect x="18.238" y="20.646" width="0.661" height="0.162"/>
	<rect x="11.629" y="20.646" width="0.661" height="0.162"/>
	<rect x="23.526" y="20.646" width="0.661" height="0.162"/>
	<rect x="1.394" y="20.646" width="0.323" height="0.162"/>
	<rect x="2.116" y="8.899" width="3.89" height="15.966"/>
	<rect x="7.61" y="2.807" width="3.89" height="22.059"/>
	<polygon points="17.143,24.865 17.143,20.809 17.577,20.809 17.577,20.646 17.143,20.646 17.143,14.938 13.253,14.938 
		13.253,20.646 12.951,20.646 12.951,20.809 13.253,20.809 13.253,24.865 	"/>
	<rect x="18.976" y="8.899" width="3.889" height="15.966"/>
</g>
<g>
</g>
<g>
</g>
<g>
</g>
<g>
</g>
<g>
</g>
<g>
</g>
<g>
</g>
<g>
</g>
<g>
</g>
<g>
</g>
<g>
</g>
<g>
</g>
<g>
</g>
<g>
</g>
<g>
</g>
</svg>
