<?xml version="1.0" encoding="iso-8859-1"?>
<!-- Generator: Adobe Illustrator 16.0.0, SVG Export Plug-In . SVG Version: 6.00 Build 0)  -->
<!DOCTYPE svg PUBLIC "-//W3C//DTD SVG 1.1//EN" "http://www.w3.org/Graphics/SVG/1.1/DTD/svg11.dtd">
<svg version="1.1" id="Layer_1" xmlns="http://www.w3.org/2000/svg" xmlns:xlink="http://www.w3.org/1999/xlink" x="0px" y="0px"
	 width="21.007px" height="31.563px" viewBox="0 0 21.007 31.563" style="enable-background:new 0 0 21.007 31.563;"
	 xml:space="preserve">
<path d="M21.007,11.902h-6.053l-0.256-2.311c0.083-0.614,0.364-1.576,0.405-2.538C15.175,5.413,15.271,0,10.545,0
	c-0.498,0-1.081,0.062-1.333,0.175c-0.253,0.113-0.3,0.372-0.463,0.427c-0.17,0.057-0.412,0.035-0.562,0.107
	c-2.34,1.127-2.259,3.875-2.259,3.875l0.346,5.644L6.1,11.902H0l1.29,6.528h4.438l0.611,13.132h8.077l0.611-13.132h4.69
	L21.007,11.902z M13.278,11.902c0.009-0.052,0.018-0.103,0.026-0.156l0.022,0.156H13.278z M6.895,4.043
	c1.042-0.071,2.218-0.892,2.31-2.034c1.318,1.092,3.186,1.145,4.743,1.285c0.193,0.09,0.336,0.481,0.376,1.001L13.509,4.42V3.844
	h-2.592v0.6H10.46v-0.6H7.869v0.562l-1-0.144C6.876,4.19,6.888,4.117,6.895,4.043z M13.221,4.132v1.026h-2.016V4.132H13.221z
	 M10.172,4.132v1.026H8.157V4.132H10.172z M9.13,9.512l0.374-0.094V7.997C8.063,7.544,7,6.259,6.88,4.701l0.988,0.142v0.604h2.592
	V5.02h0.457v0.427h2.592V4.858l0.824-0.128c-0.048,1.304-0.721,3.05-2.724,3.311v1.327h0.006l0.476,0.227l-1.281,2.307h-0.42
	L9.13,9.512z"/>
<g>
</g>
<g>
</g>
<g>
</g>
<g>
</g>
<g>
</g>
<g>
</g>
<g>
</g>
<g>
</g>
<g>
</g>
<g>
</g>
<g>
</g>
<g>
</g>
<g>
</g>
<g>
</g>
<g>
</g>
</svg>
