<?xml version="1.0" encoding="iso-8859-1"?>
<!-- Generator: Adobe Illustrator 16.0.0, SVG Export Plug-In . SVG Version: 6.00 Build 0)  -->
<!DOCTYPE svg PUBLIC "-//W3C//DTD SVG 1.1//EN" "http://www.w3.org/Graphics/SVG/1.1/DTD/svg11.dtd">
<svg version="1.1" id="Layer_1" xmlns="http://www.w3.org/2000/svg" xmlns:xlink="http://www.w3.org/1999/xlink" x="0px" y="0px"
	 width="29.273px" height="24.028px" viewBox="0 0 29.273 24.028" style="enable-background:new 0 0 29.273 24.028;"
	 xml:space="preserve">
<g>
	<path d="M29.273,0H0v21.346h10.522l-4.174,1.757v0.925h16.223v-0.925l-4.173-1.757h10.875V0z M26.967,17.82H2.305V2.917h24.662
		V17.82z"/>
	<polygon points="8.996,11.713 6.498,11.713 6.498,11.129 8.701,11.129 8.701,10.017 6.498,10.017 6.498,9.434 8.924,9.434 
		8.924,8.238 5.058,8.238 5.058,12.909 8.996,12.909 	"/>
	<rect x="9.604" y="11.542" width="3.303" height="1.001"/>
	<rect x="9.604" y="9.964" width="3.303" height="1.001"/>
	<path d="M14.857,11.071c0-0.178,0.031-0.325,0.094-0.439c0.064-0.112,0.178-0.17,0.344-0.17c0.097,0,0.172,0.018,0.229,0.05
		c0.056,0.033,0.1,0.078,0.131,0.134c0.031,0.057,0.049,0.123,0.056,0.196c0.006,0.074,0.009,0.151,0.009,0.229v1.838h1.296v-1.838
		c0-0.178,0.031-0.325,0.096-0.439c0.063-0.112,0.177-0.17,0.342-0.17c0.096,0,0.173,0.018,0.229,0.05
		c0.058,0.033,0.101,0.078,0.131,0.134c0.031,0.057,0.05,0.123,0.056,0.196c0.007,0.074,0.01,0.151,0.01,0.229v1.838h1.295V10.58
		c0-0.135-0.019-0.272-0.059-0.409c-0.04-0.138-0.105-0.262-0.195-0.374c-0.092-0.11-0.212-0.199-0.361-0.267
		c-0.147-0.068-0.331-0.103-0.549-0.103c-0.21,0-0.386,0.027-0.53,0.079c-0.143,0.052-0.259,0.11-0.347,0.173
		c-0.087,0.064-0.151,0.123-0.196,0.181c-0.043,0.057-0.07,0.09-0.085,0.097c-0.077-0.169-0.204-0.3-0.379-0.393
		c-0.174-0.09-0.353-0.137-0.536-0.137c-0.235,0-0.446,0.041-0.635,0.122c-0.188,0.081-0.347,0.22-0.478,0.415h-0.013V9.514h-1.249
		v3.395h1.295V11.071z"/>
	<path d="M20.266,12.533c0.171,0.149,0.372,0.264,0.606,0.343c0.232,0.079,0.485,0.118,0.755,0.118c0.192,0,0.379-0.021,0.56-0.066
		c0.181-0.043,0.35-0.109,0.504-0.197c0.154-0.087,0.291-0.197,0.409-0.332c0.117-0.136,0.209-0.295,0.274-0.479H22.17
		c-0.053,0.084-0.131,0.144-0.233,0.184c-0.103,0.04-0.207,0.059-0.313,0.059c-0.207,0-0.364-0.061-0.474-0.184
		c-0.108-0.123-0.172-0.28-0.19-0.477h2.486c0-0.331-0.037-0.625-0.112-0.882c-0.073-0.258-0.188-0.475-0.347-0.651
		c-0.156-0.177-0.357-0.311-0.602-0.403c-0.244-0.09-0.533-0.137-0.87-0.137c-0.27,0-0.515,0.047-0.735,0.141
		c-0.22,0.095-0.409,0.223-0.565,0.386c-0.158,0.164-0.278,0.353-0.363,0.57c-0.086,0.215-0.128,0.448-0.128,0.696
		c0,0.284,0.048,0.535,0.144,0.755C19.965,12.197,20.097,12.382,20.266,12.533z M21.176,10.406c0.109-0.098,0.262-0.148,0.458-0.148
		c0.165,0,0.302,0.057,0.408,0.168c0.107,0.111,0.161,0.246,0.161,0.402h-1.237C20.996,10.645,21.067,10.504,21.176,10.406z"/>
	<path d="M25.488,9.59h-1.04V9.587c0.108-0.066,0.222-0.13,0.341-0.192c0.119-0.062,0.227-0.13,0.327-0.206
		c0.1-0.077,0.181-0.164,0.243-0.266c0.064-0.101,0.096-0.225,0.096-0.372c0-0.122-0.022-0.228-0.067-0.319
		c-0.046-0.091-0.109-0.166-0.191-0.227c-0.081-0.058-0.182-0.104-0.297-0.133c-0.116-0.03-0.242-0.043-0.382-0.043
		c-0.153,0-0.293,0.021-0.418,0.064c-0.124,0.045-0.229,0.108-0.314,0.194c-0.086,0.083-0.15,0.188-0.19,0.312
		c-0.043,0.123-0.059,0.266-0.05,0.422h0.619c-0.003-0.14,0.02-0.254,0.071-0.341c0.051-0.086,0.144-0.131,0.276-0.131
		c0.076,0,0.142,0.021,0.196,0.062c0.054,0.041,0.081,0.114,0.081,0.221c0,0.041-0.011,0.08-0.031,0.112
		c-0.021,0.032-0.048,0.062-0.08,0.089c-0.032,0.026-0.066,0.049-0.103,0.073c-0.036,0.023-0.067,0.042-0.097,0.059
		c-0.072,0.044-0.147,0.088-0.225,0.135c-0.077,0.043-0.152,0.09-0.224,0.139c-0.071,0.052-0.138,0.104-0.201,0.161
		s-0.117,0.119-0.167,0.185c-0.058,0.078-0.101,0.164-0.13,0.259c-0.029,0.094-0.041,0.197-0.034,0.31h1.99V9.59z"/>
</g>
<g>
</g>
<g>
</g>
<g>
</g>
<g>
</g>
<g>
</g>
<g>
</g>
<g>
</g>
<g>
</g>
<g>
</g>
<g>
</g>
<g>
</g>
<g>
</g>
<g>
</g>
<g>
</g>
<g>
</g>
</svg>
