<?xml version="1.0" encoding="iso-8859-1"?>
<!-- Generator: Adobe Illustrator 16.0.0, SVG Export Plug-In . SVG Version: 6.00 Build 0)  -->
<!DOCTYPE svg PUBLIC "-//W3C//DTD SVG 1.1//EN" "http://www.w3.org/Graphics/SVG/1.1/DTD/svg11.dtd">
<svg version="1.1" id="Layer_1" xmlns="http://www.w3.org/2000/svg" xmlns:xlink="http://www.w3.org/1999/xlink" x="0px" y="0px"
	 width="30.563px" height="23.158px" viewBox="0 0 30.563 23.158" style="enable-background:new 0 0 30.563 23.158;"
	 xml:space="preserve">
<path d="M30.525,13.311C30.222,12.295,26.521,0,24.997,0c-1.589,0-2.964,3.309-2.964,3.309l1.173,1.051c0,0,0.52-1.31,1.271-1.31
	c0.683,0,3.283,8.677,3.753,10.261H17.033l0.091,0.982l-1.699-0.515l-1.994,0.603l0.099-1.07H2.38
	C2.9,11.544,5.411,3.148,6.083,3.148c0.753,0,1.271,1.31,1.271,1.31l1.173-1.051c0,0-1.374-3.309-2.964-3.309
	c-1.563,0-5.412,12.776-5.543,13.212H0l0.907,9.847h11.715l0.572-6.207l2.23-0.675l1.936,0.586l0.58,6.296h11.714l0.908-9.847
	H30.525z M11.446,21.869H2.083L1.414,14.6h10.701L11.446,21.869z M28.479,21.869h-9.363L18.448,14.6h10.699L28.479,21.869z"/>
<g>
</g>
<g>
</g>
<g>
</g>
<g>
</g>
<g>
</g>
<g>
</g>
<g>
</g>
<g>
</g>
<g>
</g>
<g>
</g>
<g>
</g>
<g>
</g>
<g>
</g>
<g>
</g>
<g>
</g>
</svg>
