<?xml version="1.0" encoding="iso-8859-1"?>
<!-- Generator: Adobe Illustrator 16.0.0, SVG Export Plug-In . SVG Version: 6.00 Build 0)  -->
<!DOCTYPE svg PUBLIC "-//W3C//DTD SVG 1.1//EN" "http://www.w3.org/Graphics/SVG/1.1/DTD/svg11.dtd">
<svg version="1.1" id="Layer_1" xmlns="http://www.w3.org/2000/svg" xmlns:xlink="http://www.w3.org/1999/xlink" x="0px" y="0px"
	 width="20.824px" height="31.716px" viewBox="0 0 20.824 31.716" style="enable-background:new 0 0 20.824 31.716;"
	 xml:space="preserve">
<g>
	<path d="M20.385,18.561l-0.357-0.29l0.443-0.152l0.169-0.109c0.266-0.265,0.629-0.627-1.991-8.857
		c-1.261-3.961-2.63-7.883-2.643-7.921L15.575,0l-0.313,1.265c-0.856,3.464-3.561,14.864-2.428,16.162l0.071,0.082l0.624,0.198
		l-0.5,0.36l-0.084,0.066c-0.387,0.386-0.257,2.249,0.243,3.497c0.581,1.45,1.588,2.232,2.911,2.262
		c0.076,0.001,0.152-0.004,0.227-0.007l-0.014,0.852l-0.999,0.018l0.013,0.593l0.978-0.019l-0.104,6.388l0.868-1.849l0.022-4.554
		l0.717-0.014l-0.011-0.591l-0.703,0.014l0.005-0.957c0.653-0.179,1.27-0.543,1.817-1.091c1.213-1.211,1.865-3.082,1.714-3.75
		C20.585,18.722,20.478,18.617,20.385,18.561z M15.704,2.731c0.336,0.973,0.669,1.954,0.992,2.924l-0.693,0.878l-0.955-0.957
		C15.259,4.636,15.477,3.682,15.704,2.731z M18.369,22.125c-0.396,0.395-0.819,0.657-1.266,0.817v-0.027l-0.515-10.856l-0.154,0.019
		l-0.092,10.845l-0.002,0.174c-0.075,0.005-0.147,0.021-0.224,0.019c-0.767-0.017-1.388-0.377-1.845-1.069
		c-0.781-1.185-0.845-2.967-0.743-3.385l1.707-1.23l-1.856-0.588c-0.356-0.843,0.4-5.472,1.535-10.668l1.136,1.135l0.841-1.068
		c1.773,5.351,3.219,10.22,3.161,11.2l-1.598,0.548l1.425,1.162C19.898,19.573,19.403,21.09,18.369,22.125z"/>
	<path d="M12.561,23.949H9.896v-0.796h0.771v-1.056H9.034l0.423-2.754H3.436l0.423,2.754H2.228v1.056h0.848v0.796H0.001v6.188
		c-0.004,0.073-0.016,0.73,0.421,1.184c0.25,0.259,0.599,0.396,1.008,0.396h9.656c0.423,0,0.782-0.142,1.04-0.408
		c0.449-0.467,0.438-1.142,0.435-1.202V23.949z M0.763,24.711h3.074v-1.559h5.297v1.559h2.664v1.897H0.763V24.711z M10.688,28.542
		v0.362H1.874v-0.362H10.688z M3.419,28.103v-0.362h5.88v0.362H3.419z M11.798,30.118c0.004,0.118-0.032,0.465-0.225,0.664
		c-0.112,0.116-0.272,0.172-0.487,0.172H1.43c-0.202,0-0.351-0.053-0.456-0.16c-0.182-0.186-0.214-0.519-0.211-0.643v-0.456h11.035
		V30.118z"/>
</g>
<g>
</g>
<g>
</g>
<g>
</g>
<g>
</g>
<g>
</g>
<g>
</g>
<g>
</g>
<g>
</g>
<g>
</g>
<g>
</g>
<g>
</g>
<g>
</g>
<g>
</g>
<g>
</g>
<g>
</g>
</svg>
