<?xml version="1.0" encoding="iso-8859-1"?>
<!-- Generator: Adobe Illustrator 16.0.0, SVG Export Plug-In . SVG Version: 6.00 Build 0)  -->
<!DOCTYPE svg PUBLIC "-//W3C//DTD SVG 1.1//EN" "http://www.w3.org/Graphics/SVG/1.1/DTD/svg11.dtd">
<svg version="1.1" id="Layer_1" xmlns="http://www.w3.org/2000/svg" xmlns:xlink="http://www.w3.org/1999/xlink" x="0px" y="0px"
	 width="31.917px" height="28.157px" viewBox="0 0 31.917 28.157" style="enable-background:new 0 0 31.917 28.157;"
	 xml:space="preserve">
<g>
	<path style="fill:#070909;" d="M24.043,0.03c-4.556-0.32-8.442,1.969-8.662,5.102c-0.125,1.775,0.965,3.528,2.929,4.742
		l-1.782,2.66l0.691-0.058c0.047-0.004,4.653-0.391,7.846-1.098c4.187-0.928,6.681-2.78,6.843-5.085
		C32.128,3.161,28.601,0.351,24.043,0.03z M24.92,10.726c-2.412,0.535-5.654,0.885-7.059,1.021l1.401-2.093l-0.314-0.178
		c-1.93-1.088-3.013-2.693-2.899-4.297c0.194-2.766,3.759-4.775,7.947-4.48c4.189,0.294,7.438,2.783,7.244,5.549
		C31.042,9.069,26.755,10.319,24.92,10.726z"/>
	<path style="fill:#070909;" d="M26.913,23.505c0.021-1.274-0.501-2.275-1.693-2.477c-0.915-0.153-1.67,0.265-1.973,0.469
		c0.012-0.266,0.026-0.562,0.033-0.732c0.009-0.229,0.414-0.353,0.61-0.538c0.116-0.111-0.003-0.404-0.003-0.404
		s-1.014,0.449-0.986,0.884c0.015,0.211,0.016,0.508,0.015,0.756c-0.284-0.189-0.884-0.498-1.73-0.459
		c-1.169,0.057-1.935,0.914-1.913,2.188c0.018,1.405,1.012,2.622,1.969,3.067h-3.522V25.97h-0.584l-0.106-1.901l-0.317,0.124
		c-0.426,0.166-0.849,0.27-1.279,0.313l-0.594-5.384c0.095-0.7,0.22-1.766,0.268-2.86c0.08-1.871,0.36-7.813-5.028-7.813
		c-5.39,0-5.241,4.961-5.241,4.961l0.393,6.435l-0.486,4.681c-0.539-0.02-1.062-0.126-1.591-0.332l-0.317-0.124L2.729,25.97H2.119
		v0.289H0v1.898h1.398h5.793h6.104h5.42h7.752v-1.898h-1.415C25.974,25.858,26.896,24.854,26.913,23.505z M3.236,25.724l0.053-0.958
		c0.537,0.175,1.073,0.26,1.629,0.26c0.979,0,1.831-0.274,2.516-0.495c0.544-0.176,0.997-0.324,1.353-0.283
		c0.707,0.085,0.858,1.024,0.891,1.477H3.236z M6.55,24.282l0.291-2.251c0.225,0.759,0.44,1.483,0.593,1.981
		c-0.052,0.017-0.101,0.031-0.152,0.048C7.049,24.136,6.804,24.211,6.55,24.282z M8.486,19.027l0.426-0.106v-1.6
		c-1.748-0.545-3.018-2.177-3.018-4.105c0-0.143,0.007-0.283,0.021-0.422c1.171-0.08,5.215-0.447,5.319-1.756
		c0.385,0.71,2.427,2.5,3.236,2.618c-0.183,1.79-1.465,3.253-3.158,3.709v1.499h0.008l0.543,0.258l-1.707,3.076L8.486,19.027z
		 M13.631,24.366c-0.281-0.067-0.548-0.146-0.803-0.228c0.084-0.543,0.241-1.531,0.419-2.562L13.631,24.366z M10.186,25.724
		c0.031-0.452,0.182-1.391,0.892-1.477c0.354-0.043,0.809,0.107,1.353,0.283c0.685,0.221,1.535,0.495,2.515,0.495
		c0.557,0,1.092-0.085,1.629-0.26l0.053,0.958H10.186z M20.885,24.756c-0.443-0.566-0.31-1.37-0.31-1.37s0.296,0.744,0.6,1.206
		C21.479,25.054,22,25.421,22,25.421S21.326,25.322,20.885,24.756z"/>
</g>
<g>
</g>
<g>
</g>
<g>
</g>
<g>
</g>
<g>
</g>
<g>
</g>
<g>
</g>
<g>
</g>
<g>
</g>
<g>
</g>
<g>
</g>
<g>
</g>
<g>
</g>
<g>
</g>
<g>
</g>
</svg>
