<?xml version="1.0" encoding="iso-8859-1"?>
<!-- Generator: Adobe Illustrator 16.0.0, SVG Export Plug-In . SVG Version: 6.00 Build 0)  -->
<!DOCTYPE svg PUBLIC "-//W3C//DTD SVG 1.1//EN" "http://www.w3.org/Graphics/SVG/1.1/DTD/svg11.dtd">
<svg version="1.1" id="Layer_1" xmlns="http://www.w3.org/2000/svg" xmlns:xlink="http://www.w3.org/1999/xlink" x="0px" y="0px"
	 width="25.329px" height="31.622px" viewBox="0 0 25.329 31.622" style="enable-background:new 0 0 25.329 31.622;"
	 xml:space="preserve">
<path d="M8.936,20.734L2.76,20.711l-0.137,4.166h1.909v5.654c-0.871,0.015-1.409,0.15-1.409,0.542c0,0.413,0.85,0.549,0.85,0.549
	h0.56h1.343h0.066c0,0,0-0.292,0-0.518c0-0.079-0.021-0.159-0.066-0.229v-5.998h0.714l0.247,2.342l-0.383,3.558
	C6.346,30.87,6.3,30.982,6.3,31.104c0,0.226,0,0.518,0,0.518h0.063h1.355H8.27c0,0,0.849-0.136,0.849-0.549
	c0-0.374-0.503-0.515-1.312-0.537l0.271-3.317L7.89,24.877h1.28L8.936,20.734z"/>
<path d="M24.396,12.736l0.009-4.58L21.05,8.15l0.002-1.148l-2.106-0.004c0-0.668-0.561-1.21-1.256-1.213
	c-0.695,0-1.259,0.541-1.262,1.208l-2.105-0.004l-0.003,1.148l-3.294-0.006C11.108,6.158,11.164,0,5.727,0
	C5.149,0,4.473,0.07,4.178,0.201C3.885,0.334,3.832,0.634,3.641,0.699c-0.197,0.066-0.479,0.04-0.652,0.123
	C0.27,2.132,0.363,5.326,0.363,5.326l0.4,6.558L0,19.237l1.721,0.156l0.686-5.283c0.414,1.403,0.809,2.698,0.809,2.698l-0.452,3.545
	h2.872v-6.359l-1.552-2.941l0.435-0.109v-1.65C2.843,8.766,1.608,7.271,1.47,5.461l1.147,0.166v0.701h3.012V5.833H6.16v0.495h3.012
	V5.645l0.957-0.149C10.074,7.011,9.291,9.04,6.963,9.343v1.542h0.008l0.555,0.264l-1.517,2.729v6.476h1.526h1.447L8.438,16.7
	c0,0,0.227-1.487,0.497-3.052l1.485,0.182l-0.024,13.117l13.975,0.025l0.021-11.081l0.933,0.002l0.006-3.156L24.396,12.736z
	 M5.294,5.992H2.951V4.801h2.343V5.992z M8.837,5.992H6.495V4.801h2.342V5.992z M9.172,5.136v-0.67H6.16v0.698H5.629V4.466H2.617
	v0.653L1.455,4.952c0.01-0.085,0.021-0.17,0.03-0.256C2.697,4.614,4.064,3.66,4.17,2.334c1.531,1.269,3.702,1.33,5.512,1.49
	c0.225,0.107,0.392,0.562,0.438,1.165L9.172,5.136z M17.677,6.584c0.241,0,0.438,0.195,0.438,0.438s-0.196,0.438-0.438,0.438
	s-0.438-0.195-0.438-0.438S17.436,6.584,17.677,6.584z M23.396,12.734l-0.91-0.001l-0.013,3.159l0.917-0.003l-0.019,10.081
	l-11.975-0.021l0.031-16.816l2.889,0.005l-0.002,0.905l6.73,0.01l0.002-0.902l2.355,0.004L23.396,12.734z"/>
<g>
	<path d="M15.173,15.421c0.573,0.172,1.225,0.277,1.914,0.294v-2.444C16.273,13.382,15.571,14.219,15.173,15.421z"/>
	<path d="M17.087,22.124V19.68c-0.689,0.017-1.341,0.123-1.916,0.294C15.568,21.177,16.272,22.014,17.087,22.124z"/>
	<path d="M15.06,19.601c0.611-0.188,1.299-0.299,2.027-0.318v-1.229H14.83C14.854,18.604,14.935,19.126,15.06,19.601z"/>
	<path d="M14.823,17.655h2.264V16.11c-0.728-0.018-1.413-0.129-2.024-0.316C14.913,16.359,14.826,16.989,14.823,17.655z"/>
	<path d="M15.872,13.488c-0.779,0.263-1.463,0.737-1.982,1.354c0.266,0.174,0.571,0.327,0.914,0.455
		C15.057,14.544,15.427,13.917,15.872,13.488z"/>
	<path d="M14.689,15.665c-0.384-0.144-0.731-0.318-1.032-0.52c-0.501,0.713-0.804,1.576-0.812,2.51h1.58
		C14.43,16.946,14.523,16.273,14.689,15.665z"/>
	<path d="M13.891,20.552c0.519,0.617,1.202,1.092,1.981,1.354c-0.445-0.429-0.815-1.056-1.069-1.809
		C14.461,20.226,14.156,20.378,13.891,20.552z"/>
	<path d="M20.125,17.655h1.602c-0.008-0.934-0.309-1.797-0.812-2.51c-0.306,0.205-0.661,0.384-1.053,0.529
		C20.026,16.279,20.121,16.95,20.125,17.655z"/>
	<path d="M14.434,18.053H12.86c0.065,0.814,0.352,1.564,0.797,2.196c0.301-0.201,0.647-0.376,1.032-0.521
		C14.55,19.212,14.458,18.648,14.434,18.053z"/>
	<path d="M19.862,19.721c0.392,0.146,0.748,0.324,1.053,0.528c0.446-0.632,0.731-1.382,0.797-2.196h-1.597
		C20.091,18.645,20.001,19.206,19.862,19.721z"/>
	<path d="M19.72,18.053h-2.235v1.229c0.719,0.02,1.4,0.13,2.008,0.313C19.616,19.12,19.694,18.601,19.72,18.053z"/>
	<path d="M17.484,19.68v2.441c0.806-0.125,1.501-0.958,1.895-2.152C18.812,19.798,18.167,19.696,17.484,19.68z"/>
	<path d="M18.666,21.919c0.793-0.261,1.488-0.74,2.016-1.367c-0.27-0.178-0.584-0.332-0.931-0.461
		C19.493,20.853,19.118,21.488,18.666,21.919z"/>
	<path d="M20.682,14.844c-0.527-0.628-1.223-1.108-2.016-1.368c0.452,0.431,0.826,1.066,1.082,1.828
		C20.098,15.176,20.412,15.019,20.682,14.844z"/>
	<path d="M17.484,13.273v2.441c0.683-0.017,1.327-0.12,1.894-0.289C18.984,14.232,18.29,13.398,17.484,13.273z"/>
	<path d="M19.489,15.8c-0.605,0.183-1.286,0.293-2.005,0.311v1.545h2.241C19.724,16.992,19.636,16.363,19.489,15.8z"/>
</g>
<g>
</g>
<g>
</g>
<g>
</g>
<g>
</g>
<g>
</g>
<g>
</g>
<g>
</g>
<g>
</g>
<g>
</g>
<g>
</g>
<g>
</g>
<g>
</g>
<g>
</g>
<g>
</g>
<g>
</g>
</svg>
