<?xml version="1.0" encoding="iso-8859-1"?>
<!-- Generator: Adobe Illustrator 16.0.0, SVG Export Plug-In . SVG Version: 6.00 Build 0)  -->
<!DOCTYPE svg PUBLIC "-//W3C//DTD SVG 1.1//EN" "http://www.w3.org/Graphics/SVG/1.1/DTD/svg11.dtd">
<svg version="1.1" id="Layer_1" xmlns="http://www.w3.org/2000/svg" xmlns:xlink="http://www.w3.org/1999/xlink" x="0px" y="0px"
	 width="14.343px" height="31.565px" viewBox="0 0 14.343 31.565" style="enable-background:new 0 0 14.343 31.565;"
	 xml:space="preserve">
<path d="M14.343,0.993V0H0v0.993h2.176v3.233l0.271,0.08C2.082,5.304,2.102,6.167,2.102,6.167l0.387,6.332l-0.737,7.104l1.663,0.152
	l0.662-5.105c0.4,1.356,0.779,2.607,0.779,2.607L3.78,23.782h2.35v6.732c-0.841,0.013-1.36,0.145-1.36,0.521
	c0,0.399,0.817,0.53,0.817,0.53H6.13h1.296h0.065c0,0,0-0.282,0-0.499c0-0.078-0.021-0.154-0.065-0.223v-7.062h0.602l0.57,3.495
	L7.986,30.75c-0.104,0.091-0.149,0.199-0.149,0.316c0,0.216,0,0.499,0,0.499h0.062h1.307h0.533c0,0,0.819-0.13,0.819-0.53
	c0-0.362-0.483-0.495-1.266-0.518l0.506-3.24l-0.482-3.495h2.091l-1.505-6.63c0,0,0.217-1.436,0.48-2.948l0.772,5.623l1.663-0.152
	l-0.872-7.886c0.095-0.688,0.217-1.738,0.264-2.815c0.041-0.95,0.13-2.962-0.518-4.691l0.183-0.058V0.993h1.058v2.292h-0.527v1.939
	h1.644V3.284h-0.351V0.993H14.343z M11.585,6.409c-0.179,1.763-1.439,3.202-3.107,3.65v1.477h0.007l0.536,0.255l-1.68,3.026
	l-1.646-3.12l0.42-0.105v-1.573C4.394,9.479,3.144,7.874,3.144,5.976c0-0.14,0.008-0.279,0.021-0.416
	c0.492-0.033,1.504-0.12,2.507-0.307l1.5,0.441l2.264-0.708C10.177,5.664,11.103,6.339,11.585,6.409z"/>
<g>
</g>
<g>
</g>
<g>
</g>
<g>
</g>
<g>
</g>
<g>
</g>
<g>
</g>
<g>
</g>
<g>
</g>
<g>
</g>
<g>
</g>
<g>
</g>
<g>
</g>
<g>
</g>
<g>
</g>
</svg>
