<?xml version="1.0" encoding="iso-8859-1"?>
<!-- Generator: Adobe Illustrator 16.0.0, SVG Export Plug-In . SVG Version: 6.00 Build 0)  -->
<!DOCTYPE svg PUBLIC "-//W3C//DTD SVG 1.1//EN" "http://www.w3.org/Graphics/SVG/1.1/DTD/svg11.dtd">
<svg version="1.1" id="Layer_1" xmlns="http://www.w3.org/2000/svg" xmlns:xlink="http://www.w3.org/1999/xlink" x="0px" y="0px"
	 width="11.577px" height="32.093px" viewBox="0 0 11.577 32.093" style="enable-background:new 0 0 11.577 32.093;"
	 xml:space="preserve">
<g>
	<path d="M9.07,21.044l-6.267-0.024l-0.14,4.228h1.938v5.739c-0.884,0.014-1.43,0.153-1.43,0.549c0,0.419,0.862,0.556,0.862,0.556
		h0.568h1.362h0.068c0,0,0-0.295,0-0.523c0-0.082-0.021-0.162-0.068-0.233v-6.088h0.725l0.25,2.377l-0.388,3.611
		c-0.11,0.095-0.156,0.209-0.156,0.333c0,0.229,0,0.523,0,0.523h0.064v0h1.374v0h0.561c0,0,0.861-0.137,0.861-0.556
		c0-0.381-0.51-0.521-1.331-0.545l0.274-3.366l-0.191-2.377h1.301L9.07,21.044z"/>
	<path d="M11.577,12.454l-1.308-0.456l0,0l-3.2-1.115l0,0l-0.37-0.128l-0.074,0.178v-0.339c0.191-0.121,0.342-0.295,0.443-0.498l0,0
		c0,0,0,0,0-0.002c0.04-0.081,0.074-0.165,0.097-0.255C7.19,9.747,7.204,9.65,7.204,9.551c0-0.034-0.007-0.064-0.01-0.097l0,0
		c-0.05-0.635-0.576-1.139-1.225-1.139c-0.682,0-1.235,0.553-1.235,1.236c0,0.503,0.303,0.936,0.736,1.127v3.051v0.632H5.72h0.379
		h0.526v-1.223V12.4l0.38,0.146l0,0L7.25,12.64l1.698,0.651l0,0l1.575,0.604l-0.001,0l0.393,0.151L11.577,12.454z"/>
	<path d="M2.805,20.658H5.72v-5.917H5.469h-0.38v-0.38v-1.353l-0.943-1.79l0.441-0.111v-0.734c-0.147-0.245-0.233-0.525-0.233-0.822
		c0-0.07,0.012-0.137,0.021-0.205C2.785,8.755,1.627,7.302,1.492,5.543l1.165,0.168v0.712h3.057V5.92h0.539v0.503H9.31V5.729
		l0.971-0.151C10.228,7,9.53,8.847,7.565,9.365c0.007,0.062,0.019,0.122,0.019,0.186c0,0.367-0.132,0.708-0.354,0.986l3.251,1.132
		l0.23-0.357c0.099-0.723,0.429-1.858,0.478-2.994C11.274,6.383,11.387,0,5.814,0C5.227,0,4.54,0.072,4.241,0.206
		C3.943,0.339,3.889,0.644,3.696,0.709C3.495,0.778,3.211,0.75,3.034,0.836c-2.76,1.329-2.664,4.57-2.664,4.57l0.407,6.656L0,19.524
		l1.749,0.16l0.694-5.363c0.421,1.425,0.82,2.739,0.82,2.739L2.805,20.658z M5.375,6.083H2.997V4.874h2.377V6.083z M8.97,6.083
		H6.593V4.874H8.97V6.083z M1.508,4.768c1.229-0.083,2.617-1.052,2.725-2.399c1.554,1.288,3.757,1.35,5.594,1.515
		c0.228,0.107,0.396,0.57,0.444,1.181L9.31,5.213V4.534H6.253v0.707H5.714V4.534H2.657v0.662l-1.179-0.17
		C1.487,4.94,1.5,4.855,1.508,4.768z"/>
	<path d="M9.125,13.765l-2.12-0.812v1.408v0.38h-0.38H6.099v5.917h1.549h1.469l-0.553-3.708c0,0,0.197-1.298,0.445-2.754h1.233
		L9.125,13.765L9.125,13.765z"/>
</g>
<g>
</g>
<g>
</g>
<g>
</g>
<g>
</g>
<g>
</g>
<g>
</g>
<g>
</g>
<g>
</g>
<g>
</g>
<g>
</g>
<g>
</g>
<g>
</g>
<g>
</g>
<g>
</g>
<g>
</g>
</svg>
