<?xml version="1.0" encoding="iso-8859-1"?>
<!-- Generator: Adobe Illustrator 16.0.0, SVG Export Plug-In . SVG Version: 6.00 Build 0)  -->
<!DOCTYPE svg PUBLIC "-//W3C//DTD SVG 1.1//EN" "http://www.w3.org/Graphics/SVG/1.1/DTD/svg11.dtd">
<svg version="1.1" id="Layer_1" xmlns="http://www.w3.org/2000/svg" xmlns:xlink="http://www.w3.org/1999/xlink" x="0px" y="0px"
	 width="25.329px" height="31.622px" viewBox="0 0 25.329 31.622" style="enable-background:new 0 0 25.329 31.622;"
	 xml:space="preserve">
<g>
	<path d="M16.645,20.558c0.93,0.319,2.499,1.264,2.499,1.264s0.48-0.781,1.041-1.141c0.56-0.361,0.991-0.638,0.991-0.638v-2.027
		l-1.729,1.526l-4.681-1.598v2.622C14.766,20.566,15.717,20.236,16.645,20.558z"/>
	<path d="M8.936,20.734L2.76,20.711l-0.137,4.166h1.909v5.654c-0.871,0.015-1.409,0.15-1.409,0.542c0,0.413,0.85,0.549,0.85,0.549
		h0.56h1.343h0.066c0,0,0-0.292,0-0.518c0-0.079-0.021-0.159-0.066-0.229v-5.998h0.714l0.247,2.342l-0.383,3.558
		C6.346,30.87,6.3,30.982,6.3,31.104c0,0.226,0,0.518,0,0.518h0.063h1.355H8.27c0,0,0.849-0.136,0.849-0.549
		c0-0.374-0.503-0.515-1.312-0.537l0.271-3.317L7.89,24.877h1.28L8.936,20.734z"/>
	<path d="M24.396,12.736l0.009-4.58L21.05,8.15l0.002-1.148l-2.106-0.004c0-0.668-0.561-1.21-1.256-1.213
		c-0.695,0-1.259,0.541-1.262,1.208l-2.105-0.004l-0.003,1.148l-3.294-0.006C11.108,6.158,11.164,0,5.727,0
		C5.149,0,4.473,0.07,4.178,0.201C3.885,0.334,3.832,0.634,3.641,0.699c-0.197,0.066-0.479,0.04-0.652,0.123
		C0.27,2.132,0.363,5.326,0.363,5.326l0.4,6.558L0,19.237l1.721,0.156l0.686-5.283c0.414,1.403,0.809,2.698,0.809,2.698
		l-0.452,3.545h2.872v-6.359l-1.552-2.941l0.435-0.109v-1.65C2.843,8.766,1.608,7.271,1.47,5.461l1.147,0.166v0.701h3.012V5.833
		H6.16v0.495h3.012V5.645l0.957-0.149C10.074,7.011,9.291,9.04,6.963,9.343v1.542h0.008l0.555,0.264l-1.517,2.729v6.476h1.526h1.447
		L8.438,16.7c0,0,0.227-1.487,0.497-3.052l1.485,0.182l-0.024,13.117l13.975,0.025l0.021-11.081l0.933,0.002l0.006-3.156
		L24.396,12.736z M5.294,5.992H2.951V4.801h2.343V5.992z M8.837,5.992H6.495V4.801h2.342V5.992z M9.172,5.136v-0.67H6.16v0.698
		H5.629V4.466H2.617v0.653L1.455,4.952c0.01-0.085,0.021-0.17,0.03-0.256C2.697,4.614,4.064,3.66,4.17,2.334
		c1.531,1.269,3.702,1.33,5.512,1.49c0.225,0.107,0.392,0.562,0.438,1.165L9.172,5.136z M17.677,6.584
		c0.241,0,0.438,0.195,0.438,0.438s-0.196,0.438-0.438,0.438s-0.438-0.195-0.438-0.438S17.436,6.584,17.677,6.584z M23.396,12.734
		l-0.91-0.001l-0.005,2.858l-5.453-1.57l-4.818,2.829l0.765,0.244v2.152h-0.34v1.434h1.188v-1.434h-0.358v-1.994l5.923,1.898
		l3.655-3.263l0.348,0.001l-0.019,10.081l-11.975-0.021l0.031-16.816l2.889,0.005l-0.002,0.905l6.73,0.01l0.002-0.902l2.355,0.004
		L23.396,12.734z"/>
</g>
<g>
</g>
<g>
</g>
<g>
</g>
<g>
</g>
<g>
</g>
<g>
</g>
<g>
</g>
<g>
</g>
<g>
</g>
<g>
</g>
<g>
</g>
<g>
</g>
<g>
</g>
<g>
</g>
<g>
</g>
</svg>
