<?xml version="1.0" encoding="iso-8859-1"?>
<!-- Generator: Adobe Illustrator 16.0.0, SVG Export Plug-In . SVG Version: 6.00 Build 0)  -->
<!DOCTYPE svg PUBLIC "-//W3C//DTD SVG 1.1//EN" "http://www.w3.org/Graphics/SVG/1.1/DTD/svg11.dtd">
<svg version="1.1" id="Layer_1" xmlns="http://www.w3.org/2000/svg" xmlns:xlink="http://www.w3.org/1999/xlink" x="0px" y="0px"
	 width="31.465px" height="23.519px" viewBox="0 0 31.465 23.519" style="enable-background:new 0 0 31.465 23.519;"
	 xml:space="preserve">
<g>
	<path d="M30.22,3.037V1.054l-0.286-0.113C29.835,0.904,27.506,0,24.399,0c-3.327,0-6.194,1.014-8.528,3.013
		C13.54,1.014,10.673,0,7.345,0C4.238,0,1.909,0.904,1.813,0.942L1.527,1.054v1.837C0.586,3.066,0,3.381,0,3.896
		c0,2.676,0,18.917,0,18.917h13.933c0.482,0.432,1.187,0.705,1.975,0.705s1.493-0.273,1.976-0.705h13.582c0,0,0-17.979,0-18.917
		C31.465,3.477,30.989,3.205,30.22,3.037z M15.723,21.322c-1.157-0.478-5.141-1.993-9.132-1.993c-1.576,0-2.972,0.242-4.162,0.72
		V1.681c0.693-0.232,2.586-0.779,4.916-0.779c3.063,0,5.696,0.927,7.847,2.733v10.964l0.531-0.585V21.322z M29.316,20.054
		c-1.277-0.514-2.745-0.773-4.371-0.773c-3.987,0-7.782,1.528-8.924,2.031v-7.298l0.532,0.585V3.635
		c2.149-1.806,4.782-2.733,7.846-2.733c2.322,0,4.221,0.548,4.917,0.779V20.054z"/>
	<polygon points="25.41,14.26 24.999,14.206 24.999,14.524 25.146,14.696 25.033,14.868 24.867,15.061 24.867,15.41 25.094,15.629 
		25.298,15.299 25.701,14.709 25.893,13.783 25.647,13.783 	"/>
	<polygon points="20.229,6.443 20.246,6.572 20.055,6.612 20.028,6.887 20.261,6.887 20.568,6.857 20.727,6.668 20.558,6.602 
		20.466,6.497 20.325,6.271 20.261,5.954 19.999,6.006 19.925,6.119 19.925,6.245 20.051,6.331 	"/>
	<polygon points="20.008,6.549 20.021,6.377 19.87,6.311 19.654,6.36 19.496,6.615 19.496,6.781 19.682,6.781 	"/>
	<path d="M24.212,5.004L24.12,5.249l-0.265,0.207L23.21,5.438l-0.028-0.143l0.674-0.03l0.14-0.119L23.182,4.77l-0.992,0.029
		l-0.557,0.284l-0.209,0.373L21.058,5.6l-0.154,0.168l0.034,0.195l0.19,0.026l0.114,0.286l0.326-0.133l0.055,0.382h-0.1
		l-0.268-0.039l-0.298,0.05L20.67,6.942l-0.412,0.065l-0.059,0.352L20.373,7.4l-0.049,0.227l-0.41-0.082l-0.375,0.082l-0.08,0.209
		l0.065,0.438l0.221,0.103l0.368-0.001l0.249-0.023l0.077-0.198l0.389-0.507L21.084,7.7l0.253-0.229l0.048,0.179l0.622,0.419
		L21.93,8.171L21.65,8.156l0.107,0.152l0.172,0.039l0.203-0.084l-0.005-0.244l0.092-0.044l-0.073-0.076l-0.414-0.231l-0.109-0.308
		h0.345l0.108,0.109l0.299,0.255l0.012,0.31l0.308,0.328l0.113-0.45l0.214-0.116l0.041,0.368l0.208,0.228l0.628-0.01l0.186,0.139
		v0.328l-0.229,0.209H23.22l-0.387-0.289l-0.406,0.041v0.249h-0.129l-0.139-0.1l-0.704-0.178V8.322l-0.895,0.069L20.283,8.54h-0.354
		l-0.174-0.018l-0.431,0.24v0.45l-0.879,0.635l0.071,0.271h0.179l-0.046,0.258l-0.126,0.046l-0.007,0.675l0.761,0.867h0.331
		l0.02-0.053h0.597l0.171-0.159h0.338l0.185,0.185l0.503,0.053l-0.066,0.669l0.559,0.986l-0.294,0.562l0.02,0.265l0.232,0.23v0.637
		l0.304,0.409v0.529h0.9l0.675-0.694l0.212-0.377l0.271-0.06v-0.317l0.18-0.211l0.377-0.516l-0.08-0.786l-0.165-0.292l0.743-0.709
		l0.818-1.169l-0.16-0.073l-0.85,0.179l-0.218-0.108l-0.894-1.683l0.063-0.074l0.885,1.075l0.022,0.333l0.203,0.206l0.417-0.027
		l0.87-0.63l0.272-0.178l-0.005-0.219l-0.291-0.037c0,0-1.019-0.48-1.019-0.501c0-0.022,0.007-0.412,0.007-0.412h0.224l0.034,0.284
		l0.473,0.271l0.539,0.027l1.172,0.191l0.273,0.172v0.268l-0.035,0.364l0.536,0.881V4.236l-1.091,0.069L26.674,4.69l0.006,0.447
		l-0.265,0.079L26.354,4.77l-0.099-0.155l-0.298-0.073L25.89,4.81l0.09,0.218l-1.06-0.069l-0.504,0.234l-0.078-0.222L24.212,5.004z
		 M22.758,5.295l-0.392,0.241v0.159l0.222,0.104l0.015,0.214l-0.313,0.468l-0.548-0.005l-0.034-0.114l0.343-0.173l0.002-0.647
		l0.581-0.405h0.125V5.295z M23.973,8.054l-0.515-0.021l-0.154,0.021V7.703l0.115-0.13l0.124-0.039l0.274-0.032l0.06-0.093
		l0.11,0.056l0.017,0.319l0.3,0.124l0.025,0.146H23.973z M25.202,7.208l0.267-0.023l0.229,0.095l0.01,0.159L25.383,7.42
		l-0.016,0.148l0.407,0.271v0.198l0.175,0.13v0.138l-0.09,0.086l-0.207-0.016l-0.041-0.063l-0.326-0.023l0.023-0.106l0.171-0.149
		V7.909l-0.331-0.242l-0.014-0.308L25.202,7.208z"/>
	<path d="M5.587,5.814L5.371,5.781c0,0.013,0.017,0.242,0.033,0.242c0.016,0,0.148,0,0.148,0L5.587,5.814z"/>
	<path d="M11.681,6.781h-0.228v0.118h0.055c0,0,0.002,0.025,0.006,0.058l0.141-0.012l0.087-0.054l0.023-0.109l0.113-0.009
		l0.044-0.093l-0.104-0.021L11.728,6.66L11.681,6.781z"/>
	<polygon points="11.131,6.989 11.297,6.975 11.313,6.859 11.214,6.781 11.139,6.874 	"/>
	<path d="M13.307,12.092l-0.701-0.006l-0.557-0.211l-0.025-0.397l-0.187-0.325l-0.503-0.006l-0.291-0.456l-0.258-0.125l-0.012,0.138
		l-0.47,0.028l-0.173-0.24l-0.49-0.099l-0.403,0.466l-0.634-0.107l-0.047-0.716l-0.463-0.08l0.185-0.351L8.226,9.403L7.616,9.81
		L7.233,9.764l-0.137-0.3l0.084-0.308l0.21-0.39L7.878,8.52l0.939,0L8.814,8.807l0.338,0.157L9.124,8.475l0.244-0.246l0.49-0.322
		L9.893,7.68l0.49-0.509l0.52-0.289l-0.045-0.038l0.352-0.333l0.129,0.035l0.061,0.074l0.133-0.148l0.032-0.016l-0.146-0.02
		L11.27,6.389V6.244l0.079-0.064h0.173l0.08,0.035l0.068,0.138l0.084-0.013V6.329l0.025,0.008l0.244-0.038l0.034-0.119l0.138,0.035
		v0.128l-0.129,0.089l0.021,0.142l0.441,0.136c0,0,0,0.002,0.001,0.005l0.102-0.008l0.007-0.192l-0.349-0.159l-0.021-0.093
		l0.291-0.099l0.013-0.278l-0.304-0.185l-0.021-0.47L11.83,5.438h-0.151l0.04-0.357l-0.567-0.135l-0.234,0.177v0.541l-0.422,0.134
		l-0.17,0.353L10.142,6.18V5.728L9.745,5.674L9.548,5.545L9.469,5.252l0.709-0.416l0.347-0.105l0.034,0.233l0.194-0.01l0.015-0.118
		l0.202-0.028l0.004-0.041l-0.088-0.036l-0.019-0.124l0.249-0.021l0.149-0.155l0.009-0.012h0.001l0.046-0.047l0.523-0.066
		l0.23,0.197l-0.606,0.323l0.772,0.181l0.1-0.257h0.337l0.119-0.225l-0.238-0.06V4.181L11.812,3.85l-0.516,0.059l-0.292,0.152
		l0.021,0.371L10.72,4.385l-0.047-0.204l0.292-0.265l-0.529-0.027l-0.152,0.046l-0.066,0.179l0.199,0.034l-0.041,0.198l-0.337,0.021
		L9.985,4.499L9.496,4.511c0,0-0.014-0.277-0.033-0.277s0.383-0.007,0.383-0.007l0.292-0.285L9.979,3.863L9.767,4.068l-0.351-0.02
		l-0.21-0.292H8.754L8.285,4.107h0.431l0.038,0.126L8.642,4.339l0.477,0.013l0.073,0.172l-0.536-0.02L8.629,4.372L8.292,4.299
		L8.113,4.201L7.319,4.207L7.074,4.445L6.91,4.432L6.724,4.326L6.175,4.161H5.17L4.587,4.558l-0.39,0.06l-0.18,0.139l0.278,0.041
		v0.111H3.701L3.47,5.074l0.298,0.25l0.813,0.007l0.112-0.119h0.681L5.619,5.43L5.606,5.768L5.812,5.96L5.639,6.083l0.04,0.446
		L5.064,7.277v0.701l0.33,0.158v0.63l0.317,0.542L5.97,9.347l0.033-0.185l-0.304-0.47L5.639,8.236h0.179l0.075,0.47l0.44,0.641
		L6.22,9.555l0.279,0.428l0.694,0.171v-0.112l0.278,0.039L7.445,10.28l0.219,0.04l0.338,0.093l0.476,0.542L9.086,11l0.059,0.497
		l-0.416,0.291l-0.02,0.443l-0.061,0.272l0.603,0.754l0.046,0.257c0,0,0.219,0.059,0.245,0.059c0.027,0,0.49,0.351,0.49,0.351v1.363
		l0.165,0.047l-0.113,0.628l0.278,0.371l-0.052,0.623l0.368,0.646l0.471,0.411l0.474,0.009l0.047-0.152l-0.349-0.293l0.02-0.146
		l0.063-0.178l0.013-0.182l-0.234-0.006l-0.118-0.149l0.194-0.188l0.027-0.143l-0.219-0.062l0.014-0.132l0.311-0.048l0.473-0.227
		l0.159-0.291l0.495-0.636l-0.111-0.497l0.151-0.265l0.457,0.014l0.307-0.243l0.099-0.958l0.342-0.433l0.059-0.278l-0.31-0.099
		L13.307,12.092z M9.711,7.202L9.596,7.316H9.344l0.039-0.174l0.12-0.01l0.024-0.06l0.184-0.025V7.202z M9.771,6.89L9.65,6.966
		L9.503,6.994c0,0,0-0.237,0-0.263h0.268V6.89z M9.996,6.707l0.121,0.075l-0.097,0.081L9.924,6.781L9.996,6.707z M9.835,6.905h0.021
		l0.302,0.089v0.154H9.903l-0.068-0.1V6.905z M9.636,6.478L9.8,6.626l-0.164,0.04V6.478z M8.942,6.502L9.17,6.408h0.313v0.094h0.068
		v0.164H9.075L8.897,6.617L8.942,6.502z M8.897,6.929l0.182-0.198h0.265L9.006,7.202L8.867,7.127L8.897,6.929z M8.654,5.808
		l0.188,0.044L8.778,6.105L8.574,6.17L8.445,5.907L8.654,5.808z M7.712,4.607V4.593h0.173L7.9,4.533h0.283v0.124l-0.08,0.109H7.712
		V4.607z M7.988,4.994c0,0,0.175-0.03,0.189-0.03c0.016,0,0,0.174,0,0.174L7.786,5.164L7.712,5.074L7.988,4.994z"/>
</g>
<g>
</g>
<g>
</g>
<g>
</g>
<g>
</g>
<g>
</g>
<g>
</g>
<g>
</g>
<g>
</g>
<g>
</g>
<g>
</g>
<g>
</g>
<g>
</g>
<g>
</g>
<g>
</g>
<g>
</g>
</svg>
