<?xml version="1.0" encoding="iso-8859-1"?>
<!-- Generator: Adobe Illustrator 16.0.0, SVG Export Plug-In . SVG Version: 6.00 Build 0)  -->
<!DOCTYPE svg PUBLIC "-//W3C//DTD SVG 1.1//EN" "http://www.w3.org/Graphics/SVG/1.1/DTD/svg11.dtd">
<svg version="1.1" id="Layer_1" xmlns="http://www.w3.org/2000/svg" xmlns:xlink="http://www.w3.org/1999/xlink" x="0px" y="0px"
	 width="27.29px" height="29.604px" viewBox="0 0 27.29 29.604" style="enable-background:new 0 0 27.29 29.604;"
	 xml:space="preserve">
<g>
	<path d="M24.8,19.085h-2.457c0.018-0.41-0.031-0.856-0.172-1.344c-0.511-2.418-2.294-5.283-2.294-5.283
		c0.112-0.817,0.257-2.057,0.313-3.338C20.285,6.936,20.612,0,14.32,0S8.201,5.791,8.201,5.791l0.459,7.515
		c0,0-1.051,1.778-1.669,3.633c-0.286,0.736-0.256,1.462-0.041,2.146H2.489L0,29.604h27.29L24.8,19.085z M10,16.381
		c0.295-0.316,0.542-0.526,0.542-0.526c0.059,0.2,0.117,0.395,0.174,0.59L10,16.381z M17.831,16.455
		c0.06-0.362,0.124-0.74,0.191-1.129c0,0,0.615,0.391,1.215,1.009L17.831,16.455z M8.609,17.479H20.01l-1.068,5.74H9.678
		L8.609,17.479z M9.487,5.071c1.387-0.097,6.063-0.527,6.184-2.047c0.448,0.824,2.809,2.896,3.765,3.053
		c-0.215,2.086-1.698,3.782-3.672,4.315v1.768h0.009l0.634,0.303l-1.992,3.587l-1.95-3.699l0.498-0.124v-1.892
		c-2.037-0.641-3.525-2.52-3.525-4.769C9.437,5.396,9.47,5.236,9.487,5.071z M3.254,20.053h4.131c0.368,0.636,0.86,1.209,1.35,1.696
		l0.011-0.011l0.396,2.126h10.337l0.288-1.55l0.182,0.119c0.844-0.471,1.81-1.235,2.21-2.381h1.876l2.032,8.584H1.223L3.254,20.053z
		"/>
	<circle cx="14.112" cy="20.356" r="0.665"/>
</g>
<g>
</g>
<g>
</g>
<g>
</g>
<g>
</g>
<g>
</g>
<g>
</g>
<g>
</g>
<g>
</g>
<g>
</g>
<g>
</g>
<g>
</g>
<g>
</g>
<g>
</g>
<g>
</g>
<g>
</g>
</svg>
