<?xml version="1.0" encoding="iso-8859-1"?>
<!-- Generator: Adobe Illustrator 16.0.0, SVG Export Plug-In . SVG Version: 6.00 Build 0)  -->
<!DOCTYPE svg PUBLIC "-//W3C//DTD SVG 1.1//EN" "http://www.w3.org/Graphics/SVG/1.1/DTD/svg11.dtd">
<svg version="1.1" id="Layer_1" xmlns="http://www.w3.org/2000/svg" xmlns:xlink="http://www.w3.org/1999/xlink" x="0px" y="0px"
	 width="27.29px" height="29.603px" viewBox="0 0 27.29 29.603" style="enable-background:new 0 0 27.29 29.603;"
	 xml:space="preserve">
<path d="M24.8,19.084h-2.457c0.018-0.41-0.031-0.855-0.172-1.343c-0.51-2.418-2.294-5.284-2.294-5.284
	c0.111-0.818,0.256-2.056,0.313-3.338C20.284,6.936,20.612,0,14.32,0C8.029,0,8.201,5.791,8.201,5.791l0.459,7.513
	c0,0-1.051,1.779-1.669,3.634c-0.286,0.735-0.256,1.462-0.04,2.146H2.489L0,29.603h27.29L24.8,19.084z M20.246,19.084h-0.367V17.13
	c0.199,0.307,0.36,0.638,0.438,0.987C20.39,18.442,20.35,18.77,20.246,19.084z M9.274,16.784l4.766,0.411v8.042l-4.766-0.412V16.784
	z M10,16.381c0.294-0.317,0.542-0.527,0.542-0.527c0.059,0.201,0.117,0.395,0.174,0.588L10,16.381z M14.649,17.195l4.765-0.411
	v8.041l-4.765,0.412V17.195z M17.831,16.455c0.061-0.362,0.124-0.742,0.191-1.129c0,0,0.615,0.39,1.215,1.008L17.831,16.455z
	 M9.487,5.07c1.387-0.095,6.063-0.526,6.185-2.047c0.448,0.825,2.808,2.896,3.764,3.053c-0.214,2.086-1.697,3.782-3.672,4.316v1.767
	h0.009l0.633,0.301l-1.992,3.589l-1.95-3.7l0.498-0.125v-1.892c-2.036-0.64-3.524-2.519-3.524-4.768
	C9.437,5.396,9.471,5.235,9.487,5.07z M3.254,20.051h4.132c0.387,0.669,0.91,1.273,1.424,1.774v3.425l5.23,0.452l0.304,0.026
	l0.305-0.026l5.23-0.452v-2.776c0.859-0.467,1.869-1.244,2.28-2.422h1.876l2.032,8.583H1.223L3.254,20.051z"/>
<g>
</g>
<g>
</g>
<g>
</g>
<g>
</g>
<g>
</g>
<g>
</g>
<g>
</g>
<g>
</g>
<g>
</g>
<g>
</g>
<g>
</g>
<g>
</g>
<g>
</g>
<g>
</g>
<g>
</g>
</svg>
