<?xml version="1.0" encoding="iso-8859-1"?>
<!-- Generator: Adobe Illustrator 16.0.0, SVG Export Plug-In . SVG Version: 6.00 Build 0)  -->
<!DOCTYPE svg PUBLIC "-//W3C//DTD SVG 1.1//EN" "http://www.w3.org/Graphics/SVG/1.1/DTD/svg11.dtd">
<svg version="1.1" id="Layer_1" xmlns="http://www.w3.org/2000/svg" xmlns:xlink="http://www.w3.org/1999/xlink" x="0px" y="0px"
	 width="31.866px" height="29.037px" viewBox="0 0 31.866 29.037" style="enable-background:new 0 0 31.866 29.037;"
	 xml:space="preserve">
<g>
	<path d="M11.038,4.281c-0.048,0.159-0.098,0.318-0.125,0.484c-0.033,0.208-0.052,0.421-0.052,0.638c0,2.14,1.733,3.873,3.872,3.873
		c2.138,0,3.872-1.733,3.872-3.873c0-0.428-0.086-0.833-0.213-1.217l0.787-1.085l-1.409-0.495l0.275-1.44l-1.721,0.492L15.532,0
		l-1.47,1.533l-1.138-1.321l-0.535,1.743l-1.827-0.599l0.688,1.539L9.92,3.269L11.038,4.281z"/>
	<path d="M23.732,3.164l-0.417,0.563l1.234,0.912L23.4,6.194l-0.021-0.028l-4.81,3.692l-1.92-0.001c0,0-0.529,1.628-1.988,1.713
		c-1.458,0.084-2.01-1.713-2.01-1.713h-0.847h-0.912L6.323,6.35l-0.52,0.676L4.646,5.949V5.937H0v8.912h2.811l-0.03-0.236
		l-0.516-0.202H0.438V6.373h3.768L4.2,7.905h1.312l0.315,0.24v5.211l0.298-0.211l0.139,0.173V8.48l4.699,3.608l0.335,6.756H11.5
		v0.879v0.652v6.893h-0.266c0,0-0.542,0.098-1.553,0.335c-1.01,0.239,0,1.434,0,1.434h4.591v-1.595v-0.174v-6.893h0.976l0.744,2.963
		l-0.744,3.93v0.174v1.595h4.589c0,0,1.006-1.215,0-1.434c-1.005-0.217-1.553-0.335-1.553-0.335h-0.268l0.73-3.866l-0.73-3.026
		v-0.652v-0.879h0.249l0.34-6.837l5.553-4.263l1.253,1.657l3.284,1.136l1.355-1.833l0.6,0.444l-0.961,1.301l-0.3-0.223l-0.813,1.102
		l0.934,0.689l0.813-1.1l-0.2-0.148l0.961-1.3l0.367,0.272l0.416-0.564L23.732,3.164z M4.644,6.544l0.892,0.831l-0.07,0.091H4.639
		L4.644,6.544z"/>
	<rect x="1.161" y="11.522" width="3.021" height="0.353"/>
	<rect x="1.161" y="10.627" width="3.727" height="0.354"/>
	<rect x="1.161" y="12.556" width="1.863" height="0.352"/>
	<rect x="1.161" y="9.686" width="3.021" height="0.354"/>
	<rect x="1.161" y="7.922" width="2.231" height="1.215"/>
	<circle cx="4.636" cy="13.227" r="0.986"/>
	<polygon points="4.636,14.709 5.436,15.72 5.816,14.719 6.878,14.58 6.079,13.57 	"/>
	<polygon points="2.1,14.025 3.1,14.406 3.238,15.467 4.25,14.668 3.11,13.225 	"/>
</g>
<g>
</g>
<g>
</g>
<g>
</g>
<g>
</g>
<g>
</g>
<g>
</g>
<g>
</g>
<g>
</g>
<g>
</g>
<g>
</g>
<g>
</g>
<g>
</g>
<g>
</g>
<g>
</g>
<g>
</g>
</svg>
