<?xml version="1.0" encoding="iso-8859-1"?>
<!-- Generator: Adobe Illustrator 16.0.0, SVG Export Plug-In . SVG Version: 6.00 Build 0)  -->
<!DOCTYPE svg PUBLIC "-//W3C//DTD SVG 1.1//EN" "http://www.w3.org/Graphics/SVG/1.1/DTD/svg11.dtd">
<svg version="1.1" id="Layer_1" xmlns="http://www.w3.org/2000/svg" xmlns:xlink="http://www.w3.org/1999/xlink" x="0px" y="0px"
	 width="26.831px" height="31.996px" viewBox="0 0 26.831 31.996" style="enable-background:new 0 0 26.831 31.996;"
	 xml:space="preserve">
<g>
	<path d="M20.993,0L20.76,0.021L20.739,0H0v31.996h26.831V8.609V6.092V5.839L20.993,0z M25.395,30.56H1.436V1.437h18.338v5.716
		h5.621V30.56z"/>
	<polygon points="3.333,15.485 6.415,15.485 6.415,20.065 13.493,22.147 20.154,20.065 20.154,15.485 21.653,15.485 21.653,18.733 
		20.904,18.733 20.904,21.481 23.236,21.481 23.236,18.733 22.736,18.733 22.736,15.485 23.652,15.485 23.652,14.08 3.333,14.08 	
		"/>
</g>
<g>
</g>
<g>
</g>
<g>
</g>
<g>
</g>
<g>
</g>
<g>
</g>
<g>
</g>
<g>
</g>
<g>
</g>
<g>
</g>
<g>
</g>
<g>
</g>
<g>
</g>
<g>
</g>
<g>
</g>
</svg>
