<?xml version="1.0" encoding="iso-8859-1"?>
<!-- Generator: Adobe Illustrator 16.0.0, SVG Export Plug-In . SVG Version: 6.00 Build 0)  -->
<!DOCTYPE svg PUBLIC "-//W3C//DTD SVG 1.1//EN" "http://www.w3.org/Graphics/SVG/1.1/DTD/svg11.dtd">
<svg version="1.1" id="Layer_1" xmlns="http://www.w3.org/2000/svg" xmlns:xlink="http://www.w3.org/1999/xlink" x="0px" y="0px"
	 width="13.59px" height="31.011px" viewBox="0 0 13.59 31.011" style="enable-background:new 0 0 13.59 31.011;"
	 xml:space="preserve">
<g>
	<path d="M12.333,29.449c-1.096-0.238-1.693-0.365-1.693-0.365h-0.292l0.797-4.216l-0.797-3.299v-0.711v-0.96h0.271l0.001-1.747
		l1.518-0.026l-0.187-7.38L8.857,10.1c0,0-0.578,1.774-2.167,1.867C5.1,12.058,4.498,10.1,4.498,10.1L1.73,10.744l-0.234,7.578
		h1.449l0.077,1.575h0.22v0.96v0.711v7.516H2.953c0,0-0.593,0.107-1.693,0.365c-1.102,0.262,0,1.563,0,1.563h5.006v-1.74v-0.188
		v-7.516h1.063l0.811,3.231l-0.811,4.284v0.188v1.74h5.004C12.333,31.011,13.43,29.688,12.333,29.449z"/>
	<path d="M13.59,0.94V0H0v0.94h2.061v3.063L2.693,4.19C2.66,4.307,2.622,4.423,2.602,4.545C2.564,4.772,2.544,5.006,2.544,5.242
		c0,2.333,1.89,4.222,4.223,4.222c2.33,0,4.221-1.889,4.221-4.222c0-0.385-0.073-0.749-0.174-1.102l0.438-0.137V0.94h1.002v2.173
		h-0.501V4.95h1.56V3.113h-0.334V0.94H13.59z"/>
</g>
<g>
</g>
<g>
</g>
<g>
</g>
<g>
</g>
<g>
</g>
<g>
</g>
<g>
</g>
<g>
</g>
<g>
</g>
<g>
</g>
<g>
</g>
<g>
</g>
<g>
</g>
<g>
</g>
<g>
</g>
</svg>
