<?xml version="1.0" encoding="iso-8859-1"?>
<!-- Generator: Adobe Illustrator 16.0.0, SVG Export Plug-In . SVG Version: 6.00 Build 0)  -->
<!DOCTYPE svg PUBLIC "-//W3C//DTD SVG 1.1//EN" "http://www.w3.org/Graphics/SVG/1.1/DTD/svg11.dtd">
<svg version="1.1" id="Layer_1" xmlns="http://www.w3.org/2000/svg" xmlns:xlink="http://www.w3.org/1999/xlink" x="0px" y="0px"
	 width="32.006px" height="22.132px" viewBox="0 0 32.006 22.132" style="enable-background:new 0 0 32.006 22.132;"
	 xml:space="preserve">
<path d="M28.948,6.055l3.058-1.144L16.203,0L0,5.401l6.075,2.025v9.078l0.124,0.207c0.097,0.162,2.467,3.965,10.073,3.965
	c7.73,0,9.205-3.956,9.263-4.125l0.048-0.139V7.313l1.624-0.607V18.06h-0.959v4.072h3.66V18.06h-0.958V6.055z M23.842,16.077
	c-0.287,0.555-1.828,2.856-7.57,2.856c-5.717,0-7.937-2.289-8.456-2.947v-7.98l8.413,2.805l7.613-2.846V16.077z M16.195,8.963
	L5.507,5.401L16.222,1.83l10.406,3.234L16.195,8.963z"/>
<g>
</g>
<g>
</g>
<g>
</g>
<g>
</g>
<g>
</g>
<g>
</g>
<g>
</g>
<g>
</g>
<g>
</g>
<g>
</g>
<g>
</g>
<g>
</g>
<g>
</g>
<g>
</g>
<g>
</g>
</svg>
