<?xml version="1.0" encoding="iso-8859-1"?>
<!-- Generator: Adobe Illustrator 16.0.0, SVG Export Plug-In . SVG Version: 6.00 Build 0)  -->
<!DOCTYPE svg PUBLIC "-//W3C//DTD SVG 1.1//EN" "http://www.w3.org/Graphics/SVG/1.1/DTD/svg11.dtd">
<svg version="1.1" id="Layer_1" xmlns="http://www.w3.org/2000/svg" xmlns:xlink="http://www.w3.org/1999/xlink" x="0px" y="0px"
	 width="31.997px" height="21.494px" viewBox="0 0 31.997 21.494" style="enable-background:new 0 0 31.997 21.494;"
	 xml:space="preserve">
<g>
	<polygon points="30.917,4.346 31.997,4 25.186,0 16.521,2.496 21.85,7.253 30.223,4.568 30.223,7.387 29.717,7.387 29.717,9.413 
		31.396,9.413 31.396,7.387 30.917,7.387 	"/>
	<path d="M21.625,12.424l-2.822-2.883h-0.01l-4.529-2.97L8.385,6.683l4.4,3.003L5.398,9.614l-4.13-4.908L0,7.134l4.059,7.113
		l7.82-0.009l-7.203,7.256l8.676-1.536l5.777-5.729l7.834-0.01c1.293-0.001,2.341-1.054,2.339-2.347
		c-0.001-0.599-0.235-1.133-0.605-1.545L21.625,12.424z"/>
	<polygon points="28.382,9.899 28.355,5.679 21.737,7.938 19.292,5.778 19.319,9.354 21.771,11.859 	"/>
</g>
<g>
</g>
<g>
</g>
<g>
</g>
<g>
</g>
<g>
</g>
<g>
</g>
<g>
</g>
<g>
</g>
<g>
</g>
<g>
</g>
<g>
</g>
<g>
</g>
<g>
</g>
<g>
</g>
<g>
</g>
</svg>
