<?xml version="1.0" encoding="iso-8859-1"?>
<!-- Generator: Adobe Illustrator 16.0.0, SVG Export Plug-In . SVG Version: 6.00 Build 0)  -->
<!DOCTYPE svg PUBLIC "-//W3C//DTD SVG 1.1//EN" "http://www.w3.org/Graphics/SVG/1.1/DTD/svg11.dtd">
<svg version="1.1" id="Layer_1" xmlns="http://www.w3.org/2000/svg" xmlns:xlink="http://www.w3.org/1999/xlink" x="0px" y="0px"
	 width="31.935px" height="25.086px" viewBox="0 0 31.935 25.086" style="enable-background:new 0 0 31.935 25.086;"
	 xml:space="preserve">
<g>
	<path d="M14.552,13.248v-2.947c0,0-2.659-1.407-5.301-1.407s-5.22,1.448-5.22,1.448v2.372c-0.757,1.431-0.719,2.881-0.719,2.881
		l0.448,7.32l-0.226,2.171h5.565l-1.635-3.101l0.484-0.121V20.02c-1.869-0.586-3.247-2.252-3.401-4.273L5.83,15.93v0.783h3.361
		v-0.554h0.592v0.554h3.361v-0.762l1.068-0.167c-0.062,1.692-0.936,3.957-3.531,4.294V21.8h0.007l0.618,0.294l-1.661,2.992h3.2
		c0.012-0.067,0.022-0.135,0.034-0.202l0.028,0.202h2.11l-0.331-2.996c0.107-0.797,0.473-2.045,0.525-3.291
		c0.048-1.1,0.103-3.498-0.696-5.564C14.539,13.243,14.552,13.248,14.552,13.248z M8.816,16.339H6.204V15.01h2.612V16.339z
		 M12.771,16.339h-2.613V15.01h2.613V16.339z M13.145,15.382v-0.747H9.783v0.778H9.191v-0.778H5.83v0.729l-1.297-0.187
		c0.01-0.095,0.024-0.188,0.033-0.284c1.352-0.091,2.878-1.156,2.997-2.638c1.708,1.415,4.131,1.484,6.149,1.667
		c0.251,0.116,0.438,0.624,0.489,1.298L13.145,15.382z"/>
	<path d="M18.55,9.086l-1.047-0.579V8.232c0,0,0.295-1.493-1.379-0.713c-0.085,0.047-0.131,0.094-0.149,0.139L9.071,3.83L0,9.022
		l3.426,1.556v-0.506c0,0,2.874-1.613,5.82-1.613s5.911,1.568,5.911,1.568v0.883l1.89-1.016c0,1.177,0,3.692,0,4.112h-0.629v1.462
		l0.837-0.579l0.929,0.579v-1.462h-0.681V9.648L18.55,9.086z M17.047,7.979c0,0.035,0,0.133,0,0.275l-0.552-0.306
		C16.697,7.813,17.047,7.63,17.047,7.979z M16.86,9.592c-0.244,0-0.442-0.198-0.442-0.441c0-0.245,0.198-0.443,0.442-0.443
		s0.442,0.198,0.442,0.443C17.303,9.394,17.104,9.592,16.86,9.592z"/>
	<polygon points="28.985,13.541 27.948,13.541 26.394,13.541 24.842,15.401 23.239,13.541 21.599,13.541 20.43,13.541 
		19.527,13.541 19.527,16.306 29.866,16.306 29.785,13.541 	"/>
	<path d="M24.77,12.908c2.324,0,4.208-1.883,4.208-4.207c0-0.521-0.101-1.021-0.275-1.482c0.09,0.034,0.145,0.057,0.145,0.057V4.998
		c0,0-2.055-1.087-4.095-1.087c-2.041,0-4.032,1.118-4.032,1.118v2.246c0,0,0.041-0.018,0.113-0.045
		c-0.171,0.459-0.27,0.953-0.27,1.471C20.563,11.025,22.446,12.908,24.77,12.908z"/>
	<path d="M31.127,4.494l0.808-0.434l-0.808-0.448V3.4c0,0,0.228-1.154-1.065-0.551c-0.066,0.037-0.102,0.072-0.116,0.107L24.613,0
		l-7.008,4.01l2.646,1.203V4.822c0,0,2.22-1.246,4.496-1.246s4.566,1.211,4.566,1.211v0.682l1.46-0.784c0,0.909,0,2.853,0,3.177
		h-0.486V8.99l0.647-0.447l0.718,0.447V7.861h-0.526V4.494z M30.774,3.205c0,0.027,0,0.102,0,0.212l-0.427-0.236
		C30.504,3.077,30.774,2.936,30.774,3.205z M30.63,4.45c-0.188,0-0.342-0.151-0.342-0.341s0.153-0.342,0.342-0.342
		c0.189,0,0.342,0.152,0.342,0.342S30.819,4.45,30.63,4.45z"/>
</g>
<g>
</g>
<g>
</g>
<g>
</g>
<g>
</g>
<g>
</g>
<g>
</g>
<g>
</g>
<g>
</g>
<g>
</g>
<g>
</g>
<g>
</g>
<g>
</g>
<g>
</g>
<g>
</g>
<g>
</g>
</svg>
