<?xml version="1.0" encoding="iso-8859-1"?>
<!-- Generator: Adobe Illustrator 16.0.0, SVG Export Plug-In . SVG Version: 6.00 Build 0)  -->
<!DOCTYPE svg PUBLIC "-//W3C//DTD SVG 1.1//EN" "http://www.w3.org/Graphics/SVG/1.1/DTD/svg11.dtd">
<svg version="1.1" id="Layer_1" xmlns="http://www.w3.org/2000/svg" xmlns:xlink="http://www.w3.org/1999/xlink" x="0px" y="0px"
	 width="23.52px" height="31.322px" viewBox="0 0 23.52 31.322" style="enable-background:new 0 0 23.52 31.322;"
	 xml:space="preserve">
<g>
	<path d="M15.323,8.009c-0.111,0-0.22,0.01-0.327,0.023c0.126,0.143,0.205,0.32,0.205,0.516c0,0.465-0.427,0.842-0.952,0.842
		c-0.37,0-0.688-0.189-0.847-0.464c-0.237,0.32-0.377,0.702-0.377,1.113c0,1.122,1.03,2.031,2.298,2.031c1.27,0,2.3-0.909,2.3-2.031
		S16.593,8.009,15.323,8.009z"/>
	<path d="M7.514,12.08c1.275,0,2.311-0.913,2.311-2.041S8.789,7.998,7.514,7.998c-0.242,0-0.477,0.032-0.696,0.095
		C6.914,8.225,6.972,8.38,6.972,8.548c0,0.465-0.426,0.842-0.952,0.842c-0.232,0-0.441-0.076-0.606-0.198
		c-0.134,0.259-0.21,0.544-0.21,0.848C5.203,11.167,6.238,12.08,7.514,12.08z"/>
	<path d="M19.27,13.652c0,0-0.086,0.067-0.229,0.193c0.447-0.803,0.696-1.729,0.696-2.769c0-1.59-0.31-2.721-1.294-3.916
		c0.197-0.208,0.321-0.474,0.406-0.754l0.094-0.027V5.987c0.084-0.55,0.045-1.098,0-1.422V1.498h1.688V4.96h-0.843v2.929h2.625V4.96
		h-0.563V1.498h1.032V0H0v1.498h3.47V6.38l0.875,0.244C4.426,6.82,4.525,7.008,4.67,7.161c-0.983,1.195-1.293,2.326-1.293,3.916
		c0,1.131,0.293,2.127,0.815,2.979c-0.039,0.06-0.08,0.119-0.117,0.181c-1.195,0.354-4.599,1.832-3.26,6.997
		c1.61,6.223,6.145,8.826,6.145,8.826s0.17-0.252,0.406-0.721c0.167,1.117,1.299,1.983,2.67,1.983c0.981,0,1.84-0.446,2.311-1.108
		c0.495,0.493,1.233,0.809,2.06,0.809c1.485,0,2.694-1.018,2.694-2.268c0-0.021-0.004-0.041-0.004-0.063
		c0.341,0.631,0.597,0.973,0.597,0.973s4.379-2.802,5.635-9.087C24.583,14.292,19.27,13.652,19.27,13.652z M18.752,10.039
		c0,1.67-1.538,3.029-3.429,3.029s-3.428-1.359-3.428-3.029c0-0.662,0.249-1.27,0.658-1.769l3.766-1.115
		C17.723,7.536,18.752,8.678,18.752,10.039z M11.441,8.6l0.152-0.046c-0.033,0.066-0.074,0.129-0.104,0.197
		c-0.024-0.057-0.06-0.107-0.087-0.162L11.441,8.6z M11.537,11.518c0.784,0.046,0.846,0.794,0.846,0.794l-0.811,0.936l-0.976-0.936
		C10.597,12.312,10.752,11.473,11.537,11.518z M17.921,6.777l-0.264,0.28c-0.115-0.071-0.24-0.129-0.364-0.19l0.696-0.205
		C17.964,6.697,17.95,6.745,17.921,6.777z M5.52,6.95C5.483,6.97,5.443,6.985,5.407,7.006l-0.11-0.117L5.52,6.95z M6.457,7.211
		l4.026,1.122c0.377,0.486,0.6,1.073,0.6,1.706c0,1.67-1.538,3.029-3.428,3.029c-1.891,0-3.429-1.359-3.429-3.029
		C4.227,8.743,5.158,7.643,6.457,7.211z M10.036,30.422c-0.924,0-1.677-0.613-1.677-1.367c0-0.756,0.753-1.369,1.677-1.369
		s1.676,0.613,1.676,1.369C11.712,29.809,10.96,30.422,10.036,30.422z M14.406,30.122c-0.924,0-1.677-0.613-1.677-1.367
		c0-0.755,0.753-1.369,1.677-1.369s1.676,0.614,1.676,1.369C16.082,29.509,15.33,30.122,14.406,30.122z M15.401,21.511
		c-0.051,2.376,0.473,4.346,1.032,5.755c-0.494-0.478-1.22-0.78-2.027-0.78c-0.982,0-1.841,0.447-2.312,1.109
		c-0.494-0.494-1.234-0.809-2.059-0.809c-0.743,0-1.417,0.255-1.904,0.665c0.457-1.419,0.831-3.353,0.652-5.638
		c-0.188-2.387-1.198-4.254-2.193-5.552c1.377,0.753,3.098,1.154,4.966,1.159c2.282-0.005,4.345-0.604,5.829-1.711
		C16.429,17.054,15.456,19.023,15.401,21.511z M11.557,16.821c-3.83-0.008-6.994-1.788-7.445-4.955
		c0.714,1.076,2.034,1.803,3.544,1.803c1.126,0,2.146-0.404,2.889-1.054l0.084,0.079l0.929,1.243l0.934-1.278
		c0.737,0.624,1.734,1.01,2.833,1.01c1.638,0,3.051-0.854,3.709-2.082C18.734,14.928,15.498,16.813,11.557,16.821z"/>
</g>
<g>
</g>
<g>
</g>
<g>
</g>
<g>
</g>
<g>
</g>
<g>
</g>
<g>
</g>
<g>
</g>
<g>
</g>
<g>
</g>
<g>
</g>
<g>
</g>
<g>
</g>
<g>
</g>
<g>
</g>
</svg>
