<?xml version="1.0" encoding="iso-8859-1"?>
<!-- Generator: Adobe Illustrator 16.0.0, SVG Export Plug-In . SVG Version: 6.00 Build 0)  -->
<!DOCTYPE svg PUBLIC "-//W3C//DTD SVG 1.1//EN" "http://www.w3.org/Graphics/SVG/1.1/DTD/svg11.dtd">
<svg version="1.1" id="Layer_1" xmlns="http://www.w3.org/2000/svg" xmlns:xlink="http://www.w3.org/1999/xlink" x="0px" y="0px"
	 width="15.211px" height="31.476px" viewBox="0 0 15.211 31.476" style="enable-background:new 0 0 15.211 31.476;"
	 xml:space="preserve">
<g>
	<path d="M12.354,20.466c0,0,0.345-0.09,0.793-0.222l0.222,0.449l1.364-0.674l-0.131-0.264c0.412-0.168,0.688-0.331,0.588-0.44
		c-0.303-0.336-3.558-8.332-3.558-8.332l-0.018-0.004v-0.051l-2.271-0.432l-1.607,1.927l-1.66-1.927L5.43,10.618l-1.962,0.365
		c0,0-3.12,8.304-3.444,8.472c-0.11,0.058,0.181,0.2,0.606,0.361L0.474,20.28l1.438,0.488l0.159-0.471
		c0.414,0.128,0.725,0.217,0.725,0.217l0.779-3.667l0.2,0.27c-0.057,3.718-0.162,10.372-0.199,11.046
		c-0.052,0.939-2.75,1.49-2.243,2.398c0.198,0.318,1.544,0.325,3.275,0.286v0.628H7.24v-0.685c0.079-0.001,0.158-0.002,0.237-0.003
		c0.282-0.002,0.564-0.003,0.845-0.002v0.689h2.634V30.81c1.472,0.014,2.554-0.002,2.679-0.184c0.421-0.616-1.826-1.378-1.859-2.323
		c-0.024-0.687-0.277-7.897-0.414-11.796l0.021-0.06L12.354,20.466z"/>
	<path d="M3.3,3.78l0.323,0.095C3.424,4.374,3.307,4.916,3.307,5.486c0,2.405,1.951,4.356,4.354,4.356
		c2.406,0,4.357-1.951,4.357-4.356c0-0.573-0.117-1.118-0.318-1.62l0.275-0.086V0.888h0.947v2.051h-0.474v1.734h1.474V2.938h-0.315
		V0.888h0.578V0H1.353v0.888H3.3V3.78z"/>
</g>
<g>
</g>
<g>
</g>
<g>
</g>
<g>
</g>
<g>
</g>
<g>
</g>
<g>
</g>
<g>
</g>
<g>
</g>
<g>
</g>
<g>
</g>
<g>
</g>
<g>
</g>
<g>
</g>
<g>
</g>
</svg>
