<?xml version="1.0" encoding="iso-8859-1"?>
<!-- Generator: Adobe Illustrator 16.0.0, SVG Export Plug-In . SVG Version: 6.00 Build 0)  -->
<!DOCTYPE svg PUBLIC "-//W3C//DTD SVG 1.1//EN" "http://www.w3.org/Graphics/SVG/1.1/DTD/svg11.dtd">
<svg version="1.1" id="Layer_1" xmlns="http://www.w3.org/2000/svg" xmlns:xlink="http://www.w3.org/1999/xlink" x="0px" y="0px"
	 width="31.746px" height="30.738px" viewBox="0 0 31.746 30.738" style="enable-background:new 0 0 31.746 30.738;"
	 xml:space="preserve">
<g>
	<circle cx="15.795" cy="13.431" r="1.7"/>
	<circle cx="8.718" cy="13.431" r="1.7"/>
	<circle cx="23.029" cy="13.832" r="1.7"/>
	<circle cx="4.865" cy="20.039" r="1.7"/>
	<circle cx="12.57" cy="20.686" r="1.7"/>
	<path d="M21.108,28.807c-0.014-0.261-0.075-3.695-0.098-5.139l0.056-0.052l3.24-3.117l-0.232-0.164l0.087-0.334l-0.569-0.37
		l-0.08,0.306l-0.097-0.068l-2.408,2.056l-0.728,0.064l-0.785,0.713l-0.623-0.747l-1.045,0.15c0,0-0.076,0.217-0.189,0.536
		c-0.029,0.082-0.062,0.174-0.096,0.269c-0.007,0.019-0.015,0.039-0.021,0.059c-0.034,0.096-0.069,0.194-0.107,0.298
		c-0.327,0.909-0.74,2.032-0.809,2.109c-0.011,0.012,0.071,0.053,0.193,0.104l-0.104,0.273l0.634,0.242l0.104-0.271
		c0.156,0.057,0.272,0.099,0.272,0.099l0.377-1.56l0.009,0.023c-0.054,1.513-0.151,4.31-0.161,4.576
		c-0.013,0.367-0.885,0.662-0.721,0.901c0.048,0.07,0.468,0.076,1.039,0.071v0.258h1.021v-0.268c0.108,0,0.218,0,0.327,0.001
		c0.031,0.001,0.062,0.001,0.093,0.001v0.266h1.021v-0.243c0.672,0.015,1.194,0.013,1.271-0.111
		C22.176,29.385,21.129,29.172,21.108,28.807z"/>
	<path d="M20.433,18.664c-0.007-0.005-0.012-0.012-0.019-0.016c-0.276-0.193-0.61-0.31-0.974-0.31c-0.938,0-1.7,0.761-1.7,1.7
		c0,0.938,0.762,1.699,1.7,1.699s1.699-0.762,1.699-1.699C21.14,19.472,20.859,18.973,20.433,18.664z"/>
	<path d="M28.549,29.123c-0.014-0.262-0.075-3.696-0.098-5.139l3.295-3.169l-0.231-0.165l0.087-0.333l-0.569-0.37l-0.08,0.306
		l-0.097-0.069l-2.408,2.056l-0.728,0.064l-0.785,0.714l-0.624-0.748l-1.044,0.151c0,0-0.106,0.303-0.257,0.724
		c-0.013,0.035-0.024,0.068-0.037,0.104c-0.007,0.019-0.014,0.036-0.021,0.056c-0.023,0.065-0.049,0.137-0.074,0.207
		c-0.331,0.921-0.764,2.101-0.835,2.18c-0.011,0.012,0.072,0.052,0.194,0.104l-0.104,0.273l0.633,0.242l0.105-0.271
		c0.156,0.057,0.272,0.098,0.272,0.098l0.377-1.559l0.008,0.023c-0.053,1.512-0.15,4.31-0.16,4.576
		c-0.013,0.366-0.885,0.662-0.722,0.9c0.049,0.07,0.469,0.076,1.039,0.071v0.259h1.022v-0.268c0.108,0,0.218,0,0.327,0
		c0.031,0.001,0.062,0.002,0.092,0.002v0.266h1.021v-0.244c0.672,0.016,1.194,0.013,1.271-0.11
		C29.616,29.701,28.569,29.487,28.549,29.123z"/>
	<circle cx="26.881" cy="20.354" r="1.7"/>
	<polygon points="19.73,9.013 20.479,9.492 20.322,9.737 19.791,9.396 19.869,9.275 19.42,8.987 19.176,9.368 19.625,9.656 
		19.678,9.574 20.208,9.914 20.112,10.063 20.342,10.211 22.469,6.891 22.239,6.744 21.917,7.247 21.169,6.768 20.087,7.707 	"/>
	<polygon points="7.048,8.268 7.824,9.377 8.671,9.108 8.759,9.385 8.158,9.576 8.114,9.438 7.605,9.599 7.742,10.03 8.251,9.869 
		8.222,9.776 8.822,9.586 8.876,9.756 9.137,9.673 7.943,5.914 7.685,5.997 7.864,6.566 7.018,6.836 	"/>
	<polygon points="13.946,8.027 14.449,8.407 14.342,8.549 14.56,8.715 16.938,5.568 16.721,5.404 16.359,5.881 15.651,5.346 
		14.499,6.197 14.043,7.473 14.752,8.008 14.577,8.24 14.073,7.859 14.161,7.744 13.735,7.422 13.463,7.783 13.888,8.105 	"/>
	<polygon points="27.598,9.842 28.477,9.973 28.434,10.26 27.81,10.167 27.832,10.023 27.305,9.945 27.237,10.393 27.766,10.472 
		27.779,10.375 28.402,10.468 28.377,10.644 28.646,10.684 29.227,6.783 28.957,6.744 28.868,7.335 27.99,7.205 27.388,8.504 	"/>
	<polygon points="12.05,4.592 11.484,4.399 11.77,3.559 10.599,2.733 9.245,2.701 8.959,3.543 8.685,3.449 8.887,2.852 9.023,2.898 
		9.195,2.395 8.767,2.248 8.596,2.754 8.688,2.785 8.485,3.381 8.316,3.324 8.229,3.582 11.963,4.85 	"/>
	<polygon points="16.933,1.679 17.221,2.238 17.063,2.32 17.187,2.563 20.693,0.76 20.569,0.518 20.037,0.79 19.631,0 18.224,0.27 
		17.26,1.22 17.666,2.01 17.408,2.143 17.119,1.582 17.248,1.516 17.005,1.042 16.602,1.248 16.846,1.724 	"/>
	<polygon points="24.091,4.195 24.562,4.949 25.941,4.564 26.822,3.537 26.353,2.783 26.599,2.629 26.934,3.164 26.81,3.24 
		27.092,3.693 27.477,3.453 27.193,3.001 27.111,3.053 26.777,2.518 26.928,2.424 26.784,2.191 23.439,4.281 23.583,4.512 	"/>
	<path d="M27.662,14.128l0.087-0.333l-0.569-0.37l-0.079,0.306l-0.097-0.069l-2.408,2.056l-0.728,0.064l-0.785,0.713l-0.624-0.747
		l-1.044,0.151c0,0-0.497,1.412-0.86,2.381c0.367,0.234,0.657,0.577,0.821,0.986l0.292-1.21l0.009,0.022
		c-0.027,0.783-0.066,1.907-0.1,2.849l1.586-1.354l0.055-0.047l0.134-0.513l0.451,0.293l0.569,0.369l0.235,0.152L24.536,20.1
		l-0.019,0.074l0.013,0.009l0.117,0.083c-0.019-1.019-0.038-2.129-0.048-2.804l3.295-3.169L27.662,14.128z"/>
	<path d="M24.297,23.885v-0.243c0.041,0.001,0.081,0.001,0.121,0.003c0.107-0.296,0.218-0.605,0.329-0.917
		c-0.029-0.04-0.047-0.083-0.05-0.127c-0.007-0.122-0.023-0.928-0.042-1.899l-0.08,0.078l-2.962,2.85
		c0.07-0.001,0.144-0.001,0.221-0.002v0.258h1.021v-0.268c0.109,0,0.219,0,0.328,0.002c0.03,0,0.062,0,0.092,0v0.266H24.297z"/>
	<path d="M14.372,23.283c-0.055-0.153-0.1-0.281-0.133-0.374c-0.002-0.004-0.004-0.01-0.006-0.015
		c-0.032-0.09-0.05-0.144-0.05-0.144l-0.445-0.064l-0.6-0.086l-0.623,0.747l-0.785-0.714l-0.728-0.064l-2.408-2.055l-0.097,0.068
		l-0.08-0.306l-0.569,0.37l0.087,0.334l-0.232,0.164l3.296,3.169c-0.022,1.442-0.084,4.877-0.099,5.139
		c-0.02,0.365-1.066,0.578-0.87,0.931c0.077,0.124,0.6,0.126,1.271,0.11v0.244h1.021v-0.266c0.031,0,0.062,0,0.093-0.001
		c0.109-0.001,0.219-0.001,0.327-0.001v0.268h1.021V30.48c0.571,0.005,0.991-0.001,1.039-0.072c0.164-0.238-0.708-0.534-0.721-0.9
		c-0.01-0.267-0.107-3.064-0.161-4.576l0.009-0.023l0.377,1.559c0,0,0.116-0.041,0.272-0.098l0.104,0.271l0.634-0.242l-0.104-0.273
		c0.122-0.052,0.204-0.092,0.193-0.104C15.32,25.925,14.693,24.185,14.372,23.283z"/>
	<path d="M16.907,23.522c0.156-0.429,0.325-0.901,0.488-1.363c-0.03-0.833-0.185-5.06-0.185-5.06l3.472-2.594L20.59,14.34
		l0.233-0.198l-0.359-0.519l-0.204,0.123l-0.087-0.154l-3.046,1.89l-0.704-0.054l-0.589,0.705l-0.785-0.715l-0.728-0.064
		l-2.396-2.037l-0.134,0.041l-0.196-0.203l-0.569,0.37l0.206,0.228c-0.028,0.021-0.204,0.207-0.204,0.207l3.29,3.141
		c-0.01,0.667-0.028,1.76-0.047,2.769c0.12,0.249,0.192,0.523,0.192,0.817c0,0.322-0.083,0.623-0.226,0.889
		c-0.008,0.354-0.014,0.602-0.018,0.664c-0.002,0.041-0.02,0.081-0.045,0.119l0.063,0.01l0.232,0.033l0.078,0.222
		c0.099,0.278,0.208,0.587,0.32,0.9h0.772v-0.265c0.03-0.001,0.062-0.002,0.092-0.002c0.109,0,0.219-0.001,0.328,0v0.267H16.907z"/>
	<path d="M7.097,21.1l0.383-0.271l0.013-0.009l-0.019-0.074l-0.071-0.271l0.235-0.152l0.569-0.37l0.451-0.293l0.134,0.514
		l0.055,0.046l1.353,1.154c-0.036-1.014-0.094-2.656-0.13-3.695l0.009-0.022l0.377,1.559c0,0,0.116-0.041,0.272-0.099l0.104,0.271
		l0.634-0.242l-0.105-0.273c0.123-0.051,0.205-0.092,0.194-0.104c-0.117-0.131-1.224-3.27-1.224-3.27l-1.044-0.151l-0.624,0.747
		l-0.785-0.713L7.15,15.316l-2.408-2.056L4.646,13.33l-0.079-0.306l-0.569,0.37l0.087,0.333l-0.232,0.165l3.295,3.169
		c-0.021,1.442-0.083,4.877-0.098,5.138c-0.003,0.055-0.03,0.105-0.07,0.152c0.102,0.288,0.211,0.593,0.319,0.893
		c0.05-0.001,0.1-0.002,0.151-0.003v0.243h1.021v-0.266c0.03,0,0.062,0,0.092,0c0.109-0.002,0.219-0.002,0.328-0.002v0.268h0.686
		l-2.142-2.059L7.097,21.1z"/>
	<path d="M6.887,23.246c-0.04-0.111-0.079-0.219-0.116-0.321c-0.005-0.014-0.01-0.028-0.015-0.042
		c-0.036-0.102-0.071-0.199-0.102-0.285c-0.105-0.297-0.175-0.493-0.175-0.493l-1.044-0.15l-0.624,0.747l-0.785-0.713l-0.728-0.064
		l-2.408-2.056l-0.097,0.068l-0.08-0.306l-0.569,0.37l0.087,0.334L0,20.499l3.295,3.169c-0.022,1.443-0.084,4.878-0.098,5.139
		c-0.021,0.365-1.067,0.578-0.87,0.931c0.076,0.124,0.599,0.126,1.271,0.111v0.243h1.021v-0.266c0.03,0,0.061,0,0.092-0.001
		c0.109-0.001,0.219-0.001,0.327-0.001v0.268h1.022v-0.258c0.57,0.005,0.99-0.001,1.039-0.071c0.163-0.239-0.709-0.534-0.722-0.901
		c-0.01-0.267-0.107-3.063-0.16-4.576l0.008-0.023l0.377,1.56c0,0,0.116-0.042,0.272-0.099l0.105,0.271l0.633-0.242l-0.104-0.273
		c0.122-0.051,0.205-0.092,0.194-0.104C7.633,25.298,7.215,24.159,6.887,23.246z"/>
</g>
<g>
</g>
<g>
</g>
<g>
</g>
<g>
</g>
<g>
</g>
<g>
</g>
<g>
</g>
<g>
</g>
<g>
</g>
<g>
</g>
<g>
</g>
<g>
</g>
<g>
</g>
<g>
</g>
<g>
</g>
</svg>
