<?xml version="1.0" encoding="iso-8859-1"?>
<!-- Generator: Adobe Illustrator 16.0.0, SVG Export Plug-In . SVG Version: 6.00 Build 0)  -->
<!DOCTYPE svg PUBLIC "-//W3C//DTD SVG 1.1//EN" "http://www.w3.org/Graphics/SVG/1.1/DTD/svg11.dtd">
<svg version="1.1" id="Layer_1" xmlns="http://www.w3.org/2000/svg" xmlns:xlink="http://www.w3.org/1999/xlink" x="0px" y="0px"
	 width="31.616px" height="28.169px" viewBox="0 0 31.616 28.169" style="enable-background:new 0 0 31.616 28.169;"
	 xml:space="preserve">
<g>
	<path d="M11.13,6.242c-0.497,0.001-1.08,0.062-1.333,0.175S9.499,6.788,9.335,6.845c-0.17,0.057-0.413,0.034-0.563,0.106
		c-2.339,1.127-2.259,3.876-2.259,3.876l0.346,5.644l-0.215,2.448h4.392l0.016-0.632l-1.335-2.532l0.373-0.095v-1.422
		c-1.442-0.452-2.504-1.737-2.623-3.296l0.988,0.143v0.604h2.592v-0.426h0.457v0.426h2.59V11.1l0.826-0.127
		c-0.049,1.304-0.724,3.05-2.724,3.311v1.327h0.006l0.476,0.227l-1.305,2.35v0.732h4.194l-0.282-3.084
		c0.083-0.614,0.362-1.576,0.403-2.539C15.761,11.655,15.856,6.242,11.13,6.242z M10.758,11.4H8.742v-1.026h2.016V11.4z
		 M13.806,11.4h-2.015v-1.026h2.015V11.4z M14.909,10.536l-0.816,0.127v-0.576h-2.59v0.6h-0.457v-0.6H8.454v0.563l-1.001-0.145
		c0.009-0.073,0.019-0.146,0.026-0.22c1.042-0.071,2.219-0.892,2.311-2.034c1.317,1.092,3.185,1.145,4.743,1.284
		C14.726,9.626,14.869,10.019,14.909,10.536z"/>
	<path d="M4.179,20.96c-0.091-0.044-0.237-0.031-0.34-0.064c-0.099-0.034-0.126-0.189-0.278-0.258s-0.503-0.105-0.803-0.105
		c-2.848,0-2.79,3.261-2.746,4.249c0.025,0.58,0.193,1.159,0.243,1.53l-0.17,1.857h2.527v-0.441l-0.786-1.415l0.286-0.137h0.004
		v-0.8c-1.205-0.156-1.611-1.209-1.641-1.994l0.006-0.263c0.023-0.312,0.11-0.548,0.226-0.603c0.939-0.085,2.064-0.117,2.857-0.774
		c0.056,0.688,0.765,1.183,1.393,1.226c0.005,0.044,0.011,0.088,0.016,0.133l-0.008,0.264c-0.071,0.938-0.711,1.713-1.58,1.984
		v0.857l0.225,0.057l-0.804,1.525l0.009,0.381H5.46l-0.129-1.475l0.208-3.4C5.539,23.294,5.588,21.638,4.179,20.96z"/>
	<path d="M12.734,20.96c-0.091-0.044-0.237-0.031-0.34-0.064c-0.099-0.034-0.126-0.189-0.278-0.258s-0.503-0.105-0.803-0.105
		c-2.848,0-2.79,3.261-2.746,4.249c0.025,0.58,0.193,1.159,0.243,1.53l-0.17,1.857h2.527v-0.441l-0.786-1.415l0.286-0.137h0.004
		v-0.8c-1.205-0.156-1.611-1.209-1.641-1.994l0.006-0.263c0.023-0.312,0.11-0.548,0.226-0.603c0.939-0.085,2.064-0.117,2.857-0.774
		c0.056,0.688,0.765,1.183,1.393,1.226c0.005,0.044,0.011,0.088,0.016,0.133l-0.008,0.264c-0.071,0.938-0.711,1.713-1.58,1.984
		v0.857l0.225,0.057l-0.804,1.525l0.009,0.381h2.646l-0.129-1.475l0.208-3.4C14.095,23.294,14.144,21.638,12.734,20.96z"/>
	<path d="M21.414,20.96c-0.091-0.044-0.237-0.031-0.34-0.064c-0.099-0.034-0.126-0.189-0.278-0.258s-0.503-0.105-0.803-0.105
		c-2.848,0-2.79,3.261-2.746,4.249c0.025,0.58,0.193,1.159,0.243,1.53l-0.17,1.857h2.527v-0.441l-0.786-1.415l0.286-0.137h0.004
		v-0.8c-1.205-0.156-1.611-1.209-1.641-1.994l0.006-0.263c0.023-0.312,0.11-0.548,0.226-0.603c0.939-0.085,2.064-0.117,2.857-0.774
		c0.056,0.688,0.765,1.183,1.393,1.226c0.005,0.044,0.011,0.088,0.016,0.133L22.2,23.364c-0.071,0.938-0.711,1.713-1.58,1.984v0.857
		l0.225,0.057l-0.804,1.525l0.009,0.381h2.646l-0.129-1.475l0.208-3.4C22.774,23.294,22.823,21.638,21.414,20.96z"/>
	<path d="M23.661,0c-4.387,0-7.954,2.454-7.954,5.471c0,1.71,1.161,3.315,3.125,4.346l-1.527,2.668l0.658-0.102
		c0.043-0.007,4.431-0.688,7.441-1.58c3.948-1.17,6.212-3.113,6.212-5.332C31.616,2.454,28.049,0,23.661,0z M25.222,10.187
		c-2.274,0.675-5.357,1.229-6.693,1.454l1.202-2.1l-0.313-0.149c-1.922-0.911-3.068-2.378-3.068-3.921
		c0-2.662,3.28-4.828,7.313-4.828c4.033,0,7.313,2.166,7.313,4.828C30.975,8.188,26.951,9.674,25.222,10.187z"/>
</g>
<g>
</g>
<g>
</g>
<g>
</g>
<g>
</g>
<g>
</g>
<g>
</g>
<g>
</g>
<g>
</g>
<g>
</g>
<g>
</g>
<g>
</g>
<g>
</g>
<g>
</g>
<g>
</g>
<g>
</g>
</svg>
