<?xml version="1.0" encoding="iso-8859-1"?>
<!-- Generator: Adobe Illustrator 16.0.0, SVG Export Plug-In . SVG Version: 6.00 Build 0)  -->
<!DOCTYPE svg PUBLIC "-//W3C//DTD SVG 1.1//EN" "http://www.w3.org/Graphics/SVG/1.1/DTD/svg11.dtd">
<svg version="1.1" id="Layer_1" xmlns="http://www.w3.org/2000/svg" xmlns:xlink="http://www.w3.org/1999/xlink" x="0px" y="0px"
	 width="31.186px" height="30.814px" viewBox="0 0 31.186 30.814" style="enable-background:new 0 0 31.186 30.814;"
	 xml:space="preserve">
<g>
	<circle cx="5.998" cy="19.47" r="4.814"/>
	<polygon points="7.857,25.007 6.082,27.135 4.248,25.007 0,25.652 0,30.814 11.903,30.814 11.736,25.652 	"/>
	<circle cx="25.281" cy="19.202" r="4.813"/>
	<polygon points="31.019,25.383 27.14,24.738 25.365,26.866 23.53,24.738 19.283,25.383 19.283,30.545 31.186,30.545 	"/>
	<circle cx="16.071" cy="4.813" r="4.813"/>
	<polygon points="20.759,13.039 27.057,6.741 25.381,5.064 20.392,10.35 17.93,10.35 16.155,12.478 14.32,10.35 10.072,10.995 
		10.072,15.69 20.627,15.69 	"/>
</g>
<g>
</g>
<g>
</g>
<g>
</g>
<g>
</g>
<g>
</g>
<g>
</g>
<g>
</g>
<g>
</g>
<g>
</g>
<g>
</g>
<g>
</g>
<g>
</g>
<g>
</g>
<g>
</g>
<g>
</g>
</svg>
