<?xml version="1.0" encoding="iso-8859-1"?>
<!-- Generator: Adobe Illustrator 16.0.0, SVG Export Plug-In . SVG Version: 6.00 Build 0)  -->
<!DOCTYPE svg PUBLIC "-//W3C//DTD SVG 1.1//EN" "http://www.w3.org/Graphics/SVG/1.1/DTD/svg11.dtd">
<svg version="1.1" id="Layer_1" xmlns="http://www.w3.org/2000/svg" xmlns:xlink="http://www.w3.org/1999/xlink" x="0px" y="0px"
	 width="30.885px" height="25.886px" viewBox="0 0 30.885 25.886" style="enable-background:new 0 0 30.885 25.886;"
	 xml:space="preserve">
<g>
	<polygon points="0,0 0,20.311 18.042,20.311 17.405,19.021 1.29,19.021 1.29,1.29 29.596,1.29 29.596,19.021 29.024,19.021 
		29.024,20.311 30.885,20.311 30.885,0 	"/>
	<polygon points="3.827,16.924 16.372,16.924 15.723,15.597 3.827,15.597 	"/>
	<polygon points="27.362,16.103 26.954,15.888 22.985,13.803 22.985,12.643 22.985,10.924 22.985,7.879 20.171,7.879 20.171,10.924 
		20.171,12.643 20.171,13.803 20.171,13.971 20.171,15.069 20.171,15.597 20.171,16.317 19.819,15.597 19.819,15.597 19.224,14.376 
		16.57,14.367 17.659,16.604 17.649,16.604 17.808,16.924 17.808,16.924 18.351,18.023 18.44,18.21 18.441,18.21 18.843,19.021 
		18.843,19.021 19.079,19.499 20.171,21.704 21.336,21.704 21.336,25.886 26.57,25.886 26.57,21.704 27.734,21.704 27.734,20.311 
		27.734,19.021 27.734,16.298 27.362,16.103 	"/>
	<polygon points="24.275,13.024 26.077,13.971 27.209,13.971 27.209,12.643 24.275,12.643 	"/>
	<polygon points="18.881,13.085 18.881,12.643 3.676,12.643 3.676,13.971 14.942,13.971 14.503,13.071 16.574,13.078 	"/>
	<polygon points="27.285,3.67 3.749,3.67 3.749,10.924 18.881,10.924 18.881,7.879 18.881,6.589 20.171,6.589 22.985,6.589 
		24.275,6.589 24.275,7.879 24.275,10.924 27.285,10.924 	"/>
</g>
<g>
</g>
<g>
</g>
<g>
</g>
<g>
</g>
<g>
</g>
<g>
</g>
<g>
</g>
<g>
</g>
<g>
</g>
<g>
</g>
<g>
</g>
<g>
</g>
<g>
</g>
<g>
</g>
<g>
</g>
</svg>
