<?xml version="1.0" encoding="iso-8859-1"?>
<!-- Generator: Adobe Illustrator 16.0.0, SVG Export Plug-In . SVG Version: 6.00 Build 0)  -->
<!DOCTYPE svg PUBLIC "-//W3C//DTD SVG 1.1//EN" "http://www.w3.org/Graphics/SVG/1.1/DTD/svg11.dtd">
<svg version="1.1" id="Layer_1" xmlns="http://www.w3.org/2000/svg" xmlns:xlink="http://www.w3.org/1999/xlink" x="0px" y="0px"
	 width="20.205px" height="30.2px" viewBox="0 0 20.205 30.2" style="enable-background:new 0 0 20.205 30.2;" xml:space="preserve"
	>
<g>
	<path d="M10.205,27.905c-0.521,0-0.943-0.423-0.943-0.944c0-0.355,0.2-0.658,0.49-0.818l-0.881-1.634H2.832v-0.657V11.172V7.105
		V2.832h1.513v4.974l1.724-1.243l1.725,1.243V2.832h8.961l-0.001,17.621l2.832,1.612V0H0v7.105v5.428v11.318v1.792v3.737h11.499
		l-0.855-1.586C10.514,27.864,10.363,27.905,10.205,27.905z"/>
	<polygon points="19.833,23.417 19.425,23.202 15.456,21.118 15.456,19.958 15.456,18.239 15.456,15.193 12.642,15.193 
		12.642,18.239 12.642,19.958 12.642,21.118 12.642,21.286 12.642,22.383 12.642,22.912 12.642,23.632 12.29,22.912 11.693,21.691 
		9.04,21.682 10.131,23.919 10.12,23.919 10.278,24.239 10.821,25.338 10.911,25.524 10.912,25.524 11.314,26.336 11.551,26.813 
		12.642,29.019 13.806,29.019 13.806,30.2 19.04,30.2 19.04,29.019 20.205,29.019 20.205,27.626 20.205,26.336 20.205,23.613 	"/>
</g>
<g>
</g>
<g>
</g>
<g>
</g>
<g>
</g>
<g>
</g>
<g>
</g>
<g>
</g>
<g>
</g>
<g>
</g>
<g>
</g>
<g>
</g>
<g>
</g>
<g>
</g>
<g>
</g>
<g>
</g>
</svg>
