<?xml version="1.0" encoding="iso-8859-1"?>
<!-- Generator: Adobe Illustrator 16.0.0, SVG Export Plug-In . SVG Version: 6.00 Build 0)  -->
<!DOCTYPE svg PUBLIC "-//W3C//DTD SVG 1.1//EN" "http://www.w3.org/Graphics/SVG/1.1/DTD/svg11.dtd">
<svg version="1.1" id="Layer_1" xmlns="http://www.w3.org/2000/svg" xmlns:xlink="http://www.w3.org/1999/xlink" x="0px" y="0px"
	 width="18.17px" height="29.884px" viewBox="0 0 18.17 29.884" style="enable-background:new 0 0 18.17 29.884;"
	 xml:space="preserve">
<g>
	<path d="M13.469,0H0v27.168l3.773,0.008l-0.639-1.155l-1.982-0.004V1.153h11.104v5.214h4.759V26.05l-3.653-0.008v1.154l4.808,0.01
		V4.686L13.469,0z M17.016,5.214H13.41V1.571l3.605,3.593V5.214z"/>
	<rect x="3.26" y="8.386" width="11.959" height="1.009"/>
	<rect x="3.26" y="10.333" width="11.959" height="1.009"/>
	<rect x="3.236" y="4.517" width="7.554" height="1.01"/>
	<rect x="3.236" y="6.464" width="7.554" height="1.01"/>
	<rect x="3.215" y="12.424" width="12.004" height="1.01"/>
	<rect x="3.215" y="14.371" width="12.004" height="1.009"/>
	<rect x="3.215" y="16.209" width="1.482" height="1.01"/>
	<rect x="9.272" y="16.209" width="5.946" height="1.01"/>
	<rect x="3.215" y="18.156" width="1.482" height="1.009"/>
	<rect x="9.272" y="18.156" width="5.946" height="1.009"/>
	<rect x="3.215" y="20.247" width="1.482" height="1.01"/>
	<rect x="9.272" y="20.247" width="5.946" height="1.01"/>
	<polygon points="15.219,23.203 15.219,22.193 11.615,22.193 13.685,23.203 	"/>
	<polygon points="8.142,16.071 5.551,16.071 5.551,21.524 5.551,22.689 5.551,23.838 4.679,22.051 2.235,22.043 3.239,24.101 
		3.23,24.101 3.876,25.409 3.958,25.58 3.959,25.58 5.551,28.797 6.623,28.797 6.623,29.884 11.441,29.884 11.441,28.797 
		12.514,28.797 12.514,23.821 8.142,21.524 	"/>
</g>
<g>
</g>
<g>
</g>
<g>
</g>
<g>
</g>
<g>
</g>
<g>
</g>
<g>
</g>
<g>
</g>
<g>
</g>
<g>
</g>
<g>
</g>
<g>
</g>
<g>
</g>
<g>
</g>
<g>
</g>
</svg>
