<?xml version="1.0" encoding="iso-8859-1"?>
<!-- Generator: Adobe Illustrator 16.0.0, SVG Export Plug-In . SVG Version: 6.00 Build 0)  -->
<!DOCTYPE svg PUBLIC "-//W3C//DTD SVG 1.1//EN" "http://www.w3.org/Graphics/SVG/1.1/DTD/svg11.dtd">
<svg version="1.1" id="Layer_1" xmlns="http://www.w3.org/2000/svg" xmlns:xlink="http://www.w3.org/1999/xlink" x="0px" y="0px"
	 width="23.896px" height="31.429px" viewBox="0 0 23.896 31.429" style="enable-background:new 0 0 23.896 31.429;"
	 xml:space="preserve">
<g>
	<path d="M1.936,8.225c0.632,0.435,1.396,0.691,2.22,0.691c0.008,0,0.016-0.002,0.023-0.002s0.016,0.002,0.023,0.002
		c0.015,0,0.028-0.004,0.042-0.005c0.015,0.001,0.028,0.005,0.042,0.005c2.367,0,4.286-1.919,4.286-4.287
		c0-2.367-1.919-4.286-4.286-4.286C1.919,0.343,0,2.262,0,4.629c0,1.24,0.534,2.349,1.375,3.131C1.55,7.929,1.733,8.089,1.936,8.225
		z"/>
	<path d="M23.472,19.987l-0.34-10.261l-4.406,0.198l-6.868,5.437L5.17,10.268l-4.406-0.198L0.424,20.33l0.326-0.006l0.317,5.838
		l-0.372,4.183H0.591v1.084h3.208h0.08h3.208v-1.084h-0.56l0.02-4.772l-0.754-5.325l0.191,0.005l-0.189-5.924l6.149,3.807
		l6.157-4.149l-0.189,5.924l0.191-0.005l-0.754,5.325l0.02,4.772h-0.56v1.084h3.208h0.08h3.208v-1.084H23.2l-0.372-4.183
		l0.317-5.838L23.472,19.987z M3.842,30.345H3.799H3.247l0.327-4.458l-0.076-4.128l0.491,4.236L3.842,30.345z M20.097,30.002h-0.043
		l-0.146-4.35l0.491-4.236l-0.076,4.128l0.327,4.458H20.097z"/>
	<path d="M19.608,8.573c0.015,0,0.028-0.004,0.042-0.005c0.015,0.001,0.028,0.005,0.042,0.005c0.008,0,0.016-0.002,0.023-0.002
		s0.016,0.002,0.023,0.002c0.824,0,1.588-0.257,2.22-0.691c0.202-0.136,0.386-0.296,0.56-0.465c0.841-0.782,1.375-1.891,1.375-3.131
		C23.896,1.919,21.977,0,19.608,0c-2.367,0-4.286,1.919-4.286,4.286C15.322,6.654,17.241,8.573,19.608,8.573z"/>
</g>
<g>
</g>
<g>
</g>
<g>
</g>
<g>
</g>
<g>
</g>
<g>
</g>
<g>
</g>
<g>
</g>
<g>
</g>
<g>
</g>
<g>
</g>
<g>
</g>
<g>
</g>
<g>
</g>
<g>
</g>
</svg>
