<?xml version="1.0" encoding="iso-8859-1"?>
<!-- Generator: Adobe Illustrator 16.0.0, SVG Export Plug-In . SVG Version: 6.00 Build 0)  -->
<!DOCTYPE svg PUBLIC "-//W3C//DTD SVG 1.1//EN" "http://www.w3.org/Graphics/SVG/1.1/DTD/svg11.dtd">
<svg version="1.1" id="Layer_1" xmlns="http://www.w3.org/2000/svg" xmlns:xlink="http://www.w3.org/1999/xlink" x="0px" y="0px"
	 width="30.082px" height="31.938px" viewBox="0 0 30.082 31.938" style="enable-background:new 0 0 30.082 31.938;"
	 xml:space="preserve">
<g>
	<circle cx="15.36" cy="3.602" r="3.602"/>
	<polygon points="24.602,6.865 24.202,5.029 18.383,7.744 16.67,7.744 15.297,9.337 13.97,7.744 11.379,8.231 11.382,8.257 
		5.791,4.697 4.482,6.752 11.725,11.363 12.101,14.759 12.169,16.103 12.357,16.103 12.357,16.922 12.357,17.527 10.837,20.346 
		7.84,18.758 6.662,20.981 6.663,20.981 6.349,21.575 7.136,21.992 7.45,21.398 11.67,23.634 12.847,21.41 12.842,21.407 
		14.935,17.527 15.84,17.527 16.911,21.865 14.38,25.604 14.386,25.607 14.38,25.617 16.981,27.378 17.597,26.468 17.038,26.09 
		19.604,22.297 19.591,22.288 18.417,17.527 18.417,16.922 18.417,16.103 18.646,16.103 19.098,10.202 	"/>
	<rect y="30.223" width="30.082" height="1.715"/>
</g>
<g>
</g>
<g>
</g>
<g>
</g>
<g>
</g>
<g>
</g>
<g>
</g>
<g>
</g>
<g>
</g>
<g>
</g>
<g>
</g>
<g>
</g>
<g>
</g>
<g>
</g>
<g>
</g>
<g>
</g>
</svg>
