<?xml version="1.0" encoding="iso-8859-1"?>
<!-- Generator: Adobe Illustrator 16.0.0, SVG Export Plug-In . SVG Version: 6.00 Build 0)  -->
<!DOCTYPE svg PUBLIC "-//W3C//DTD SVG 1.1//EN" "http://www.w3.org/Graphics/SVG/1.1/DTD/svg11.dtd">
<svg version="1.1" id="Layer_1" xmlns="http://www.w3.org/2000/svg" xmlns:xlink="http://www.w3.org/1999/xlink" x="0px" y="0px"
	 width="25.3px" height="28.873px" viewBox="0 0 25.3 28.873" style="enable-background:new 0 0 25.3 28.873;" xml:space="preserve"
	>
<g>
	<path d="M11.535,4.229h-6.7v6.701h6.7V4.229z M6.607,6.647c-0.409,0-0.74-0.331-0.74-0.739s0.331-0.739,0.74-0.739
		c0.407,0,0.738,0.331,0.738,0.739S7.015,6.647,6.607,6.647z M8.121,8.32c-0.407,0-0.738-0.332-0.738-0.739
		c0-0.409,0.331-0.74,0.738-0.74c0.409,0,0.741,0.331,0.741,0.74C8.862,7.988,8.53,8.32,8.121,8.32z M9.82,9.93
		c-0.408,0-0.739-0.33-0.739-0.74c0-0.406,0.331-0.738,0.739-0.738s0.739,0.332,0.739,0.738C10.56,9.6,10.229,9.93,9.82,9.93z"/>
	<path d="M22.636,12.417C24.529,3.148,16.999-1.094,8.641,0.24S0.595,6.629,0.104,9.045c-0.979,6.045,5.246,12.803,5.246,12.803
		l-0.355,7.025h10.138l0.776-3.231c0,0,0.44,0.739,3.06,0.961s2.3-2.977,2.3-2.977s1.743-0.768,1.743-1.345
		s-1.031-1.322-1.031-1.322s1.11,0.2,1.511-0.268c0.399-0.466-0.489-2.155-0.489-2.155s1.366-0.033,2.173-0.921
		C25.98,16.729,22.636,14.105,22.636,12.417z M11.862,11.258H4.508V3.903h7.354V11.258z M20,14.192h-7.35v-1.083h0.688
		c0.225-0.185,1.272-1.095,1.625-2.054c0.217-0.589,0.245-1.227,0.229-1.685c-0.476-0.35-0.784-0.911-0.784-1.545
		c0-1.06,0.858-1.918,1.918-1.918c1.061,0,1.918,0.858,1.918,1.918c0,0.581-0.258,1.1-0.665,1.45
		c-0.06,0.51-0.102,1.276,0.083,1.842c0.27,0.825,1.417,1.8,1.65,1.991H20V14.192z"/>
</g>
<g>
</g>
<g>
</g>
<g>
</g>
<g>
</g>
<g>
</g>
<g>
</g>
<g>
</g>
<g>
</g>
<g>
</g>
<g>
</g>
<g>
</g>
<g>
</g>
<g>
</g>
<g>
</g>
<g>
</g>
</svg>
