<?xml version="1.0" encoding="iso-8859-1"?>
<!-- Generator: Adobe Illustrator 16.0.0, SVG Export Plug-In . SVG Version: 6.00 Build 0)  -->
<!DOCTYPE svg PUBLIC "-//W3C//DTD SVG 1.1//EN" "http://www.w3.org/Graphics/SVG/1.1/DTD/svg11.dtd">
<svg version="1.1" id="Layer_1" xmlns="http://www.w3.org/2000/svg" xmlns:xlink="http://www.w3.org/1999/xlink" x="0px" y="0px"
	 width="27.543px" height="31.288px" viewBox="0 0 27.543 31.288" style="enable-background:new 0 0 27.543 31.288;"
	 xml:space="preserve">
<g>
	<path d="M26.454,13.357v-1.735l-0.25-0.099c-0.079-0.031-1.804-0.698-4.188-0.808v0.792c1.728,0.085,3.104,0.483,3.646,0.663
		v16.084c-1.117-0.449-2.403-0.676-3.827-0.676c-3.489,0-6.812,1.338-7.811,1.778v-6.39l0.465,0.512v-4.58h-1.192v4.58l0.465-0.512
		v6.398c-1.013-0.418-4.5-1.745-7.993-1.745c-1.381,0-2.603,0.212-3.645,0.63V12.169c0.608-0.203,2.264-0.682,4.305-0.682
		c0.146,0,0.288,0.012,0.434,0.017v-0.789c-0.146-0.004-0.288-0.017-0.434-0.017c-2.721,0-4.76,0.792-4.844,0.825l-0.25,0.099v1.607
		C0.512,13.383,0,13.66,0,14.109c0,2.342,0,16.562,0,16.562h12.196c0.422,0.376,1.038,0.617,1.729,0.617s1.307-0.24,1.729-0.617
		h11.889c0,0,0-15.739,0-16.562C27.543,13.742,27.129,13.504,26.454,13.357z"/>
	<polygon points="22.633,5.806 5.902,5.806 5.902,6.861 7.538,6.861 7.538,15.41 9.175,15.41 9.175,6.861 11.286,6.861 
		11.286,15.41 12.922,15.41 12.922,6.861 15.666,6.861 15.666,15.41 17.303,15.41 17.303,6.861 19.413,6.861 19.413,15.41 
		21.049,15.41 21.049,6.861 22.633,6.861 	"/>
	<polygon points="14.4,0 5.059,5.317 23.582,5.317 	"/>
	<polygon points="22.633,15.727 21.972,15.727 6.829,15.727 6.061,15.727 6.061,16.94 5.48,16.94 5.48,18.155 23.32,18.155 
		23.32,16.94 22.633,16.94 22.633,16.333 	"/>
</g>
<g>
</g>
<g>
</g>
<g>
</g>
<g>
</g>
<g>
</g>
<g>
</g>
<g>
</g>
<g>
</g>
<g>
</g>
<g>
</g>
<g>
</g>
<g>
</g>
<g>
</g>
<g>
</g>
<g>
</g>
</svg>
