<?xml version="1.0" encoding="iso-8859-1"?>
<!-- Generator: Adobe Illustrator 16.0.0, SVG Export Plug-In . SVG Version: 6.00 Build 0)  -->
<!DOCTYPE svg PUBLIC "-//W3C//DTD SVG 1.1//EN" "http://www.w3.org/Graphics/SVG/1.1/DTD/svg11.dtd">
<svg version="1.1" id="Layer_1" xmlns="http://www.w3.org/2000/svg" xmlns:xlink="http://www.w3.org/1999/xlink" x="0px" y="0px"
	 width="26.827px" height="26.294px" viewBox="0 0 26.827 26.294" style="enable-background:new 0 0 26.827 26.294;"
	 xml:space="preserve">
<g>
	<polygon points="23.158,22.319 23.158,9.937 25.452,9.937 25.452,8.409 1.223,8.409 1.223,9.937 3.592,9.937 3.592,22.319 
		5.961,22.319 5.961,9.937 9.019,9.937 9.019,22.319 11.388,22.319 11.388,9.937 15.362,9.937 15.362,22.319 17.732,22.319 
		17.732,9.937 20.788,9.937 20.788,22.319 	"/>
	<polygon points="13.528,0 0,7.702 26.827,7.702 	"/>
	<polygon points="25.452,23.657 25.452,22.779 24.495,22.779 2.565,22.779 1.452,22.779 1.452,24.535 0.61,24.535 0.61,26.294 
		26.448,26.294 26.448,24.535 25.452,24.535 	"/>
</g>
<g>
</g>
<g>
</g>
<g>
</g>
<g>
</g>
<g>
</g>
<g>
</g>
<g>
</g>
<g>
</g>
<g>
</g>
<g>
</g>
<g>
</g>
<g>
</g>
<g>
</g>
<g>
</g>
<g>
</g>
</svg>
