<?xml version="1.0" encoding="iso-8859-1"?>
<!-- Generator: Adobe Illustrator 16.0.0, SVG Export Plug-In . SVG Version: 6.00 Build 0)  -->
<!DOCTYPE svg PUBLIC "-//W3C//DTD SVG 1.1//EN" "http://www.w3.org/Graphics/SVG/1.1/DTD/svg11.dtd">
<svg version="1.1" id="Layer_1" xmlns="http://www.w3.org/2000/svg" xmlns:xlink="http://www.w3.org/1999/xlink" x="0px" y="0px"
	 width="31.439px" height="31.068px" viewBox="0 0 31.439 31.068" style="enable-background:new 0 0 31.439 31.068;"
	 xml:space="preserve">
<g>
	<polygon points="19.575,18.866 19.575,8.399 21.514,8.399 21.514,7.108 1.033,7.108 1.033,8.399 3.036,8.399 3.036,18.866 
		5.039,18.866 5.039,8.399 7.623,8.399 7.623,18.866 9.625,18.866 9.625,8.399 12.985,8.399 12.985,18.866 14.989,18.866 
		14.989,8.399 17.572,8.399 17.572,18.866 	"/>
	<polygon points="0,6.51 22.676,6.51 11.436,0 	"/>
	<polygon points="21.514,19.997 21.514,19.254 20.706,19.254 2.167,19.254 1.227,19.254 1.227,20.739 0.516,20.739 0.516,22.226 
		22.355,22.226 22.355,20.739 21.514,20.739 	"/>
	<path d="M27.583,14.615c0,0,1.688,0.202,2.938-1.09c1.25-1.292,0.861-3.097,0.861-3.097s-1.606,0.001-2.889,1.325
		C27.211,13.078,27.583,14.615,27.583,14.615z"/>
	<path d="M27.524,11.818c0,0,1.354-1.027,1.354-2.825c0-1.797-1.536-2.825-1.536-2.825s-1.154,1.118-1.154,2.962
		C26.188,10.976,27.524,11.818,27.524,11.818z"/>
	<path d="M28.493,15.405c-1.282,1.324-0.91,2.861-0.91,2.861s1.688,0.203,2.938-1.089c1.25-1.292,0.861-3.098,0.861-3.098
		S29.775,14.08,28.493,15.405z"/>
	<path d="M28.493,19.032c-1.282,1.326-0.91,2.86-0.91,2.86s1.688,0.205,2.938-1.087c1.25-1.292,0.861-3.099,0.861-3.099
		S29.775,17.707,28.493,19.032z"/>
	<path d="M28.493,22.679c-1.282,1.325-0.91,2.861-0.91,2.861s1.688,0.204,2.938-1.089c1.25-1.291,0.861-3.097,0.861-3.097
		S29.775,21.355,28.493,22.679z"/>
	<path d="M27.237,14.602c0,0,0.374-1.536-0.909-2.86c-1.283-1.325-2.889-1.327-2.889-1.327s-0.39,1.807,0.86,3.099
		C25.55,14.805,27.237,14.602,27.237,14.602z"/>
	<path d="M27.237,18.254c0,0,0.374-1.537-0.909-2.862c-1.283-1.325-2.889-1.326-2.889-1.326s-0.39,1.806,0.86,3.099
		C25.55,18.457,27.237,18.254,27.237,18.254z"/>
	<path d="M27.237,21.882c0,0,0.374-1.536-0.909-2.861c-1.283-1.325-2.889-1.326-2.889-1.326s-0.39,1.807,0.86,3.099
		C25.55,22.085,27.237,21.882,27.237,21.882z"/>
	<path d="M26.328,22.668c-1.283-1.325-2.889-1.327-2.889-1.327s-0.39,1.807,0.86,3.099c1.25,1.291,2.937,1.088,2.937,1.088
		S27.611,23.992,26.328,22.668z"/>
	<path d="M27.216,28.555c0.065,0.001,0.129,0.005,0.195,0.005c0.147,0,0.294-0.006,0.439-0.011v-2.204h-0.634V28.555z"/>
	<polygon points="1.082,24.465 4.135,24.465 4.135,29.003 11.149,31.068 17.75,29.003 17.75,24.465 19.236,24.465 19.236,27.684 
		18.494,27.684 18.494,30.407 20.804,30.407 20.804,27.684 20.31,27.684 20.31,24.465 21.216,24.465 21.216,23.073 1.082,23.073 	
		"/>
</g>
<g>
</g>
<g>
</g>
<g>
</g>
<g>
</g>
<g>
</g>
<g>
</g>
<g>
</g>
<g>
</g>
<g>
</g>
<g>
</g>
<g>
</g>
<g>
</g>
<g>
</g>
<g>
</g>
<g>
</g>
</svg>
