<?xml version="1.0" encoding="iso-8859-1"?>
<!-- Generator: Adobe Illustrator 16.0.0, SVG Export Plug-In . SVG Version: 6.00 Build 0)  -->
<!DOCTYPE svg PUBLIC "-//W3C//DTD SVG 1.1//EN" "http://www.w3.org/Graphics/SVG/1.1/DTD/svg11.dtd">
<svg version="1.1" id="Layer_1" xmlns="http://www.w3.org/2000/svg" xmlns:xlink="http://www.w3.org/1999/xlink" x="0px" y="0px"
	 width="31.614px" height="22.972px" viewBox="0 0 31.614 22.972" style="enable-background:new 0 0 31.614 22.972;"
	 xml:space="preserve">
<g>
	<path d="M0,0v22.972h31.614V0H0z M30.325,21.681H1.29V1.289h29.035V21.681z"/>
	<rect x="2.84" y="6.286" width="3.386" height="13.864"/>
	<rect x="8.079" y="11.485" width="3.386" height="8.665"/>
	<rect x="17.348" y="13.541" width="3.386" height="6.609"/>
	<rect x="12.7" y="9.994" width="3.384" height="10.156"/>
	<path d="M29.841,7.601c0-3.036-2.453-5.506-5.481-5.543v3.229c1.25,0.035,2.257,1.057,2.257,2.314c0,1.28-1.042,2.322-2.321,2.322
		c-0.733,0-1.375-0.353-1.801-0.884l-2.292,2.291c1.016,1.112,2.471,1.816,4.092,1.816C27.354,13.146,29.841,10.658,29.841,7.601z"
		/>
</g>
<g>
</g>
<g>
</g>
<g>
</g>
<g>
</g>
<g>
</g>
<g>
</g>
<g>
</g>
<g>
</g>
<g>
</g>
<g>
</g>
<g>
</g>
<g>
</g>
<g>
</g>
<g>
</g>
<g>
</g>
</svg>
