<?xml version="1.0" encoding="iso-8859-1"?>
<!-- Generator: Adobe Illustrator 16.0.0, SVG Export Plug-In . SVG Version: 6.00 Build 0)  -->
<!DOCTYPE svg PUBLIC "-//W3C//DTD SVG 1.1//EN" "http://www.w3.org/Graphics/SVG/1.1/DTD/svg11.dtd">
<svg version="1.1" id="Layer_1" xmlns="http://www.w3.org/2000/svg" xmlns:xlink="http://www.w3.org/1999/xlink" x="0px" y="0px"
	 width="24.236px" height="23.872px" viewBox="0 0 24.236 23.872" style="enable-background:new 0 0 24.236 23.872;"
	 xml:space="preserve">
<path d="M24.235,20.764V8.886h-5.142V7.349h1.485V5.313h-3.15L18.245,0H6.629l0.818,5.313H4.298v2.036h1.637v1.537H0.002v11.937
	c-0.007,0.141-0.029,1.409,0.813,2.283c0.481,0.5,1.154,0.765,1.943,0.765H21.39c0.813,0,1.51-0.272,2.006-0.788
	C24.263,22.184,24.24,20.882,24.235,20.764z M1.473,10.357h5.935V7.349h10.216v3.008h5.141v3.66H1.473V10.357z M20.62,17.747v0.698
	H3.616v-0.698H20.62z M6.599,16.899v-0.698H17.94v0.698H6.599z M22.764,20.788c0.005,0.226-0.062,0.898-0.434,1.279
	c-0.219,0.225-0.525,0.332-0.94,0.332H2.759c-0.389,0-0.675-0.101-0.878-0.308c-0.351-0.36-0.414-1-0.408-1.239v-0.88h21.291V20.788
	z"/>
<g>
</g>
<g>
</g>
<g>
</g>
<g>
</g>
<g>
</g>
<g>
</g>
<g>
</g>
<g>
</g>
<g>
</g>
<g>
</g>
<g>
</g>
<g>
</g>
<g>
</g>
<g>
</g>
<g>
</g>
</svg>
