<?xml version="1.0" encoding="iso-8859-1"?>
<!-- Generator: Adobe Illustrator 16.0.0, SVG Export Plug-In . SVG Version: 6.00 Build 0)  -->
<!DOCTYPE svg PUBLIC "-//W3C//DTD SVG 1.1//EN" "http://www.w3.org/Graphics/SVG/1.1/DTD/svg11.dtd">
<svg version="1.1" id="Layer_1" xmlns="http://www.w3.org/2000/svg" xmlns:xlink="http://www.w3.org/1999/xlink" x="0px" y="0px"
	 width="19.585px" height="29.38px" viewBox="0 0 19.585 29.38" style="enable-background:new 0 0 19.585 29.38;"
	 xml:space="preserve">
<g>
	<rect x="4.345" y="10.852" width="11.348" height="1.292"/>
	<rect x="4.345" y="13.095" width="8.86" height="1.291"/>
	<rect x="4.345" y="15.368" width="10.804" height="1.292"/>
	<rect x="4.345" y="17.641" width="6.981" height="1.292"/>
	<rect x="4.345" y="19.939" width="5.038" height="1.292"/>
	<path d="M0,0v7.104v5.429v11.317v1.792v3.738h19.585V0H0z M10.206,27.905c-0.521,0-0.944-0.423-0.944-0.945
		c0-0.521,0.423-0.943,0.944-0.943s0.943,0.422,0.943,0.943C11.149,27.482,10.728,27.905,10.206,27.905z M16.753,24.508H2.832
		v-0.657V11.171V7.104V2.832h1.513v4.974l1.724-1.242l1.725,1.242V2.832h8.961L16.753,24.508z"/>
</g>
<g>
</g>
<g>
</g>
<g>
</g>
<g>
</g>
<g>
</g>
<g>
</g>
<g>
</g>
<g>
</g>
<g>
</g>
<g>
</g>
<g>
</g>
<g>
</g>
<g>
</g>
<g>
</g>
<g>
</g>
</svg>
