<?xml version="1.0" encoding="iso-8859-1"?>
<!-- Generator: Adobe Illustrator 16.0.0, SVG Export Plug-In . SVG Version: 6.00 Build 0)  -->
<!DOCTYPE svg PUBLIC "-//W3C//DTD SVG 1.1//EN" "http://www.w3.org/Graphics/SVG/1.1/DTD/svg11.dtd">
<svg version="1.1" id="Layer_1" xmlns="http://www.w3.org/2000/svg" xmlns:xlink="http://www.w3.org/1999/xlink" x="0px" y="0px"
	 width="29.38px" height="23.735px" viewBox="0 0 29.38 23.735" style="enable-background:new 0 0 29.38 23.735;"
	 xml:space="preserve">
<g>
	<path d="M0,0v19.584h12.533l-1.361-2.832h-8.34V2.831h1.971v3.641l1.531-0.645l1.531,0.645v-3.64h16.643v13.921H23.85v2.832h5.53V0
		H0z M26.961,10.323c-0.521,0-0.943-0.422-0.943-0.943c0-0.522,0.422-0.944,0.943-0.944c0.521,0,0.945,0.422,0.945,0.944
		C27.906,9.9,27.481,10.323,26.961,10.323z"/>
	<polygon points="22.077,16.737 18.109,14.653 18.109,13.493 18.109,11.773 18.109,8.728 15.294,8.728 15.294,11.773 15.294,13.493 
		15.294,14.653 15.294,14.82 15.294,15.917 15.294,16.446 15.294,17.167 14.943,16.446 14.346,15.225 11.693,15.216 12.783,17.453 
		12.773,17.453 12.932,17.774 13.475,18.873 13.564,19.059 13.564,19.059 13.966,19.871 14.203,20.348 15.294,22.553 16.459,22.553 
		16.459,23.735 21.694,23.735 21.694,22.553 22.858,22.553 22.858,21.161 22.858,19.871 22.858,17.147 22.485,16.952 	"/>
</g>
<g>
</g>
<g>
</g>
<g>
</g>
<g>
</g>
<g>
</g>
<g>
</g>
<g>
</g>
<g>
</g>
<g>
</g>
<g>
</g>
<g>
</g>
<g>
</g>
<g>
</g>
<g>
</g>
<g>
</g>
</svg>
