<?xml version="1.0" encoding="iso-8859-1"?>
<!-- Generator: Adobe Illustrator 16.0.0, SVG Export Plug-In . SVG Version: 6.00 Build 0)  -->
<!DOCTYPE svg PUBLIC "-//W3C//DTD SVG 1.1//EN" "http://www.w3.org/Graphics/SVG/1.1/DTD/svg11.dtd">
<svg version="1.1" id="Layer_1" xmlns="http://www.w3.org/2000/svg" xmlns:xlink="http://www.w3.org/1999/xlink" x="0px" y="0px"
	 width="20.67px" height="31.113px" viewBox="0 0 20.67 31.113" style="enable-background:new 0 0 20.67 31.113;"
	 xml:space="preserve">
<g>
	<rect x="4.345" y="16.793" width="7.782" height="1.291"/>
	<rect x="11.273" y="4.772" width="4.096" height="1.292"/>
	<rect x="11.273" y="6.82" width="4.096" height="1.292"/>
	<rect x="11.273" y="8.934" width="4.096" height="1.292"/>
	<rect x="11.273" y="10.982" width="4.096" height="1.292"/>
	<rect x="4.345" y="14.239" width="11.077" height="1.292"/>
	<rect x="4.345" y="19.281" width="5.037" height="1.292"/>
	<path d="M10.205,27.905c-0.521,0-0.943-0.423-0.943-0.945c0-0.516,0.414-0.934,0.929-0.941l-0.715-1.511H2.831V2.832h13.923
		l-0.001,18.249l2.831,1.398V0H0v7.104v5.429v11.318v1.792v3.737h11.782l-0.859-1.813C10.751,27.772,10.494,27.905,10.205,27.905z"
		/>
	<rect x="4.486" y="4.772" width="5.772" height="8.323"/>
	<polygon points="20.298,24.331 19.888,24.116 15.92,22.031 15.92,20.871 15.92,19.152 15.92,16.107 13.105,16.107 13.105,19.152 
		13.105,20.871 13.105,22.031 13.105,22.199 13.105,23.296 13.105,23.824 13.105,24.545 12.754,23.824 12.157,22.604 9.504,22.595 
		10.594,24.831 10.585,24.831 10.743,25.152 11.286,26.252 11.376,26.438 11.376,26.438 11.778,27.25 12.015,27.727 13.105,29.932 
		14.27,29.932 14.27,31.113 19.506,31.113 19.506,29.932 20.67,29.932 20.67,28.539 20.67,27.25 20.67,24.526 	"/>
</g>
<g>
</g>
<g>
</g>
<g>
</g>
<g>
</g>
<g>
</g>
<g>
</g>
<g>
</g>
<g>
</g>
<g>
</g>
<g>
</g>
<g>
</g>
<g>
</g>
<g>
</g>
<g>
</g>
<g>
</g>
</svg>
