<?xml version="1.0" encoding="iso-8859-1"?>
<!-- Generator: Adobe Illustrator 16.0.0, SVG Export Plug-In . SVG Version: 6.00 Build 0)  -->
<!DOCTYPE svg PUBLIC "-//W3C//DTD SVG 1.1//EN" "http://www.w3.org/Graphics/SVG/1.1/DTD/svg11.dtd">
<svg version="1.1" id="Layer_1" xmlns="http://www.w3.org/2000/svg" xmlns:xlink="http://www.w3.org/1999/xlink" x="0px" y="0px"
	 width="27.854px" height="28.217px" viewBox="0 0 27.854 28.217" style="enable-background:new 0 0 27.854 28.217;"
	 xml:space="preserve">
<path d="M26.479,11.114c1.09-1.231,1.525-2.404,1.328-3.584c-0.31-1.845-2.188-3.65-6.088-5.854
	C17.607-0.646,10.199-0.343,5.416,1.292c-1.862,0.637-4.24,1.774-5,3.583c-1.979,4.711,3.596,7.424,6.29,8.734
	c2.047,0.938,4.187,1.686,6.261,2.404c-3.388,0.492-7.059,1.327-8.997,3.467l-0.55-0.263L3.027,20.04l-1.572-0.822l-0.771,1.4
	l1.783,0.932l-1.737,3.327c0,0-0.578,0.629,0.516,1.285c1.095,0.656,1.417-0.416,1.417-0.416l1.681-3.216l1.785,0.933l0.771-1.399
	l-1.8-0.941l0.429-0.896l-0.317-0.152c2.265-2.096,7.016-2.689,10.351-3.101c0.034-0.004,0.068-0.008,0.104-0.012
	c1.003,0.363,2.006,0.748,2.99,1.17c1.941,0.81,2.882,1.592,3.428,3.133h-0.472v0.961H19.89l-0.056,1.399h2.015v3.717
	c0,0-0.045,0.875,1.059,0.875c1.102,0,1.059-0.858,1.059-0.858v-3.733h2.013l0.054-1.399h-2.084v-0.961h-0.512
	c-0.646-2.176-1.825-3.299-4.278-4.32c-0.287-0.123-0.573-0.241-0.86-0.358c0.571-0.109,1.031-0.235,1.354-0.396
	C22.035,15.123,24.716,13.128,26.479,11.114z M15.813,15.644c-0.761-0.273-1.517-0.535-2.261-0.793
	c-2.097-0.725-4.264-1.476-6.296-2.407C3.54,10.636,0.281,8.527,1.605,5.375c0.44-1.052,1.982-2.094,4.227-2.863
	c2.267-0.775,5.146-1.24,7.929-1.24c2.763,0,5.434,0.458,7.325,1.527c3.482,1.967,5.213,3.538,5.449,4.944
	c0.131,0.782-0.193,1.582-1.023,2.52c-1.652,1.888-4.159,3.754-6.414,4.765C18.582,15.285,17.266,15.464,15.813,15.644z"/>
<g>
</g>
<g>
</g>
<g>
</g>
<g>
</g>
<g>
</g>
<g>
</g>
<g>
</g>
<g>
</g>
<g>
</g>
<g>
</g>
<g>
</g>
<g>
</g>
<g>
</g>
<g>
</g>
<g>
</g>
</svg>
