<?xml version="1.0" encoding="iso-8859-1"?>
<!-- Generator: Adobe Illustrator 16.0.0, SVG Export Plug-In . SVG Version: 6.00 Build 0)  -->
<!DOCTYPE svg PUBLIC "-//W3C//DTD SVG 1.1//EN" "http://www.w3.org/Graphics/SVG/1.1/DTD/svg11.dtd">
<svg version="1.1" id="Layer_1" xmlns="http://www.w3.org/2000/svg" xmlns:xlink="http://www.w3.org/1999/xlink" x="0px" y="0px"
	 width="31.553px" height="21.333px" viewBox="0 0 31.553 21.333" style="enable-background:new 0 0 31.553 21.333;"
	 xml:space="preserve">
<g>
	<path d="M21.021,4.412c-4.3,0-7.786,3.486-7.786,7.787c5.613,0,8.064,0,15.573,0C28.808,7.898,25.321,4.412,21.021,4.412z"/>
	<path d="M29.586,12.716H12.457c-1.086,0-1.967,0.881-1.967,1.967s0.881,1.967,1.967,1.967h17.129c1.086,0,1.967-0.881,1.967-1.967
		S30.672,12.716,29.586,12.716z"/>
	<rect x="12.58" y="17.041" width="16.228" height="0.528"/>
	<path d="M12.717,19.848c0,0.689,0.558,1.246,1.246,1.246h13.461c0.688,0,1.246-0.557,1.246-1.246v-1.813H12.717V19.848z"/>
	<path d="M6.626,1.081C5.892,1.697,5.504,2.504,5.504,3.415v4.306H0v13.612h9.235V7.721H6.472V3.415c0-0.624,0.261-1.16,0.776-1.592
		C8.094,1.114,9.332,0.896,9.786,0.98l0.168-0.953C9.263-0.09,7.728,0.156,6.626,1.081z"/>
</g>
<g>
</g>
<g>
</g>
<g>
</g>
<g>
</g>
<g>
</g>
<g>
</g>
<g>
</g>
<g>
</g>
<g>
</g>
<g>
</g>
<g>
</g>
<g>
</g>
<g>
</g>
<g>
</g>
<g>
</g>
</svg>
