<?xml version="1.0" encoding="iso-8859-1"?>
<!-- Generator: Adobe Illustrator 16.0.0, SVG Export Plug-In . SVG Version: 6.00 Build 0)  -->
<!DOCTYPE svg PUBLIC "-//W3C//DTD SVG 1.1//EN" "http://www.w3.org/Graphics/SVG/1.1/DTD/svg11.dtd">
<svg version="1.1" id="Layer_1" xmlns="http://www.w3.org/2000/svg" xmlns:xlink="http://www.w3.org/1999/xlink" x="0px" y="0px"
	 width="31.369px" height="22.31px" viewBox="0 0 31.369 22.31" style="enable-background:new 0 0 31.369 22.31;"
	 xml:space="preserve">
<g>
	<path d="M20.61,14.324c1.058,0,1.915-0.856,1.915-1.917c0-0.661,0.232-1.265-0.278-1.609c-0.305-0.206-1.648-0.305-2.045-0.305
		c-0.472,0-1.085,0.385-1.418,0.667c-0.416,0.351-0.088,0.66-0.088,1.247C18.694,13.468,19.551,14.324,20.61,14.324z M20.653,13.879
		c-0.774,0-1.401-0.638-1.401-1.427c0-0.079,0.011-0.155,0.023-0.231c0.352-0.064,0.591,0.052,0.591,0.052l0.588-0.286
		c0,0-0.299,0.432-0.029,0.286c0.597-0.201,1.266-0.117,1.607-0.051c0.012,0.076,0.023,0.151,0.023,0.23
		C22.056,13.241,21.428,13.879,20.653,13.879z"/>
	<path d="M24.986,14.512c-0.113-1.023,0.376-1.64,0.564-1.836c0.174,1.058,1.087,1.87,2.194,1.87c1.048,0,1.925-0.729,2.162-1.707
		c0.181,0.319,0.485,0.972,0.41,1.673c1.86-0.016,0.944-2.141-0.359-2.373c-0.009-0.109-0.02-0.218-0.043-0.322
		c-0.076-0.671-0.678-2.037-2.401-1.996c-1.486,0.035-1.811,1.154-1.888,1.835c-0.053,0.168-0.086,0.343-0.097,0.525
		C23.593,12.517,23.805,14.48,24.986,14.512z M27.744,13.916c-0.87,0-1.577-0.7-1.596-1.565c0.318-0.116,0.551-0.666,0.551-0.666
		s0.19,0.065,0.19,0.686c0.329,0.115,0.899-0.964,0.899-0.964v0.849c0.364,0.099,1.506-0.032,1.506-0.032l0.042,0.036
		c0.001,0.019,0.006,0.037,0.006,0.056C29.344,13.197,28.626,13.916,27.744,13.916z"/>
	<path d="M28.208,14.604H27.27h-0.787l-2.3,2.771l-2.226-2.736h-2.532l-2.652,2.91l-2.643-3.095h-0.867h-0.938h-0.787l-1.344-1.171
		c0.125-0.354,0.304-0.593,0.416-0.718c0.189,1.04,1.097,1.831,2.189,1.831c1.048,0,1.924-0.729,2.161-1.706
		c0.179,0.314,0.491,0.976,0.416,1.686c1.854-0.016,0.936-2.147-0.363-2.375c-0.008-0.104-0.014-0.208-0.036-0.308
		c-0.069-0.667-0.664-2.049-2.39-2.008c-1.345,0.032-1.733,0.96-1.851,1.641c-0.093,0.226-0.142,0.471-0.156,0.726
		c-0.53,0.099-0.896,0.322-1.12,0.594l-0.885-0.77l0.247-0.098L6.634,5.479h0.777h0.524L7.69,5.016
		C7.684,5.004,7.132,3.951,6.918,2.951c0-0.014,0.003-0.026,0.003-0.041c0-0.195-0.03-0.382-0.074-0.565
		C6.846,2.288,6.842,2.233,6.839,2.174C6.808,1.257,6.765,0,4.575,0C3.724,0,3.078,0.221,2.653,0.658
		C2.056,1.273,2.004,2.189,2.025,2.919c0.034,1.175-0.68,2.031-0.687,2.039L0.897,5.479h1.277L0,11.783l1.209,0.482l1.356-3.72
		l0.136,1.724l-2.192,6.068h2.529v5.282H2.705v0.617h1.513v-0.617h0v-5.282h0.566v5.282v0.617h1.512v-0.617H5.964v-5.282h1.961
		l-1.933-6.068l0.105-2.123l1.501,4.119l0.328-0.13l-0.002,0l1.254,1.208c-0.03,0.529,0.313,1.016,0.893,1.032
		c-0.007-0.063-0.002-0.117-0.005-0.176l1.398,1.348l0.089,1.166l-1.596,2.744h1.84v2.387h-0.242v0.279h1.101v-0.279h0.001v-2.387
		h0.413v2.387v0.279h1.101v-0.279h-0.242v-2.387h1.428l-1.407-2.744l0.076-0.959l2.106,2.306l0.477-0.119l0.72,0.179l1.897-1.62
		v3.14h0.381v2.387h-0.242v0.28h1.102v-0.28l0,0v-2.387h0.413v2.387v0.28h1.1v-0.28H21.74v-2.387h0.462v-3.082l1.517,1.56
		l0.62-0.154l0.345,0.085l1.717-1.967l0.099,0.78l-1.596,2.744h1.841v2.387h-0.242v0.279h1.101v-0.279h0v-2.387h0.413v2.387v0.279
		h1.1v-0.279h-0.241v-2.387h1.428l-1.407-2.744l0.076-0.959l1.344,1.8l0.892-0.22l-2.131-2.88H28.208z M12.799,13.766
		c-0.862,0-1.563-0.688-1.593-1.543c0.328-0.096,0.571-0.675,0.571-0.675s0.19,0.065,0.19,0.687
		c0.327,0.115,0.895-0.964,0.895-0.964v0.85c0.361,0.098,1.499-0.033,1.499-0.033l0.033,0.028c0,0.017,0.005,0.032,0.005,0.05
		C14.399,13.048,13.681,13.766,12.799,13.766z M5.051,4.586L5.048,5.244l0,0.111L4.409,6.327L3.765,5.415V5.168V4.84V4.493
		c-0.589-0.285-1-0.885-1-1.583c0-0.293,0.079-0.567,0.207-0.811l0.931-0.089l2.247,0.207C6.24,2.43,6.291,2.665,6.291,2.91
		C6.291,3.7,5.767,4.361,5.051,4.586z"/>
</g>
<g>
</g>
<g>
</g>
<g>
</g>
<g>
</g>
<g>
</g>
<g>
</g>
<g>
</g>
<g>
</g>
<g>
</g>
<g>
</g>
<g>
</g>
<g>
</g>
<g>
</g>
<g>
</g>
<g>
</g>
</svg>
