<?xml version="1.0" encoding="iso-8859-1"?>
<!-- Generator: Adobe Illustrator 16.0.0, SVG Export Plug-In . SVG Version: 6.00 Build 0)  -->
<!DOCTYPE svg PUBLIC "-//W3C//DTD SVG 1.1//EN" "http://www.w3.org/Graphics/SVG/1.1/DTD/svg11.dtd">
<svg version="1.1" id="Layer_1" xmlns="http://www.w3.org/2000/svg" xmlns:xlink="http://www.w3.org/1999/xlink" x="0px" y="0px"
	 width="27.551px" height="31.895px" viewBox="0 0 27.551 31.895" style="enable-background:new 0 0 27.551 31.895;"
	 xml:space="preserve">
<g>
	<path d="M20.914,27.404h-4.198v1.565H3.531C2.981,22.585,2.14,7.382,6.146,3.562c2.194-2.094,4.93-2.829,7.512-2.012
		c2.18,0.689,3.897,2.364,4.558,4.366l-1.84,0.179l0.277,2.849l-2.849,0.274l-1.599,8.823l15.346-1.49l-3.264-8.349l-2.47,0.241
		l-0.276-2.852l-2.094,0.206c-0.717-2.488-2.778-4.579-5.422-5.413C11.008-0.566,7.83,0.267,5.303,2.677
		C0.903,6.874,1.725,22.36,2.3,28.97H0v2.925h24.119V28.97h-3.205V27.404z"/>
	<path d="M20.158,20.182c1.259-0.12,2.18-1.239,2.058-2.498c-1.382,0.132-2.387,0.231-4.558,0.442
		C17.78,19.383,18.899,20.306,20.158,20.182z"/>
</g>
<g>
</g>
<g>
</g>
<g>
</g>
<g>
</g>
<g>
</g>
<g>
</g>
<g>
</g>
<g>
</g>
<g>
</g>
<g>
</g>
<g>
</g>
<g>
</g>
<g>
</g>
<g>
</g>
<g>
</g>
</svg>
