<?xml version="1.0" encoding="iso-8859-1"?>
<!-- Generator: Adobe Illustrator 16.0.0, SVG Export Plug-In . SVG Version: 6.00 Build 0)  -->
<!DOCTYPE svg PUBLIC "-//W3C//DTD SVG 1.1//EN" "http://www.w3.org/Graphics/SVG/1.1/DTD/svg11.dtd">
<svg version="1.1" id="Layer_1" xmlns="http://www.w3.org/2000/svg" xmlns:xlink="http://www.w3.org/1999/xlink" x="0px" y="0px"
	 width="29.532px" height="19.104px" viewBox="0 0 29.532 19.104" style="enable-background:new 0 0 29.532 19.104;"
	 xml:space="preserve">
<g>
	<path d="M12.646,0l-2.42,12.695l-0.001-0.001L0,14.209l13.642,4.896l12.146-1.632l3.745-15.816L12.646,0z M10.245,17.194
		l-3.348-1.278l1.614-0.215l3.756,1.254L10.245,17.194z M24.678,16.144l-13.511-3.821l2.171-11.206L27.832,2.82L24.678,16.144z"/>
	<polygon points="17.605,4.394 16.602,4.107 16.296,8.038 15.015,7.685 16.302,11.373 18.537,8.604 17.269,8.238 	"/>
	<polygon points="21.768,5.438 20.765,5.15 20.458,9.08 19.178,8.728 20.465,12.415 22.7,9.648 21.432,9.28 	"/>
</g>
<g>
</g>
<g>
</g>
<g>
</g>
<g>
</g>
<g>
</g>
<g>
</g>
<g>
</g>
<g>
</g>
<g>
</g>
<g>
</g>
<g>
</g>
<g>
</g>
<g>
</g>
<g>
</g>
<g>
</g>
</svg>
