<?xml version="1.0" encoding="iso-8859-1"?>
<!-- Generator: Adobe Illustrator 16.0.0, SVG Export Plug-In . SVG Version: 6.00 Build 0)  -->
<!DOCTYPE svg PUBLIC "-//W3C//DTD SVG 1.1//EN" "http://www.w3.org/Graphics/SVG/1.1/DTD/svg11.dtd">
<svg version="1.1" id="Layer_1" xmlns="http://www.w3.org/2000/svg" xmlns:xlink="http://www.w3.org/1999/xlink" x="0px" y="0px"
	 width="31.386px" height="20.899px" viewBox="0 0 31.386 20.899" style="enable-background:new 0 0 31.386 20.899;"
	 xml:space="preserve">
<g>
	<path d="M26.016,17.473l3.746-15.817L12.873,0l-2.419,12.696l-0.002-0.001L0.228,14.209l13.642,4.896L26.016,17.473z M13.565,1.117
		l14.495,1.704l-3.154,13.324l-13.512-3.822L13.565,1.117z M10.474,17.195l-3.348-1.279l1.614-0.215l3.757,1.253L10.474,17.195z"/>
	<polygon points="30.548,2.103 26.815,18.027 13.824,19.925 13.824,19.92 0,14.863 0,15.647 13.731,20.899 27.52,18.708 
		31.386,2.686 	"/>
	<polygon points="16.46,5.918 17.731,6.166 16.738,10.924 17.744,11.157 18.735,6.358 20.453,6.693 19.436,11.666 20.485,11.909 
		21.499,6.895 22.869,7.187 21.813,12.363 22.903,12.59 23.957,7.372 25.022,7.579 25.029,6.929 14.543,4.949 14.534,5.544 
		15.492,5.732 14.494,10.406 15.464,10.629 	"/>
	<polygon points="21.749,2.979 14.494,4.338 26.093,6.565 	"/>
	<polygon points="23.583,13.587 23.583,13.215 23.143,13.087 13.739,10.562 13.297,10.438 13.297,11.134 12.964,11.038 
		12.964,11.734 24.047,14.855 24.047,14.1 23.583,13.966 	"/>
</g>
<g>
</g>
<g>
</g>
<g>
</g>
<g>
</g>
<g>
</g>
<g>
</g>
<g>
</g>
<g>
</g>
<g>
</g>
<g>
</g>
<g>
</g>
<g>
</g>
<g>
</g>
<g>
</g>
<g>
</g>
</svg>
