<?xml version="1.0" encoding="utf-8"?>
<!-- Generator: Adobe Illustrator 16.0.4, SVG Export Plug-In . SVG Version: 6.00 Build 0)  -->
<!DOCTYPE svg PUBLIC "-//W3C//DTD SVG 1.1//EN" "http://www.w3.org/Graphics/SVG/1.1/DTD/svg11.dtd">
<svg version="1.1" id="Layer_1" xmlns="http://www.w3.org/2000/svg" xmlns:xlink="http://www.w3.org/1999/xlink" x="0px" y="0px"
	 width="30.691px" height="26.011px" viewBox="0 0 30.691 26.011" enable-background="new 0 0 30.691 26.011" xml:space="preserve">
<path d="M28.525,16.182H2.167L0,26.011h30.691L28.525,16.182z M12.316,24.658l0.442-2.003h5.176l0.44,2.003H12.316z M28.457,9.529
	L28.457,9.529L28.456,0h-9.891h-6.439H2.236v9.529v6.031h26.222V9.529z M26.591,14.005H4.102V1.865h8.421h5.646h8.422V14.005z
	 M21.79,2.796H18.73v9.976h3.061V2.796z M21.371,12.354h-2.223v-9.14h2.223V12.354z M21.036,4.687h-1.55V4.258h1.55V4.687z
	 M21.034,5.395h-1.552V4.967h1.552V5.395z M19.487,10.812h1.55v0.428h-1.55V10.812z M15.467,3.238L12.6,2.58l-2.229,9.725
	l2.982,0.684l2.113-9.221v9.103h3.06V2.894h-3.06V3.238z M13.039,12.486l-2.165-0.497l2.04-8.908l2.167,0.496L13.039,12.486z
	 M15.886,3.313h2.223v5.64h-2.223V3.313z M16.256,10.075V9.676h1.536v0.399H16.256z M17.792,10.344v0.398h-1.536v-0.398H17.792z
	 M15.886,11.466h2.223v0.986h-2.223V11.466z M16.221,4.258h1.554v0.429h-1.554V4.258z M12.017,9.303l1.162-5.069l0.389,0.089
	l-1.163,5.069L12.017,9.303z M12.793,9.481l1.161-5.07L14.342,4.5l-1.161,5.07L12.793,9.481z"/>
</svg>
