<?xml version="1.0" encoding="iso-8859-1"?>
<!-- Generator: Adobe Illustrator 16.0.0, SVG Export Plug-In . SVG Version: 6.00 Build 0)  -->
<!DOCTYPE svg PUBLIC "-//W3C//DTD SVG 1.1//EN" "http://www.w3.org/Graphics/SVG/1.1/DTD/svg11.dtd">
<svg version="1.1" id="Layer_1" xmlns="http://www.w3.org/2000/svg" xmlns:xlink="http://www.w3.org/1999/xlink" x="0px" y="0px"
	 width="31.485px" height="20.368px" viewBox="0 0 31.485 20.368" style="enable-background:new 0 0 31.485 20.368;"
	 xml:space="preserve">
<g>
	<path d="M13.482,0l-2.58,13.535l-0.001-0.001L0,15.148l14.544,5.22l12.949-1.739l3.993-16.863L13.482,0z M10.923,18.332
		l-3.569-1.363l1.721-0.229l4.004,1.336L10.923,18.332z M26.31,17.211l-14.404-4.073L14.22,1.19l15.453,1.816L26.31,17.211z"/>
</g>
<path d="M23.149,11.797c0.144-0.264,0.186-0.581,0.089-0.89c-0.188-0.605-0.831-0.941-1.436-0.754
	c-0.604,0.188-0.941,0.831-0.753,1.435c0.097,0.31,0.311,0.548,0.578,0.683l0.152,0.49l-2.559,0.796l-0.986-3.164l-0.4,0.124
	c-0.158,0.312-0.434,0.561-0.792,0.672c-0.702,0.219-1.447-0.173-1.666-0.875c-0.219-0.701,0.173-1.447,0.875-1.666
	c0.358-0.111,0.728-0.063,1.032,0.104l0.401-0.125l-0.883-2.834l2.56-0.797l0.121,0.386c-0.144,0.264-0.185,0.582-0.089,0.89
	c0.188,0.604,0.831,0.941,1.435,0.754s0.943-0.83,0.754-1.435c-0.096-0.31-0.312-0.547-0.579-0.683l-0.121-0.387l2.61-0.813
	l0.926,2.976l-0.271,0.084c-0.262-0.143-0.581-0.185-0.89-0.089c-0.604,0.188-0.943,0.832-0.754,1.437
	c0.188,0.604,0.831,0.94,1.436,0.753c0.309-0.096,0.547-0.312,0.682-0.578l0.271-0.084l1.017,3.269l-2.609,0.812L23.149,11.797z"/>
<g>
</g>
<g>
</g>
<g>
</g>
<g>
</g>
<g>
</g>
<g>
</g>
<g>
</g>
<g>
</g>
<g>
</g>
<g>
</g>
<g>
</g>
<g>
</g>
<g>
</g>
<g>
</g>
<g>
</g>
</svg>
