<?xml version="1.0" encoding="iso-8859-1"?>
<!-- Generator: Adobe Illustrator 16.0.0, SVG Export Plug-In . SVG Version: 6.00 Build 0)  -->
<!DOCTYPE svg PUBLIC "-//W3C//DTD SVG 1.1//EN" "http://www.w3.org/Graphics/SVG/1.1/DTD/svg11.dtd">
<svg version="1.1" id="Layer_1" xmlns="http://www.w3.org/2000/svg" xmlns:xlink="http://www.w3.org/1999/xlink" x="0px" y="0px"
	 width="31.485px" height="20.368px" viewBox="0 0 31.485 20.368" style="enable-background:new 0 0 31.485 20.368;"
	 xml:space="preserve">
<g>
	<path d="M13.482,0l-2.58,13.535l-0.001-0.001L0,15.148l14.544,5.22l12.949-1.739l3.993-16.863L13.482,0z M10.923,18.332
		l-3.569-1.363l1.721-0.229l4.004,1.336L10.923,18.332z M26.31,17.211l-14.404-4.073L14.22,1.19l15.453,1.816L26.31,17.211z"/>
	<polygon points="19.351,2.742 15.069,2.242 14.919,2.968 19.234,3.402 	"/>
	<polygon points="19.153,3.854 14.84,3.35 14.687,4.092 18.988,4.643 	"/>
	<polygon points="18.923,5.15 14.573,4.643 14.438,5.299 18.807,5.809 	"/>
	<polygon points="13.22,10.841 17.532,11.674 17.648,11.016 13.355,10.185 	"/>
	<polygon points="13.032,11.963 17.326,12.901 17.442,12.243 13.167,11.307 	"/>
	<path d="M20.97,9.808c-0.04-1.022,0.682-2.032,1.61-2.248c0.417-0.096,0.804-0.015,1.109,0.195l1.675-2.41
		c-0.782-0.582-1.798-0.809-2.89-0.55c-2.298,0.546-4.073,3.045-3.976,5.576c0.095,2.481,1.952,4.118,4.188,3.711l-0.106-2.77
		C21.716,11.426,21.007,10.781,20.97,9.808z"/>
	<path d="M24.874,8.596l2.543-0.57c-0.091-1.286-0.661-2.327-1.507-2.956l-1.677,2.414C24.572,7.717,24.812,8.106,24.874,8.596z"/>
	<path d="M24.592,8.982c0.007,0.058,0.013,0.113,0.016,0.173c0.039,1.032-0.691,2.042-1.625,2.251
		c-0.048,0.011-0.095,0.019-0.142,0.024l0.106,2.77c0.048-0.008,0.093-0.016,0.142-0.027c2.324-0.505,4.153-3.018,4.054-5.594
		c-0.002-0.055-0.006-0.11-0.01-0.166L24.592,8.982z"/>
</g>
<g>
</g>
<g>
</g>
<g>
</g>
<g>
</g>
<g>
</g>
<g>
</g>
<g>
</g>
<g>
</g>
<g>
</g>
<g>
</g>
<g>
</g>
<g>
</g>
<g>
</g>
<g>
</g>
<g>
</g>
</svg>
