<?xml version="1.0" encoding="iso-8859-1"?>
<!-- Generator: Adobe Illustrator 16.0.0, SVG Export Plug-In . SVG Version: 6.00 Build 0)  -->
<!DOCTYPE svg PUBLIC "-//W3C//DTD SVG 1.1//EN" "http://www.w3.org/Graphics/SVG/1.1/DTD/svg11.dtd">
<svg version="1.1" id="Layer_1" xmlns="http://www.w3.org/2000/svg" xmlns:xlink="http://www.w3.org/1999/xlink" x="0px" y="0px"
	 width="22.872px" height="29.195px" viewBox="0 0 22.872 29.195" style="enable-background:new 0 0 22.872 29.195;"
	 xml:space="preserve">
<g>
	<polygon points="1.29,24.959 1.29,1.289 18.135,1.289 18.135,20.495 19.425,20.409 19.425,0 0,0 0,26.249 11.679,26.249 
		9.894,24.959 	"/>
	<path d="M5.158,13.008l-2.033,5.525h1.71l0.248-0.789h1.755l0.233,0.789h1.763l-2.011-5.525H5.158z M5.454,16.561l0.533-1.702
		h0.015l0.496,1.702H5.454z"/>
	<path d="M11.058,9.398c0.232-0.072,0.438-0.178,0.618-0.318c0.181-0.138,0.326-0.313,0.438-0.521
		c0.111-0.21,0.167-0.453,0.167-0.731c0-0.202-0.028-0.38-0.082-0.534c-0.054-0.155-0.124-0.288-0.213-0.398
		c-0.087-0.111-0.189-0.203-0.306-0.274c-0.116-0.072-0.235-0.129-0.359-0.171c0.206-0.113,0.371-0.252,0.496-0.417
		c0.122-0.165,0.186-0.388,0.186-0.667c0-0.139-0.023-0.29-0.07-0.452s-0.136-0.313-0.267-0.453
		c-0.132-0.14-0.313-0.254-0.542-0.344c-0.23-0.09-0.525-0.135-0.886-0.135H7.212v5.525h3.134
		C10.588,9.507,10.826,9.471,11.058,9.398z M8.915,5.297h0.897c0.175,0,0.315,0.028,0.421,0.084
		c0.105,0.058,0.159,0.155,0.159,0.294c0,0.181-0.052,0.302-0.155,0.364c-0.104,0.062-0.245,0.093-0.425,0.093H8.915V5.297z
		 M9.912,8.191H8.915V7.162h1.067c0.396,0,0.596,0.167,0.596,0.502c0,0.108-0.019,0.196-0.054,0.263
		c-0.037,0.068-0.086,0.121-0.148,0.159c-0.063,0.039-0.132,0.066-0.213,0.082C10.083,8.183,10,8.191,9.912,8.191z"/>
	<path d="M12.617,15.25c0.239,0.258,0.531,0.461,0.877,0.611s0.743,0.225,1.192,0.225c0.401,0,0.761-0.067,1.076-0.201
		c0.313-0.134,0.578-0.311,0.791-0.53c0.215-0.22,0.378-0.466,0.488-0.74c0.11-0.273,0.166-0.548,0.166-0.828h-1.671
		c-0.025,0.13-0.061,0.251-0.104,0.365c-0.044,0.113-0.1,0.211-0.17,0.294c-0.069,0.083-0.155,0.147-0.255,0.193
		c-0.102,0.046-0.225,0.069-0.367,0.069c-0.202,0-0.369-0.044-0.504-0.131c-0.134-0.087-0.241-0.204-0.322-0.348
		c-0.079-0.145-0.136-0.308-0.173-0.488c-0.036-0.181-0.055-0.364-0.055-0.55s0.019-0.368,0.055-0.549
		c0.037-0.181,0.094-0.343,0.173-0.487c0.081-0.145,0.188-0.26,0.322-0.348c0.135-0.089,0.302-0.131,0.504-0.131
		c0.174,0,0.318,0.033,0.43,0.1c0.109,0.067,0.199,0.145,0.266,0.232c0.067,0.088,0.113,0.177,0.139,0.267
		c0.027,0.089,0.045,0.161,0.055,0.212h1.656c-0.072-0.696-0.315-1.234-0.731-1.613c-0.414-0.379-1.005-0.57-1.768-0.577
		c-0.428,0-0.814,0.07-1.157,0.209c-0.344,0.139-0.638,0.335-0.882,0.588c-0.245,0.253-0.434,0.557-0.564,0.913
		c-0.132,0.355-0.198,0.75-0.198,1.184c0,0.408,0.063,0.788,0.187,1.142C12.195,14.687,12.377,14.992,12.617,15.25z"/>
	<polygon points="22.872,25.411 20.438,21.286 15.689,21.521 13.021,17.002 10.872,18.269 13.541,22.79 14.112,23.756 
		14.674,24.708 13.076,23.652 11.048,24.842 12.888,26.058 12.88,26.062 14.054,26.829 14.207,26.93 14.207,26.93 17.101,28.818 
		17.101,28.818 17.989,28.293 18.521,29.195 22.517,26.837 21.983,25.937 	"/>
</g>
<g>
</g>
<g>
</g>
<g>
</g>
<g>
</g>
<g>
</g>
<g>
</g>
<g>
</g>
<g>
</g>
<g>
</g>
<g>
</g>
<g>
</g>
<g>
</g>
<g>
</g>
<g>
</g>
<g>
</g>
</svg>
