<?xml version="1.0" encoding="iso-8859-1"?>
<!-- Generator: Adobe Illustrator 16.0.0, SVG Export Plug-In . SVG Version: 6.00 Build 0)  -->
<!DOCTYPE svg PUBLIC "-//W3C//DTD SVG 1.1//EN" "http://www.w3.org/Graphics/SVG/1.1/DTD/svg11.dtd">
<svg version="1.1" id="Layer_1" xmlns="http://www.w3.org/2000/svg" xmlns:xlink="http://www.w3.org/1999/xlink" x="0px" y="0px"
	 width="29.727px" height="30.657px" viewBox="0 0 29.727 30.657" style="enable-background:new 0 0 29.727 30.657;"
	 xml:space="preserve">
<path d="M24.882,11.613V5.057L19.809,0H5.275v11.613H0v19.044h29.727V11.613H24.882z M27.3,12.903l-2.418,2.016v-2.016H27.3z
	 M15.26,22.936h-0.792l-1.307-1.089h3.406L15.26,22.936z M17.967,20.68H11.76l-1.307-1.089h8.821L17.967,20.68z M21.699,11.15v1.088
	H8.794V11.15H21.699z M8.794,10.138V9.049h12.905v1.089H8.794z M19.746,1.695l3.891,3.877v0.053h-3.891V1.695z M8.769,4.875h8.15
	v1.089h-8.15V4.875z M8.769,6.976h8.15v1.089h-8.15V6.976z M8.744,13.405h12.955v1.09H8.744V13.405z M8.744,15.506h12.955v1.089
	H8.744V15.506z M21.699,17.49v0.081l-1.211,1.009H9.239l-0.495-0.412V17.49H21.699z M5.275,12.903v2.374l-2.849-2.374H5.275z
	 M28.437,29.367H1.29V13.634l13.574,11.311l13.574-11.311V29.367z"/>
<g>
</g>
<g>
</g>
<g>
</g>
<g>
</g>
<g>
</g>
<g>
</g>
<g>
</g>
<g>
</g>
<g>
</g>
<g>
</g>
<g>
</g>
<g>
</g>
<g>
</g>
<g>
</g>
<g>
</g>
</svg>
