<?xml version="1.0" encoding="iso-8859-1"?>
<!-- Generator: Adobe Illustrator 16.0.0, SVG Export Plug-In . SVG Version: 6.00 Build 0)  -->
<!DOCTYPE svg PUBLIC "-//W3C//DTD SVG 1.1//EN" "http://www.w3.org/Graphics/SVG/1.1/DTD/svg11.dtd">
<svg version="1.1" id="Layer_1" xmlns="http://www.w3.org/2000/svg" xmlns:xlink="http://www.w3.org/1999/xlink" x="0px" y="0px"
	 width="26.124px" height="22.861px" viewBox="0 0 26.124 22.861" style="enable-background:new 0 0 26.124 22.861;"
	 xml:space="preserve">
<g>
	<path d="M3.499,13.362L0,22.861h2.94l0.425-1.356h3.021l0.398,1.356h3.034l-3.46-9.499H3.499z M4.006,19.469l0.916-2.927h0.027
		l0.852,2.927H4.006z"/>
	<path d="M25.983,13.502c-0.093-0.266-0.216-0.495-0.365-0.685c-0.151-0.19-0.326-0.347-0.525-0.472
		c-0.199-0.124-0.406-0.221-0.619-0.292c0.354-0.194,0.639-0.435,0.853-0.719c0.212-0.283,0.318-0.665,0.318-1.144
		c0-0.238-0.04-0.498-0.119-0.777c-0.08-0.279-0.233-0.539-0.459-0.779c-0.227-0.239-0.537-0.437-0.932-0.592
		s-0.902-0.233-1.523-0.233h-5.202v9.499h5.388c0.418,0,0.825-0.062,1.224-0.186c0.399-0.124,0.755-0.306,1.065-0.546
		c0.311-0.239,0.561-0.538,0.751-0.897c0.191-0.36,0.287-0.778,0.287-1.259C26.124,14.075,26.078,13.77,25.983,13.502z
		 M20.337,10.07h1.542c0.303,0,0.543,0.049,0.727,0.147c0.181,0.098,0.271,0.266,0.271,0.505c0,0.31-0.089,0.519-0.266,0.625
		c-0.178,0.107-0.421,0.16-0.732,0.16h-1.542V10.07z M23.104,14.594c-0.063,0.115-0.146,0.206-0.252,0.272
		c-0.107,0.067-0.23,0.114-0.367,0.14s-0.281,0.04-0.432,0.04h-1.716v-1.77h1.836c0.682,0,1.023,0.289,1.023,0.865
		C23.196,14.328,23.166,14.479,23.104,14.594z"/>
	<path d="M9.036,0.99C8.867,1.258,8.651,1.472,8.389,1.631C8.124,1.79,7.828,1.903,7.501,1.972s-0.664,0.097-1.01,0.088v1.965h2.224
		v5.471h2.838V0H9.315C9.297,0.392,9.204,0.722,9.036,0.99z"/>
</g>
<g>
</g>
<g>
</g>
<g>
</g>
<g>
</g>
<g>
</g>
<g>
</g>
<g>
</g>
<g>
</g>
<g>
</g>
<g>
</g>
<g>
</g>
<g>
</g>
<g>
</g>
<g>
</g>
<g>
</g>
</svg>
