<?xml version="1.0" encoding="iso-8859-1"?>
<!-- Generator: Adobe Illustrator 16.0.0, SVG Export Plug-In . SVG Version: 6.00 Build 0)  -->
<!DOCTYPE svg PUBLIC "-//W3C//DTD SVG 1.1//EN" "http://www.w3.org/Graphics/SVG/1.1/DTD/svg11.dtd">
<svg version="1.1" id="Layer_1" xmlns="http://www.w3.org/2000/svg" xmlns:xlink="http://www.w3.org/1999/xlink" x="0px" y="0px"
	 width="28.021px" height="33.416px" viewBox="0 0 28.021 33.416" style="enable-background:new 0 0 28.021 33.416;"
	 xml:space="preserve">
<g>
	<polygon points="6.997,17.442 5.052,17.442 5.052,14.174 3.697,14.174 3.697,18.568 6.997,18.568 	"/>
	<polygon points="11.213,15.3 11.213,14.174 7.575,14.174 7.575,18.568 11.281,18.568 11.281,17.442 8.93,17.442 8.93,16.895 
		11.004,16.895 11.004,15.848 8.93,15.848 8.93,15.3 	"/>
	<polygon points="14.26,14.174 13.552,16.839 13.54,16.839 12.819,14.174 11.453,14.174 12.764,18.568 14.278,18.568 15.65,14.174 	
		"/>
	<polygon points="17.251,16.895 19.325,16.895 19.325,15.848 17.251,15.848 17.251,15.3 19.534,15.3 19.534,14.174 15.896,14.174 
		15.896,18.568 19.603,18.568 19.603,17.442 17.251,17.442 	"/>
	<polygon points="20.229,18.568 23.529,18.568 23.529,17.442 21.584,17.442 21.584,14.174 20.229,14.174 	"/>
	<path d="M8.562,20.904l-2.863,7.774h2.404l0.35-1.11h2.473l0.326,1.11h2.482l-2.832-7.774H8.562z M8.974,25.901l0.752-2.394h0.021
		l0.697,2.394H8.974z"/>
	<path d="M16.939,21.891c-0.136,0.215-0.308,0.385-0.518,0.512s-0.448,0.218-0.708,0.272c-0.262,0.055-0.53,0.077-0.806,0.069v1.568
		h1.774v4.366h2.264V21.1h-1.784C17.146,21.413,17.073,21.676,16.939,21.891z"/>
	<rect x="3.697" y="5.181" width="13.718" height="1.063"/>
	<rect x="3.697" y="7.556" width="13.718" height="1.063"/>
	<rect x="3.697" y="9.931" width="13.718" height="1.063"/>
	<path d="M21.926,0l-0.244,0.022L21.66,0H0v33.416h28.021V8.991V6.362V6.098L21.926,0z M26.521,31.916H1.5V1.5h19.151v5.97h5.87
		V31.916z"/>
</g>
<g>
</g>
<g>
</g>
<g>
</g>
<g>
</g>
<g>
</g>
<g>
</g>
<g>
</g>
<g>
</g>
<g>
</g>
<g>
</g>
<g>
</g>
<g>
</g>
<g>
</g>
<g>
</g>
<g>
</g>
</svg>
