<?xml version="1.0" encoding="iso-8859-1"?>
<!-- Generator: Adobe Illustrator 16.0.0, SVG Export Plug-In . SVG Version: 6.00 Build 0)  -->
<!DOCTYPE svg PUBLIC "-//W3C//DTD SVG 1.1//EN" "http://www.w3.org/Graphics/SVG/1.1/DTD/svg11.dtd">
<svg version="1.1" id="Layer_1" xmlns="http://www.w3.org/2000/svg" xmlns:xlink="http://www.w3.org/1999/xlink" x="0px" y="0px"
	 width="19.314px" height="30.666px" viewBox="0 0 19.314 30.666" style="enable-background:new 0 0 19.314 30.666;"
	 xml:space="preserve">
<g>
	<path d="M15.541,25.467V7.249h2.66V2.401h-2.66V0h-10.8v2.401H1.114v4.848h3.627v18.218H0v5.199h19.314v-5.199H15.541z
		 M1.759,3.046h15.797v3.558H1.759V3.046z"/>
	<polygon points="3.931,5.647 4.484,5.647 4.484,4.965 5.2,4.965 5.2,4.537 4.484,4.537 4.484,4.313 5.318,4.313 5.318,3.854 
		3.931,3.854 	"/>
	<rect x="5.514" y="3.854" width="0.553" height="1.793"/>
	<polygon points="7.447,4.813 7.441,4.813 6.919,3.854 6.354,3.854 6.354,5.647 6.876,5.647 6.876,4.668 6.881,4.668 7.432,5.647 
		7.969,5.647 7.969,3.854 7.447,3.854 	"/>
	<path d="M8.756,3.854L8.095,5.647H8.65l0.08-0.255h0.57l0.075,0.255h0.573L9.295,3.854H8.756z M8.851,5.007l0.173-0.552h0.005
		L9.19,5.007H8.851z"/>
	<polygon points="11.168,4.813 11.163,4.813 10.641,3.854 10.075,3.854 10.075,5.647 10.597,5.647 10.597,4.668 10.602,4.668 
		11.152,5.647 11.69,5.647 11.69,3.854 11.168,3.854 	"/>
	<path d="M13.079,5.062c-0.015,0.038-0.032,0.07-0.056,0.097C13,5.184,12.973,5.206,12.94,5.221
		c-0.033,0.015-0.073,0.022-0.12,0.022c-0.065,0-0.12-0.015-0.164-0.043c-0.043-0.028-0.079-0.065-0.104-0.112
		c-0.026-0.047-0.045-0.1-0.057-0.159c-0.012-0.059-0.018-0.118-0.018-0.179c0-0.06,0.006-0.12,0.018-0.178
		c0.012-0.058,0.03-0.111,0.057-0.157c0.025-0.048,0.061-0.086,0.104-0.114c0.044-0.029,0.099-0.042,0.164-0.042
		c0.057,0,0.104,0.011,0.139,0.032c0.036,0.023,0.065,0.048,0.087,0.077c0.022,0.028,0.037,0.057,0.045,0.086
		c0.008,0.029,0.014,0.052,0.017,0.068h0.538c-0.023-0.225-0.103-0.4-0.237-0.523c-0.135-0.123-0.326-0.185-0.574-0.187
		c-0.14,0-0.264,0.023-0.376,0.068s-0.207,0.108-0.287,0.19c-0.08,0.083-0.141,0.181-0.183,0.297
		c-0.043,0.115-0.064,0.243-0.064,0.383c0,0.133,0.021,0.256,0.061,0.371c0.04,0.114,0.1,0.214,0.177,0.298
		c0.079,0.084,0.173,0.15,0.286,0.199c0.112,0.048,0.24,0.072,0.387,0.072c0.13,0,0.247-0.021,0.349-0.064
		c0.102-0.044,0.188-0.102,0.257-0.173c0.07-0.071,0.123-0.15,0.158-0.24c0.036-0.089,0.054-0.179,0.054-0.269h-0.543
		C13.104,4.986,13.093,5.026,13.079,5.062z"/>
	<polygon points="14.439,4.965 15.286,4.965 15.286,4.537 14.439,4.537 14.439,4.313 15.371,4.313 15.371,3.854 13.886,3.854 
		13.886,5.647 15.399,5.647 15.399,5.188 14.439,5.188 	"/>
</g>
<g>
</g>
<g>
</g>
<g>
</g>
<g>
</g>
<g>
</g>
<g>
</g>
<g>
</g>
<g>
</g>
<g>
</g>
<g>
</g>
<g>
</g>
<g>
</g>
<g>
</g>
<g>
</g>
<g>
</g>
</svg>
