<?xml version="1.0" encoding="iso-8859-1"?>
<!-- Generator: Adobe Illustrator 16.0.0, SVG Export Plug-In . SVG Version: 6.00 Build 0)  -->
<!DOCTYPE svg PUBLIC "-//W3C//DTD SVG 1.1//EN" "http://www.w3.org/Graphics/SVG/1.1/DTD/svg11.dtd">
<svg version="1.1" id="Layer_1" xmlns="http://www.w3.org/2000/svg" xmlns:xlink="http://www.w3.org/1999/xlink" x="0px" y="0px"
	 width="30.333px" height="28.875px" viewBox="0 0 30.333 28.875" style="enable-background:new 0 0 30.333 28.875;"
	 xml:space="preserve">
<g>
	<path d="M15.181,25.274h1.314v-4.283h-1.314V25.274z M15.361,21.171h0.954v2.373h-0.954V21.171z M15.539,24.049v-0.172h0.66v0.172
		H15.539z M16.199,24.205v0.17h-0.66v-0.17H16.199z M15.361,24.61h0.954v0.485h-0.954V24.61z"/>
	<rect x="15.536" y="21.641" width="0.666" height="0.184"/>
	<path d="M16.712,21.626v0.491v3.156h1.314v-4.283h-1.314V21.626z M16.893,21.171h0.954v0.455h-0.954V21.171z M17.701,21.777v0.185
		h-0.665v-0.185H17.701z M16.893,22.118h0.954v1.265h-0.954V22.118z M17.037,23.932v-0.184h0.666v0.184H17.037z M17.701,24.051
		v0.184h-0.665v-0.184H17.701z M16.893,24.601h0.954v0.494h-0.954V24.601z"/>
	<path d="M19.754,25.274h1.314v-4.283h-1.314V25.274z M19.935,21.171h0.955v3.924h-0.955V21.171z"/>
	<rect x="20.471" y="21.502" width="0.185" height="2.177"/>
	<rect x="20.168" y="21.498" width="0.184" height="2.178"/>
	<path d="M18.269,25.274h1.313v-4.283h-1.313V25.274z M18.448,21.171h0.954v3.924h-0.954V21.171z"/>
	<rect x="18.601" y="21.714" width="0.666" height="0.185"/>
	<rect x="18.6" y="22.019" width="0.666" height="0.184"/>
	<rect x="18.6" y="24.04" width="0.666" height="0.184"/>
	<rect x="18.601" y="24.367" width="0.666" height="0.183"/>
	<path d="M21.227,21.626v0.491v3.156h1.313v-4.283h-1.313V21.626z M21.406,21.171h0.954v0.455h-0.954V21.171z M22.216,21.777v0.185
		H21.55v-0.185H22.216z M21.406,22.118h0.954v1.265h-0.954V22.118z M21.551,23.932v-0.184h0.666v0.184H21.551z M22.216,24.051v0.184
		H21.55v-0.184H22.216z M21.406,24.601h0.954v0.494h-0.954V24.601z"/>
	<path d="M24.268,25.274h1.314v-4.283h-1.314V25.274z M24.448,21.171h0.955v3.924h-0.955V21.171z"/>
	<rect x="24.985" y="21.502" width="0.185" height="2.177"/>
	<rect x="24.681" y="21.498" width="0.186" height="2.178"/>
	<path d="M22.782,25.274h1.313v-4.283h-1.313V25.274z M22.962,21.171h0.954v3.924h-0.954V21.171z"/>
	<rect x="23.114" y="21.714" width="0.666" height="0.185"/>
	<rect x="23.112" y="22.019" width="0.667" height="0.184"/>
	<rect x="23.112" y="24.04" width="0.667" height="0.184"/>
	<rect x="23.114" y="24.367" width="0.666" height="0.183"/>
	<path d="M25.754,21.626v0.491v3.156h1.313v-4.283h-1.313V21.626z M25.934,21.171h0.954v0.455h-0.954V21.171z M26.742,21.777v0.185
		h-0.666v-0.185H26.742z M25.934,22.118h0.954v1.265h-0.954V22.118z M26.078,23.932v-0.184h0.667v0.184H26.078z M26.742,24.051
		v0.184h-0.666v-0.184H26.742z M25.934,24.601h0.954v0.494h-0.954V24.601z"/>
	<path d="M27.31,25.274h1.313v-4.283H27.31V25.274z M27.489,21.171h0.954v3.924h-0.954V21.171z"/>
	<rect x="27.642" y="21.714" width="0.666" height="0.185"/>
	<rect x="27.641" y="22.019" width="0.665" height="0.184"/>
	<rect x="27.641" y="24.04" width="0.665" height="0.184"/>
	<rect x="27.642" y="24.367" width="0.666" height="0.183"/>
	<path d="M12.159,21.398l-0.155,0.467l-0.995,2.995l1.246,0.414l1.352-4.064l-1.247-0.414L12.159,21.398z M12.142,25.047
		l-0.905-0.301l0.155-0.467l0.906,0.301L12.142,25.047z M12.274,24.187l-0.631-0.209l0.057-0.175l0.633,0.209L12.274,24.187z
		 M12.372,23.898l-0.633-0.211l0.06-0.173l0.631,0.209L12.372,23.898z M12.682,23.422l-0.905-0.3l0.398-1.2l0.905,0.301
		L12.682,23.422z M12.36,21.818l0.058-0.175l0.632,0.21l-0.058,0.174L12.36,21.818z M13.379,21.324l-0.144,0.432l-0.906-0.301
		l0.145-0.431L13.379,21.324z"/>
	<path d="M13.606,25.248h1.313v-4.283h-1.313V25.248z M13.786,21.144h0.954v3.923h-0.954V21.144z"/>
	<rect x="13.938" y="21.687" width="0.666" height="0.184"/>
	<rect x="13.938" y="21.991" width="0.665" height="0.185"/>
	<rect x="13.938" y="24.011" width="0.665" height="0.186"/>
	<rect x="13.938" y="24.339" width="0.666" height="0.186"/>
	<path d="M16.847,14.973h-1.313v4.283h1.313V14.973z M16.667,19.078h-0.954v-0.484h0.954V19.078z M16.552,18.187v0.171h-0.661
		v-0.171H16.552z M15.891,18.031v-0.172h0.661v0.172H15.891z M16.667,17.526h-0.954v-2.373h0.954V17.526z"/>
	<rect x="15.888" y="15.623" width="0.666" height="0.184"/>
	<path d="M17.064,16.1v3.156h1.314v-4.283h-1.314v0.635V16.1z M17.245,15.153h0.954v0.455h-0.954V15.153z M18.054,15.759v0.184
		h-0.667v-0.184H18.054z M17.245,16.1h0.954v1.266h-0.954V16.1z M17.39,17.914V17.73h0.665v0.183H17.39z M18.054,18.034v0.184
		h-0.667v-0.184H18.054z M17.245,18.583h0.954v0.494h-0.954V18.583z"/>
	<path d="M21.42,19.256v-4.283h-1.313v4.283H21.42z M20.286,15.153h0.954v3.924h-0.954V15.153z"/>
	<rect x="20.823" y="15.484" width="0.185" height="2.178"/>
	<rect x="20.52" y="15.479" width="0.184" height="2.177"/>
	<path d="M19.934,19.256v-4.283H18.62v4.283H19.934z M18.8,15.153h0.954v3.924H18.8V15.153z"/>
	<rect x="18.952" y="15.697" width="0.666" height="0.183"/>
	<rect x="18.95" y="16.001" width="0.666" height="0.183"/>
	<rect x="18.95" y="18.022" width="0.666" height="0.185"/>
	<rect x="18.952" y="18.349" width="0.666" height="0.184"/>
	<path d="M12.16,14.973h-1.314v4.283h1.314V14.973z M11.98,19.078h-0.955v-0.484h0.955V19.078z M11.864,18.187v0.171h-0.66v-0.171
		H11.864z M11.204,18.031v-0.172h0.66v0.172H11.204z M11.98,17.526h-0.955v-2.373h0.955V17.526z"/>
	<rect x="11.2" y="15.623" width="0.667" height="0.184"/>
	<path d="M13.691,14.973h-1.313v0.635V16.1v3.156h1.313V14.973z M13.512,19.078h-0.954v-0.494h0.954V19.078z M13.367,18.034v0.184
		h-0.665v-0.184H13.367z M12.703,17.914V17.73h0.665v0.183H12.703z M13.512,17.366h-0.954V16.1h0.954V17.366z M12.702,15.943v-0.184
		h0.665v0.184H12.702z M13.512,15.608h-0.954v-0.455h0.954V15.608z"/>
	<path d="M15.247,14.973h-1.313v4.283h1.313V14.973z M15.067,19.078h-0.953v-3.924h0.953V19.078z"/>
	<rect x="14.266" y="15.697" width="0.665" height="0.183"/>
	<rect x="14.265" y="16.001" width="0.665" height="0.183"/>
	<rect x="14.265" y="18.022" width="0.665" height="0.185"/>
	<rect x="14.266" y="18.349" width="0.665" height="0.184"/>
	<path d="M24.376,10.677h-4.282v1.314h4.282V10.677z M20.757,11.812h-0.484v-0.955h0.484V11.812z M21.164,11.694h-0.172v-0.66h0.172
		V11.694z M21.491,11.694h-0.172v-0.66h0.172V11.694z M24.196,11.812h-2.372v-0.955h2.372V11.812z"/>
	<rect x="23.542" y="11.032" width="0.186" height="0.666"/>
	<path d="M24.376,12.101h-0.635H23.25h-3.156v1.314h4.282V12.101z M20.767,13.236h-0.494v-0.955h0.494V13.236z M21.316,13.09h-0.185
		v-0.666h0.185V13.09z M21.62,13.091h-0.184v-0.667h0.184V13.091z M23.25,13.236h-1.265v-0.955h1.265V13.236z M23.591,13.09h-0.184
		v-0.666h0.184V13.09z M24.196,13.236h-0.455v-0.955h0.455V13.236z"/>
	<path d="M19.934,11.991H15.65v1.314h4.283V11.991z M16.313,13.126h-0.484v-0.955h0.484V13.126z M16.72,13.009h-0.17v-0.66h0.17
		V13.009z M17.049,13.009h-0.173v-0.66h0.173V13.009z M19.754,13.126h-2.372v-0.955h2.372V13.126z"/>
	<rect x="19.1" y="12.346" width="0.185" height="0.667"/>
	<path d="M19.934,13.415h-0.635h-0.491H15.65v1.314h4.283V13.415z M16.324,14.55h-0.495v-0.955h0.495V14.55z M16.874,14.405h-0.185
		v-0.667h0.185V14.405z M17.177,14.406h-0.184V13.74h0.184V14.406z M18.808,14.55h-1.266v-0.955h1.266V14.55z M19.147,14.405h-0.185
		v-0.667h0.185V14.405z M19.754,14.55h-0.455v-0.955h0.455V14.55z"/>
	<path d="M24.376,13.549h-4.282v1.313h4.282V13.549z M24.196,14.682h-3.924v-0.954h3.924V14.682z"/>
	<rect x="23.47" y="13.88" width="0.183" height="0.665"/>
	<rect x="23.165" y="13.878" width="0.184" height="0.667"/>
	<rect x="21.144" y="13.878" width="0.185" height="0.667"/>
	<rect x="20.816" y="13.88" width="0.184" height="0.665"/>
	<path d="M28.975,13.549h-4.283v1.313h4.283V13.549z M28.795,14.682H24.87v-0.954h3.925V14.682z"/>
	<rect x="28.066" y="13.88" width="0.185" height="0.665"/>
	<rect x="27.763" y="13.878" width="0.184" height="0.667"/>
	<rect x="25.741" y="13.878" width="0.185" height="0.667"/>
	<rect x="25.415" y="13.88" width="0.185" height="0.665"/>
	<path d="M21.578,16.1v3.156h1.313v-4.283h-1.313v0.635V16.1z M21.758,15.153h0.954v0.455h-0.954V15.153z M22.567,15.759v0.184H21.9
		v-0.184H22.567z M21.758,16.1h0.954v1.266h-0.954V16.1z M21.903,17.914V17.73h0.666v0.183H21.903z M22.567,18.034v0.184H21.9
		v-0.184H22.567z M21.758,18.583h0.954v0.494h-0.954V18.583z"/>
	<path d="M25.934,14.973H24.62v4.283h1.313V14.973z M25.754,19.078H24.8v-3.924h0.954V19.078z"/>
	<rect x="25.337" y="15.484" width="0.184" height="2.178"/>
	<rect x="25.033" y="15.479" width="0.184" height="2.177"/>
	<path d="M23.134,19.256h1.313v-4.283h-1.313V19.256z M23.313,15.153h0.954v3.924h-0.954V15.153z"/>
	<rect x="23.466" y="15.697" width="0.667" height="0.183"/>
	<rect x="23.465" y="16.001" width="0.665" height="0.183"/>
	<rect x="23.465" y="18.022" width="0.665" height="0.185"/>
	<rect x="23.466" y="18.349" width="0.667" height="0.184"/>
	<path d="M26.104,16.1v3.156h1.314v-4.283h-1.314v0.635V16.1z M26.285,15.153h0.954v0.455h-0.954V15.153z M27.095,15.759v0.184
		h-0.666v-0.184H27.095z M26.285,16.1h0.954v1.266h-0.954V16.1z M26.43,17.914V17.73h0.666v0.183H26.43z M27.095,18.034v0.184
		h-0.666v-0.184H27.095z M26.285,18.583h0.954v0.494h-0.954V18.583z"/>
	<path d="M28.975,19.256v-4.283h-1.313v4.283H28.975z M27.841,15.153h0.954v3.924h-0.954V15.153z"/>
	<rect x="27.993" y="15.697" width="0.665" height="0.183"/>
	<rect x="27.991" y="16.001" width="0.666" height="0.183"/>
	<rect x="27.991" y="18.022" width="0.666" height="0.185"/>
	<rect x="27.993" y="18.349" width="0.665" height="0.184"/>
	<path d="M6.605,3.302C6.605,1.478,5.124,0,3.304,0C1.481,0,0,1.478,0,3.302c0,1.823,1.481,3.303,3.304,3.303
		C5.124,6.604,6.605,5.125,6.605,3.302z"/>
	<path d="M30.333,14.424h-0.967v5.157H9.896v-5.157v-1.021H7.988l-2.25-6.31L5.677,7.118V7.094h-1.25H1.18v10.064h0.711l0.498,4.938
		l-0.544,5.388H4.8l0.291-5.388l-0.267-4.938H5.72l-0.025-6.061l1.398,3.327h0.248h1.011H8.93v12.153h2.604
		c-0.211,0.244-0.344,0.559-0.344,0.907c0,0.768,0.622,1.39,1.391,1.39s1.39-0.622,1.39-1.39c0-0.348-0.132-0.663-0.344-0.907
		h11.177c-0.192,0.239-0.314,0.539-0.314,0.871c0,0.769,0.623,1.39,1.391,1.39c0.769,0,1.391-0.622,1.391-1.39
		c0-0.332-0.12-0.632-0.313-0.871h3.377V14.424z M9.896,25.526v-5.461h19.47v5.461H9.896z"/>
</g>
<g>
</g>
<g>
</g>
<g>
</g>
<g>
</g>
<g>
</g>
<g>
</g>
<g>
</g>
<g>
</g>
<g>
</g>
<g>
</g>
<g>
</g>
<g>
</g>
<g>
</g>
<g>
</g>
<g>
</g>
</svg>
