<?xml version="1.0" encoding="iso-8859-1"?>
<!-- Generator: Adobe Illustrator 16.0.0, SVG Export Plug-In . SVG Version: 6.00 Build 0)  -->
<!DOCTYPE svg PUBLIC "-//W3C//DTD SVG 1.1//EN" "http://www.w3.org/Graphics/SVG/1.1/DTD/svg11.dtd">
<svg version="1.1" id="Layer_1" xmlns="http://www.w3.org/2000/svg" xmlns:xlink="http://www.w3.org/1999/xlink" x="0px" y="0px"
	 width="29.742px" height="25.637px" viewBox="0 0 29.742 25.637" style="enable-background:new 0 0 29.742 25.637;"
	 xml:space="preserve">
<g>
	<path style="fill:#070909;" d="M14.352,2.698h-2.89v9.421h2.89V2.698z M13.957,11.725h-2.1V10.66h2.1V11.725z M13.701,9.766v0.378
		H12.25V9.766H13.701z M12.25,9.422V9.046h1.451v0.376H12.25z M13.957,8.313h-2.1v-5.22h2.1V8.313z"/>
	<rect x="12.242" y="4.126" style="fill:#070909;" width="1.465" height="0.405"/>
	<path style="fill:#070909;" d="M17.722,2.698h-2.891v1.396v1.082v6.943h2.891V2.698z M17.326,11.725h-2.1v-1.085h2.1V11.725z
		 M17.007,9.43v0.405h-1.465V9.43H17.007z M15.545,9.167V8.762h1.465v0.405H15.545z M17.326,7.958h-2.1V5.176h2.1V7.958z
		 M15.542,4.832V4.427h1.465v0.405H15.542z M17.326,4.094h-2.1v-1h2.1V4.094z"/>
	<path style="fill:#070909;" d="M24.412,2.698h-2.89v9.421h2.89V2.698z M24.017,11.725h-2.1V3.093h2.1V11.725z"/>
	<rect x="23.099" y="3.821" style="fill:#070909;" width="0.405" height="4.79"/>
	<rect x="22.43" y="3.813" style="fill:#070909;" width="0.406" height="4.79"/>
	<path style="fill:#070909;" d="M21.143,2.698h-2.89v9.421h2.89V2.698z M20.748,11.725h-2.099V3.093h2.099V11.725z"/>
	<rect x="18.983" y="4.29" style="fill:#070909;" width="1.465" height="0.404"/>
	<rect x="18.98" y="4.956" style="fill:#070909;" width="1.464" height="0.406"/>
	<rect x="18.98" y="9.403" style="fill:#070909;" width="1.464" height="0.406"/>
	<rect x="18.983" y="10.124" style="fill:#070909;" width="1.465" height="0.404"/>
	<path style="fill:#070909;" d="M2.283,23.775h2.89v-9.422h-2.89V23.775z M2.678,14.748h2.099v8.631H2.678V14.748z"/>
	<rect x="3.013" y="15.945" style="fill:#070909;" width="1.465" height="0.404"/>
	<rect x="3.01" y="16.612" style="fill:#070909;" width="1.465" height="0.406"/>
	<rect x="3.01" y="21.06" style="fill:#070909;" width="1.465" height="0.405"/>
	<rect x="3.013" y="21.779" style="fill:#070909;" width="1.465" height="0.404"/>
	<path style="fill:#070909;" d="M7.997,3.179L5.254,2.267l-0.44,1.326L4.472,4.619l-2.189,6.589l2.742,0.911L7.997,3.179z
		 M5.504,2.767L7.496,3.43L7.18,4.379L5.188,3.718L5.504,2.767z M6.773,4.594L6.646,4.979L5.255,4.517l0.128-0.385L6.773,4.594z
		 M4.848,4.742L6.84,5.405l-0.877,2.64L3.97,7.383L4.848,4.742z M4.019,8.247l1.39,0.461L5.282,9.094L3.891,8.63L4.019,8.247z
		 M3.806,8.88l1.39,0.461L5.068,9.726L3.677,9.265L3.806,8.88z M2.783,10.958l0.342-1.029l1.993,0.662L4.774,11.62L2.783,10.958z"/>
	<path style="fill:#070909;" d="M10.887,2.639h-2.89v9.421h2.89V2.639z M10.492,11.665H8.393V3.033h2.099V11.665z"/>
	<rect x="8.728" y="4.229" style="fill:#070909;" width="1.465" height="0.404"/>
	<rect x="8.725" y="4.898" style="fill:#070909;" width="1.465" height="0.405"/>
	<rect x="8.725" y="9.345" style="fill:#070909;" width="1.465" height="0.404"/>
	<rect x="8.728" y="10.063" style="fill:#070909;" width="1.465" height="0.406"/>
	<path style="fill:#070909;" d="M27.913,2.698h-2.89v9.421h2.89V2.698z M27.518,11.725h-2.099V3.093h2.099V11.725z"/>
	<rect x="25.753" y="4.29" style="fill:#070909;" width="1.465" height="0.404"/>
	<rect x="25.75" y="9.403" style="fill:#070909;" width="1.465" height="0.406"/>
	<rect x="25.753" y="10.124" style="fill:#070909;" width="1.465" height="0.404"/>
	<path style="fill:#070909;" d="M0,0v25.637h29.742V0H0z M28.452,1.29v11.206H1.29V1.29H28.452z M1.29,13.142h14.314v11.205H1.29
		V13.142z M16.249,24.347V13.142h12.203v11.205H16.249z"/>
	<path style="fill:#070909;" d="M26.201,14.255c-0.918-0.247-1.56,0.813-1.719,1.105h-2.016h-0.027H20.32
		c-0.225-0.378-0.83-1.227-1.661-1.003c-0.781,0.209-0.63,1.263-0.47,2.378c0.069,0.48,0.14,0.978,0.144,1.425
		c0.004,0.401,0.145,0.729,0.42,0.976c0.47,0.418,1.217,0.484,1.641,0.484c0.181,0,0.301-0.012,0.319-0.016
		c0.547,1.034,1.124,1.544,1.124,1.544v0.309c0,0,0.184,0.015,0.248,0c-0.011,0.844-0.521,0.924-0.521,0.924v0.385h-0.352v0.159
		h-0.184l-0.144,0.435h-0.528v0.447h4.089v-0.447h-0.426l-0.142-0.435h-0.185v-0.159h-0.352v-0.385c0,0-0.509-0.08-0.52-0.924
		c0.061,0.015,0.248,0,0.248,0V21.15c0,0,0.61-0.539,1.171-1.638c0.056,0.004,0.132,0.006,0.226,0.006
		c0.426,0,1.171-0.066,1.643-0.485c0.274-0.247,0.417-0.572,0.421-0.973c0.004-0.45,0.075-0.946,0.144-1.427
		C26.83,15.519,26.981,14.465,26.201,14.255z M19.028,18.825c-0.187-0.166-0.279-0.385-0.282-0.667
		c-0.004-0.478-0.076-0.988-0.148-1.48c-0.133-0.931-0.258-1.804,0.169-1.919c0.7-0.188,1.258,0.926,1.273,0.956v0.087
		c0,0,0.123,0,0.37,0c-0.105,0.537-0.268,0.581-0.598,0.809c0.117,1.052,0.394,1.912,0.703,2.594
		C20.194,19.215,19.443,19.196,19.028,18.825z M26.263,16.574c-0.073,0.492-0.144,1.004-0.148,1.483
		c-0.001,0.28-0.095,0.499-0.283,0.667c-0.377,0.338-1.042,0.383-1.398,0.379c0.291-0.664,0.546-1.493,0.658-2.493
		c-0.331-0.229-0.493-0.272-0.599-0.809c0.247,0,0.371,0,0.371,0v-0.268c0.146-0.256,0.641-1.037,1.23-0.876
		C26.521,14.769,26.395,15.646,26.263,16.574z"/>
	<path style="fill:#070909;" d="M12.917,17.323c-1.035-0.174-1.889,0.299-2.232,0.531c0.015-0.302,0.031-0.635,0.038-0.83
		c0.011-0.26,0.47-0.397,0.69-0.609c0.132-0.125-0.003-0.457-0.003-0.457s-1.146,0.509-1.115,1c0.015,0.239,0.018,0.575,0.017,0.854
		c-0.321-0.213-1-0.563-1.958-0.518c-1.322,0.062-2.188,1.033-2.164,2.474c0.025,1.998,1.798,3.684,3.034,3.684
		c0.304,0,0.553-0.038,0.747-0.086L9.948,23.51l0.228-0.116l0.106,0.415l0.143-0.356l0.235,0.25v-0.25l0.311,0.095l-0.074-0.224
		c0.199,0.067,0.497,0.134,0.894,0.134c1.236,0,3.016-1.336,3.04-3.334C14.855,18.683,14.264,17.55,12.917,17.323z M8.013,21.537
		c-0.5-0.639-0.349-1.549-0.349-1.549s0.334,0.842,0.678,1.364c0.344,0.521,0.933,0.938,0.933,0.938S8.513,22.178,8.013,21.537z"/>
</g>
<g>
</g>
<g>
</g>
<g>
</g>
<g>
</g>
<g>
</g>
<g>
</g>
<g>
</g>
<g>
</g>
<g>
</g>
<g>
</g>
<g>
</g>
<g>
</g>
<g>
</g>
<g>
</g>
<g>
</g>
</svg>
