<?xml version="1.0" encoding="utf-8"?>
<!-- Generator: Adobe Illustrator 16.0.4, SVG Export Plug-In . SVG Version: 6.00 Build 0)  -->
<!DOCTYPE svg PUBLIC "-//W3C//DTD SVG 1.1//EN" "http://www.w3.org/Graphics/SVG/1.1/DTD/svg11.dtd">
<svg version="1.1" id="Layer_1" xmlns="http://www.w3.org/2000/svg" xmlns:xlink="http://www.w3.org/1999/xlink" x="0px" y="0px"
	 width="13.703px" height="30.588px" viewBox="0 0 13.703 30.588" enable-background="new 0 0 13.703 30.588" xml:space="preserve">
<path d="M12.065,1.805H9.861v7.19h2.204V1.805z M11.765,8.694h-1.604V7.881h1.604V8.694z M11.569,7.199v0.288h-1.106V7.199H11.569z
	 M10.462,6.937V6.65h1.106v0.287H10.462z M11.765,6.091h-1.604V2.106h1.604V6.091z M11.576,3.204h-1.119V2.895h1.119V3.204z
	 M1.716,22.106v0.824v5.301h2.206v-7.189H1.716V22.106z M2.019,21.342h1.604v0.765H2.019V21.342z M3.378,22.36v0.311H2.26V22.36
	H3.378z M2.019,22.931h1.604v2.125H2.019V22.931z M2.262,25.978v-0.31h1.119v0.31H2.262z M3.378,26.179v0.309H2.26v-0.309H3.378z
	 M2.019,27.103h1.604v0.828H2.019V27.103z M7.107,28.231h2.206v-7.189H7.107V28.231z M7.41,21.342h1.603v6.589H7.41V21.342z
	 M8.312,21.899h0.309v3.654H8.312V21.899z M7.8,21.892h0.312v3.655H7.8V21.892z M11.88,11.818H9.673v7.19h2.207V11.818z
	 M11.58,18.707H9.975V12.12h1.604V18.707z M11.187,16.332h-0.309v-3.656h0.309V16.332z M10.675,16.325h-0.309v-3.656h0.309V16.325z
	 M4.451,28.231h2.206v-7.19H4.451V28.231z M4.753,21.342h1.603v6.587H4.753V21.342z M5.009,22.255h1.118v0.309H5.009V22.255z
	 M6.124,23.074H5.007v-0.31h1.117V23.074z M6.124,26.468H5.007v-0.309h1.117V26.468z M5.009,26.708h1.118v0.309H5.009V26.708z
	 M7.054,12.23l-2.093-0.695l-0.336,1.012l-0.26,0.781l-1.672,5.03l2.093,0.695L7.054,12.23z M5.152,11.916l1.521,0.505l-0.242,0.725
	l-1.52-0.504L5.152,11.916z M6.121,13.311l-0.097,0.292l-1.062-0.351l0.099-0.295L6.121,13.311z M4.65,13.424l1.521,0.505
	l-0.669,2.015l-1.521-0.505L4.65,13.424z M4.019,16.099l1.06,0.353l-0.097,0.294L3.92,16.392L4.019,16.099z M3.855,16.58
	l1.061,0.353l-0.098,0.297l-1.061-0.354L3.855,16.58z M3.074,18.168l0.262-0.786l1.52,0.506l-0.261,0.785L3.074,18.168z
	 M9.261,11.818H7.055v7.19h2.206V11.818z M8.958,18.706H7.356V12.12h1.603V18.706z M8.729,13.342H7.612v-0.31h1.117V13.342z
	 M8.727,13.852H7.609v-0.31h1.118V13.852z M8.727,17.244H7.609v-0.308h1.118V17.244z M7.612,17.485h1.117v0.309H7.612V17.485z
	 M9.779,28.231h2.206v-7.189H9.779V28.231z M10.082,21.342h1.603v6.589h-1.603V21.342z M10.335,22.255h1.119v0.311h-1.119V22.255z
	 M11.453,26.469h-1.117V26.16h1.117V26.469z M10.335,26.708h1.119v0.311h-1.119V26.708z M6.444,2.735L5.379,6.233l-0.295-0.09
	l1.065-3.497L6.444,2.735z M5.958,2.58L4.894,6.078l-0.296-0.09L5.662,2.49L5.958,2.58z M7.205,2.615v6.38h2.207v-7.19H7.205v0.267
	L5.248,1.476L3.152,8.353l2.109,0.643L7.205,2.615z M7.507,2.108H9.11v6.586H7.507V2.108z M3.529,8.152l1.919-6.3l1.533,0.467
	L5.062,8.62L3.529,8.152z M7.764,3.02H8.88v0.309H7.764V3.02z M8.878,7.232H7.762V6.923h1.116V7.232z M7.764,7.473H8.88v0.309H7.764
	V7.473z M0,0v29.87h2.203v0.718h1.236V29.87h7.387v0.718h1.236V29.87h1.641V0H0z M12.412,28.581H1.29v-8.646h11.069V19.29H1.29
	v-9.242h11.122V28.581z M12.412,9.404H1.29V1.29h11.122V9.404z"/>
</svg>
