<?xml version="1.0" encoding="utf-8"?>
<!-- Generator: Adobe Illustrator 16.0.4, SVG Export Plug-In . SVG Version: 6.00 Build 0)  -->
<!DOCTYPE svg PUBLIC "-//W3C//DTD SVG 1.1//EN" "http://www.w3.org/Graphics/SVG/1.1/DTD/svg11.dtd">
<svg version="1.1" id="Layer_1" xmlns="http://www.w3.org/2000/svg" xmlns:xlink="http://www.w3.org/1999/xlink" x="0px" y="0px"
	 width="27.383px" height="30.496px" viewBox="0 0 27.383 30.496" enable-background="new 0 0 27.383 30.496" xml:space="preserve">
<path d="M7.207,13.646H2.373v1.482h4.834V13.646z M5.253,14.926H2.576v-1.077h2.677V14.926z M5.822,14.724H5.63V13.98h0.192V14.724z
	 M6.192,14.724H6V13.98h0.192V14.724z M7.005,14.926H6.458v-1.077h0.547V14.926z M3.314,14.728H3.106v-0.751h0.208V14.728z
	 M3.659,3.663H2.177v4.834h1.482V3.663z M3.456,8.294H2.379V7.748h1.077V8.294z M3.325,7.289v0.192H2.581V7.289H3.325z M2.581,7.111
	V6.919h0.745v0.192H2.581z M3.456,6.544H2.379V3.866h1.077V6.544z M3.329,4.603H2.577V4.395h0.752V4.603z M5.464,3.663H3.981v0.716
	v0.554v3.563h1.483V3.663z M5.261,8.294H4.184V7.736h1.077V8.294z M5.097,7.116v0.208H4.346V7.116H5.097z M4.347,6.981V6.773h0.751
	v0.208H4.347z M5.261,6.361H4.184V4.933h1.077V6.361z M4.346,4.758V4.549h0.751v0.209H4.346z M5.261,4.379H4.184V3.866h1.077V4.379z
	 M7.208,3.663H5.726v4.834h1.482V3.663z M7.005,8.294H5.928V7.748h1.077V8.294z M6.874,7.289v0.192H6.129V7.289H6.874z M6.129,7.111
	V6.919h0.745v0.192H6.129z M7.005,6.544H5.928V3.866h1.077V6.544z M6.877,4.603H6.126V4.395h0.751V4.603z M9.013,3.663H7.53v0.716
	v0.554v3.563h1.483V3.663z M8.81,8.294H7.732V7.736H8.81V8.294z M8.646,7.116v0.208H7.895V7.116H8.646z M7.896,6.981V6.773h0.752
	v0.208H7.896z M8.81,6.361H7.732V4.933H8.81V6.361z M7.895,4.758V4.549h0.751v0.209H7.895z M8.81,4.379H7.732V3.866H8.81V4.379z
	 M10.922,3.663H9.439v4.834h1.483V3.663z M10.72,8.294H9.643V7.748h1.077V8.294z M10.588,7.289v0.192H9.844V7.289H10.588z
	 M9.844,7.111V6.919h0.744v0.192H9.844z M10.72,6.544H9.643V3.866h1.077V6.544z M10.591,4.603H9.84V4.395h0.751V4.603z
	 M12.726,3.663h-1.482v0.716v0.554v3.563h1.482V3.663z M12.524,8.294h-1.077V7.736h1.077V8.294z M12.36,7.116v0.208h-0.751V7.116
	H12.36z M11.61,6.981V6.773h0.751v0.208H11.61z M12.524,6.361h-1.077V4.933h1.077V6.361z M11.609,4.758V4.549h0.751v0.209H11.609z
	 M12.524,4.379h-1.077V3.866h1.077V4.379z M24.961,16.453h-1.482v0.715v0.556v3.562h1.482V16.453z M24.758,21.083h-1.076v-0.559
	h1.076V21.083z M24.595,19.906v0.209h-0.751v-0.209H24.595z M23.844,19.77v-0.208h0.752v0.208H23.844z M24.758,19.15h-1.076v-1.427
	h1.076V19.15z M23.844,17.546v-0.207h0.751v0.207H23.844z M24.758,17.167h-1.076v-0.513h1.076V17.167z M21.458,16.453h-1.482v0.715
	v0.556v3.562h1.482V16.453z M21.254,21.083h-1.076v-0.559h1.076V21.083z M21.09,19.906v0.209h-0.75v-0.209H21.09z M20.34,19.77
	v-0.208h0.752v0.208H20.34z M21.254,19.15h-1.076v-1.427h1.076V19.15z M20.34,17.546v-0.207h0.75v0.207H20.34z M21.254,17.167
	h-1.076v-0.513h1.076V17.167z M23.478,22.585h-1.481v4.834h1.481V22.585z M23.275,27.218h-1.077v-4.428h1.077V27.218z
	 M23.012,25.621h-0.208v-2.457h0.208V25.621z M22.668,25.617h-0.207V23.16h0.207V25.617z M25.083,22.585h-1.483v4.834h1.483V22.585z
	 M24.879,27.218h-1.078v-4.428h1.078V27.218z M24.616,25.621h-0.207v-2.457h0.207V25.621z M24.272,25.617h-0.208V23.16h0.208V25.617
	z M23.217,16.453h-1.481v4.832h1.481V16.453z M23.016,21.083h-1.077v-4.429h1.077V21.083z M22.862,17.476h-0.751v-0.207h0.751
	V17.476z M22.86,17.819h-0.751v-0.208h0.751V17.819z M22.86,20.1h-0.751v-0.208h0.751V20.1z M22.111,20.261h0.751v0.207h-0.751
	V20.261z M12.047,20.928l-1.124-3.382l-0.175-0.525l-0.226-0.68l-1.407,0.467l1.524,4.587L12.047,20.928z M9.372,16.938l1.022-0.341
	l0.163,0.488l-1.023,0.338L9.372,16.938z M10.522,17.496l-0.713,0.237l-0.065-0.196l0.713-0.238L10.522,17.496z M9.709,17.951
	l1.022-0.338l0.451,1.354l-1.023,0.339L9.709,17.951z M10.443,19.646l0.712-0.236l0.066,0.196l-0.713,0.237L10.443,19.646z
	 M11.266,19.733l0.066,0.197l-0.713,0.237l-0.066-0.199L11.266,19.733z M11.615,20.271L11.79,20.8l-1.021,0.34l-0.176-0.529
	L11.615,20.271z M9.115,16.808v-0.277H7.633v4.836h1.482V16.808z M8.913,21.164H7.836v-4.429h1.077V21.164z M8.74,17.556H7.989
	v-0.207H8.74V17.556z M7.991,17.691h0.751v0.208H7.991V17.691z M7.991,19.972h0.751v0.207H7.991V19.972z M8.74,20.548H7.989v-0.207
	H8.74V20.548z M19.021,20.716l-1.124-3.381l-0.174-0.526l-0.227-0.679l-1.406,0.467l1.525,4.586L19.021,20.716z M16.346,16.725
	l1.021-0.339l0.162,0.486l-1.021,0.34L16.346,16.725z M17.497,17.283l-0.713,0.237l-0.066-0.196l0.714-0.238L17.497,17.283z
	 M16.683,17.738l1.022-0.339l0.449,1.354l-1.021,0.34L16.683,17.738z M17.417,19.434l0.713-0.238l0.065,0.197l-0.713,0.237
	L17.417,19.434z M18.239,19.52l0.066,0.198l-0.713,0.238l-0.066-0.199L18.239,19.52z M18.588,20.059l0.177,0.528l-1.022,0.34
	l-0.175-0.529L18.588,20.059z M16.088,16.318h-1.482v4.835h1.482V16.318z M15.885,20.951h-1.076v-4.429h1.076V20.951z
	 M15.715,17.343h-0.752v-0.209h0.752V17.343z M15.715,17.686h-0.752v-0.208h0.752V17.686z M15.715,19.966h-0.752v-0.207h0.752
	V19.966z M15.715,20.335h-0.752v-0.207h0.752V20.335z M19.676,6.982h-4.832v1.483h4.832V6.982z M17.724,8.262h-2.677V7.184h2.677
	V8.262z M18.293,8.061h-0.192V7.316h0.192V8.061z M18.663,8.061h-0.193V7.316h0.193V8.061z M19.475,8.262h-0.547V7.184h0.547V8.262z
	 M15.786,8.064h-0.209V7.312h0.209V8.064z M16.114,6.661h3.562V5.178h-4.832v1.483h0.716H16.114z M18.917,5.381h0.559v1.076h-0.559
	V5.381z M18.297,5.544h0.207v0.751h-0.207V5.544z M17.954,5.542h0.209v0.751h-0.209V5.542z M16.114,5.381h1.428v1.076h-1.428V5.381z
	 M15.731,5.544h0.208v0.751h-0.208V5.544z M15.047,5.381h0.514v1.076h-0.514V5.381z M23.219,3.663h-1.483v4.834h1.483V3.663z
	 M23.016,8.294h-1.077V3.866h1.077V8.294z M22.752,6.697h-0.207V4.239h0.207V6.697z M22.411,6.692h-0.209V4.234h0.209V6.692z
	 M21.474,3.663h-1.483v4.834h1.483V3.663z M21.271,8.294h-1.077V3.866h1.077V8.294z M21.118,4.687h-0.752V4.479h0.752V4.687z
	 M21.116,5.029h-0.752V4.821h0.752V5.029z M21.116,7.31h-0.752V7.102h0.752V7.31z M20.366,7.472h0.752V7.68h-0.752V7.472z
	 M24.989,3.663h-1.482v4.834h1.482V3.663z M24.786,8.294h-1.076V3.866h1.076V8.294z M24.633,4.687h-0.752V4.479h0.752V4.687z
	 M24.631,7.31h-0.752V7.102h0.752V7.31z M23.881,7.472h0.752V7.68h-0.752V7.472z M16.348,15.123h1.482V10.29h-1.482V15.123z
	 M16.551,10.493h1.076v4.427h-1.076V10.493z M17.157,10.865h0.209v2.458h-0.209V10.865z M16.813,10.861h0.208v2.458h-0.208V10.861z
	 M14.603,15.123h1.481V10.29h-1.481V15.123z M14.805,10.493h1.076v4.427h-1.076V10.493z M14.978,11.106h0.751v0.208h-0.751V11.106z
	 M15.728,11.656h-0.752v-0.207h0.752V11.656z M15.728,13.937h-0.752v-0.208h0.752V13.937z M14.978,14.099h0.751v0.209h-0.751V14.099
	z M18.118,15.123h1.483V10.29h-1.483V15.123z M18.321,10.493h1.077v4.427h-1.077V10.493z M18.493,11.106h0.752v0.208h-0.752V11.106z
	 M19.243,13.937h-0.75v-0.208h0.75V13.937z M18.493,14.099h0.752v0.209h-0.752V14.099z M3.82,22.585H2.337v4.834H3.82V22.585z
	 M3.618,27.216H2.541v-0.545h1.077V27.216z M3.486,26.212v0.192H2.741v-0.192H3.486z M2.741,26.037v-0.191h0.745v0.191H2.741z
	 M3.618,25.466H2.541v-2.676h1.077V25.466z M3.49,23.527H2.738v-0.208H3.49V23.527z M5.625,22.587H4.142v0.716v0.555v3.563h1.483
	V22.587z M5.422,27.218H4.345v-0.557h1.077V27.218z M5.258,26.041v0.209H4.507v-0.209H5.258z M4.507,25.906v-0.207h0.752v0.207
	H4.507z M5.422,25.285H4.345v-1.427h1.077V25.285z M4.507,23.682v-0.208h0.751v0.208H4.507z M5.422,23.304H4.345v-0.514h1.077
	V23.304z M9.114,22.585H7.631v4.834h1.483V22.585z M8.911,27.218H7.834v-4.428h1.077V27.218z M8.648,25.621H8.44v-2.457h0.208
	V25.621z M8.305,25.617H8.097V23.16h0.208V25.617z M7.369,22.585H5.886v4.834h1.483V22.585z M7.167,27.218H6.089v-4.428h1.078
	V27.218z M7.012,23.611H6.261v-0.207h0.751V23.611z M7.011,23.955H6.259v-0.209h0.752V23.955z M7.011,26.235H6.259v-0.208h0.752
	V26.235z M6.261,26.396h0.751v0.208H6.261V26.396z M10.884,22.585H9.402v4.834h1.482V22.585z M10.682,27.218H9.605v-4.428h1.077
	V27.218z M10.528,23.611H9.777v-0.207h0.751V23.611z M10.526,26.235H9.775v-0.208h0.751V26.235z M9.777,26.396h0.751v0.208H9.777
	V26.396z M12.922,10.29h-1.483v4.833h1.483V10.29z M12.719,14.92h-1.077v-0.546h1.077V14.92z M12.517,13.915v0.193h-0.744v-0.193
	H12.517z M11.773,13.739v-0.192h0.744v0.192H11.773z M12.719,13.17h-1.077v-2.677h1.077V13.17z M12.521,11.23h-0.752v-0.208h0.752
	V11.23z M11.117,11.56v-0.554V10.29H9.634v4.833h1.483V11.56z M10.914,14.92H9.837v-0.557h1.077V14.92z M10.752,13.743v0.208H10
	v-0.208H10.752z M10,13.608v-0.209h0.751v0.209H10z M10.914,12.988H9.837V11.56h1.077V12.988z M10,11.384v-0.208h0.753v0.208H10z
	 M10.914,11.007H9.837v-0.514h1.077V11.007z M7.207,10.28H2.373v1.483h4.834V10.28z M7.004,11.56H2.576v-1.076h4.428V11.56z
	 M2.95,11.089h2.458v0.209H2.95V11.089z M5.402,10.955H2.945v-0.208h2.457V10.955z M9.372,10.29H7.89v4.833h1.482V10.29z
	 M9.17,14.92H8.093v-4.427H9.17V14.92z M8.999,11.314H8.247v-0.208h0.752V11.314z M8.248,11.449H9v0.207H8.248V11.449z
	 M8.248,13.729H9v0.208H8.248V13.729z M8.999,14.308H8.247v-0.209h0.752V14.308z M7.207,11.97H2.373v1.482h4.834V11.97z
	 M7.004,13.249H2.576v-1.077h4.428V13.249z M3.398,13.095H3.19v-0.752h0.208V13.095z M6.021,13.093H5.813v-0.751h0.208V13.093z
	 M6.39,13.095H6.182v-0.752H6.39V13.095z M19.83,23.21l-0.716,2.352l-0.198-0.061l0.716-2.352L19.83,23.21z M19.502,23.107
	l-0.717,2.351l-0.199-0.061l0.717-2.351L19.502,23.107z M20.34,23.13v4.291h1.482v-4.834H20.34v0.178l-1.315-0.4l-1.407,4.625
	l1.416,0.432L20.34,23.13z M20.543,22.791h1.078v4.428h-1.078V22.791z M17.87,26.854l1.291-4.235l1.029,0.312l-1.291,4.236
	L17.87,26.854z M20.715,23.404h0.752v0.207h-0.752V23.404z M21.465,26.235h-0.752v-0.208h0.752V26.235z M20.715,26.396h0.752v0.208
	h-0.752V26.396z M22.355,15.063c0.131,0,0.237-0.015,0.321-0.037l-0.01,0.062l0.098-0.049l0.045,0.177l0.062-0.152l0.101,0.107
	v-0.107l0.134,0.041l-0.031-0.097c0.086,0.027,0.213,0.058,0.385,0.058c0.531,0,1.297-0.576,1.308-1.436
	c0.011-0.618-0.244-1.105-0.824-1.203c-0.444-0.075-0.813,0.128-0.959,0.227c0.007-0.129,0.013-0.271,0.017-0.356
	c0.004-0.11,0.201-0.17,0.297-0.262c0.057-0.052-0.002-0.196-0.002-0.196s-0.494,0.219-0.479,0.431
	c0.006,0.102,0.009,0.247,0.007,0.368c-0.139-0.093-0.431-0.243-0.842-0.224c-0.568,0.028-0.941,0.446-0.932,1.066
	C21.06,14.337,21.823,15.063,22.355,15.063z M21.684,13.573c0,0,0.143,0.362,0.291,0.587c0.148,0.225,0.402,0.404,0.402,0.404
	s-0.328-0.048-0.543-0.325C21.618,13.963,21.684,13.573,21.684,13.573z M5.485,17.701c-0.343-0.093-0.581,0.303-0.641,0.41H4.092
	H4.083h-0.79c-0.084-0.14-0.31-0.457-0.619-0.374c-0.291,0.079-0.236,0.472-0.175,0.886c0.025,0.181,0.051,0.365,0.053,0.532
	c0.002,0.149,0.055,0.272,0.158,0.364c0.175,0.154,0.453,0.18,0.611,0.18c0.068,0,0.112-0.004,0.12-0.004
	c0.204,0.385,0.418,0.575,0.418,0.575v0.114c0,0,0.069,0.006,0.092,0c-0.004,0.314-0.194,0.344-0.194,0.344v0.145H3.625v0.059H3.558
	l-0.054,0.162H3.307v0.166h1.524v-0.166H4.672l-0.053-0.162H4.55v-0.059H4.419v-0.145c0,0-0.19-0.027-0.194-0.344
	c0.022,0.006,0.093,0,0.093,0V20.27c0,0,0.227-0.202,0.436-0.61c0.021,0.002,0.05,0.002,0.084,0.002
	c0.159,0,0.437-0.024,0.612-0.181c0.102-0.092,0.155-0.213,0.157-0.362c0.001-0.168,0.028-0.354,0.054-0.533
	C5.719,18.171,5.776,17.779,5.485,17.701z M2.812,19.402c-0.069-0.061-0.104-0.143-0.105-0.248
	c-0.001-0.178-0.028-0.367-0.055-0.552c-0.05-0.347-0.096-0.672,0.063-0.715c0.261-0.07,0.469,0.346,0.475,0.356v0.031
	c0,0,0.046,0,0.138,0c-0.04,0.201-0.1,0.217-0.224,0.303c0.044,0.393,0.147,0.711,0.262,0.967
	C3.246,19.548,2.966,19.542,2.812,19.402z M5.508,18.564c-0.026,0.186-0.053,0.374-0.056,0.553c0,0.104-0.035,0.186-0.105,0.248
	c-0.141,0.127-0.388,0.143-0.521,0.143c0.108-0.248,0.204-0.557,0.245-0.93c-0.123-0.086-0.184-0.102-0.223-0.303
	c0.092,0,0.138,0,0.138,0v-0.1c0.054-0.096,0.239-0.387,0.459-0.326C5.604,17.891,5.557,18.218,5.508,18.564z M26.606,27.65V1.816
	h-2.281V0h-9.191v1.816h-0.857h-1.167H11.55V0H2.359v1.816H0.778V27.65H0v2.846h27.383V27.65H26.606z M3.003,0.645h7.902v1.54H3.003
	V0.645z M1.946,15.953h4.581v5.631H1.946V15.953z M13.109,27.649H1.946v-5.481h11.163V27.649z M13.109,21.583H7.11v-5.633h5.999
	V21.583z M13.109,15.368H1.946V9.403h11.163V15.368z M13.109,8.819H1.946V2.983h11.163V8.819z M15.779,0.645h7.901v1.54h-7.901
	V0.645z M14.276,9.403h5.689v5.965h-5.689V9.403z M25.438,27.649H14.276v-5.481h11.162V27.649z M25.438,21.583H14.276v-5.631h11.162
	V21.583z M25.438,15.368h-4.889V9.403h4.889V15.368z M25.438,8.819H14.276V2.983h11.162V8.819z M17.513,1.43
	c0.014,0.03,0.022,0.066,0.022,0.108c0,0.062-0.014,0.112-0.039,0.154c-0.024,0.041-0.058,0.074-0.099,0.098
	c-0.041,0.026-0.088,0.044-0.14,0.054c-0.051,0.012-0.102,0.017-0.154,0.017c-0.018,0-0.039-0.001-0.066-0.004
	c-0.027-0.002-0.055-0.007-0.086-0.016c-0.029-0.009-0.061-0.02-0.092-0.036c-0.029-0.015-0.057-0.034-0.082-0.06
	c-0.023-0.024-0.044-0.055-0.061-0.091c-0.014-0.035-0.022-0.078-0.022-0.128h0.288c0,0.024,0.003,0.043,0.01,0.062
	c0.012,0.029,0.03,0.047,0.057,0.055c0.027,0.009,0.054,0.013,0.08,0.013c0.013,0,0.024,0,0.039-0.004
	c0.015-0.001,0.027-0.006,0.039-0.013c0.013-0.005,0.021-0.015,0.03-0.025c0.009-0.011,0.013-0.025,0.013-0.042
	c0-0.012-0.004-0.023-0.01-0.031c-0.007-0.008-0.017-0.016-0.031-0.023c-0.016-0.008-0.035-0.015-0.062-0.024
	c-0.026-0.008-0.06-0.017-0.099-0.029c-0.037-0.011-0.074-0.022-0.112-0.033c-0.039-0.012-0.073-0.028-0.103-0.047
	C16.804,1.364,16.78,1.34,16.76,1.31c-0.02-0.031-0.028-0.069-0.028-0.116c0-0.054,0.011-0.1,0.032-0.139
	c0.021-0.039,0.049-0.071,0.084-0.097c0.035-0.024,0.076-0.043,0.121-0.055c0.045-0.011,0.091-0.017,0.14-0.017
	c0.05,0,0.099,0.005,0.146,0.016c0.045,0.01,0.086,0.028,0.121,0.052c0.037,0.024,0.065,0.054,0.088,0.094
	c0.021,0.04,0.033,0.087,0.035,0.143h-0.272c0.002-0.016,0-0.032-0.006-0.043c-0.007-0.013-0.017-0.024-0.028-0.031
	c-0.013-0.009-0.025-0.015-0.041-0.018c-0.016-0.004-0.029-0.005-0.045-0.005c-0.009,0-0.02,0-0.031,0.002
	C17.061,1.097,17.049,1.1,17.04,1.105s-0.019,0.011-0.025,0.019c-0.008,0.008-0.012,0.019-0.012,0.032
	c0.002,0.017,0.01,0.031,0.026,0.041c0.017,0.012,0.037,0.021,0.063,0.029c0.023,0.009,0.053,0.017,0.084,0.024
	c0.033,0.006,0.064,0.015,0.098,0.023c0.033,0.01,0.066,0.021,0.096,0.035c0.032,0.012,0.06,0.029,0.086,0.05
	C17.479,1.378,17.499,1.404,17.513,1.43z M18.213,1.477h0.283c0,0.047-0.01,0.094-0.029,0.14c-0.018,0.045-0.045,0.087-0.082,0.124
	c-0.035,0.038-0.08,0.067-0.133,0.09c-0.055,0.023-0.114,0.034-0.183,0.034c-0.075,0-0.144-0.013-0.2-0.038
	c-0.06-0.025-0.109-0.06-0.148-0.103C17.68,1.68,17.65,1.628,17.629,1.568c-0.021-0.059-0.032-0.123-0.032-0.192
	c0-0.074,0.012-0.139,0.034-0.2c0.021-0.059,0.054-0.111,0.095-0.154c0.042-0.043,0.091-0.076,0.149-0.099
	c0.058-0.024,0.121-0.035,0.194-0.035c0.13,0.001,0.228,0.034,0.298,0.097c0.07,0.064,0.112,0.154,0.125,0.272h-0.281
	c0-0.009-0.004-0.02-0.008-0.035C18.2,1.206,18.191,1.191,18.18,1.176c-0.012-0.014-0.027-0.028-0.045-0.039
	c-0.02-0.012-0.045-0.018-0.073-0.018c-0.034,0-0.062,0.008-0.085,0.023s-0.04,0.035-0.055,0.059
	c-0.014,0.024-0.023,0.052-0.029,0.082c-0.006,0.03-0.008,0.061-0.008,0.093c0,0.031,0.002,0.062,0.008,0.093
	c0.007,0.03,0.018,0.058,0.029,0.082c0.014,0.024,0.031,0.043,0.055,0.059c0.021,0.015,0.051,0.022,0.085,0.022
	c0.024,0,0.045-0.004,0.062-0.012c0.018-0.008,0.031-0.019,0.043-0.033c0.013-0.014,0.022-0.03,0.029-0.05
	C18.204,1.518,18.208,1.498,18.213,1.477z M18.616,0.909h0.287v0.932h-0.287V0.909z M19.338,1.603h0.498v0.238h-0.787V0.909h0.772
	v0.239h-0.483v0.116h0.439v0.223h-0.439V1.603z M20.54,0.909h0.272v0.932h-0.28l-0.285-0.509h-0.004v0.509h-0.271V0.909h0.293
	l0.272,0.499h0.002V0.909z M21.549,1.478h0.283c0,0.047-0.008,0.094-0.028,0.14c-0.019,0.045-0.046,0.087-0.082,0.124
	c-0.036,0.038-0.081,0.067-0.134,0.09s-0.114,0.034-0.182,0.034c-0.076,0-0.143-0.013-0.201-0.038s-0.107-0.06-0.148-0.103
	c-0.04-0.044-0.071-0.096-0.092-0.156c-0.022-0.059-0.032-0.123-0.032-0.192c0-0.074,0.012-0.139,0.034-0.2
	c0.021-0.059,0.053-0.111,0.095-0.154s0.091-0.076,0.149-0.099c0.058-0.024,0.123-0.035,0.195-0.035
	c0.129,0.001,0.227,0.034,0.297,0.097c0.071,0.064,0.112,0.154,0.125,0.272h-0.279c-0.002-0.009-0.006-0.02-0.01-0.035
	c-0.004-0.016-0.013-0.031-0.023-0.046c-0.012-0.014-0.025-0.028-0.045-0.039c-0.02-0.012-0.043-0.018-0.072-0.018
	c-0.033,0-0.062,0.007-0.085,0.022s-0.041,0.035-0.054,0.059c-0.014,0.024-0.024,0.052-0.03,0.082
	c-0.006,0.03-0.009,0.061-0.009,0.093c0,0.031,0.004,0.062,0.009,0.093c0.007,0.03,0.017,0.058,0.03,0.082
	c0.013,0.024,0.031,0.043,0.054,0.059c0.022,0.015,0.052,0.022,0.085,0.022c0.023,0,0.045-0.004,0.062-0.012
	c0.017-0.008,0.031-0.019,0.043-0.033c0.012-0.014,0.021-0.03,0.029-0.05C21.54,1.518,21.545,1.498,21.549,1.478z M22.241,1.603
	h0.498v0.238h-0.785V0.909h0.771v0.239h-0.484v0.116h0.439v0.223h-0.439V1.603z M4.31,1.401C4.295,1.382,4.278,1.367,4.258,1.354
	C4.239,1.343,4.219,1.333,4.197,1.326c0.035-0.02,0.063-0.043,0.084-0.07C4.302,1.227,4.312,1.19,4.312,1.143
	c0-0.023-0.003-0.049-0.011-0.076C4.293,1.04,4.278,1.014,4.256,0.991C4.233,0.966,4.203,0.948,4.164,0.932
	C4.125,0.917,4.075,0.91,4.014,0.91h-0.51v0.932h0.529c0.041,0,0.081-0.006,0.12-0.018C4.192,1.811,4.227,1.793,4.257,1.77
	c0.031-0.023,0.055-0.052,0.074-0.087C4.35,1.647,4.359,1.607,4.359,1.558c0-0.033-0.004-0.064-0.013-0.089
	C4.337,1.442,4.325,1.42,4.31,1.401z M3.792,1.132h0.151c0.03,0,0.054,0.004,0.072,0.013c0.018,0.011,0.026,0.026,0.026,0.05
	c0,0.031-0.008,0.051-0.026,0.062c-0.017,0.01-0.041,0.017-0.072,0.017H3.792V1.132z M4.063,1.575
	c-0.006,0.011-0.015,0.02-0.025,0.027c-0.01,0.007-0.022,0.011-0.036,0.014C3.989,1.619,3.975,1.62,3.959,1.62H3.792V1.446h0.18
	c0.066,0,0.101,0.028,0.101,0.084C4.072,1.548,4.069,1.564,4.063,1.575z M5.031,0.909h0.287v0.572c0,0.131-0.034,0.227-0.104,0.289
	c-0.07,0.063-0.176,0.094-0.32,0.094S4.644,1.833,4.573,1.77c-0.07-0.062-0.105-0.159-0.105-0.289V0.909h0.287v0.508
	c0,0.023,0.001,0.048,0.002,0.074C4.759,1.516,4.764,1.539,4.772,1.56c0.009,0.02,0.022,0.037,0.042,0.051
	c0.019,0.013,0.046,0.02,0.081,0.02c0.034,0,0.06-0.007,0.079-0.02C4.991,1.597,5.005,1.58,5.014,1.56
	C5.023,1.539,5.028,1.516,5.03,1.491c0.001-0.025,0.001-0.05,0.001-0.074V0.909z M6.225,1.434C6.239,1.464,6.246,1.5,6.246,1.542
	c0,0.062-0.013,0.112-0.038,0.154c-0.026,0.041-0.059,0.074-0.1,0.096C6.067,1.818,6.02,1.836,5.969,1.846
	C5.917,1.858,5.865,1.863,5.813,1.863c-0.017,0-0.04-0.001-0.066-0.004C5.72,1.857,5.692,1.852,5.661,1.843
	C5.631,1.834,5.6,1.823,5.57,1.807c-0.03-0.014-0.058-0.034-0.082-0.06c-0.024-0.024-0.044-0.056-0.06-0.091
	C5.412,1.621,5.404,1.578,5.404,1.528h0.287c0,0.023,0.004,0.043,0.011,0.061c0.01,0.029,0.029,0.047,0.056,0.055
	c0.027,0.009,0.055,0.013,0.081,0.013c0.012,0,0.024,0,0.037-0.005c0.015-0.001,0.027-0.006,0.04-0.013
	c0.012-0.005,0.022-0.015,0.03-0.025c0.008-0.011,0.012-0.025,0.012-0.042c0-0.012-0.003-0.023-0.009-0.031
	C5.943,1.533,5.933,1.525,5.918,1.518C5.903,1.51,5.882,1.503,5.856,1.494C5.83,1.486,5.797,1.477,5.757,1.465
	C5.72,1.455,5.683,1.443,5.645,1.433C5.606,1.421,5.573,1.405,5.543,1.386c-0.03-0.021-0.054-0.045-0.074-0.075
	C5.45,1.28,5.441,1.242,5.441,1.195c0-0.053,0.01-0.1,0.032-0.139c0.021-0.039,0.049-0.071,0.084-0.097
	c0.035-0.024,0.075-0.043,0.12-0.055c0.045-0.011,0.092-0.017,0.14-0.017c0.05,0,0.099,0.005,0.145,0.016
	c0.046,0.01,0.087,0.028,0.122,0.052C6.12,0.978,6.149,1.008,6.171,1.048s0.034,0.087,0.034,0.143H5.933
	c0.003-0.016,0.001-0.032-0.005-0.043C5.921,1.135,5.913,1.124,5.9,1.117C5.888,1.108,5.875,1.102,5.86,1.099
	C5.845,1.095,5.83,1.094,5.815,1.094c-0.009,0-0.02,0-0.032,0.002C5.771,1.097,5.759,1.1,5.75,1.105
	C5.738,1.11,5.73,1.116,5.723,1.124c-0.006,0.008-0.01,0.019-0.01,0.032c0,0.017,0.008,0.031,0.025,0.041
	C5.754,1.208,5.774,1.218,5.8,1.226C5.825,1.234,5.854,1.242,5.885,1.25C5.917,1.256,5.95,1.265,5.982,1.273
	c0.034,0.01,0.066,0.021,0.098,0.035c0.031,0.013,0.059,0.029,0.084,0.05C6.188,1.378,6.208,1.404,6.225,1.434z M6.334,0.909h0.287
	v0.932H6.334V0.909z M7.338,0.909H7.61v0.932H7.33L7.044,1.332H7.042v0.509H6.771V0.909h0.293l0.272,0.499h0.002V0.909z
	 M8.048,1.603h0.498v0.238H7.76V0.909h0.772v0.239H8.048v0.116h0.439v0.223H8.048V1.603z M9.441,1.434
	C9.455,1.464,9.463,1.5,9.463,1.542c0,0.062-0.014,0.112-0.039,0.154C9.399,1.737,9.366,1.77,9.325,1.791
	C9.284,1.817,9.238,1.835,9.187,1.845C9.136,1.857,9.084,1.862,9.032,1.862c-0.018,0-0.04-0.001-0.067-0.004
	C8.938,1.856,8.909,1.851,8.879,1.842c-0.031-0.009-0.061-0.02-0.092-0.036c-0.031-0.015-0.058-0.034-0.083-0.06
	C8.681,1.722,8.66,1.691,8.644,1.655C8.629,1.62,8.621,1.577,8.621,1.527h0.287c0,0.024,0.003,0.043,0.01,0.062
	c0.011,0.029,0.03,0.047,0.057,0.055c0.026,0.009,0.054,0.013,0.08,0.013c0.012,0,0.025,0,0.039-0.004
	C9.107,1.652,9.121,1.647,9.133,1.64c0.012-0.005,0.022-0.015,0.03-0.025C9.171,1.604,9.175,1.59,9.175,1.573
	c0-0.012-0.004-0.023-0.009-0.031C9.159,1.534,9.15,1.526,9.134,1.519C9.119,1.511,9.1,1.503,9.073,1.494
	C9.047,1.486,9.014,1.477,8.974,1.465C8.938,1.455,8.9,1.443,8.862,1.433C8.824,1.42,8.79,1.405,8.76,1.386
	C8.73,1.365,8.705,1.341,8.686,1.311C8.667,1.28,8.657,1.242,8.657,1.195c0-0.053,0.011-0.1,0.032-0.139
	c0.022-0.039,0.05-0.071,0.085-0.097c0.035-0.024,0.075-0.043,0.121-0.055C8.94,0.893,8.986,0.887,9.034,0.887
	c0.05,0,0.098,0.005,0.145,0.016c0.046,0.01,0.086,0.028,0.123,0.051c0.035,0.024,0.065,0.054,0.086,0.094
	C9.41,1.088,9.42,1.135,9.422,1.191H9.151c0.002-0.016,0-0.032-0.006-0.043C9.138,1.135,9.129,1.124,9.116,1.117
	c-0.012-0.009-0.025-0.015-0.04-0.018C9.062,1.095,9.047,1.094,9.032,1.094c-0.01,0-0.02,0-0.032,0.002
	C8.987,1.097,8.976,1.1,8.966,1.105C8.955,1.11,8.947,1.116,8.94,1.124S8.929,1.143,8.929,1.156C8.93,1.172,8.938,1.187,8.955,1.197
	c0.016,0.011,0.037,0.021,0.062,0.029C9.042,1.234,9.07,1.242,9.103,1.25c0.031,0.006,0.063,0.015,0.096,0.023
	c0.033,0.01,0.066,0.021,0.097,0.035c0.032,0.012,0.06,0.029,0.085,0.05C9.405,1.378,9.425,1.404,9.441,1.434z M10.311,1.432
	c0.016,0.03,0.023,0.066,0.023,0.108c0,0.062-0.013,0.112-0.038,0.154c-0.025,0.041-0.058,0.074-0.099,0.098
	c-0.041,0.026-0.087,0.044-0.139,0.054c-0.052,0.012-0.104,0.017-0.156,0.017c-0.017,0-0.04-0.001-0.066-0.004
	C9.809,1.857,9.78,1.852,9.749,1.843c-0.03-0.009-0.061-0.02-0.091-0.036C9.628,1.793,9.6,1.773,9.576,1.747
	C9.551,1.723,9.531,1.692,9.515,1.656C9.5,1.621,9.492,1.578,9.492,1.528h0.287c0,0.023,0.004,0.043,0.011,0.061
	C9.8,1.618,9.819,1.636,9.845,1.644c0.028,0.009,0.054,0.013,0.082,0.013c0.011,0,0.024,0,0.038-0.004
	c0.014-0.001,0.027-0.006,0.039-0.013c0.012-0.005,0.023-0.015,0.03-0.025c0.008-0.011,0.012-0.025,0.012-0.042
	c0-0.012-0.002-0.023-0.009-0.031c-0.007-0.008-0.017-0.016-0.032-0.023C9.991,1.511,9.97,1.504,9.944,1.495
	C9.918,1.487,9.885,1.478,9.845,1.466C9.808,1.455,9.771,1.444,9.732,1.433C9.695,1.42,9.662,1.405,9.631,1.386
	c-0.03-0.021-0.054-0.045-0.073-0.075C9.538,1.28,9.529,1.242,9.529,1.195c0-0.053,0.01-0.1,0.032-0.139
	C9.582,1.017,9.61,0.985,9.645,0.959C9.68,0.935,9.72,0.916,9.764,0.902c0.046-0.011,0.092-0.017,0.14-0.017
	c0.051,0,0.098,0.005,0.145,0.016c0.046,0.01,0.087,0.028,0.123,0.052s0.065,0.054,0.086,0.094s0.034,0.087,0.035,0.143h-0.271
	c0.003-0.016,0.001-0.032-0.006-0.043C10.01,1.135,10,1.124,9.988,1.117C9.976,1.108,9.962,1.102,9.947,1.099
	C9.933,1.095,9.918,1.094,9.903,1.094c-0.009,0-0.02,0-0.032,0.002C9.859,1.097,9.847,1.1,9.837,1.105
	C9.827,1.11,9.818,1.116,9.811,1.124C9.803,1.132,9.8,1.143,9.8,1.156c0.001,0.016,0.01,0.031,0.026,0.041
	c0.016,0.011,0.036,0.021,0.062,0.029C9.913,1.235,9.942,1.243,9.973,1.25c0.033,0.006,0.065,0.015,0.098,0.023
	c0.033,0.01,0.065,0.021,0.096,0.035c0.032,0.012,0.06,0.029,0.085,0.05C10.276,1.378,10.296,1.404,10.311,1.432z"/>
</svg>
