<?xml version="1.0" encoding="utf-8"?>
<!-- Generator: Adobe Illustrator 16.0.4, SVG Export Plug-In . SVG Version: 6.00 Build 0)  -->
<!DOCTYPE svg PUBLIC "-//W3C//DTD SVG 1.1//EN" "http://www.w3.org/Graphics/SVG/1.1/DTD/svg11.dtd">
<svg version="1.1" id="Layer_1" xmlns="http://www.w3.org/2000/svg" xmlns:xlink="http://www.w3.org/1999/xlink" x="0px" y="0px"
	 width="31.156px" height="31.133px" viewBox="0 0 31.156 31.133" enable-background="new 0 0 31.156 31.133" xml:space="preserve">
<path d="M23.598,19.011c0.01-0.438-0.171-0.78-0.58-0.85c-0.312-0.054-0.574,0.091-0.678,0.161c0.004-0.092,0.008-0.193,0.012-0.252
	c0.004-0.079,0.143-0.121,0.209-0.186c0.041-0.037,0-0.14,0-0.14s-0.35,0.153-0.338,0.304c0.004,0.072,0.004,0.174,0.004,0.262
	c-0.098-0.066-0.305-0.172-0.596-0.16c-0.4,0.021-0.663,0.314-0.654,0.752c0.006,0.605,0.545,1.119,0.92,1.119
	c0.094,0,0.168-0.014,0.227-0.027l-0.007,0.045l0.069-0.036l0.03,0.127l0.044-0.108l0.071,0.076v-0.076l0.095,0.029l-0.021-0.068
	c0.061,0.021,0.15,0.041,0.271,0.041C23.05,20.023,23.591,19.616,23.598,19.011z M21.527,19.439
	c-0.151-0.193-0.105-0.472-0.105-0.472s0.102,0.257,0.206,0.415s0.283,0.284,0.283,0.284S21.682,19.635,21.527,19.439z
	 M11.16,26.001c0.026,0.028,0.097-0.002,0.097-0.002s-0.109-0.244-0.215-0.235c-0.051,0.004-0.123,0.004-0.183,0.004
	c0.046-0.068,0.119-0.216,0.108-0.42c-0.013-0.281-0.222-0.468-0.53-0.461c-0.427,0.008-0.787,0.387-0.786,0.651
	c0,0.065,0.01,0.119,0.021,0.161l-0.031-0.006l0.023,0.048l-0.087,0.022l0.076,0.031L9.6,25.846h0.053l-0.02,0.066l0.048-0.016
	C9.667,25.938,9.652,26,9.652,26.085c0.002,0.267,0.29,0.646,0.718,0.647c0.308,0.004,0.549-0.123,0.596-0.412
	c0.037-0.221-0.064-0.402-0.115-0.478c0.065,0.003,0.137,0.007,0.177,0.009C11.083,25.855,11.114,25.953,11.16,26.001z
	 M10.102,25.348c-0.112,0.074-0.2,0.2-0.2,0.2s0.022-0.163,0.158-0.271c0.137-0.106,0.332-0.075,0.332-0.075
	S10.212,25.273,10.102,25.348z M27.034,25.785c-0.013-0.018-0.282-0.381-0.759-0.68c-0.51-0.322-1.047-0.442-1.599-0.363
	c-0.163-0.531-0.505-0.965-1.016-1.287c-0.476-0.301-0.921-0.387-0.938-0.389l-0.056-0.012l-0.177,0.281
	c-0.161-0.062-0.282-0.07-0.331,0.007c-0.259,0.409-1.829,2.9-1.829,2.9l2.135,1.346c0.033,0.113,0.115,0.224,0.235,0.3
	c0.12,0.074,0.255,0.103,0.37,0.084l2.082,1.312c0,0,1.738-2.756,1.828-2.9c0.041-0.062-0.006-0.15-0.107-0.252l0.191-0.304
	L27.034,25.785z M21.68,26.348c-0.242-0.152-0.479-0.25-0.709-0.293l1.774-2.814c0.13,0.031,0.473,0.131,0.829,0.355
	c0.47,0.295,0.783,0.691,0.939,1.178l-1.061,1.681l0.137-0.04l-0.706,1.121C22.755,27.352,22.29,26.732,21.68,26.348z
	 M25.092,28.654c-0.146-0.203-0.345-0.385-0.595-0.541c-0.612-0.387-1.343-0.518-1.563-0.551l0.705-1.119l0.024,0.141l1.06-1.682
	c0.504-0.067,0.998,0.045,1.467,0.341c0.355,0.224,0.596,0.491,0.68,0.595L25.092,28.654z M10.757,22.168
	c0-0.047-0.054-0.077-0.139-0.096l-0.002-0.221l-0.031-0.013c-0.013-0.004-0.272-0.103-0.619-0.101
	c-0.372,0.004-0.689,0.119-0.948,0.345c-0.262-0.222-0.583-0.331-0.954-0.328c-0.346,0.002-0.605,0.104-0.616,0.109l-0.031,0.014
	l0.002,0.204c-0.105,0.021-0.17,0.057-0.17,0.111c0.003,0.302,0.018,2.111,0.018,2.111l1.555-0.013
	c0.053,0.049,0.131,0.077,0.22,0.077c0.088,0,0.168-0.031,0.22-0.081l1.515-0.013C10.774,24.277,10.759,22.273,10.757,22.168z
	 M7.997,23.912c-0.176,0-0.33,0.029-0.464,0.084l-0.017-2.049c0.076-0.027,0.288-0.09,0.548-0.092
	c0.342-0.002,0.637,0.1,0.878,0.299l0.01,1.223l0.059-0.064l0.007,0.813C8.889,24.073,8.442,23.909,7.997,23.912z M10.044,23.891
	c-0.443,0.004-0.865,0.178-0.992,0.234l-0.008-0.812l0.061,0.062l-0.011-1.223c0.238-0.202,0.532-0.31,0.872-0.312
	c0.26-0.002,0.473,0.057,0.551,0.082l0.016,2.051C10.389,23.916,10.226,23.889,10.044,23.891z M25.688,15.93
	c0.442-0.774-0.114-1.93-1.242-2.574c-1.131-0.645-2.407-0.537-2.852,0.239c-0.251,0.438-0.188,1.024,0.165,1.577l-0.782,0.461
	l0.184,0.072c0.012,0.003,1.24,0.475,2.146,0.686C24.493,16.67,25.359,16.503,25.688,15.93z M21.414,15.596l0.615-0.363
	l-0.057-0.084c-0.361-0.517-0.44-1.063-0.214-1.459c0.392-0.686,1.552-0.76,2.589-0.168c1.038,0.592,1.564,1.632,1.174,2.315
	c-0.398,0.7-1.652,0.491-2.172,0.369C22.665,16.046,21.79,15.734,21.414,15.596z M8.772,26.211l0.239,0.098l-1.384,3.476
	l-0.239-0.095l0.062-0.156l-0.556-0.221l-0.035,0.084L6.39,29.209l0.158-0.398l0.471,0.187l-0.051,0.129l0.554,0.222l0.103-0.258
	L6.84,28.779l0.098-1.283l0.838-1.069l0.786,0.312L8.772,26.211z M5.51,26.139l0.013-0.037l-0.16-0.203
	c0.242-0.441,0.193-1-0.126-1.407c-0.405-0.517-1.771-1.409-2.336-0.968c-0.564,0.441-0.024,1.98,0.381,2.498
	c0.329,0.422,0.872,0.599,1.366,0.449l0.123,0.157c0.044,0.056,0.087,0.073,0.127,0.072l0.079,0.102l0.597-0.586L5.51,26.139z
	 M5.097,26.328L5.075,26.35L3.66,25.124C3.718,25.102,3.8,25.062,3.881,25c0.033-0.025,0.063-0.057,0.09-0.086
	c0.105-0.113,0.202-0.216,0.255-0.271l0.953,1.606L5.097,26.328z M5.318,26.126c-0.013,0.013-0.033,0.028-0.07,0.058l-0.004,0.004
	l-1.003-1.689l-0.04,0.043c0,0-0.137,0.143-0.296,0.314c-0.023,0.025-0.05,0.051-0.08,0.074c-0.128,0.102-0.263,0.133-0.266,0.135
	l-0.083,0.021l1.532,1.326L4.932,26.48c-0.012,0.012-0.022,0.021-0.033,0.028l-0.191-0.243l-0.059,0.021
	c-0.439,0.156-0.935,0.006-1.231-0.374C3.019,25.4,2.565,24.007,3.009,23.66c0.442-0.346,1.688,0.426,2.089,0.938
	c0.289,0.369,0.322,0.875,0.083,1.262L5.149,25.91L5.318,26.126z M5.707,26.458l-0.553,0.541l-0.029-0.021
	c-0.019-0.014-0.054-0.043-0.069-0.074l-0.038-0.047l0.599-0.588l0.029,0.039c0.044,0.058,0.056,0.075,0.062,0.086l0.022,0.029
	L5.707,26.458z M5.805,26.544c0.038,0.097,0.039,0.244-0.169,0.407l-0.004,0.004c-0.122,0.093-0.242,0.133-0.351,0.113l-0.084-0.016
	l0.583-0.57L5.805,26.544z M28.165,16.557c0.188-0.48,0.242-1.768-0.284-1.972c-0.529-0.205-1.354,0.783-1.54,1.265
	c-0.151,0.395-0.053,0.833,0.246,1.109l-0.056,0.146c-0.021,0.052-0.016,0.088,0.001,0.113l-0.036,0.094l0.639,0.168l0.025-0.072
	l0.029-0.006l0.074-0.191C27.66,17.195,28.02,16.939,28.165,16.557z M26.865,17.202l-0.022-0.005l0.259-1.452
	c0.039,0.031,0.099,0.069,0.174,0.1c0.031,0.012,0.062,0.021,0.094,0.027c0.119,0.025,0.229,0.048,0.287,0.062l-0.704,1.294
	L26.865,17.202z M27.217,17.07h-0.048l-0.076,0.203c-0.014-0.006-0.032-0.013-0.067-0.024l-0.004-0.002l0.74-1.36l-0.047-0.01
	c0,0-0.15-0.035-0.333-0.074c-0.026-0.006-0.053-0.014-0.082-0.023c-0.12-0.047-0.194-0.125-0.198-0.125l-0.047-0.05l-0.279,1.572
	l-0.078-0.021c-0.012-0.006-0.023-0.01-0.032-0.012l0.088-0.229l-0.038-0.031c-0.283-0.234-0.381-0.631-0.244-0.983
	c0.186-0.479,0.948-1.347,1.36-1.188c0.413,0.159,0.394,1.314,0.208,1.794C27.904,16.852,27.575,17.078,27.217,17.07z
	 M27.055,17.673l-0.031-0.002l-0.59-0.157l0.002-0.027c0.002-0.018,0.008-0.053,0.021-0.076l0.02-0.044l0.639,0.169L27.1,17.57
	c-0.019,0.051-0.026,0.068-0.033,0.076L27.055,17.673z M26.415,17.564l0.622,0.164l-0.032,0.043
	c-0.05,0.063-0.149,0.125-0.344,0.049l-0.004-0.002c-0.115-0.045-0.187-0.107-0.22-0.19L26.415,17.564z M14.263,24.811h-0.002
	l0.027,0.164l0.972,6.082l2.389-3.871l-3.476-2.934L14.263,24.811z M17.396,27.225l-2.017,3.265l-0.055-0.339l0.174-0.028
	l-0.018-0.106l-0.173,0.028l-0.025-0.159l0.295-0.047l-0.017-0.107l-0.296,0.049l-0.02-0.117l0.202-0.034l-0.019-0.106l-0.201,0.033
	l-0.025-0.16l0.294-0.049l-0.018-0.107l-0.294,0.048l-0.02-0.117l0.201-0.032l-0.017-0.109l-0.203,0.035l-0.022-0.148l0.294-0.049
	l-0.018-0.106l-0.294,0.048l-0.02-0.117l0.201-0.032l-0.018-0.107l-0.201,0.032l-0.027-0.159l0.297-0.049l-0.019-0.108l-0.295,0.049
	l-0.019-0.119l0.201-0.032l-0.018-0.106l-0.202,0.033l-0.022-0.145l0.005-0.002l-0.015-0.079l0.221-0.036l-0.018-0.107l-0.232,0.037
	l-0.019-0.115l0.139-0.024l-0.018-0.107l-0.14,0.023l-0.025-0.16l0.231-0.039l-0.017-0.106l-0.232,0.037l-0.018-0.117l0.137-0.021
	l-0.017-0.107l-0.138,0.022l-0.026-0.157l0.26-0.044l-0.019-0.106l-0.258,0.041l-0.019-0.115l0.165-0.026l-0.018-0.108l-0.165,0.027
	l-0.026-0.16l0.259-0.043l-0.018-0.106l-0.257,0.041l-0.02-0.117l0.162-0.026l-0.016-0.106l-0.164,0.024L14.631,25.9l0.258-0.041
	l-0.018-0.107l-0.257,0.042l-0.018-0.118l0.162-0.025l-0.019-0.108l-0.161,0.028l-0.026-0.162l0.256-0.041l-0.018-0.108L14.535,25.3
	l-0.018-0.116l0.161-0.025l-0.019-0.108l-0.161,0.025l-0.053-0.339L17.396,27.225z M16.664,27.378l-1.472-1.243l0.46,2.883
	L16.664,27.378z M16.413,27.417l-0.651,1.056l-0.298-1.854L16.413,27.417z M20.215,15.313l-0.211,0.266l-0.061,0.076l-2.295,2.882
	l2.672-0.505L20.215,15.313z M17.948,18.363l0.128-0.16l0.082,0.064l0.04-0.054l-0.081-0.063l0.059-0.074l0.141,0.111l0.039-0.052
	l-0.139-0.112l0.043-0.053l0.098,0.073l0.039-0.051L18.3,17.918l0.063-0.077l0.139,0.112l0.041-0.053l-0.141-0.109l0.043-0.057
	l0.098,0.076l0.041-0.053l-0.098-0.074l0.058-0.07l0.14,0.109l0.041-0.05l-0.141-0.11l0.044-0.057l0.097,0.075l0.039-0.052
	l-0.095-0.075l0.06-0.077l0.142,0.111l0.04-0.051l-0.141-0.111l0.045-0.057l0.096,0.076l0.04-0.052l-0.095-0.075l0.054-0.068
	l0.001,0.002l0.029-0.038l0.104,0.083l0.042-0.053l-0.111-0.088l0.045-0.055l0.066,0.051l0.039-0.05l-0.064-0.054l0.061-0.074
	l0.109,0.087l0.041-0.05l-0.109-0.088l0.044-0.057l0.065,0.051l0.039-0.051l-0.063-0.052l0.058-0.073l0.125,0.096l0.041-0.053
	l-0.125-0.097l0.045-0.055l0.08,0.063l0.038-0.053l-0.077-0.062l0.061-0.074l0.123,0.097l0.041-0.053l-0.123-0.097l0.045-0.056
	l0.076,0.062l0.041-0.051l-0.077-0.062l0.056-0.068l0.122,0.096l0.041-0.053l-0.121-0.096l0.043-0.055l0.078,0.06l0.039-0.05
	L19.8,16.019l0.062-0.074l0.121,0.096l0.041-0.051l-0.121-0.097l0.045-0.056l0.076,0.062l0.039-0.053l-0.076-0.06l0.128-0.161
	l0.092,2.309L17.948,18.363z M18.708,17.891l1.132-0.216l-0.046-1.151L18.708,17.891z M18.991,17.717l0.698-0.877l0.029,0.74
	L18.991,17.717z M27.887,19.557c0.026-0.037,0.024-0.088-0.006-0.117c-0.033-0.029-0.081-0.028-0.117,0l-0.002-0.002l-0.242,0.254
	l-0.125,0.132l-0.018,0.017l0.003,0.004c-0.021,0.037-0.019,0.082,0.011,0.109s0.074,0.027,0.109,0.005l1.955,1.862l0.074-0.079
	l0.135,0.128l0.221-0.23l-0.134-0.129l0.074-0.076l0.163-0.175l0.078-0.079l-1.176-0.988l-0.064,0.07l0.979,0.889l-0.117,0.123
	L27.887,19.557z M29.452,21.688l-1.884-1.795l0.254-0.266l1.883,1.794L29.452,21.688z M29.391,21.456l-0.659-0.628l0.122-0.127
	l0.658,0.627L29.391,21.456z M27.32,19.787l0.384-0.403l-0.782-0.587l-0.021,0.02l-0.146-0.084l-0.03,0.033l-0.186-0.135
	l-0.039,0.04l0.15,0.169l-0.034,0.037L26.705,19l-0.032,0.027L27.32,19.787z M26.93,18.919l0.633,0.478l-0.236,0.25l-0.521-0.608
	L26.93,18.919z M7.372,25.713l0.103-0.047l-0.698-1.364l-0.088,0.039l0.556,1.199l-0.156,0.067l-0.991-2.283
	c0.038-0.023,0.056-0.069,0.039-0.109c-0.018-0.038-0.063-0.057-0.108-0.045v-0.003l-0.322,0.14L5.54,23.379l-0.021,0.01
	l0.001,0.006c-0.033,0.024-0.049,0.066-0.033,0.104c0.017,0.039,0.058,0.057,0.1,0.047l1.076,2.477l0.101-0.045l0.074,0.17
	l0.294-0.125L7.058,25.85l0.098-0.041L7.372,25.713z M6.711,25.896l-1.037-2.385l0.336-0.146l1.037,2.385L6.711,25.896z
	 M6.741,25.662l-0.365-0.836l0.163-0.07l0.365,0.836L6.741,25.662z M5.485,23.316l0.511-0.221L5.503,22.25l-0.025,0.009
	l-0.102-0.133l-0.042,0.021L5.218,21.95l-0.054,0.021l0.073,0.217l-0.047,0.02l0.034,0.146l-0.04,0.015L5.485,23.316z M5.462,22.366
	L5.86,23.05l-0.316,0.14l-0.242-0.765L5.462,22.366z M19.482,23.078c0.349-0.223,0.449-0.684,0.228-1.031
	c-0.221-0.348-0.685-0.449-1.03-0.229c-0.348,0.223-0.449,0.685-0.229,1.031C18.674,23.198,19.137,23.3,19.482,23.078z
	 M18.889,22.146c0.168-0.105,0.389-0.06,0.495,0.108c0.106,0.166,0.058,0.39-0.108,0.496c-0.166,0.104-0.39,0.058-0.496-0.108
	S18.723,22.253,18.889,22.146z M17.534,21.413c0.221,0.345,0.684,0.448,1.03,0.228c0.347-0.222,0.449-0.686,0.229-1.033
	c-0.223-0.346-0.686-0.446-1.032-0.226C17.413,20.604,17.312,21.064,17.534,21.413z M17.971,20.708
	c0.166-0.106,0.389-0.058,0.494,0.11c0.107,0.166,0.059,0.388-0.109,0.494c-0.166,0.105-0.389,0.058-0.494-0.109
	C17.755,21.036,17.805,20.814,17.971,20.708z M21.66,21.508l-1.906-0.496l0.003-0.001l0.39-1.87l-0.74,0.471l-0.393,1.873
	l1.86,0.437L21.66,21.508z M19.562,21.391c-0.088,0.058-0.205,0.03-0.264-0.059c-0.057-0.09-0.031-0.207,0.059-0.264
	c0.088-0.058,0.207-0.031,0.263,0.059C19.678,21.217,19.65,21.333,19.562,21.391z M27.16,9.523c0,0.588,0.479,1.066,1.066,1.066
	c0.127,0,0.246-0.022,0.357-0.063l0.145,0.172l0.137-0.116l0.711,0.849l0.333-0.278l-0.711-0.847l0.108-0.093l-0.146-0.175
	c0.085-0.153,0.133-0.328,0.133-0.515c0-0.589-0.479-1.065-1.067-1.065S27.16,8.935,27.16,9.523z M28.848,9.523
	c0,0.343-0.275,0.621-0.621,0.621c-0.342,0-0.619-0.278-0.619-0.621c0-0.342,0.277-0.621,0.619-0.621
	C28.57,8.902,28.848,9.182,28.848,9.523z M4.851,28.688l-1.089,0.198l-0.026-0.141l-0.225,0.04c-0.09-0.148-0.22-0.276-0.381-0.367
	c-0.512-0.291-1.164-0.111-1.455,0.4c-0.29,0.51-0.11,1.162,0.401,1.453c0.511,0.291,1.163,0.109,1.454-0.4
	c0.063-0.11,0.102-0.227,0.122-0.344l0.22-0.041L3.84,29.312l1.089-0.198L4.851,28.688z M3.143,29.65
	c-0.169,0.298-0.548,0.401-0.847,0.232c-0.297-0.17-0.402-0.55-0.232-0.847c0.168-0.3,0.549-0.402,0.846-0.233
	C3.208,28.973,3.313,29.354,3.143,29.65z M18.4,25.562c0.143-0.018,0.281-0.069,0.404-0.16c0.391-0.283,0.479-0.832,0.195-1.225
	c-0.284-0.39-0.833-0.478-1.225-0.193c-0.392,0.285-0.479,0.834-0.193,1.225c0.061,0.084,0.133,0.152,0.215,0.207l-0.046,0.18
	l0.144,0.035l-0.223,0.88l0.346,0.089l0.222-0.883l0.114,0.026L18.4,25.562z M17.878,24.994c-0.164-0.229-0.114-0.547,0.113-0.715
	c0.228-0.162,0.549-0.111,0.713,0.113c0.165,0.229,0.114,0.549-0.112,0.715C18.363,25.271,18.044,25.223,17.878,24.994z
	 M13.889,25.113l0.065-0.063l-0.96-0.977c0.14-0.114,0.239-0.206,0.239-0.206l-0.171-0.277c0,0-0.126,0.119-0.295,0.254l-0.314-0.32
	l0.065-0.041l-0.38-0.621L11.911,23l-0.299-0.489l-0.24,0.147l0.297,0.488l-0.226,0.14l0.379,0.623l0.068-0.042l0.141,0.425
	c-0.196,0.088-0.359,0.149-0.359,0.149l0.171,0.276c0,0,0.126-0.047,0.292-0.116l0.434,1.297l0.084-0.029l0.04,0.113l0.053-0.02
	l0.017,0.048L12.793,26l-0.018-0.047l0.064-0.021L12.8,25.82l0.096-0.03l-0.441-1.343c0.046-0.025,0.092-0.053,0.135-0.076
	c0.042-0.025,0.083-0.055,0.125-0.083l0.993,1.004l0.071-0.069l0.088,0.09l0.049-0.045l0.034,0.035l0.022-0.021l-0.034-0.038
	l0.039-0.038L13.889,25.113z M11.862,23.785l-0.011,0.009l-0.295-0.479l0.556-0.34l0.293,0.479l-0.012,0.007l-0.221,0.137
	l-0.091,0.053L11.862,23.785z M12.108,24.257l-0.146-0.434l0.164-0.101l0.147,0.45C12.221,24.204,12.163,24.23,12.108,24.257z
	 M12.79,25.736l-0.169,0.057l-0.41-1.227c0.054-0.024,0.111-0.053,0.167-0.082L12.79,25.736z M12.419,24.092
	c-0.022,0.014-0.045,0.027-0.069,0.042l-0.105-0.319l0.236,0.238C12.46,24.066,12.439,24.078,12.419,24.092z M12.55,24.006
	l-0.332-0.338l0.161-0.102l0.322,0.326C12.652,23.932,12.602,23.969,12.55,24.006z M13.709,25.174l-0.926-0.935
	c0.051-0.037,0.1-0.075,0.146-0.112l0.907,0.922L13.709,25.174z M19.904,27.033c-0.891,0-1.613,0.725-1.613,1.613
	s0.725,1.611,1.613,1.611c0.89,0,1.613-0.724,1.613-1.611C21.518,27.758,20.794,27.033,19.904,27.033z M20.973,27.657
	c-0.158,0.073-0.509,0.253-0.887,0.532c-0.232-0.353,0.112-0.801,0.232-0.94C20.57,27.324,20.796,27.468,20.973,27.657z
	 M19.904,27.189c0.099,0,0.193,0.01,0.285,0.027c-0.155,0.193-0.463,0.655-0.197,1.043c-0.092,0.071-0.184,0.146-0.271,0.229
	c-0.023,0.021-0.046,0.041-0.066,0.062c-0.36-0.447-0.581-0.891-0.652-1.047C19.25,27.309,19.562,27.189,19.904,27.189z
	 M18.447,28.646c0-0.42,0.178-0.795,0.461-1.062c0.089,0.184,0.311,0.613,0.66,1.045c-0.086,0.082-0.166,0.159-0.24,0.237
	c-0.305-0.318-0.694-0.245-0.88-0.185C18.448,28.671,18.447,28.658,18.447,28.646z M18.736,29.516
	c-0.15-0.203-0.252-0.445-0.28-0.711c0.142-0.054,0.511-0.146,0.789,0.146C19.004,29.2,18.826,29.407,18.736,29.516z M19.457,30.032
	c-0.253-0.082-0.475-0.229-0.645-0.425c0.08-0.098,0.26-0.31,0.506-0.564C19.557,29.384,19.495,29.842,19.457,30.032z
	 M19.904,30.105c-0.115,0-0.228-0.018-0.336-0.043c0.047-0.207,0.117-0.719-0.168-1.104c0.076-0.077,0.156-0.155,0.242-0.237
	c0.03,0.036,0.062,0.072,0.094,0.109c0.445,0.486,0.865,0.852,1.033,0.986C20.525,29.997,20.229,30.105,19.904,30.105z
	 M21.361,28.646c0,0.437-0.193,0.828-0.5,1.097c-0.146-0.123-0.58-0.489-1.037-0.992c-0.032-0.036-0.064-0.073-0.098-0.108
	c0.023-0.022,0.047-0.045,0.071-0.066c0.089-0.081,0.179-0.153,0.269-0.225c0.222,0.228,0.58,0.283,0.875,0.283
	c0.174,0,0.326-0.019,0.418-0.033C21.359,28.616,21.361,28.632,21.361,28.646z M21.352,28.482c-0.213,0.035-0.871,0.108-1.19-0.203
	c0.396-0.291,0.758-0.471,0.89-0.53C21.214,27.955,21.32,28.208,21.352,28.482z M28.534,13.797c0,0.691,0.563,1.255,1.255,1.255
	s1.255-0.562,1.255-1.255c0-0.693-0.563-1.256-1.255-1.256S28.534,13.104,28.534,13.797z M28.654,13.797
	c0-0.326,0.139-0.619,0.359-0.827c0.068,0.144,0.24,0.479,0.514,0.814c-0.065,0.063-0.129,0.124-0.188,0.183
	c-0.234-0.246-0.54-0.188-0.686-0.143C28.656,13.814,28.654,13.807,28.654,13.797z M28.882,14.472
	c-0.118-0.157-0.196-0.347-0.219-0.552c0.11-0.042,0.396-0.114,0.612,0.113C29.089,14.229,28.95,14.389,28.882,14.472z
	 M29.439,14.874c-0.195-0.063-0.367-0.18-0.5-0.329c0.062-0.077,0.201-0.24,0.396-0.441C29.52,14.369,29.473,14.726,29.439,14.874z
	 M29.789,14.931c-0.09,0-0.178-0.012-0.26-0.032c0.035-0.16,0.09-0.559-0.131-0.861c0.059-0.059,0.121-0.119,0.188-0.184
	c0.023,0.028,0.049,0.058,0.074,0.085c0.346,0.381,0.673,0.662,0.802,0.769C30.273,14.848,30.042,14.931,29.789,14.931z
	 M30.924,13.797c0,0.34-0.15,0.645-0.389,0.854c-0.116-0.096-0.452-0.382-0.809-0.772c-0.025-0.028-0.051-0.058-0.074-0.085
	c0.019-0.019,0.035-0.034,0.056-0.053c0.067-0.063,0.14-0.12,0.207-0.175c0.173,0.178,0.451,0.223,0.683,0.223
	c0.135,0,0.254-0.017,0.324-0.026C30.923,13.773,30.924,13.785,30.924,13.797z M30.682,13.098c0.127,0.162,0.211,0.357,0.233,0.572
	c-0.167,0.026-0.679,0.084-0.927-0.159C30.296,13.284,30.579,13.145,30.682,13.098z M30.619,13.026
	c-0.122,0.058-0.396,0.196-0.688,0.415c-0.182-0.273,0.086-0.625,0.178-0.733C30.309,12.768,30.482,12.879,30.619,13.026z
	 M29.857,13.497c-0.07,0.054-0.142,0.112-0.211,0.177c-0.02,0.017-0.035,0.032-0.054,0.048c-0.28-0.349-0.45-0.692-0.508-0.814
	c0.194-0.152,0.437-0.245,0.703-0.245c0.077,0,0.151,0.008,0.224,0.021C29.891,12.835,29.65,13.193,29.857,13.497z M28.07,24.631
	c0.197,0.371,0.402,0.555,0.402,0.555v0.109c0,0,0.066,0.006,0.09,0c-0.004,0.303-0.188,0.332-0.188,0.332v0.139H28.25v0.058h-0.064
	l-0.053,0.153h-0.189v0.162h1.468v-0.162h-0.154l-0.05-0.153h-0.066v-0.058h-0.125v-0.139c0,0-0.184-0.029-0.188-0.332
	c0.021,0.006,0.087,0,0.087,0v-0.109c0,0,0.222-0.192,0.421-0.588c0.021,0,0.049,0.002,0.082,0.002c0.152,0,0.419-0.023,0.589-0.174
	c0.097-0.088,0.149-0.205,0.149-0.351c0.002-0.16,0.027-0.337,0.053-0.511c0.057-0.398,0.109-0.776-0.17-0.854
	c-0.328-0.088-0.561,0.292-0.615,0.396h-0.725h-0.01h-0.76c-0.08-0.135-0.297-0.439-0.595-0.36
	c-0.278,0.075-0.226,0.455-0.169,0.854c0.023,0.172,0.051,0.349,0.051,0.51c0.002,0.145,0.053,0.261,0.151,0.351
	c0.169,0.147,0.437,0.173,0.59,0.173C28.021,24.636,28.064,24.632,28.07,24.631z M29.641,23.557
	c-0.117-0.082-0.177-0.098-0.214-0.289c0.089,0,0.132,0,0.132,0V23.17c0.053-0.091,0.23-0.371,0.441-0.312
	c0.152,0.041,0.107,0.354,0.061,0.687c-0.024,0.179-0.051,0.36-0.053,0.532c-0.002,0.101-0.033,0.179-0.102,0.238
	c-0.137,0.123-0.374,0.138-0.502,0.137C29.51,24.212,29.602,23.915,29.641,23.557z M27.365,24.111c0-0.17-0.026-0.354-0.051-0.531
	c-0.049-0.331-0.096-0.646,0.059-0.688c0.251-0.068,0.452,0.332,0.457,0.342v0.031c0,0,0.044,0,0.132,0
	c-0.037,0.192-0.096,0.209-0.214,0.289c0.043,0.379,0.143,0.688,0.252,0.932c-0.115,0.004-0.385-0.002-0.532-0.135
	C27.398,24.29,27.367,24.212,27.365,24.111z M28.587,28.488l-0.002,0.017l0.046,0.086l-0.091-0.014l-0.017-0.002
	c-0.082,0-0.267,0.212-0.348,0.397c-0.091,0.215-0.066,0.405,0.07,0.549c0.008,0.01,0.016,0.017,0.023,0.023l-0.092,0.089
	l-0.107-0.104l-0.062,0.066l0.105,0.102l-0.689,0.667l0.288-0.104l0.487-0.48l0.076,0.074l0.063-0.062l-0.077-0.074l0.104-0.101
	c0.09,0.051,0.193,0.077,0.311,0.077c0.258,0,0.524-0.131,0.579-0.215c0.017-0.028,0.017-0.052,0.013-0.065l-0.008-0.069
	l0.063,0.031l0.03,0.006c0.056,0,0.133,0,0.729-1.152c0.287-0.556,0.56-1.117,0.562-1.123l0.084-0.176l-0.166,0.1
	C30.104,27.307,28.604,28.23,28.587,28.488z M29.354,29.257l-0.229-0.11l0.028,0.274c-0.043,0.047-0.258,0.156-0.477,0.156
	c-0.085,0-0.158-0.019-0.222-0.05l0.002-0.004l1.099-1.205l-0.018-0.017l-1.163,1.144l-0.019,0.018
	c-0.008-0.007-0.019-0.013-0.025-0.021c-0.079-0.082-0.107-0.188-0.082-0.311c0.043-0.209,0.227-0.404,0.279-0.439l0.313,0.054
	l-0.135-0.261c0.052-0.129,0.624-0.539,1.296-0.971v0.241l0.203-0.024C29.826,28.488,29.462,29.159,29.354,29.257z M30.248,27.648
	l-0.166,0.019v-0.203c0.122-0.075,0.247-0.155,0.373-0.231C30.387,27.371,30.316,27.512,30.248,27.648z M11.764,27.186l0.139,0.109
	c-0.104,0.13-0.446,0.547-0.584,0.73c-0.033,0.039-0.242,0.097-0.411,0.142c-0.105,0.028-0.223,0.062-0.344,0.099
	c-0.357,0.108-0.745,0.267-0.911,0.332l-0.045,0.02c-0.168,0.066-0.304,0.234-0.331,0.408c-0.02,0.132,0.023,0.25,0.125,0.328
	l2.127,1.703c0.1,0.082,0.223,0.098,0.348,0.049c0.163-0.062,0.299-0.231,0.326-0.412l0.009-0.047
	c0.028-0.176,0.097-0.588,0.126-0.963c0.011-0.125,0.015-0.246,0.02-0.355c0.008-0.174,0.017-0.391,0.049-0.432
	c0.148-0.174,0.482-0.599,0.584-0.73l0.105,0.085l0.147-0.187l-1.331-1.065L11.764,27.186z M12.807,28.082
	c-0.126,0.16-0.418,0.531-0.551,0.688c-0.071,0.082-0.082,0.246-0.095,0.551c-0.005,0.106-0.01,0.227-0.02,0.35
	c-0.029,0.365-0.096,0.771-0.124,0.945l-0.008,0.047c-0.019,0.111-0.106,0.225-0.205,0.263c-0.058,0.022-0.108,0.017-0.155-0.021
	L9.523,29.2c-0.044-0.034-0.062-0.084-0.054-0.146c0.017-0.104,0.106-0.215,0.212-0.257l0.044-0.019
	c0.163-0.064,0.545-0.219,0.896-0.326c0.118-0.037,0.232-0.068,0.336-0.098c0.295-0.078,0.452-0.123,0.519-0.213
	c0.121-0.162,0.42-0.527,0.549-0.688L12.807,28.082z M10.519,28.577l1.522,1.22c-0.002,0.051-0.003,0.105-0.009,0.161
	c-0.017,0.219-0.058,0.462-0.074,0.565l-0.004,0.027c-0.018,0.105-0.096,0.205-0.193,0.243c-0.072,0.028-0.146,0.017-0.204-0.03
	l-0.13-0.104l-0.498-0.396l-0.623-0.5l-0.493-0.396l-0.134-0.106c-0.058-0.047-0.085-0.115-0.073-0.191
	c0.015-0.102,0.095-0.201,0.195-0.241l0.026-0.011c0.096-0.039,0.324-0.133,0.535-0.196C10.418,28.605,10.469,28.59,10.519,28.577z
	 M22.384,29.836c-0.001,0.012-0.002,0.023-0.002,0.035c0,0.011,0.001,0.021,0.002,0.033h-0.077v-0.068H22.384z M22.947,29.305
	c-0.012,0-0.022,0.002-0.033,0.004v-0.08h0.066v0.08C22.971,29.307,22.958,29.305,22.947,29.305z M23.51,29.836h0.08v0.068h-0.08
	c0.001-0.012,0.004-0.022,0.004-0.033C23.514,29.859,23.511,29.848,23.51,29.836z M22.947,30.436c0.011,0,0.021,0,0.033,0v0.078
	h-0.066v-0.078C22.925,30.436,22.936,30.436,22.947,30.436z M22.973,29.836h0.317v0.068h-0.367v-0.537h0.05V29.836z M24.08,29.096
	c0,0.17-0.091,0.318-0.227,0.4c-0.111-0.294-0.371-0.518-0.684-0.584c0.071-0.17,0.24-0.29,0.436-0.29
	C23.868,28.622,24.08,28.834,24.08,29.096z M22.038,29.496c-0.136-0.082-0.226-0.23-0.226-0.4c0-0.262,0.211-0.474,0.473-0.474
	c0.197,0,0.367,0.12,0.438,0.29C22.407,28.979,22.148,29.202,22.038,29.496z M22.947,28.939c-0.514,0-0.934,0.416-0.934,0.932
	c0,0.306,0.149,0.578,0.379,0.748l-0.149,0.328h0.139l0.113-0.264c0.135,0.075,0.288,0.119,0.452,0.119
	c0.154,0,0.3-0.037,0.429-0.104l0.108,0.249h0.141l-0.145-0.313c0.24-0.169,0.398-0.448,0.398-0.763
	C23.88,29.355,23.461,28.939,22.947,28.939z M22.934,30.545c-0.064,0-0.129-0.008-0.188-0.025c-0.274-0.088-0.476-0.345-0.476-0.647
	c0-0.375,0.304-0.681,0.679-0.681c0.257,0,0.479,0.146,0.597,0.354c0.049,0.095,0.075,0.201,0.075,0.313
	C23.619,30.236,23.312,30.545,22.934,30.545z M26.836,11.148c-0.275-0.678-1.05-1.004-1.729-0.729
	c-0.143,0.059-0.229,0.113-0.35,0.218c-0.229,0.198,0.465,0.475,0.256,0.8s-0.74-0.24-0.731,0.28
	c0.034,0.224,0.038,0.29,0.096,0.433c0.276,0.679,1.052,1.005,1.729,0.729C26.786,12.603,27.113,11.828,26.836,11.148z
	 M24.956,12.45c-0.12,0.049-0.263-0.025-0.32-0.167c-0.057-0.141-0.006-0.292,0.112-0.342c0.119-0.048,0.264,0.026,0.32,0.166
	C25.126,12.248,25.075,12.401,24.956,12.45z M26.557,12.254c-0.119,0.049-0.262-0.024-0.318-0.166
	c-0.057-0.14-0.006-0.292,0.113-0.342c0.119-0.048,0.262,0.026,0.318,0.166C26.729,12.053,26.677,12.206,26.557,12.254z
	 M26.396,11.06c0.121-0.05,0.263,0.026,0.319,0.166c0.056,0.14,0.007,0.294-0.112,0.343c-0.119,0.048-0.264-0.026-0.319-0.166
	C26.227,11.262,26.277,11.108,26.396,11.06z M25.303,10.502c0.119-0.048,0.262,0.026,0.319,0.166
	c0.058,0.141,0.006,0.293-0.112,0.342c-0.119,0.049-0.263-0.025-0.32-0.166C25.133,10.704,25.184,10.551,25.303,10.502z
	 M25.531,12.807c-0.118,0.049-0.262-0.026-0.319-0.166c-0.056-0.141-0.006-0.293,0.114-0.341c0.117-0.048,0.263,0.025,0.318,0.166
	C25.701,12.604,25.65,12.759,25.531,12.807z M25.921,10.597c0.119-0.049,0.263,0.025,0.319,0.167
	c0.057,0.139,0.007,0.292-0.113,0.342c-0.118,0.047-0.262-0.026-0.318-0.166C25.752,10.798,25.803,10.645,25.921,10.597z
	 M25.811,12.559c-0.058-0.14-0.006-0.294,0.112-0.342c0.12-0.049,0.263,0.024,0.318,0.166c0.058,0.141,0.008,0.292-0.11,0.342
	C26.01,12.773,25.866,12.699,25.811,12.559z M2.756,26.445c0.021-0.16,0.015-0.266-0.019-0.43c-0.064-0.308-0.669,0.178-0.857-0.179
	c-0.189-0.354,0.597-0.545,0.119-0.808c-0.222-0.084-0.284-0.113-0.44-0.133C0.8,24.8,0.107,25.337,0.011,26.096
	c-0.095,0.758,0.441,1.448,1.199,1.545C1.967,27.736,2.66,27.201,2.756,26.445z M0.14,26.195c0.016-0.135,0.157-0.228,0.314-0.206
	c0.156,0.02,0.271,0.146,0.254,0.276c-0.017,0.133-0.158,0.226-0.313,0.205C0.236,26.451,0.123,26.329,0.14,26.195z M0.602,27.102
	c-0.157-0.02-0.269-0.145-0.254-0.276c0.019-0.136,0.158-0.226,0.316-0.206c0.155,0.02,0.269,0.145,0.251,0.275
	C0.898,27.027,0.758,27.12,0.602,27.102z M0.622,25.886c-0.154-0.019-0.268-0.143-0.252-0.276c0.018-0.131,0.159-0.225,0.316-0.203
	c0.154,0.019,0.268,0.143,0.251,0.275S0.78,25.907,0.622,25.886z M1.201,27.495c-0.156-0.021-0.269-0.146-0.253-0.278
	c0.018-0.133,0.157-0.225,0.312-0.206c0.158,0.021,0.271,0.146,0.254,0.278C1.499,27.421,1.358,27.514,1.201,27.495z M1.243,25.546
	c-0.156-0.021-0.271-0.144-0.254-0.276c0.018-0.135,0.159-0.227,0.314-0.205c0.156,0.019,0.27,0.144,0.253,0.274
	C1.539,25.475,1.399,25.566,1.243,25.546z M1.865,27.299c-0.157-0.021-0.269-0.146-0.252-0.277c0.017-0.133,0.157-0.228,0.313-0.205
	c0.157,0.021,0.27,0.146,0.253,0.275C2.161,27.229,2.021,27.316,1.865,27.299z M2.015,26.507c0.017-0.133,0.158-0.224,0.314-0.204
	c0.156,0.02,0.269,0.145,0.252,0.276c-0.018,0.134-0.156,0.226-0.313,0.205C2.111,26.766,1.998,26.641,2.015,26.507z M0.812,20.708
	l1.484,0.508l0.55-0.487v0.646c0,0-0.137,0.087-0.315,0.202C2.352,21.689,2.2,21.939,2.2,21.939s-0.498-0.299-0.792-0.402
	c-0.293-0.1-0.595,0.005-0.595,0.005H0.812V20.708z M0.243,20.438L0,20.361l1.53-0.898l1.946,0.561l-1.198,1.068l-1.88-0.603v0.633
	h0.115v0.454H0.135v-0.454h0.108V20.438z M29.514,18.391c-0.438,0-0.934,0.104-0.934,0.104V18.08c0,0,0.459-0.256,0.927-0.256
	s0.94,0.249,0.94,0.249v0.421C30.447,18.494,29.953,18.391,29.514,18.391z M30.971,17.957l0.187-0.1l-0.187-0.104v-0.048
	c0,0,0.053-0.265-0.244-0.127c-0.016,0.008-0.023,0.017-0.026,0.024l-1.226-0.68l-1.608,0.922l0.606,0.274v-0.089
	c0,0,0.512-0.287,1.033-0.287c0.523,0,1.049,0.279,1.049,0.279v0.156l0.336-0.181c0,0.207,0,0.449,0,0.522h-0.111v0.26l0.147-0.104
	l0.165,0.104v-0.26h-0.121V17.957z M30.891,17.662c0,0.007,0,0.021,0,0.049l-0.099-0.055C30.827,17.632,30.891,17.6,30.891,17.662z
	 M30.855,17.947c-0.043,0-0.078-0.036-0.078-0.077c0-0.045,0.035-0.079,0.078-0.079s0.078,0.034,0.078,0.079
	C30.936,17.911,30.898,17.947,30.855,17.947z M25.579,19.518l-0.151,0.168v-0.002l-1.384,1.506c-0.01-0.147-0.075-0.293-0.192-0.399
	c-0.246-0.226-0.629-0.209-0.854,0.035c-0.227,0.247-0.211,0.63,0.035,0.856c0.224,0.203,0.561,0.209,0.79,0.023l0.005,0.005
	l1.433-1.56l1.447,0.91l-1.019,1.106c-0.012-0.149-0.076-0.292-0.193-0.399c-0.246-0.227-0.629-0.209-0.855,0.034
	c-0.226,0.248-0.209,0.63,0.037,0.855c0.225,0.207,0.562,0.211,0.791,0.024l0.006,0.004l1.609-1.754l0.01,0.008l0.273-0.306
	L25.579,19.518z M26.782,20.979l-1.446-0.91l0.135-0.146l1.447,0.906L26.782,20.979z M16.266,22.783
	c-0.192,0.088-0.279,0.316-0.19,0.51c0.089,0.193,0.317,0.28,0.512,0.189c0.175-0.08,0.263-0.275,0.21-0.457l0.003-0.002
	l-0.628-1.377l0.004-0.006l-0.109-0.234l-1.099,0.771l0.061,0.13l0.539,1.183c-0.089-0.029-0.188-0.028-0.282,0.016
	c-0.192,0.088-0.278,0.315-0.189,0.511c0.088,0.193,0.315,0.278,0.511,0.19c0.175-0.081,0.263-0.276,0.209-0.458l0.004-0.002
	L15.26,22.52l0.891-0.621l0.396,0.871C16.458,22.738,16.355,22.74,16.266,22.783z M15.229,22.455l-0.052-0.113l0.891-0.625
	l0.054,0.116L15.229,22.455z M13.526,21.841L0.021,18.338l0.486-1.873l12.286,3.188L25.816,3.224L24.367,2.47L28.566,0l0.39,4.856
	l-1.392-0.723L13.526,21.841z"/>
</svg>
