<?xml version="1.0" encoding="iso-8859-1"?>
<!-- Generator: Adobe Illustrator 16.0.0, SVG Export Plug-In . SVG Version: 6.00 Build 0)  -->
<!DOCTYPE svg PUBLIC "-//W3C//DTD SVG 1.1//EN" "http://www.w3.org/Graphics/SVG/1.1/DTD/svg11.dtd">
<svg version="1.1" id="Layer_1" xmlns="http://www.w3.org/2000/svg" xmlns:xlink="http://www.w3.org/1999/xlink" x="0px" y="0px"
	 width="18.515px" height="31.838px" viewBox="0 0 18.515 31.838" style="enable-background:new 0 0 18.515 31.838;"
	 xml:space="preserve">
<g>
	<circle cx="7.706" cy="4.483" r="4.483"/>
	<path d="M16.623,19.79v-1.055h-0.35v-0.891l0.181-0.067l-4.758-7.639l-0.018-0.003v-0.053L9.343,9.639L7.688,11.62L5.981,9.639
		L5.315,9.764l-2.02,0.375L0,19.058l2.31,0.787l1.095-3.673l0.031,2.194l0.086,1.674h0.284l-0.009,1.967l-0.145,8.168H3.058v1.663
		h0.583h3.224h0.601v-1.663H6.864l-0.01-8.368l1.5-0.017l-0.049,8.385H7.71v1.663h0.583h3.225h0.6v-1.663h-0.6L11.45,22.04l-0.101-2
		h0.233l0.083-1.674l-0.067-4.225l2.566,4.494l0.59-0.221v0.32h-0.288v1.055h-1.892v5.773h5.938V19.79H16.623z M15.005,18.321
		l1.018-0.383v0.797h-1.018V18.321z M15.621,24.523c-0.99,0-1.793-0.803-1.793-1.794s0.803-1.793,1.793-1.793
		c0.991,0,1.794,0.802,1.794,1.793S16.611,24.523,15.621,24.523z"/>
	<polygon points="15.591,21.479 15.425,21.479 15.425,22.843 15.425,22.926 15.425,23.009 16.872,23.009 16.872,22.843 
		15.591,22.843 	"/>
</g>
<g>
</g>
<g>
</g>
<g>
</g>
<g>
</g>
<g>
</g>
<g>
</g>
<g>
</g>
<g>
</g>
<g>
</g>
<g>
</g>
<g>
</g>
<g>
</g>
<g>
</g>
<g>
</g>
<g>
</g>
</svg>
