<?xml version="1.0" encoding="iso-8859-1"?>
<!-- Generator: Adobe Illustrator 16.0.0, SVG Export Plug-In . SVG Version: 6.00 Build 0)  -->
<!DOCTYPE svg PUBLIC "-//W3C//DTD SVG 1.1//EN" "http://www.w3.org/Graphics/SVG/1.1/DTD/svg11.dtd">
<svg version="1.1" id="Layer_1" xmlns="http://www.w3.org/2000/svg" xmlns:xlink="http://www.w3.org/1999/xlink" x="0px" y="0px"
	 width="18.063px" height="31.838px" viewBox="0 0 18.063 31.838" style="enable-background:new 0 0 18.063 31.838;"
	 xml:space="preserve">
<g>
	<path d="M14.657,18.366l0.004-2.248l1.113,3.551l2.289-0.858l-3.376-8.672l-0.018-0.003l-2.1-0.446l0.001,0.227l0.002,0.502h-0.312
		l-0.002,0.383h-0.497h-0.398L10.68,11.62l-0.706-0.819H8.97H8.491l-0.017-0.383H8.27l-0.122-0.322L8.039,9.813l-1.5,0.279
		l-0.001-0.005l-0.089,0.021l-0.162,0.03v0.009l-2.503,0.607l3.561-1.616V9.014V7.496V7.43V6.996h0.206h0.294h0.27V6.574V5.981
		l0.584,0.1c0.009,0.002,0.858,0.146,1.622,0.146c0.766,0,1.645-0.145,1.653-0.146l0.579-0.096l0.003,0.587l0.009,1.975
		c1.54-0.71,2.615-2.258,2.615-4.064C15.18,2.007,13.173,0,10.697,0C8.223,0,6.216,2.007,6.216,4.482c0,0.97,0.331,1.849,0.857,2.58
		L0,10.589l0.242,1.024l-0.021,0.006l0.423,1.577l5.699-0.603l0.171,7.446h0.284l-0.009,1.967l-0.145,8.168H6.049v1.663h0.583h3.224
		h0.601v-1.663H9.855l-0.01-8.368l1.5-0.017l-0.049,8.385h-0.596v1.663h0.583h3.225h0.6v-1.663h-0.6l-0.067-8.135l-0.101-2h0.233
		L14.657,18.366z M10.552,4.629c0.025-0.137,0.07-0.186,0.106-0.275l0.115-0.202c0.01-0.067,0.048-0.124,0.058-0.194
		c0.025-0.138,0.055-0.283,0.052-0.412c0.013-0.258,0.015-0.455,0.015-0.455s0.147,0.134,0.261,0.403
		c0.049,0.136,0.108,0.304,0.11,0.501c0.002,0.098-0.018,0.208-0.039,0.313c-0.032,0.087-0.125,0.253-0.127,0.274
		c-0.034,0.072-0.106,0.171-0.098,0.215c-0.007,0.052-0.039,0.1-0.042,0.181c-0.024,0.14-0.046,0.292-0.044,0.42
		c-0.012,0.261-0.021,0.458-0.021,0.458s-0.143-0.139-0.255-0.405c-0.048-0.134-0.116-0.297-0.119-0.491
		C10.513,4.87,10.521,4.749,10.552,4.629z M9.247,4.629c0.025-0.137,0.07-0.186,0.106-0.275l0.115-0.202
		c0.01-0.067,0.048-0.124,0.058-0.194c0.025-0.138,0.055-0.283,0.052-0.412C9.591,3.287,9.593,3.09,9.593,3.09
		S9.74,3.224,9.854,3.493c0.049,0.136,0.108,0.304,0.11,0.501c0.002,0.098-0.018,0.208-0.039,0.313
		C9.893,4.395,9.8,4.561,9.798,4.582C9.764,4.654,9.691,4.753,9.7,4.797c-0.007,0.052-0.039,0.1-0.042,0.181
		c-0.024,0.14-0.046,0.292-0.044,0.42C9.603,5.658,9.593,5.855,9.593,5.855S9.45,5.717,9.338,5.45
		C9.29,5.316,9.222,5.153,9.219,4.959C9.208,4.87,9.216,4.749,9.247,4.629z"/>
	<path d="M12.056,6.574h-0.003c0,0-0.916,0.152-1.733,0.152c-0.818,0-1.705-0.152-1.705-0.152H8.611v0.922H7.845H7.842l0.003,1.563
		l0.449,0.027l0.317,0.832h0.003H8.95l0.017,0.383H8.97h0.573h2.217l0.002-0.383h0.307l-0.006-1.187
		c0.001-0.001,0.002-0.001,0.003-0.001L12.056,6.574z"/>
</g>
<g>
</g>
<g>
</g>
<g>
</g>
<g>
</g>
<g>
</g>
<g>
</g>
<g>
</g>
<g>
</g>
<g>
</g>
<g>
</g>
<g>
</g>
<g>
</g>
<g>
</g>
<g>
</g>
<g>
</g>
</svg>
