<?xml version="1.0" encoding="utf-8"?>
<!-- Generator: Adobe Illustrator 16.0.4, SVG Export Plug-In . SVG Version: 6.00 Build 0)  -->
<!DOCTYPE svg PUBLIC "-//W3C//DTD SVG 1.1//EN" "http://www.w3.org/Graphics/SVG/1.1/DTD/svg11.dtd">
<svg version="1.1" id="Layer_1" xmlns="http://www.w3.org/2000/svg" xmlns:xlink="http://www.w3.org/1999/xlink" x="0px" y="0px"
	 width="25.865px" height="29.744px" viewBox="0 0 25.865 29.744" enable-background="new 0 0 25.865 29.744" xml:space="preserve">
<path d="M17.438,5.832h2.596v0.912h-2.596V5.832z M5.678,12.644c-0.069,0.736,0.485,1.39,1.236,1.459
	c0.751,0.07,1.416-0.47,1.484-1.207c0.068-0.736-0.485-1.39-1.236-1.46C6.411,11.367,5.746,11.907,5.678,12.644z M14.175,27.071
	c-0.751-0.07-1.416,0.471-1.484,1.207c-0.068,0.736,0.486,1.39,1.238,1.459c0.752,0.07,1.416-0.471,1.484-1.207
	S14.927,27.141,14.175,27.071z M19.3,25.784c-0.752-0.069-1.416,0.472-1.484,1.209c-0.068,0.736,0.486,1.391,1.238,1.46
	c0.751,0.069,1.416-0.472,1.484-1.208C20.606,26.508,20.052,25.854,19.3,25.784z M21.278,15.024
	c-0.068,0.737,0.485,1.389,1.236,1.459c0.751,0.069,1.416-0.471,1.483-1.208c0.068-0.737-0.485-1.39-1.236-1.459
	C22.011,13.747,21.347,14.288,21.278,15.024z M17.12,12.535c-0.068,0.736,0.486,1.389,1.238,1.458s1.416-0.47,1.484-1.206
	s-0.485-1.389-1.237-1.459S17.188,11.799,17.12,12.535z M2.938,17.137c0.812,0.075,1.531-0.51,1.604-1.307s-0.525-1.503-1.337-1.579
	c-0.812-0.075-1.531,0.51-1.604,1.307S2.126,17.062,2.938,17.137z M2.949,20.782c0.073-0.796-0.526-1.502-1.338-1.576
	s-1.53,0.51-1.603,1.306c-0.073,0.796,0.526,1.501,1.338,1.576C2.158,22.163,2.875,21.578,2.949,20.782z M3.854,24.291
	c-0.813-0.075-1.532,0.509-1.605,1.304c-0.074,0.797,0.525,1.502,1.338,1.578c0.812,0.075,1.531-0.508,1.605-1.305
	C5.265,25.073,4.666,24.366,3.854,24.291z M8.895,26.638c-0.812-0.074-1.53,0.511-1.604,1.308s0.525,1.504,1.337,1.579
	c0.812,0.074,1.53-0.51,1.604-1.307S9.707,26.714,8.895,26.638z M23.539,22.585c-0.813-0.076-1.532,0.51-1.606,1.307
	c-0.073,0.797,0.526,1.504,1.34,1.578c0.813,0.076,1.533-0.51,1.606-1.307S24.353,22.659,23.539,22.585z M24.763,17.735
	c-0.789-0.207-1.598,0.252-1.804,1.024c-0.207,0.773,0.265,1.566,1.054,1.773c0.789,0.206,1.598-0.255,1.805-1.028
	C26.022,18.733,25.552,17.938,24.763,17.735z M12.375,5.442c0.986,0,1.786-0.784,1.786-1.751c0-0.967-0.8-1.751-1.786-1.751
	s-1.786,0.784-1.786,1.751C10.589,4.658,11.389,5.442,12.375,5.442z M10.89,7.863H4.333V0h17.466v7.863h-7.493l-0.092,1.465h-0.113
	v0.398v0.295l-0.381,1.903h0.377v0.551H12.67v-0.551h0.152v-0.178v-0.079v-1.646h-0.449v1.646v0.079v0.197h0.109v0.552h-1.363
	v-0.552h0.36l-0.385-1.923V9.725V9.328H11l-0.033-0.653L10.89,7.863z M10.83,7.23l-0.027-0.286L7.36,5.285l0.423-0.843l3.01,1.452
	l1.1-0.141l0.659,0.775l0.681-0.775l1.603-0.12l2.72-1.31l0.405,0.765l-3.582,1.565L14.344,7.23h6.812V0.632H4.978V7.23H10.83z
	 M21.952,20.108c0-3.244-3.984-5.874-8.899-5.874c-4.915,0-8.899,2.629-8.899,5.874c0,3.243,3.984,5.873,8.899,5.873
	C17.968,25.981,21.952,23.352,21.952,20.108z"/>
</svg>
