<?xml version="1.0" encoding="iso-8859-1"?>
<!-- Generator: Adobe Illustrator 16.0.0, SVG Export Plug-In . SVG Version: 6.00 Build 0)  -->
<!DOCTYPE svg PUBLIC "-//W3C//DTD SVG 1.1//EN" "http://www.w3.org/Graphics/SVG/1.1/DTD/svg11.dtd">
<svg version="1.1" id="Layer_1" xmlns="http://www.w3.org/2000/svg" xmlns:xlink="http://www.w3.org/1999/xlink" x="0px" y="0px"
	 width="31.661px" height="29.68px" viewBox="0 0 31.661 29.68" style="enable-background:new 0 0 31.661 29.68;"
	 xml:space="preserve">
<g>
	<path d="M1.938,4.023l0.595,0.176C2.5,4.309,2.465,4.418,2.446,4.533C2.411,4.746,2.391,4.967,2.391,5.188
		c0,2.193,1.778,3.97,3.971,3.97c2.191,0,3.969-1.776,3.969-3.97c0-0.361-0.068-0.704-0.163-1.036l0.412-0.129V1.143h0.942v2.044
		H11.05v1.727h1.467V3.187h-0.315V1.143h0.577V0.26H0v0.883h1.938V4.023z"/>
	<path d="M31.661,0.934V0H18.175v0.934h2.046v3.039l0.255,0.076c-0.343,0.938-0.324,1.75-0.324,1.75l0.268,4.378l-5.076-2.122
		l-0.014,0.033l-0.014-0.033l-5.117,2.1v-0.009l-1.871-0.39c0,0-0.543,1.668-2.037,1.756c-1.495,0.086-2.061-1.756-2.061-1.756
		l-2.604,0.605l-0.221,7.125h1.363l0.072,1.481h0.207v0.902v0.669v7.066H2.775c0,0-0.557,0.101-1.592,0.344
		c-1.036,0.246,0,1.469,0,1.469h4.707v-1.636v-0.177v-7.066h1l0.762,3.038l-0.762,4.028v0.177v1.636h4.705c0,0,1.031-1.244,0-1.469
		c-1.03-0.224-1.593-0.344-1.593-0.344H9.729l0.75-3.964l-0.75-3.103V19.87v-0.902h0.255l0.001-1.643l0.156-5.241l5.183-2.128
		l5.593,2.34l1.092,1.479c0.377,1.275,0.732,2.451,0.732,2.451l-1.011,6.136h2.209v6.33c-0.79,0.012-1.278,0.137-1.278,0.49
		c0,0.375,0.769,0.498,0.769,0.498h0.51h1.219h0.062c0,0,0-0.267,0-0.469c0-0.073-0.021-0.145-0.062-0.21v-6.64h0.565l0.536,3.285
		l-0.574,3.267c-0.099,0.085-0.141,0.187-0.141,0.298c0,0.202,0,0.469,0,0.469h0.058h1.229h0.502c0,0,0.771-0.123,0.771-0.498
		c0-0.342-0.455-0.466-1.19-0.488l0.476-3.047l-0.453-3.285H28.9l-1.415-6.233c0,0,0.203-1.351,0.451-2.772l0.727,5.287l1.563-0.144
		l-0.819-7.414c0.089-0.647,0.203-1.635,0.248-2.647c0.038-0.893,0.122-2.785-0.487-4.41l0.172-0.055V0.934h0.994v2.154h-0.495
		v1.824h1.545V3.088h-0.329V0.934H31.661z M26.146,9.459v1.388h0.006l0.505,0.239l-1.58,2.846l-1.547-2.934l0.395-0.1V9.419
		c-1.618-0.506-2.794-2.016-2.794-3.8c0-0.132,0.008-0.262,0.021-0.392c0.463-0.03,1.414-0.112,2.356-0.288l1.411,0.414l2.128-0.664
		c0.697,0.635,1.567,1.271,2.021,1.337C28.9,7.684,27.715,9.037,26.146,9.459z"/>
</g>
<g>
</g>
<g>
</g>
<g>
</g>
<g>
</g>
<g>
</g>
<g>
</g>
<g>
</g>
<g>
</g>
<g>
</g>
<g>
</g>
<g>
</g>
<g>
</g>
<g>
</g>
<g>
</g>
<g>
</g>
</svg>
