<?xml version="1.0" encoding="iso-8859-1"?>
<!-- Generator: Adobe Illustrator 16.0.0, SVG Export Plug-In . SVG Version: 6.00 Build 0)  -->
<!DOCTYPE svg PUBLIC "-//W3C//DTD SVG 1.1//EN" "http://www.w3.org/Graphics/SVG/1.1/DTD/svg11.dtd">
<svg version="1.1" id="Layer_1" xmlns="http://www.w3.org/2000/svg" xmlns:xlink="http://www.w3.org/1999/xlink" x="0px" y="0px"
	 width="31.813px" height="25.67px" viewBox="0 0 31.813 25.67" style="enable-background:new 0 0 31.813 25.67;"
	 xml:space="preserve">
<g>
	<polygon points="23.739,15.167 23.347,15.179 23.331,14.966 23.395,14.993 23.548,14.976 23.532,14.78 23.107,14.785 
		22.991,14.632 22.997,14.55 22.45,14.058 22.314,14.164 23.098,15.12 23.208,15.157 23.208,15.209 23.061,15.209 23.098,15.328 
		24.058,15.37 	"/>
	<polygon points="24.356,14.667 24.422,14.625 24.422,14.1 24.356,14.073 24.324,13.909 24.228,13.909 24.166,14.074 24.093,14.14 
		23.537,14.442 23.537,14.74 23.722,14.985 24.19,14.985 24.25,14.833 24.356,14.738 	"/>
	<polygon points="24.768,14.625 24.487,14.734 24.492,14.796 24.422,14.796 24.422,15.185 24.564,15.185 24.544,14.937 
		24.655,14.978 24.655,15.152 24.772,15.143 	"/>
	<polygon points="26.947,17.402 27.134,16.978 27.057,16.664 26.771,16.419 26.748,15.951 26.561,15.628 26.391,15.619 
		26.321,16.206 25.998,16.182 25.905,16.127 25.896,15.895 26.066,15.93 26.211,15.789 25.902,15.603 25.54,15.603 25.28,15.973 
		25.175,15.973 25.175,15.856 24.861,15.879 24.367,16.441 24.105,16.446 23.813,16.646 23.794,17.518 23.616,17.689 23.616,17.842 
		24.468,17.55 25.156,17.523 25.41,18.084 26.193,18.111 	"/>
	<polygon points="26.013,18.423 26.019,18.254 25.774,18.228 25.514,18.516 25.79,18.545 	"/>
	<polygon points="26.641,18.577 26.641,18.708 26.928,18.665 27.63,18.235 27.827,18.104 28.039,18.011 28.254,17.89 28.175,17.75 
		28.06,17.773 28.057,17.513 27.845,17.526 27.817,17.933 27.631,18.06 27.286,18.107 26.734,18.5 	"/>
	<polygon points="26.002,14.849 25.823,14.854 25.838,14.668 25.667,14.568 25.427,14.81 25.589,15.009 25.94,15.059 26.135,15.162 
		26.141,15.258 26.012,15.258 26.019,15.455 26.443,15.428 26.597,15.263 26.764,15.247 26.764,15.55 27.05,15.55 27.05,15.428 
		26.905,15.428 26.88,15.059 26.193,14.748 	"/>
	<polygon points="20.903,13.967 20.97,14.148 21.211,14.058 21.236,13.808 21.043,13.77 	"/>
	<polygon points="18.065,16.071 17.736,16.028 17.736,16.284 17.854,16.421 17.764,16.56 17.63,16.713 17.63,16.995 17.813,17.171 
		17.977,16.906 18.3,16.433 18.454,15.688 18.258,15.688 	"/>
	<polygon points="24.838,15.286 24.729,15.286 24.729,15.344 24.813,15.37 	"/>
	<rect x="24.228" y="15.37" width="0.129" height="0.071"/>
	<polygon points="24.539,15.44 24.618,15.44 24.618,15.379 24.677,15.37 24.677,15.309 24.55,15.309 24.497,15.37 24.422,15.44 
		24.422,15.502 24.539,15.491 	"/>
	<polygon points="24.866,15.497 24.994,15.497 24.994,15.43 25.082,15.44 25.071,15.328 24.926,15.35 24.912,15.423 24.75,15.44 
		24.742,15.44 24.742,15.552 24.866,15.552 	"/>
	<path d="M5.26,9.787L5.086,9.76c0,0.01,0.015,0.195,0.027,0.195s0.119,0,0.119,0L5.26,9.787z"/>
	<polygon points="13.906,9.795 13.92,9.899 13.767,9.93 13.744,10.15 13.932,10.15 14.179,10.127 14.307,9.975 14.17,9.922 
		14.095,9.837 13.983,9.658 13.932,9.401 13.721,9.444 13.662,9.534 13.662,9.635 13.763,9.706 	"/>
	<polygon points="13.729,9.88 13.739,9.741 13.617,9.689 13.445,9.728 13.317,9.932 13.317,10.066 13.466,10.066 	"/>
	<path d="M22.548,13.917l0.757,0.726l0.04-0.128l-0.615-0.876l0.064-0.255l0.324,0.368l0.181,0.019l0.238-0.158l-0.039-0.239
		l-0.394-0.316l-0.016-0.287l0.112-0.151l0.198,0.063l-0.015,0.135l0.113,0.175l0.101-0.072l-0.056-0.207l0.558-0.2l0.244-0.204
		l-0.038-0.369l-0.484-0.51l-0.009-0.415h0.215l0.67,0.51l0.189-0.05l-0.127-0.164l-0.358-0.218l0.022-0.325l0.425,0.001
		l0.034-0.402l-0.162-0.212l0.097-0.104l0.206,0.208l0.067-0.088l-0.268-0.303L24.165,9.79l-0.088-0.176l0.191-0.271l0.15,0.113
		l0.455,0.039l0.573-0.382l0.095,0.119l-0.128,0.2V9.63l0.527,0.43l0.167-0.087l-0.063-0.287l-0.375-0.35l0.494-0.033V9.16
		l0.238-0.048l-0.182-0.126l0.007-0.097L26.73,8.97l0.095-0.081l-0.678-0.286l-2.469-0.127l-0.23-0.117L23.08,8.303l-0.274-0.009
		l-0.251,0.253L22.45,8.539l-0.333-0.247h-0.98L20.683,8.02l-0.91,0.057l-0.69,0.311l0.004,0.358L18.873,8.81l-0.048-0.359
		l-0.08-0.124l-0.237-0.059l-0.056,0.215l0.07,0.176l-0.85-0.056L17.268,8.79l-0.062-0.177l-0.102,0.026L17.03,8.836l-0.212,0.166
		L16.3,8.988l-0.024-0.115l0.543-0.023l0.11-0.095l-0.653-0.304l-0.796,0.024l-0.446,0.228l-0.168,0.299L14.57,9.117l-0.124,0.136
		l0.028,0.157l0.153,0.021l0.093,0.23l0.26-0.106l0.046,0.307h-0.082L14.73,9.83l-0.239,0.04l-0.23,0.326l-0.332,0.053l-0.047,0.282
		l0.141,0.033l-0.04,0.182l-0.33-0.065l-0.301,0.065l-0.063,0.168l0.051,0.352l0.179,0.083l0.295-0.001l0.201-0.019l0.061-0.16
		l0.313-0.405l0.206,0.042l0.202-0.183l0.038,0.143l0.498,0.337l-0.061,0.082l-0.225-0.013l0.085,0.123l0.14,0.03l0.162-0.067
		l-0.003-0.196l0.073-0.036l-0.059-0.062l-0.333-0.185l-0.086-0.248h0.275l0.088,0.087l0.239,0.206l0.009,0.249l0.248,0.263
		l0.092-0.36l0.171-0.094l0.032,0.295l0.167,0.184l0.504-0.008l0.149,0.111v0.264l-0.183,0.167h-0.511l-0.311-0.232l-0.326,0.033
		v0.199h-0.104l-0.112-0.08l-0.565-0.144v-0.366l-0.719,0.056l-0.222,0.119h-0.284l-0.14-0.014l-0.346,0.192v0.361l-0.707,0.511
		l0.06,0.217h0.142l-0.036,0.207l-0.101,0.038l-0.005,0.542l0.609,0.695h0.266l0.018-0.042h0.477l0.138-0.127h0.271l0.149,0.149
		l0.404,0.041l-0.053,0.538l0.448,0.792l-0.236,0.451l0.016,0.212l0.188,0.186v0.512l0.243,0.328v0.425h0.723l0.543-0.557
		l0.17-0.303l0.217-0.048v-0.254l0.144-0.17l0.302-0.416l-0.063-0.631l-0.133-0.234l0.596-0.57l0.655-0.939l-0.125-0.059
		l-0.682,0.143l-0.177-0.087l-0.717-1.351l0.05-0.059l0.712,0.863l0.017,0.267l0.163,0.165l0.337-0.021l0.697-0.506l0.22-0.143
		l-0.003-0.176l-0.234-0.029c0,0-0.819-0.386-0.819-0.403c0-0.018,0.005-0.331,0.005-0.331h0.181l0.027,0.228l0.379,0.219
		l0.434,0.021l0.939,0.154l0.221,0.139v0.215l-0.028,0.293l0.483,0.792l0.154,0.037l0.156-0.226l0.085-0.642l0.161-0.345
		l0.259-0.097l0.456,0.044l0.575,0.51V13.917z M15.937,8.873l-0.315,0.194v0.127l0.178,0.083l0.014,0.172l-0.254,0.376L15.12,9.821
		l-0.027-0.09l0.274-0.14l0.003-0.52l0.465-0.326h0.102V8.873z M16.912,11.088l-0.414-0.018l-0.123,0.018v-0.282l0.093-0.105
		l0.1-0.031l0.22-0.025l0.047-0.075l0.091,0.044l0.012,0.258l0.241,0.099l0.02,0.118H16.912z M18.5,11.29l-0.073,0.069l-0.167-0.013
		l-0.032-0.05l-0.263-0.02l0.019-0.084l0.14-0.12v-0.101l-0.267-0.193l-0.012-0.248l0.055-0.121l0.215-0.02l0.183,0.077l0.009,0.128
		l-0.262-0.015l-0.013,0.118l0.327,0.217v0.16l0.142,0.103V11.29z"/>
	<path d="M10.153,10.563H9.97v0.095h0.044c0,0,0.003,0.02,0.006,0.046l0.113-0.01l0.067-0.042l0.021-0.089l0.09-0.007l0.036-0.075
		l-0.084-0.018l-0.071,0.002L10.153,10.563z"/>
	<polygon points="9.711,10.73 9.846,10.719 9.857,10.626 9.777,10.563 9.719,10.638 	"/>
	<path d="M11.458,14.828l-0.563-0.005l-0.447-0.17l-0.021-0.318l-0.149-0.261l-0.402-0.005l-0.234-0.367l-0.207-0.1l-0.011,0.11
		l-0.377,0.023l-0.139-0.192l-0.394-0.08L8.19,13.837l-0.509-0.086l-0.037-0.575l-0.373-0.064l0.149-0.281l-0.043-0.162L6.89,12.996
		l-0.308-0.037l-0.111-0.241l0.068-0.249l0.17-0.312l0.39-0.198h0.755l-0.002,0.23l0.271,0.125l-0.022-0.393l0.195-0.196
		l0.395-0.259l0.025-0.182l0.395-0.409l0.419-0.231l-0.038-0.03l0.283-0.267l0.104,0.027l0.048,0.06l0.107-0.12l0.025-0.012
		l-0.116-0.016l-0.12-0.04v-0.116l0.063-0.052h0.141l0.064,0.028l0.055,0.111l0.067-0.01V10.2l0.021,0.006l0.195-0.031l0.027-0.096
		l0.11,0.028v0.103l-0.103,0.072l0.016,0.115l0.355,0.109c0,0,0.001,0.002,0.001,0.004l0.081-0.007l0.006-0.153l-0.281-0.128
		l-0.017-0.075l0.234-0.08l0.009-0.222l-0.243-0.149L10.609,9.32l-0.337,0.164H10.15l0.032-0.287L9.729,9.089L9.539,9.231v0.436
		L9.2,9.773l-0.136,0.284L8.917,10.08V9.718L8.599,9.673L8.44,9.57L8.375,9.336l0.571-0.334l0.278-0.085l0.027,0.187l0.156-0.008
		L9.42,9.002l0.162-0.023l0.002-0.032L9.516,8.917L9.499,8.818l0.199-0.017l0.121-0.126l0.008-0.009v0.001l0.037-0.038l0.421-0.053
		l0.185,0.158L9.982,8.993l0.62,0.146l0.079-0.208h0.272l0.095-0.18l-0.19-0.048V8.475l-0.601-0.266L9.844,8.257L9.609,8.379
		l0.017,0.298L9.382,8.639L9.345,8.475l0.231-0.213L9.154,8.241L9.031,8.277L8.977,8.421l0.16,0.027l-0.032,0.16L8.834,8.624
		L8.792,8.729L8.397,8.74c0,0-0.009-0.223-0.025-0.223c-0.016,0,0.308-0.005,0.308-0.005l0.234-0.229L8.786,8.219l-0.17,0.166
		L8.334,8.369L8.165,8.135H7.804L7.426,8.417h0.346l0.032,0.101L7.713,8.603l0.383,0.011l0.059,0.138L7.724,8.735L7.702,8.629
		L7.432,8.57L7.288,8.491L6.651,8.497L6.454,8.688L6.321,8.677L6.172,8.591l-0.44-0.132H4.924L4.457,8.777L4.144,8.825L4,8.937
		L4.223,8.97v0.089H3.746L3.56,9.192l0.238,0.202L4.451,9.4l0.091-0.097h0.546l0.197,0.175L5.274,9.75L5.44,9.904l-0.139,0.099
		l0.031,0.358l-0.493,0.6v0.563l0.265,0.128v0.505l0.257,0.435l0.205,0.031l0.026-0.149L5.35,12.098l-0.048-0.366h0.144l0.061,0.377
		l0.354,0.515L5.766,12.79l0.226,0.344l0.559,0.138v-0.09l0.223,0.031l-0.021,0.16l0.175,0.031l0.271,0.075l0.383,0.436l0.489,0.036
		l0.047,0.399l-0.335,0.234l-0.016,0.355l-0.047,0.218l0.483,0.605l0.037,0.207c0,0,0.176,0.048,0.196,0.048
		c0.021,0,0.394,0.282,0.394,0.282v1.093l0.133,0.039L8.87,17.935l0.224,0.297l-0.04,0.5l0.294,0.519l0.379,0.33l0.379,0.007
		l0.038-0.121l-0.279-0.236l0.017-0.117l0.051-0.144l0.011-0.145L9.753,18.82L9.656,18.7l0.159-0.152l0.021-0.114L9.66,18.385
		l0.01-0.106l0.25-0.038l0.38-0.182l0.128-0.234l0.398-0.511l-0.09-0.398l0.122-0.213l0.366,0.011l0.246-0.194l0.08-0.77
		l0.273-0.348l0.049-0.223l-0.25-0.08L11.458,14.828z M8.571,10.901l-0.093,0.091H8.275l0.032-0.138l0.096-0.01l0.021-0.047
		l0.146-0.02V10.901z M8.618,10.65l-0.095,0.062l-0.12,0.021c0,0,0-0.19,0-0.21h0.215V10.65z M8.8,10.503l0.099,0.06l-0.079,0.065
		l-0.076-0.065L8.8,10.503z M8.671,10.662h0.016l0.244,0.071v0.125H8.726l-0.055-0.08V10.662z M8.512,10.319l0.132,0.12
		l-0.132,0.032V10.319z M7.953,10.339l0.184-0.076h0.252v0.076h0.055v0.132H8.06l-0.142-0.039L7.953,10.339z M7.918,10.682
		l0.146-0.159h0.211l-0.271,0.378l-0.112-0.06L7.918,10.682z M7.723,9.782l0.15,0.035l-0.051,0.204l-0.164,0.052L7.556,9.861
		L7.723,9.782z M6.966,8.818V8.806h0.14l0.012-0.048h0.229v0.1L7.28,8.945H6.966V8.818z M7.188,9.129c0,0,0.14-0.025,0.151-0.025
		s0,0.14,0,0.14l-0.314,0.02l-0.06-0.071L7.188,9.129z"/>
	<path d="M22.471,4.687L16.813,1c0.005-0.039,0.012-0.076,0.012-0.116C16.825,0.396,16.429,0,15.94,0
		c-0.487,0-0.884,0.396-0.884,0.884c0,0.045,0.008,0.088,0.014,0.132L9.437,4.687H0v17.737v1.229v2.017h31.813v-2.017v-1.229V4.687
		H22.471z M15.371,1.554c0.154,0.131,0.352,0.214,0.569,0.214c0.225,0,0.426-0.086,0.583-0.224l4.82,3.143h-10.78L15.371,1.554z
		 M30.582,24.441H1.229v-0.788h29.353V24.441z M1.229,22.424V5.917h29.353v16.507H1.229z"/>
	<rect x="25.583" y="20.726" width="4.154" height="0.794"/>
	<rect x="2.03" y="19.404" width="4.154" height="0.794"/>
	<rect x="2.03" y="17.989" width="4.154" height="0.794"/>
	<rect x="2.03" y="20.726" width="4.154" height="0.794"/>
</g>
<g>
</g>
<g>
</g>
<g>
</g>
<g>
</g>
<g>
</g>
<g>
</g>
<g>
</g>
<g>
</g>
<g>
</g>
<g>
</g>
<g>
</g>
<g>
</g>
<g>
</g>
<g>
</g>
<g>
</g>
</svg>
