<?xml version="1.0" encoding="iso-8859-1"?>
<!-- Generator: Adobe Illustrator 16.0.0, SVG Export Plug-In . SVG Version: 6.00 Build 0)  -->
<!DOCTYPE svg PUBLIC "-//W3C//DTD SVG 1.1//EN" "http://www.w3.org/Graphics/SVG/1.1/DTD/svg11.dtd">
<svg version="1.1" id="Layer_1" xmlns="http://www.w3.org/2000/svg" xmlns:xlink="http://www.w3.org/1999/xlink" x="0px" y="0px"
	 width="23.949px" height="27.787px" viewBox="0 0 23.949 27.787" style="enable-background:new 0 0 23.949 27.787;"
	 xml:space="preserve">
<g>
	<path d="M23,12.196v-1.509l-0.217-0.085c-0.075-0.028-1.847-0.718-4.212-0.718c-2.533,0-4.715,0.772-6.491,2.295
		c-1.776-1.522-3.958-2.295-6.491-2.295c-2.365,0-4.138,0.689-4.212,0.719l-0.217,0.084v1.398C0.445,12.22,0,12.46,0,12.852
		c0,2.037,0,14.399,0,14.399h10.604c0.367,0.328,0.903,0.536,1.503,0.536s1.137-0.208,1.503-0.536h10.338c0,0,0-13.685,0-14.399
		C23.949,12.532,23.588,12.324,23,12.196z M11.967,26.115c-0.881-0.362-3.913-1.516-6.95-1.516c-1.201,0-2.263,0.184-3.169,0.547
		V11.165c0.529-0.177,1.969-0.593,3.743-0.593c2.332,0,4.336,0.704,5.972,2.08v8.345l0.404-0.443V26.115z M22.315,25.15
		c-0.973-0.391-2.09-0.589-3.327-0.589c-3.035,0-5.924,1.163-6.792,1.546v-5.554l0.404,0.443v-8.345
		c1.636-1.376,3.641-2.08,5.973-2.08c1.768,0,3.213,0.416,3.743,0.593V25.15z"/>
	<path d="M6.045,3.614l1.104,3.915l2.03-0.571L7.265,0.161l-1.602,0.45c0.066,0.286,0.066,0.54,0,0.766
		C5.596,1.602,5.485,1.799,5.328,1.966C5.171,2.133,4.983,2.274,4.762,2.389c-0.22,0.115-0.455,0.203-0.704,0.269l0.396,1.404
		L6.045,3.614z"/>
	<path d="M21.435,6l-3.128-0.647l0.002-0.01c0.365-0.131,0.747-0.254,1.143-0.363c0.396-0.11,0.767-0.252,1.111-0.417
		c0.345-0.169,0.646-0.383,0.901-0.647c0.255-0.266,0.428-0.621,0.521-1.063c0.075-0.364,0.073-0.696-0.005-1.001
		c-0.079-0.303-0.224-0.568-0.435-0.8c-0.212-0.229-0.482-0.426-0.811-0.587c-0.33-0.16-0.703-0.285-1.12-0.371
		c-0.463-0.096-0.896-0.119-1.297-0.062c-0.402,0.055-0.758,0.183-1.069,0.385c-0.311,0.201-0.567,0.475-0.77,0.817
		c-0.203,0.347-0.339,0.762-0.412,1.242l1.867,0.388c0.075-0.428,0.217-0.756,0.427-0.986c0.209-0.228,0.514-0.301,0.911-0.22
		c0.231,0.049,0.416,0.151,0.552,0.305c0.137,0.158,0.173,0.396,0.107,0.712c-0.026,0.127-0.081,0.232-0.165,0.318
		c-0.083,0.088-0.181,0.16-0.294,0.22c-0.112,0.06-0.229,0.11-0.353,0.153c-0.123,0.046-0.233,0.084-0.33,0.118
		c-0.247,0.088-0.499,0.177-0.759,0.264c-0.259,0.088-0.513,0.184-0.759,0.288c-0.245,0.106-0.48,0.224-0.705,0.355
		c-0.225,0.133-0.43,0.286-0.617,0.453c-0.22,0.196-0.404,0.427-0.553,0.694c-0.148,0.268-0.247,0.569-0.297,0.91l5.989,1.24
		L21.435,6z"/>
	<polygon points="11.007,8.906 12.437,7.477 13.856,8.906 14.962,7.812 13.533,6.381 14.962,4.94 13.866,3.846 12.437,5.285 
		11.007,3.854 9.911,4.951 11.341,6.381 9.911,7.812 	"/>
</g>
<g>
</g>
<g>
</g>
<g>
</g>
<g>
</g>
<g>
</g>
<g>
</g>
<g>
</g>
<g>
</g>
<g>
</g>
<g>
</g>
<g>
</g>
<g>
</g>
<g>
</g>
<g>
</g>
<g>
</g>
</svg>
