<?xml version="1.0" encoding="utf-8"?>
<!-- Generator: Adobe Illustrator 16.0.4, SVG Export Plug-In . SVG Version: 6.00 Build 0)  -->
<!DOCTYPE svg PUBLIC "-//W3C//DTD SVG 1.1//EN" "http://www.w3.org/Graphics/SVG/1.1/DTD/svg11.dtd">
<svg version="1.1" id="Layer_1" xmlns="http://www.w3.org/2000/svg" xmlns:xlink="http://www.w3.org/1999/xlink" x="0px" y="0px"
	 width="29.936px" height="25.75px" viewBox="0 0 29.936 25.75" enable-background="new 0 0 29.936 25.75" xml:space="preserve">
<path d="M29.535,0H0.399H0v1.324v15.583v1.258h0.398h10.511L7.149,25.75h2.899l1.289-2.615h6.72l1.287,2.615h2.931l-3.787-7.584
	h11.048h0.399v-1.258V1.324V0H29.535z M12.291,21.201l1.496-3.035h1.817l1.497,3.035H12.291z M29.535,16.906H0.399V1.324h0.891V1.29
	h27.355v0.034h0.891V16.906z M23.847,12.573l4.44,2.378l-0.761,1.421l-4.441-2.378L23.847,12.573z M5.928,10.4h2.367v0.806H4.62
	c0-0.269,0.042-0.502,0.125-0.701c0.084-0.198,0.197-0.374,0.34-0.531c0.143-0.157,0.311-0.301,0.504-0.432
	C5.782,9.409,5.986,9.275,6.2,9.139C6.31,9.068,6.427,8.997,6.551,8.924C6.675,8.851,6.787,8.77,6.89,8.683
	c0.104-0.087,0.188-0.187,0.256-0.297C7.216,8.277,7.25,8.15,7.25,8.009c0-0.22-0.069-0.394-0.21-0.521
	C6.899,7.36,6.72,7.296,6.5,7.296c-0.151,0-0.279,0.033-0.379,0.099C6.021,7.461,5.94,7.544,5.879,7.645
	C5.816,7.746,5.771,7.86,5.746,7.986c-0.025,0.125-0.039,0.25-0.039,0.373H4.734C4.725,8.095,4.759,7.85,4.834,7.623
	c0.077-0.227,0.189-0.425,0.344-0.594C5.33,6.858,5.522,6.727,5.753,6.632C5.985,6.537,6.25,6.49,6.551,6.49
	c0.228,0,0.447,0.032,0.653,0.099C7.412,6.655,7.595,6.75,7.752,6.873c0.157,0.124,0.281,0.274,0.374,0.456
	c0.093,0.18,0.139,0.382,0.139,0.607c0,0.172-0.022,0.327-0.07,0.466C8.147,8.541,8.083,8.665,8.002,8.775
	C7.921,8.886,7.826,8.987,7.72,9.08C7.612,9.172,7.496,9.257,7.373,9.338C7.248,9.416,7.121,9.495,6.99,9.572
	C6.859,9.648,6.73,9.729,6.604,9.812C6.477,9.896,6.356,9.985,6.24,10.08C6.123,10.175,6.02,10.282,5.928,10.4z M10.977,9.185h1.421
	v0.706h-1.421v1.316h-0.766V9.891H8.789V9.185h1.422V7.871h0.766V9.185z M16.343,9.102c0.158,0.192,0.237,0.418,0.237,0.677
	c0,0.242-0.053,0.457-0.154,0.647c-0.102,0.189-0.241,0.349-0.411,0.475c-0.172,0.128-0.37,0.226-0.595,0.294
	c-0.222,0.069-0.456,0.103-0.699,0.103c-0.283,0-0.538-0.037-0.769-0.112c-0.232-0.075-0.43-0.185-0.591-0.331
	c-0.162-0.145-0.287-0.322-0.376-0.532c-0.088-0.208-0.13-0.445-0.125-0.709h0.967c0.003,0.128,0.025,0.247,0.062,0.357
	c0.038,0.11,0.094,0.205,0.165,0.288c0.072,0.081,0.162,0.146,0.269,0.194c0.107,0.048,0.235,0.072,0.383,0.072
	c0.228,0,0.422-0.065,0.579-0.198c0.156-0.133,0.234-0.308,0.234-0.529c0-0.175-0.036-0.31-0.11-0.402
	c-0.072-0.092-0.167-0.159-0.281-0.201c-0.114-0.043-0.239-0.066-0.375-0.073s-0.267-0.01-0.391-0.01V8.45
	c0.11,0.009,0.227,0.009,0.352,0c0.123-0.008,0.24-0.033,0.346-0.075c0.109-0.043,0.196-0.103,0.266-0.182
	c0.068-0.08,0.104-0.186,0.104-0.318c0-0.198-0.073-0.35-0.215-0.456c-0.144-0.106-0.307-0.159-0.493-0.159
	c-0.258,0-0.452,0.079-0.582,0.235c-0.131,0.156-0.195,0.353-0.19,0.591h-0.965c0.011-0.238,0.057-0.455,0.14-0.651
	c0.084-0.195,0.201-0.363,0.35-0.505c0.15-0.141,0.331-0.25,0.541-0.327s0.443-0.115,0.701-0.115c0.2,0,0.401,0.027,0.6,0.083
	c0.2,0.055,0.381,0.137,0.54,0.248c0.161,0.11,0.289,0.244,0.391,0.403c0.099,0.158,0.148,0.341,0.148,0.549
	c0,0.22-0.058,0.416-0.175,0.591c-0.116,0.174-0.292,0.291-0.524,0.353v0.014C15.971,8.786,16.185,8.91,16.343,9.102z M17.053,8.478
	h3.611v0.707h-3.611V8.478z M17.053,9.891h3.611v0.707h-3.611V9.891z M23.7,11.179c-0.225,0.084-0.463,0.124-0.717,0.119
	c-0.241,0-0.474-0.03-0.695-0.092c-0.223-0.062-0.419-0.154-0.59-0.277c-0.173-0.123-0.31-0.275-0.41-0.459
	c-0.104-0.183-0.157-0.395-0.162-0.637h1.015c0.025,0.207,0.112,0.374,0.262,0.502c0.15,0.128,0.338,0.191,0.562,0.191
	c0.132,0,0.253-0.024,0.356-0.072c0.104-0.048,0.194-0.114,0.271-0.198c0.076-0.084,0.135-0.18,0.175-0.287
	c0.041-0.108,0.062-0.22,0.062-0.334c0-0.119-0.019-0.231-0.058-0.337S23.677,9.1,23.6,9.021c-0.076-0.08-0.169-0.142-0.274-0.186
	c-0.106-0.044-0.228-0.066-0.36-0.066c-0.181,0-0.329,0.03-0.443,0.089c-0.114,0.06-0.221,0.153-0.321,0.281h-0.915l0.492-2.557
	h2.797v0.773h-2.066l-0.2,1.05l0.016,0.013c0.138-0.128,0.285-0.218,0.442-0.274c0.157-0.055,0.335-0.082,0.536-0.082
	c0.247,0,0.466,0.042,0.657,0.125c0.189,0.084,0.351,0.196,0.481,0.337s0.233,0.307,0.301,0.5c0.069,0.191,0.104,0.394,0.104,0.61
	c0,0.239-0.049,0.459-0.149,0.664c-0.1,0.205-0.234,0.383-0.404,0.532C24.123,10.979,23.927,11.096,23.7,11.179z"/>
</svg>
