<?xml version="1.0" encoding="iso-8859-1"?>
<!-- Generator: Adobe Illustrator 16.0.0, SVG Export Plug-In . SVG Version: 6.00 Build 0)  -->
<!DOCTYPE svg PUBLIC "-//W3C//DTD SVG 1.1//EN" "http://www.w3.org/Graphics/SVG/1.1/DTD/svg11.dtd">
<svg version="1.1" id="Layer_1" xmlns="http://www.w3.org/2000/svg" xmlns:xlink="http://www.w3.org/1999/xlink" x="0px" y="0px"
	 width="31.85px" height="30.239px" viewBox="0 0 31.85 30.239" style="enable-background:new 0 0 31.85 30.239;"
	 xml:space="preserve">
<g>
	<path d="M13.301,11.633l0.441,0.485V3.018c1.784-1.5,3.97-2.269,6.513-2.269c1.928,0,3.504,0.455,4.082,0.646V8.74h1.783
		c0-2.822,0-5.206,0-5.505c0-0.348-0.393-0.575-1.034-0.714V0.875l-0.237-0.094C24.768,0.75,22.833,0,20.254,0
		c-2.762,0-5.142,0.842-7.078,2.501C11.239,0.842,8.86,0,6.098,0c-2.58,0-4.513,0.75-4.593,0.782L1.267,0.875v1.524
		C0.486,2.545,0,2.807,0,3.235c0,2.222,0,15.704,0,15.704h11.565c0.401,0.358,0.985,0.585,1.64,0.585s1.239-0.227,1.639-0.585h1.094
		v-2.192c-1.232,0.355-2.187,0.747-2.638,0.946V11.633z M13.051,17.701c-0.96-0.396-4.267-1.654-7.58-1.654
		c-1.308,0-2.467,0.201-3.455,0.598V1.395c0.576-0.192,2.147-0.646,4.082-0.646c2.543,0,4.729,0.769,6.514,2.269v9.101l0.44-0.485
		V17.701z"/>
	<path d="M30.042,9.776L19.246,9.768c-0.033-0.002-0.089-0.007-0.163-0.007c-0.904,0-1.959,0.542-1.959,2.066v18.412H31.85V11.827
		C31.85,10.468,30.667,9.891,30.042,9.776z M30.867,29.209H18.108V11.827c0-0.256,0-1.036,0.976-1.036
		c0.047,0,0.079,0.003,0.083,0.003l10.741,0.003c0.182,0.043,0.958,0.268,0.958,1.03V29.209z"/>
	<rect x="19.253" y="17.771" width="4.643" height="1.286"/>
	<rect x="25.069" y="17.771" width="4.643" height="1.286"/>
	<rect x="19.309" y="20.172" width="1.87" height="1.976"/>
	<rect x="22.07" y="20.172" width="1.87" height="1.976"/>
	<rect x="24.93" y="20.172" width="1.869" height="1.976"/>
	<rect x="27.859" y="20.172" width="1.87" height="1.976"/>
	<rect x="19.309" y="22.949" width="1.87" height="1.976"/>
	<rect x="22.07" y="22.949" width="1.87" height="1.976"/>
	<rect x="24.876" y="22.949" width="1.869" height="1.976"/>
	<rect x="27.805" y="22.949" width="1.87" height="1.976"/>
	<rect x="19.247" y="25.727" width="1.869" height="1.976"/>
	<rect x="22.008" y="25.727" width="1.869" height="1.976"/>
	<rect x="24.93" y="25.727" width="1.869" height="1.976"/>
	<rect x="27.805" y="25.727" width="1.87" height="1.976"/>
	<path d="M29.712,12.517H19.247v3.795h10.465V12.517z M24.942,15.408h-0.532v-1.083h-0.417v-0.389
		c0.064,0.002,0.128-0.004,0.189-0.017c0.061-0.014,0.117-0.036,0.167-0.067s0.089-0.074,0.121-0.127
		c0.031-0.053,0.05-0.119,0.052-0.197h0.419V15.408z M27.036,15.408h-1.542c-0.005-0.092,0.004-0.176,0.027-0.254
		c0.023-0.077,0.057-0.147,0.101-0.211c0.038-0.053,0.081-0.104,0.129-0.151c0.048-0.047,0.101-0.091,0.156-0.13
		c0.056-0.041,0.113-0.08,0.172-0.117c0.06-0.037,0.118-0.073,0.173-0.109c0.022-0.015,0.048-0.03,0.076-0.049
		c0.028-0.018,0.055-0.038,0.08-0.059c0.024-0.022,0.045-0.047,0.061-0.072c0.017-0.028,0.024-0.059,0.024-0.093
		c0-0.086-0.021-0.146-0.063-0.18c-0.041-0.033-0.092-0.049-0.152-0.049c-0.102,0-0.173,0.035-0.213,0.106
		c-0.04,0.071-0.058,0.165-0.055,0.279h-0.48c-0.007-0.129,0.006-0.244,0.039-0.345c0.032-0.101,0.081-0.187,0.147-0.255
		c0.066-0.07,0.148-0.123,0.245-0.158c0.096-0.036,0.204-0.054,0.323-0.054c0.108,0,0.206,0.011,0.295,0.037
		c0.09,0.023,0.167,0.06,0.23,0.108c0.064,0.049,0.114,0.111,0.148,0.185c0.035,0.075,0.052,0.163,0.052,0.262
		c0,0.12-0.024,0.222-0.074,0.305c-0.049,0.082-0.112,0.156-0.189,0.217c-0.076,0.063-0.161,0.118-0.253,0.169
		c-0.092,0.05-0.18,0.102-0.264,0.156v0.003h0.806V15.408z M28.701,15.027c-0.022,0.069-0.063,0.131-0.12,0.192
		c-0.057,0.06-0.134,0.109-0.23,0.149c-0.096,0.041-0.217,0.061-0.362,0.061c-0.132,0-0.245-0.015-0.337-0.044
		c-0.093-0.029-0.168-0.068-0.227-0.114c-0.058-0.047-0.103-0.099-0.135-0.156s-0.054-0.113-0.069-0.168
		c-0.015-0.055-0.022-0.104-0.023-0.15c-0.001-0.044,0-0.08,0.001-0.104h0.486c-0.004,0.103,0.02,0.178,0.069,0.226
		c0.023,0.031,0.054,0.053,0.091,0.064c0.037,0.013,0.077,0.019,0.121,0.019c0.073,0,0.131-0.015,0.173-0.047
		c0.043-0.031,0.064-0.086,0.064-0.164c0-0.041-0.007-0.075-0.02-0.101c-0.014-0.025-0.032-0.044-0.054-0.059
		c-0.023-0.014-0.048-0.023-0.077-0.028c-0.029-0.004-0.058-0.006-0.087-0.006c-0.038,0-0.066,0-0.088,0.003
		c-0.021,0.003-0.041,0.006-0.059,0.009v-0.367c0.018,0.002,0.039,0.004,0.062,0.006c0.023,0.003,0.052,0.006,0.086,0.006
		c0.027,0,0.055-0.003,0.083-0.006c0.028-0.004,0.054-0.012,0.079-0.025c0.023-0.013,0.042-0.03,0.058-0.052
		c0.016-0.023,0.023-0.052,0.023-0.088c0-0.03-0.008-0.055-0.022-0.076c-0.014-0.022-0.032-0.039-0.054-0.051
		c-0.022-0.014-0.047-0.023-0.076-0.029c-0.028-0.007-0.055-0.009-0.081-0.009c-0.034,0-0.066,0.005-0.097,0.014
		c-0.03,0.01-0.058,0.024-0.079,0.044c-0.023,0.021-0.04,0.044-0.052,0.073c-0.014,0.029-0.019,0.063-0.018,0.103h-0.48
		c0.002-0.11,0.022-0.208,0.062-0.288c0.039-0.082,0.093-0.149,0.161-0.203c0.069-0.053,0.147-0.091,0.236-0.118
		c0.088-0.026,0.183-0.039,0.283-0.039c0.129,0,0.239,0.017,0.326,0.052c0.088,0.035,0.159,0.078,0.212,0.128
		c0.053,0.05,0.092,0.104,0.115,0.159c0.023,0.056,0.035,0.104,0.035,0.143c0,0.1-0.013,0.176-0.037,0.229
		c-0.025,0.053-0.052,0.092-0.081,0.117c-0.028,0.025-0.056,0.041-0.08,0.045c-0.026,0.006-0.037,0.01-0.037,0.012v0.005
		c0,0.003,0.006,0.008,0.021,0.011c0.015,0.003,0.032,0.01,0.053,0.02c0.022,0.011,0.045,0.024,0.071,0.042
		c0.025,0.016,0.049,0.042,0.071,0.073c0.021,0.032,0.039,0.071,0.053,0.119c0.015,0.046,0.021,0.106,0.021,0.176
		C28.735,14.895,28.724,14.958,28.701,15.027z"/>
	<path d="M4.734,3.641c-0.06,0.094-0.136,0.17-0.228,0.226C4.412,3.923,4.308,3.963,4.192,3.987
		c-0.115,0.024-0.233,0.034-0.356,0.03V4.71h0.785v1.929h1V3.292H4.832C4.826,3.43,4.793,3.546,4.734,3.641z"/>
	<path d="M9.398,13.941c0.157-0.096,0.322-0.189,0.496-0.279c0.172-0.09,0.332-0.191,0.476-0.3c0.145-0.111,0.263-0.241,0.356-0.388
		c0.093-0.147,0.139-0.329,0.139-0.544c0-0.176-0.033-0.331-0.098-0.464c-0.066-0.133-0.158-0.243-0.279-0.329
		c-0.121-0.087-0.264-0.151-0.434-0.196c-0.168-0.043-0.353-0.065-0.555-0.065c-0.224,0-0.427,0.032-0.608,0.097
		c-0.182,0.064-0.335,0.158-0.459,0.281c-0.125,0.124-0.218,0.274-0.278,0.454c-0.062,0.18-0.085,0.385-0.073,0.616h0.904
		c-0.006-0.206,0.028-0.371,0.104-0.498c0.076-0.127,0.209-0.19,0.402-0.19c0.112,0,0.207,0.029,0.286,0.088
		c0.078,0.06,0.118,0.167,0.118,0.32c0,0.061-0.016,0.116-0.046,0.164c-0.031,0.048-0.069,0.091-0.115,0.13
		c-0.047,0.039-0.097,0.074-0.15,0.105c-0.053,0.032-0.1,0.061-0.142,0.087c-0.106,0.064-0.215,0.129-0.327,0.195
		c-0.112,0.065-0.22,0.135-0.324,0.206c-0.104,0.073-0.203,0.15-0.293,0.234c-0.091,0.083-0.172,0.173-0.243,0.269
		c-0.084,0.113-0.147,0.238-0.19,0.376c-0.043,0.138-0.06,0.289-0.051,0.452h2.9v-0.818H9.398V13.941z"/>
	<path d="M18.578,6.612c-0.083,0-0.16-0.011-0.229-0.034c-0.069-0.022-0.126-0.061-0.17-0.115c-0.093-0.087-0.137-0.22-0.13-0.4
		h-0.914c-0.003,0.042-0.004,0.103-0.002,0.183c0.001,0.08,0.016,0.17,0.042,0.268c0.028,0.097,0.071,0.197,0.131,0.297
		c0.059,0.102,0.144,0.193,0.254,0.277c0.111,0.084,0.252,0.152,0.426,0.205c0.172,0.053,0.384,0.079,0.634,0.079
		c0.272,0,0.499-0.036,0.68-0.108c0.182-0.072,0.326-0.162,0.434-0.267c0.107-0.106,0.183-0.219,0.226-0.341
		c0.043-0.122,0.065-0.235,0.065-0.337c0-0.125-0.015-0.23-0.042-0.315c-0.027-0.084-0.061-0.155-0.102-0.211
		c-0.039-0.056-0.084-0.099-0.132-0.129c-0.048-0.03-0.092-0.055-0.133-0.072c-0.04-0.017-0.073-0.03-0.101-0.036
		c-0.027-0.007-0.041-0.013-0.041-0.019v-0.01c0-0.003,0.023-0.009,0.069-0.019c0.046-0.01,0.097-0.037,0.151-0.082
		c0.055-0.044,0.105-0.114,0.152-0.209s0.07-0.23,0.07-0.406c0-0.071-0.022-0.156-0.064-0.255c-0.044-0.099-0.116-0.194-0.217-0.283
		c-0.102-0.091-0.234-0.166-0.399-0.229c-0.165-0.062-0.37-0.094-0.614-0.094c-0.189,0-0.367,0.023-0.533,0.07
		c-0.167,0.047-0.314,0.116-0.442,0.209c-0.128,0.096-0.229,0.217-0.303,0.361s-0.112,0.315-0.115,0.515h0.904
		c-0.003-0.071,0.007-0.132,0.031-0.183c0.024-0.051,0.057-0.094,0.098-0.129c0.042-0.036,0.091-0.062,0.149-0.08
		c0.057-0.018,0.119-0.026,0.183-0.026c0.048,0,0.099,0.005,0.152,0.016c0.053,0.011,0.1,0.029,0.141,0.051
		c0.042,0.022,0.077,0.053,0.104,0.091c0.028,0.038,0.041,0.083,0.041,0.134c0,0.064-0.015,0.116-0.043,0.157
		c-0.029,0.041-0.066,0.071-0.11,0.093c-0.045,0.022-0.094,0.037-0.147,0.043c-0.052,0.007-0.105,0.01-0.156,0.01
		c-0.064,0-0.118-0.002-0.161-0.007C18.373,5.268,18.335,5.263,18.3,5.26v0.655c0.035-0.007,0.071-0.012,0.112-0.018
		c0.04-0.004,0.095-0.006,0.166-0.006c0.054,0,0.108,0.003,0.163,0.012c0.055,0.008,0.103,0.024,0.145,0.05
		c0.042,0.026,0.075,0.062,0.101,0.106c0.026,0.045,0.039,0.104,0.039,0.178c0,0.138-0.041,0.234-0.121,0.291
		C18.825,6.583,18.716,6.612,18.578,6.612z"/>
</g>
<g>
</g>
<g>
</g>
<g>
</g>
<g>
</g>
<g>
</g>
<g>
</g>
<g>
</g>
<g>
</g>
<g>
</g>
<g>
</g>
<g>
</g>
<g>
</g>
<g>
</g>
<g>
</g>
<g>
</g>
</svg>
