<?xml version="1.0" encoding="iso-8859-1"?>
<!-- Generator: Adobe Illustrator 16.0.0, SVG Export Plug-In . SVG Version: 6.00 Build 0)  -->
<!DOCTYPE svg PUBLIC "-//W3C//DTD SVG 1.1//EN" "http://www.w3.org/Graphics/SVG/1.1/DTD/svg11.dtd">
<svg version="1.1" id="Layer_1" xmlns="http://www.w3.org/2000/svg" xmlns:xlink="http://www.w3.org/1999/xlink" x="0px" y="0px"
	 width="22.245px" height="31.22px" viewBox="0 0 22.245 31.22" style="enable-background:new 0 0 22.245 31.22;"
	 xml:space="preserve">
<g>
	<path d="M11.122,13.973c-4.755,0-8.622,3.869-8.622,8.624s3.867,8.623,8.622,8.623c4.756,0,8.624-3.868,8.624-8.623
		S15.878,13.973,11.122,13.973z M11.122,29.285c-3.688,0-6.688-3-6.688-6.688c0-3.688,3-6.689,6.688-6.689
		c3.688,0,6.689,3.001,6.689,6.689C17.812,26.285,14.81,29.285,11.122,29.285z"/>
	<path d="M10.705,19.313c-0.147,0.234-0.336,0.421-0.566,0.559c-0.23,0.14-0.489,0.24-0.774,0.298
		c-0.287,0.059-0.581,0.086-0.883,0.078v1.716h1.942v4.78h2.479v-8.297h-1.954C10.933,18.791,10.852,19.079,10.705,19.313z"/>
	<polygon points="15.366,12.252 22.245,0 16.335,0 11.737,8.437 5.964,0.054 0,0.054 7.629,12.252 	"/>
</g>
<g>
</g>
<g>
</g>
<g>
</g>
<g>
</g>
<g>
</g>
<g>
</g>
<g>
</g>
<g>
</g>
<g>
</g>
<g>
</g>
<g>
</g>
<g>
</g>
<g>
</g>
<g>
</g>
<g>
</g>
</svg>
