<?xml version="1.0" encoding="iso-8859-1"?>
<!-- Generator: Adobe Illustrator 16.0.0, SVG Export Plug-In . SVG Version: 6.00 Build 0)  -->
<!DOCTYPE svg PUBLIC "-//W3C//DTD SVG 1.1//EN" "http://www.w3.org/Graphics/SVG/1.1/DTD/svg11.dtd">
<svg version="1.1" id="Layer_1" xmlns="http://www.w3.org/2000/svg" xmlns:xlink="http://www.w3.org/1999/xlink" x="0px" y="0px"
	 width="32.246px" height="23.612px" viewBox="0 0 32.246 23.612" style="enable-background:new 0 0 32.246 23.612;"
	 xml:space="preserve">
<path d="M32.246,11.84h-4.563v-0.259h-0.548H26.76h-0.374v0.259h-3.954c0.367-0.344,0.623-0.805,0.7-1.327h0.026V8.294h9.059V7.649
	h-9.059V3.886h9.07V3.243h-9.07V1.545l0.043-0.008L23.188,0l-7.813,2.093l0.008,0.847l0,0v0.304H0.013v0.643h15.369v3.764H5.92
	V6.988H5.372H4.997H4.623v0.661H0v0.645h4.623v3.546H0.029v0.645h4.594v2.459c-0.421-0.395-0.985-0.637-1.608-0.637
	c-1.158,0-2.116,0.838-2.313,1.94H0.019v0.645h0.664c0.117,1.192,1.11,2.127,2.332,2.127c1.187,0,2.163-0.877,2.329-2.014h0.028
	v-0.113h21.014v2.646c-0.422-0.395-0.986-0.637-1.608-0.637c-1.206,0-2.188,0.907-2.327,2.074H0.029v0.646h22.428
	c0.178,1.127,1.144,1.992,2.32,1.992c1.176,0,2.148-0.865,2.323-1.992h5.146v-0.646h-5.111v-4.083h1.105l0.423,0.558l0.733-0.558
	h2.837v-0.645h-3.318l-1.398-1.841v-0.642l1.313,1.728l0.739-0.562l-1.858-2.446h4.536V11.84z M19.323,11.84h-3.218V8.294H19.6
	c-0.604,0.409-1.001,1.102-1.001,1.888C18.599,10.838,18.879,11.424,19.323,11.84z M22.434,8.518
	c-0.089-0.083-0.186-0.155-0.287-0.224h0.287V8.518z M22.434,3.243h-1.364l1.364-0.39V3.243z M22.434,1.68v0.753l-2.837,0.811H16.99
	L22.434,1.68z M17.336,3.886l-1.23,0.354V3.886H17.336z M16.105,4.659l2.705-0.773h3.623v3.764h-6.328V4.659z M15.382,8.294v2.344
	c-0.407-0.382-0.954-0.616-1.557-0.616c-1.102,0-2.021,0.78-2.233,1.818H7.294l-1.54-2.026V9.172l1.314,1.728l0.738-0.562
	L6.252,8.294H15.382z M5.372,10.845l0.757,0.995H5.372V10.845z M27.75,16.247h-0.615v-0.811L27.75,16.247z M26.386,16.247H5.372
	v-3.763h1.247L6.9,12.856l0.488-0.372h4.176c0.094,1.173,1.064,2.097,2.261,2.097c1.146,0,2.093-0.848,2.253-1.948h0.027v-0.148
	h10.28V16.247z"/>
<g>
</g>
<g>
</g>
<g>
</g>
<g>
</g>
<g>
</g>
<g>
</g>
<g>
</g>
<g>
</g>
<g>
</g>
<g>
</g>
<g>
</g>
<g>
</g>
<g>
</g>
<g>
</g>
<g>
</g>
</svg>
