<?xml version="1.0" encoding="iso-8859-1"?>
<!-- Generator: Adobe Illustrator 16.0.0, SVG Export Plug-In . SVG Version: 6.00 Build 0)  -->
<!DOCTYPE svg PUBLIC "-//W3C//DTD SVG 1.1//EN" "http://www.w3.org/Graphics/SVG/1.1/DTD/svg11.dtd">
<svg version="1.1" id="Layer_1" xmlns="http://www.w3.org/2000/svg" xmlns:xlink="http://www.w3.org/1999/xlink" x="0px" y="0px"
	 width="26.662px" height="31.531px" viewBox="0 0 26.662 31.531" style="enable-background:new 0 0 26.662 31.531;"
	 xml:space="preserve">
<g>
	<path d="M21.498,17.664V8.532l-8.287-5.524L5.165,8.532v9.132H0v13.867h26.662V17.664H21.498z M13.527,6.952
		c2.472,0,4.481,2.009,4.481,4.48s-2.01,4.482-4.481,4.482s-4.482-2.011-4.482-4.482S11.056,6.952,13.527,6.952z"/>
	<polygon points="13.211,1.77 23.916,9.404 24.753,8.231 13.211,0 1.144,8.584 1.98,9.758 	"/>
	<path d="M13.527,15.509c2.247,0,4.075-1.828,4.075-4.077c0-2.248-1.828-4.076-4.075-4.076c-2.248,0-4.076,1.829-4.076,4.076
		C9.451,13.681,11.279,15.509,13.527,15.509z M13.813,15.313h-0.406v-0.465c0.067,0.003,0.134,0.009,0.204,0.009
		c0.067,0,0.134-0.006,0.202-0.009V15.313z M15.239,15.051l-0.249-0.493c0.062-0.029,0.124-0.057,0.184-0.088l0.247,0.488
		L15.239,15.051z M17.421,11.705h-0.465c0.003-0.067,0.01-0.135,0.01-0.204c0-0.068-0.007-0.135-0.01-0.203h0.465V11.705z
		 M16.961,9.784l0.093,0.181l-0.371,0.189c-0.026-0.063-0.058-0.124-0.088-0.183L16.961,9.784z M16.382,13.393l0.422,0.29
		l-0.114,0.168l-0.429-0.295C16.302,13.501,16.344,13.449,16.382,13.393z M15.589,8.342l0.171,0.111L15.555,8.77
		c-0.054-0.04-0.11-0.078-0.168-0.113L15.589,8.342z M13.406,7.689h0.406v0.465c-0.068-0.003-0.135-0.009-0.202-0.009
		c-0.07,0-0.137,0.006-0.204,0.009V7.689z M11.98,8.155l0.165,0.328c-0.062,0.03-0.121,0.06-0.181,0.094l-0.166-0.33L11.98,8.155z
		 M13.467,11.613v-0.181V11.3V8.508h0.286V11.3h1.895v0.401h-2.179l-1.648,1.807l-0.044-0.042L13.467,11.613z M11.753,14.295
		c0.057,0.039,0.115,0.073,0.174,0.106l-0.297,0.459l-0.169-0.109L11.753,14.295z M10.529,9.354l0.329,0.226
		c-0.038,0.056-0.074,0.113-0.109,0.171l-0.334-0.229L10.529,9.354z M9.798,11.298h0.466c-0.004,0.067-0.011,0.134-0.011,0.203
		c0,0.069,0.007,0.137,0.011,0.204H9.798V11.298z M10.166,13.239l0.449-0.228c0.03,0.062,0.063,0.12,0.097,0.179l-0.453,0.231
		L10.166,13.239z"/>
</g>
<g>
</g>
<g>
</g>
<g>
</g>
<g>
</g>
<g>
</g>
<g>
</g>
<g>
</g>
<g>
</g>
<g>
</g>
<g>
</g>
<g>
</g>
<g>
</g>
<g>
</g>
<g>
</g>
<g>
</g>
</svg>
