<?xml version="1.0" encoding="iso-8859-1"?>
<!-- Generator: Adobe Illustrator 16.0.0, SVG Export Plug-In . SVG Version: 6.00 Build 0)  -->
<!DOCTYPE svg PUBLIC "-//W3C//DTD SVG 1.1//EN" "http://www.w3.org/Graphics/SVG/1.1/DTD/svg11.dtd">
<svg version="1.1" id="Layer_1" xmlns="http://www.w3.org/2000/svg" xmlns:xlink="http://www.w3.org/1999/xlink" x="0px" y="0px"
	 width="31.972px" height="29.944px" viewBox="0 0 31.972 29.944" style="enable-background:new 0 0 31.972 29.944;"
	 xml:space="preserve">
<g>
	<path d="M28.354,18.055v2.853h-4.792v2.866h-2.541v0.005h-1.71v2.867h-3.55V3.095h-5.188V2.067L7.257,3.095H0v24.694h1.347V4.441
		h1.567L1.886,4.761v23.028l8.686,2.155V4.441h3.841v23.348h1.347v-0.017h4.679v-2.866h4.224V24.9h0.026v-2.865h1.335v0.013h3.457
		v-2.865h2.491v-1.128H28.354z M8.537,18.879c-0.437,0-0.792-0.43-0.792-0.959c0-0.53,0.354-0.96,0.792-0.96s0.791,0.43,0.791,0.96
		C9.328,18.449,8.974,18.879,8.537,18.879z"/>
	<path d="M24.351,5.607c1.338,0,2.425-1.086,2.425-2.426c0-0.535-0.181-1.027-0.476-1.429l0.278-1.16l-1.303,0.236L24.743,0
		l-1.42,0.947l-1.008-0.414l-0.236,1.185l-1.005,0.591l0.892,1.257C22.149,4.722,23.142,5.607,24.351,5.607z"/>
	<polygon points="24.299,7.223 23.021,7.213 23.021,10.654 26.229,13.489 27.195,12.234 24.332,9.471 	"/>
	<path d="M21.72,17.835l-2.177,4.583l0.005,0.002l-0.073,0.175l1.913,0.804l0.243-0.582l-0.479-0.203l2.118-4.247l0.373-3.105
		l0.894,0.654l0.473,4.024l0.059,0.621l2.18-0.274l-0.089-0.625l-0.504,0.071l-0.62-3.986l-1.005-1.656l0.209-1.007l-2.516-2.138
		l-0.021-0.003V7.318l0.195-0.365l1.688,0.026L24.58,9.323l0.659,0.665V5.972h-2.347l-0.005-0.005l-0.001,0.005h-1.164V8.15
		l-2.25,4.22l-0.049-0.019l-1.219,3.396l3.549,1.276L21.72,17.835z M23.63,13.83l-0.013,0.029l-0.083-0.029H23.63z M21.721,13.177
		l-1.799-0.646l1.799-3.372V13.177z"/>
</g>
<g>
</g>
<g>
</g>
<g>
</g>
<g>
</g>
<g>
</g>
<g>
</g>
<g>
</g>
<g>
</g>
<g>
</g>
<g>
</g>
<g>
</g>
<g>
</g>
<g>
</g>
<g>
</g>
<g>
</g>
</svg>
