<?xml version="1.0" encoding="iso-8859-1"?>
<!-- Generator: Adobe Illustrator 16.0.0, SVG Export Plug-In . SVG Version: 6.00 Build 0)  -->
<!DOCTYPE svg PUBLIC "-//W3C//DTD SVG 1.1//EN" "http://www.w3.org/Graphics/SVG/1.1/DTD/svg11.dtd">
<svg version="1.1" id="Layer_1" xmlns="http://www.w3.org/2000/svg" xmlns:xlink="http://www.w3.org/1999/xlink" x="0px" y="0px"
	 width="31.465px" height="23.519px" viewBox="0 0 31.465 23.519" style="enable-background:new 0 0 31.465 23.519;"
	 xml:space="preserve">
<g>
	<path d="M30.219,3.037V1.055l-0.286-0.113C29.834,0.904,27.506,0,24.398,0c-3.327,0-6.193,1.013-8.526,3.014
		C13.539,1.013,10.673,0,7.344,0C4.237,0,1.908,0.904,1.812,0.943L1.526,1.055V2.89C0.585,3.066,0,3.382,0,3.896
		c0,2.676,0,18.918,0,18.918h13.932c0.482,0.431,1.188,0.705,1.976,0.705c0.787,0,1.491-0.273,1.976-0.705h13.582
		c0,0,0-17.979,0-18.918C31.465,3.477,30.988,3.205,30.219,3.037z M15.722,21.323c-1.157-0.478-5.14-1.993-9.131-1.993
		c-1.576,0-2.972,0.241-4.162,0.719V1.68c0.694-0.232,2.586-0.779,4.915-0.779c3.065,0,5.697,0.927,7.848,2.733v10.964l0.53-0.585
		V21.323z M29.316,20.054c-1.279-0.514-2.745-0.773-4.371-0.773c-3.987,0-7.783,1.528-8.924,2.031v-7.298l0.532,0.585V3.635
		c2.149-1.807,4.782-2.733,7.845-2.733c2.322,0,4.222,0.548,4.918,0.779V20.054z"/>
	<path d="M13.182,7.602c-1.021-1.222-2.555-2.001-4.268-2.001c-0.004,0-0.005,0-0.008,0c-0.001,0-0.004,0-0.005,0
		c-0.005,0-0.013,0-0.02,0c-1.7,0.009-3.221,0.787-4.233,2.002C4.554,7.715,4.467,7.832,4.382,7.951
		c-0.642,0.906-1.021,2.01-1.021,3.202c0,1.192,0.379,2.297,1.021,3.203c0.085,0.12,0.172,0.236,0.267,0.348
		c1.013,1.215,2.533,1.993,4.233,2.002c0.007,0,0.015,0,0.02,0c0.001,0,0.004,0,0.005,0c0.003,0,0.004,0,0.008,0
		c1.713,0,3.247-0.779,4.268-2.002c0.093-0.112,0.181-0.229,0.266-0.349c0.642-0.906,1.02-2.011,1.02-3.203
		c0-1.191-0.378-2.296-1.02-3.202C13.362,7.832,13.274,7.715,13.182,7.602z M7.292,6.322C6.78,6.814,6.356,7.534,6.064,8.397
		C5.674,8.252,5.32,8.076,5.017,7.876C5.612,7.169,6.396,6.624,7.292,6.322z M4.748,8.225c0.347,0.231,0.745,0.432,1.187,0.599
		c-0.19,0.696-0.299,1.468-0.304,2.283H3.817C3.826,10.035,4.172,9.042,4.748,8.225z M3.835,11.563H5.64
		c0.03,0.682,0.134,1.329,0.294,1.921c-0.44,0.167-0.839,0.367-1.186,0.598C4.237,13.356,3.909,12.496,3.835,11.563z M5.018,14.43
		c0.304-0.199,0.656-0.375,1.047-0.521c0.292,0.865,0.716,1.583,1.228,2.077C6.396,15.683,5.613,15.137,5.018,14.43z M8.688,16.235
		c-0.936-0.128-1.744-1.088-2.2-2.469c0.658-0.198,1.405-0.317,2.2-0.336V16.235z M8.688,12.974
		c-0.837,0.021-1.627,0.149-2.328,0.365c-0.144-0.546-0.236-1.146-0.265-1.776h2.593V12.974z M8.688,11.106H6.087
		c0.003-0.765,0.103-1.488,0.275-2.139c0.7,0.216,1.489,0.345,2.325,0.366V11.106z M8.688,8.876
		C7.894,8.857,7.146,8.738,6.488,8.541C6.945,7.16,7.752,6.2,8.688,6.072V8.876z M12.812,7.877c-0.309,0.203-0.67,0.382-1.07,0.529
		c-0.295-0.875-0.726-1.604-1.245-2.099C11.409,6.607,12.207,7.158,12.812,7.877z M9.142,6.076c0.925,0.143,1.722,1.1,2.175,2.472
		c-0.653,0.193-1.391,0.31-2.175,0.329V6.076z M9.142,9.333c0.826-0.02,1.606-0.146,2.301-0.357c0.171,0.648,0.271,1.369,0.273,2.13
		H9.142V9.333z M9.142,11.563h2.564c-0.027,0.628-0.119,1.225-0.262,1.769c-0.695-0.212-1.476-0.338-2.303-0.358V11.563z
		 M9.142,16.231V13.43c0.784,0.019,1.522,0.135,2.175,0.33C10.864,15.131,10.066,16.088,9.142,16.231z M10.496,16
		c0.52-0.495,0.951-1.224,1.245-2.099c0.4,0.147,0.761,0.327,1.068,0.529C12.206,15.149,11.409,15.699,10.496,16z M13.08,14.082
		c-0.351-0.234-0.758-0.439-1.21-0.607c0.161-0.59,0.264-1.234,0.292-1.912h1.832C13.92,12.496,13.592,13.357,13.08,14.082z
		 M12.171,11.106c-0.004-0.812-0.111-1.581-0.3-2.274c0.45-0.167,0.858-0.373,1.209-0.608c0.576,0.817,0.922,1.81,0.931,2.882
		H12.171z"/>
	<path d="M20.617,8.541c0.658,0.199,1.405,0.317,2.198,0.336V6.072C21.881,6.2,21.074,7.16,20.617,8.541z"/>
	<path d="M22.815,16.235v-2.805c-0.793,0.018-1.541,0.138-2.2,0.335C21.072,15.147,21.88,16.107,22.815,16.235z"/>
	<path d="M20.488,13.339c0.701-0.216,1.489-0.345,2.327-0.365v-1.412h-2.592C20.252,12.194,20.344,12.793,20.488,13.339z"/>
	<path d="M20.215,11.106h2.601V9.333c-0.836-0.021-1.624-0.15-2.325-0.364C20.318,9.619,20.219,10.341,20.215,11.106z"/>
	<path d="M21.42,6.322c-0.896,0.301-1.68,0.847-2.275,1.554c0.305,0.2,0.656,0.375,1.049,0.522
		C20.485,7.535,20.909,6.814,21.42,6.322z"/>
	<path d="M20.063,8.823c-0.441-0.167-0.841-0.367-1.186-0.599c-0.576,0.818-0.922,1.81-0.932,2.882h1.813
		C19.764,10.292,19.873,9.519,20.063,8.823z"/>
	<path d="M19.146,14.43c0.596,0.708,1.379,1.253,2.274,1.556c-0.511-0.493-0.936-1.212-1.228-2.076
		C19.801,14.056,19.45,14.231,19.146,14.43z"/>
	<path d="M26.301,11.106h1.839c-0.01-1.072-0.354-2.063-0.932-2.882c-0.351,0.236-0.758,0.44-1.209,0.608
		C26.188,9.526,26.297,10.296,26.301,11.106z"/>
	<path d="M19.77,11.562h-1.807c0.075,0.934,0.403,1.795,0.915,2.52c0.344-0.229,0.743-0.432,1.186-0.598
		C19.902,12.892,19.798,12.245,19.77,11.562z"/>
	<path d="M25.999,13.475c0.451,0.168,0.859,0.373,1.209,0.607c0.513-0.725,0.84-1.586,0.914-2.52h-1.831
		C26.262,12.241,26.159,12.885,25.999,13.475z"/>
	<path d="M25.836,11.562h-2.564v1.412c0.825,0.02,1.606,0.147,2.303,0.358C25.717,12.788,25.808,12.191,25.836,11.562z"/>
	<path d="M23.271,13.431v2.801c0.924-0.143,1.723-1.1,2.174-2.471C24.793,13.565,24.054,13.449,23.271,13.431z"/>
	<path d="M24.626,15.999c0.912-0.299,1.71-0.85,2.313-1.569c-0.309-0.203-0.669-0.381-1.068-0.529
		C25.576,14.775,25.145,15.505,24.626,15.999z"/>
	<path d="M26.94,7.877c-0.604-0.719-1.402-1.27-2.314-1.568c0.519,0.494,0.949,1.222,1.243,2.098
		C26.271,8.259,26.631,8.08,26.94,7.877z"/>
	<path d="M23.271,6.076v2.801c0.782-0.019,1.521-0.136,2.172-0.329C24.992,7.176,24.195,6.219,23.271,6.076z"/>
	<path d="M25.571,8.976c-0.694,0.21-1.475,0.337-2.3,0.357v1.773h2.572C25.841,10.345,25.74,9.624,25.571,8.976z"/>
</g>
<g>
</g>
<g>
</g>
<g>
</g>
<g>
</g>
<g>
</g>
<g>
</g>
<g>
</g>
<g>
</g>
<g>
</g>
<g>
</g>
<g>
</g>
<g>
</g>
<g>
</g>
<g>
</g>
<g>
</g>
</svg>
