<?xml version="1.0" encoding="utf-8"?>
<!-- Generator: Adobe Illustrator 16.0.4, SVG Export Plug-In . SVG Version: 6.00 Build 0)  -->
<!DOCTYPE svg PUBLIC "-//W3C//DTD SVG 1.1//EN" "http://www.w3.org/Graphics/SVG/1.1/DTD/svg11.dtd">
<svg version="1.1" id="Layer_1" xmlns="http://www.w3.org/2000/svg" xmlns:xlink="http://www.w3.org/1999/xlink" x="0px" y="0px"
	 width="31.98px" height="26.439px" viewBox="0 0 31.98 26.439" enable-background="new 0 0 31.98 26.439" xml:space="preserve">
<path d="M5.747,2.018L0,0V26.44l7.588-2.032V2.582L7.024,2.409V2.251h12.396v2.626h-1.66h-0.812H8.381v18.786h1.386v0.452h0.776
	v-0.452h5.222v0.452h0.777v-0.452h0.404h0.812h0.574v0.452h0.777v-0.452h0.309v0.732h1.276V0.974H5.747V2.018z M2.057,14.291
	c-0.43,0-0.777-0.409-0.777-0.914c0-0.507,0.349-0.916,0.777-0.916s0.776,0.409,0.776,0.916C2.833,13.882,2.485,14.291,2.057,14.291
	z M9.192,14.698h3.184v3.913H9.192V14.698z M16.947,22.854H9.192v-3.836h7.755V22.854z M16.947,18.612H12.78v-3.913h4.167V18.612z
	 M16.947,14.294H9.192v-4.146h7.755V14.294z M16.947,9.744H9.192V5.689h7.755V9.744z M17.759,5.689h1.66V6.16h-0.155v3.356h0.155
	v0.228h-1.66V5.689z M19.405,8.162V6.301h0.015v1.861H19.405z M19.419,8.998v0.379h-0.015V8.998H19.419z M17.759,10.148h1.66v0.617
	h-0.223v3.359h0.223v0.17h-1.66V10.148z M19.419,10.905v3.077H19.34v-3.077H19.419z M19.419,22.854h-1.66v-3.836h1.66V22.854z
	 M19.419,18.613h-1.66v-3.913h1.66v0.314l-0.399,0.134l0.399,1.203V18.613z M19.42,15.538L19.42,15.538l-0.11,0.036l-0.111-0.339
	l0.222-0.073V15.538z M10.675,10.765h-1.03v3.359h1.03V10.765z M10.534,13.982H9.785v-0.381h0.749V13.982z M10.442,13.284v0.134
	H9.926v-0.134H10.442z M9.926,13.161v-0.135h0.517v0.135H9.926z M10.534,12.767H9.785v-1.86h0.749V12.767z M10.445,11.419H9.922
	v-0.146h0.522V11.419z M10.382,6.16h-1.03v3.356h1.03V6.16z M10.241,9.377H9.494V8.998h0.747V9.377z M10.15,8.68v0.134H9.633V8.68
	H10.15z M9.633,8.559V8.425h0.518v0.134H9.633z M10.241,8.162H9.494V6.301h0.747V8.162z M10.152,6.814H9.631V6.668h0.521V6.814z
	 M11.636,6.16h-1.029v0.498v0.386v2.474h1.029V6.16z M11.495,9.377h-0.748V8.992h0.748V9.377z M11.382,8.561v0.145H10.86V8.561
	H11.382z M10.861,8.467V8.322h0.521v0.146H10.861z M11.495,8.035h-0.748V7.044h0.748V8.035z M10.859,6.922V6.777h0.522v0.146H10.859
	z M11.495,6.658h-0.748V6.301h0.748V6.658z M12.848,6.16h-1.03v3.356h1.03V6.16z M12.709,9.377h-0.75V8.998h0.75V9.377z
	 M12.616,8.68v0.134h-0.52V8.68H12.616z M12.098,8.559V8.425h0.52v0.134H12.098z M12.709,8.162h-0.75V6.301h0.75V8.162z
	 M12.618,6.814h-0.522V6.668h0.522V6.814z M14.101,6.16h-1.027v0.498v0.386v2.474h1.027V6.16z M13.961,9.377h-0.748V8.992h0.748
	V9.377z M13.847,8.561v0.145h-0.521V8.561H13.847z M13.326,8.467V8.322h0.521v0.146H13.326z M13.961,8.035h-0.748V7.044h0.748V8.035
	z M13.326,6.922V6.777h0.521v0.146H13.326z M13.961,6.658h-0.748V6.301h0.748V6.658z M15.429,6.16h-1.03v3.356h1.03V6.16z
	 M15.287,9.377h-0.746V8.998h0.746V9.377z M15.196,8.68v0.134H14.68V8.68H15.196z M14.68,8.559V8.425h0.517v0.134H14.68z
	 M15.287,8.162h-0.746V6.301h0.746V8.162z M15.199,6.814h-0.522V6.668h0.522V6.814z M16.683,6.16h-1.03v0.498v0.386v2.474h1.03V6.16
	z M16.541,9.377h-0.748V8.992h0.748V9.377z M16.428,8.561v0.145h-0.521V8.561H16.428z M15.906,8.467V8.322h0.521v0.146H15.906z
	 M16.541,8.035h-0.748V7.044h0.748V8.035z M15.905,6.922V6.777h0.522v0.146H15.905z M16.541,6.658h-0.748V6.301h0.748V6.658z
	 M16.21,18.157l-0.781-2.351l-0.121-0.365l-0.156-0.474l-0.978,0.325l1.06,3.187L16.21,18.157z M14.352,15.384l0.711-0.235
	l0.112,0.339l-0.711,0.235L14.352,15.384z M15.149,15.771l-0.492,0.164l-0.047-0.137l0.496-0.165L15.149,15.771z M14.587,16.088
	l0.708-0.234l0.312,0.939l-0.71,0.235L14.587,16.088z M15.097,17.266l0.494-0.164l0.046,0.136l-0.495,0.165L15.097,17.266z
	 M15.668,17.327l0.046,0.137l-0.497,0.166l-0.044-0.139L15.668,17.327z M15.911,17.7l0.121,0.366l-0.709,0.237L15.2,17.938
	L15.911,17.7z M14.174,15.294L14.174,15.294v-0.191h-1.029v3.357h1.029V15.294z M14.032,18.319h-0.748v-3.075h0.748V18.319z
	 M13.913,15.814h-0.522V15.67h0.522V15.814z M13.392,15.907h0.523v0.144h-0.523V15.907z M13.392,17.492h0.523v0.145h-0.523V17.492z
	 M13.913,17.895h-0.522v-0.146h0.522V17.895z M17.99,18.312h1.029v-3.165v-0.191H17.99V18.312z M18.129,15.096h0.75v3.076h-0.75
	V15.096z M18.757,15.665h-0.521v-0.145h0.521V15.665z M18.238,15.76h0.521v0.145h-0.521V15.76z M18.238,17.346h0.521v0.144h-0.521
	V17.346z M18.236,17.602h0.521v0.145h-0.521V17.602z M17.988,14.124h1.029v-3.359h-1.029V14.124z M18.126,10.905h0.749v3.077h-0.749
	V10.905z M18.246,11.333h0.522v0.143h-0.522V11.333z M18.768,11.714h-0.522V11.57h0.522V11.714z M18.768,13.299h-0.522v-0.145h0.522
	V13.299z M18.246,13.411h0.522v0.146h-0.522V13.411z M10.494,19.309h-1.03v3.357h1.03V19.309z M9.604,19.451h0.749v1.859H9.604
	V19.451z M9.746,21.707v-0.136h0.517v0.136H9.746z M10.263,21.829v0.134H9.746v-0.134H10.263z M9.604,22.527v-0.38h0.749v0.38H9.604
	z M9.741,19.818h0.522v0.145H9.741V19.818z M11.749,19.309h-1.031v0.499v0.386v2.474h1.031V19.309z M11.607,22.527h-0.749v-0.389
	h0.749V22.527z M11.494,21.709v0.144h-0.522v-0.144H11.494z M10.972,21.616L10.972,21.616V21.47h0.522v0.146H10.972z M11.607,21.185
	h-0.749v-0.991h0.749V21.185z M10.972,20.069v-0.144h0.522v0.144H10.972z M11.607,19.808h-0.749V19.45h0.749V19.808z M14.172,19.309
	h-1.03v3.357h1.03V19.309z M14.031,22.527h-0.747V19.45h0.747V22.527z M13.848,21.417h-0.144V19.71h0.144V21.417z M13.611,21.414
	h-0.144v-1.709h0.144V21.414z M12.961,19.309h-1.03v3.357h1.03V19.309z M12.819,22.527h-0.748V19.45h0.748V22.527z M12.712,20.02
	h-0.523v-0.144h0.523V20.02z M12.712,20.258h-0.523v-0.144h0.523V20.258z M12.712,21.844h-0.523v-0.146h0.523V21.844z
	 M12.712,22.101h-0.523v-0.146h0.523V22.101z M15.402,19.309h-1.029v3.357h1.029V19.309z M15.262,22.527h-0.748V19.45h0.748V22.527z
	 M15.155,20.02h-0.521v-0.144h0.521V20.02z M15.153,21.844h-0.521v-0.146h0.521V21.844z M14.634,21.955h0.521v0.146h-0.521V21.955z
	 M16.818,10.765h-1.03v3.359h1.03V10.765z M16.678,13.982h-0.749v-0.381h0.749V13.982z M16.536,13.284v0.134H16.02v-0.134H16.536z
	 M16.021,13.161v-0.135h0.517v0.135H16.021z M16.678,12.767h-0.749v-1.86h0.749V12.767z M16.541,11.419h-0.523v-0.146h0.523V11.419z
	 M15.563,11.648v-0.387v-0.497h-1.029v3.359h1.029V11.648z M15.424,13.982h-0.749v-0.388h0.749V13.982z M15.309,13.069h-0.521
	v-0.144h0.521V13.069z M15.311,13.164v0.146h-0.521v-0.146H15.311z M15.424,12.639h-0.749v-0.99h0.749V12.639z M14.788,11.525V11.38
	h0.521v0.145H14.788z M15.424,11.262h-0.749v-0.355h0.749V11.262z M13.138,10.765H12.11v3.359h1.028V10.765z M12.999,13.982H12.25
	v-3.077h0.749V13.982z M12.579,12.874h-0.146v-1.71h0.146V12.874z M12.815,12.87h-0.142v-1.709h0.142V12.87z M14.352,10.765h-1.028
	v3.359h1.028V10.765z M14.211,13.982h-0.747v-3.077h0.747V13.982z M14.092,11.476h-0.523v-0.143h0.523V11.476z M14.092,11.714
	h-0.523V11.57h0.523V11.714z M14.092,13.299h-0.523v-0.145h0.523V13.299z M14.092,13.557h-0.523v-0.146h0.523V13.557z M11.91,10.765
	h-1.03v3.359h1.03V10.765z M11.769,13.982h-0.748v-3.077h0.748V13.982z M11.65,11.476h-0.522v-0.143h0.522V11.476z M11.129,13.155
	h0.521v0.145h-0.521V13.155z M11.65,13.557h-0.522v-0.146h0.522V13.557z M11.651,15.913c-0.237-0.063-0.403,0.212-0.444,0.287
	h-0.521h-0.008h-0.549c-0.059-0.098-0.214-0.317-0.43-0.26c-0.201,0.055-0.163,0.326-0.122,0.615
	c0.019,0.124,0.035,0.252,0.038,0.367c0.001,0.104,0.035,0.188,0.106,0.253c0.122,0.108,0.316,0.127,0.426,0.127
	c0.047,0,0.078-0.003,0.082-0.004c0.144,0.268,0.291,0.399,0.291,0.399v0.077c0,0,0.05,0.007,0.065,0
	c-0.004,0.222-0.137,0.241-0.137,0.241v0.1h-0.092v0.041H10.31l-0.037,0.112h-0.136v0.115h1.058V18.27h-0.109l-0.036-0.112H11
	v-0.041h-0.092v-0.1c0,0-0.132-0.021-0.134-0.241c0.017,0.007,0.063,0,0.063,0v-0.077c0,0,0.158-0.141,0.304-0.425
	c0.016,0.001,0.034,0.001,0.059,0.001c0.11,0,0.304-0.017,0.427-0.125c0.069-0.062,0.104-0.147,0.107-0.253
	c0.001-0.115,0.021-0.244,0.037-0.369C11.814,16.24,11.853,15.969,11.651,15.913z M9.794,17.098
	c-0.048-0.044-0.072-0.102-0.072-0.174c-0.002-0.123-0.02-0.256-0.039-0.382c-0.035-0.241-0.066-0.469,0.045-0.499
	c0.181-0.048,0.324,0.242,0.328,0.249v0.021c0,0,0.031,0,0.097,0c-0.026,0.141-0.068,0.15-0.154,0.211
	c0.03,0.272,0.102,0.493,0.181,0.67C10.096,17.198,9.901,17.193,9.794,17.098z M11.667,16.516c-0.019,0.127-0.037,0.259-0.038,0.383
	c0,0.071-0.024,0.13-0.073,0.173c-0.098,0.088-0.27,0.1-0.362,0.099c0.075-0.173,0.143-0.387,0.171-0.646
	c-0.087-0.061-0.128-0.07-0.155-0.211c0.063,0,0.097,0,0.097,0v-0.067c0.037-0.067,0.166-0.27,0.318-0.229
	C11.733,16.047,11.701,16.274,11.667,16.516z M28.6,4.15h-0.904V3.9H28.6V4.15z M28.597,4.563h-0.903v-0.25h0.903V4.563z
	 M26.696,4.15h-0.903V3.9h0.903V4.15z M31.059,8.801V3.047h-1.785v5.754H29.04V3.047h-1.785v5.754h-0.118V3.104h-1.784v0.201
	L23.679,2.92L22.38,8.592l0.907,0.209h-1.658v0.602h10.353V8.801H31.059z M22.671,8.409l1.19-5.195l1.266,0.29l-1.192,5.194
	L22.671,8.409z M25.352,8.801h-1.188l1.188-5.188V8.801z M26.893,8.679h-1.298V8.104h1.298V8.679z M26.707,7.449v0.232h-0.896V7.449
	H26.707z M25.812,7.293V7.061h0.896v0.232H25.812z M26.893,6.639h-1.298v-3.29h1.298V6.639z M28.795,8.621h-1.297V3.29h1.297V8.621z
	 M30.815,8.621h-1.298V3.29h1.298V8.621z M30.497,6.742h-0.25V3.783h0.25V6.742z M30.085,6.736h-0.251V3.777h0.251V6.736z
	 M24.696,4.041l-0.679,2.956l-0.225-0.052L24.47,3.99L24.696,4.041z M24.243,3.952l-0.678,2.957l-0.227-0.052l0.679-2.957
	L24.243,3.952z M28.597,7.309h-0.903v-0.25h0.903V7.309z M27.696,7.503H28.6v0.251h-0.904V7.503z"/>
</svg>
