<?xml version="1.0" encoding="iso-8859-1"?>
<!-- Generator: Adobe Illustrator 16.0.0, SVG Export Plug-In . SVG Version: 6.00 Build 0)  -->
<!DOCTYPE svg PUBLIC "-//W3C//DTD SVG 1.1//EN" "http://www.w3.org/Graphics/SVG/1.1/DTD/svg11.dtd">
<svg version="1.1" id="Layer_1" xmlns="http://www.w3.org/2000/svg" xmlns:xlink="http://www.w3.org/1999/xlink" x="0px" y="0px"
	 width="26.174px" height="29.548px" viewBox="0 0 26.174 29.548" style="enable-background:new 0 0 26.174 29.548;"
	 xml:space="preserve">
<g>
	<path style="fill:#070909;" d="M25.137,12.511v-1.648l-0.238-0.094c-0.081-0.032-2.018-0.783-4.603-0.783
		c-2.768,0-5.152,0.843-7.093,2.507c-1.94-1.664-4.325-2.507-7.093-2.507c-2.585,0-4.522,0.751-4.603,0.783l-0.238,0.094v1.527
		C0.488,12.535,0,12.798,0,13.225c0,2.227,0,15.737,0,15.737h11.59c0.401,0.36,0.987,0.586,1.643,0.586
		c0.656,0,1.242-0.226,1.643-0.586h11.298c0,0,0-14.956,0-15.737C26.174,12.876,25.779,12.651,25.137,12.511z M13.079,27.721
		c-0.962-0.397-4.276-1.657-7.595-1.657c-1.311,0-2.472,0.201-3.462,0.599v-15.28c0.578-0.193,2.152-0.648,4.09-0.648
		c2.548,0,4.738,0.771,6.527,2.274v9.12l0.44-0.486V27.721z M24.388,26.667c-1.063-0.427-2.284-0.643-3.636-0.643
		c-3.317,0-6.475,1.271-7.423,1.688v-6.07l0.442,0.486v-9.12c1.788-1.503,3.979-2.274,6.526-2.274c1.932,0,3.511,0.456,4.091,0.648
		V26.667z"/>
	<path style="fill:#070909;" d="M6.483,4.162c0.547,0.365,1.181,0.685,1.88,0.948C8.062,6.214,7.887,7.437,7.882,8.73H7.761
		c0.961,0.127,1.868,0.368,2.719,0.723h2.247v1.295c0.161,0.123,0.323,0.241,0.478,0.374c0.079-0.068,0.164-0.126,0.244-0.191V9.453
		h2.48c0.851-0.354,1.758-0.595,2.719-0.723h-0.396c-0.006-1.287-0.178-2.506-0.478-3.604c0.715-0.267,1.36-0.592,1.918-0.964
		c0.897,1.274,1.438,2.815,1.471,4.481c0.251,0.017,0.492,0.039,0.725,0.065c-0.02-1.853-0.614-3.569-1.615-4.981
		C20.14,3.538,20,3.353,19.851,3.175C18.234,1.237,15.803,0,13.087,0c-0.005,0-0.009,0-0.013,0c-0.003,0-0.005,0-0.008,0
		c-0.01,0-0.02,0.001-0.03,0.001C10.341,0.017,7.93,1.25,6.324,3.175C6.176,3.354,6.036,3.538,5.901,3.728
		C4.896,5.146,4.3,6.873,4.286,8.736c0.231-0.03,0.474-0.055,0.725-0.075C5.041,6.987,5.583,5.439,6.483,4.162z M19.267,3.609
		c-0.492,0.323-1.063,0.606-1.698,0.84c-0.468-1.389-1.15-2.542-1.972-3.326C17.042,1.596,18.307,2.471,19.267,3.609z M13.448,0.753
		c1.466,0.227,2.729,1.746,3.447,3.919c-1.035,0.307-2.205,0.493-3.447,0.521V0.753z M13.448,5.918
		c1.31-0.032,2.545-0.232,3.647-0.566c0.27,1.028,0.427,2.17,0.434,3.378h-4.081V5.918z M12.726,8.73H8.604
		C8.61,7.516,8.769,6.371,9.04,5.34c1.112,0.34,2.361,0.546,3.686,0.578V8.73z M12.726,0.748v4.446
		c-1.257-0.03-2.44-0.22-3.485-0.532C9.967,2.473,11.244,0.952,12.726,0.748z M10.514,1.145c-0.81,0.78-1.482,1.921-1.946,3.291
		c-0.62-0.232-1.179-0.512-1.661-0.827C7.852,2.487,9.095,1.624,10.514,1.145z"/>
</g>
<g>
</g>
<g>
</g>
<g>
</g>
<g>
</g>
<g>
</g>
<g>
</g>
<g>
</g>
<g>
</g>
<g>
</g>
<g>
</g>
<g>
</g>
<g>
</g>
<g>
</g>
<g>
</g>
<g>
</g>
</svg>
