<?xml version="1.0" encoding="utf-8"?>
<!-- Generator: Adobe Illustrator 16.0.4, SVG Export Plug-In . SVG Version: 6.00 Build 0)  -->
<!DOCTYPE svg PUBLIC "-//W3C//DTD SVG 1.1//EN" "http://www.w3.org/Graphics/SVG/1.1/DTD/svg11.dtd">
<svg version="1.1" id="Layer_1" xmlns="http://www.w3.org/2000/svg" xmlns:xlink="http://www.w3.org/1999/xlink" x="0px" y="0px"
	 width="32.227px" height="31.407px" viewBox="0 0 32.227 31.407" enable-background="new 0 0 32.227 31.407" xml:space="preserve">
<path d="M30.834,17.185l-0.205-3.659l-0.415,0.162c-1.231,0.481-2.447,0.717-3.717,0.717c-1.895,0-3.515-0.523-4.94-0.984
	c-1.223-0.395-2.264-0.727-3.148-0.619c-1.3,0.156-1.944,1.157-2.27,2.165c-0.323-1.008-0.97-2.009-2.267-2.165
	c-0.888-0.107-1.93,0.226-3.15,0.62c-1.429,0.46-3.047,0.982-4.939,0.983l0,0c-1.271,0-2.485-0.235-3.719-0.717L1.65,13.526
	l-0.204,3.66H0v1.439h32.227v-1.439L30.834,17.185L30.834,17.185z M18.485,13.44c0.766-0.095,1.729,0.224,2.874,0.594
	c1.401,0.452,3.146,1.015,5.141,1.015c1.208,0,2.37-0.199,3.537-0.606l0.135,2.42H16.468C16.506,16.001,16.766,13.647,18.485,13.44z
	 M2.245,14.441c1.167,0.407,2.329,0.606,3.537,0.606l0,0c1.993,0,3.735-0.562,5.138-1.015c1.146-0.37,2.111-0.688,2.875-0.594
	c1.713,0.207,1.977,2.561,2.016,3.422H2.11L2.245,14.441z"/>
</svg>
