<?xml version="1.0" encoding="iso-8859-1"?>
<!-- Generator: Adobe Illustrator 16.0.0, SVG Export Plug-In . SVG Version: 6.00 Build 0)  -->
<!DOCTYPE svg PUBLIC "-//W3C//DTD SVG 1.1//EN" "http://www.w3.org/Graphics/SVG/1.1/DTD/svg11.dtd">
<svg version="1.1" id="Layer_1" xmlns="http://www.w3.org/2000/svg" xmlns:xlink="http://www.w3.org/1999/xlink" x="0px" y="0px"
	 width="31.385px" height="20.899px" viewBox="0 0 31.385 20.899" style="enable-background:new 0 0 31.385 20.899;"
	 xml:space="preserve">
<g>
	<g>
		<path style="fill:#070909;" d="M13.868,19.104l12.146-1.631l3.746-15.817L12.872,0l-2.419,12.696l-0.002-0.001L9.808,12.79
			c0.535-0.667,0.907-1.523,0.92-2.516c0.029-1.75-0.688-3.127-2.327-3.403C7.144,6.659,6.105,7.235,5.689,7.515
			c0.017-0.366,0.036-0.771,0.045-1.006c0.013-0.317,0.57-0.484,0.839-0.741c0.161-0.152-0.004-0.554-0.004-0.554
			S5.177,5.83,5.214,6.427c0.02,0.291,0.022,0.698,0.021,1.04C4.845,7.208,4.02,6.782,2.856,6.836
			C1.25,6.912,0.197,8.093,0.228,9.844c0.021,1.743,1.139,3.287,2.323,4.021L0.227,14.21L13.868,19.104z M2.018,10.11
			c0,0,0.405,1.023,0.825,1.657c0.417,0.634,1.133,1.14,1.133,1.14s-0.925-0.136-1.533-0.914C1.834,11.215,2.018,10.11,2.018,10.11z
			 M13.565,1.117L28.06,2.821l-3.154,13.324l-13.512-3.822L13.565,1.117z M12.496,16.955l-2.022,0.241l-3.349-1.279l1.614-0.215
			L12.496,16.955z"/>
	</g>
	<g>
		<polygon style="fill:#070909;" points="30.546,2.104 26.814,18.026 13.823,19.926 13.823,19.921 0,14.863 0,15.647 13.73,20.899 
			27.519,18.708 31.385,2.686 		"/>
	</g>
</g>
<g>
</g>
<g>
</g>
<g>
</g>
<g>
</g>
<g>
</g>
<g>
</g>
<g>
</g>
<g>
</g>
<g>
</g>
<g>
</g>
<g>
</g>
<g>
</g>
<g>
</g>
<g>
</g>
<g>
</g>
</svg>
