<?xml version="1.0" encoding="iso-8859-1"?>
<!-- Generator: Adobe Illustrator 16.0.0, SVG Export Plug-In . SVG Version: 6.00 Build 0)  -->
<!DOCTYPE svg PUBLIC "-//W3C//DTD SVG 1.1//EN" "http://www.w3.org/Graphics/SVG/1.1/DTD/svg11.dtd">
<svg version="1.1" id="Layer_1" xmlns="http://www.w3.org/2000/svg" xmlns:xlink="http://www.w3.org/1999/xlink" x="0px" y="0px"
	 width="23.58px" height="31.156px" viewBox="0 0 23.58 31.156" style="enable-background:new 0 0 23.58 31.156;"
	 xml:space="preserve">
<g>
	<path d="M23.58,15.195c0,0-1.413,0.286-3.187,0.508l-0.84-3.626h0.647V6.036h-2.208V1.283h-2.35v4.753h-2.209v6.041h0.646
		l-0.837,3.621c-1.772-0.221-3.188-0.502-3.188-0.502v2.704c0,0,1.101,0.22,2.58,0.424l-2.562,11.059l0.736,0.17l-0.213,0.968
		l0.449,0.099l-0.089,0.41l0.255,0.056l0.09-0.41l0.545,0.12l0.209-0.956l0.812,0.188l2.684-11.409
		c0.441,0.026,0.879,0.042,1.301,0.042c0.401,0,0.813-0.015,1.23-0.038l2.683,11.404l0.808-0.187l0.224,1.024l0.545-0.119
		l0.09,0.409l0.255-0.056l-0.089-0.41l0.446-0.099l-0.226-1.038l0.74-0.172l-2.559-11.054c1.479-0.206,2.579-0.429,2.579-0.429
		V15.195z M14.129,6.729h5.379v4.653h-0.115h-2.137H16.38h-2.137h-0.114V6.729z M12.353,29.197l-1.445-0.334l2.419-10.45
		c0.49,0.06,1.005,0.114,1.527,0.157L12.353,29.197z M15.479,15.911c-0.517-0.033-1.037-0.078-1.541-0.132l0.856-3.702h1.586
		L15.479,15.911z M16.854,15.959c-0.22,0-0.444-0.005-0.672-0.013l0.637-2.704l0.637,2.707
		C17.251,15.956,17.05,15.959,16.854,15.959z M17.256,12.077h1.587l0.857,3.707c-0.504,0.055-1.024,0.1-1.541,0.132L17.256,12.077z
		 M22.729,28.863l-1.444,0.334l-2.499-10.622c0.521-0.042,1.036-0.096,1.526-0.156L22.729,28.863z"/>
	<path d="M0,30.581h7.729V0H0V30.581z M1.345,1.344h5.04v1.63H3.991v0.969h2.394V4.99H4.831v0.969h1.554v1.439H3.991v0.968h2.394
		v1.047H4.831v0.969h1.554v1.414H3.738v0.969h2.646v1.048H4.578v0.968h1.807v1.44H3.738v0.968h2.646v1.047H4.578v0.969h1.807v1.328
		H3.738v0.969h2.646v1.047H4.578v0.969h1.807v1.439H3.738v0.968h2.646v1.048H4.578v0.969h1.807v1.294h-5.04V1.344z"/>
</g>
<g>
</g>
<g>
</g>
<g>
</g>
<g>
</g>
<g>
</g>
<g>
</g>
<g>
</g>
<g>
</g>
<g>
</g>
<g>
</g>
<g>
</g>
<g>
</g>
<g>
</g>
<g>
</g>
<g>
</g>
</svg>
