<?xml version="1.0" encoding="iso-8859-1"?>
<!-- Generator: Adobe Illustrator 16.0.0, SVG Export Plug-In . SVG Version: 6.00 Build 0)  -->
<!DOCTYPE svg PUBLIC "-//W3C//DTD SVG 1.1//EN" "http://www.w3.org/Graphics/SVG/1.1/DTD/svg11.dtd">
<svg version="1.1" id="Layer_1" xmlns="http://www.w3.org/2000/svg" xmlns:xlink="http://www.w3.org/1999/xlink" x="0px" y="0px"
	 width="18.17px" height="27.206px" viewBox="0 0 18.17 27.206" style="enable-background:new 0 0 18.17 27.206;"
	 xml:space="preserve">
<g>
	<path d="M13.468,0H0v27.168l18.17,0.038V4.686L13.468,0z M17.016,26.05L1.153,26.017V1.154h11.104v5.213h4.759V26.05z
		 M17.016,5.214h-3.605V1.571l3.605,3.594V5.214z"/>
	<path d="M4.077,16.135L2.042,21.66h1.71L4,20.871h1.756l0.233,0.789h1.764l-2.012-5.525H4.077z M4.371,19.687l0.534-1.702H4.92
		l0.496,1.702H4.371z"/>
	<path d="M11.031,11.685c0.111-0.209,0.167-0.453,0.167-0.731c0-0.201-0.027-0.379-0.081-0.533
		c-0.054-0.155-0.125-0.289-0.213-0.399c-0.087-0.111-0.189-0.203-0.305-0.275c-0.117-0.072-0.236-0.129-0.36-0.17
		c0.207-0.114,0.372-0.252,0.495-0.418c0.124-0.165,0.187-0.388,0.187-0.666c0-0.139-0.024-0.29-0.07-0.453
		c-0.046-0.163-0.135-0.313-0.267-0.452c-0.131-0.139-0.312-0.254-0.542-0.345c-0.229-0.09-0.525-0.135-0.886-0.135H6.129v5.524
		h3.134c0.242,0,0.479-0.036,0.712-0.108c0.231-0.072,0.438-0.178,0.619-0.318C10.774,12.068,10.92,11.893,11.031,11.685z
		 M7.832,8.423h0.897c0.175,0,0.316,0.028,0.422,0.085C9.257,8.566,9.31,8.663,9.31,8.802c0,0.18-0.052,0.302-0.155,0.364
		C9.052,9.228,8.91,9.259,8.729,9.259H7.832V8.423z M9.441,11.054c-0.036,0.067-0.085,0.12-0.147,0.159
		c-0.062,0.039-0.133,0.066-0.213,0.081c-0.08,0.016-0.164,0.023-0.251,0.023H7.832v-1.029H8.9c0.397,0,0.596,0.167,0.596,0.502
		C9.496,10.899,9.477,10.987,9.441,11.054z"/>
	<path d="M11,15.134c-0.131,0.357-0.198,0.751-0.198,1.185c0,0.408,0.063,0.788,0.186,1.142c0.124,0.354,0.306,0.658,0.546,0.917
		c0.239,0.258,0.532,0.462,0.877,0.612c0.346,0.149,0.743,0.224,1.192,0.224c0.403,0,0.761-0.067,1.076-0.201
		c0.314-0.134,0.579-0.312,0.792-0.53s0.377-0.466,0.488-0.739c0.11-0.272,0.167-0.549,0.167-0.828h-1.671
		c-0.026,0.129-0.061,0.251-0.105,0.364c-0.043,0.114-0.1,0.212-0.17,0.295c-0.07,0.082-0.155,0.146-0.254,0.193
		c-0.102,0.046-0.225,0.069-0.368,0.069c-0.202,0-0.369-0.044-0.503-0.132c-0.134-0.087-0.241-0.204-0.321-0.347
		c-0.081-0.145-0.138-0.308-0.174-0.488c-0.037-0.18-0.055-0.364-0.055-0.549c0-0.187,0.018-0.369,0.055-0.549
		c0.036-0.181,0.093-0.343,0.174-0.487c0.08-0.145,0.187-0.261,0.321-0.348c0.134-0.089,0.302-0.131,0.503-0.131
		c0.175,0,0.319,0.033,0.429,0.099c0.111,0.067,0.2,0.145,0.267,0.232c0.067,0.089,0.113,0.178,0.139,0.267
		c0.026,0.091,0.044,0.162,0.054,0.213h1.656c-0.072-0.697-0.316-1.234-0.732-1.613c-0.415-0.379-1.004-0.571-1.767-0.577
		c-0.428,0-0.814,0.07-1.157,0.209c-0.343,0.139-0.637,0.336-0.882,0.588C11.32,14.474,11.132,14.779,11,15.134z"/>
</g>
<g>
</g>
<g>
</g>
<g>
</g>
<g>
</g>
<g>
</g>
<g>
</g>
<g>
</g>
<g>
</g>
<g>
</g>
<g>
</g>
<g>
</g>
<g>
</g>
<g>
</g>
<g>
</g>
<g>
</g>
</svg>
