<?xml version="1.0" encoding="iso-8859-1"?>
<!-- Generator: Adobe Illustrator 16.0.0, SVG Export Plug-In . SVG Version: 6.00 Build 0)  -->
<!DOCTYPE svg PUBLIC "-//W3C//DTD SVG 1.1//EN" "http://www.w3.org/Graphics/SVG/1.1/DTD/svg11.dtd">
<svg version="1.1" id="Layer_1" xmlns="http://www.w3.org/2000/svg" xmlns:xlink="http://www.w3.org/1999/xlink" x="0px" y="0px"
	 width="31.13px" height="29.807px" viewBox="0 0 31.13 29.807" style="enable-background:new 0 0 31.13 29.807;"
	 xml:space="preserve">
<g>
	<polygon points="4.702,4.686 20.522,4.686 20.522,17.892 21.709,17.892 21.709,3.499 3.515,3.499 3.515,28.345 11.07,28.345 
		11.07,27.159 4.702,27.159 	"/>
	<polygon points="1.188,1.186 17.007,1.186 17.007,2.483 18.193,2.483 18.193,0 0,0 0,24.845 2.571,24.845 2.571,23.659 
		1.188,23.659 	"/>
	<path d="M11.98,19.103v9.412h1.823v1.292h4.775v-1.292h6.758v1.292h4.776v-1.292h1.017v-9.412H11.98z M29.84,27.226H13.27v-6.834
		h16.57V27.226z"/>
	<path d="M15.037,25.56h1.259c0.244,0,0.429-0.188,0.429-0.428v-2.474c0-0.235-0.193-0.428-0.429-0.428h-1.259
		c-0.235,0-0.428,0.192-0.428,0.428v2.474C14.609,25.371,14.794,25.56,15.037,25.56z M15.037,22.658h1.259v2.474h-1.259V22.658z"/>
	<path d="M17.908,23.753h1.472v1.378c-0.124,0-0.214,0.085-0.214,0.214c0,0.116,0.086,0.214,0.214,0.214h0.214
		c0.129,0,0.216-0.098,0.216-0.214v-2.902c0-0.111-0.096-0.214-0.216-0.214h-1.686c-0.12,0-0.215,0.103-0.215,0.214v1.096
		C17.693,23.651,17.788,23.753,17.908,23.753z M18.122,22.658h1.258v0.668h-1.258V22.658z"/>
	<path d="M21.682,25.017h0.308c0.094,0,0.163,0,0.223-0.082c0.047-0.064,0.047-0.111,0.047-0.193v-0.24c0-0.082,0-0.128-0.047-0.193
		c-0.06-0.081-0.129-0.081-0.223-0.081h-0.308c-0.095,0-0.163,0-0.223,0.081c-0.047,0.064-0.047,0.111-0.047,0.193v0.24
		c0,0.082,0,0.129,0.047,0.193C21.519,25.017,21.587,25.017,21.682,25.017z"/>
	<path d="M21.682,23.561h0.308c0.094,0,0.163,0,0.223-0.081c0.047-0.064,0.047-0.112,0.047-0.193v-0.24c0-0.081,0-0.129-0.047-0.193
		c-0.06-0.082-0.129-0.082-0.223-0.082h-0.308c-0.095,0-0.163,0-0.223,0.082c-0.047,0.064-0.047,0.112-0.047,0.193v0.24
		c0,0.081,0,0.128,0.047,0.193C21.519,23.561,21.587,23.561,21.682,23.561z"/>
	<path d="M24.29,25.56h1.259c0.244,0,0.429-0.188,0.429-0.428v-2.474c0-0.235-0.192-0.428-0.429-0.428H24.29
		c-0.235,0-0.429,0.192-0.429,0.428v2.474C23.861,25.371,24.046,25.56,24.29,25.56z M24.29,22.658h1.259v2.474H24.29V22.658z"/>
	<path d="M27.374,25.56h1.259c0.243,0,0.429-0.188,0.429-0.428v-2.474c0-0.235-0.192-0.428-0.429-0.428h-1.259
		c-0.234,0-0.428,0.192-0.428,0.428v2.474C26.946,25.371,27.131,25.56,27.374,25.56z M27.374,22.658h1.259v2.474h-1.259V22.658z"/>
</g>
<g>
</g>
<g>
</g>
<g>
</g>
<g>
</g>
<g>
</g>
<g>
</g>
<g>
</g>
<g>
</g>
<g>
</g>
<g>
</g>
<g>
</g>
<g>
</g>
<g>
</g>
<g>
</g>
<g>
</g>
</svg>
