<?xml version="1.0" encoding="iso-8859-1"?>
<!-- Generator: Adobe Illustrator 16.0.0, SVG Export Plug-In . SVG Version: 6.00 Build 0)  -->
<!DOCTYPE svg PUBLIC "-//W3C//DTD SVG 1.1//EN" "http://www.w3.org/Graphics/SVG/1.1/DTD/svg11.dtd">
<svg version="1.1" id="Layer_1" xmlns="http://www.w3.org/2000/svg" xmlns:xlink="http://www.w3.org/1999/xlink" x="0px" y="0px"
	 width="20.312px" height="30.413px" viewBox="0 0 20.312 30.413" style="enable-background:new 0 0 20.312 30.413;"
	 xml:space="preserve">
<g>
	<path d="M15.057,0H0v30.37l20.312,0.043V5.239L15.057,0z M19.021,29.121L1.29,29.083V1.29h12.412v5.829h5.319V29.121z
		 M19.021,5.829h-4.03V1.756l4.03,4.018V5.829z"/>
	<rect x="10.496" y="9.375" width="6.519" height="1.129"/>
	<rect x="10.496" y="11.551" width="6.519" height="1.128"/>
	<rect x="3.594" y="13.889" width="13.42" height="1.128"/>
	<rect x="3.594" y="16.064" width="13.42" height="1.129"/>
	<rect x="3.594" y="18.12" width="13.42" height="1.128"/>
	<rect x="3.594" y="20.297" width="13.42" height="1.128"/>
	<rect x="3.594" y="22.634" width="13.42" height="1.128"/>
	<rect x="3.594" y="24.81" width="13.42" height="1.128"/>
	<circle cx="6.509" cy="6.222" r="2.212"/>
	<polygon points="9.146,8.767 8.724,8.767 8.18,8.767 7.363,8.767 6.547,9.745 5.704,8.767 4.842,8.767 4.227,8.767 3.752,8.767 
		3.594,12.679 9.257,12.679 	"/>
</g>
<g>
</g>
<g>
</g>
<g>
</g>
<g>
</g>
<g>
</g>
<g>
</g>
<g>
</g>
<g>
</g>
<g>
</g>
<g>
</g>
<g>
</g>
<g>
</g>
<g>
</g>
<g>
</g>
<g>
</g>
</svg>
