<?xml version="1.0" encoding="iso-8859-1"?>
<!-- Generator: Adobe Illustrator 16.0.0, SVG Export Plug-In . SVG Version: 6.00 Build 0)  -->
<!DOCTYPE svg PUBLIC "-//W3C//DTD SVG 1.1//EN" "http://www.w3.org/Graphics/SVG/1.1/DTD/svg11.dtd">
<svg version="1.1" id="Layer_1" xmlns="http://www.w3.org/2000/svg" xmlns:xlink="http://www.w3.org/1999/xlink" x="0px" y="0px"
	 width="31.671px" height="28.767px" viewBox="0 0 31.671 28.767" style="enable-background:new 0 0 31.671 28.767;"
	 xml:space="preserve">
<g>
	<polygon points="4.784,19.621 3.564,17.095 3.564,28.74 16.091,28.767 16.091,27.547 4.784,27.523 	"/>
	<path d="M21.565,6.736v0.631h1.221v-2.41L17.813,0H3.564v3.378h1.22V1.221h11.747v5.516H21.565z M17.751,1.663l3.814,3.801v0.052
		h-3.814V1.663z"/>
	<path d="M29.872,8.401L19.13,8.394c-0.032-0.002-0.088-0.006-0.161-0.006c-0.899,0-1.949,0.538-1.949,2.055V28.76h14.652V10.442
		C31.671,9.09,30.494,8.515,29.872,8.401z M30.692,27.736H17.999V10.442c0-0.254,0-1.031,0.97-1.031
		c0.046,0,0.078,0.003,0.083,0.003l10.687,0.003c0.181,0.042,0.954,0.267,0.954,1.024V27.736z"/>
	<rect x="19.138" y="16.355" width="4.618" height="1.28"/>
	<rect x="24.925" y="16.355" width="4.619" height="1.28"/>
	<rect x="19.193" y="18.745" width="1.859" height="1.966"/>
	<rect x="21.94" y="18.745" width="1.86" height="1.966"/>
	<rect x="24.785" y="18.745" width="1.86" height="1.966"/>
	<rect x="27.7" y="18.745" width="1.859" height="1.966"/>
	<rect x="19.193" y="21.508" width="1.86" height="1.966"/>
	<rect x="21.94" y="21.508" width="1.861" height="1.966"/>
	<rect x="24.731" y="21.508" width="1.86" height="1.966"/>
	<rect x="27.646" y="21.508" width="1.859" height="1.966"/>
	<rect x="19.13" y="24.271" width="1.859" height="1.965"/>
	<rect x="21.878" y="24.271" width="1.86" height="1.965"/>
	<rect x="24.785" y="24.271" width="1.86" height="1.965"/>
	<rect x="27.646" y="24.271" width="1.858" height="1.965"/>
	<path d="M29.544,11.127H19.13v3.777h10.414V11.127z M24.798,14.005h-0.529v-1.078h-0.415V12.54
		c0.064,0.002,0.127-0.004,0.188-0.017c0.061-0.014,0.116-0.036,0.166-0.067c0.049-0.031,0.09-0.074,0.12-0.126
		c0.032-0.053,0.05-0.118,0.053-0.195h0.417V14.005z M26.881,14.005h-1.534c-0.005-0.092,0.004-0.175,0.027-0.253
		c0.023-0.077,0.056-0.147,0.101-0.21c0.037-0.053,0.08-0.104,0.127-0.15c0.049-0.046,0.101-0.089,0.156-0.129
		c0.055-0.042,0.112-0.079,0.171-0.117c0.06-0.038,0.118-0.073,0.173-0.108c0.021-0.015,0.047-0.031,0.075-0.049
		c0.029-0.017,0.054-0.037,0.079-0.059c0.024-0.022,0.044-0.046,0.061-0.073c0.017-0.027,0.024-0.058,0.024-0.091
		c0-0.086-0.02-0.146-0.062-0.179c-0.041-0.033-0.091-0.049-0.151-0.049c-0.102,0-0.172,0.037-0.212,0.105
		c-0.04,0.072-0.059,0.164-0.055,0.278h-0.478c-0.007-0.128,0.005-0.243,0.038-0.344c0.032-0.1,0.081-0.186,0.147-0.253
		c0.065-0.069,0.147-0.122,0.242-0.158c0.096-0.036,0.204-0.054,0.322-0.054c0.106,0,0.205,0.012,0.293,0.037
		c0.089,0.024,0.166,0.062,0.229,0.109c0.064,0.049,0.113,0.11,0.147,0.184c0.035,0.075,0.052,0.162,0.052,0.26
		c0,0.12-0.024,0.221-0.074,0.303c-0.049,0.083-0.111,0.154-0.188,0.216c-0.076,0.063-0.16,0.118-0.252,0.168
		c-0.091,0.05-0.179,0.102-0.262,0.156v0.003h0.802V14.005z M28.537,13.626c-0.023,0.068-0.062,0.13-0.119,0.191
		c-0.057,0.058-0.133,0.109-0.229,0.149c-0.096,0.04-0.216,0.061-0.36,0.061c-0.132,0-0.244-0.015-0.336-0.044
		c-0.092-0.031-0.167-0.068-0.225-0.114c-0.059-0.047-0.103-0.099-0.134-0.155c-0.032-0.057-0.055-0.112-0.069-0.167
		c-0.014-0.055-0.021-0.105-0.022-0.15c0-0.044,0-0.079,0.001-0.102h0.483c-0.003,0.101,0.02,0.175,0.069,0.224
		c0.023,0.03,0.053,0.052,0.09,0.064c0.037,0.013,0.077,0.019,0.122,0.019c0.073,0,0.13-0.016,0.173-0.047
		c0.042-0.031,0.063-0.086,0.063-0.163c0-0.041-0.007-0.075-0.02-0.1c-0.014-0.025-0.032-0.043-0.053-0.058
		c-0.023-0.015-0.048-0.025-0.077-0.029c-0.028-0.003-0.058-0.007-0.086-0.007c-0.038,0-0.067,0.001-0.088,0.005
		c-0.021,0.002-0.042,0.005-0.06,0.009v-0.365c0.018,0.001,0.039,0.004,0.062,0.006c0.023,0.003,0.052,0.005,0.086,0.005
		c0.026,0,0.055-0.002,0.083-0.005c0.028-0.004,0.054-0.012,0.078-0.024c0.023-0.013,0.043-0.03,0.058-0.052
		c0.015-0.022,0.022-0.052,0.022-0.087c0-0.029-0.007-0.055-0.021-0.076c-0.014-0.021-0.033-0.039-0.055-0.051
		c-0.022-0.013-0.047-0.021-0.075-0.028c-0.028-0.006-0.055-0.009-0.08-0.009c-0.034,0-0.066,0.005-0.097,0.015
		c-0.031,0.01-0.057,0.024-0.079,0.044c-0.022,0.021-0.039,0.043-0.052,0.073c-0.013,0.028-0.018,0.063-0.017,0.102h-0.477
		c0.001-0.111,0.021-0.207,0.06-0.288c0.039-0.081,0.093-0.147,0.161-0.201c0.068-0.052,0.146-0.091,0.233-0.117
		c0.088-0.026,0.183-0.04,0.283-0.04c0.129,0,0.237,0.017,0.324,0.053c0.088,0.036,0.157,0.077,0.211,0.127
		c0.053,0.051,0.091,0.103,0.114,0.159c0.024,0.056,0.035,0.103,0.035,0.142c0,0.099-0.012,0.175-0.037,0.228
		c-0.024,0.053-0.051,0.092-0.08,0.117c-0.029,0.025-0.056,0.04-0.081,0.045c-0.024,0.006-0.037,0.01-0.037,0.012V13
		c0,0.003,0.007,0.007,0.021,0.01c0.014,0.003,0.032,0.011,0.053,0.021c0.021,0.01,0.045,0.024,0.071,0.041
		c0.025,0.017,0.048,0.041,0.069,0.073c0.021,0.031,0.04,0.07,0.053,0.119c0.014,0.046,0.022,0.105,0.022,0.175
		C28.572,13.495,28.561,13.558,28.537,13.626z"/>
	<path d="M11.383,25.28l-0.055-5.936L5.945,8.123L5.953,8.12l-1.73-3.592L0,6.561l1.73,3.592l0.006-0.002L7.095,21.28L11.383,25.28z
		 M8.869,21.233l0.126-1.266l1.154,0.65l0.568-1.586l0.177,0.366l0.029,3.388l-1.046,0.504L7.47,21.054l-0.244-0.507L8.869,21.233z
		 M1.806,8.298L1.166,6.97l2.65-1.275l0.641,1.329L1.806,8.298z"/>
</g>
<g>
</g>
<g>
</g>
<g>
</g>
<g>
</g>
<g>
</g>
<g>
</g>
<g>
</g>
<g>
</g>
<g>
</g>
<g>
</g>
<g>
</g>
<g>
</g>
<g>
</g>
<g>
</g>
<g>
</g>
</svg>
