<?xml version="1.0" encoding="iso-8859-1"?>
<!-- Generator: Adobe Illustrator 16.0.0, SVG Export Plug-In . SVG Version: 6.00 Build 0)  -->
<!DOCTYPE svg PUBLIC "-//W3C//DTD SVG 1.1//EN" "http://www.w3.org/Graphics/SVG/1.1/DTD/svg11.dtd">
<svg version="1.1" id="Layer_1" xmlns="http://www.w3.org/2000/svg" xmlns:xlink="http://www.w3.org/1999/xlink" x="0px" y="0px"
	 width="22.068px" height="30.477px" viewBox="0 0 22.068 30.477" style="enable-background:new 0 0 22.068 30.477;"
	 xml:space="preserve">
<g>
	<g>
		<path d="M17.368,3.271H3.9v27.168l18.168,0.038V7.956L17.368,3.271z M20.915,29.32L5.053,29.287V4.424h11.104v5.214h4.759V29.32z
			 M20.915,8.484h-3.604V4.841l3.604,3.594V8.484z"/>
		<rect x="7.16" y="11.656" width="11.96" height="1.01"/>
		<rect x="7.16" y="13.604" width="11.96" height="1.009"/>
		<rect x="7.138" y="7.788" width="7.552" height="1.009"/>
		<rect x="7.138" y="9.734" width="7.552" height="1.009"/>
		<rect x="7.114" y="15.694" width="12.006" height="1.01"/>
		<rect x="7.114" y="17.641" width="12.006" height="1.009"/>
		<rect x="7.114" y="19.479" width="12.006" height="1.01"/>
		<rect x="7.114" y="21.426" width="12.006" height="1.01"/>
		<rect x="7.114" y="23.517" width="12.006" height="1.01"/>
		<rect x="7.114" y="25.463" width="12.006" height="1.01"/>
	</g>
	<polygon points="1.154,1.154 12.258,1.154 12.258,2.166 13.411,2.166 13.411,1.571 14.008,2.166 15.642,2.166 13.469,0 0,0 
		0,27.168 2.689,27.173 2.689,26.02 1.154,26.017 	"/>
</g>
<g>
</g>
<g>
</g>
<g>
</g>
<g>
</g>
<g>
</g>
<g>
</g>
<g>
</g>
<g>
</g>
<g>
</g>
<g>
</g>
<g>
</g>
<g>
</g>
<g>
</g>
<g>
</g>
<g>
</g>
</svg>
