<?xml version="1.0" encoding="iso-8859-1"?>
<!-- Generator: Adobe Illustrator 16.0.0, SVG Export Plug-In . SVG Version: 6.00 Build 0)  -->
<!DOCTYPE svg PUBLIC "-//W3C//DTD SVG 1.1//EN" "http://www.w3.org/Graphics/SVG/1.1/DTD/svg11.dtd">
<svg version="1.1" id="Layer_1" xmlns="http://www.w3.org/2000/svg" xmlns:xlink="http://www.w3.org/1999/xlink" x="0px" y="0px"
	 width="29.272px" height="24.027px" viewBox="0 0 29.272 24.027" style="enable-background:new 0 0 29.272 24.027;"
	 xml:space="preserve">
<g>
	<path d="M29.272,0H0v21.346h10.521l-4.174,1.755v0.926H22.57v-0.926l-4.173-1.755h10.875V0z M26.967,17.82H2.305V2.915h24.662
		V17.82z"/>
	<path d="M15.85,9.845c-0.07-0.112-0.174-0.211-0.313-0.29c-0.139-0.08-0.329-0.12-0.57-0.12h-0.423v2.1h0.519
		c0.205,0,0.37-0.038,0.495-0.112c0.125-0.074,0.221-0.165,0.287-0.273c0.067-0.109,0.11-0.226,0.133-0.351
		c0.021-0.124,0.033-0.237,0.033-0.338c0-0.067-0.01-0.161-0.027-0.274C15.966,10.071,15.921,9.958,15.85,9.845z"/>
	<path d="M23.904,6.617H5.637v7.736h18.268V6.617z M12.646,10.482c-0.083,0.19-0.199,0.35-0.351,0.478
		c-0.15,0.125-0.329,0.22-0.536,0.283c-0.208,0.062-0.434,0.093-0.679,0.093h-0.784v1.303H8.969V8.331h2.22
		c0.295,0,0.542,0.047,0.743,0.143c0.2,0.096,0.364,0.218,0.489,0.363c0.125,0.145,0.214,0.303,0.268,0.476
		c0.056,0.174,0.081,0.337,0.081,0.49C12.77,10.064,12.729,10.291,12.646,10.482z M17.205,11.374
		c-0.088,0.268-0.223,0.496-0.404,0.683c-0.181,0.187-0.409,0.331-0.688,0.43c-0.277,0.102-0.602,0.152-0.976,0.152h-1.92V8.331
		h2.179c0.357,0,0.66,0.061,0.908,0.183c0.247,0.124,0.447,0.284,0.601,0.483c0.152,0.2,0.263,0.429,0.331,0.688
		c0.068,0.259,0.103,0.524,0.103,0.793C17.338,10.809,17.294,11.107,17.205,11.374z M21.242,9.435h-2.003v0.536h1.72v1.026h-1.72
		v1.641h-1.327V8.331h3.33V9.435z"/>
	<path d="M11.325,9.495C11.267,9.466,11.2,9.45,11.123,9.444c-0.076-0.007-0.155-0.009-0.235-0.009h-0.591v0.874h0.513
		c0.084,0,0.169-0.003,0.253-0.01c0.084-0.005,0.159-0.023,0.227-0.053c0.065-0.03,0.12-0.077,0.162-0.139
		c0.044-0.063,0.063-0.147,0.063-0.256c0-0.097-0.017-0.173-0.051-0.23C11.43,9.565,11.384,9.523,11.325,9.495z"/>
</g>
<g>
</g>
<g>
</g>
<g>
</g>
<g>
</g>
<g>
</g>
<g>
</g>
<g>
</g>
<g>
</g>
<g>
</g>
<g>
</g>
<g>
</g>
<g>
</g>
<g>
</g>
<g>
</g>
<g>
</g>
</svg>
