<?xml version="1.0" encoding="iso-8859-1"?>
<!-- Generator: Adobe Illustrator 16.0.0, SVG Export Plug-In . SVG Version: 6.00 Build 0)  -->
<!DOCTYPE svg PUBLIC "-//W3C//DTD SVG 1.1//EN" "http://www.w3.org/Graphics/SVG/1.1/DTD/svg11.dtd">
<svg version="1.1" id="Layer_1" xmlns="http://www.w3.org/2000/svg" xmlns:xlink="http://www.w3.org/1999/xlink" x="0px" y="0px"
	 width="18.838px" height="31.675px" viewBox="0 0 18.838 31.675" style="enable-background:new 0 0 18.838 31.675;"
	 xml:space="preserve">
<g>
	<path d="M18.83,25.884V7.938L15.737,0l-3.669,7.803l-0.027,18.081H12.03v5.791h6.808v-5.791H18.83z M17.569,30.406h-4.271v-2.144
		h4.271V30.406z M18.197,8.816l-1.72-1.935l-0.962,1.578l-1.101-1.578L12.671,8.6V8.008l2.096-4.454h1.686l1.745,4.443V8.816z"/>
	<path d="M9.689,9.786H0v4.73l0.046,0.09c0.01,0.017,0.863,1.695,0.863,3.013c0,1.322-0.86,3.151-0.869,3.169L0,20.875v5.154
		l3.493-0.002l0.119-0.221c0.018-0.032,0.431-0.782,1.231-0.782c0.823,0,1.339,0.799,1.343,0.806l0.122,0.198h3.381v-4.917
		l-0.033-0.159c-0.006-0.017-0.729-1.799-0.686-3.03c0.045-1.266,0.692-3.312,0.698-3.333L9.689,9.786z M8.851,14.398
		c-0.115,0.372-0.673,2.229-0.717,3.493c-0.046,1.27,0.567,2.919,0.717,3.301v3.997H6.756c-0.274-0.342-0.931-1.005-1.912-1.005
		c-0.975,0-1.575,0.65-1.83,1.005H0.839v-4.129c0.183-0.405,0.909-2.091,0.909-3.441c0-1.342-0.717-2.906-0.909-3.303v-3.693h8.012
		V14.398z"/>
	<path d="M7.119,11.331H2.552v12.191h4.567V11.331z M6.474,22.877H5.157v-4.114c0.181,0.103,0.386,0.167,0.607,0.167
		c0.265,0,0.509-0.085,0.709-0.227V22.877z M5.173,17.693c0-0.327,0.267-0.592,0.592-0.592c0.326,0,0.592,0.266,0.592,0.592
		c0,0.326-0.266,0.591-0.592,0.591C5.439,18.284,5.173,18.019,5.173,17.693z M6.474,16.683c-0.2-0.142-0.444-0.227-0.709-0.227
		c-0.222,0-0.427,0.064-0.607,0.167v-4.646h1.316V16.683z"/>
</g>
<g>
</g>
<g>
</g>
<g>
</g>
<g>
</g>
<g>
</g>
<g>
</g>
<g>
</g>
<g>
</g>
<g>
</g>
<g>
</g>
<g>
</g>
<g>
</g>
<g>
</g>
<g>
</g>
<g>
</g>
</svg>
