<?xml version="1.0" encoding="iso-8859-1"?>
<!-- Generator: Adobe Illustrator 16.0.0, SVG Export Plug-In . SVG Version: 6.00 Build 0)  -->
<!DOCTYPE svg PUBLIC "-//W3C//DTD SVG 1.1//EN" "http://www.w3.org/Graphics/SVG/1.1/DTD/svg11.dtd">
<svg version="1.1" id="Layer_1" xmlns="http://www.w3.org/2000/svg" xmlns:xlink="http://www.w3.org/1999/xlink" x="0px" y="0px"
	 width="28.028px" height="23.642px" viewBox="0 0 28.028 23.642" style="enable-background:new 0 0 28.028 23.642;"
	 xml:space="preserve">
<path d="M28.028,8.797V6.621H27.39V0L14.187,2.104L0.981,0v6.641H0v2.176h0.981v0.231H0v2.176h0.981v0.262H0v2.176h0.981v0.302H0
	v1.884h0.981v5.689l13.205,2.103l13.203-2.103V15.83h0.639v-1.884H27.39v-0.302h0.639v-2.177H27.39v-0.262h0.639V9.029H27.39V8.797
	H28.028z M13.587,22.333L2.18,20.516V15.85h1.1v-1.884h-1.1v-0.302h1.607v-2.176H2.18v-0.262h1.991V9.049H2.18V8.817h1.607V6.641
	H2.18V1.403l11.407,1.817V22.333z M26.19,9.029h-2.333v2.176h2.333v0.262h-1.95v2.177h1.95v0.302h-1.441v1.884h1.441v4.688
	l-11.406,1.817V3.222L26.19,1.404v5.217h-1.95v2.176h1.95V9.029z"/>
<g>
</g>
<g>
</g>
<g>
</g>
<g>
</g>
<g>
</g>
<g>
</g>
<g>
</g>
<g>
</g>
<g>
</g>
<g>
</g>
<g>
</g>
<g>
</g>
<g>
</g>
<g>
</g>
<g>
</g>
</svg>
