<?xml version="1.0" encoding="iso-8859-1"?>
<!-- Generator: Adobe Illustrator 16.0.0, SVG Export Plug-In . SVG Version: 6.00 Build 0)  -->
<!DOCTYPE svg PUBLIC "-//W3C//DTD SVG 1.1//EN" "http://www.w3.org/Graphics/SVG/1.1/DTD/svg11.dtd">
<svg version="1.1" id="Layer_1" xmlns="http://www.w3.org/2000/svg" xmlns:xlink="http://www.w3.org/1999/xlink" x="0px" y="0px"
	 width="31.205px" height="31.122px" viewBox="0 0 31.205 31.122" style="enable-background:new 0 0 31.205 31.122;"
	 xml:space="preserve">
<g>
	<g>
		<circle cx="8.286" cy="12.765" r="6.288"/>
		<polygon points="15.782,20.643 10.714,19.998 8.395,22.778 5.999,19.998 0.45,20.643 0,31.122 16.102,31.122 		"/>
	</g>
	<path d="M28.576,11.786v-0.584h-1.387v-1.08h-0.584v1.08H24.16v-1.08h-0.584v1.08H21.24v-1.08h-0.584v1.08h-2.372v-1.08H17.7v1.08
		h-2.134c0.042,0.192,0.073,0.387,0.101,0.584H17.7v1.846h-2.004c-0.022,0.197-0.052,0.392-0.089,0.584H17.7v1.146h0.584v-1.146
		h2.372v1.146h0.584v-1.146h2.335v1.146h0.584v-1.146h2.446v1.146h0.584v-1.146h1.387v-0.584h-1.387v-1.846H28.576z M20.656,13.632
		h-2.372v-1.846h2.372V13.632z M23.576,13.632H21.24v-1.846h2.335V13.632z M26.605,13.632H24.16v-1.846h2.446V13.632z"/>
	<path d="M25.875,0.584V0h-9.854v0.584h-5.331V5.78c0.405,0.137,0.798,0.302,1.168,0.502V1.751h4.162v0.584h9.854V1.751h4.161v14.1
		h-14.95c-0.185,0.41-0.404,0.801-0.657,1.168h16.775V0.584H25.875z"/>
	<path d="M28.463,6.884l-2.733,1.154l-0.408-2.137l-2.016,1.498l-0.483-3.922l-1.88,3.268l-0.606-1.753l-1.223,2.782l-1.806-3.453
		L13.89,7.913c0.129,0.146,0.251,0.298,0.369,0.455c0,0,0.001,0.001,0.001,0.002l2.907-3.055l1.99,3.807l1.113-2.53l0.538,1.556
		l1.647-2.863l0.393,3.183l2.073-1.541l0.369,1.932l3.398-1.435L28.463,6.884z"/>
</g>
<g>
</g>
<g>
</g>
<g>
</g>
<g>
</g>
<g>
</g>
<g>
</g>
<g>
</g>
<g>
</g>
<g>
</g>
<g>
</g>
<g>
</g>
<g>
</g>
<g>
</g>
<g>
</g>
<g>
</g>
</svg>
