<?xml version="1.0" encoding="iso-8859-1"?>
<!-- Generator: Adobe Illustrator 16.0.0, SVG Export Plug-In . SVG Version: 6.00 Build 0)  -->
<!DOCTYPE svg PUBLIC "-//W3C//DTD SVG 1.1//EN" "http://www.w3.org/Graphics/SVG/1.1/DTD/svg11.dtd">
<svg version="1.1" id="Layer_1" xmlns="http://www.w3.org/2000/svg" xmlns:xlink="http://www.w3.org/1999/xlink" x="0px" y="0px"
	 width="26.171px" height="31.711px" viewBox="0 0 26.171 31.711" style="enable-background:new 0 0 26.171 31.711;"
	 xml:space="preserve">
<g>
	<polygon points="23.031,23.261 17.361,27.742 20.503,31.711 21.997,27.777 26.171,27.232 	"/>
	<polygon points="7.391,25.05 11.325,26.545 11.87,30.718 15.841,27.578 11.361,21.909 	"/>
	<path d="M17.361,18.741c-1.758,0-3.19,1.431-3.19,3.189c0,1.76,1.432,3.19,3.19,3.19c1.759,0,3.191-1.431,3.191-3.19
		C20.553,20.172,19.121,18.741,17.361,18.741z M18.881,23.973l-1.52-0.801l-1.519,0.801l0.29-1.691l-1.229-1.199l1.699-0.246
		l0.759-1.539l0.76,1.539l1.699,0.246l-1.229,1.199L18.881,23.973z"/>
	<path d="M21.237,21.911c0-2.144-1.736-3.877-3.878-3.877c-2.139,0-3.875,1.733-3.875,3.877c0,2.14,1.736,3.873,3.875,3.873
		C19.5,25.784,21.237,24.051,21.237,21.911z M17.361,25.336c-1.877,0-3.405-1.527-3.405-3.405s1.528-3.405,3.405-3.405
		c1.879,0,3.405,1.527,3.405,3.405S19.24,25.336,17.361,25.336z"/>
</g>
<polygon points="18.458,0 18.252,0.02 18.234,0 0,0 0,28.131 10.642,28.131 10.351,26.868 1.263,26.868 1.263,1.263 17.385,1.263 
	17.385,6.288 22.327,6.288 22.327,21.519 23.59,22.535 23.59,7.569 23.59,5.355 23.59,5.133 "/>
<g>
	<path d="M2.903,8.38h3.198c0.423,0,0.779,0.069,1.069,0.209c0.29,0.139,0.524,0.313,0.704,0.521
		c0.18,0.209,0.309,0.438,0.387,0.687S8.377,10.28,8.377,10.5c0,0.377-0.059,0.702-0.178,0.978
		c-0.119,0.275-0.287,0.504-0.504,0.687c-0.217,0.183-0.475,0.318-0.773,0.408s-0.625,0.135-0.978,0.135h-1.13v1.877H2.903V8.38z
		 M4.814,11.229h0.739c0.122,0,0.243-0.004,0.365-0.013s0.23-0.034,0.326-0.078c0.095-0.043,0.174-0.11,0.234-0.2
		C6.54,10.85,6.57,10.726,6.57,10.569c0-0.139-0.025-0.249-0.074-0.33c-0.049-0.081-0.116-0.142-0.2-0.183
		c-0.084-0.04-0.181-0.064-0.291-0.073S5.782,9.97,5.666,9.97H4.814V11.229z"/>
	<path d="M9.02,8.38h5.135v1.59h-3.224v0.773h2.928v1.478h-2.928v0.773h3.319v1.59H9.02V8.38z"/>
	<path d="M16.588,9.97h-1.738V8.38h5.387v1.59H18.5v4.614h-1.912V9.97z"/>
</g>
<rect x="3.006" y="17.101" width="8.769" height="1.192"/>
<rect x="3.006" y="19.416" width="8.769" height="1.191"/>
<g>
</g>
<g>
</g>
<g>
</g>
<g>
</g>
<g>
</g>
<g>
</g>
<g>
</g>
<g>
</g>
<g>
</g>
<g>
</g>
<g>
</g>
<g>
</g>
<g>
</g>
<g>
</g>
<g>
</g>
</svg>
