<?xml version="1.0" encoding="iso-8859-1"?>
<!-- Generator: Adobe Illustrator 16.0.0, SVG Export Plug-In . SVG Version: 6.00 Build 0)  -->
<!DOCTYPE svg PUBLIC "-//W3C//DTD SVG 1.1//EN" "http://www.w3.org/Graphics/SVG/1.1/DTD/svg11.dtd">
<svg version="1.1" id="Layer_1" xmlns="http://www.w3.org/2000/svg" xmlns:xlink="http://www.w3.org/1999/xlink" x="0px" y="0px"
	 width="22.366px" height="28.983px" viewBox="0 0 22.366 28.983" style="enable-background:new 0 0 22.366 28.983;"
	 xml:space="preserve">
<g>
	<path d="M2.941,2.734v26.249h19.425V2.734H2.941z M21.077,27.693H4.231V4.023h16.845V27.693z"/>
	<polygon points="1.29,1.29 18.135,1.29 18.135,1.935 19.424,1.935 19.424,0 0,0 0,26.25 2.136,26.25 2.136,24.959 1.29,24.959 	"/>
	<path d="M9.005,24.57l0.648-4.995c0.391,1.327,0.764,2.55,0.764,2.55L9.99,25.477h2.715v-6.011l-1.467-2.78l0.41-0.103v-1.562
		c-1.583-0.497-2.75-1.908-2.88-3.619l1.085,0.156v0.662h2.846v-0.467h0.502v0.467h2.846v-0.646l0.904-0.14
		c-0.052,1.432-0.792,3.351-2.991,3.636v1.457h0.007l0.522,0.25l-1.432,2.579v6.12H14.5h1.369l-0.515-3.452
		c0,0,0.213-1.406,0.47-2.884l0.755,5.5l1.628-0.149l-0.854-7.718c0.093-0.674,0.399-1.731,0.445-2.788
		c0.079-1.802,0.184-7.746-5.006-7.746c-0.547,0-1.187,0.067-1.464,0.191C11.05,6.556,11,6.839,10.82,6.9
		c-0.188,0.064-0.453,0.038-0.617,0.117c-2.57,1.238-2.481,4.257-2.481,4.257l0.379,6.198l-0.723,6.948L9.005,24.57z M12.383,11.904
		h-2.213v-1.126h2.213V11.904z M15.73,11.904h-2.213v-1.126h2.213V11.904z M8.783,10.681c1.145-0.08,2.436-0.979,2.537-2.236
		c1.448,1.201,3.499,1.258,5.209,1.411c0.212,0.1,0.37,0.531,0.414,1.1l-0.895,0.139v-0.632h-2.846v0.658h-0.502v-0.658H9.853v0.616
		l-1.099-0.157C8.763,10.84,8.775,10.761,8.783,10.681z"/>
</g>
<g>
</g>
<g>
</g>
<g>
</g>
<g>
</g>
<g>
</g>
<g>
</g>
<g>
</g>
<g>
</g>
<g>
</g>
<g>
</g>
<g>
</g>
<g>
</g>
<g>
</g>
<g>
</g>
<g>
</g>
</svg>
