<?xml version="1.0" encoding="iso-8859-1"?>
<!-- Generator: Adobe Illustrator 16.0.0, SVG Export Plug-In . SVG Version: 6.00 Build 0)  -->
<!DOCTYPE svg PUBLIC "-//W3C//DTD SVG 1.1//EN" "http://www.w3.org/Graphics/SVG/1.1/DTD/svg11.dtd">
<svg version="1.1" id="Layer_1" xmlns="http://www.w3.org/2000/svg" xmlns:xlink="http://www.w3.org/1999/xlink" x="0px" y="0px"
	 width="26.301px" height="31.731px" viewBox="0 0 26.301 31.731" style="enable-background:new 0 0 26.301 31.731;"
	 xml:space="preserve">
<g>
	<path d="M0,0v31.731h26.301V0H0z M25.039,30.468H1.262V1.263h23.777V30.468z"/>
	<path d="M7.16,13.346H2.741v4.419H7.16V13.346z M5.898,16.502H4.004v-1.894h1.894V16.502z"/>
	<path d="M7.16,18.816H2.741v4.418H7.16V18.816z M5.898,21.973H4.004v-1.894h1.894V21.973z"/>
	<path d="M7.16,24.025H2.741v4.418H7.16V24.025z M5.898,27.181H4.004v-1.893h1.894V27.181z"/>
	<rect x="8.383" y="21.947" width="14.131" height="1.314"/>
	<rect x="8.383" y="16.477" width="14.131" height="1.315"/>
	<rect x="8.186" y="27.154" width="14.132" height="1.315"/>
	<polygon points="11.819,7.12 14.74,7.12 14.74,8.335 16.674,6.527 14.74,4.68 14.74,5.934 11.819,5.934 11.819,4.68 9.885,6.527 
		11.819,8.335 	"/>
	<circle cx="5.915" cy="4.362" r="2.237"/>
	<polygon points="8.582,6.933 8.156,6.933 7.605,6.933 6.779,6.933 5.954,7.923 5.102,6.933 4.229,6.933 3.608,6.933 3.127,6.933 
		2.968,10.89 8.694,10.89 	"/>
	<circle cx="20.013" cy="4.787" r="2.236"/>
	<polygon points="22.679,7.359 22.253,7.359 21.703,7.359 20.876,7.359 20.052,8.348 19.2,7.359 18.327,7.359 17.706,7.359 
		17.226,7.359 17.066,11.316 22.792,11.316 	"/>
</g>
<g>
</g>
<g>
</g>
<g>
</g>
<g>
</g>
<g>
</g>
<g>
</g>
<g>
</g>
<g>
</g>
<g>
</g>
<g>
</g>
<g>
</g>
<g>
</g>
<g>
</g>
<g>
</g>
<g>
</g>
</svg>
