<?xml version="1.0" encoding="iso-8859-1"?>
<!-- Generator: Adobe Illustrator 16.0.0, SVG Export Plug-In . SVG Version: 6.00 Build 0)  -->
<!DOCTYPE svg PUBLIC "-//W3C//DTD SVG 1.1//EN" "http://www.w3.org/Graphics/SVG/1.1/DTD/svg11.dtd">
<svg version="1.1" id="Layer_1" xmlns="http://www.w3.org/2000/svg" xmlns:xlink="http://www.w3.org/1999/xlink" x="0px" y="0px"
	 width="24.049px" height="29.942px" viewBox="0 0 24.049 29.942" style="enable-background:new 0 0 24.049 29.942;"
	 xml:space="preserve">
<g>
	<polygon points="11.158,10.494 8.961,11.837 10.446,11.828 11.83,11.611 12.753,11.621 13.794,11.826 15.514,11.837 13.539,10.494 
			"/>
	<path d="M23.608,6.871c0.33-0.329,0.503-0.805,0.42-1.3c-0.063-0.362-0.256-0.665-0.516-0.884c0.054-0.154,0.09-0.316,0.09-0.487
		c0-0.548-0.303-1.02-0.748-1.273c0.031-0.118,0.053-0.24,0.053-0.367c0-0.813-0.658-1.47-1.47-1.47
		c-0.448,0-0.845,0.205-1.113,0.521c-0.271-0.333-0.682-0.549-1.146-0.549c-0.664,0-1.22,0.44-1.408,1.043
		C16.263,0.802,14.262,0,12.063,0C9.807,0,7.757,0.842,6.239,2.204C6.017,1.666,5.486,1.289,4.87,1.289
		c-0.465,0-0.873,0.217-1.145,0.55C3.455,1.522,3.06,1.317,2.612,1.317c-0.814,0-1.471,0.657-1.471,1.47
		c0,0.127,0.021,0.25,0.052,0.366C0.75,3.406,0.447,3.878,0.447,4.425c0,0.172,0.035,0.335,0.089,0.488
		C0.274,5.132,0.083,5.436,0.021,5.798c-0.083,0.495,0.09,0.971,0.42,1.3C0.377,7.226,0.325,7.36,0.3,7.508
		C0.178,8.224,0.593,8.905,1.251,9.146c-0.002,0.032-0.01,0.063-0.01,0.095c0,0.82,0.664,1.484,1.484,1.484
		c0.491,0,0.924-0.242,1.193-0.609c0.996,3.36,4.265,5.835,8.144,5.835c3.917,0,7.21-2.525,8.168-5.938
		c0.272,0.297,0.659,0.486,1.093,0.486c0.82,0,1.484-0.664,1.484-1.484c0-0.032-0.008-0.063-0.01-0.095
		c0.658-0.242,1.073-0.922,0.951-1.639C23.725,7.133,23.672,6.999,23.608,6.871z M18.613,5.707V5.705l-0.964-0.018
		c0.002,0.006,0.003,0.014,0.006,0.02H12.97l0.038,0.411l-0.71-0.215l-0.834,0.252l0.04-0.448c0,0-5.648-0.009-5.651,0H5.845
		l0.095,1.032H4.944c0.228-1.142,0.759-2.185,1.521-3.049c0.543-0.23,1.347-0.458,2.496-0.544C9.23,3.124,7.89,4.348,8.193,4.334
		c0.772-0.024,3.438-1.023,3.747-1.064c0.311-0.039-1.012,0.896-0.67,0.929c1.216,0.084,2.797-0.824,4.685-0.709
		c0.82,0.05,1.489,0.298,1.997,0.563c0.673,0.879,1.125,1.912,1.283,3.031h-0.732l0.128-1.378H18.613z M18.038,6.247l-0.278,3.04
		h-3.918l-0.28-3.04H18.038z M10.912,6.247l-0.279,3.04H6.716l-0.279-3.04H10.912z M12.063,14.736c-3.996,0-7.245-3.033-7.245-6.761
		c0-0.184,0.014-0.364,0.029-0.543h1.156l0.221,2.394h4.901l0.24-2.597l0.933-0.283l0.809,0.247l0.245,2.634h4.899l0.188-2.047
		h0.857c0,0.066,0.01,0.131,0.01,0.196C19.307,11.704,16.057,14.736,12.063,14.736z"/>
	<polygon points="11.549,27.25 7.965,16.564 1.484,17.967 2.136,29.942 21.524,29.942 22.133,17.967 15.514,16.564 	"/>
	<polygon points="9.308,16.727 10.416,19.208 12.856,19.208 13.923,16.726 	"/>
	<polygon points="11.714,24.831 13.209,19.716 10.1,19.716 	"/>
</g>
<g>
</g>
<g>
</g>
<g>
</g>
<g>
</g>
<g>
</g>
<g>
</g>
<g>
</g>
<g>
</g>
<g>
</g>
<g>
</g>
<g>
</g>
<g>
</g>
<g>
</g>
<g>
</g>
<g>
</g>
</svg>
