<?xml version="1.0" encoding="iso-8859-1"?>
<!-- Generator: Adobe Illustrator 16.0.0, SVG Export Plug-In . SVG Version: 6.00 Build 0)  -->
<!DOCTYPE svg PUBLIC "-//W3C//DTD SVG 1.1//EN" "http://www.w3.org/Graphics/SVG/1.1/DTD/svg11.dtd">
<svg version="1.1" id="Layer_1" xmlns="http://www.w3.org/2000/svg" xmlns:xlink="http://www.w3.org/1999/xlink" x="0px" y="0px"
	 width="31.882px" height="29.323px" viewBox="0 0 31.882 29.323" style="enable-background:new 0 0 31.882 29.323;"
	 xml:space="preserve">
<g>
	<circle cx="28.857" cy="6.312" r="3.025"/>
	<polygon points="25.807,28.588 25.798,28.753 26.909,28.884 27.03,27.844 27.044,27.732 27.064,27.555 27.08,27.556 27.798,23.195 
		25.917,23.062 25.264,27.32 25.24,27.521 25.066,27.501 24.029,27.602 23.921,28.534 24.782,28.635 	"/>
	<polygon points="28.736,27.957 28.885,28.884 29.738,28.747 30.713,28.422 30.748,28.585 31.855,28.408 31.689,27.377 
		31.671,27.264 31.651,27.138 31.663,27.136 30.666,23.525 30.469,19.049 30.802,19.002 30.802,9.783 27.829,9.783 26.48,9.783 
		26.572,14.844 27.768,10.094 28.063,10.192 29.938,10.664 30.144,10.717 30.092,10.924 28.109,18.777 28.058,18.984 27.851,18.932 
		27.801,18.91 27.795,19.106 29.583,19.19 29.331,23.268 28.756,23.243 29.88,27.551 29.707,27.578 	"/>
	<path d="M29.252,19.412l-1.72-0.103l0.034-0.701l0.268,0.07l1.946-7.733l-1.724-0.451l-1.407,5.469l0.002,0.081l-0.542,2.183
		l0.456,0.119L26.147,18.5l-0.046,0.733l-1.933-0.138l-0.191,3.59l5.071,0.34L29.252,19.412z M27.106,19.198l-0.565-0.034
		l0.02-0.336l0.565,0.033L27.106,19.198z"/>
	<path d="M1.169,29.323h1.092v-9.124h12.998v9.124h1.093v-9.124h0.805v-1.755H4.238c0.496-0.163,1.034-0.688,1.044-1.421
		c0.012-0.641-0.251-1.143-0.851-1.244c-0.459-0.076-0.838,0.134-0.99,0.236c0.006-0.135,0.013-0.283,0.017-0.369
		c0.005-0.115,0.208-0.176,0.306-0.27c0.06-0.055-0.001-0.203-0.001-0.203S3.254,15.4,3.268,15.617
		c0.007,0.106,0.009,0.255,0.008,0.38c-0.143-0.095-0.444-0.25-0.869-0.229c-0.587,0.027-0.972,0.459-0.961,1.098
		c0.01,0.748,0.57,1.394,1.075,1.579H0v1.755h1.169V29.323z M2.1,16.963c0,0,0.148,0.374,0.302,0.605
		c0.152,0.232,0.414,0.417,0.414,0.417s-0.339-0.05-0.561-0.333C2.033,17.367,2.1,16.963,2.1,16.963z"/>
	<path d="M14.211,9.206c2.539,0,4.604-2.064,4.604-4.604C18.814,2.064,16.75,0,14.211,0c-2.538,0-4.604,2.064-4.604,4.603
		C9.607,7.142,11.673,9.206,14.211,9.206z M14.211,0.415c2.31,0,4.188,1.878,4.188,4.188s-1.878,4.188-4.188,4.188
		s-4.187-1.879-4.187-4.188S11.901,0.415,14.211,0.415z"/>
	<path d="M12.791,1.574l-0.169-0.338L12.436,1.33l0.172,0.339C12.667,1.635,12.729,1.604,12.791,1.574z"/>
	<path d="M10.848,4.672c0-0.07,0.007-0.139,0.012-0.207H10.38v0.416h0.479C10.854,4.813,10.848,4.743,10.848,4.672z"/>
	<path d="M14.504,1.235V0.758h-0.416v0.478c0.068-0.004,0.138-0.011,0.208-0.011S14.435,1.231,14.504,1.235z"/>
	<path d="M17.833,3.095L17.738,2.91l-0.377,0.191c0.032,0.062,0.063,0.123,0.092,0.188L17.833,3.095z"/>
	<path d="M16.504,1.543l-0.176-0.114l-0.207,0.323c0.059,0.037,0.117,0.075,0.173,0.115L16.504,1.543z"/>
	<path d="M11.471,2.699l-0.338-0.231L11.014,2.64l0.343,0.235C11.395,2.816,11.431,2.756,11.471,2.699z"/>
	<path d="M15.715,7.813l0.254,0.506l0.188-0.096l-0.254-0.5C15.841,7.755,15.778,7.783,15.715,7.813z"/>
	<path d="M17.577,6.915l-0.434-0.3c-0.039,0.059-0.083,0.111-0.125,0.168l0.44,0.304L17.577,6.915z"/>
	<path d="M17.744,4.672c0,0.071-0.007,0.141-0.012,0.209h0.479V4.465h-0.479C17.737,4.533,17.744,4.602,17.744,4.672z"/>
	<path d="M14.088,8.109v0.479h0.416V8.109c-0.069,0.004-0.138,0.012-0.208,0.012S14.156,8.113,14.088,8.109z"/>
	<path d="M12.567,7.652c-0.062-0.035-0.121-0.069-0.179-0.107l-0.301,0.467l0.176,0.112L12.567,7.652z"/>
	<path d="M11.219,6.225l-0.46,0.233l0.095,0.187l0.466-0.238C11.285,6.348,11.25,6.286,11.219,6.225z"/>
	<polygon points="14.15,4.878 16.389,4.878 16.389,4.467 14.442,4.467 14.442,1.599 14.149,1.599 14.149,4.467 14.149,4.603 
		14.149,4.787 12.413,6.693 12.459,6.734 	"/>
	<polygon points="11.305,29.323 11.305,24.389 12.039,24.389 12.039,23.463 5.813,23.463 5.813,24.389 6.512,24.389 6.512,29.323 
		7.046,29.323 7.046,24.389 10.771,24.389 10.771,29.323 	"/>
</g>
<g>
</g>
<g>
</g>
<g>
</g>
<g>
</g>
<g>
</g>
<g>
</g>
<g>
</g>
<g>
</g>
<g>
</g>
<g>
</g>
<g>
</g>
<g>
</g>
<g>
</g>
<g>
</g>
<g>
</g>
</svg>
