<?xml version="1.0" encoding="iso-8859-1"?>
<!-- Generator: Adobe Illustrator 16.0.0, SVG Export Plug-In . SVG Version: 6.00 Build 0)  -->
<!DOCTYPE svg PUBLIC "-//W3C//DTD SVG 1.1//EN" "http://www.w3.org/Graphics/SVG/1.1/DTD/svg11.dtd">
<svg version="1.1" id="Layer_1" xmlns="http://www.w3.org/2000/svg" xmlns:xlink="http://www.w3.org/1999/xlink" x="0px" y="0px"
	 width="31.764px" height="29.381px" viewBox="0 0 31.764 29.381" style="enable-background:new 0 0 31.764 29.381;"
	 xml:space="preserve">
<g>
	<path d="M28.831,18.609c0.902,0,1.634-0.73,1.634-1.633c0-0.904-0.731-1.633-1.634-1.633c-0.905,0-1.636,0.729-1.636,1.633
		C27.195,17.879,27.926,18.609,28.831,18.609z"/>
	<circle cx="19.976" cy="16.976" r="1.633"/>
	<circle cx="11.431" cy="16.82" r="1.633"/>
	<circle cx="2.927" cy="16.82" r="1.633"/>
	<circle cx="28.611" cy="22.083" r="2.351"/>
	<polygon points="31.632,25.431 29.738,24.785 28.87,25.826 27.977,24.785 25.899,25.431 25.899,29.316 31.764,29.316 	"/>
	<circle cx="19.976" cy="22.083" r="2.351"/>
	<polygon points="20.884,24.785 20.018,25.826 19.123,24.785 17.046,25.431 17.046,29.316 22.907,29.316 22.778,25.431 	"/>
	<circle cx="24.114" cy="18.803" r="1.718"/>
	<path d="M25.832,20.78h-0.419h-0.637l-0.631,0.762L23.49,20.78h-0.674h-0.377c0.175,0.402,0.273,0.841,0.273,1.303
		c0,0.754-0.266,1.448-0.699,2.013h4.245l-0.002-0.106c-0.306-0.579-0.521-1.206-0.521-1.906c0-0.462,0.125-0.889,0.265-1.304
		H25.832z"/>
	<circle cx="11.565" cy="22.15" r="2.351"/>
	<polygon points="12.473,24.851 11.604,25.891 10.709,24.851 8.635,25.495 8.635,29.381 14.496,29.381 14.366,25.495 	"/>
	<circle cx="15.702" cy="18.869" r="1.72"/>
	<path d="M17.846,24.056c-0.306-0.578-0.52-1.207-0.52-1.906c0-0.46,0.124-0.888,0.264-1.304h-0.167h-0.419h-0.638l-0.634,0.762
		l-0.654-0.762h-0.673h-0.377c0.175,0.403,0.275,0.841,0.275,1.302c0,0.756-0.267,1.448-0.703,2.015h4.247L17.846,24.056z"/>
	<path d="M2.931,24.5c1.296,0,2.349-1.054,2.349-2.351c0-1.297-1.053-2.351-2.349-2.351c-1.301,0-2.354,1.054-2.354,2.351
		C0.577,23.446,1.63,24.5,2.931,24.5z"/>
	<polygon points="3.838,24.851 2.971,25.891 2.074,24.851 0,25.495 0,29.381 5.862,29.381 5.731,25.495 	"/>
	<circle cx="7.068" cy="18.869" r="1.72"/>
	<path d="M9.214,24.163l-0.002-0.107c-0.306-0.578-0.521-1.207-0.521-1.906c0-0.46,0.125-0.888,0.264-1.304H8.789H8.367H7.732
		l-0.634,0.762l-0.655-0.762H5.77H5.396c0.173,0.403,0.271,0.841,0.271,1.302c0,0.756-0.265,1.448-0.701,2.015H9.214z"/>
	<path d="M5.871,6.602c1.825,0,3.303-1.478,3.303-3.301S7.696,0,5.871,0c-1.82,0-3.299,1.478-3.299,3.301S4.051,6.602,5.871,6.602z"
		/>
	<path d="M2.932,14.435H8.9l0.289-5.624l4.633-0.611c0.242,0.204,0.547,0.332,0.882,0.332c0.742,0,1.344-0.602,1.41-1.371
		l1.806,0.882V1.197l-4.817,2.374h-1.672v2.082h1.598l0.657,0.321c-0.167,0.181-0.287,0.407-0.351,0.658L9.193,7.098h-2.12
		L5.815,8.558L4.599,7.098L1.938,7.743l-0.184,5.784h1.132L2.932,14.435z"/>
	<path d="M19.305,6.797l0.457,0.456c0.54-0.611,0.881-1.406,0.881-2.286c0-0.899-0.353-1.712-0.917-2.329l-0.457,0.456
		c0.448,0.5,0.729,1.152,0.729,1.873C19.997,5.669,19.73,6.304,19.305,6.797z"/>
	<path d="M20.285,7.776l0.455,0.457c0.791-0.862,1.277-2.006,1.277-3.265c0-1.279-0.501-2.44-1.314-3.306l-0.456,0.456
		c0.696,0.749,1.126,1.749,1.126,2.85C21.373,6.048,20.958,7.032,20.285,7.776z"/>
	<path d="M21.15,8.643l0.456,0.456c1.012-1.084,1.637-2.535,1.637-4.131c0-1.617-0.64-3.084-1.675-4.172l-0.455,0.456
		c0.919,0.971,1.485,2.278,1.485,3.716C22.599,6.387,22.047,7.676,21.15,8.643z"/>
</g>
<g>
</g>
<g>
</g>
<g>
</g>
<g>
</g>
<g>
</g>
<g>
</g>
<g>
</g>
<g>
</g>
<g>
</g>
<g>
</g>
<g>
</g>
<g>
</g>
<g>
</g>
<g>
</g>
<g>
</g>
</svg>
