<?xml version="1.0" encoding="iso-8859-1"?>
<!-- Generator: Adobe Illustrator 16.0.0, SVG Export Plug-In . SVG Version: 6.00 Build 0)  -->
<!DOCTYPE svg PUBLIC "-//W3C//DTD SVG 1.1//EN" "http://www.w3.org/Graphics/SVG/1.1/DTD/svg11.dtd">
<svg version="1.1" id="Layer_1" xmlns="http://www.w3.org/2000/svg" xmlns:xlink="http://www.w3.org/1999/xlink" x="0px" y="0px"
	 width="20.647px" height="31.867px" viewBox="0 0 20.647 31.867" style="enable-background:new 0 0 20.647 31.867;"
	 xml:space="preserve">
<g>
	<path d="M1.273,9.472c0.023,0,0.048-0.009,0.071-0.012c0.703,3.951,4.069,7.95,8.281,7.95c4.133,0,7.46-3.782,8.291-7.624
		c0.07,0.025,0.145,0.041,0.219,0.041c0.567,0,1.026-0.768,1.026-1.715c0-0.946-0.459-1.714-1.026-1.714
		c-0.06,0-0.117,0.013-0.175,0.029C17.9,6.14,17.825,5.858,17.734,5.584c0.05,0.008,0.101,0.015,0.153,0.015
		c0.548,0,0.993-0.444,0.993-0.993c0-0.234-0.083-0.445-0.22-0.615c0.139-0.207,0.22-0.455,0.22-0.723
		c0-0.432-0.212-0.813-0.535-1.049c-0.056-0.706-0.605-1.266-1.308-1.334C16.805,0.534,16.405,0.3,15.95,0.3
		c-0.374,0-0.71,0.16-0.948,0.412c-0.129-0.061-0.271-0.099-0.426-0.099c-0.325,0-0.611,0.16-0.793,0.402
		C12.563,0.372,11.16,0,9.664,0C8.303,0,7.02,0.312,5.88,0.853C5.698,0.621,5.42,0.469,5.103,0.469
		c-0.153,0-0.297,0.037-0.425,0.099C4.438,0.315,4.104,0.156,3.73,0.156c-0.457,0-0.856,0.234-1.09,0.586
		C1.939,0.811,1.389,1.37,1.334,2.076C1.011,2.314,0.799,2.693,0.799,3.125c0,0.268,0.08,0.516,0.219,0.723
		C0.882,4.017,0.799,4.229,0.799,4.462c0,0.5,0.37,0.909,0.851,0.979C1.575,5.648,1.514,5.859,1.457,6.073
		c-0.06-0.018-0.121-0.031-0.184-0.031c-0.567,0-1.028,0.768-1.028,1.715C0.245,8.705,0.706,9.472,1.273,9.472z M11.976,15.669
		c-0.347,0.153-0.702,0.276-1.071,0.363v-0.917H8.651v0.978c-0.323-0.061-0.64-0.147-0.946-0.262v-3.019h4.271V15.669z
		 M13.19,14.971v-3.372H6.488v3.629c-2.408-1.521-4.069-4.582-4.069-7.253c0-0.157,0.015-0.312,0.025-0.466h0.975l0.198,2.165h5.181
		l0.238-2.599l1.466-0.031l0.243,2.63h5.179l0.148-1.628h0.833C16.878,10.554,15.391,13.392,13.19,14.971z M4.136,6.095h4.144
		L8.027,8.832H4.389L4.136,6.095z M11.262,6.095h4.144l-0.252,2.736h-3.64L11.262,6.095z M16.82,6.972h-0.649l0.145-1.556
		l-0.001-0.115C16.559,5.826,16.727,6.388,16.82,6.972z M16.289,5.25l-1.311-0.021l0.007,0.021h-4.648l0.038,0.415L9.163,5.695
		l0.041-0.444H9.038c0,0-2.512-0.004-4.186-0.004c-0.931,0-1.311,0-1.474,0.022L3.211,5.251L3.32,6.435H2.617
		c0.749-2.987,3.62-5.219,7.047-5.219C12.619,1.216,15.163,2.877,16.289,5.25z"/>
	<rect x="9.194" y="10.001" width="1.291" height="0.608"/>
	<polygon points="14.029,18.487 10.064,29.173 6.483,18.487 0,19.891 0.65,31.867 20.041,31.867 20.647,19.891 	"/>
	<polygon points="7.823,18.651 8.933,21.132 11.372,21.132 12.439,18.65 	"/>
	<polygon points="10.229,26.753 11.725,21.641 8.615,21.641 	"/>
</g>
<g>
</g>
<g>
</g>
<g>
</g>
<g>
</g>
<g>
</g>
<g>
</g>
<g>
</g>
<g>
</g>
<g>
</g>
<g>
</g>
<g>
</g>
<g>
</g>
<g>
</g>
<g>
</g>
<g>
</g>
</svg>
