<?xml version="1.0" encoding="iso-8859-1"?>
<!-- Generator: Adobe Illustrator 16.0.0, SVG Export Plug-In . SVG Version: 6.00 Build 0)  -->
<!DOCTYPE svg PUBLIC "-//W3C//DTD SVG 1.1//EN" "http://www.w3.org/Graphics/SVG/1.1/DTD/svg11.dtd">
<svg version="1.1" id="Layer_1" xmlns="http://www.w3.org/2000/svg" xmlns:xlink="http://www.w3.org/1999/xlink" x="0px" y="0px"
	 width="22.009px" height="32.188px" viewBox="0 0 22.009 32.188" style="enable-background:new 0 0 22.009 32.188;"
	 xml:space="preserve">
<g>
	<rect x="10.438" y="10.103" width="1.305" height="0.614"/>
	<polygon points="15.322,18.674 11.319,29.466 7.7,18.674 1.152,20.091 1.811,32.188 21.396,32.188 22.009,20.091 	"/>
	<polygon points="9.055,18.839 10.174,21.345 12.64,21.345 13.717,18.837 	"/>
	<polygon points="11.485,27.023 12.997,21.857 9.855,21.857 	"/>
	<path d="M6.281,16.435c1.118,0.886,2.886,2.157,4.975,2.056c0.949-0.046,3.422-0.64,4.217-1.262
		c0.796-0.622,3.391-3.626,3.278-5.622c1.196,0.266,3.078,0.17,3.078,0.17s-1.71-8.966-5.472-9.973
		c0.005,0.017,0.007,0.039,0.012,0.058C14.889,0.7,12.987,0,10.914,0c-1.78,0-3.437,0.518-4.806,1.399
		C1.839,1.404,0,11.721,0,11.721l2.792,0.171C2.792,11.892,5.165,15.549,6.281,16.435z M16.181,9.11h-3.434L12.51,6.533h3.908
		L16.181,9.11z M9.423,9.11H5.988L5.751,6.533H9.66L9.423,9.11z M5.131,8.726l0.11,1.202h4.929l0.229-2.5l0.743-0.224l0.624,0.189
		L12,9.928h4.928l0.128-1.381h0.742c-0.17,1.512-0.753,3.142-1.897,4.257c-0.384,0.347-0.839,0.711-1.354,1.042v-1.955H7.966v2.276
		c-0.258-0.132-0.519-0.281-0.784-0.452c-2.021-1.253-2.698-3.16-2.757-4.989L5.131,8.726z M13.626,14.357
		c-1.296,0.608-2.891,0.879-4.74,0.208v-1.752h4.74V14.357z M16.395,3.547c-0.185,0.246-0.761,0.461-0.761,0.461
		s1.179,0.361,1.578,0.988c0.342,0.445,0.561,1.216,0.618,2.127h-0.644l0.127-1.381h-5.699l0.028,0.302l-0.501-0.152L10.524,6.08
		l0.032-0.337h-5.7l0.143,1.56H4.495C4.615,6.363,4.857,5.5,5.113,4.834C5.419,4.04,6.324,3.426,6.324,3.426H5.55
		c1.337-1.349,3.244-2.199,5.364-2.199C13.097,1.228,15.054,2.128,16.395,3.547z"/>
</g>
<g>
</g>
<g>
</g>
<g>
</g>
<g>
</g>
<g>
</g>
<g>
</g>
<g>
</g>
<g>
</g>
<g>
</g>
<g>
</g>
<g>
</g>
<g>
</g>
<g>
</g>
<g>
</g>
<g>
</g>
</svg>
