<?xml version="1.0" encoding="iso-8859-1"?>
<!-- Generator: Adobe Illustrator 16.0.0, SVG Export Plug-In . SVG Version: 6.00 Build 0)  -->
<!DOCTYPE svg PUBLIC "-//W3C//DTD SVG 1.1//EN" "http://www.w3.org/Graphics/SVG/1.1/DTD/svg11.dtd">
<svg version="1.1" id="Layer_1" xmlns="http://www.w3.org/2000/svg" xmlns:xlink="http://www.w3.org/1999/xlink" x="0px" y="0px"
	 width="31.313px" height="30.387px" viewBox="0 0 31.313 30.387" style="enable-background:new 0 0 31.313 30.387;"
	 xml:space="preserve">
<g>
	<polygon points="2.932,0 2.932,2.953 4.22,2.555 4.22,1.289 30.023,1.289 30.023,17.737 9.491,17.737 9.423,19.027 31.313,19.027 
		31.313,0 	"/>
	<circle cx="4.984" cy="7.063" r="3.822"/>
	<path d="M8.228,28.641v-6.802v-0.642v-0.87h0.243l0.354-6.905l6.59-3.415l-0.276-0.536l0.628-0.435
		c0.061,0.034,0.13,0.057,0.207,0.057c0.108,0,0.229-0.041,0.325-0.148c-0.101,1.297-0.217,2.553-0.217,2.932
		c0,0.466,0.162,0.675,0.702,0.675h0.371c0.081,0,0.103-0.027,0.107-0.102c0.021-0.189,0.279-3.749,0.279-4.126
		c0-0.331-0.203-0.568-0.697-0.568h-0.405c-0.014,0-0.229,0.142-0.378,0.229c-0.574,0.352-0.614,0.386-0.614,0.473
		c0,0.057,0.012,0.123,0.031,0.189l-0.565,0.391l-0.364-0.702l-6.024,3.122H6.375l-1.456,1.69l-1.411-1.69L0.41,12.074l-0.195,6.828
		h1.312l0.07,1.426h0.199v0.87v0.642v6.802H1.534L0,28.974v1.414h1.306l1.524-0.25l0.012,0.25H4.53v-1.575v-0.171v-6.802h0.962
		v6.802v0.171v1.575h1.688l0.015-0.25l1.523,0.25h1.307v-1.414L8.49,28.641H8.228z"/>
	<path d="M19.427,2.981c-0.088,0-0.122,0.024-0.163,0.147c-0.231,0.699-0.265,0.797-0.644,1.594
		c-0.349-1.096-0.206-0.649-0.379-1.219c-0.088-0.291-0.183-0.526-0.728-0.526c-0.226,0-0.33,0.039-0.33,0.103
		c0,0.124,0.408,1.008,0.625,1.5c0.144,0.319,0.173,0.378,0.281,0.575c-0.045,0.526-0.055,0.738-0.055,0.851
		c0,0.32,0.118,0.472,0.511,0.472h0.271c0.059,0,0.073-0.02,0.078-0.074c0.015-0.132,0.059-0.762,0.069-1.072
		c0.417-0.433,1.146-1.716,1.146-2.041C20.11,2.996,19.49,2.981,19.427,2.981z"/>
	<path d="M21.438,3.724c-1.268,0-1.459,1.156-1.459,1.653c0,0.895,0.629,1.151,1.199,1.151c0.438,0,0.965-0.152,0.965-0.537
		c0-0.295-0.31-0.349-0.374-0.349c-0.138,0-0.133,0.271-0.477,0.271c-0.336,0-0.469-0.25-0.469-0.502
		c0.32,0,1.541-0.049,1.541-0.949C22.365,4.058,22.123,3.724,21.438,3.724z M20.839,5.017c0.035-0.28,0.144-0.639,0.434-0.639
		c0.166,0,0.251,0.124,0.251,0.256C21.523,4.875,21.242,5.012,20.839,5.017z"/>
	<path d="M22.513,5.873c0,0.477,0.319,0.654,0.714,0.654c0.408,0,0.644-0.202,0.802-0.428c0.05,0.266,0.197,0.428,0.513,0.428
		c0.45,0,0.589-0.349,0.589-0.64c0-0.103-0.29,0.005-0.29-0.324c0-0.148,0.083-0.827,0.083-0.974c0-0.551-0.31-0.865-1.037-0.865
		c-0.754,0-1.127,0.334-1.127,0.747c0,0.261,0.168,0.379,0.503,0.379c0.098,0,0.138-0.01,0.152-0.069
		c0.058-0.236,0.103-0.398,0.379-0.398c0.244,0,0.304,0.133,0.304,0.344c0,0.068-0.005,0.113-0.009,0.182
		C23.06,4.934,22.513,5.288,22.513,5.873z M23.586,5.873c-0.108,0-0.227-0.049-0.227-0.202c0-0.261,0.339-0.359,0.684-0.359
		C24.014,5.686,23.797,5.873,23.586,5.873z"/>
	<path d="M27.021,4.948c0.345,0,0.565-0.3,0.565-0.653c0-0.395-0.28-0.571-0.537-0.571c-0.211,0-0.511,0.118-0.664,0.423
		c-0.024-0.201-0.133-0.374-0.505-0.374h-0.193c-0.054,0-0.099,0.049-0.103,0.143c-0.104,1.446-0.147,1.894-0.147,2.095
		c0,0.3,0.099,0.467,0.501,0.467h0.178c0.054,0,0.108-0.035,0.108-0.099c0-0.113,0.063-0.836,0.093-1.254
		c0.034-0.477,0.162-0.719,0.346-0.719c0.116,0,0.146,0.104,0.146,0.247c0,0.078-0.009,0.147-0.009,0.231
		C26.8,4.934,26.946,4.948,27.021,4.948z"/>
	<path d="M18.088,11.303c0,0.764,0.566,1.318,1.594,1.318c1.426,0,1.972-1.075,1.972-1.811c0-0.425-0.183-0.722-0.588-0.925
		c0.419-0.277,0.541-0.622,0.541-0.979c0-0.622-0.366-1.208-1.473-1.208c-1.297,0-1.776,0.81-1.776,1.513
		c0,0.459,0.202,0.743,0.454,0.85C18.323,10.377,18.088,10.803,18.088,11.303z M20.093,8.642c0.257,0,0.372,0.162,0.372,0.378
		c0,0.25-0.094,0.669-0.508,0.669c-0.222,0-0.35-0.114-0.35-0.406C19.607,9.067,19.694,8.642,20.093,8.642z M19.971,10.31
		c0.231,0,0.393,0.102,0.393,0.453c0,0.271-0.095,0.804-0.567,0.804c-0.271,0-0.419-0.169-0.419-0.514
		C19.377,10.81,19.451,10.31,19.971,10.31z"/>
	<path d="M22.268,8.23l-0.021,0.378c0,0.074,0,0.095,0.073,0.095h1.607c-0.067,0.135-0.074,0.223-1.081,2.081
		c-0.492,0.904-0.627,1.155-0.627,1.337c0,0.284,0.316,0.433,0.764,0.433h0.243c0.073,0,0.113-0.041,0.14-0.102
		c0.48-1.114,0.616-1.357,1.899-3.945c0.034-0.067,0.066-0.142,0.081-0.29l0.027-0.365c0-0.067-0.056-0.095-0.108-0.095h-2.512
		C22.335,7.757,22.279,8,22.268,8.23z"/>
	<path d="M25.98,11.255h1.572c-0.026,0.459-0.033,0.655-0.033,0.724c0,0.364,0.209,0.574,0.703,0.574h0.371
		c0.08,0,0.102-0.027,0.107-0.102c0.021-0.189,0.263-3.431,0.263-4.053c0-0.412-0.106-0.642-0.681-0.642h-0.371
		c-0.148,0-0.104,0.047-0.136,0.676c-0.013,0.27-0.095,1.256-0.149,1.891h-0.903c0.304-1.195,0.412-1.641,0.412-1.972
		c0-0.425-0.163-0.594-0.677-0.594h-0.305c-0.101,0-0.106,0.169-0.106,0.277c0,0.358-0.096,0.723-0.271,1.358
		c-0.264,0.945-0.378,1.256-0.378,1.465C25.399,11.148,25.629,11.255,25.98,11.255z"/>
	<rect x="23.636" y="14.781" width="5.051" height="1.878"/>
</g>
<g>
</g>
<g>
</g>
<g>
</g>
<g>
</g>
<g>
</g>
<g>
</g>
<g>
</g>
<g>
</g>
<g>
</g>
<g>
</g>
<g>
</g>
<g>
</g>
<g>
</g>
<g>
</g>
<g>
</g>
</svg>
