<?xml version="1.0" encoding="iso-8859-1"?>
<!-- Generator: Adobe Illustrator 16.0.0, SVG Export Plug-In . SVG Version: 6.00 Build 0)  -->
<!DOCTYPE svg PUBLIC "-//W3C//DTD SVG 1.1//EN" "http://www.w3.org/Graphics/SVG/1.1/DTD/svg11.dtd">
<svg version="1.1" id="Layer_1" xmlns="http://www.w3.org/2000/svg" xmlns:xlink="http://www.w3.org/1999/xlink" x="0px" y="0px"
	 width="31.85px" height="26.134px" viewBox="0 0 31.85 26.134" style="enable-background:new 0 0 31.85 26.134;"
	 xml:space="preserve">
<g>
	<path d="M5.142,14.16c0.011-0.623-0.244-1.111-0.827-1.21c-0.447-0.075-0.816,0.13-0.965,0.229
		c0.006-0.131,0.013-0.275,0.017-0.358c0.005-0.112,0.203-0.172,0.298-0.263c0.058-0.054-0.001-0.197-0.001-0.197
		s-0.495,0.22-0.482,0.431c0.007,0.104,0.008,0.248,0.008,0.37c-0.139-0.093-0.433-0.243-0.847-0.225
		c-0.571,0.027-0.945,0.448-0.935,1.07c0.01,0.728,0.555,1.355,1.046,1.536H0v1.708h1.139v8.882h1.063v-8.882h12.652v8.882h1.063
		v-8.882H16.7v-1.708H4.126C4.608,15.385,5.133,14.873,5.142,14.16z M2.195,14.773c-0.216-0.278-0.151-0.671-0.151-0.671
		s0.145,0.363,0.293,0.589c0.149,0.227,0.404,0.406,0.404,0.406S2.411,15.049,2.195,14.773z"/>
	<path d="M27.368,0c-2.471,0-4.48,2.009-4.48,4.48c0,2.471,2.01,4.48,4.48,4.48c2.472,0,4.481-2.01,4.481-4.48
		C31.85,2.009,29.84,0,27.368,0z M27.368,8.557c-2.248,0-4.075-1.828-4.075-4.076s1.827-4.076,4.075-4.076s4.076,1.828,4.076,4.076
		S29.616,8.557,27.368,8.557z"/>
	<path d="M25.986,1.531l-0.165-0.328L25.64,1.295l0.167,0.329C25.865,1.591,25.927,1.561,25.986,1.531z"/>
	<path d="M24.095,4.548c0-0.068,0.007-0.135,0.011-0.202H23.64v0.406h0.466C24.102,4.684,24.095,4.617,24.095,4.548z"/>
	<path d="M27.653,1.202V0.737h-0.405v0.465c0.067-0.003,0.135-0.01,0.203-0.01S27.586,1.199,27.653,1.202z"/>
	<path d="M30.895,3.013l-0.092-0.181l-0.367,0.187c0.03,0.061,0.061,0.12,0.089,0.183L30.895,3.013z"/>
	<path d="M29.228,1.705c0.058,0.036,0.114,0.073,0.169,0.112L29.6,1.502l-0.17-0.111L29.228,1.705z"/>
	<path d="M24.257,2.569l0.333,0.229c0.037-0.057,0.071-0.115,0.11-0.17l-0.328-0.226L24.257,2.569z"/>
	<path d="M28.832,7.605l0.248,0.491l0.182-0.093l-0.247-0.487C28.955,7.548,28.894,7.576,28.832,7.605z"/>
	<path d="M30.101,6.603l0.429,0.296l0.115-0.168l-0.422-0.291C30.185,6.496,30.143,6.548,30.101,6.603z"/>
	<path d="M30.797,4.346c0.004,0.067,0.011,0.134,0.011,0.202c0,0.069-0.007,0.136-0.011,0.204h0.465V4.346H30.797z"/>
	<path d="M27.248,7.895v0.465h0.405V7.895c-0.067,0.003-0.134,0.01-0.202,0.01S27.315,7.897,27.248,7.895z"/>
	<path d="M25.302,7.799l0.171,0.109l0.296-0.46c-0.06-0.034-0.118-0.067-0.174-0.104L25.302,7.799z"/>
	<path d="M24.008,6.286L24.1,6.468l0.454-0.231c-0.033-0.058-0.067-0.118-0.098-0.178L24.008,6.286z"/>
	<polygon points="27.594,1.556 27.309,1.556 27.309,4.348 27.309,4.48 27.309,4.66 25.618,6.515 25.663,6.556 27.31,4.748 
		29.488,4.748 29.488,4.348 27.594,4.348 	"/>
	<polygon points="6.489,21.331 7.17,21.331 7.17,26.134 7.689,26.134 7.689,21.331 11.315,21.331 11.315,26.134 11.835,26.134 
		11.835,21.331 12.551,21.331 12.551,20.43 6.489,20.43 	"/>
	<circle cx="17.785" cy="4.07" r="2.914"/>
	<path d="M19.727,12.796l-1.575-0.024l0.58-5.53L17.272,7.33l-0.223,2.756l-1.374-3.352l-3.237-0.41l-1.211,8.705l6.089,0.076
		l0.027,6.7v1.117h3.574v-1.117h-1.191V12.796z M16.139,12.781l-0.007,0.015h-0.59l0.055-2.544l0.886,2.529H16.139z"/>
</g>
<g>
</g>
<g>
</g>
<g>
</g>
<g>
</g>
<g>
</g>
<g>
</g>
<g>
</g>
<g>
</g>
<g>
</g>
<g>
</g>
<g>
</g>
<g>
</g>
<g>
</g>
<g>
</g>
<g>
</g>
</svg>
