<?xml version="1.0" encoding="iso-8859-1"?>
<!-- Generator: Adobe Illustrator 16.0.0, SVG Export Plug-In . SVG Version: 6.00 Build 0)  -->
<!DOCTYPE svg PUBLIC "-//W3C//DTD SVG 1.1//EN" "http://www.w3.org/Graphics/SVG/1.1/DTD/svg11.dtd">
<svg version="1.1" id="Layer_1" xmlns="http://www.w3.org/2000/svg" xmlns:xlink="http://www.w3.org/1999/xlink" x="0px" y="0px"
	 width="31.676px" height="27.238px" viewBox="0 0 31.676 27.238" style="enable-background:new 0 0 31.676 27.238;"
	 xml:space="preserve">
<g>
	<circle cx="28.458" cy="3.219" r="3.219"/>
	<polygon points="24.419,25.409 24.396,25.622 24.21,25.601 23.106,25.708 22.991,26.7 23.907,26.807 24.997,26.757 24.988,26.933 
		26.17,27.072 26.3,25.966 26.313,25.848 26.336,25.657 26.352,25.659 27.33,21.185 25.329,21.043 	"/>
	<polygon points="31.452,25.515 31.432,25.381 31.442,25.378 30.382,21.536 30.173,16.772 30.527,16.722 30.527,6.913 27.363,6.913 
		25.929,6.913 26.025,12.298 27.298,7.243 27.613,7.348 29.606,7.851 29.826,7.905 29.771,8.127 27.662,16.484 27.607,16.704 
		27.386,16.648 27.333,16.625 27.327,16.834 29.23,16.924 28.961,21.262 28.35,21.236 29.545,25.82 29.361,25.85 28.328,26.252 
		28.486,27.238 29.396,27.093 30.432,26.747 30.469,26.92 31.647,26.732 31.472,25.635 	"/>
	<path d="M28.877,17.158l-1.83-0.107l0.037-0.747l0.284,0.075l2.071-8.229L27.605,7.67l-1.497,5.818l0.001,0.087l-0.576,2.322
		l0.485,0.127l-0.445,0.164l-0.048,0.78l-2.057-0.146l-0.204,3.82l5.396,0.361L28.877,17.158z M26.595,16.932l-0.603-0.037
		l0.021-0.357l0.603,0.036L26.595,16.932z"/>
	<path d="M18.365,11.745h-2.39h-1.512v6.588H14.27v-6.588v-0.212h0.194h1.512v-5.74l-4.892-0.027v5.2h2.057h0.237v0.267v7.101
		h-0.237v-7.101H9.027v7.101H8.79v-7.101v-0.267h0.237h1.789c0-1.309,0-2.453,0-3.103c0-0.235,0-0.41,0-0.499V6.344H6.067v1.021
		c0,0.115,0,0.288,0,0.499c0,0.147,0,0.313,0,0.502h2.016h0.239v0.268v9.7H8.083v-9.7H6.067H3.334v2.844h1.604h0.239v0.269v6.588
		H4.938v-6.588H3.334H1.035v6.588H0v1.082h20.273v-1.082h-1.908V11.745z"/>
</g>
<g>
</g>
<g>
</g>
<g>
</g>
<g>
</g>
<g>
</g>
<g>
</g>
<g>
</g>
<g>
</g>
<g>
</g>
<g>
</g>
<g>
</g>
<g>
</g>
<g>
</g>
<g>
</g>
<g>
</g>
</svg>
