<?xml version="1.0" encoding="iso-8859-1"?>
<!-- Generator: Adobe Illustrator 16.0.0, SVG Export Plug-In . SVG Version: 6.00 Build 0)  -->
<!DOCTYPE svg PUBLIC "-//W3C//DTD SVG 1.1//EN" "http://www.w3.org/Graphics/SVG/1.1/DTD/svg11.dtd">
<svg version="1.1" id="Layer_1" xmlns="http://www.w3.org/2000/svg" xmlns:xlink="http://www.w3.org/1999/xlink" x="0px" y="0px"
	 width="31.762px" height="19.65px" viewBox="0 0 31.762 19.65" style="enable-background:new 0 0 31.762 19.65;"
	 xml:space="preserve">
<g>
	<polygon points="11.883,2.045 11.602,1.885 10.923,3.087 5.609,3.087 5.609,3.41 11.112,3.41 	"/>
	<polygon points="6.154,12.47 5.873,12.311 5.315,13.297 0,13.297 0,13.62 5.503,13.62 	"/>
	<polygon points="26.008,8.065 26.008,7.743 20.693,7.743 20.135,6.756 19.854,6.915 20.505,8.065 	"/>
	<polygon points="26.447,17.895 25.889,16.908 25.608,17.067 26.258,18.218 31.762,18.218 31.762,17.895 	"/>
	<polygon points="8.779,10.155 6.205,14.625 22.763,14.625 20.277,10.155 	"/>
	<polygon points="9.16,9.495 19.911,9.495 17.421,5.019 11.74,5.019 	"/>
	<polygon points="5.824,15.285 3.308,19.65 25.557,19.65 23.13,15.285 	"/>
	<polygon points="14.631,0 12.12,4.359 17.054,4.359 	"/>
</g>
<g>
</g>
<g>
</g>
<g>
</g>
<g>
</g>
<g>
</g>
<g>
</g>
<g>
</g>
<g>
</g>
<g>
</g>
<g>
</g>
<g>
</g>
<g>
</g>
<g>
</g>
<g>
</g>
<g>
</g>
</svg>
