<?xml version="1.0" encoding="iso-8859-1"?>
<!-- Generator: Adobe Illustrator 16.0.0, SVG Export Plug-In . SVG Version: 6.00 Build 0)  -->
<!DOCTYPE svg PUBLIC "-//W3C//DTD SVG 1.1//EN" "http://www.w3.org/Graphics/SVG/1.1/DTD/svg11.dtd">
<svg version="1.1" id="Layer_1" xmlns="http://www.w3.org/2000/svg" xmlns:xlink="http://www.w3.org/1999/xlink" x="0px" y="0px"
	 width="28.366px" height="27.912px" viewBox="0 0 28.366 27.912" style="enable-background:new 0 0 28.366 27.912;"
	 xml:space="preserve">
<g>
	<path d="M5.159,16.423l-2.034,5.525h1.709l0.248-0.79h1.756l0.232,0.79h1.764l-2.012-5.525H5.159z M5.453,19.975l0.534-1.703h0.016
		l0.495,1.703H5.453z"/>
	<path d="M11.058,12.812c0.232-0.072,0.438-0.178,0.618-0.317c0.181-0.14,0.327-0.313,0.438-0.522
		c0.111-0.208,0.167-0.452,0.167-0.731c0-0.201-0.027-0.38-0.082-0.534c-0.054-0.155-0.125-0.288-0.213-0.398
		c-0.087-0.11-0.189-0.203-0.305-0.274c-0.117-0.073-0.236-0.129-0.36-0.171c0.206-0.113,0.371-0.252,0.495-0.417
		c0.123-0.166,0.186-0.387,0.186-0.666c0-0.139-0.023-0.291-0.07-0.453c-0.046-0.163-0.135-0.313-0.267-0.453
		c-0.132-0.139-0.313-0.253-0.542-0.344c-0.23-0.09-0.525-0.136-0.886-0.136H7.211v5.525h3.134
		C10.587,12.92,10.825,12.884,11.058,12.812z M8.914,8.711h0.897c0.176,0,0.316,0.028,0.422,0.085
		c0.106,0.057,0.159,0.155,0.159,0.294c0,0.18-0.051,0.302-0.155,0.364c-0.103,0.062-0.245,0.092-0.426,0.092H8.914V8.711z
		 M9.912,11.605H8.914v-1.029h1.068c0.397,0,0.595,0.167,0.595,0.502c0,0.108-0.018,0.196-0.054,0.263
		c-0.036,0.067-0.084,0.121-0.147,0.159c-0.062,0.039-0.133,0.066-0.213,0.081C10.083,11.598,9.999,11.605,9.912,11.605z"/>
	<path d="M13.815,15.57c0.08-0.145,0.188-0.261,0.321-0.348c0.135-0.088,0.302-0.132,0.504-0.132c0.174,0,0.318,0.034,0.429,0.101
		c0.11,0.067,0.2,0.144,0.267,0.232c0.067,0.088,0.113,0.177,0.139,0.267c0.026,0.09,0.045,0.161,0.054,0.213h1.656
		c-0.073-0.697-0.316-1.234-0.732-1.613c-0.415-0.379-1.004-0.571-1.767-0.577c-0.428,0-0.815,0.07-1.157,0.209
		c-0.344,0.139-0.638,0.336-0.882,0.588c-0.246,0.254-0.434,0.558-0.565,0.914c-0.131,0.356-0.198,0.75-0.198,1.184
		c0,0.407,0.063,0.789,0.186,1.142c0.124,0.354,0.306,0.659,0.546,0.917c0.24,0.258,0.532,0.461,0.877,0.611
		c0.346,0.149,0.743,0.224,1.192,0.224c0.402,0,0.76-0.068,1.075-0.202c0.314-0.134,0.579-0.31,0.793-0.529
		c0.214-0.219,0.376-0.466,0.487-0.739c0.11-0.273,0.167-0.549,0.167-0.828h-1.672c-0.025,0.129-0.06,0.25-0.104,0.364
		c-0.043,0.113-0.1,0.211-0.169,0.293c-0.07,0.083-0.155,0.146-0.255,0.193c-0.101,0.047-0.223,0.07-0.367,0.07
		c-0.202,0-0.369-0.044-0.504-0.131c-0.134-0.088-0.241-0.205-0.321-0.349c-0.08-0.144-0.137-0.307-0.173-0.486
		c-0.037-0.181-0.054-0.364-0.054-0.55c0-0.186,0.017-0.368,0.054-0.549C13.678,15.876,13.735,15.714,13.815,15.57z"/>
	<path d="M20.914,0c-4.107,0-7.45,2.298-7.45,5.124c0,1.602,1.088,3.105,2.927,4.071l-1.431,2.498l0.617-0.094
		c0.041-0.008,4.15-0.644,6.97-1.481c3.698-1.096,5.819-2.915,5.819-4.993C28.366,2.298,25.023,0,20.914,0z M21.662,7.897h-1.609
		V6.365h1.609V7.897z M22.97,4.411c-0.063,0.147-0.143,0.269-0.244,0.367c-0.101,0.099-0.213,0.18-0.337,0.244
		c-0.124,0.065-0.25,0.13-0.378,0.197c-0.088,0.046-0.16,0.093-0.217,0.139c-0.057,0.046-0.101,0.096-0.132,0.147
		c-0.03,0.051-0.052,0.11-0.065,0.178c-0.012,0.067-0.019,0.144-0.019,0.232h-1.431c-0.006-0.078-0.008-0.176-0.008-0.295
		c0-0.123,0.015-0.25,0.046-0.379c0.031-0.128,0.085-0.255,0.162-0.379c0.078-0.125,0.191-0.227,0.341-0.309
		c0.062-0.032,0.134-0.065,0.216-0.101c0.083-0.037,0.162-0.077,0.236-0.121c0.074-0.043,0.138-0.096,0.189-0.159
		c0.052-0.062,0.077-0.136,0.077-0.224c0-0.263-0.149-0.395-0.449-0.395c-0.186,0-0.317,0.067-0.395,0.201
		c-0.077,0.134-0.108,0.287-0.092,0.457h-1.617C18.869,3.972,18.918,3.732,19,3.498c0.083-0.234,0.209-0.444,0.379-0.63
		c0.17-0.186,0.388-0.336,0.653-0.453c0.266-0.116,0.59-0.174,0.972-0.174c0.377,0,0.694,0.05,0.952,0.151
		c0.258,0.101,0.466,0.23,0.626,0.387c0.16,0.157,0.277,0.33,0.352,0.519c0.075,0.188,0.117,0.367,0.127,0.538
		C23.063,4.072,23.032,4.264,22.97,4.411z"/>
	<path d="M18.135,26.623H1.29V2.953h11.73c0.229-0.463,0.551-0.897,0.953-1.29H0v26.249h19.424v-16.14
		c-0.447,0.095-0.882,0.181-1.289,0.261V26.623z"/>
</g>
<g>
</g>
<g>
</g>
<g>
</g>
<g>
</g>
<g>
</g>
<g>
</g>
<g>
</g>
<g>
</g>
<g>
</g>
<g>
</g>
<g>
</g>
<g>
</g>
<g>
</g>
<g>
</g>
<g>
</g>
</svg>
