<?xml version="1.0" encoding="iso-8859-1"?>
<!-- Generator: Adobe Illustrator 16.0.0, SVG Export Plug-In . SVG Version: 6.00 Build 0)  -->
<!DOCTYPE svg PUBLIC "-//W3C//DTD SVG 1.1//EN" "http://www.w3.org/Graphics/SVG/1.1/DTD/svg11.dtd">
<svg version="1.1" id="Layer_1" xmlns="http://www.w3.org/2000/svg" xmlns:xlink="http://www.w3.org/1999/xlink" x="0px" y="0px"
	 width="31.225px" height="31.111px" viewBox="0 0 31.225 31.111" style="enable-background:new 0 0 31.225 31.111;"
	 xml:space="preserve">
<g>
	<path d="M24.06,17.13v8.086c-1.049-0.421-2.252-0.634-3.587-0.634c-3.271,0-6.387,1.254-7.323,1.667v-5.99l0.436,0.48v-8.999
		c1.764-1.483,3.925-2.243,6.439-2.243c0.293,0,0.574,0.013,0.849,0.032l0.712-0.68c-0.483-0.056-1.005-0.092-1.562-0.092
		c-2.731,0-5.083,0.832-6.998,2.474C11.112,9.59,8.76,8.759,6.028,8.759c-2.55,0-4.461,0.743-4.541,0.773L1.252,9.625v1.507
		C0.48,11.276,0,11.534,0,11.957c0,2.196,0,15.525,0,15.525h3.563l-1.148-2.411c-0.141,0.047-0.287,0.088-0.422,0.142V10.138
		c0.57-0.19,2.124-0.639,4.036-0.639c2.515,0,4.675,0.76,6.44,2.243v8.999l0.435-0.48v5.997c-0.014-0.005,0.008,1.803,0.008,1.803
		c0.66,0.092,1.369-0.224,1.765-0.578h11.147c0,0,0-11.883,0-11.56C25.571,16.425,24.06,17.13,24.06,17.13z"/>
	<path d="M30.446,1.186c-2.131,1.828-9.072,7.904-8.939,9.252l0.008,0.086l0.311,0.412l-0.485,0.001l-0.083,0.005
		c-0.425,0.072-1.193,1.326-1.443,2.354c-0.289,1.195-0.001,2.156,0.834,2.78c0.048,0.036,0.1,0.066,0.148,0.099L20.4,16.716
		l-0.649-0.445l-0.264,0.384l0.637,0.436l-2.985,4.048l1.401-0.789l2.095-2.91l0.466,0.318l0.262-0.384l-0.457-0.313l0.441-0.612
		c0.5,0.184,1.061,0.232,1.663,0.132c1.331-0.224,2.604-1.125,2.813-1.621c0.061-0.151,0.04-0.268,0.005-0.347l-0.095-0.349
		l0.354,0.105l0.157,0.007c0.292-0.048,0.69-0.116,2.77-6.588c1-3.116,1.915-6.257,1.924-6.289l0.286-0.984L30.446,1.186z
		 M26.128,13.746l-1.274-0.377l0.384,1.396c-0.181,0.279-1.19,1.025-2.327,1.216c-0.433,0.073-0.826,0.048-1.186-0.054l0.014-0.018
		l4.629-7.195l-0.109-0.059l-5.012,6.912l-0.081,0.11c-0.05-0.031-0.104-0.054-0.151-0.088c-0.485-0.363-0.717-0.877-0.695-1.529
		c0.041-1.116,0.813-2.289,1.068-2.511l1.658-0.007l-0.922-1.226c0.157-0.703,2.757-3.326,5.858-6.14l0.211,1.247l1.025-0.3
		C27.91,9.363,26.613,13.144,26.128,13.746z M29.36,4.656l-0.845,0.247l-0.176-1.051c0.563-0.508,1.139-1.019,1.722-1.525
		C29.83,3.105,29.597,3.887,29.36,4.656z"/>
	<path d="M8.916,3.111l0,4.18c-0.002,0.05-0.011,0.494,0.285,0.8c0.168,0.174,0.403,0.268,0.68,0.268h6.524
		c0.285,0,0.529-0.095,0.703-0.276c0.303-0.314,0.295-0.771,0.293-0.812V3.111h-1.799V2.574h0.52V1.86h-1.103L15.304,0h-4.068
		l0.286,1.86H10.42v0.714h0.574v0.538H8.916z M16.886,7.278c0.001,0.08-0.021,0.315-0.151,0.448
		c-0.078,0.078-0.184,0.116-0.33,0.116H9.881c-0.136,0-0.236-0.036-0.307-0.108C9.451,7.609,9.428,7.384,9.431,7.301V6.993h7.455
		V7.278z M16.135,6.214v0.244h-5.954V6.214H16.135z M11.226,5.917V5.673h3.97v0.245H11.226z M11.509,3.626V2.574h3.577v1.052h1.8
		v1.283H9.431V3.626H11.509z"/>
	<polygon points="8.149,18.128 5.714,18.128 5.714,23.254 5.714,24.349 5.714,25.428 4.894,23.749 2.598,23.742 3.54,25.677 
		3.534,25.677 4.139,26.906 4.217,27.065 4.218,27.065 5.714,30.09 6.722,30.09 6.722,31.111 11.25,31.111 11.25,30.09 
		12.259,30.09 12.259,25.413 8.149,23.254 	"/>
</g>
<g>
</g>
<g>
</g>
<g>
</g>
<g>
</g>
<g>
</g>
<g>
</g>
<g>
</g>
<g>
</g>
<g>
</g>
<g>
</g>
<g>
</g>
<g>
</g>
<g>
</g>
<g>
</g>
<g>
</g>
</svg>
