<?xml version="1.0" encoding="iso-8859-1"?>
<!-- Generator: Adobe Illustrator 16.0.0, SVG Export Plug-In . SVG Version: 6.00 Build 0)  -->
<!DOCTYPE svg PUBLIC "-//W3C//DTD SVG 1.1//EN" "http://www.w3.org/Graphics/SVG/1.1/DTD/svg11.dtd">
<svg version="1.1" id="Layer_1" xmlns="http://www.w3.org/2000/svg" xmlns:xlink="http://www.w3.org/1999/xlink" x="0px" y="0px"
	 width="19.589px" height="28.273px" viewBox="0 0 19.589 28.273" style="enable-background:new 0 0 19.589 28.273;"
	 xml:space="preserve">
<g>
	<path d="M16.953,2.601h2.636V0h-2.636h-1.225H3.807H2.582H0v2.601h1.53h1.052v7.674l5.817,3.876L2.32,17.921l0.027,0.044
		l-0.014,0.008v7.7H1.53H0v2.601h19.589v-2.601h-2.885v-7.69l-5.895-3.824l6.156-3.817l-0.027-0.044l0.015-0.009V2.601z
		 M15.479,18.871v6.802H3.559v-7.018l6.008-3.725L15.479,18.871z M15.729,9.607l-6.103,3.785L3.807,9.615V2.601h11.922V9.607z"/>
	<polygon points="15,9.004 15,6.122 4.542,6.122 4.542,8.991 9.619,12.346 	"/>
	<polygon points="7.113,23.606 4.236,23.992 4.236,25.093 14.836,25.093 14.836,23.992 12.216,23.673 9.537,22.621 	"/>
</g>
<g>
</g>
<g>
</g>
<g>
</g>
<g>
</g>
<g>
</g>
<g>
</g>
<g>
</g>
<g>
</g>
<g>
</g>
<g>
</g>
<g>
</g>
<g>
</g>
<g>
</g>
<g>
</g>
<g>
</g>
</svg>
