<?xml version="1.0" encoding="iso-8859-1"?>
<!-- Generator: Adobe Illustrator 16.0.0, SVG Export Plug-In . SVG Version: 6.00 Build 0)  -->
<!DOCTYPE svg PUBLIC "-//W3C//DTD SVG 1.1//EN" "http://www.w3.org/Graphics/SVG/1.1/DTD/svg11.dtd">
<svg version="1.1" id="Layer_1" xmlns="http://www.w3.org/2000/svg" xmlns:xlink="http://www.w3.org/1999/xlink" x="0px" y="0px"
	 width="31.964px" height="29.712px" viewBox="0 0 31.964 29.712" style="enable-background:new 0 0 31.964 29.712;"
	 xml:space="preserve">
<g>
	<path d="M7.651,6.981C7.61,7.116,7.567,7.25,7.546,7.39C7.517,7.566,7.501,7.747,7.501,7.93c0,1.128,0.571,2.123,1.442,2.71
		c0.509,0.351,1.123,0.558,1.787,0.558c0.006,0,0.013-0.002,0.019-0.002c0.007,0,0.013,0.002,0.02,0.002
		c1.803,0,3.267-1.463,3.267-3.268c0-0.361-0.072-0.702-0.181-1.026l0.665-0.917L13.33,5.567l0.232-1.214l-1.453,0.414l-0.666-1.398
		l-1.241,1.293L9.241,3.548L8.789,5.019L7.247,4.514L7.83,5.812L6.707,6.128L7.651,6.981z"/>
	<path d="M18.557,14.44l1.424-0.115l3.793-4.882l-0.027,0.002L22.76,7.67l-1.264,1.959L19.41,9.798l-1.018,1.31l-2.549,3.353
		l-0.84,0.464l-3.456-2.639l-3.549-0.16l-0.273,8.264l0.43,0.047l0.255,4.701l0.078,0.482l-1.421,0.629l-0.013-0.026l-0.356,0.177V0
		H0v29.712h6.698V27.47l0.746,1.513l0.782-0.387l-0.345-0.697l0.909-0.402l0.242,1.499v0.717h0.116h2.064h0.468v-0.873h-0.61
		l-0.359-2.193l3.134-1.388l-0.682-1.537l-1.349-3.396h0.388l-0.178-5.563l2.955,2.253l0.013,0.015l0.003-0.002l0.018,0.013
		l0.012-0.031l3.814-2.337L18.557,14.44z M10.434,24.758l0.063-2.066l0.807,1.681L10.434,24.758z M17.475,13.559l-0.722,0.399
		l1.019-1.313l1.875-2.411l3.135-0.254l-3.037,3.908l-1.696,0.138L17.475,13.559z"/>
	<polygon points="16.289,21.509 16.289,23.422 17.248,23.422 17.248,29.662 18.607,29.662 18.607,23.422 30.077,23.422 
		30.077,29.662 31.437,29.662 31.437,23.422 31.964,23.422 31.964,21.509 	"/>
	<path d="M19.88,20.97h1.059v-3.449H19.88V20.97z M20.025,17.666h0.768v1.91h-0.768V17.666z M20.168,19.982v-0.139H20.7v0.139
		H20.168z M20.7,20.108v0.137h-0.532v-0.137H20.7z M20.025,20.436h0.768v0.39h-0.768V20.436z"/>
	<rect x="20.166" y="18.043" width="0.536" height="0.148"/>
	<path d="M21.113,18.428v2.542h1.059v-3.449h-1.059v0.511V18.428z M21.259,17.666h0.769v0.365h-0.769V17.666z M21.91,18.153v0.147
		h-0.537v-0.147H21.91z M21.259,18.428h0.769v1.02h-0.769V18.428z M21.375,19.889V19.74h0.536v0.148H21.375z M21.91,19.984v0.148
		h-0.537v-0.148H21.91z M21.259,20.428h0.769v0.397h-0.769V20.428z"/>
	<path d="M24.621,20.97v-3.449h-1.058v3.449H24.621z M23.708,17.666h0.768v3.159h-0.768V17.666z"/>
	<rect x="24.141" y="17.932" width="0.148" height="1.754"/>
	<rect x="23.896" y="17.929" width="0.148" height="1.753"/>
	<path d="M23.424,20.97v-3.449h-1.058v3.449H23.424z M22.511,17.666h0.769v3.159h-0.769V17.666z"/>
	<rect x="22.634" y="18.104" width="0.536" height="0.147"/>
	<rect x="22.632" y="18.349" width="0.536" height="0.146"/>
	<rect x="22.632" y="19.976" width="0.536" height="0.148"/>
	<rect x="22.634" y="20.238" width="0.536" height="0.148"/>
	<path d="M18.592,20.97h1.058v-3.449h-1.058V20.97z M18.737,17.666h0.768v3.159h-0.768V17.666z"/>
	<rect x="18.859" y="18.104" width="0.536" height="0.147"/>
	<rect x="18.858" y="18.349" width="0.536" height="0.146"/>
	<rect x="18.858" y="19.976" width="0.536" height="0.148"/>
	<rect x="18.859" y="20.238" width="0.536" height="0.148"/>
	<path d="M27.001,14.061h-3.448v1.059h3.448V14.061z M24.087,14.975h-0.391v-0.77h0.391V14.975z M24.415,14.881h-0.139v-0.532h0.139
		V14.881z M24.678,14.881H24.54v-0.532h0.138V14.881z M26.856,14.975h-1.91v-0.77h1.91V14.975z"/>
	<rect x="26.329" y="14.346" width="0.15" height="0.537"/>
	<path d="M23.553,16.266h3.448v-1.059H26.49h-0.396h-2.542V16.266z M26.49,15.352h0.366v0.77H26.49V15.352z M26.221,15.468h0.148
		v0.536h-0.148V15.468z M25.076,15.352h1.019v0.77h-1.019V15.352z M24.634,15.469h0.148v0.536h-0.148V15.469z M24.389,15.468h0.148
		v0.536h-0.148V15.468z M23.696,15.352h0.398v0.77h-0.398V15.352z"/>
	<path d="M23.424,15.119h-3.449v1.058h3.449V15.119z M20.509,16.033h-0.391v-0.77h0.391V16.033z M20.836,15.938h-0.137v-0.531h0.137
		V15.938z M21.101,15.938h-0.139v-0.531h0.139V15.938z M23.279,16.033h-1.91v-0.77h1.91V16.033z"/>
	<rect x="22.752" y="15.404" width="0.149" height="0.537"/>
	<path d="M23.424,16.266h-0.511h-0.396h-2.542v1.059h3.449V16.266z M20.518,17.18h-0.399v-0.77h0.399V17.18z M20.96,17.063h-0.148
		v-0.537h0.148V17.063z M21.204,17.063h-0.148v-0.536h0.148V17.063z M22.517,17.18h-1.019v-0.77h1.019V17.18z M22.791,17.063h-0.148
		v-0.537h0.148V17.063z M23.279,17.18h-0.366v-0.77h0.366V17.18z"/>
	<path d="M27.001,16.373h-3.448v1.058h3.448V16.373z M26.856,17.286h-3.16v-0.769h3.16V17.286z"/>
	<rect x="26.271" y="16.641" width="0.147" height="0.535"/>
	<rect x="26.026" y="16.639" width="0.147" height="0.537"/>
	<rect x="24.398" y="16.639" width="0.148" height="0.537"/>
	<rect x="24.135" y="16.641" width="0.147" height="0.535"/>
	<path d="M30.704,16.373h-3.449v1.058h3.449V16.373z M30.56,17.286h-3.16v-0.769h3.16V17.286z"/>
	<rect x="29.973" y="16.641" width="0.149" height="0.535"/>
	<rect x="29.729" y="16.639" width="0.147" height="0.537"/>
	<rect x="28.101" y="16.639" width="0.148" height="0.537"/>
	<rect x="27.838" y="16.641" width="0.148" height="0.535"/>
	<path d="M24.748,18.428v2.542h1.058v-3.449h-1.058v0.511V18.428z M24.893,17.666h0.769v0.365h-0.769V17.666z M25.545,18.153v0.147
		h-0.537v-0.147H25.545z M24.893,18.428h0.769v1.02h-0.769V18.428z M25.01,19.889V19.74h0.536v0.148H25.01z M25.545,19.984v0.148
		h-0.537v-0.148H25.545z M24.893,20.428h0.769v0.397h-0.769V20.428z"/>
	<path d="M27.198,20.97h1.058v-3.449h-1.058V20.97z M27.343,17.666h0.768v3.159h-0.768V17.666z"/>
	<rect x="27.775" y="17.932" width="0.147" height="1.754"/>
	<rect x="27.53" y="17.929" width="0.148" height="1.753"/>
	<path d="M27.059,17.521h-1.058v3.449h1.058V17.521z M26.914,20.825h-0.769v-3.159h0.769V20.825z"/>
	<rect x="26.269" y="18.104" width="0.537" height="0.147"/>
	<rect x="26.268" y="18.349" width="0.535" height="0.146"/>
	<rect x="26.268" y="19.976" width="0.535" height="0.148"/>
	<rect x="26.269" y="20.238" width="0.537" height="0.148"/>
	<path d="M28.394,18.428v2.542h1.058v-3.449h-1.058v0.511V18.428z M28.539,17.666h0.768v0.365h-0.768V17.666z M29.19,18.153v0.147
		h-0.536v-0.147H29.19z M28.539,18.428h0.768v1.02h-0.768V18.428z M28.655,19.889V19.74h0.536v0.148H28.655z M29.19,19.984v0.148
		h-0.536v-0.148H29.19z M28.539,20.428h0.768v0.397h-0.768V20.428z"/>
	<path d="M30.704,20.97v-3.449h-1.058v3.449H30.704z M29.791,17.666h0.769v3.159h-0.769V17.666z"/>
	<rect x="29.914" y="18.104" width="0.535" height="0.147"/>
	<rect x="29.912" y="18.349" width="0.537" height="0.146"/>
	<rect x="29.912" y="19.976" width="0.537" height="0.148"/>
	<rect x="29.914" y="20.238" width="0.535" height="0.148"/>
	<path d="M27.727,7.227c1.806,0,3.273-1.47,3.273-3.273c0-1.805-1.468-3.273-3.273-3.273c-1.805,0-3.272,1.469-3.272,3.273
		C24.454,5.757,25.922,7.227,27.727,7.227z M27.727,0.976c1.643,0,2.978,1.336,2.978,2.978c0,1.643-1.335,2.978-2.978,2.978
		c-1.641,0-2.976-1.335-2.976-2.978C24.751,2.312,26.086,0.976,27.727,0.976z"/>
	<path d="M26.718,1.799l-0.121-0.24l-0.133,0.067l0.123,0.241C26.629,1.843,26.673,1.82,26.718,1.799z"/>
	<path d="M25.336,4.003c0-0.05,0.004-0.1,0.008-0.149h-0.34v0.298h0.34C25.34,4.102,25.336,4.053,25.336,4.003z"/>
	<path d="M27.936,1.559v-0.34h-0.298v0.34c0.051-0.002,0.099-0.007,0.149-0.007C27.837,1.552,27.886,1.557,27.936,1.559z"/>
	<path d="M30.303,2.881l-0.067-0.132l-0.269,0.136c0.023,0.045,0.045,0.09,0.065,0.135L30.303,2.881z"/>
	<path d="M29.357,1.776l-0.125-0.08l-0.148,0.229c0.043,0.026,0.085,0.055,0.124,0.083L29.357,1.776z"/>
	<path d="M25.778,2.601l-0.24-0.167l-0.084,0.123l0.244,0.168C25.724,2.684,25.75,2.641,25.778,2.601z"/>
	<path d="M28.797,6.235l0.18,0.359l0.134-0.067L28.93,6.171C28.886,6.193,28.842,6.215,28.797,6.235z"/>
	<path d="M30.12,5.596l-0.309-0.212c-0.027,0.041-0.059,0.079-0.089,0.118l0.313,0.217L30.12,5.596z"/>
	<path d="M30.239,4.003c0,0.05-0.005,0.099-0.009,0.148h0.34V3.854h-0.34C30.234,3.903,30.239,3.953,30.239,4.003z"/>
	<path d="M27.638,6.447v0.339h0.298V6.447c-0.05,0.002-0.099,0.007-0.148,0.007C27.736,6.454,27.688,6.449,27.638,6.447z"/>
	<path d="M26.558,6.122c-0.042-0.026-0.086-0.051-0.126-0.079l-0.215,0.334l0.125,0.08L26.558,6.122z"/>
	<path d="M25.599,5.105l-0.327,0.167l0.067,0.132l0.332-0.169C25.646,5.193,25.622,5.149,25.599,5.105z"/>
	<polygon points="27.684,4.148 29.275,4.148 29.275,3.856 27.892,3.856 27.892,1.817 27.683,1.817 27.683,3.856 27.683,3.953 
		27.683,4.084 26.447,5.438 26.48,5.469 	"/>
</g>
<g>
</g>
<g>
</g>
<g>
</g>
<g>
</g>
<g>
</g>
<g>
</g>
<g>
</g>
<g>
</g>
<g>
</g>
<g>
</g>
<g>
</g>
<g>
</g>
<g>
</g>
<g>
</g>
<g>
</g>
</svg>
