<?xml version="1.0" encoding="iso-8859-1"?>
<!-- Generator: Adobe Illustrator 16.0.0, SVG Export Plug-In . SVG Version: 6.00 Build 0)  -->
<!DOCTYPE svg PUBLIC "-//W3C//DTD SVG 1.1//EN" "http://www.w3.org/Graphics/SVG/1.1/DTD/svg11.dtd">
<svg version="1.1" id="Layer_1" xmlns="http://www.w3.org/2000/svg" xmlns:xlink="http://www.w3.org/1999/xlink" x="0px" y="0px"
	 width="31.927px" height="27.262px" viewBox="0 0 31.927 27.262" style="enable-background:new 0 0 31.927 27.262;"
	 xml:space="preserve">
<g>
	<path d="M6.723,2.062L0,0l0.001,27.025l8.603-2.078V2.639L8.028,2.462V2.301h12.668v22.635h1.306V0.994H6.723V2.062z M2.103,14.607
		c-0.439,0-0.795-0.419-0.795-0.937c0-0.516,0.356-0.935,0.795-0.935c0.438,0,0.794,0.419,0.794,0.935
		C2.896,14.188,2.541,14.607,2.103,14.607z"/>
	<path d="M25.722,11.62c1.057,0,1.926-0.778,2.088-1.789l0.78-1.099l-0.881-0.518l-0.207-1.037l-0.881,0.363l-1.243-0.83
		l-0.467,0.727L23.772,7.23l0.244,1.014C23.758,8.598,23.6,9.027,23.6,9.496C23.6,10.668,24.55,11.62,25.722,11.62z"/>
	<polygon points="24.945,19.431 24.394,23.188 24.911,26.71 24.273,26.71 24.273,27.262 27.381,27.262 27.381,26.71 27.283,26.71 
		26.466,23.188 27.735,19.403 	"/>
	<path d="M31.927,18.904c0,0,0-5.519-0.587-6.286c-0.335-0.439-1.652-0.61-2.17-0.677v-0.38c0-0.116-0.095-0.21-0.211-0.21
		c-0.115,0-0.21,0.094-0.21,0.21v0.345c-0.164-0.007-0.267-0.005-0.267-0.005v0.163l-0.458-0.163h-3.078v3.517l0.577-0.58
		l-0.006-2.053l1.649-0.026v3.494l-0.018,0.003l-2.202,1.871v1.065h3.078v-0.813l0.458-0.263v0.382L31.927,18.904z M28.023,17.423
		v-4.579l0.458,0.125v4.191L28.023,17.423z"/>
	<polygon points="26.885,13.024 25.767,13.033 25.738,15 23.233,17.418 24.078,18.516 26.885,16.035 	"/>
	<path d="M12.599,11.664c-0.024,0.082-0.05,0.162-0.064,0.25c-0.018,0.107-0.027,0.219-0.027,0.331c0,1.106,0.897,2.005,2.005,2.005
		c1.106,0,2.004-0.898,2.004-2.005c0-0.223-0.045-0.431-0.11-0.63l0.407-0.563l-0.729-0.256l0.143-0.746l-0.891,0.255l-0.41-0.859
		l-0.761,0.794l-0.589-0.684l-0.278,0.903l-0.945-0.311l0.356,0.796l-0.688,0.194L12.599,11.664z"/>
	<path d="M16.939,14.809l-1.435-0.259c0,0-0.274,0.843-1.03,0.889c-0.754,0.042-1.04-0.889-1.04-0.889l-1.211,0.286l-0.972,2.627
		h-1.036v0.954h0.573v5.44h0.467v-5.44h1.464l0.008,0.673h-0.757v0.329h0.648v4.188h1.436v-4.188h0.95v4.188h1.436v-4.188h0.564
		V19.09h-0.664v-0.673h1.87v5.44h0.467v-5.44h0.717v-0.954h-1.755L16.939,14.809z M12.26,17.463l0.438-1.216l0.013,1.216H12.26z
		 M16.341,17.463l0-1.4l0.437,1.4H16.341z"/>
</g>
<g>
</g>
<g>
</g>
<g>
</g>
<g>
</g>
<g>
</g>
<g>
</g>
<g>
</g>
<g>
</g>
<g>
</g>
<g>
</g>
<g>
</g>
<g>
</g>
<g>
</g>
<g>
</g>
<g>
</g>
</svg>
