<?xml version="1.0" encoding="iso-8859-1"?>
<!-- Generator: Adobe Illustrator 16.0.0, SVG Export Plug-In . SVG Version: 6.00 Build 0)  -->
<!DOCTYPE svg PUBLIC "-//W3C//DTD SVG 1.1//EN" "http://www.w3.org/Graphics/SVG/1.1/DTD/svg11.dtd">
<svg version="1.1" id="Layer_1" xmlns="http://www.w3.org/2000/svg" xmlns:xlink="http://www.w3.org/1999/xlink" x="0px" y="0px"
	 width="29.947px" height="31.918px" viewBox="0 0 29.947 31.918" style="enable-background:new 0 0 29.947 31.918;"
	 xml:space="preserve">
<g>
	<path d="M25.018,10.26l4.929-4.056l-4.929-4.055H14.841V0h-2.943v2.149H0v8.11h11.898v19.595H8.933v2.063h8.792v-2.063h-2.884
		V10.26H25.018z M0.921,9.339v-6.27h23.768l3.809,3.135l-3.809,3.135H0.921z"/>
	<path d="M5.969,6.089C5.881,6.018,5.782,5.959,5.67,5.913C5.559,5.866,5.443,5.825,5.326,5.792
		C5.208,5.759,5.093,5.729,4.982,5.706C4.87,5.682,4.77,5.654,4.681,5.625c-0.089-0.03-0.16-0.065-0.213-0.104
		S4.389,5.43,4.389,5.366c0-0.055,0.013-0.099,0.039-0.133C4.453,5.198,4.485,5.17,4.524,5.149c0.04-0.021,0.083-0.037,0.131-0.046
		S4.751,5.09,4.796,5.09c0.063,0,0.126,0.007,0.19,0.021s0.12,0.035,0.17,0.066c0.049,0.029,0.089,0.069,0.12,0.119
		c0.03,0.051,0.043,0.111,0.041,0.184h0.842c0-0.182-0.038-0.338-0.113-0.469S5.873,4.771,5.751,4.687
		C5.631,4.603,5.493,4.54,5.337,4.499S5.024,4.438,4.864,4.438c-0.151,0-0.305,0.018-0.462,0.053
		C4.245,4.528,4.103,4.587,3.976,4.665c-0.126,0.078-0.23,0.18-0.31,0.305s-0.12,0.275-0.12,0.451c0,0.148,0.028,0.273,0.084,0.379
		c0.056,0.103,0.128,0.191,0.217,0.262c0.089,0.071,0.19,0.129,0.304,0.175c0.113,0.045,0.227,0.085,0.342,0.118
		C4.61,6.388,4.724,6.416,4.834,6.442c0.11,0.025,0.209,0.055,0.297,0.088c0.087,0.033,0.158,0.072,0.21,0.117
		s0.079,0.104,0.079,0.178c0,0.061-0.015,0.111-0.045,0.153C5.346,7.021,5.307,7.056,5.258,7.08C5.21,7.106,5.154,7.126,5.093,7.137
		C5.031,7.149,4.968,7.155,4.905,7.155c-0.181,0-0.326-0.036-0.435-0.109C4.361,6.974,4.303,6.843,4.293,6.652H3.451
		c0,0.208,0.038,0.385,0.116,0.53c0.077,0.145,0.18,0.264,0.31,0.357c0.129,0.094,0.278,0.162,0.446,0.204
		c0.168,0.042,0.345,0.063,0.532,0.063c0.178,0,0.352-0.019,0.521-0.055c0.169-0.036,0.319-0.096,0.451-0.179
		C5.958,7.491,6.063,7.38,6.144,7.241s0.12-0.311,0.12-0.516c0-0.146-0.027-0.27-0.082-0.375C6.128,6.247,6.057,6.159,5.969,6.089z"
		/>
	<path d="M7.572,5.461c0.06-0.09,0.138-0.163,0.233-0.217C7.9,5.189,8.016,5.163,8.152,5.163c0.178,0,0.325,0.042,0.441,0.127
		C8.709,5.374,8.78,5.498,8.804,5.661h0.842C9.64,5.468,9.592,5.295,9.503,5.142C9.415,4.99,9.301,4.861,9.162,4.757
		C9.023,4.653,8.866,4.573,8.693,4.52C8.52,4.465,8.345,4.438,8.17,4.438c-0.244,0-0.466,0.043-0.666,0.131
		c-0.2,0.087-0.369,0.207-0.51,0.359C6.854,5.081,6.747,5.26,6.671,5.464S6.558,5.888,6.558,6.123s0.038,0.454,0.113,0.659
		c0.076,0.203,0.184,0.381,0.324,0.533c0.141,0.153,0.31,0.273,0.51,0.36C7.704,7.764,7.926,7.808,8.17,7.808
		c0.205,0,0.396-0.029,0.571-0.089C8.916,7.66,9.068,7.574,9.198,7.461c0.13-0.113,0.234-0.252,0.313-0.417
		C9.589,6.88,9.634,6.692,9.646,6.485H8.804C8.789,6.673,8.726,6.819,8.616,6.924C8.506,7.03,8.351,7.083,8.152,7.083
		c-0.136,0-0.251-0.027-0.346-0.082C7.71,6.947,7.632,6.874,7.572,6.784C7.512,6.692,7.468,6.591,7.441,6.476
		C7.414,6.361,7.4,6.243,7.4,6.123c0-0.122,0.014-0.238,0.041-0.354C7.468,5.654,7.512,5.552,7.572,5.461z"/>
	<polygon points="12.038,5.683 10.928,5.683 10.928,4.507 10.086,4.507 10.086,7.739 10.928,7.739 10.928,6.407 12.038,6.407 
		12.038,7.739 12.88,7.739 12.88,4.507 12.038,4.507 	"/>
	<path d="M16.1,4.929c-0.136-0.152-0.303-0.272-0.5-0.359c-0.198-0.088-0.423-0.131-0.677-0.131s-0.479,0.043-0.677,0.131
		c-0.198,0.087-0.364,0.207-0.5,0.359c-0.136,0.152-0.24,0.331-0.311,0.535c-0.07,0.204-0.106,0.424-0.106,0.659
		s0.036,0.454,0.106,0.659c0.071,0.203,0.175,0.381,0.311,0.533c0.136,0.153,0.302,0.273,0.5,0.36
		c0.198,0.088,0.424,0.132,0.677,0.132s0.479-0.044,0.677-0.132c0.198-0.087,0.365-0.207,0.5-0.36
		c0.136-0.152,0.239-0.33,0.31-0.533c0.071-0.205,0.107-0.424,0.107-0.659s-0.036-0.455-0.107-0.659
		C16.339,5.26,16.236,5.081,16.1,4.929z M15.634,6.476c-0.027,0.115-0.071,0.217-0.131,0.309c-0.061,0.09-0.138,0.163-0.233,0.217
		c-0.095,0.055-0.211,0.082-0.347,0.082s-0.251-0.027-0.347-0.082c-0.095-0.054-0.173-0.127-0.233-0.217
		c-0.06-0.092-0.104-0.193-0.131-0.309c-0.027-0.114-0.041-0.232-0.041-0.353c0-0.122,0.014-0.238,0.041-0.354
		c0.027-0.115,0.071-0.218,0.131-0.309c0.061-0.09,0.139-0.163,0.233-0.217c0.095-0.055,0.211-0.081,0.347-0.081
		s0.251,0.026,0.347,0.081c0.095,0.054,0.172,0.127,0.233,0.217c0.061,0.091,0.104,0.193,0.131,0.309s0.041,0.231,0.041,0.354
		C15.674,6.243,15.661,6.361,15.634,6.476z"/>
	<path d="M19.623,4.929c-0.136-0.152-0.302-0.272-0.5-0.359c-0.198-0.088-0.424-0.131-0.677-0.131s-0.479,0.043-0.677,0.131
		c-0.198,0.087-0.365,0.207-0.5,0.359c-0.136,0.152-0.24,0.331-0.311,0.535s-0.106,0.424-0.106,0.659s0.036,0.454,0.106,0.659
		c0.071,0.203,0.174,0.381,0.311,0.533c0.136,0.153,0.303,0.273,0.5,0.36c0.198,0.088,0.423,0.132,0.677,0.132
		s0.479-0.044,0.677-0.132c0.198-0.087,0.364-0.207,0.5-0.36c0.136-0.152,0.239-0.33,0.311-0.533
		c0.071-0.205,0.106-0.424,0.106-0.659s-0.036-0.455-0.106-0.659C19.862,5.26,19.759,5.081,19.623,4.929z M19.157,6.476
		c-0.027,0.115-0.071,0.217-0.132,0.309c-0.06,0.09-0.138,0.163-0.233,0.217c-0.095,0.055-0.211,0.082-0.347,0.082
		s-0.251-0.027-0.347-0.082c-0.095-0.054-0.172-0.127-0.233-0.217c-0.061-0.092-0.104-0.193-0.131-0.309
		c-0.027-0.114-0.041-0.232-0.041-0.353c0-0.122,0.013-0.238,0.041-0.354s0.071-0.218,0.131-0.309
		c0.061-0.09,0.138-0.163,0.233-0.217c0.096-0.055,0.211-0.081,0.347-0.081s0.251,0.026,0.347,0.081
		c0.095,0.054,0.173,0.127,0.233,0.217c0.061,0.091,0.104,0.193,0.132,0.309c0.027,0.115,0.041,0.231,0.041,0.354
		C19.198,6.243,19.184,6.361,19.157,6.476z"/>
	<polygon points="21.34,4.507 20.498,4.507 20.498,7.739 22.848,7.739 22.848,7.015 21.34,7.015 	"/>
</g>
<g>
</g>
<g>
</g>
<g>
</g>
<g>
</g>
<g>
</g>
<g>
</g>
<g>
</g>
<g>
</g>
<g>
</g>
<g>
</g>
<g>
</g>
<g>
</g>
<g>
</g>
<g>
</g>
<g>
</g>
</svg>
