<?xml version="1.0" encoding="iso-8859-1"?>
<!-- Generator: Adobe Illustrator 16.0.0, SVG Export Plug-In . SVG Version: 6.00 Build 0)  -->
<!DOCTYPE svg PUBLIC "-//W3C//DTD SVG 1.1//EN" "http://www.w3.org/Graphics/SVG/1.1/DTD/svg11.dtd">
<svg version="1.1" id="Layer_1" xmlns="http://www.w3.org/2000/svg" xmlns:xlink="http://www.w3.org/1999/xlink" x="0px" y="0px"
	 width="31.789px" height="26.324px" viewBox="0 0 31.789 26.324" style="enable-background:new 0 0 31.789 26.324;"
	 xml:space="preserve">
<g>
	<path d="M16.118,6.597c-1.32,0-2.394,1.074-2.394,2.395c0,1.319,1.073,2.394,2.394,2.394s2.395-1.074,2.395-2.394
		C18.513,7.671,17.438,6.597,16.118,6.597z M16.047,6.793h0.239v0.272c-0.039-0.002-0.079-0.005-0.119-0.005s-0.08,0.003-0.12,0.005
		V6.793z M15.21,7.066l0.098,0.192c-0.037,0.018-0.072,0.035-0.106,0.056L15.103,7.12L15.21,7.066z M13.929,8.911h0.272
		c-0.002,0.04-0.005,0.08-0.005,0.12c0,0.039,0.003,0.078,0.005,0.118h-0.272V8.911z M14.199,10.158l-0.055-0.105l0.263-0.135
		c0.019,0.036,0.038,0.07,0.059,0.104L14.199,10.158z M14.487,8.004L14.29,7.867l0.068-0.097l0.193,0.133
		C14.528,7.936,14.508,7.969,14.487,8.004z M15.004,11.004l-0.1-0.064l0.172-0.268c0.033,0.022,0.067,0.042,0.103,0.063
		L15.004,11.004z M16.286,11.27h-0.239v-0.273c0.04,0.002,0.08,0.006,0.12,0.006s0.08-0.004,0.119-0.006V11.27z M17.124,11.114
		l-0.146-0.288c0.035-0.017,0.071-0.033,0.106-0.052l0.146,0.287L17.124,11.114z M17.363,9.148h-1.279l-0.968,1.061l-0.026-0.023
		l0.992-1.09V8.991V8.913V7.272h0.169v1.641h1.112V9.148z M17.31,7.426c-0.032-0.022-0.065-0.044-0.099-0.065l0.118-0.185
		l0.101,0.065L17.31,7.426z M17.976,10.411l-0.252-0.174c0.023-0.032,0.049-0.063,0.071-0.096l0.249,0.17L17.976,10.411z
		 M18.405,9.149h-0.273c0.003-0.04,0.006-0.079,0.006-0.118c0-0.04-0.003-0.08-0.006-0.12h0.273V9.149z M18.135,8.022l0.055,0.106
		l-0.218,0.11c-0.016-0.036-0.033-0.072-0.052-0.106L18.135,8.022z"/>
	<path d="M21.805,12.816V8.109l-5.735-5.42l-5.706,5.42v4.707H0v13.465h14.186V20.49h3.768v5.791l13.836,0.043V12.859L21.805,12.816
		z M4.515,22.002h-2.51V19.55h2.51V22.002z M4.601,18.522h-2.51v-2.454h2.51V18.522z M8.081,22.002H5.57V19.55h2.511V22.002z
		 M8.167,18.522h-2.51v-2.454h2.51V18.522z M11.818,22.002H9.308V19.55h2.511V22.002z M11.905,18.522H9.395v-2.454h2.511V18.522z
		 M16.118,11.875c-1.59,0-2.883-1.294-2.883-2.883c0-1.591,1.293-2.884,2.883-2.884s2.884,1.293,2.884,2.884
		C19.002,10.581,17.708,11.875,16.118,11.875z M22.545,22.146h-2.51v-2.454h2.51V22.146z M22.631,18.522h-2.51v-2.454h2.51V18.522z
		 M26.111,22.146h-2.511v-2.454h2.511V22.146z M26.197,18.522h-2.51v-2.454h2.51V18.522z M29.85,22.146h-2.512v-2.454h2.512V22.146z
		 M29.936,18.522h-2.512v-2.454h2.512V18.522z"/>
	<polygon points="16.158,1.912 22.79,8.508 23.756,7.537 16.177,0 8.322,7.501 9.269,8.492 	"/>
</g>
<g>
</g>
<g>
</g>
<g>
</g>
<g>
</g>
<g>
</g>
<g>
</g>
<g>
</g>
<g>
</g>
<g>
</g>
<g>
</g>
<g>
</g>
<g>
</g>
<g>
</g>
<g>
</g>
<g>
</g>
</svg>
