<?xml version="1.0" encoding="iso-8859-1"?>
<!-- Generator: Adobe Illustrator 16.0.0, SVG Export Plug-In . SVG Version: 6.00 Build 0)  -->
<!DOCTYPE svg PUBLIC "-//W3C//DTD SVG 1.1//EN" "http://www.w3.org/Graphics/SVG/1.1/DTD/svg11.dtd">
<svg version="1.1" id="Layer_1" xmlns="http://www.w3.org/2000/svg" xmlns:xlink="http://www.w3.org/1999/xlink" x="0px" y="0px"
	 width="31.405px" height="21.521px" viewBox="0 0 31.405 21.521" style="enable-background:new 0 0 31.405 21.521;"
	 xml:space="preserve">
<g>
	<path d="M19.493,8.347c0.804,0.694,2.017,0.605,2.711-0.198c0.278-0.322,0.425-0.71,0.456-1.104l0.768-0.552L22.524,5.96
		l0.11-0.773l-1.344-0.168l-0.388-0.77l-0.756,0.588L19.236,4.67L19.12,5.885C18.632,6.674,18.769,7.72,19.493,8.347z"/>
	<polygon points="16.146,17.387 15.379,14.165 13.345,12.412 12.838,13.187 14.27,17.387 13.53,20.578 13.44,20.578 13.44,21.079 
		16.255,21.079 16.255,20.578 15.678,20.578 	"/>
	<polygon points="17.164,8.958 17.35,8.931 18.353,8.782 18.54,8.754 18.566,8.941 18.753,10.28 19.858,9.001 17.749,7.178 
		13.428,12.175 15.539,13.999 16.171,13.267 17.581,11.635 17.192,9.146 	"/>
	<path d="M31.405,13.106h-3.023v-2.085h-4.232v2.085h-3.212l0.215-0.413l-2.471-1.579l-0.3-2.146l-1.003,0.149l0.364,2.333l0,0
		l0.057,0.362l2.605,1.666v0.931h0.853v6.409h0.559v-6.409h2.333v1.719h-0.874v0.656h0.493v3.522h0.573v-3.522h3.769v3.441h0.573
		v-3.441h0.655v-0.656h-0.956v-1.719h1.605v6.362h0.559v-6.362h0.859V13.106z M28.054,11.349v1.757h-0.983v-1.757H28.054z
		 M26.607,11.349v1.757H25.87v-1.757H26.607z M24.478,11.349h0.928v1.757h-0.928V11.349z M24.478,16.126v-1.719h0.928v1.719H24.478z
		 M25.87,16.126v-1.719h0.737v1.719H25.87z M28.054,16.126h-0.983v-1.719h0.983V16.126z"/>
	<circle cx="3.983" cy="3.03" r="3.03"/>
	<path d="M7.12,6.648L5.084,6.514l-1.154,1.34l-1.118-1.34L0.125,7.144L0,12.498l0.603-0.006l0.065,0.156l0.25-0.105l0.131-0.056
		l0.195-0.001l0.053,1.06h0.158v0.69v0.508v5.393H1.248L0.032,20.4v1.121h1.035l1.208-0.197l0.01,0.197h1.339v-1.249v-0.136v-5.393
		h0.762v5.393v0.136v1.249h1.338l0.011-0.197l1.209,0.197h1.034V20.4l-1.215-0.263H6.555v-5.393v-0.508v-0.69h0.192l0.181-3.528
		l1.593-0.669l2.512,1.787l0.865-1.215L7.12,6.648z M9.257,8.745l-8.443,3.548l-0.119-0.282l8.443-3.548L9.257,8.745z M6.977,9.078
		l0.042-0.8L7.709,8.77L6.977,9.078z"/>
</g>
<g>
</g>
<g>
</g>
<g>
</g>
<g>
</g>
<g>
</g>
<g>
</g>
<g>
</g>
<g>
</g>
<g>
</g>
<g>
</g>
<g>
</g>
<g>
</g>
<g>
</g>
<g>
</g>
<g>
</g>
</svg>
