<?xml version="1.0" encoding="iso-8859-1"?>
<!-- Generator: Adobe Illustrator 16.0.0, SVG Export Plug-In . SVG Version: 6.00 Build 0)  -->
<!DOCTYPE svg PUBLIC "-//W3C//DTD SVG 1.1//EN" "http://www.w3.org/Graphics/SVG/1.1/DTD/svg11.dtd">
<svg version="1.1" id="Layer_1" xmlns="http://www.w3.org/2000/svg" xmlns:xlink="http://www.w3.org/1999/xlink" x="0px" y="0px"
	 width="27.784px" height="30.985px" viewBox="0 0 27.784 30.985" style="enable-background:new 0 0 27.784 30.985;"
	 xml:space="preserve">
<g>
	<path d="M19.161,11.627l0.11-0.274l0.212,0.225v-0.225l0.281,0.085l-0.066-0.202c0.18,0.061,0.449,0.122,0.808,0.122
		c1.118,0,2.727-1.209,2.75-3.016c0.022-1.304-0.512-2.328-1.731-2.532c-0.936-0.157-1.708,0.271-2.018,0.48
		c0.012-0.273,0.026-0.575,0.034-0.749c0.009-0.236,0.424-0.361,0.625-0.552c0.118-0.113-0.003-0.413-0.003-0.413
		s-1.036,0.459-1.008,0.903C19.167,5.697,19.17,6,19.169,6.253c-0.292-0.194-0.905-0.51-1.77-0.469
		c-1.196,0.056-1.979,0.935-1.958,2.237c0.022,1.807,1.626,3.332,2.744,3.332c0.275,0,0.5-0.035,0.675-0.077l-0.021,0.13
		l0.205-0.106l0.085,0.328H0v3.29h2.233v15.667h1.412V14.917h20.557v16.068h1.412V14.917h2.17v-3.29H19.161z M17.09,9.622
		c-0.453-0.58-0.316-1.401-0.316-1.401s0.302,0.762,0.613,1.233c0.312,0.471,0.844,0.848,0.844,0.848S17.542,10.201,17.09,9.622z"/>
	<polygon points="14.144,5.79 13.25,5.79 13.25,5.629 2.053,5.629 2.053,5.514 2.039,5.514 2.039,5.444 13.25,5.444 13.25,5.294 
		2.043,5.294 2.043,5.24 2.039,5.24 2.039,5.169 2.043,5.169 2.043,5.146 13.25,5.146 13.25,4.939 2.023,4.939 2.023,4.9 2.017,4.9 
		2.017,4.832 2.023,4.832 2.023,4.791 13.25,4.791 13.25,4.603 2.014,4.603 2.014,4.455 13.25,4.455 13.25,4.276 2.014,4.276 
		2.014,4.128 13.25,4.128 13.25,3.941 2.033,3.941 2.033,3.792 13.25,3.792 13.25,3.604 2.023,3.604 2.023,3.457 13.25,3.457 
		13.25,3.28 2.023,3.28 2.023,3.13 13.25,3.13 13.25,2.86 14.144,2.86 14.144,2.501 1.138,2.501 1.138,2.86 1.146,2.86 1.146,5.79 
		1.138,5.79 1.138,6.147 14.144,6.147 	"/>
	<polygon points="14.144,8.445 13.25,8.445 13.25,8.243 1.853,8.243 1.853,8.096 13.25,8.096 13.25,7.918 1.853,7.918 1.853,7.769 
		13.25,7.769 13.25,7.582 1.873,7.582 1.873,7.53 1.869,7.53 1.869,7.461 1.873,7.461 1.873,7.434 13.25,7.434 13.25,7.246 
		1.862,7.246 1.862,7.097 13.25,7.097 13.25,6.92 1.862,6.92 1.862,6.772 13.25,6.772 13.25,6.602 14.144,6.602 14.144,6.377 
		1.138,6.377 1.138,6.602 1.146,6.602 1.146,8.445 1.138,8.445 1.138,8.672 14.144,8.672 	"/>
	<polygon points="14.144,11.105 13.25,11.105 13.25,10.93 1.786,10.93 1.786,10.783 13.25,10.783 13.25,10.604 1.786,10.604 
		1.786,10.456 13.25,10.456 13.25,10.269 1.806,10.269 1.806,10.233 1.806,10.233 1.806,10.163 1.806,10.163 1.806,10.12 
		13.25,10.12 13.25,9.933 1.796,9.933 1.796,9.786 13.25,9.786 13.25,9.606 1.796,9.606 1.796,9.458 13.25,9.458 13.25,9.262 
		14.144,9.262 14.144,9.038 1.138,9.038 1.138,9.262 1.146,9.262 1.146,11.105 1.138,11.105 1.138,11.332 14.144,11.332 	"/>
	<polygon points="12.497,2.07 12.492,2.07 12.492,0.225 12.497,0.225 12.497,0 2.447,0 2.447,0.225 3.138,0.225 3.138,0.385 
		11.907,0.385 11.907,0.535 3.138,0.535 3.138,0.711 11.907,0.711 11.907,0.859 3.138,0.859 3.138,1.048 11.886,1.048 11.886,1.129 
		11.899,1.129 11.899,1.195 3.138,1.195 3.138,1.382 11.896,1.382 11.896,1.445 11.899,1.445 11.899,1.512 11.896,1.512 
		11.896,1.532 3.138,1.532 3.138,1.708 11.896,1.708 11.896,1.783 11.899,1.783 11.899,1.851 11.896,1.851 11.896,1.856 
		3.138,1.856 3.138,2.07 2.447,2.07 2.447,2.294 12.497,2.294 	"/>
	<path d="M21.523,17.458h-1.621v1.257h-6.541v-1.257h-1.621v1.257H9.506v12.27h13.75v-12.27h-1.732V17.458z M22.585,30.314H10.177
		v-6.455h2.375v0.743h1.928v-0.743h3.843v0.831h1.929v-0.831h2.333V30.314z M22.585,19.385v3.802h-2.333v-0.776h-1.929v0.776H14.48
		v-0.863h-1.928v0.863h-2.375v-3.802H22.585z"/>
	<path d="M11.389,26.667h0.591v2.753h8.901v-2.753h0.59v-0.923H11.389V26.667z M12.315,26.667h8.23v2.417h-8.23V26.667z"/>
	<rect x="13.852" y="28.089" width="5.184" height="0.474"/>
</g>
<g>
</g>
<g>
</g>
<g>
</g>
<g>
</g>
<g>
</g>
<g>
</g>
<g>
</g>
<g>
</g>
<g>
</g>
<g>
</g>
<g>
</g>
<g>
</g>
<g>
</g>
<g>
</g>
<g>
</g>
</svg>
