<?xml version="1.0" encoding="iso-8859-1"?>
<!-- Generator: Adobe Illustrator 16.0.0, SVG Export Plug-In . SVG Version: 6.00 Build 0)  -->
<!DOCTYPE svg PUBLIC "-//W3C//DTD SVG 1.1//EN" "http://www.w3.org/Graphics/SVG/1.1/DTD/svg11.dtd">
<svg version="1.1" id="Layer_1" xmlns="http://www.w3.org/2000/svg" xmlns:xlink="http://www.w3.org/1999/xlink" x="0px" y="0px"
	 width="30.803px" height="31.735px" viewBox="0 0 30.803 31.735" style="enable-background:new 0 0 30.803 31.735;"
	 xml:space="preserve">
<g>
	<path d="M8.354,11.376l0.686,3.475h2.362l0.325,6.99h4.299l0.326-6.99h2.496l0.687-3.475h-3.222l-0.137-1.229
		c0.045-0.326,0.194-0.839,0.217-1.351c0.038-0.874,0.088-3.754-2.426-3.754c-0.266,0-0.576,0.031-0.711,0.092
		c-0.135,0.06-0.159,0.198-0.246,0.228c-0.091,0.03-0.219,0.019-0.299,0.058c-1.245,0.6-1.203,2.063-1.203,2.063l0.185,3.005
		l-0.093,0.89H8.354z M15.42,11.376c0.006-0.027,0.01-0.055,0.015-0.083l0.013,0.083H15.42z M14.532,9.321v0.706h0.003l0.254,0.121
		l-0.682,1.228h-0.225l-0.67-1.272l0.199-0.049V9.297c-0.768-0.241-1.333-0.925-1.396-1.754l0.525,0.076V7.94h1.38V7.713h0.243V7.94
		h1.379V7.627l0.439-0.067C15.956,8.254,15.598,9.184,14.532,9.321z M12.695,7.786V7.24h1.072v0.546H12.695z M14.317,7.786V7.24
		h1.073v0.546H14.317z M12.023,7.192c0.554-0.037,1.18-0.475,1.229-1.082c0.701,0.581,1.695,0.609,2.525,0.684
		c0.103,0.049,0.178,0.257,0.199,0.533l-0.434,0.066V7.086h-1.379v0.321h-0.243V7.086h-1.38v0.301L12.009,7.31
		C12.013,7.271,12.02,7.232,12.023,7.192z"/>
	<circle cx="23.502" cy="23.896" r="1.032"/>
	<circle cx="28.238" cy="23.896" r="1.032"/>
	<circle cx="18.257" cy="23.896" r="1.032"/>
	<circle cx="12.662" cy="23.896" r="1.032"/>
	<circle cx="7.262" cy="23.797" r="1.031"/>
	<circle cx="1.887" cy="23.797" r="1.031"/>
	<circle cx="23.501" cy="27.123" r="1.485"/>
	<polygon points="24.074,28.829 23.527,29.488 22.96,28.829 21.649,29.08 21.649,31.692 25.354,31.692 25.295,29.101 	"/>
	<circle cx="18.117" cy="27.122" r="1.485"/>
	<polygon points="18.691,28.829 18.145,29.488 17.578,28.829 16.266,29.101 16.266,31.692 19.971,31.692 19.896,29.101 	"/>
	<circle cx="20.734" cy="25.05" r="1.086"/>
	<path d="M22.088,28.327c-0.193-0.365-0.328-0.761-0.328-1.205c0-0.291,0.078-0.561,0.168-0.823H21.82h-0.267h-0.401l-0.4,0.481
		l-0.413-0.481h-0.426h-0.237c0.11,0.255,0.173,0.53,0.173,0.823c0,0.478-0.169,0.916-0.442,1.271h2.682V28.327z"/>
	<circle cx="12.662" cy="27.123" r="1.485"/>
	<polygon points="13.234,28.829 12.688,29.488 12.121,28.829 10.809,29.101 10.809,31.692 14.514,31.692 14.439,29.101 	"/>
	<circle cx="15.277" cy="25.05" r="1.086"/>
	<path d="M16.632,28.327c-0.194-0.365-0.329-0.761-0.329-1.205c0-0.291,0.078-0.561,0.167-0.823h-0.106h-0.266h-0.402l-0.4,0.481
		l-0.414-0.481h-0.424h-0.238c0.109,0.255,0.172,0.53,0.172,0.823c0,0.478-0.166,0.916-0.443,1.271h2.685V28.327z"/>
	<circle cx="28.947" cy="27.054" r="1.485"/>
	<polygon points="30.727,29.04 29.521,28.763 28.975,29.419 28.408,28.763 27.096,29.059 27.096,31.625 30.803,31.625 	"/>
	<circle cx="26.106" cy="24.981" r="1.086"/>
	<path d="M27.461,28.259c-0.193-0.365-0.328-0.762-0.328-1.205c0-0.29,0.078-0.561,0.166-0.823h-0.105h-0.267h-0.401l-0.4,0.481
		l-0.413-0.481h-0.426h-0.237c0.109,0.254,0.172,0.533,0.172,0.823c0,0.478-0.166,0.915-0.441,1.273h2.683L27.461,28.259z"/>
	<circle cx="7.346" cy="27.164" r="1.486"/>
	<polygon points="7.92,28.871 7.37,29.529 6.805,28.871 5.494,29.101 5.494,31.735 9.199,31.735 9.122,29.101 	"/>
	<circle cx="9.961" cy="25.091" r="1.087"/>
	<path d="M11.315,28.437l-0.001-0.067c-0.193-0.365-0.328-0.763-0.328-1.203c0-0.294,0.08-0.563,0.168-0.825h-0.105h-0.267h-0.401
		l-0.4,0.481l-0.414-0.481H9.141H8.903c0.108,0.254,0.172,0.531,0.172,0.823c0,0.478-0.167,0.914-0.443,1.272H11.315z"/>
	<circle cx="1.889" cy="27.164" r="1.486"/>
	<polygon points="2.463,28.871 1.914,29.529 1.348,28.871 0,29.101 0.037,31.735 3.742,31.735 3.664,29.101 	"/>
	<circle cx="4.506" cy="25.091" r="1.087"/>
	<path d="M5.591,26.341H5.324h-0.4l-0.4,0.481l-0.414-0.481H3.685H3.447c0.109,0.254,0.172,0.531,0.172,0.823
		c0,0.478-0.169,0.914-0.443,1.272h2.684l-0.001-0.067c-0.192-0.365-0.328-0.763-0.328-1.203c0-0.294,0.078-0.563,0.168-0.825H5.591
		z"/>
	<path d="M19.602,7.929l-1.234,2.154l0.532-0.082c0.035-0.007,3.578-0.555,6.01-1.276c3.188-0.946,5.017-2.514,5.017-4.307
		C29.926,1.982,27.045,0,23.502,0s-6.425,1.982-6.425,4.418C17.077,5.798,18.016,7.097,19.602,7.929z M23.502,0.519
		c3.256,0,5.906,1.75,5.906,3.899c0,2.195-3.25,3.395-4.646,3.809c-1.838,0.545-4.326,0.992-5.406,1.174l0.972-1.695l-0.253-0.12
		c-1.552-0.736-2.479-1.92-2.479-3.167C17.596,2.269,20.246,0.519,23.502,0.519z"/>
</g>
<g>
</g>
<g>
</g>
<g>
</g>
<g>
</g>
<g>
</g>
<g>
</g>
<g>
</g>
<g>
</g>
<g>
</g>
<g>
</g>
<g>
</g>
<g>
</g>
<g>
</g>
<g>
</g>
<g>
</g>
</svg>
