<?xml version="1.0" encoding="iso-8859-1"?>
<!-- Generator: Adobe Illustrator 16.0.0, SVG Export Plug-In . SVG Version: 6.00 Build 0)  -->
<!DOCTYPE svg PUBLIC "-//W3C//DTD SVG 1.1//EN" "http://www.w3.org/Graphics/SVG/1.1/DTD/svg11.dtd">
<svg version="1.1" id="Layer_1" xmlns="http://www.w3.org/2000/svg" xmlns:xlink="http://www.w3.org/1999/xlink" x="0px" y="0px"
	 width="27.785px" height="29.995px" viewBox="0 0 27.785 29.995" style="enable-background:new 0 0 27.785 29.995;"
	 xml:space="preserve">
<g>
	<path d="M24.146,5.5l0.196,0.063l-0.158,0.113l-0.026,0.021c-0.122,0.122-0.081,0.707,0.077,1.099
		c0.183,0.456,0.499,0.702,0.915,0.71c0.023,0.001,0.048,0,0.071-0.001l-0.004,0.268l-0.313,0.005l0.003,0.186l0.308-0.005
		l-0.033,2.007l0.273-0.581l0.007-1.431l0.225-0.004l-0.003-0.186l-0.221,0.004l0.001-0.301c0.206-0.056,0.399-0.17,0.571-0.343
		c0.38-0.38,0.585-0.968,0.538-1.178c-0.014-0.063-0.048-0.097-0.077-0.114l-0.112-0.091l0.139-0.048l0.053-0.033
		c0.083-0.084,0.197-0.198-0.626-2.784c-0.396-1.245-0.826-2.477-0.831-2.489L24.985,0l-0.098,0.396
		c-0.269,1.089-1.119,4.671-0.763,5.079L24.146,5.5z M25.025,0.858c0.105,0.305,0.21,0.613,0.312,0.918l-0.218,0.275l-0.301-0.301
		C24.885,1.456,24.953,1.156,25.025,0.858z M24.778,1.94l0.356,0.357l0.264-0.335c0.557,1.681,1.011,3.21,0.993,3.519l-0.502,0.173
		l0.448,0.364c0.005,0.132-0.149,0.609-0.475,0.934c-0.124,0.125-0.257,0.207-0.397,0.257V7.2l-0.162-3.412l-0.049,0.005
		l-0.028,3.408l-0.001,0.054c-0.023,0.002-0.046,0.007-0.07,0.007c-0.24-0.006-0.436-0.119-0.579-0.336
		c-0.246-0.372-0.266-0.933-0.234-1.063l0.537-0.387l-0.583-0.185C24.184,5.027,24.42,3.573,24.778,1.94z"/>
	<path d="M20.54,9.965h3.035c0.133,0,0.246-0.044,0.328-0.128c0.14-0.146,0.137-0.358,0.136-0.378V7.524H23.2v-0.25h0.242V6.943
		h-0.513l0.133-0.865H21.17l0.133,0.865h-0.513v0.332h0.267v0.25h-0.966v1.945c-0.001,0.022-0.004,0.229,0.132,0.372
		C20.302,9.922,20.411,9.965,20.54,9.965z M20.331,7.764h0.966V7.275h1.664v0.489h0.837v0.597h-3.467V7.764z M23.449,8.967v0.114
		H20.68V8.967H23.449z M21.166,8.83V8.716h1.847V8.83H21.166z M20.331,9.331h3.468v0.133c0,0.037-0.01,0.146-0.071,0.208
		c-0.036,0.036-0.086,0.054-0.153,0.054H20.54c-0.063,0-0.109-0.017-0.143-0.051c-0.057-0.059-0.067-0.162-0.066-0.201V9.331z"/>
	<polygon points="0,10.638 0,13.927 2.234,13.927 2.234,29.595 3.645,29.595 3.645,13.927 24.203,13.927 24.203,29.995 
		25.614,29.995 25.614,13.927 27.785,13.927 27.785,10.638 	"/>
	<path d="M18.636,9.184H17.88l-0.111-1.986l-0.225,0.089c-0.668,0.261-1.328,0.388-2.017,0.388c-1.026,0-1.905-0.283-2.68-0.534
		c-0.664-0.214-1.228-0.395-1.709-0.336c-0.704,0.085-1.055,0.628-1.23,1.175c-0.176-0.547-0.527-1.09-1.23-1.175
		C8.196,6.746,7.631,6.926,6.968,7.141c-0.775,0.25-1.654,0.533-2.681,0.533h0c-0.688,0-1.348-0.127-2.017-0.388L2.046,7.197
		L1.935,9.184H1.15v0.781h17.485V9.184z M2.295,9.008l0.073-1.314c0.633,0.222,1.263,0.33,1.918,0.33h0
		c1.082,0,2.027-0.306,2.787-0.55c0.624-0.201,1.146-0.374,1.561-0.323c0.93,0.112,1.073,1.389,1.093,1.857H2.295z M10.086,9.008
		c0.02-0.468,0.161-1.745,1.094-1.857c0.415-0.051,0.937,0.122,1.56,0.323c0.76,0.244,1.706,0.55,2.788,0.55
		c0.656,0,1.286-0.107,1.919-0.33l0.074,1.314H10.086z"/>
</g>
<g>
</g>
<g>
</g>
<g>
</g>
<g>
</g>
<g>
</g>
<g>
</g>
<g>
</g>
<g>
</g>
<g>
</g>
<g>
</g>
<g>
</g>
<g>
</g>
<g>
</g>
<g>
</g>
<g>
</g>
</svg>
