<?xml version="1.0" encoding="iso-8859-1"?>
<!-- Generator: Adobe Illustrator 16.0.0, SVG Export Plug-In . SVG Version: 6.00 Build 0)  -->
<!DOCTYPE svg PUBLIC "-//W3C//DTD SVG 1.1//EN" "http://www.w3.org/Graphics/SVG/1.1/DTD/svg11.dtd">
<svg version="1.1" id="Layer_1" xmlns="http://www.w3.org/2000/svg" xmlns:xlink="http://www.w3.org/1999/xlink" x="0px" y="0px"
	 width="26.602px" height="28.478px" viewBox="0 0 26.602 28.478" style="enable-background:new 0 0 26.602 28.478;"
	 xml:space="preserve">
<g>
	<path style="fill:#070909;" d="M20.395,16.065c-3.421,0-6.206,2.784-6.206,6.206c0,3.423,2.785,6.207,6.206,6.207
		c3.423,0,6.207-2.784,6.207-6.207C26.602,18.849,23.818,16.065,20.395,16.065z M20.395,25.254c-1.644,0-2.981-1.338-2.981-2.982
		s1.337-2.982,2.981-2.982c1.645,0,2.982,1.338,2.982,2.982S22.04,25.254,20.395,25.254z"/>
	<path style="fill:#070909;" d="M6.206,16.065C2.784,16.065,0,18.849,0,22.271c0,3.423,2.784,6.207,6.206,6.207
		c3.422,0,6.207-2.784,6.207-6.207C12.413,18.849,9.628,16.065,6.206,16.065z M6.206,25.254c-1.645,0-2.982-1.338-2.982-2.982
		s1.337-2.982,2.982-2.982c1.645,0,2.982,1.338,2.982,2.982S7.851,25.254,6.206,25.254z"/>
	<path style="fill:#070909;" d="M25.339,0l-12,11.127v-0.029L1.961,0.013v7.294L13.329,18.43L24.707,7.344L25.339,0z M13.545,15.744
		c-0.876,0-1.585-0.709-1.585-1.585c0-0.875,0.709-1.585,1.585-1.585c0.875,0,1.585,0.71,1.585,1.585
		C15.13,15.034,14.42,15.744,13.545,15.744z"/>
</g>
<g>
</g>
<g>
</g>
<g>
</g>
<g>
</g>
<g>
</g>
<g>
</g>
<g>
</g>
<g>
</g>
<g>
</g>
<g>
</g>
<g>
</g>
<g>
</g>
<g>
</g>
<g>
</g>
<g>
</g>
</svg>
