<?xml version="1.0" encoding="iso-8859-1"?>
<!-- Generator: Adobe Illustrator 16.0.0, SVG Export Plug-In . SVG Version: 6.00 Build 0)  -->
<!DOCTYPE svg PUBLIC "-//W3C//DTD SVG 1.1//EN" "http://www.w3.org/Graphics/SVG/1.1/DTD/svg11.dtd">
<svg version="1.1" id="Layer_1" xmlns="http://www.w3.org/2000/svg" xmlns:xlink="http://www.w3.org/1999/xlink" x="0px" y="0px"
	 width="29.273px" height="24.028px" viewBox="0 0 29.273 24.028" style="enable-background:new 0 0 29.273 24.028;"
	 xml:space="preserve">
<g>
	<path d="M29.273,0H0v21.348h10.522l-4.173,1.756v0.925h16.223v-0.925l-4.173-1.756h10.875V0z M26.969,17.819H2.306V2.914h24.663
		V17.819z"/>
</g>
<rect x="3.81" y="4.211" width="6.125" height="6.292"/>
<rect x="11.225" y="4.212" width="14.4" height="0.966"/>
<rect x="11.225" y="5.959" width="14.4" height="0.967"/>
<rect x="11.225" y="7.79" width="14.4" height="0.967"/>
<rect x="11.225" y="9.537" width="14.4" height="0.966"/>
<rect x="3.81" y="11.208" width="21.95" height="0.967"/>
<rect x="3.81" y="12.792" width="21.95" height="0.967"/>
<rect x="3.81" y="14.297" width="21.95" height="0.967"/>
<rect x="3.81" y="15.854" width="21.95" height="0.967"/>
<g>
</g>
<g>
</g>
<g>
</g>
<g>
</g>
<g>
</g>
<g>
</g>
<g>
</g>
<g>
</g>
<g>
</g>
<g>
</g>
<g>
</g>
<g>
</g>
<g>
</g>
<g>
</g>
<g>
</g>
</svg>
