<?xml version="1.0" encoding="iso-8859-1"?>
<!-- Generator: Adobe Illustrator 16.0.0, SVG Export Plug-In . SVG Version: 6.00 Build 0)  -->
<!DOCTYPE svg PUBLIC "-//W3C//DTD SVG 1.1//EN" "http://www.w3.org/Graphics/SVG/1.1/DTD/svg11.dtd">
<svg version="1.1" id="Layer_1" xmlns="http://www.w3.org/2000/svg" xmlns:xlink="http://www.w3.org/1999/xlink" x="0px" y="0px"
	 width="17.083px" height="32.482px" viewBox="0 0 17.083 32.482" style="enable-background:new 0 0 17.083 32.482;"
	 xml:space="preserve">
<g>
	<path d="M6.491,25.762c-0.032-0.61-0.229-1.176-0.554-1.652c-0.444-0.652-1.119-1.131-1.906-1.326
		c-0.251-0.063-0.512-0.1-0.782-0.1c-0.349,0-0.685,0.057-1.001,0.16c-0.762,0.247-1.4,0.77-1.799,1.449
		c-0.221,0.375-0.368,0.796-0.423,1.246C0.011,25.669,0,25.8,0,25.934c0,0.719,0.238,1.381,0.634,1.92
		c0.393,0.533,0.943,0.943,1.583,1.158c0.325,0.109,0.671,0.171,1.032,0.171c0.488,0,0.95-0.111,1.365-0.305
		c0.452-0.21,0.848-0.519,1.159-0.901c0.453-0.559,0.726-1.27,0.726-2.043C6.499,25.875,6.494,25.818,6.491,25.762z M5.831,25.762
		l-0.668,1.157l0.44,0.763c-0.296,0.397-0.689,0.718-1.145,0.925l-0.336-0.581H2.787l-0.411,0.711
		c-0.638-0.199-1.184-0.61-1.553-1.152l0.513-0.887l-0.668-1.158H0.343c0.061-0.456,0.225-0.881,0.472-1.246H1.75l0.668-1.157
		l-0.008-0.015c0.267-0.08,0.548-0.124,0.84-0.124c0.212,0,0.419,0.023,0.619,0.067l-0.042,0.071l0.668,1.157h1.189
		c0.287,0.424,0.461,0.928,0.493,1.469H5.831z"/>
	<polygon points="2.582,24.736 1.914,25.895 2.582,27.051 3.917,27.051 4.586,25.895 3.917,24.736 	"/>
	<polygon points="12.291,18.947 14.228,18.947 14.791,18.947 14.791,12.072 12.291,12.072 12.291,16.76 8.351,16.718 8.351,18.905 
		10.883,18.932 10.882,18.947 	"/>
	<polygon points="16.606,27.216 15.924,21.378 16.25,21.384 15.919,10.869 11.138,11.123 11.101,16.26 11.791,16.26 11.791,12.072 
		11.791,11.572 12.291,11.572 14.791,11.572 15.291,11.572 15.291,12.072 15.291,18.947 15.291,19.447 14.791,19.447 14.228,19.447 
		12.291,19.447 10.841,19.447 10.689,21.306 11.044,21.307 8.668,25.7 7.058,30.27 6.499,30.27 6.499,31.354 9.707,31.354 
		9.787,31.354 10.071,31.354 10.071,30.27 9.787,30.27 9.744,30.27 11.227,26.123 13.176,22.813 14.101,26.94 14.427,31.398 
		13.951,31.398 13.951,32.482 17.083,32.482 17.083,31.398 16.979,31.398 	"/>
	<path d="M8.552,4.484C8.433,4.865,8.351,5.262,8.351,5.683c0,0.162,0.029,0.316,0.048,0.474C8.4,6.167,8.4,6.178,8.402,6.189
		c0.17,1.348,0.996,2.479,2.157,3.074c0.042,0.021,0.083,0.047,0.126,0.068c0.108,0.05,0.218,0.092,0.331,0.133
		c0.13,0.049,0.264,0.09,0.4,0.124c0.082,0.021,0.161,0.042,0.245,0.058c0.233,0.044,0.471,0.073,0.717,0.073
		c0.001,0,0.003,0,0.005-0.001c0.001,0,0.002,0.001,0.004,0.001c0.005,0,0.01-0.001,0.016-0.002c0.007,0,0.015,0.002,0.022,0.002
		c0.008,0,0.015-0.002,0.023-0.003c0.006,0.002,0.013,0.003,0.019,0.003c0.007,0,0.015-0.003,0.022-0.003s0.015,0.003,0.022,0.003
		c0.509,0,0.99-0.112,1.431-0.3c0.034-0.014,0.069-0.026,0.102-0.041c0.13-0.06,0.253-0.129,0.375-0.203
		c1.226-0.698,2.063-2.002,2.063-3.514c0-0.448-0.09-0.871-0.224-1.274l0.825-1.138l-1.477-0.521l0.288-1.508l-1.804,0.515L13.263,0
		l-1.541,1.605l-1.193-1.384L9.967,2.048L8.053,1.42l0.724,1.612L7.382,3.425L8.552,4.484z"/>
</g>
<g>
</g>
<g>
</g>
<g>
</g>
<g>
</g>
<g>
</g>
<g>
</g>
<g>
</g>
<g>
</g>
<g>
</g>
<g>
</g>
<g>
</g>
<g>
</g>
<g>
</g>
<g>
</g>
<g>
</g>
</svg>
