<?xml version="1.0" encoding="iso-8859-1"?>
<!-- Generator: Adobe Illustrator 16.0.0, SVG Export Plug-In . SVG Version: 6.00 Build 0)  -->
<!DOCTYPE svg PUBLIC "-//W3C//DTD SVG 1.1//EN" "http://www.w3.org/Graphics/SVG/1.1/DTD/svg11.dtd">
<svg version="1.1" id="Layer_1" xmlns="http://www.w3.org/2000/svg" xmlns:xlink="http://www.w3.org/1999/xlink" x="0px" y="0px"
	 width="19.437px" height="31.792px" viewBox="0 0 19.437 31.792" style="enable-background:new 0 0 19.437 31.792;"
	 xml:space="preserve">
<g>
	<path d="M15.646,5.936v-0.03h-0.022c-2.511-3.352-5.373-5.51-5.586-5.667L9.718,0l-0.32,0.238C9.014,0.522,0,7.314,0,15.896
		c0,8.581,9.014,15.373,9.398,15.658l0.32,0.237l0.32-0.237c0.384-0.285,9.398-7.077,9.398-15.658
		C19.437,12.084,17.657,8.628,15.646,5.936z M9.718,1.353c0.746,0.601,2.674,2.245,4.52,4.553H5.201
		C7.046,3.598,8.973,1.953,9.718,1.353z M3.9,7.684h11.638c1.569,2.36,2.823,5.189,2.823,8.213c0,2.92-1.173,5.664-2.669,7.976
		H3.741c-1.496-2.311-2.667-5.053-2.667-7.976C1.075,12.875,2.331,10.045,3.9,7.684z M9.718,30.439
		c-0.771-0.621-2.804-2.357-4.705-4.788h9.407C12.52,28.082,10.488,29.818,9.718,30.439z"/>
	<polygon points="7.754,17.424 7.754,18.533 8.829,18.533 8.829,19.974 10.542,19.974 10.542,18.533 11.347,18.533 11.347,17.424 
		10.542,17.424 10.542,16.45 11.347,16.45 11.347,15.342 10.542,15.342 10.542,14.164 11.481,14.164 11.481,13.056 10.542,13.056 
		10.542,11.914 8.829,11.914 8.829,13.056 7.888,13.056 7.888,14.164 8.829,14.164 8.829,15.342 7.754,15.342 7.754,16.45 
		8.829,16.45 8.829,17.424 	"/>
</g>
<g>
</g>
<g>
</g>
<g>
</g>
<g>
</g>
<g>
</g>
<g>
</g>
<g>
</g>
<g>
</g>
<g>
</g>
<g>
</g>
<g>
</g>
<g>
</g>
<g>
</g>
<g>
</g>
<g>
</g>
</svg>
