<?xml version="1.0" encoding="iso-8859-1"?>
<!-- Generator: Adobe Illustrator 16.0.0, SVG Export Plug-In . SVG Version: 6.00 Build 0)  -->
<!DOCTYPE svg PUBLIC "-//W3C//DTD SVG 1.1//EN" "http://www.w3.org/Graphics/SVG/1.1/DTD/svg11.dtd">
<svg version="1.1" id="Layer_1" xmlns="http://www.w3.org/2000/svg" xmlns:xlink="http://www.w3.org/1999/xlink" x="0px" y="0px"
	 width="28.162px" height="27.767px" viewBox="0 0 28.162 27.767" style="enable-background:new 0 0 28.162 27.767;"
	 xml:space="preserve">
<g>
	<path d="M16.751,0c-3.425,0-6.494,1.523-8.588,3.919c0.749-0.174,1.523-0.278,2.315-0.315c-0.047-0.098-0.09-0.187-0.126-0.265
		c1.761-1.398,3.98-2.239,6.398-2.239c0.693,0,1.371,0.071,2.026,0.202c-0.617,0.761-1.56,2.104-1.957,3.619
		c0.263,0.13,0.52,0.267,0.771,0.413c0.367-1.663,1.544-3.183,2.079-3.806c1.797,0.532,3.385,1.543,4.629,2.882
		c-0.862,0.407-2.547,1.263-4.502,2.545c0.207,0.19,0.412,0.382,0.607,0.585c2.027-1.315,3.73-2.148,4.452-2.48
		c1.151,1.467,1.918,3.25,2.138,5.199c-0.848,0.136-2.66,0.359-4.492,0.15c0.153,0.283,0.288,0.575,0.42,0.87
		c0.396,0.03,0.79,0.049,1.165,0.049c1.235,0,2.315-0.136,2.959-0.24c0.004,0.109,0.018,0.215,0.018,0.325
		c0,2.953-1.263,5.604-3.26,7.485c-0.118,0.63-0.285,1.241-0.491,1.835c2.928-2.068,4.85-5.472,4.85-9.32
		C28.162,5.12,23.043,0,16.751,0z"/>
	<path d="M20.85,9.95c-1.558-2.289-3.93-3.974-6.694-4.66c-0.882-0.218-1.797-0.347-2.744-0.347c-1.227,0-2.407,0.2-3.515,0.56
		C5.219,6.372,2.98,8.208,1.575,10.595c-0.772,1.315-1.291,2.795-1.483,4.377C0.036,15.427,0,15.886,0,16.354
		c0,2.525,0.834,4.854,2.227,6.745c1.38,1.874,3.311,3.311,5.559,4.067c1.142,0.384,2.357,0.601,3.626,0.601
		c1.714,0,3.335-0.391,4.794-1.07c1.587-0.74,2.979-1.823,4.068-3.167c1.592-1.963,2.55-4.458,2.55-7.176
		c0-0.202-0.02-0.4-0.031-0.601C22.681,13.611,21.988,11.621,20.85,9.95z M20.478,15.754l-2.347,4.063l1.545,2.678
		c-1.039,1.395-2.419,2.521-4.021,3.249l-1.178-2.04H9.785l-1.442,2.497c-2.241-0.699-4.156-2.147-5.451-4.046l1.801-3.119
		l-2.347-4.063H1.202c0.217-1.604,0.792-3.095,1.659-4.377h3.282L8.49,6.532L8.461,6.478c0.935-0.28,1.924-0.436,2.95-0.436
		c0.746,0,1.472,0.084,2.173,0.235l-0.146,0.254l2.346,4.063h4.179c1.005,1.489,1.619,3.258,1.729,5.159H20.478z"/>
	<polygon points="9.064,12.154 6.718,16.218 9.064,20.281 13.757,20.281 16.104,16.218 13.757,12.154 	"/>
</g>
<g>
</g>
<g>
</g>
<g>
</g>
<g>
</g>
<g>
</g>
<g>
</g>
<g>
</g>
<g>
</g>
<g>
</g>
<g>
</g>
<g>
</g>
<g>
</g>
<g>
</g>
<g>
</g>
<g>
</g>
</svg>
