<?xml version="1.0" encoding="iso-8859-1"?>
<!-- Generator: Adobe Illustrator 16.0.0, SVG Export Plug-In . SVG Version: 6.00 Build 0)  -->
<!DOCTYPE svg PUBLIC "-//W3C//DTD SVG 1.1//EN" "http://www.w3.org/Graphics/SVG/1.1/DTD/svg11.dtd">
<svg version="1.1" id="Layer_1" xmlns="http://www.w3.org/2000/svg" xmlns:xlink="http://www.w3.org/1999/xlink" x="0px" y="0px"
	 width="31.822px" height="27.382px" viewBox="0 0 31.822 27.382" style="enable-background:new 0 0 31.822 27.382;"
	 xml:space="preserve">
<g>
	<polygon points="23.759,0 23.759,6.409 16.734,6.409 16.684,13.268 8.654,13.268 8.705,19.803 0,19.803 0,27.382 1,27.382 
		1,20.803 9.713,20.803 9.662,14.268 17.676,14.268 17.727,7.409 24.759,7.409 24.759,1 31.822,1 31.822,0 	"/>
	<g>
		<path d="M1.52,15.459l-1.33,3.611h1.117l0.162-0.516h1.148l0.151,0.516h1.153l-1.315-3.611H1.52z M1.711,17.78l0.35-1.112h0.01
			l0.324,1.112H1.711z"/>
		<path d="M5.515,15.55c-0.007,0.146-0.041,0.268-0.104,0.367s-0.143,0.179-0.24,0.237c-0.098,0.06-0.208,0.102-0.329,0.127
			s-0.246,0.036-0.374,0.032v0.729h0.824v2.028h1.052V15.55H5.515z"/>
	</g>
	<path d="M10.049,11.984h1.148l0.151,0.516h1.153l-1.315-3.611H10.1L8.77,12.5h1.117L10.049,11.984z M10.641,10.098h0.01
		l0.324,1.112h-0.684L10.641,10.098z"/>
	<path d="M15.688,11.641h-1.593v-0.006c0.165-0.101,0.339-0.198,0.521-0.293c0.183-0.095,0.35-0.2,0.501-0.316
		s0.276-0.252,0.374-0.407c0.098-0.154,0.147-0.346,0.147-0.571c0-0.186-0.035-0.348-0.104-0.488
		c-0.068-0.14-0.167-0.255-0.293-0.346c-0.127-0.092-0.278-0.16-0.455-0.205c-0.177-0.046-0.372-0.068-0.584-0.068
		c-0.236,0-0.45,0.033-0.641,0.101c-0.19,0.068-0.351,0.167-0.482,0.296c-0.132,0.13-0.229,0.29-0.294,0.479
		c-0.063,0.188-0.089,0.404-0.075,0.647h0.95c-0.006-0.216,0.03-0.391,0.109-0.523c0.079-0.134,0.22-0.2,0.422-0.2
		c0.118,0,0.219,0.031,0.301,0.094c0.083,0.063,0.124,0.175,0.124,0.336c0,0.064-0.016,0.122-0.048,0.172
		c-0.032,0.051-0.072,0.097-0.121,0.137c-0.049,0.041-0.102,0.078-0.157,0.111c-0.056,0.034-0.105,0.064-0.149,0.091
		c-0.11,0.068-0.226,0.137-0.344,0.205c-0.118,0.069-0.231,0.142-0.341,0.218c-0.11,0.076-0.213,0.157-0.309,0.245
		c-0.097,0.088-0.182,0.183-0.256,0.283c-0.088,0.118-0.154,0.25-0.199,0.395c-0.046,0.146-0.063,0.304-0.054,0.476h3.05V11.641z"/>
	<path d="M19.254,5.655c0.152-0.047,0.287-0.116,0.405-0.207c0.117-0.091,0.213-0.205,0.285-0.341
		c0.072-0.137,0.109-0.296,0.109-0.479c0-0.132-0.019-0.248-0.054-0.349c-0.035-0.102-0.082-0.188-0.139-0.261
		c-0.058-0.072-0.124-0.132-0.2-0.18c-0.076-0.047-0.154-0.084-0.235-0.111c0.135-0.074,0.243-0.165,0.324-0.272
		c0.081-0.108,0.121-0.253,0.121-0.436c0-0.091-0.015-0.189-0.045-0.296c-0.031-0.106-0.089-0.205-0.175-0.296
		s-0.204-0.166-0.354-0.225c-0.149-0.06-0.343-0.089-0.579-0.089H16.74v3.611h2.049C18.947,5.727,19.103,5.703,19.254,5.655z
		 M17.854,2.976h0.586c0.115,0,0.207,0.019,0.276,0.055c0.068,0.038,0.104,0.102,0.104,0.192c0,0.118-0.034,0.197-0.102,0.238
		c-0.067,0.04-0.16,0.061-0.278,0.061h-0.586V2.976z M18.506,4.867h-0.652V4.194h0.697c0.26,0,0.39,0.109,0.39,0.328
		c0,0.071-0.012,0.129-0.035,0.172c-0.023,0.044-0.056,0.079-0.097,0.104c-0.04,0.025-0.086,0.043-0.139,0.053
		S18.563,4.867,18.506,4.867z"/>
	<path d="M21.611,5.727h1.052V2.206h-0.829c-0.007,0.146-0.041,0.268-0.104,0.367s-0.143,0.179-0.24,0.237
		c-0.098,0.06-0.208,0.102-0.329,0.127s-0.246,0.036-0.374,0.032v0.729h0.824V5.727z"/>
</g>
<g>
</g>
<g>
</g>
<g>
</g>
<g>
</g>
<g>
</g>
<g>
</g>
<g>
</g>
<g>
</g>
<g>
</g>
<g>
</g>
<g>
</g>
<g>
</g>
<g>
</g>
<g>
</g>
<g>
</g>
</svg>
