<?xml version="1.0" encoding="iso-8859-1"?>
<!-- Generator: Adobe Illustrator 16.0.0, SVG Export Plug-In . SVG Version: 6.00 Build 0)  -->
<!DOCTYPE svg PUBLIC "-//W3C//DTD SVG 1.1//EN" "http://www.w3.org/Graphics/SVG/1.1/DTD/svg11.dtd">
<svg version="1.1" id="Layer_1" xmlns="http://www.w3.org/2000/svg" xmlns:xlink="http://www.w3.org/1999/xlink" x="0px" y="0px"
	 width="30.236px" height="31.766px" viewBox="0 0 30.236 31.766" style="enable-background:new 0 0 30.236 31.766;"
	 xml:space="preserve">
<g>
	<polygon points="18.737,30.477 18.737,27.197 16.781,27.197 16.781,27.191 13.875,27.191 13.875,23.913 8.395,23.913 8.395,20.65 
		3.232,20.65 3.232,19.428 0,21.296 3.232,23.162 3.232,21.94 7.104,21.94 7.104,25.218 11.059,25.218 11.059,25.203 12.586,25.203 
		12.586,28.48 12.615,28.48 12.615,28.487 17.446,28.487 17.446,31.766 30.236,31.766 30.236,30.477 	"/>
	<path d="M12.973,6.413c1.383,0,2.518-1.013,2.729-2.335l1.02-1.438l-1.149-0.676L15.302,0.61l-1.153,0.474L12.524,0l-0.609,0.948
		l-1.49-0.271l0.318,1.327c-0.337,0.459-0.544,1.021-0.544,1.635C10.199,5.172,11.442,6.413,12.973,6.413z"/>
	<polygon points="14.493,12.187 14.493,8.25 13.032,8.262 12.994,10.833 9.72,13.994 10.824,15.429 	"/>
	<path d="M12.22,22.807l0.541-4.604l1.022-0.748l0.427,3.552l2.422,4.858l-0.548,0.231l0.278,0.666l2.188-0.919l-0.084-0.2
		l0.006-0.002l-2.49-5.242l-0.036-0.927l4.06-1.46l-1.395-3.886l-0.057,0.021L15.98,9.322V6.83h-1.331l-0.002-0.005L14.642,6.83
		h-2.685v4.595l0.754-0.761l-0.007-2.681l1.931-0.03l0.224,0.417v4.146l-0.023,0.004l-2.878,2.444v0.854h1.247l0.125,0.279
		l-1.133,0.019l-1.149,1.894l-0.709,4.56l-0.577-0.081l-0.102,0.715l2.493,0.314L12.22,22.807z M15.98,10.476l2.058,3.856
		l-2.058,0.739V10.476z M13.906,15.818l-0.095,0.033l-0.015-0.033H13.906z"/>
</g>
<g>
</g>
<g>
</g>
<g>
</g>
<g>
</g>
<g>
</g>
<g>
</g>
<g>
</g>
<g>
</g>
<g>
</g>
<g>
</g>
<g>
</g>
<g>
</g>
<g>
</g>
<g>
</g>
<g>
</g>
</svg>
