<?xml version="1.0" encoding="iso-8859-1"?>
<!-- Generator: Adobe Illustrator 16.0.0, SVG Export Plug-In . SVG Version: 6.00 Build 0)  -->
<!DOCTYPE svg PUBLIC "-//W3C//DTD SVG 1.1//EN" "http://www.w3.org/Graphics/SVG/1.1/DTD/svg11.dtd">
<svg version="1.1" id="Layer_1" xmlns="http://www.w3.org/2000/svg" xmlns:xlink="http://www.w3.org/1999/xlink" x="0px" y="0px"
	 width="31.876px" height="32.712px" viewBox="0 0 31.876 32.712" style="enable-background:new 0 0 31.876 32.712;"
	 xml:space="preserve">
<g>
	<path style="fill:#070909;" d="M11.855,4.485c-0.051,0.167-0.104,0.333-0.131,0.507c-0.036,0.219-0.056,0.443-0.056,0.67
		c0,1.401,0.71,2.637,1.791,3.366c0.632,0.435,1.396,0.691,2.22,0.691c0.008,0,0.016-0.002,0.023-0.002s0.016,0.002,0.023,0.002
		c2.239,0,4.057-1.816,4.057-4.058c0-0.448-0.09-0.871-0.224-1.274l0.825-1.138l-1.477-0.521l0.288-1.508l-1.804,0.515L16.564,0
		l-1.541,1.605L13.83,0.222l-0.562,1.826L11.354,1.42l0.724,1.612l-1.395,0.393L11.855,4.485z"/>
	<path style="fill:#070909;" d="M31.876,7.543l-0.033,0.002L30.618,5.34l-1.569,2.434l-2.591,0.209l-1.264,1.627l-3.165,4.163
		l-1.043,0.576l-4.292-3.277l-4.406-0.198l-0.34,10.261l0.533,0.059l0.317,5.838l0.097,0.599l-1.765,0.781l-0.016-0.032
		l-0.443,0.219V1.212H0v31.5h10.672v-2.784l0.927,1.878l0.972-0.479l-0.428-0.866l1.129-0.5l0.301,1.862v0.89h0.144h2.564h0.58
		v-1.084h-0.758l-0.446-2.724l3.892-1.724l-0.846-1.908l-1.676-4.217h0.482l-0.221-6.909l3.669,2.798l0.016,0.018l0.004-0.002
		l0.021,0.016l0.015-0.038l4.737-2.902l-0.352-0.287l1.768-0.144L31.876,7.543z M15.311,26.56l0.078-2.566l1.002,2.088L15.311,26.56
		z M24.767,13.233l-0.712-0.58l-0.896,0.495l1.266-1.63l2.328-2.993l3.893-0.316l-3.771,4.854L24.767,13.233z"/>
</g>
<g>
</g>
<g>
</g>
<g>
</g>
<g>
</g>
<g>
</g>
<g>
</g>
<g>
</g>
<g>
</g>
<g>
</g>
<g>
</g>
<g>
</g>
<g>
</g>
<g>
</g>
<g>
</g>
<g>
</g>
</svg>
