<?xml version="1.0" encoding="utf-8"?>
<!-- Generator: Adobe Illustrator 16.0.4, SVG Export Plug-In . SVG Version: 6.00 Build 0)  -->
<!DOCTYPE svg PUBLIC "-//W3C//DTD SVG 1.1//EN" "http://www.w3.org/Graphics/SVG/1.1/DTD/svg11.dtd">
<svg version="1.1" id="Layer_1" xmlns="http://www.w3.org/2000/svg" xmlns:xlink="http://www.w3.org/1999/xlink" x="0px" y="0px"
	 width="25.082px" height="29.094px" viewBox="0 0 25.082 29.094" enable-background="new 0 0 25.082 29.094" xml:space="preserve">
<path d="M6.917,3.417l1.391-0.391l-0.72-1.608l1.908,0.626l0.561-1.82l1.19,1.378L12.784,0l0.826,1.734l1.798-0.514l-0.289,1.505
	l1.473,0.519L15.77,4.377c0.134,0.402,0.224,0.825,0.224,1.272c0,2.237-1.812,4.048-4.047,4.048c-2.235,0-4.048-1.811-4.048-4.048
	c0-0.226,0.021-0.451,0.057-0.666c0.029-0.175,0.081-0.341,0.13-0.506L6.917,3.417z M25.082,16.186v1.928h-1.449v10.98h-0.94v-10.98
	h-7.049l-0.002,1.359h1.341v0.662h-1.141v8.457h-2.898v-8.457h-1.917v8.457H8.129v-8.457H6.818v-0.662h1.529l-0.015-1.359H2.1
	v10.982H1.158V18.114H0v-1.929h5.366l1.961-5.304l2.446-0.576c0,0,0.577,1.879,2.1,1.792c1.525-0.09,2.08-1.792,2.08-1.792
	l2.896,0.523l1.079,4.087h0.037v0.143l0.298,1.127H25.082z M8.311,16.186l-0.027-2.455l-0.882,2.455H8.311z M13.565,16.045H9.517
	v0.245h4.048V16.045z M15.828,12.677l-0.795-0.394l-0.334,0.678v0.001l-0.965,1.953h0.984l0.775-1.561L15.828,12.677z
	 M16.126,14.915l-0.483-1.556v1.556H16.126z M15.107,12.505l-0.123,0.251l0.5,0.245l0.123-0.251L15.107,12.505z"/>
</svg>
