<?xml version="1.0" encoding="iso-8859-1"?>
<!-- Generator: Adobe Illustrator 16.0.0, SVG Export Plug-In . SVG Version: 6.00 Build 0)  -->
<!DOCTYPE svg PUBLIC "-//W3C//DTD SVG 1.1//EN" "http://www.w3.org/Graphics/SVG/1.1/DTD/svg11.dtd">
<svg version="1.1" id="Layer_1" xmlns="http://www.w3.org/2000/svg" xmlns:xlink="http://www.w3.org/1999/xlink" x="0px" y="0px"
	 width="25.081px" height="29.095px" viewBox="0 0 25.081 29.095" style="enable-background:new 0 0 25.081 29.095;"
	 xml:space="preserve">
<g>
	<path d="M8.086,4.476c-0.05,0.166-0.102,0.333-0.13,0.507C7.92,5.198,7.9,5.423,7.9,5.648c0,2.237,1.812,4.048,4.049,4.048
		c2.231,0,4.046-1.811,4.046-4.048c0-0.447-0.091-0.869-0.224-1.271l0.823-1.134l-1.473-0.518l0.288-1.506L13.61,1.734L12.784,0
		l-1.537,1.603l-1.19-1.379l-0.56,1.821l-1.91-0.626l0.721,1.609L6.917,3.417L8.086,4.476z"/>
	<path d="M25.081,18.111v-1.928h-6.819l-1.414-5.356l-2.896-0.522c0,0-0.554,1.702-2.078,1.791
		c-1.523,0.089-2.101-1.791-2.101-1.791l-2.446,0.577l-1.96,5.302H0v1.928h1.158v10.983h0.943V18.111h6.232l0.014,1.361h-1.53v0.662
		h1.312v8.456h2.898v-8.456h1.916v8.456h2.899v-8.456h1.14v-0.662h-1.34l0.001-1.361h7.05v10.983h0.941V18.111H25.081z
		 M7.401,16.184l0.883-2.453l0.027,2.453H7.401z M15.642,13.359l0.881,2.824h-0.881V13.359z"/>
</g>
<g>
</g>
<g>
</g>
<g>
</g>
<g>
</g>
<g>
</g>
<g>
</g>
<g>
</g>
<g>
</g>
<g>
</g>
<g>
</g>
<g>
</g>
<g>
</g>
<g>
</g>
<g>
</g>
<g>
</g>
</svg>
