<?xml version="1.0" encoding="utf-8"?>
<!-- Generator: Adobe Illustrator 16.0.4, SVG Export Plug-In . SVG Version: 6.00 Build 0)  -->
<!DOCTYPE svg PUBLIC "-//W3C//DTD SVG 1.1//EN" "http://www.w3.org/Graphics/SVG/1.1/DTD/svg11.dtd">
<svg version="1.1" id="Layer_1" xmlns="http://www.w3.org/2000/svg" xmlns:xlink="http://www.w3.org/1999/xlink" x="0px" y="0px"
	 width="16.49px" height="32px" viewBox="0 0 16.49 32" enable-background="new 0 0 16.49 32" xml:space="preserve">
<path d="M15.045,17.926l-2.729,2.984c0.004-0.063,0.009-0.125,0.012-0.188c0.096-2.197,0.424-9.17-5.901-9.17
	c-6.325,0-6.152,5.822-6.152,5.822l0.462,7.553L0,32h2.043l0.584-4.508c0.478,1.616,0.93,3.107,0.93,3.107L3.326,32h6.595
	l-0.347-1.525c0,0,0.303-1.997,0.647-3.949l1.361-1.572l0.286,0.078c0,0,0.032-0.191,0.077-0.496l4.541-5.238L15.045,17.926z
	 M7.877,22.017v1.76h0.009l0.637,0.304L6.52,27.69l-1.96-3.723l0.5-0.125v-1.877c-2.053-0.639-3.543-2.555-3.543-4.818
	c0-0.167,0.009-0.333,0.025-0.496c1.364-0.091,6.121-0.521,6.243-2.06c0.449,0.83,2.823,2.914,3.784,3.072
	C11.354,19.762,9.866,21.482,7.877,22.017z M5.112,8.532v0.349c0,0.126,0.04,0.198,0.096,0.238v0.226l1.463-0.163L6.666,9.004
	L6.724,8.97V8.51c0.813-0.346,1.353-1.17,1.353-2.086c0-1.156-0.923-3.875-2.186-3.875c-1.263,0-2.186,2.719-2.186,3.875
	C3.706,7.366,4.267,8.2,5.112,8.532z M5.892,2.858c0.989,0,1.877,2.422,1.877,3.566c0,0.824-0.503,1.563-1.251,1.837L6.417,8.298
	v0.479c-0.032,0.004-0.078,0.006-0.16,0.006L5.498,8.855c-0.029,0-0.054,0-0.078,0.001V8.313L5.314,8.278
	c-0.778-0.26-1.3-1.005-1.3-1.854C4.014,5.28,4.902,2.858,5.892,2.858z M6.674,9.391C6.675,9.515,6.67,9.556,6.667,9.576
	L6.664,9.642L6.597,9.663l-1.355,0.15L5.225,9.751c-0.012-0.039-0.03-0.117-0.017-0.175V9.468l1.465-0.163L6.674,9.391z
	 M5.241,9.935L6.67,9.776L6.637,9.888c-0.052,0.174-0.211,0.38-0.677,0.38H5.951c-0.273-0.001-0.477-0.075-0.609-0.222L5.241,9.935z
	 M9.011,5.542h1.975v0.484H9.011V5.542z M2.939,6.026H0.964V5.542h1.975V6.026z M6.197,1.975H5.714V0h0.483V1.975z M7.852,2.72
	L7.464,2.433l1.173-1.589l0.389,0.287L7.852,2.72z M8.461,3.764l1.874-0.625l0.152,0.458L8.614,4.222L8.461,3.764z M3.286,4.223
	L1.412,3.599L1.565,3.14l1.874,0.624L3.286,4.223z M4.1,2.718L2.925,1.131l0.387-0.287l1.175,1.587L4.1,2.718z"/>
</svg>
