<?xml version="1.0" encoding="iso-8859-1"?>
<!-- Generator: Adobe Illustrator 16.0.0, SVG Export Plug-In . SVG Version: 6.00 Build 0)  -->
<!DOCTYPE svg PUBLIC "-//W3C//DTD SVG 1.1//EN" "http://www.w3.org/Graphics/SVG/1.1/DTD/svg11.dtd">
<svg version="1.1" id="Layer_1" xmlns="http://www.w3.org/2000/svg" xmlns:xlink="http://www.w3.org/1999/xlink" x="0px" y="0px"
	 width="29.813px" height="31.249px" viewBox="0 0 29.813 31.249" style="enable-background:new 0 0 29.813 31.249;"
	 xml:space="preserve">
<g>
	<path d="M15.541,15.518c4.286,0,7.759-3.473,7.759-7.763c0-2.679,0.936-5.124-1.129-6.519C20.936,0.398,15.493,0,13.886,0
		c-1.913,0-4.398,1.559-5.751,2.703C6.453,4.125,7.78,5.379,7.78,7.755C7.78,12.045,11.25,15.518,15.541,15.518z M10.137,6.995
		c1.421-0.259,2.389,0.211,2.389,0.211l2.384-1.159c0,0-1.21,1.751-0.12,1.159c2.422-0.818,5.134-0.474,6.515-0.205
		c0.049,0.303,0.091,0.612,0.091,0.936c0,3.194-2.537,5.777-5.68,5.777c-3.136,0-5.675-2.583-5.675-5.777
		C10.04,7.612,10.085,7.303,10.137,6.995z"/>
	<polygon points="20.998,17.137 10.741,17.137 0,28.927 2.255,31.249 9.942,24.686 10.114,29.812 21.954,29.63 21.989,24.923 
		28.138,31.241 29.813,27.968 	"/>
</g>
<g>
</g>
<g>
</g>
<g>
</g>
<g>
</g>
<g>
</g>
<g>
</g>
<g>
</g>
<g>
</g>
<g>
</g>
<g>
</g>
<g>
</g>
<g>
</g>
<g>
</g>
<g>
</g>
<g>
</g>
</svg>
