<?xml version="1.0" encoding="iso-8859-1"?>
<!-- Generator: Adobe Illustrator 16.0.0, SVG Export Plug-In . SVG Version: 6.00 Build 0)  -->
<!DOCTYPE svg PUBLIC "-//W3C//DTD SVG 1.1//EN" "http://www.w3.org/Graphics/SVG/1.1/DTD/svg11.dtd">
<svg version="1.1" id="Layer_1" xmlns="http://www.w3.org/2000/svg" xmlns:xlink="http://www.w3.org/1999/xlink" x="0px" y="0px"
	 width="26.138px" height="29.128px" viewBox="0 0 26.138 29.128" style="enable-background:new 0 0 26.138 29.128;"
	 xml:space="preserve">
<g>
	<path d="M20.977,15.102c0,1.021,0.824,1.847,1.848,1.847c1.021,0,1.845-0.826,1.845-1.847s-0.824-1.847-1.845-1.847
		C21.801,13.254,20.977,14.08,20.977,15.102z"/>
	<path d="M20.165,20.878c0,1.465,1.19,2.657,2.659,2.657c1.463,0,2.654-1.192,2.654-2.657c0-1.468-1.191-2.659-2.654-2.659
		C21.355,18.219,20.165,19.41,20.165,20.878z"/>
	<polygon points="25.99,24.576 23.849,23.931 22.869,25.107 21.858,23.931 19.51,24.576 19.51,29.055 26.138,29.055 	"/>
	<path d="M13.313,18.293c-1.467,0-2.659,1.191-2.659,2.658c0,1.465,1.192,2.657,2.659,2.657c1.466,0,2.656-1.192,2.656-2.657
		C15.969,19.485,14.778,18.293,13.313,18.293z"/>
	<polygon points="14.341,24.006 13.357,25.182 12.347,24.006 9.999,24.65 9.999,29.128 16.629,29.128 16.481,24.65 	"/>
	<circle cx="17.992" cy="17.242" r="1.944"/>
	<path d="M20.415,23.107c-0.346-0.654-0.588-1.364-0.588-2.156c0-0.521,0.141-1.005,0.298-1.474h-0.189h-0.473H18.74l-0.716,0.861
		l-0.74-0.861h-0.761H16.1c0.196,0.455,0.309,0.952,0.309,1.472c0,0.855-0.299,1.638-0.794,2.278h4.803L20.415,23.107z"/>
	<circle cx="4.657" cy="10.674" r="3.732"/>
	<polygon points="13.169,12.543 8.413,14.967 6.015,14.967 4.594,16.617 3.217,14.967 0.208,15.612 0,22.236 1.281,22.236 
		1.331,23.263 8.081,23.263 8.408,16.904 13.747,14.288 	"/>
	<path d="M11.646,8.3l-1.498,2.234l0.581-0.046c0.04-0.004,3.914-0.328,6.596-0.923c3.521-0.778,5.617-2.336,5.755-4.273
		c0.186-2.635-2.781-4.998-6.612-5.267c-3.83-0.27-7.097,1.654-7.282,4.289C9.08,5.806,9.995,7.28,11.646,8.3z M16.429,0.586
		c3.522,0.248,6.254,2.341,6.089,4.667c-0.167,2.373-3.772,3.423-5.313,3.764c-2.027,0.449-4.753,0.743-5.935,0.857l1.178-1.76
		l-0.263-0.149C10.563,7.052,9.651,5.7,9.745,4.353C9.911,2.028,12.907,0.339,16.429,0.586z"/>
</g>
<g>
</g>
<g>
</g>
<g>
</g>
<g>
</g>
<g>
</g>
<g>
</g>
<g>
</g>
<g>
</g>
<g>
</g>
<g>
</g>
<g>
</g>
<g>
</g>
<g>
</g>
<g>
</g>
<g>
</g>
</svg>
