<?xml version="1.0" encoding="iso-8859-1"?>
<!-- Generator: Adobe Illustrator 16.0.0, SVG Export Plug-In . SVG Version: 6.00 Build 0)  -->
<!DOCTYPE svg PUBLIC "-//W3C//DTD SVG 1.1//EN" "http://www.w3.org/Graphics/SVG/1.1/DTD/svg11.dtd">
<svg version="1.1" id="Layer_1" xmlns="http://www.w3.org/2000/svg" xmlns:xlink="http://www.w3.org/1999/xlink" x="0px" y="0px"
	 width="25.081px" height="29.095px" viewBox="0 0 25.081 29.095" style="enable-background:new 0 0 25.081 29.095;"
	 xml:space="preserve">
<g>
	<polygon points="16.562,15.995 16.593,15.995 16.509,10.817 15.665,10.627 15.665,10.614 15.348,10.557 14.916,10.459 
		14.916,10.479 14.798,10.457 16.476,15.724 	"/>
	<polygon points="11.17,11.982 11.854,9.728 12.553,11.918 13.804,15.836 16.132,15.834 14.396,10.385 13.998,9.134 13.811,8.547 
		12.038,9.097 11.429,8.908 11.43,8.908 9.921,8.44 9.74,9.02 9.303,10.416 7.615,15.808 9.991,15.87 	"/>
	<polygon points="8.259,10.671 7.61,10.817 7.543,14.81 8.889,10.513 8.259,10.662 	"/>
	<path d="M16.622,16.183l0.003,0.01l-0.493,0.001l-2.328,0.001h-0.264l-0.081-0.25l-1.249-3.916
		c-0.109,0.026-0.214,0.059-0.336,0.066c-0.124,0.008-0.239-0.003-0.35-0.02l-1.184,3.901l-0.081,0.268l-0.279-0.006l-2.024-0.055H0
		v1.928h1.158v10.984h0.942V18.111h6.232l0.015,1.361h-1.53v0.662h1.312v8.457h2.897v-8.457h1.917v8.457h2.898v-8.457h1.141v-0.662
		h-1.341l0.002-1.361h7.05v10.984h0.941V18.111h1.447v-1.928H16.622z"/>
	<path d="M8.086,4.476c-0.05,0.166-0.101,0.333-0.13,0.506C7.92,5.197,7.9,5.422,7.9,5.648c0,1.279,0.595,2.417,1.523,3.157
		L9.571,8.33l0.109-0.349l0.349,0.108l2.018,0.626l1.656-0.514l0.341-0.106l0.109,0.342l0.157,0.492
		c1.017-0.734,1.683-1.928,1.683-3.281c0-0.447-0.09-0.87-0.223-1.272l0.821-1.133l-1.472-0.518l0.288-1.505l-1.798,0.515L12.784,0
		l-1.536,1.603l-1.191-1.379l-0.559,1.82L7.588,1.418l0.72,1.609L6.918,3.417L8.086,4.476z"/>
</g>
<g>
</g>
<g>
</g>
<g>
</g>
<g>
</g>
<g>
</g>
<g>
</g>
<g>
</g>
<g>
</g>
<g>
</g>
<g>
</g>
<g>
</g>
<g>
</g>
<g>
</g>
<g>
</g>
<g>
</g>
</svg>
