<?xml version="1.0" encoding="iso-8859-1"?>
<!-- Generator: Adobe Illustrator 16.0.0, SVG Export Plug-In . SVG Version: 6.00 Build 0)  -->
<!DOCTYPE svg PUBLIC "-//W3C//DTD SVG 1.1//EN" "http://www.w3.org/Graphics/SVG/1.1/DTD/svg11.dtd">
<svg version="1.1" id="Layer_1" xmlns="http://www.w3.org/2000/svg" xmlns:xlink="http://www.w3.org/1999/xlink" x="0px" y="0px"
	 width="27.592px" height="30.72px" viewBox="0 0 27.592 30.72" style="enable-background:new 0 0 27.592 30.72;"
	 xml:space="preserve">
<g>
	<path d="M23.819,25.467V7.25h2.659V2.401h-2.659V0h-10.8v2.401H9.392V7.25h3.627v1.036v4.632v12.549H8.278v5.2h19.314v-5.2H23.819z
		 M10.037,6.604V3.047h15.797v3.558H10.037z"/>
	<path d="M13.557,4.718c-0.048-0.04-0.102-0.072-0.163-0.097c-0.06-0.025-0.122-0.047-0.186-0.066
		c-0.064-0.017-0.126-0.032-0.188-0.046s-0.116-0.029-0.164-0.044c-0.049-0.017-0.089-0.035-0.12-0.056
		c-0.031-0.021-0.047-0.047-0.049-0.079c0-0.025,0.007-0.046,0.02-0.062c0.014-0.017,0.03-0.028,0.051-0.037
		c0.02-0.009,0.042-0.014,0.065-0.018c0.023-0.003,0.044-0.004,0.063-0.004c0.028,0,0.057,0.003,0.085,0.009
		c0.028,0.007,0.055,0.019,0.078,0.036c0.023,0.015,0.042,0.034,0.054,0.058c0.013,0.023,0.017,0.052,0.011,0.086h0.523
		c-0.004-0.109-0.027-0.201-0.068-0.275c-0.042-0.075-0.097-0.135-0.166-0.181c-0.069-0.046-0.147-0.08-0.236-0.1
		c-0.089-0.02-0.182-0.03-0.279-0.03c-0.092,0-0.182,0.011-0.269,0.034c-0.087,0.022-0.164,0.058-0.23,0.107
		c-0.067,0.048-0.122,0.109-0.162,0.184c-0.042,0.075-0.063,0.164-0.063,0.268c0,0.09,0.019,0.165,0.056,0.223
		c0.037,0.058,0.083,0.106,0.142,0.142c0.057,0.039,0.123,0.069,0.195,0.091c0.073,0.022,0.145,0.044,0.215,0.064
		c0.077,0.021,0.141,0.041,0.191,0.056c0.051,0.017,0.09,0.032,0.118,0.045c0.029,0.015,0.048,0.03,0.061,0.045
		c0.012,0.017,0.018,0.037,0.018,0.06c0,0.033-0.008,0.061-0.022,0.082c-0.016,0.021-0.035,0.038-0.059,0.05
		c-0.022,0.013-0.048,0.021-0.075,0.025c-0.027,0.004-0.051,0.007-0.073,0.007c-0.052,0-0.104-0.009-0.155-0.025
		c-0.052-0.016-0.088-0.052-0.108-0.105c-0.013-0.036-0.02-0.074-0.02-0.119h-0.553c0,0.096,0.016,0.178,0.045,0.246
		c0.03,0.069,0.069,0.128,0.116,0.176c0.046,0.049,0.1,0.087,0.158,0.115c0.059,0.029,0.118,0.052,0.176,0.068
		c0.059,0.017,0.114,0.027,0.166,0.033c0.052,0.005,0.094,0.008,0.127,0.008c0.101,0,0.201-0.012,0.299-0.033
		c0.099-0.02,0.188-0.055,0.266-0.103c0.079-0.047,0.142-0.111,0.191-0.19c0.049-0.079,0.073-0.177,0.073-0.293
		c0-0.083-0.015-0.152-0.042-0.21C13.643,4.805,13.604,4.756,13.557,4.718z"/>
	<path d="M14.984,5.063c-0.015,0.037-0.033,0.068-0.055,0.096c-0.023,0.026-0.051,0.048-0.083,0.063
		c-0.033,0.016-0.073,0.023-0.12,0.023c-0.065,0-0.12-0.015-0.163-0.042c-0.044-0.028-0.079-0.066-0.104-0.114
		c-0.026-0.046-0.045-0.099-0.056-0.158c-0.012-0.058-0.018-0.118-0.018-0.179c0-0.059,0.006-0.119,0.018-0.177
		c0.011-0.059,0.03-0.111,0.056-0.158c0.026-0.047,0.061-0.084,0.104-0.113c0.043-0.028,0.098-0.043,0.163-0.043
		c0.058,0,0.104,0.011,0.14,0.033c0.036,0.022,0.065,0.047,0.086,0.075c0.022,0.028,0.038,0.058,0.046,0.087
		c0.008,0.029,0.014,0.053,0.018,0.069h0.538c-0.023-0.227-0.103-0.401-0.237-0.524c-0.135-0.123-0.326-0.186-0.574-0.188
		c-0.139,0-0.264,0.023-0.376,0.068c-0.111,0.045-0.207,0.109-0.287,0.191C14,4.152,13.939,4.25,13.896,4.367
		c-0.042,0.115-0.064,0.244-0.064,0.384c0,0.134,0.02,0.257,0.06,0.371c0.041,0.115,0.099,0.215,0.177,0.298
		c0.078,0.084,0.173,0.151,0.285,0.199c0.113,0.048,0.242,0.074,0.388,0.074c0.13,0,0.247-0.023,0.349-0.066
		c0.102-0.043,0.188-0.101,0.258-0.171c0.069-0.072,0.122-0.151,0.158-0.24c0.036-0.089,0.054-0.179,0.054-0.27h-0.543
		C15.009,4.987,14.999,5.026,14.984,5.063z"/>
	<rect x="15.792" y="3.854" width="0.552" height="1.794"/>
	<polygon points="17.182,4.965 18.028,4.965 18.028,4.538 17.182,4.538 17.182,4.314 18.114,4.314 18.114,3.854 16.628,3.854 
		16.628,5.648 18.141,5.648 18.141,5.189 17.182,5.189 	"/>
	<polygon points="19.494,4.814 19.488,4.814 18.965,3.854 18.399,3.854 18.399,5.648 18.923,5.648 18.923,4.668 18.928,4.668 
		19.478,5.648 20.016,5.648 20.016,3.854 19.494,3.854 	"/>
	<path d="M21.403,5.063c-0.014,0.037-0.032,0.068-0.054,0.096c-0.023,0.026-0.051,0.048-0.083,0.063
		c-0.033,0.016-0.073,0.023-0.12,0.023c-0.065,0-0.12-0.015-0.163-0.042c-0.044-0.028-0.079-0.066-0.104-0.114
		c-0.026-0.046-0.045-0.099-0.057-0.158c-0.011-0.058-0.017-0.118-0.017-0.179c0-0.059,0.006-0.119,0.017-0.177
		c0.012-0.059,0.031-0.111,0.057-0.158c0.026-0.047,0.06-0.084,0.104-0.113c0.043-0.028,0.098-0.043,0.163-0.043
		c0.057,0,0.104,0.011,0.139,0.033c0.036,0.022,0.065,0.047,0.087,0.075c0.021,0.028,0.037,0.058,0.044,0.087
		c0.009,0.029,0.015,0.053,0.018,0.069h0.538c-0.023-0.227-0.103-0.401-0.237-0.524c-0.135-0.123-0.326-0.186-0.574-0.188
		c-0.14,0-0.264,0.023-0.375,0.068c-0.112,0.045-0.208,0.109-0.287,0.191c-0.079,0.082-0.141,0.18-0.183,0.296
		c-0.043,0.115-0.064,0.244-0.064,0.384c0,0.134,0.021,0.257,0.06,0.371c0.041,0.115,0.099,0.215,0.177,0.298
		c0.078,0.084,0.173,0.151,0.285,0.199c0.113,0.048,0.242,0.074,0.388,0.074c0.13,0,0.247-0.023,0.349-0.066
		c0.103-0.043,0.188-0.101,0.257-0.171c0.069-0.072,0.123-0.151,0.159-0.24c0.036-0.089,0.054-0.179,0.054-0.27h-0.543
		C21.43,4.987,21.418,5.026,21.403,5.063z"/>
	<polygon points="22.764,4.965 23.611,4.965 23.611,4.538 22.764,4.538 22.764,4.314 23.697,4.314 23.697,3.854 22.212,3.854 
		22.212,5.648 23.724,5.648 23.724,5.189 22.764,5.189 	"/>
	<polygon points="12.23,13.503 12.696,13.157 12.696,9.601 11.239,10.682 10.765,10.04 10.816,9.987 10.741,9.914 12.278,8.773 
		12.696,9.336 12.696,7.851 12.513,7.603 10.159,9.349 9.648,8.852 5.942,12.665 4.835,12.665 1.96,12.665 1.96,21.576 
		2.589,21.576 3.03,25.949 2.549,30.72 5.166,30.72 5.422,25.949 5.187,21.576 5.979,21.576 5.979,18.584 5.979,14.961 
		10.14,10.684 	"/>
	<path d="M6.764,9.307c0-0.633-0.206-1.214-0.548-1.693L6.51,6.79L5.412,6.729L5.307,5.654L4.193,6.357L3.291,5.349L2.605,6.667
		C2.578,6.679,2.552,6.696,2.526,6.71L1.489,6.038L1.472,7.382L0.057,7.336l0.804,0.946L0,8.821l0.919,0.447
		c0,0.013-0.004,0.025-0.004,0.039c0,1.615,1.312,2.925,2.925,2.925C5.452,12.232,6.764,10.921,6.764,9.307z"/>
</g>
<g>
</g>
<g>
</g>
<g>
</g>
<g>
</g>
<g>
</g>
<g>
</g>
<g>
</g>
<g>
</g>
<g>
</g>
<g>
</g>
<g>
</g>
<g>
</g>
<g>
</g>
<g>
</g>
<g>
</g>
</svg>
