<?xml version="1.0" encoding="iso-8859-1"?>
<!-- Generator: Adobe Illustrator 16.0.0, SVG Export Plug-In . SVG Version: 6.00 Build 0)  -->
<!DOCTYPE svg PUBLIC "-//W3C//DTD SVG 1.1//EN" "http://www.w3.org/Graphics/SVG/1.1/DTD/svg11.dtd">
<svg version="1.1" id="Layer_1" xmlns="http://www.w3.org/2000/svg" xmlns:xlink="http://www.w3.org/1999/xlink" x="0px" y="0px"
	 width="20.094px" height="31.546px" viewBox="0 0 20.094 31.546" style="enable-background:new 0 0 20.094 31.546;"
	 xml:space="preserve">
<g>
	<path d="M5.218,4.852c-0.054,0.18-0.11,0.36-0.142,0.549c-0.039,0.235-0.06,0.478-0.06,0.723c0,2.425,1.964,4.389,4.39,4.389
		c2.421,0,4.387-1.964,4.387-4.389c0-0.485-0.098-0.942-0.242-1.379l0.891-1.229l-1.597-0.563l0.312-1.631L11.208,1.88L10.31,0
		L8.644,1.736l-1.29-1.496L6.748,2.215l-2.07-0.677l0.779,1.743L3.951,3.705L5.218,4.852z"/>
	<path d="M20.094,17.546h-6.446l-0.007-0.083l1.153-6.29l-3.216,0c0,0-0.6,1.844-2.252,1.941c-1.652,0.096-2.278-1.941-2.278-1.941
		h-0.96H5.006H4.438l0.865,5.598l-0.054,0.776H0v2.09h1.257v11.91h1.021v-11.91h2.828l-0.102,1.475H3.841v0.719h1.562V31h3.142
		v-9.169h1.746V31h3.143v-9.169h1.428v-0.719h-0.938l-0.114-1.475h3.694v11.91h1.021v-11.91h1.57V17.546z M7.398,17.142
		c0.104-0.143,0.17-0.336,0.17-0.551c0-0.436-0.266-0.789-0.594-0.789c-0.019,0-0.034,0.011-0.052,0.014L6.55,14.774h5.665
		l-0.443,1.043c-0.022-0.003-0.042-0.017-0.063-0.016c-0.329,0.003-0.59,0.361-0.584,0.796c0.002,0.171,0.055,0.321,0.125,0.449
		l-0.211,0.499H7.543L7.398,17.142z"/>
</g>
<rect x="9.51" y="29.727" width="3.465" height="1.305"/>
<rect x="4.824" y="29.727" width="3.466" height="1.305"/>
<g>
</g>
<g>
</g>
<g>
</g>
<g>
</g>
<g>
</g>
<g>
</g>
<g>
</g>
<g>
</g>
<g>
</g>
<g>
</g>
<g>
</g>
<g>
</g>
<g>
</g>
<g>
</g>
<g>
</g>
</svg>
