<?xml version="1.0" encoding="utf-8"?>
<!-- Generator: Adobe Illustrator 16.0.4, SVG Export Plug-In . SVG Version: 6.00 Build 0)  -->
<!DOCTYPE svg PUBLIC "-//W3C//DTD SVG 1.1//EN" "http://www.w3.org/Graphics/SVG/1.1/DTD/svg11.dtd">
<svg version="1.1" id="Layer_1" xmlns="http://www.w3.org/2000/svg" xmlns:xlink="http://www.w3.org/1999/xlink" x="0px" y="0px"
	 width="12.314px" height="31.21px" viewBox="0 0 12.314 31.21" enable-background="new 0 0 12.314 31.21" xml:space="preserve">
<path d="M5.122,4.853l-1.214-1.71l1.369-0.806L5.6,0.726L6.97,1.29L8.906,0l0.725,1.128l1.772-0.322l-0.379,1.579
	c0.4,0.547,0.646,1.217,0.646,1.947c0,1.822-1.479,3.301-3.301,3.301C6.726,7.633,5.374,6.427,5.122,4.853z M8.301,9.833L6.561,9.82
	v4.684l4.368,3.861l1.314-1.707l-3.896-3.764L8.301,9.833z M12.316,30.576l-2.967,0.375l-0.08-0.847l-0.646-5.479l-1.217-3.849
	l-0.509,4.228l-2.237,5.141l0.65,0.273L4.98,31.21l-2.602-1.096l0.101-0.238l-0.007-0.002L4.79,24.28l0.042-1.104L0,21.44
	l1.661-4.624l0.067,0.023l3.062-5.742V8.128h1.584l0.002-0.005l0.008,0.005H9.58v5.47l-0.897-0.905l0.009-3.191L6.392,9.466
	L6.127,9.962v4.935l0.026,0.004l3.427,2.91v1.017H8.096L7.947,19.16l1.349,0.023l1.37,5.212l0.842,5.426l0.688-0.097L12.316,30.576z
	 M4.791,12.468L2.342,17.06l2.449,0.879V12.468z M7.391,18.828H7.262l0.11,0.039L7.391,18.828z"/>
</svg>
