<?xml version="1.0" encoding="iso-8859-1"?>
<!-- Generator: Adobe Illustrator 16.0.0, SVG Export Plug-In . SVG Version: 6.00 Build 0)  -->
<!DOCTYPE svg PUBLIC "-//W3C//DTD SVG 1.1//EN" "http://www.w3.org/Graphics/SVG/1.1/DTD/svg11.dtd">
<svg version="1.1" id="Layer_1" xmlns="http://www.w3.org/2000/svg" xmlns:xlink="http://www.w3.org/1999/xlink" x="0px" y="0px"
	 width="29.2px" height="32.712px" viewBox="0 0 29.2 32.712" style="enable-background:new 0 0 29.2 32.712;" xml:space="preserve"
	>
<g>
	<path d="M27.381,5.382c-0.983-0.165-1.794,0.285-2.12,0.504c0.014-0.287,0.028-0.604,0.036-0.787
		c0.01-0.248,0.445-0.379,0.656-0.579c0.125-0.119-0.004-0.434-0.004-0.434s-1.088,0.483-1.059,0.949
		c0.014,0.228,0.017,0.546,0.016,0.813c-0.306-0.203-0.95-0.536-1.859-0.493c-0.596,0.028-1.09,0.256-1.447,0.629
		c-0.072-0.027-0.145-0.063-0.224-0.063c-0.476,0-0.861,0.531-0.861,1.188c0,0.497,0.222,0.92,0.536,1.097
		c0.184,1.108,0.891,2.056,1.666,2.574l-2.413,2.662l-3.609-2.37l-4.406-0.198l-0.34,10.261l0.533,0.059l0.317,5.838l0.097,0.599
		l-1.765,0.781l-0.016-0.032l-0.443,0.219V1.212H0v31.5h10.672v-2.784l0.927,1.878l0.972-0.479l-0.428-0.866l1.129-0.5l0.301,1.862
		v0.89h0.144h2.564h0.58v-1.084h-0.758l-0.446-2.724l3.892-1.724l-0.846-1.908l-1.676-4.217h0.482l-0.221-6.909l3.564,2.19
		l4.249-5.039l0.135,0.144v-0.237l0.295,0.091l-0.069-0.212c0.189,0.063,0.472,0.127,0.85,0.127c1.174,0,2.864-1.271,2.888-3.168
		C29.224,6.673,28.662,5.597,27.381,5.382z M15.389,23.993l1.002,2.088l-1.08,0.479L15.389,23.993z"/>
	<path d="M11.855,4.485c-0.051,0.167-0.104,0.333-0.131,0.507c-0.036,0.219-0.056,0.443-0.056,0.67c0,1.401,0.71,2.637,1.791,3.366
		c0.632,0.435,1.396,0.691,2.22,0.691c0.008,0,0.016-0.002,0.023-0.002s0.016,0.002,0.023,0.002c2.239,0,4.057-1.816,4.057-4.058
		c0-0.448-0.09-0.871-0.224-1.274l0.825-1.138l-1.477-0.521l0.288-1.508l-1.804,0.515L16.564,0l-1.541,1.605L13.83,0.222
		l-0.562,1.826L11.354,1.42l0.724,1.612l-1.395,0.393L11.855,4.485z"/>
</g>
<g>
</g>
<g>
</g>
<g>
</g>
<g>
</g>
<g>
</g>
<g>
</g>
<g>
</g>
<g>
</g>
<g>
</g>
<g>
</g>
<g>
</g>
<g>
</g>
<g>
</g>
<g>
</g>
<g>
</g>
</svg>
