<?xml version="1.0" encoding="iso-8859-1"?>
<!-- Generator: Adobe Illustrator 16.0.0, SVG Export Plug-In . SVG Version: 6.00 Build 0)  -->
<!DOCTYPE svg PUBLIC "-//W3C//DTD SVG 1.1//EN" "http://www.w3.org/Graphics/SVG/1.1/DTD/svg11.dtd">
<svg version="1.1" id="Layer_1" xmlns="http://www.w3.org/2000/svg" xmlns:xlink="http://www.w3.org/1999/xlink" x="0px" y="0px"
	 width="24.59px" height="29.643px" viewBox="0 0 24.59 29.643" style="enable-background:new 0 0 24.59 29.643;"
	 xml:space="preserve">
<g>
	<polygon points="13.681,16.432 17.958,16.405 19.68,16.393 19.664,14.132 13.667,14.17 	"/>
	<polygon points="9.353,16.568 9.338,14.307 6.372,14.327 3.624,14.343 3.638,16.605 	"/>
	<path d="M20.048,16.733v0.024l-0.366,0.002l-6,0.04l-0.367,0.002l-0.002-0.367L13.3,14.172l-0.002-0.366l0.367-0.002l3.345-0.022
		l-0.271-0.747h-1.091c0.104-0.356,0.162-0.732,0.162-1.123c0-0.448-0.09-0.87-0.224-1.271l0.822-1.134l-1.473-0.519l0.288-1.504
		l-1.799,0.516l-0.827-1.736l-1.536,1.602l-1.19-1.378l-0.561,1.82L7.402,7.681l0.721,1.609L6.731,9.68L7.9,10.739
		c-0.05,0.165-0.102,0.332-0.13,0.506c-0.036,0.216-0.056,0.44-0.056,0.667c0,0.39,0.058,0.766,0.162,1.123H6.839l-0.335,0.922
		l2.831-0.017l0.367-0.002l0.002,0.365l0.016,2.262l0.002,0.369l-0.367,0.001l-8.99,0.038L0,16.974l0.013,1.679l0.654,0.008v10.982
		h0.943V18.661h6.231l0.015,1.361h-1.53v0.661h1.312v8.456h2.898v-8.456h1.916v8.456h2.898v-8.456h1.141v-0.661h-1.34l0.001-1.361
		h7.05v10.982h0.941V18.661h1.448v-1.928H20.048z"/>
	<polygon points="10.589,1.955 9.397,1.955 10.51,0.703 10.51,0.26 8.708,0.26 8.708,0.703 9.737,0.703 8.625,1.955 8.625,2.398 
		10.589,2.398 	"/>
	<polygon points="6.739,6.76 5.795,6.76 6.677,5.766 6.677,5.416 5.248,5.416 5.248,5.766 6.065,5.766 5.183,6.76 5.183,7.109 
		6.739,7.109 	"/>
	<polygon points="12.136,5.025 11.362,4.649 12.479,4.185 12.619,3.896 11.445,3.329 11.305,3.617 11.975,3.941 10.857,4.408 
		10.718,4.694 11.997,5.313 	"/>
	<polygon points="17.799,4.611 16.845,6.162 16.929,6.637 19.033,6.265 18.95,5.79 17.673,6.016 18.628,4.463 18.544,3.988 
		16.611,4.332 16.696,4.806 	"/>
	<polygon points="17.247,0.384 16.802,1.106 16.841,1.328 17.823,1.153 17.783,0.932 17.188,1.038 17.634,0.315 17.594,0.093 
		16.694,0.254 16.732,0.474 	"/>
	<polygon points="6.662,1.676 6.279,1.492 6.832,1.26 6.9,1.12 6.32,0.839 6.252,0.981 6.583,1.141 6.03,1.371 5.961,1.513 
		6.593,1.819 	"/>
	<polygon points="12.649,0.837 12.267,0.653 12.819,0.422 12.888,0.281 12.309,0 12.24,0.142 12.571,0.303 12.019,0.533 
		11.949,0.675 12.581,0.979 	"/>
	<polygon points="14.814,3.677 14.431,3.491 14.984,3.262 15.052,3.119 14.473,2.839 14.404,2.979 14.735,3.14 14.182,3.371 
		14.113,3.515 14.745,3.819 	"/>
</g>
<g>
</g>
<g>
</g>
<g>
</g>
<g>
</g>
<g>
</g>
<g>
</g>
<g>
</g>
<g>
</g>
<g>
</g>
<g>
</g>
<g>
</g>
<g>
</g>
<g>
</g>
<g>
</g>
<g>
</g>
</svg>
