<?xml version="1.0" encoding="iso-8859-1"?>
<!-- Generator: Adobe Illustrator 16.0.0, SVG Export Plug-In . SVG Version: 6.00 Build 0)  -->
<!DOCTYPE svg PUBLIC "-//W3C//DTD SVG 1.1//EN" "http://www.w3.org/Graphics/SVG/1.1/DTD/svg11.dtd">
<svg version="1.1" id="Layer_1" xmlns="http://www.w3.org/2000/svg" xmlns:xlink="http://www.w3.org/1999/xlink" x="0px" y="0px"
	 width="16.564px" height="32.777px" viewBox="0 0 16.564 32.777" style="enable-background:new 0 0 16.564 32.777;"
	 xml:space="preserve">
<g>
	<path d="M4.732,8.44c1.823,0,3.3-1.479,3.3-3.302c0-0.931-0.388-1.768-1.008-2.368l0.472-1.964L5.723,1.128L4.998,0L3.063,1.29
		L1.693,0.725L1.37,2.337L0,3.143l1.433,2.019C1.445,6.973,2.916,8.44,4.732,8.44z"/>
	<polygon points="6.797,26.437 5.941,20.596 1.559,20.714 3.574,26.437 2.304,31.917 2.15,31.917 2.15,32.777 6.985,32.777 
		6.985,31.917 5.994,31.917 	"/>
	<polygon points="5.941,18.564 2.515,15.654 2.488,15.65 2.488,10.214 5.052,10.254 5.043,13.446 5.941,14.351 5.941,8.88 
		1.152,8.88 1.152,20.225 5.941,20.225 	"/>
	<polygon points="7.483,16.38 4.708,13.7 4.662,10.639 2.921,10.626 2.921,15.311 7.289,19.171 7.455,18.955 8.853,18.955 
		8.853,18.592 7.483,18.592 	"/>
	<polygon points="15.965,12.834 15.965,12.653 16.564,12.653 16.564,12.411 7.837,12.411 7.837,12.653 7.842,12.653 7.842,14.618 
		7.837,14.618 7.837,14.858 16.564,14.858 16.564,14.618 15.965,14.618 15.965,14.511 8.451,14.511 8.451,14.432 8.442,14.432 
		8.442,14.386 15.965,14.386 15.965,14.285 8.445,14.285 8.445,14.248 8.442,14.248 8.442,14.202 8.445,14.202 8.445,14.186 
		15.965,14.186 15.965,14.047 8.432,14.047 8.432,14.021 8.428,14.021 8.428,13.976 8.432,13.976 8.432,13.948 15.965,13.948 
		15.965,13.821 8.425,13.821 8.425,13.722 15.965,13.722 15.965,13.603 8.425,13.603 8.425,13.503 15.965,13.503 15.965,13.377 
		8.438,13.377 8.438,13.278 15.965,13.278 15.965,13.152 8.432,13.152 8.432,13.053 15.965,13.053 15.965,12.934 8.432,12.934 
		8.432,12.834 	"/>
	<polygon points="7.837,15.163 7.842,15.163 7.842,16.4 7.837,16.4 7.837,16.552 16.564,16.552 16.564,16.4 15.965,16.4 
		15.965,16.265 8.317,16.265 8.317,16.165 15.965,16.165 15.965,16.046 8.317,16.046 8.317,15.946 15.965,15.946 15.965,15.82 
		8.331,15.82 8.331,15.786 8.329,15.786 8.329,15.74 8.331,15.74 8.331,15.721 15.965,15.721 15.965,15.595 8.324,15.595 
		8.324,15.495 15.965,15.495 15.965,15.376 8.324,15.376 8.324,15.277 15.965,15.277 15.965,15.163 16.564,15.163 16.564,15.012 
		7.837,15.012 	"/>
	<polygon points="7.837,16.948 7.842,16.948 7.842,18.186 7.837,18.186 7.837,18.336 16.564,18.336 16.564,18.186 15.965,18.186 
		15.965,18.067 8.273,18.067 8.273,17.968 15.965,17.968 15.965,17.848 8.273,17.848 8.273,17.75 15.965,17.75 15.965,17.623 
		8.286,17.623 8.286,17.599 8.286,17.599 8.286,17.554 8.286,17.554 8.286,17.523 15.965,17.523 15.965,17.398 8.28,17.398 
		8.28,17.299 15.965,17.299 15.965,17.179 8.28,17.179 8.28,17.08 15.965,17.08 15.965,16.948 16.564,16.948 16.564,16.797 
		7.837,16.797 	"/>
	<polygon points="15.459,12.122 14.996,12.122 14.996,12.015 9.113,12.015 9.113,11.916 14.996,11.916 14.996,11.796 9.113,11.796 
		9.113,11.697 14.996,11.697 14.996,11.571 9.125,11.571 9.125,11.516 9.117,11.516 9.117,11.471 14.996,11.471 14.996,11.345 
		9.119,11.345 9.119,11.303 9.117,11.303 9.117,11.258 9.119,11.258 9.119,11.246 14.996,11.246 14.996,11.126 9.119,11.126 
		9.119,11.077 9.117,11.077 9.117,11.032 9.119,11.032 9.119,11.027 14.996,11.027 14.996,10.884 15.459,10.884 15.459,10.733 
		8.716,10.733 8.716,10.884 8.719,10.884 8.719,12.122 8.716,12.122 8.716,12.273 15.459,12.273 	"/>
</g>
<g>
</g>
<g>
</g>
<g>
</g>
<g>
</g>
<g>
</g>
<g>
</g>
<g>
</g>
<g>
</g>
<g>
</g>
<g>
</g>
<g>
</g>
<g>
</g>
<g>
</g>
<g>
</g>
<g>
</g>
</svg>
