<?xml version="1.0" encoding="iso-8859-1"?>
<!-- Generator: Adobe Illustrator 16.0.0, SVG Export Plug-In . SVG Version: 6.00 Build 0)  -->
<!DOCTYPE svg PUBLIC "-//W3C//DTD SVG 1.1//EN" "http://www.w3.org/Graphics/SVG/1.1/DTD/svg11.dtd">
<svg version="1.1" id="Layer_1" xmlns="http://www.w3.org/2000/svg" xmlns:xlink="http://www.w3.org/1999/xlink" x="0px" y="0px"
	 width="32.045px" height="25.921px" viewBox="0 0 32.045 25.921" style="enable-background:new 0 0 32.045 25.921;"
	 xml:space="preserve">
<g>
	<polygon points="6.758,22.981 6.758,21.882 2.56,21.882 1.067,15.914 0,16.181 1.699,22.981 2.561,22.981 1.457,25.412 
		2.125,25.714 3.365,22.981 5.186,22.981 6.377,25.71 7.05,25.415 5.985,22.981 	"/>
	<polygon points="30.346,22.935 32.045,16.134 30.98,15.868 29.487,21.837 25.288,21.837 25.288,22.935 26.062,22.935 24.996,25.37 
		25.669,25.664 26.861,22.935 28.682,22.935 29.922,25.669 30.589,25.366 29.486,22.935 	"/>
	<polygon points="9.904,20.06 9.904,25.921 10.337,25.921 10.337,20.06 10.184,20.06 	"/>
	<polygon points="25.532,21.504 27.052,21.504 27.555,21.504 27.899,21.504 28.778,21.504 27.32,14.269 24.899,14.269 
		23.235,16.941 23.298,16.794 23.223,16.911 21.382,16.178 20.996,17.106 11.028,17.098 10.663,16.223 8.824,16.958 7.146,14.315 
		4.727,14.315 3.267,21.55 4.146,21.55 4.491,21.55 4.995,21.55 6.514,21.55 6.607,21.55 7.445,21.55 7.981,21.55 7.981,20.06 
		7.223,20.06 7.223,20.062 6.314,20.062 7.346,16.714 7.7,17.282 7.431,17.282 7.431,18.455 8.164,18.455 8.164,20.06 8.164,21.55 
		8.164,25.921 8.421,25.921 9.722,25.921 9.722,20.06 9.722,18.455 22.505,18.455 22.505,20.014 22.505,25.921 23.625,25.921 
		24.063,25.921 24.063,21.504 24.063,20.014 24.063,18.455 24.72,18.455 24.72,17.282 24.317,17.282 24.7,16.668 25.731,20.015 
		24.823,20.015 24.823,20.014 24.246,20.014 24.246,21.504 24.601,21.504 25.438,21.504 	"/>
	<polygon points="21.711,20.014 21.711,25.921 22.321,25.921 22.321,20.014 21.863,20.014 	"/>
	<path d="M5.825,10.644c-0.041,0.086-0.084,0.175-0.114,0.265c-0.037,0.114-0.065,0.237-0.085,0.36
		c-0.112,0.729,0.147,1.426,0.632,1.91c0.014,0.015,0.024,0.029,0.037,0.042c0.038,0.036,0.08,0.065,0.12,0.099
		c0.077,0.066,0.156,0.13,0.243,0.185c0.003,0.002,0.006,0.003,0.009,0.006c0.24,0.149,0.512,0.251,0.803,0.294
		c0.007,0.002,0.014,0.006,0.022,0.006c0.025,0.005,0.05,0.002,0.075,0.005c0.074,0.008,0.147,0.022,0.222,0.022
		c0.025,0,0.048-0.006,0.071-0.008c0.117-0.002,0.23-0.015,0.343-0.033c0.006-0.002,0.013-0.002,0.02-0.004
		c0.912-0.164,1.663-0.881,1.813-1.848c0.036-0.243,0.021-0.481-0.017-0.711l0.543-0.549l-0.758-0.406l0.281-0.795L9.063,9.612
		L8.756,8.601L7.787,9.344L7.254,8.492L6.796,9.438l-0.987-0.5l0.258,0.937L5.278,9.971L5.825,10.644z"/>
	<path d="M22.923,9.612L21.9,9.483l0.282,0.795l-0.758,0.406l0.542,0.549c-0.038,0.229-0.054,0.468-0.017,0.711
		c0.188,1.218,1.326,2.053,2.543,1.865c0.211-0.031,0.403-0.1,0.589-0.186c0.002-0.001,0.005-0.003,0.009-0.004
		c0.103-0.048,0.202-0.1,0.296-0.161c0.089-0.057,0.171-0.121,0.25-0.19c0.013-0.011,0.025-0.02,0.038-0.031
		c0.396-0.357,0.653-0.857,0.694-1.42c0.004-0.043,0.011-0.085,0.013-0.129c0-0.009,0.002-0.017,0.002-0.025
		c0-0.027-0.007-0.055-0.009-0.082c0-0.104,0-0.207-0.017-0.313c-0.019-0.123-0.047-0.246-0.084-0.36
		c-0.03-0.09-0.074-0.179-0.114-0.265l0.548-0.673L25.92,9.875l0.256-0.937l-0.986,0.5l-0.458-0.946l-0.532,0.852l-0.971-0.743
		L22.923,9.612z"/>
	<path d="M10.446,7.078L9.346,9.001L9.82,8.928c0.031-0.006,3.194-0.495,5.365-1.139c0.333-0.099,0.646-0.206,0.944-0.32
		c0.299,0.114,0.611,0.222,0.944,0.32c2.171,0.644,5.334,1.133,5.365,1.139l0.475,0.073l-1.101-1.923
		c1.415-0.743,2.253-1.902,2.253-3.134C24.066,1.77,21.493,0,18.331,0c-0.78,0-1.523,0.108-2.201,0.303
		C15.451,0.108,14.708,0,13.929,0c-3.162,0-5.735,1.77-5.735,3.944C8.193,5.176,9.031,6.335,10.446,7.078z M18.331,0.463
		c2.906,0,5.272,1.563,5.272,3.481c0,1.113-0.827,2.17-2.212,2.826l-0.227,0.107l0.867,1.515c-0.964-0.162-3.187-0.562-4.827-1.049
		c-0.131-0.039-0.285-0.088-0.448-0.143c1.859-0.841,2.907-1.983,2.907-3.257c0-1.411-1.086-2.648-2.711-3.346
		C17.396,0.52,17.851,0.463,18.331,0.463z"/>
</g>
<g>
	<path d="M19.183,12.15h-6.317v4.166h6.317V12.15z M18.709,15.844h-5.371v-3.22h5.371V15.844z"/>
	<path d="M19.182,16.51h-3.068h-0.18h-3.069l-0.909,0.045v0.627h8.135v-0.627L19.182,16.51z M16.916,16.922h-1.893v-0.125h1.893
		V16.922z"/>
</g>
<g>
</g>
<g>
</g>
<g>
</g>
<g>
</g>
<g>
</g>
<g>
</g>
<g>
</g>
<g>
</g>
<g>
</g>
<g>
</g>
<g>
</g>
<g>
</g>
<g>
</g>
<g>
</g>
<g>
</g>
</svg>
