<?xml version="1.0" encoding="iso-8859-1"?>
<!-- Generator: Adobe Illustrator 16.0.0, SVG Export Plug-In . SVG Version: 6.00 Build 0)  -->
<!DOCTYPE svg PUBLIC "-//W3C//DTD SVG 1.1//EN" "http://www.w3.org/Graphics/SVG/1.1/DTD/svg11.dtd">
<svg version="1.1" id="Layer_1" xmlns="http://www.w3.org/2000/svg" xmlns:xlink="http://www.w3.org/1999/xlink" x="0px" y="0px"
	 width="27.996px" height="24.94px" viewBox="0 0 27.996 24.94" style="enable-background:new 0 0 27.996 24.94;"
	 xml:space="preserve">
<g>
	<path d="M25.939,24.409l2.057-0.188l-1.078-9.75c0.115-0.852,0.268-2.143,0.326-3.478c0.098-2.276,0.44-9.503-6.114-9.503
		c-6.556,0-6.377,6.034-6.377,6.034l0.478,7.83l-0.911,8.777l2.055,0.188l0.817-6.308c0.495,1.676,0.964,3.221,0.964,3.221
		l-0.61,3.708h7.718l-0.87-3.837c0,0,0.269-1.775,0.592-3.643L25.939,24.409z M22.631,12.32v1.841h0.01l0.661,0.314l-2.075,3.739
		l-2.033-3.855l0.519-0.131v-1.971c-2.121-0.666-3.671-2.627-3.671-4.969c0-0.177,0.033-0.344,0.051-0.516
		c1.446-0.099,6.318-0.548,6.444-2.132c0.466,0.859,2.926,3.018,3.922,3.183C26.235,9.995,24.689,11.763,22.631,12.32z"/>
	<path d="M8.887,12.978c0,0-0.697,2.141-2.616,2.254c-1.921,0.111-2.647-2.254-2.647-2.254H2.511H1.254H0.283L0,22.905h1.749
		l0.092,1.901h0.268v0.134h8.578v-0.134h0.328l0.001-2.109l1.831-0.031l-0.226-9.688L8.887,12.978z"/>
	<path d="M1.5,5.636C1.437,5.845,1.372,6.054,1.334,6.273C1.29,6.545,1.266,6.829,1.266,7.114c0,2.816,2.282,5.097,5.099,5.097
		c2.812,0,5.094-2.281,5.094-5.097c0-0.563-0.112-1.095-0.279-1.602l1.034-1.428l-1.854-0.652l0.362-1.896L8.456,2.183L7.415,0
		L5.481,2.017L3.983,0.281L3.278,2.574L0.873,1.786l0.906,2.027l-1.75,0.491L1.5,5.636z"/>
</g>
<g>
</g>
<g>
</g>
<g>
</g>
<g>
</g>
<g>
</g>
<g>
</g>
<g>
</g>
<g>
</g>
<g>
</g>
<g>
</g>
<g>
</g>
<g>
</g>
<g>
</g>
<g>
</g>
<g>
</g>
</svg>
