<?xml version="1.0" encoding="iso-8859-1"?>
<!-- Generator: Adobe Illustrator 16.0.0, SVG Export Plug-In . SVG Version: 6.00 Build 0)  -->
<!DOCTYPE svg PUBLIC "-//W3C//DTD SVG 1.1//EN" "http://www.w3.org/Graphics/SVG/1.1/DTD/svg11.dtd">
<svg version="1.1" id="Layer_1" xmlns="http://www.w3.org/2000/svg" xmlns:xlink="http://www.w3.org/1999/xlink" x="0px" y="0px"
	 width="37.211px" height="35.923px" viewBox="0 0 37.211 35.923" style="enable-background:new 0 0 37.211 35.923;"
	 xml:space="preserve">
<g>
	<path d="M20.708,10.377c-0.091,0.147-0.184,0.295-0.256,0.456c-0.089,0.2-0.166,0.411-0.224,0.63
		c-0.572,2.163,0.717,4.377,2.879,4.948c2.159,0.571,4.375-0.715,4.947-2.879c0.114-0.431,0.135-0.863,0.109-1.286l1.085-0.887
		l-1.291-0.878l0.663-1.38L26.75,9.139l-0.355-1.888l-1.896,1.155l-0.797-1.639l-1.007,1.619l-1.686-1.093l0.285,1.738l-1.444,0.022
		L20.708,10.377z"/>
	<path d="M27.005,23.052l-1.348-5.123c-0.327,0.457-0.854,0.946-1.653,0.994c-1.524,0.088-2.101-1.791-2.101-1.791l-2.446,0.576
		l-1.96,5.302H12.13v1.929h1.158v10.984h0.943V24.939h6.231l0.015,1.36h-1.531v0.661h1.313v8.457h2.897V26.96h1.916v8.457h2.899
		V26.96h1.14v-0.661h-1.34l0.002-1.36h7.05v10.984h0.941V24.939h1.447V23.01L27.005,23.052z M19.846,22.136l0.568-1.579l0.017,1.579
		H19.846z"/>
	<path d="M25.698,16.654l1.582,5.96l0.494-0.001l2.032-0.004l-2.161-7.375C27.143,15.87,26.472,16.364,25.698,16.654z"/>
	<path d="M13.657,8.382c1.032-0.386,1.711-1.308,1.711-2.354c0-0.738-0.336-1.419-0.927-1.902c0.012-0.099,0.019-0.199,0.019-0.298
		c0-1.401-1.23-2.541-2.742-2.541c-0.245,0-0.486,0.03-0.721,0.091C10.532,0.542,9.591,0,8.561,0C7.95,0,7.363,0.188,6.884,0.532
		C6.452,0.287,5.962,0.157,5.452,0.157c-1.388,0-2.538,0.96-2.718,2.199C1.227,2.362,0,3.498,0,4.897
		C0,6.063,0.863,7.07,2.056,7.354C2.054,7.386,2.053,7.419,2.053,7.451c0,1.399,1.23,2.541,2.742,2.541
		c0.386,0,0.77-0.077,1.122-0.225c0.518,0.575,1.284,0.912,2.103,0.912c0.605,0,1.187-0.186,1.666-0.526
		c0.394,0.192,0.831,0.294,1.278,0.294C12.296,10.447,13.415,9.574,13.657,8.382z M9.617,9.332L9.432,9.489
		C9.045,9.817,8.545,9.998,8.019,9.998c-0.701,0-1.347-0.319-1.73-0.851L6.114,8.903L5.851,9.045
		C5.529,9.22,5.165,9.311,4.794,9.311c-1.137,0-2.062-0.834-2.062-1.859c0-0.097,0.011-0.2,0.032-0.312l0.066-0.358l-0.36-0.043
		c-1.021-0.121-1.79-0.913-1.79-1.841c0-1.025,0.924-1.859,2.061-1.859c0.091,0,0.181,0.006,0.27,0.017l0.381,0.046L3.39,2.678
		c0-1.007,0.925-1.842,2.062-1.842c0.458,0,0.894,0.135,1.258,0.392L6.929,1.38l0.2-0.175C7.518,0.866,8.025,0.68,8.561,0.68
		c0.868,0,1.646,0.495,1.94,1.235l0.122,0.31l0.312-0.116c0.25-0.093,0.514-0.14,0.783-0.14c1.136,0,2.061,0.834,2.061,1.859
		c0,0.125-0.013,0.249-0.041,0.37l-0.051,0.225l0.189,0.13c0.515,0.355,0.811,0.893,0.811,1.475c0,0.81-0.575,1.521-1.43,1.77
		l-0.22,0.063l-0.024,0.227c-0.102,0.956-0.984,1.678-2.051,1.678c-0.405,0-0.798-0.108-1.137-0.31L9.617,9.332z"/>
	<path d="M14.824,12.637c0-0.925-0.9-1.679-2.005-1.679c-1.107,0-2.006,0.753-2.006,1.679c0,0.927,0.899,1.68,2.006,1.68
		C13.924,14.317,14.824,13.564,14.824,12.637z M11.493,12.637c0-0.55,0.594-0.998,1.326-0.998c0.729,0,1.325,0.448,1.325,0.998
		c0,0.553-0.595,0.999-1.325,0.999C12.087,13.636,11.493,13.19,11.493,12.637z"/>
	<path d="M14.106,15.683c0,0.695,0.667,1.261,1.486,1.261s1.487-0.565,1.487-1.261c0-0.698-0.668-1.264-1.487-1.264
		S14.106,14.985,14.106,15.683z M15.592,15.1c0.438,0,0.806,0.266,0.806,0.583c0,0.314-0.368,0.581-0.806,0.581
		s-0.807-0.266-0.807-0.581C14.786,15.366,15.155,15.1,15.592,15.1z"/>
</g>
<g>
</g>
<g>
</g>
<g>
</g>
<g>
</g>
<g>
</g>
<g>
</g>
<g>
</g>
<g>
</g>
<g>
</g>
<g>
</g>
<g>
</g>
<g>
</g>
<g>
</g>
<g>
</g>
<g>
</g>
</svg>
