<?xml version="1.0" encoding="iso-8859-1"?>
<!-- Generator: Adobe Illustrator 16.0.0, SVG Export Plug-In . SVG Version: 6.00 Build 0)  -->
<!DOCTYPE svg PUBLIC "-//W3C//DTD SVG 1.1//EN" "http://www.w3.org/Graphics/SVG/1.1/DTD/svg11.dtd">
<svg version="1.1" id="Layer_1" xmlns="http://www.w3.org/2000/svg" xmlns:xlink="http://www.w3.org/1999/xlink" x="0px" y="0px"
	 width="31.647px" height="29.143px" viewBox="0 0 31.647 29.143" style="enable-background:new 0 0 31.647 29.143;"
	 xml:space="preserve">
<g>
	<path style="fill:#070909;" d="M5.671,12.601c-0.053,0.166-0.105,0.331-0.138,0.506c-0.036,0.216-0.057,0.44-0.057,0.667
		c0,2.236,1.886,4.047,4.212,4.047c2.325,0,4.21-1.811,4.21-4.047c0-0.447-0.093-0.869-0.231-1.271l0.855-1.134L12.99,10.85
		l0.299-1.504l-1.871,0.514l-0.86-1.733L8.96,9.728L7.722,8.349L7.14,10.17L5.151,9.544L5.9,11.152l-1.445,0.391L5.671,12.601z"/>
	<path style="fill:#070909;" d="M23.498,0.031c-4.716-0.331-8.737,2.037-8.965,5.279c-0.13,1.838,0.998,3.653,3.03,4.91
		l-1.844,2.752l0.716-0.06c0.048-0.004,4.815-0.403,8.12-1.136c4.333-0.96,6.914-2.877,7.082-5.264
		C31.866,3.271,28.215,0.363,23.498,0.031z M24.406,11.102c-2.497,0.553-5.854,0.916-7.307,1.056l1.451-2.166l-0.326-0.184
		c-1.997-1.126-3.118-2.788-3.001-4.448c0.201-2.861,3.891-4.941,8.226-4.637c4.336,0.305,7.699,2.881,7.498,5.742
		C30.742,9.388,26.305,10.682,24.406,11.102z"/>
	<path style="fill:#070909;" d="M28.977,24.436c0.021-1.274-0.501-2.275-1.693-2.477c-0.915-0.153-1.67,0.265-1.973,0.469
		c0.012-0.266,0.026-0.562,0.033-0.732c0.009-0.229,0.414-0.353,0.61-0.538c0.116-0.111-0.003-0.404-0.003-0.404
		s-1.014,0.449-0.986,0.884c0.015,0.211,0.016,0.508,0.015,0.756c-0.284-0.189-0.884-0.498-1.73-0.459
		c-1.169,0.057-1.935,0.914-1.913,2.188c0.018,1.437,1.057,2.676,2.032,3.095h-5.062v-0.021h-0.072v-0.533h-0.695l-0.102-1.651
		l-0.206,0.072c-0.615,0.218-1.222,0.324-1.855,0.324c-0.12,0-0.232-0.014-0.348-0.021L14.86,18.94l-3.087-0.511
		c0,0-0.576,1.701-2.161,1.789c-1.586,0.089-2.187-1.789-2.187-1.789L4.665,18.94l-0.206,6.433c-0.426-0.045-0.846-0.14-1.268-0.289
		l-0.207-0.072l-0.102,1.651H2.161v0.533v0.021H0v1.926h1.394h6.018h6.317h5.609h9.64v-1.926h-1.94
		C27.984,26.84,28.96,25.823,28.977,24.436z M22.948,25.687c-0.443-0.566-0.31-1.37-0.31-1.37s0.296,0.744,0.6,1.206
		c0.305,0.462,0.825,0.829,0.825,0.829S23.39,26.253,22.948,25.687z M3.213,26.519l0.068-1.095c0.582,0.186,1.16,0.275,1.763,0.275
		h0.002c0.994,0,1.863-0.254,2.562-0.459c0.572-0.167,1.053-0.311,1.434-0.268c0.855,0.094,0.986,1.156,1.006,1.546H3.213z
		 M10.375,26.519c0.019-0.39,0.148-1.452,1.006-1.546c0.381-0.043,0.861,0.101,1.433,0.268c0.699,0.205,1.568,0.459,2.563,0.459
		c0.604,0,1.184-0.09,1.766-0.275l0.066,1.095H10.375z"/>
</g>
<g>
</g>
<g>
</g>
<g>
</g>
<g>
</g>
<g>
</g>
<g>
</g>
<g>
</g>
<g>
</g>
<g>
</g>
<g>
</g>
<g>
</g>
<g>
</g>
<g>
</g>
<g>
</g>
<g>
</g>
</svg>
