<?xml version="1.0" encoding="iso-8859-1"?>
<!-- Generator: Adobe Illustrator 16.0.0, SVG Export Plug-In . SVG Version: 6.00 Build 0)  -->
<!DOCTYPE svg PUBLIC "-//W3C//DTD SVG 1.1//EN" "http://www.w3.org/Graphics/SVG/1.1/DTD/svg11.dtd">
<svg version="1.1" id="Layer_1" xmlns="http://www.w3.org/2000/svg" xmlns:xlink="http://www.w3.org/1999/xlink" x="0px" y="0px"
	 width="26.082px" height="29.095px" viewBox="0 0 26.082 29.095" style="enable-background:new 0 0 26.082 29.095;"
	 xml:space="preserve">
<g>
	<path d="M9.087,4.476c-0.05,0.166-0.103,0.332-0.13,0.506C8.921,5.198,8.901,5.422,8.901,5.648c0,2.236,1.811,4.048,4.048,4.048
		c2.233,0,4.046-1.812,4.046-4.048c0-0.447-0.09-0.869-0.224-1.271l0.823-1.134l-1.473-0.519l0.289-1.504l-1.8,0.514L13.785,0
		l-1.537,1.602l-1.189-1.381l-0.561,1.822l-1.91-0.625L9.31,3.026l-1.392,0.39L9.087,4.476z"/>
	<path d="M16.643,16.183l0.011-2.623l5.731-6.92l-1.742-1.441l-4.421,5.336l-1.269-0.23c0,0-0.555,1.701-2.078,1.791
		c-1.524,0.088-2.101-1.791-2.101-1.791L8.328,10.88l-1.961,5.303H0v1.928h1.159v10.984h0.942V18.111h7.232l0.014,1.361H7.818v0.662
		H9.13v8.457h2.897v-8.457h1.917v8.457h2.898v-8.457h1.14v-0.662h-1.341l0.001-1.361h7.051v10.984h0.941V18.111h1.447v-1.928H16.643
		z M8.403,16.183l0.882-2.454l0.027,2.454H8.403z"/>
</g>
<g>
</g>
<g>
</g>
<g>
</g>
<g>
</g>
<g>
</g>
<g>
</g>
<g>
</g>
<g>
</g>
<g>
</g>
<g>
</g>
<g>
</g>
<g>
</g>
<g>
</g>
<g>
</g>
<g>
</g>
</svg>
