<?xml version="1.0" encoding="iso-8859-1"?>
<!-- Generator: Adobe Illustrator 16.0.0, SVG Export Plug-In . SVG Version: 6.00 Build 0)  -->
<!DOCTYPE svg PUBLIC "-//W3C//DTD SVG 1.1//EN" "http://www.w3.org/Graphics/SVG/1.1/DTD/svg11.dtd">
<svg version="1.1" id="Layer_1" xmlns="http://www.w3.org/2000/svg" xmlns:xlink="http://www.w3.org/1999/xlink" x="0px" y="0px"
	 width="31.854px" height="28.038px" viewBox="0 0 31.854 28.038" style="enable-background:new 0 0 31.854 28.038;"
	 xml:space="preserve">
<g>
	<path d="M14.977,9.592c0.084-0.614,0.363-1.576,0.404-2.538C15.454,5.413,15.549,0,10.824,0C10.326,0,9.743,0.061,9.49,0.174
		C9.237,0.288,9.191,0.545,9.028,0.601c-0.17,0.058-0.412,0.035-0.563,0.107c-2.34,1.127-2.259,3.876-2.259,3.876l0.345,5.644
		l-0.46,4.42H0V17.6h1.908v10.438h19.735V17.6h1.907v-2.951h-8.015L14.977,9.592z M7.174,4.042c1.041-0.07,2.219-0.892,2.31-2.034
		c1.317,1.092,3.186,1.145,4.743,1.285c0.192,0.09,0.336,0.482,0.377,1L13.786,4.42V3.843h-2.592v0.601h-0.456V3.843H8.147v0.563
		L7.146,4.262C7.154,4.189,7.165,4.116,7.174,4.042z M13.499,4.131v1.026h-2.015V4.131H13.499z M10.45,4.131v1.026H8.437V4.131
		H10.45z M8.637,14.648H7.641l0.324-2.505c0.357,1.208,0.696,2.323,0.696,2.323L8.637,14.648z M13.197,14.648l-0.041-0.277
		c0,0,0.194-1.278,0.426-2.625l0.4,2.902H13.197z M11.888,8.041v1.327h0.006l0.477,0.227l-1.305,2.348v2.706h-0.322v-2.604
		L9.407,9.512l0.375-0.095V7.996C8.34,7.543,7.278,6.259,7.158,4.7l0.989,0.143v0.603h2.591V5.019h0.456v0.427h2.592V4.857
		L14.61,4.73C14.563,6.034,13.89,7.78,11.888,8.041z"/>
	<path d="M17.855,1.966v9.297h13.999V1.966H17.855z M31.21,10.619H18.499V2.611H31.21V10.619z"/>
	<polygon points="22.055,7.171 20.82,7.171 20.82,6.884 21.909,6.884 21.909,6.334 20.82,6.334 20.82,6.047 22.019,6.047 
		22.019,5.456 20.109,5.456 20.109,7.763 22.055,7.763 	"/>
	<rect x="22.354" y="7.088" width="1.633" height="0.494"/>
	<rect x="22.354" y="6.309" width="1.633" height="0.493"/>
	<path d="M24.951,6.854c0-0.088,0.015-0.161,0.045-0.216c0.031-0.056,0.089-0.084,0.171-0.084c0.047,0,0.085,0.007,0.114,0.024
		c0.026,0.017,0.047,0.039,0.063,0.066c0.015,0.028,0.024,0.061,0.027,0.097c0.004,0.036,0.005,0.074,0.005,0.113v0.908h0.64V6.854
		c0-0.088,0.015-0.161,0.047-0.216c0.031-0.056,0.088-0.084,0.17-0.084c0.047,0,0.085,0.007,0.113,0.024s0.049,0.039,0.065,0.066
		c0.015,0.028,0.023,0.061,0.026,0.097c0.003,0.036,0.005,0.074,0.005,0.113v0.908h0.64v-1.15c0-0.067-0.01-0.134-0.028-0.202
		s-0.052-0.13-0.098-0.185c-0.045-0.055-0.104-0.099-0.178-0.132c-0.073-0.034-0.163-0.05-0.271-0.05
		c-0.103,0-0.189,0.013-0.263,0.038c-0.069,0.027-0.127,0.055-0.17,0.086C26.031,6.199,26,6.229,25.979,6.257
		c-0.022,0.027-0.036,0.043-0.042,0.048c-0.039-0.084-0.103-0.148-0.188-0.193c-0.086-0.046-0.174-0.068-0.265-0.068
		c-0.116,0-0.221,0.021-0.313,0.06c-0.094,0.041-0.173,0.108-0.237,0.206h-0.006V6.085h-0.617v1.677h0.641V6.854z"/>
	<path d="M27.623,7.577c0.083,0.075,0.183,0.131,0.299,0.17c0.115,0.039,0.24,0.058,0.374,0.058c0.094,0,0.187-0.011,0.275-0.032
		c0.091-0.021,0.173-0.054,0.25-0.097c0.076-0.043,0.144-0.098,0.202-0.165c0.058-0.067,0.104-0.146,0.135-0.236h-0.595
		c-0.027,0.042-0.064,0.071-0.116,0.091c-0.05,0.02-0.102,0.029-0.152,0.029c-0.103,0-0.182-0.029-0.235-0.09
		c-0.055-0.061-0.085-0.14-0.094-0.236h1.229c0-0.164-0.02-0.309-0.055-0.436c-0.038-0.127-0.096-0.235-0.173-0.321
		c-0.077-0.088-0.176-0.154-0.297-0.199c-0.12-0.046-0.264-0.068-0.431-0.068c-0.133,0-0.253,0.023-0.362,0.07
		c-0.108,0.045-0.203,0.108-0.28,0.19c-0.078,0.08-0.136,0.175-0.179,0.281s-0.063,0.222-0.063,0.344c0,0.14,0.021,0.265,0.07,0.374
		C27.475,7.411,27.539,7.503,27.623,7.577z M28.072,6.527c0.054-0.048,0.13-0.073,0.228-0.073c0.08,0,0.147,0.028,0.201,0.082
		c0.052,0.056,0.078,0.122,0.078,0.2H27.97C27.984,6.645,28.019,6.576,28.072,6.527z"/>
	<path d="M30.202,6.123h-0.513V6.122c0.054-0.032,0.109-0.064,0.168-0.095c0.059-0.03,0.112-0.064,0.162-0.102
		c0.048-0.038,0.089-0.081,0.12-0.131c0.032-0.05,0.047-0.112,0.047-0.185c0-0.059-0.011-0.112-0.032-0.157
		C30.131,5.408,30.1,5.37,30.06,5.34c-0.042-0.029-0.091-0.052-0.147-0.066c-0.057-0.015-0.12-0.022-0.188-0.022
		c-0.075,0-0.146,0.012-0.207,0.033c-0.061,0.022-0.113,0.054-0.155,0.096c-0.043,0.042-0.074,0.093-0.095,0.153
		c-0.021,0.061-0.028,0.131-0.024,0.21h0.308c-0.003-0.07,0.01-0.126,0.034-0.17c0.025-0.042,0.071-0.064,0.136-0.064
		c0.039,0,0.071,0.01,0.099,0.031c0.025,0.02,0.039,0.056,0.039,0.108c0,0.02-0.006,0.039-0.016,0.055
		c-0.011,0.016-0.023,0.031-0.04,0.045c-0.016,0.012-0.031,0.024-0.049,0.035c-0.02,0.012-0.034,0.021-0.049,0.03
		c-0.036,0.022-0.074,0.043-0.111,0.067c-0.037,0.021-0.075,0.045-0.11,0.069c-0.035,0.025-0.068,0.051-0.1,0.079
		c-0.03,0.029-0.058,0.059-0.082,0.091c-0.028,0.039-0.049,0.081-0.064,0.127c-0.014,0.047-0.02,0.098-0.017,0.153h0.982V6.123z"/>
</g>
<g>
</g>
<g>
</g>
<g>
</g>
<g>
</g>
<g>
</g>
<g>
</g>
<g>
</g>
<g>
</g>
<g>
</g>
<g>
</g>
<g>
</g>
<g>
</g>
<g>
</g>
<g>
</g>
<g>
</g>
</svg>
