<?xml version="1.0" encoding="iso-8859-1"?>
<!-- Generator: Adobe Illustrator 16.0.0, SVG Export Plug-In . SVG Version: 6.00 Build 0)  -->
<!DOCTYPE svg PUBLIC "-//W3C//DTD SVG 1.1//EN" "http://www.w3.org/Graphics/SVG/1.1/DTD/svg11.dtd">
<svg version="1.1" id="Layer_1" xmlns="http://www.w3.org/2000/svg" xmlns:xlink="http://www.w3.org/1999/xlink" x="0px" y="0px"
	 width="25.193px" height="30.998px" viewBox="0 0 25.193 30.998" style="enable-background:new 0 0 25.193 30.998;"
	 xml:space="preserve">
<g>
	<path d="M2.705,13.479c1.49,0,2.703-1.212,2.703-2.704c0-1.493-1.213-2.704-2.703-2.704C1.213,8.071,0,9.282,0,10.775
		C0,12.268,1.213,13.479,2.705,13.479z"/>
	<path d="M17.419,11.415c0,1.492,1.213,2.703,2.703,2.703c1.492,0,2.705-1.211,2.705-2.703c0-1.494-1.213-2.705-2.705-2.705
		C18.632,8.71,17.419,9.921,17.419,11.415z"/>
	<polygon points="20.761,20.135 21.597,18.001 21.476,22.544 22.209,22.544 21.991,26.587 22.229,30.998 24.648,30.998 
		24.204,26.587 24.611,22.544 25.193,22.544 25.193,12.091 23.128,12.473 20.123,19.033 	"/>
	<path d="M6.942,7.532l-1.36,2.029L6.11,9.518c0.036-0.003,3.55-0.298,5.986-0.837c3.194-0.708,5.097-2.121,5.221-3.88
		c0.168-2.39-2.523-4.534-6-4.778C7.841-0.222,4.875,1.524,4.708,3.914C4.613,5.269,5.444,6.606,6.942,7.532z M11.281,0.532
		c3.196,0.224,5.675,2.123,5.527,4.232c-0.151,2.154-3.422,3.107-4.822,3.417C10.145,8.591,7.672,8.856,6.6,8.96l1.069-1.596
		L7.43,7.229C5.958,6.398,5.131,5.173,5.217,3.95C5.366,1.84,8.085,0.307,11.281,0.532z"/>
	<path d="M10.705,3.227c0.06-0.104,0.163-0.156,0.308-0.156c0.232,0,0.349,0.103,0.349,0.308c0,0.068-0.02,0.126-0.06,0.175
		c-0.04,0.049-0.09,0.09-0.148,0.123c-0.058,0.035-0.119,0.065-0.184,0.094s-0.121,0.055-0.169,0.079
		c-0.117,0.063-0.205,0.145-0.265,0.24c-0.061,0.097-0.103,0.195-0.127,0.297c-0.024,0.1-0.036,0.198-0.036,0.295
		c0,0.093,0.002,0.169,0.006,0.229h1.115c0-0.068,0.005-0.13,0.015-0.182s0.028-0.099,0.051-0.139
		c0.024-0.04,0.059-0.079,0.103-0.114c0.044-0.037,0.101-0.072,0.168-0.109c0.101-0.051,0.2-0.103,0.296-0.153
		c0.097-0.051,0.184-0.113,0.262-0.19c0.079-0.075,0.142-0.171,0.19-0.285c0.049-0.115,0.072-0.266,0.072-0.45
		c-0.008-0.133-0.041-0.272-0.099-0.419c-0.059-0.146-0.15-0.282-0.275-0.404c-0.125-0.122-0.287-0.224-0.488-0.302
		s-0.448-0.118-0.742-0.118c-0.298,0-0.55,0.046-0.757,0.137c-0.208,0.09-0.377,0.208-0.51,0.353
		c-0.133,0.146-0.231,0.31-0.295,0.491c-0.064,0.184-0.103,0.37-0.115,0.559h1.261C10.62,3.45,10.645,3.331,10.705,3.227z"/>
	<rect x="10.307" y="5.26" width="1.254" height="1.194"/>
	<polygon points="10.514,20.096 10.985,20.14 11.035,19.596 11.577,19.646 11.62,19.175 11.077,19.125 11.127,18.583 10.656,18.54 
		10.607,19.083 10.063,19.032 10.021,19.503 10.563,19.553 	"/>
	<path d="M12.605,23.355l0.564-6.169l0.061-0.664l0.006-0.066l-1.399-1.682l-0.062,0.001l-0.005-0.007l-5.47-0.5l-0.375,4.104H4.689
		l0.008-4.492l-0.05,0.02v-0.02H3.625H1.098l-0.132,8.238h0.582l0.408,4.044L1.51,30.573H3.93l0.238-4.411L3.95,22.118h0.733
		l0.003-2.049h1.083l-0.241,2.639L12.605,23.355z M6.644,14.682l4.837,0.442l-0.138,1.509l1.482,0.136l-0.564,6.173l-6.319-0.577
		l0.209-2.295h0.628h0.151c0.351,0.923,1.26,1.543,2.376,1.646c1.518,0.139,2.842-0.728,2.98-2.244
		c0.139-1.518-0.983-2.864-2.5-3.003c-0.465-0.042-1.198,0.117-1.315,0.203c-0.119,0.086-0.104,0.311,0.107,0.235
		c0.214-0.077,0.767-0.22,1.185-0.182c1.375,0.126,2.393,1.347,2.267,2.724c-0.125,1.375-1.324,2.134-2.7,2.009
		c-1.375-0.126-2.416-1.09-2.29-2.466c0.04-0.436,0.331-1.095,0.421-1.176c0.089-0.079-0.097-0.318-0.193-0.172
		c-0.06,0.092-0.217,0.395-0.338,0.729H6.779H6.306L6.644,14.682z"/>
	<polygon points="8.774,19.296 9.638,19.376 9.685,18.86 8.821,18.782 8.846,18.511 9.852,18.604 9.903,18.048 8.23,17.896 
		8.032,20.06 8.699,20.12 	"/>
</g>
<g>
</g>
<g>
</g>
<g>
</g>
<g>
</g>
<g>
</g>
<g>
</g>
<g>
</g>
<g>
</g>
<g>
</g>
<g>
</g>
<g>
</g>
<g>
</g>
<g>
</g>
<g>
</g>
<g>
</g>
</svg>
