<?xml version="1.0" encoding="iso-8859-1"?>
<!-- Generator: Adobe Illustrator 16.0.0, SVG Export Plug-In . SVG Version: 6.00 Build 0)  -->
<!DOCTYPE svg PUBLIC "-//W3C//DTD SVG 1.1//EN" "http://www.w3.org/Graphics/SVG/1.1/DTD/svg11.dtd">
<svg version="1.1" id="Layer_1" xmlns="http://www.w3.org/2000/svg" xmlns:xlink="http://www.w3.org/1999/xlink" x="0px" y="0px"
	 width="26.629px" height="31.705px" viewBox="0 0 26.629 31.705" style="enable-background:new 0 0 26.629 31.705;"
	 xml:space="preserve">
<path d="M17.565,16.565l-0.631-5.718c0.095-0.694,0.41-1.782,0.456-2.871C17.474,6.121,17.582,0,12.237,0
	c-0.562,0-1.221,0.069-1.507,0.198c-0.286,0.128-0.337,0.42-0.522,0.483C10.016,0.746,9.74,0.72,9.57,0.802
	C6.926,2.076,7.017,5.185,7.017,5.185l0.391,6.381l-0.519,4.999H0v3.336h2.156v11.804h22.316V19.901h2.156v-3.336H17.565z
	 M14.874,16.251c0,0,0.222-1.445,0.484-2.969l0.45,3.282h-0.887L14.874,16.251z M13.442,9.092v1.501h0.007l0.537,0.256l-1.475,2.656
	v3.059h-0.363V13.62l-1.51-2.864l0.422-0.106V9.042C9.43,8.53,8.229,7.078,8.094,5.315l1.118,0.161v0.682h2.931V5.676h0.517v0.482
	h2.929V5.493l0.935-0.144C16.467,6.824,15.704,8.798,13.442,9.092z M9.537,5.833v-1.16h2.279v1.16H9.537z M12.985,5.833v-1.16h2.277
	v1.16H12.985z M8.109,4.572c1.179-0.081,2.509-1.008,2.613-2.301c1.489,1.235,3.601,1.294,5.363,1.453
	c0.218,0.102,0.38,0.546,0.425,1.132l-0.923,0.143V4.347h-2.929v0.678h-0.517V4.347H9.212v0.636L8.08,4.819
	C8.09,4.737,8.101,4.655,8.109,4.572z M9.005,13.732c0.404,1.366,0.788,2.626,0.788,2.626l-0.027,0.207H8.64L9.005,13.732z"/>
<g>
</g>
<g>
</g>
<g>
</g>
<g>
</g>
<g>
</g>
<g>
</g>
<g>
</g>
<g>
</g>
<g>
</g>
<g>
</g>
<g>
</g>
<g>
</g>
<g>
</g>
<g>
</g>
<g>
</g>
</svg>
