<?xml version="1.0" encoding="iso-8859-1"?>
<!-- Generator: Adobe Illustrator 16.0.0, SVG Export Plug-In . SVG Version: 6.00 Build 0)  -->
<!DOCTYPE svg PUBLIC "-//W3C//DTD SVG 1.1//EN" "http://www.w3.org/Graphics/SVG/1.1/DTD/svg11.dtd">
<svg version="1.1" id="Layer_1" xmlns="http://www.w3.org/2000/svg" xmlns:xlink="http://www.w3.org/1999/xlink" x="0px" y="0px"
	 width="31.511px" height="21.852px" viewBox="0 0 31.511 21.852" style="enable-background:new 0 0 31.511 21.852;"
	 xml:space="preserve">
<g>
	<path d="M24.313,13.113c-0.126-1.153,0.424-1.849,0.637-2.071c0.195,1.194,1.226,2.109,2.474,2.109c1.184,0,2.17-0.823,2.439-1.925
		c0.202,0.36,0.546,1.096,0.463,1.887c2.096-0.018,1.063-2.414-0.406-2.677c-0.012-0.124-0.021-0.245-0.048-0.363
		c-0.088-0.757-0.765-2.297-2.709-2.25c-1.676,0.04-2.042,1.301-2.129,2.07c-0.06,0.189-0.097,0.386-0.11,0.591
		C22.741,10.863,22.982,13.077,24.313,13.113z M26.245,9.923c0,0,0.215,0.075,0.215,0.775c0.371,0.129,1.013-1.089,1.013-1.089
		v0.959c0.411,0.111,1.7-0.037,1.7-0.037l0.047,0.041c0.001,0.021,0.009,0.042,0.009,0.062c0,0.996-0.811,1.805-1.806,1.805
		c-0.98,0-1.778-0.789-1.799-1.765C25.982,10.544,26.245,9.923,26.245,9.923z"/>
	<polygon points="27.982,13.482 26.924,13.482 26.038,13.482 23.443,16.608 24.008,17.371 25.943,15.152 26.055,16.032 
		25.694,16.64 27.757,17.135 29.224,16.742 28.758,16.032 28.845,14.95 30.359,16.979 31.364,16.73 28.961,13.482 	"/>
	<polygon points="25.308,19.279 29.795,17.986 29.48,16.891 27.909,17.345 27.56,17.445 24.992,18.184 	"/>
	<polygon points="25.448,16.765 25.188,17.875 25.399,17.924 27.637,17.28 	"/>
	<polygon points="28.21,18.586 29.872,18.977 30.134,17.868 29.888,17.81 29.928,17.948 29.966,18.079 29.834,18.117 	"/>
	<polygon points="16.158,19.135 20.828,17.789 20.499,16.65 18.862,17.122 16.536,17.792 15.83,17.996 	"/>
	<polygon points="21.179,17.667 20.923,17.606 20.964,17.75 21.003,17.886 20.868,17.925 19.177,18.413 20.907,18.82 	"/>
	<polygon points="16.304,16.52 16.032,17.673 16.253,17.726 18.581,17.055 	"/>
	<path d="M16.021,10.163c0,1.262,1.021,2.284,2.284,2.284c1.26,0,2.281-1.021,2.281-2.284c0-0.788,0.275-1.508-0.331-1.918
		c-0.363-0.246-1.965-0.364-2.438-0.364c-0.562,0-1.293,0.459-1.69,0.795C15.632,9.095,16.021,9.464,16.021,10.163z M16.714,9.939
		c0.419-0.077,0.705,0.062,0.705,0.062L18.12,9.66c0,0-0.356,0.516-0.035,0.341c0.712-0.241,1.509-0.139,1.916-0.061
		c0.014,0.09,0.027,0.181,0.027,0.275c0,0.94-0.748,1.7-1.673,1.7c-0.922,0-1.669-0.76-1.669-1.7
		C16.687,10.122,16.699,10.03,16.714,9.939z"/>
	<polygon points="22.504,16.109 19.911,12.923 16.894,12.923 13.732,16.392 14.396,17.075 16.657,15.143 16.67,16.469 18.721,16.95 
		20.191,16.599 20.202,15.214 22.011,17.072 	"/>
	<circle cx="5.28" cy="2.404" r="2.404"/>
	<polygon points="2.892,15.347 1.646,18.093 2.399,18.435 3.802,15.347 5.858,15.347 7.206,18.43 7.964,18.098 6.762,15.347 
		7.635,15.347 7.635,14.104 2.891,14.104 1.205,7.362 0,7.664 1.921,15.347 	"/>
	<path d="M4.099,5.555l-0.407,8.174h0.994h0.389h0.569h1.716h0.106h0.946h1.103v5.059h2.163v-6.742h-0.173h-1.99H8.161v0H7.134
		l0.015-4.072l2.332,2.188l0.001-0.007l0.192-0.08l-0.342,0.44l3.978-0.324l3.459-4.451l-0.024,0.002l-0.9-1.619l-1.151,1.786
		l-1.901,0.155l-1.485,1.911l-1.79,0.744L6.832,5.555H4.099z M10.448,9.755l2.089-0.87l-0.493-1.185l0.961-1.237l2.859-0.232
		l-2.771,3.563l-2.858,0.233L10.448,9.755z"/>
	<rect x="0.815" y="20.852" width="30.354" height="1"/>
</g>
<g>
</g>
<g>
</g>
<g>
</g>
<g>
</g>
<g>
</g>
<g>
</g>
<g>
</g>
<g>
</g>
<g>
</g>
<g>
</g>
<g>
</g>
<g>
</g>
<g>
</g>
<g>
</g>
<g>
</g>
</svg>
