<?xml version="1.0" encoding="iso-8859-1"?>
<!-- Generator: Adobe Illustrator 16.0.0, SVG Export Plug-In . SVG Version: 6.00 Build 0)  -->
<!DOCTYPE svg PUBLIC "-//W3C//DTD SVG 1.1//EN" "http://www.w3.org/Graphics/SVG/1.1/DTD/svg11.dtd">
<svg version="1.1" id="Layer_1" xmlns="http://www.w3.org/2000/svg" xmlns:xlink="http://www.w3.org/1999/xlink" x="0px" y="0px"
	 width="31.061px" height="31.933px" viewBox="0 0 31.061 31.933" style="enable-background:new 0 0 31.061 31.933;"
	 xml:space="preserve">
<g>
	<path d="M12.092,0L8.301,1.176H0v28.245h1.54V2.716h1.793L2.157,3.081v26.34l9.935,2.465V2.716h4.394v26.705h1.541V1.176h-5.934V0z
		 M9.764,19.229c-0.5,0-0.905-0.492-0.905-1.098c0-0.606,0.405-1.098,0.905-1.098c0.5,0,0.905,0.491,0.905,1.098
		C10.669,18.737,10.264,19.229,9.764,19.229z"/>
	<circle cx="27.52" cy="5.503" r="3.542"/>
	<polygon points="22.609,30.056 22.583,30.29 22.379,30.267 21.176,30.294 21.049,31.386 22.046,31.594 23.245,31.539 
		23.235,31.732 24.536,31.886 24.679,30.668 24.694,30.538 24.719,30.329 24.736,30.331 26.278,25.271 24.076,25.115 	"/>
	<polygon points="30.813,30.036 30.791,29.889 30.804,29.886 29.637,25.658 29.406,20.417 29.796,20.361 29.796,9.568 26.314,9.568 
		24.736,9.568 24.843,15.493 26.243,9.932 26.59,10.047 28.783,10.6 29.025,10.66 28.964,10.903 26.644,20.1 26.583,20.342 
		26.34,20.28 26.281,20.254 26.275,20.484 28.369,20.583 28.073,25.356 27.4,25.328 28.716,30.372 28.514,30.404 27.377,30.848 
		27.551,31.933 28.551,31.772 29.691,31.393 29.732,31.583 31.029,31.376 30.835,30.168 	"/>
	<path d="M27.98,20.842l-2.014-0.119l0.041-0.821l0.313,0.082l2.279-9.055L26.581,10.4l-1.647,6.403l0.002,0.095l-0.635,2.556
		l0.534,0.14l-0.489,0.181l-0.054,0.858l-2.263-0.161l-0.225,4.204l5.938,0.397L27.98,20.842z M25.469,20.592l-0.662-0.04
		l0.022-0.394l0.662,0.039L25.469,20.592z"/>
</g>
<g>
</g>
<g>
</g>
<g>
</g>
<g>
</g>
<g>
</g>
<g>
</g>
<g>
</g>
<g>
</g>
<g>
</g>
<g>
</g>
<g>
</g>
<g>
</g>
<g>
</g>
<g>
</g>
<g>
</g>
</svg>
