<?xml version="1.0" encoding="iso-8859-1"?>
<!-- Generator: Adobe Illustrator 16.0.0, SVG Export Plug-In . SVG Version: 6.00 Build 0)  -->
<!DOCTYPE svg PUBLIC "-//W3C//DTD SVG 1.1//EN" "http://www.w3.org/Graphics/SVG/1.1/DTD/svg11.dtd">
<svg version="1.1" id="Layer_1" xmlns="http://www.w3.org/2000/svg" xmlns:xlink="http://www.w3.org/1999/xlink" x="0px" y="0px"
	 width="30.753px" height="31.086px" viewBox="0 0 30.753 31.086" style="enable-background:new 0 0 30.753 31.086;"
	 xml:space="preserve">
<g>
	<path d="M20.944,19.334v-4.441h-0.428l2.373-3.868l-0.415-0.256l-2.531,4.124H19.56l2.318-3.779l-0.132-0.082l-2.369,3.861h-0.271
		l2.318-3.779l-0.132-0.082l-2.369,3.861h-4.813v3.572H10.71v0.5h3.401v0.369H9.378v11.752h21.375V19.334H20.944z M16.006,15.371
		c0.194,0,0.352,0.157,0.352,0.352s-0.157,0.352-0.352,0.352s-0.352-0.157-0.352-0.352S15.812,15.371,16.006,15.371z M15.017,15.371
		c0.194,0,0.352,0.157,0.352,0.352s-0.157,0.352-0.352,0.352s-0.352-0.157-0.352-0.352S14.822,15.371,15.017,15.371z"/>
	<path d="M1.936,7.882c0.633,0.435,1.396,0.691,2.221,0.691c0.008,0,0.016-0.002,0.023-0.002s0.016,0.002,0.023,0.002
		c0.014,0,0.027-0.004,0.042-0.005C4.26,8.569,4.273,8.573,4.287,8.573c2.367,0,4.287-1.919,4.287-4.287
		C8.574,1.919,6.654,0,4.287,0S0,1.919,0,4.286c0,1.24,0.535,2.349,1.376,3.131C1.551,7.586,1.734,7.746,1.936,7.882z"/>
	<path d="M6.547,25.229l-0.754-5.325l0.191,0.005l-0.189-5.924l5.931,3.671l0.813-1.906L5.17,9.925L0.764,9.727l-0.34,10.261
		l0.326-0.006l0.318,5.838l-0.373,4.183H0.592v1.084h3.207h0.08h3.209v-1.084H6.527L6.547,25.229z M3.842,30.002H3.799H3.247
		l0.327-4.458l-0.076-4.128l0.49,4.236L3.842,30.002z"/>
	<path d="M29.982,18.875v-0.687v-1.313h-0.926l-0.226,0.579h-4.427l-0.154-0.411h-0.893v1.146v0.854v0.104h6.625V18.875z
		 M28.762,17.633l-0.091,0.231h-4.112l-0.087-0.231H28.762z M24.626,18.043h3.976l-0.057,0.146H24.68L24.626,18.043z"/>
</g>
<g>
</g>
<g>
</g>
<g>
</g>
<g>
</g>
<g>
</g>
<g>
</g>
<g>
</g>
<g>
</g>
<g>
</g>
<g>
</g>
<g>
</g>
<g>
</g>
<g>
</g>
<g>
</g>
<g>
</g>
</svg>
