<?xml version="1.0" encoding="iso-8859-1"?>
<!-- Generator: Adobe Illustrator 16.0.0, SVG Export Plug-In . SVG Version: 6.00 Build 0)  -->
<!DOCTYPE svg PUBLIC "-//W3C//DTD SVG 1.1//EN" "http://www.w3.org/Graphics/SVG/1.1/DTD/svg11.dtd">
<svg version="1.1" id="Layer_1" xmlns="http://www.w3.org/2000/svg" xmlns:xlink="http://www.w3.org/1999/xlink" x="0px" y="0px"
	 width="28.524px" height="31.149px" viewBox="0 0 28.524 31.149" style="enable-background:new 0 0 28.524 31.149;"
	 xml:space="preserve">
<g>
	<rect y="30.222" width="28.524" height="0.928"/>
	<circle cx="21.371" cy="3.542" r="3.542"/>
	<polygon points="17.798,29.624 17.788,29.817 19.089,29.971 19.231,28.753 19.247,28.623 19.271,28.414 19.289,28.416 20.13,23.31 
		17.928,23.153 17.162,28.141 17.136,28.375 16.932,28.352 15.718,28.47 15.591,29.562 16.599,29.679 	"/>
	<polygon points="21.229,28.886 21.402,29.971 22.402,29.811 23.543,29.431 23.584,29.621 24.881,29.414 24.687,28.206 
		24.665,28.074 24.643,27.927 24.655,27.924 23.488,23.696 23.258,18.455 23.647,18.399 23.647,7.606 20.166,7.606 18.588,7.606 
		18.694,13.531 20.095,7.97 20.441,8.085 22.635,8.638 22.877,8.698 22.815,8.941 20.495,18.138 20.435,18.38 20.191,18.318 
		20.133,18.292 20.127,18.522 22.221,18.621 21.925,23.395 21.252,23.366 22.567,28.41 22.365,28.442 	"/>
	<path d="M21.832,18.88l-2.014-0.119l0.041-0.821l0.313,0.082l2.279-9.055l-2.019-0.528l-1.647,6.403l0.002,0.095l-0.635,2.556
		l0.534,0.14l-0.489,0.181l-0.054,0.858l-2.263-0.161l-0.225,4.204l5.938,0.397L21.832,18.88z M19.32,18.63l-0.662-0.04l0.022-0.394
		l0.662,0.039L19.32,18.63z"/>
</g>
<g>
</g>
<g>
</g>
<g>
</g>
<g>
</g>
<g>
</g>
<g>
</g>
<g>
</g>
<g>
</g>
<g>
</g>
<g>
</g>
<g>
</g>
<g>
</g>
<g>
</g>
<g>
</g>
<g>
</g>
</svg>
