<?xml version="1.0" encoding="iso-8859-1"?>
<!-- Generator: Adobe Illustrator 16.0.0, SVG Export Plug-In . SVG Version: 6.00 Build 0)  -->
<!DOCTYPE svg PUBLIC "-//W3C//DTD SVG 1.1//EN" "http://www.w3.org/Graphics/SVG/1.1/DTD/svg11.dtd">
<svg version="1.1" id="Layer_1" xmlns="http://www.w3.org/2000/svg" xmlns:xlink="http://www.w3.org/1999/xlink" x="0px" y="0px"
	 width="14.328px" height="29.838px" viewBox="0 0 14.328 29.838" style="enable-background:new 0 0 14.328 29.838;"
	 xml:space="preserve">
<g>
	<circle cx="7.335" cy="4.201" r="4.201"/>
	<polygon points="2.626,19.039 1.542,19.039 1.542,18.366 2.347,18.668 3.394,15.156 3.423,17.213 3.504,18.781 3.77,18.781 
		3.77,19.736 3.77,20.443 3.77,27.919 3.767,28.279 3.208,28.279 3.208,29.838 3.755,29.838 6.776,29.838 7.339,29.838 
		7.339,28.279 6.776,28.279 6.776,27.919 6.776,20.443 7.833,20.443 8.447,24.17 7.934,26.313 7.34,26.313 7.34,27.871 
		11.471,27.871 11.471,26.313 10.931,26.313 11.271,24.17 10.839,20.443 10.839,19.736 10.839,18.781 11.058,18.781 11.136,17.213 
		11.139,15.105 12.183,18.434 14.328,17.629 11.164,9.502 11.147,9.499 11.147,9.45 8.958,9.033 7.408,10.891 5.808,9.033 
		5.184,9.15 5.184,9.15 3.291,9.502 0.201,17.863 0.979,18.154 0.979,19.039 0,19.039 0,25.916 2.626,25.916 	"/>
</g>
<g>
</g>
<g>
</g>
<g>
</g>
<g>
</g>
<g>
</g>
<g>
</g>
<g>
</g>
<g>
</g>
<g>
</g>
<g>
</g>
<g>
</g>
<g>
</g>
<g>
</g>
<g>
</g>
<g>
</g>
</svg>
