<?xml version="1.0" encoding="iso-8859-1"?>
<!-- Generator: Adobe Illustrator 16.0.0, SVG Export Plug-In . SVG Version: 6.00 Build 0)  -->
<!DOCTYPE svg PUBLIC "-//W3C//DTD SVG 1.1//EN" "http://www.w3.org/Graphics/SVG/1.1/DTD/svg11.dtd">
<svg version="1.1" id="Layer_1" xmlns="http://www.w3.org/2000/svg" xmlns:xlink="http://www.w3.org/1999/xlink" x="0px" y="0px"
	 width="31.313px" height="30.387px" viewBox="0 0 31.313 30.387" style="enable-background:new 0 0 31.313 30.387;"
	 xml:space="preserve">
<g>
	<path d="M23.097,7.616c0-0.898-0.632-1.42-2.223-1.42c-0.32,0-0.742,0.023-1.351,0.063c-0.14,0.007-0.14,0.07-0.14,0.405
		c0,0.164-0.016,0.344-0.156,2.193c-0.117,1.498-0.148,1.904-0.148,2.099c0,0.616,0.312,0.92,1.537,0.92
		c1.911,0,2.481-0.795,2.481-1.748c0-0.593-0.227-1.045-0.827-1.233C22.909,8.732,23.097,8.107,23.097,7.616z M21.013,10.861
		c-0.148,0-0.328-0.031-0.507-0.085l0.086-1.272c0.18-0.031,0.351-0.046,0.468-0.046c0.523,0,0.71,0.296,0.71,0.686
		C21.77,10.44,21.661,10.861,21.013,10.861z M21.115,8.442c-0.14,0-0.289-0.023-0.445-0.063c0.031-0.421,0.047-0.795,0.062-1.068
		c0.148-0.023,0.297-0.039,0.406-0.039c0.523,0,0.71,0.273,0.71,0.593C21.848,8.115,21.731,8.442,21.115,8.442z"/>
	<path d="M26.959,3.461c0.468,0,0.468,0.313,0.484,1.03c0,0.109,0.03,0.141,0.257,0.141c0.709,0,1.124-0.296,1.124-0.96
		c0-0.772-0.562-1.405-1.794-1.405c-2.294,0-2.63,2.193-2.63,3.231c0,1.919,1.14,2.465,2.209,2.465c1.068,0,1.623-0.546,1.708-0.897
		c0.07-0.289,0.117-0.53,0.117-0.694c0-0.148-0.039-0.234-0.156-0.234c-0.328,0-0.585,0.608-1.443,0.608
		c-0.664,0-0.976-0.367-0.976-1.327C25.858,4.827,25.976,3.461,26.959,3.461z"/>
	<path d="M14.698,16.602h0.414c0.086,0,0.156-0.047,0.18-0.125l0.257-1.077h1.358c0.086,0.75,0.171,1.202,1.069,1.202h0.398
		c0.14,0,0.21-0.04,0.21-0.188c0-0.257-0.21-1.124-1.046-4.486c-0.109-0.444-0.25-0.866-0.772-0.866h-0.742
		c-0.187,0-0.218,0-0.304,0.148c-0.328,0.586-1.763,4.174-1.763,4.877C13.958,16.461,14.363,16.602,14.698,16.602z M16.399,12.209
		l0.328,2.06H15.83L16.399,12.209z"/>
	<polygon points="2.931,0 2.931,2.952 4.221,2.555 4.221,1.289 30.023,1.289 30.023,17.737 9.491,17.737 9.424,19.027 
		31.313,19.027 31.313,0 	"/>
	<circle cx="4.984" cy="7.063" r="3.821"/>
	<polygon points="8.228,28.641 8.228,21.839 8.228,21.198 8.228,20.328 8.471,20.328 8.825,13.422 15.416,10.008 14.55,8.337 
		8.525,11.458 6.375,11.458 4.917,13.148 3.509,11.458 0.417,11.875 0.214,18.901 1.527,18.901 1.597,20.328 1.797,20.328 
		1.797,21.198 1.797,21.839 1.797,28.641 1.534,28.641 0,28.973 0,30.387 1.306,30.387 2.83,30.138 2.844,30.387 4.531,30.387 
		4.531,28.812 4.531,28.641 4.531,21.839 5.493,21.839 5.493,28.641 5.493,28.812 5.493,30.387 7.182,30.387 7.195,30.138 
		8.718,30.387 10.024,30.387 10.024,28.973 8.491,28.641 	"/>
	<rect x="23.611" y="14.48" width="5.051" height="1.879"/>
</g>
<g>
</g>
<g>
</g>
<g>
</g>
<g>
</g>
<g>
</g>
<g>
</g>
<g>
</g>
<g>
</g>
<g>
</g>
<g>
</g>
<g>
</g>
<g>
</g>
<g>
</g>
<g>
</g>
<g>
</g>
</svg>
