<?xml version="1.0" encoding="iso-8859-1"?>
<!-- Generator: Adobe Illustrator 16.0.0, SVG Export Plug-In . SVG Version: 6.00 Build 0)  -->
<!DOCTYPE svg PUBLIC "-//W3C//DTD SVG 1.1//EN" "http://www.w3.org/Graphics/SVG/1.1/DTD/svg11.dtd">
<svg version="1.1" id="Layer_1" xmlns="http://www.w3.org/2000/svg" xmlns:xlink="http://www.w3.org/1999/xlink" x="0px" y="0px"
	 width="30.531px" height="31.025px" viewBox="0 0 30.531 31.025" style="enable-background:new 0 0 30.531 31.025;"
	 xml:space="preserve">
<g>
	<rect x="22.916" y="14.787" width="5.05" height="1.879"/>
	<polygon points="2.15,0 2.15,2.953 3.44,2.555 3.44,1.29 29.242,1.29 29.242,17.737 8.71,17.737 8.642,19.027 30.531,19.027 
		30.531,0 	"/>
	<path d="M2.378,21.329h2.471v-5.472l-1.335-2.532l0.374-0.094v-1.421c-1.441-0.453-2.503-1.738-2.623-3.296l0.988,0.143v0.603
		h2.592V8.832h0.457v0.426h2.592V8.67l0.823-0.128c-0.047,1.305-0.72,3.051-2.724,3.311v1.327H6l0.477,0.227l-1.305,2.349v5.573
		h1.314H7.73l-0.468-3.145c0,0,0.194-1.279,0.427-2.626l7.248-4.883l-0.291-0.497l5.904-3.937l-0.32-0.56l-5.908,3.939l0.137,0.237
		l-0.499-0.849L9.166,12.79c0.085-0.614,0.28-0.962,0.321-1.924C9.56,9.224,9.655,3.812,4.929,3.812
		c-0.497,0-1.08,0.061-1.333,0.174C3.344,4.1,3.298,4.358,3.134,4.414C2.964,4.471,2.722,4.449,2.572,4.52
		c-2.34,1.127-2.259,3.876-2.259,3.876l0.346,5.644L0,20.367l1.481,0.135l0.589-4.546c0.357,1.208,0.696,2.322,0.696,2.322
		L2.378,21.329z M4.556,8.97H2.541V7.944h2.015V8.97z M7.605,8.97H5.59V7.944h2.016V8.97z M1.279,7.854
		c1.042-0.071,2.219-0.892,2.31-2.034c1.319,1.092,3.187,1.145,4.744,1.284c0.193,0.091,0.336,0.483,0.376,1.002L7.894,8.232V7.656
		H5.302v0.6H4.845v-0.6H2.253v0.562l-1-0.144C1.261,8.001,1.271,7.929,1.279,7.854z"/>
	<path d="M7.69,21.657l-5.314-0.021l-0.119,3.585h1.644v4.866c-0.75,0.012-1.212,0.129-1.212,0.466c0,0.355,0.73,0.472,0.73,0.472
		h0.482h1.156h0.057c0,0,0-0.25,0-0.445c0-0.069-0.018-0.137-0.057-0.198v-5.161h0.614l0.212,2.015l-0.329,3.062
		c-0.092,0.081-0.132,0.178-0.132,0.282c0,0.194,0,0.445,0,0.445h0.055l0,0h1.166l0,0h0.475c0,0,0.73-0.116,0.73-0.472
		c0-0.323-0.433-0.443-1.129-0.462l0.233-2.854L6.79,25.222h1.103L7.69,21.657z"/>
</g>
<g>
</g>
<g>
</g>
<g>
</g>
<g>
</g>
<g>
</g>
<g>
</g>
<g>
</g>
<g>
</g>
<g>
</g>
<g>
</g>
<g>
</g>
<g>
</g>
<g>
</g>
<g>
</g>
<g>
</g>
</svg>
