<?xml version="1.0" encoding="iso-8859-1"?>
<!-- Generator: Adobe Illustrator 16.0.0, SVG Export Plug-In . SVG Version: 6.00 Build 0)  -->
<!DOCTYPE svg PUBLIC "-//W3C//DTD SVG 1.1//EN" "http://www.w3.org/Graphics/SVG/1.1/DTD/svg11.dtd">
<svg version="1.1" id="Layer_1" xmlns="http://www.w3.org/2000/svg" xmlns:xlink="http://www.w3.org/1999/xlink" x="0px" y="0px"
	 width="26.108px" height="29.253px" viewBox="0 0 26.108 29.253" style="enable-background:new 0 0 26.108 29.253;"
	 xml:space="preserve">
<g>
	<path d="M8.221,7.486c2.065,0,3.744-1.676,3.744-3.743C11.965,1.676,10.287,0,8.221,0C6.158,0,4.479,1.676,4.479,3.743
		C4.479,5.81,6.158,7.486,8.221,7.486z"/>
	<polygon points="11.887,23.894 11.887,21.96 4.501,21.96 1.876,11.462 0,11.932 2.991,23.894 4.503,23.894 2.563,28.17 
		3.736,28.703 5.919,23.894 9.121,23.894 11.219,28.695 12.401,28.178 10.528,23.894 	"/>
	<path d="M14.529,16.375l6.194-0.504l5.385-6.929l-0.038,0.002l-1.401-2.521l-1.793,2.781l-2.961,0.24l-2.313,2.976l-2.786,1.159
		l-4.179-4.93H6.38L5.748,21.377h1.546H7.9h0.886h2.672h0.166h1.472h1.716v7.876h3.369V18.757h-0.269h-3.1h-2.106l0,0.001h-1.599
		l0.021-6.341l3.633,3.407l0-0.01l0.299-0.124L14.529,16.375z M20.25,10.065L24.7,9.702l-4.312,5.548l-4.451,0.363l0.331-0.425
		l3.252-1.353l-0.767-1.844L20.25,10.065z"/>
</g>
<g>
</g>
<g>
</g>
<g>
</g>
<g>
</g>
<g>
</g>
<g>
</g>
<g>
</g>
<g>
</g>
<g>
</g>
<g>
</g>
<g>
</g>
<g>
</g>
<g>
</g>
<g>
</g>
<g>
</g>
</svg>
