<?xml version="1.0" encoding="utf-8"?>
<!-- Generator: Adobe Illustrator 16.0.4, SVG Export Plug-In . SVG Version: 6.00 Build 0)  -->
<!DOCTYPE svg PUBLIC "-//W3C//DTD SVG 1.1//EN" "http://www.w3.org/Graphics/SVG/1.1/DTD/svg11.dtd">
<svg version="1.1" id="Layer_1" xmlns="http://www.w3.org/2000/svg" xmlns:xlink="http://www.w3.org/1999/xlink" x="0px" y="0px"
	 width="29.168px" height="31.947px" viewBox="0 0 29.168 31.947" enable-background="new 0 0 29.168 31.947" xml:space="preserve">
<path d="M2.296,7.067L4.39,1.724l4.566,1.789L6.862,8.856L2.296,7.067z M20.848,13.658l1.574-4.02L9.329,4.51L7.754,8.528
	L20.848,13.658z M23.426,14.208l1.265-3.226l-2.028-0.795l-1.264,3.226L23.426,14.208z M24.922,11.558l-0.977,2.491l1.764,0.691
	l0.977-2.491L24.922,11.558z M27.889,12.327l-0.277,0.71l-0.762-0.298l-0.707,1.807l0.762,0.297l-0.279,0.709l1.279,0.503
	l1.264-3.226L27.889,12.327z M4.043,0.539L2.67,0.001L0,6.814l1.374,0.538L4.043,0.539z M13.364,17.54l10.25,14.187l-1.306,0.221
	l-9.776-13.499v13.279h-1.211V18.343L1.628,31.727H0.397L10.425,17.54H9.346v-5.213h5.16v5.213H13.364z M12.904,14.933
	c0-0.496-0.401-0.896-0.895-0.896c-0.495,0-0.896,0.399-0.896,0.896s0.401,0.895,0.896,0.895
	C12.503,15.828,12.904,15.429,12.904,14.933z"/>
</svg>
