<?xml version="1.0" encoding="iso-8859-1"?>
<!-- Generator: Adobe Illustrator 16.0.0, SVG Export Plug-In . SVG Version: 6.00 Build 0)  -->
<!DOCTYPE svg PUBLIC "-//W3C//DTD SVG 1.1//EN" "http://www.w3.org/Graphics/SVG/1.1/DTD/svg11.dtd">
<svg version="1.1" id="Layer_1" xmlns="http://www.w3.org/2000/svg" xmlns:xlink="http://www.w3.org/1999/xlink" x="0px" y="0px"
	 width="31.918px" height="31.35px" viewBox="0 0 31.918 31.35" style="enable-background:new 0 0 31.918 31.35;"
	 xml:space="preserve">
<path d="M31.836,28.191c-1.074-7.031-3.928-11.751-8.487-14.042c-0.557-5.866-3.89-11.565-6.909-13.794L15.959,0l-0.481,0.355
	c-3.021,2.229-6.353,7.928-6.91,13.794C4.01,16.44,1.156,21.16,0.083,28.191L0,28.73l0.387,0.356
	c1.404,1.289,5.083,2.263,8.556,2.263c0,0,0,0,0,0c2.191,0,5.072-0.382,7.016-2.052c1.943,1.67,4.824,2.052,7.015,2.052
	c0.001,0,0.001,0,0.001,0c3.474,0,7.151-0.974,8.556-2.263l0.387-0.356L31.836,28.191z M15.959,2.418
	c2.04,1.856,4.719,6.062,5.454,10.94c-1.636-0.53-3.454-0.798-5.422-0.798c-0.011,0-0.021,0-0.032,0c-0.012,0-0.021,0-0.033,0
	c-1.968,0-3.786,0.268-5.422,0.798C11.24,8.479,13.919,4.274,15.959,2.418z M14.229,28.219c-1.246,0.771-3.068,1.184-5.287,1.184
	c-2.873,0-5.703-0.729-6.963-1.496c0.964-5.648,3.104-9.437,6.516-11.523c0.108,3.593,1.369,8.03,5.877,11.657l-0.206,0.146
	L14.229,28.219z M10.316,15.479c1.639-0.646,3.523-0.971,5.61-0.971c0.012,0,0.021,0,0.033,0c0.01,0,0.021,0,0.032,0
	c2.088,0,3.973,0.325,5.61,0.971c0.079,3.371-0.923,7.85-5.642,11.384C11.239,23.328,10.237,18.85,10.316,15.479z M22.975,29.402
	c-2.219,0-4.041-0.413-5.286-1.184l0.063-0.033l-0.205-0.146c4.508-3.627,5.768-8.064,5.876-11.657
	c3.412,2.087,5.552,5.875,6.516,11.523C28.678,28.674,25.848,29.402,22.975,29.402z"/>
<g>
</g>
<g>
</g>
<g>
</g>
<g>
</g>
<g>
</g>
<g>
</g>
<g>
</g>
<g>
</g>
<g>
</g>
<g>
</g>
<g>
</g>
<g>
</g>
<g>
</g>
<g>
</g>
<g>
</g>
</svg>
