<?xml version="1.0" encoding="utf-8"?>
<!-- Generator: Adobe Illustrator 16.0.4, SVG Export Plug-In . SVG Version: 6.00 Build 0)  -->
<!DOCTYPE svg PUBLIC "-//W3C//DTD SVG 1.1//EN" "http://www.w3.org/Graphics/SVG/1.1/DTD/svg11.dtd">
<svg version="1.1" id="Layer_1" xmlns="http://www.w3.org/2000/svg" xmlns:xlink="http://www.w3.org/1999/xlink" x="0px" y="0px"
	 width="44.113px" height="46.805px" viewBox="0 0 44.113 46.805" enable-background="new 0 0 44.113 46.805" xml:space="preserve">
<g>
	<path d="M19.328,25.613c-1.425-0.016-2.565-1.182-2.554-2.605c0.015-1.424,1.182-2.567,2.604-2.551
		c0.728,0.006,1.38,0.313,1.844,0.805l0.638,0.005l0.071-7.009l-6.146-0.062l-0.01,0.908c0.479,0.477,0.773,1.134,0.768,1.859
		c-0.015,1.424-1.182,2.566-2.604,2.553c-1.424-0.016-2.565-1.183-2.551-2.604c0.008-0.729,0.314-1.379,0.805-1.842l0.01-0.911
		l-6.029-0.062l-0.067,6.677l-0.944-0.011c-0.537-0.565-1.295-0.924-2.139-0.934C1.371,19.815,0.016,21.141,0,22.793
		c-0.018,1.652,1.309,3.005,2.961,3.021c0.845,0.012,1.607-0.334,2.159-0.889l0.942,0.008l-0.074,7.455l6.027,0.061l0.012-1.152
		c-0.479-0.473-0.773-1.131-0.768-1.859c0.016-1.422,1.181-2.562,2.604-2.549c1.424,0.016,2.565,1.18,2.552,2.604
		c-0.008,0.727-0.315,1.379-0.806,1.844l-0.01,1.15l6.146,0.062l0.079-7.697l-0.639-0.006
		C20.714,25.326,20.054,25.621,19.328,25.613z"/>
	<path d="M41.153,20.99c-0.845-0.014-1.607,0.332-2.158,0.889l-0.943-0.01l0.005-0.444h0.022l0.071-7.009l-5.875-0.063v0.004
		l-0.176-0.002l-0.013,1.152c0.248,0.246,0.444,0.543,0.577,0.871c0.058,0.237,0.102,0.483,0.099,0.744
		c-0.015,1.424-1.182,2.564-2.604,2.553c-1.036-0.012-1.916-0.635-2.317-1.521c-0.089-0.267-0.146-0.547-0.143-0.843
		c0.008-0.727,0.315-1.379,0.805-1.844l0.013-1.152l-0.095-0.001l0,0l-6.027-0.062l0,0H22.37l-0.075,7.321l-1.328-0.009
		c-0.397-0.424-0.959-0.691-1.586-0.691c-1.204,0-2.18,0.977-2.18,2.18c0,1.203,0.976,2.179,2.18,2.179
		c0.654,0,1.232-0.293,1.634-0.75l1.27,0.008l-0.009,1.045h-0.021l-0.07,7.01h0.037l-0.001,0.16l6.016-0.102l0.013-1.15
		c-0.287-0.283-0.496-0.641-0.625-1.029c-0.028-0.188-0.052-0.383-0.049-0.586c0.014-1.424,1.181-2.566,2.604-2.553
		c1.034,0.012,1.914,0.635,2.315,1.52c0.089,0.268,0.146,0.547,0.145,0.842c-0.009,0.729-0.316,1.379-0.806,1.846l-0.013,1.15h0.095
		l0,0l6.027,0.064l0,0h0.022l0.069-6.678l0.92,0.012c0.538,0.564,1.295,0.924,2.139,0.934c1.652,0.018,3.008-1.311,3.023-2.963
		C44.132,22.358,42.806,21.004,41.153,20.99z"/>
</g>
</svg>
