<?xml version="1.0" encoding="iso-8859-1"?>
<!-- Generator: Adobe Illustrator 16.0.0, SVG Export Plug-In . SVG Version: 6.00 Build 0)  -->
<!DOCTYPE svg PUBLIC "-//W3C//DTD SVG 1.1//EN" "http://www.w3.org/Graphics/SVG/1.1/DTD/svg11.dtd">
<svg version="1.1" id="Layer_1" xmlns="http://www.w3.org/2000/svg" xmlns:xlink="http://www.w3.org/1999/xlink" x="0px" y="0px"
	 width="28.61px" height="27.54px" viewBox="0 0 28.61 27.54" style="enable-background:new 0 0 28.61 27.54;" xml:space="preserve"
	>
<g>
	<path d="M2.136,3.953l0.787,0.135c-0.061-0.196-0.1-0.398-0.117-0.609l0.731,0.105V4.03h1.918V3.714h0.338V4.03h1.918V3.595
		L8.32,3.5C8.314,3.648,8.296,3.805,8.267,3.963l0.607-0.114C8.746,2.214,8.118,0,5.518,0C5.149,0,4.719,0.045,4.532,0.129
		C4.344,0.213,4.311,0.404,4.189,0.445C4.063,0.487,3.886,0.47,3.773,0.524C2.041,1.358,2.102,3.394,2.102,3.394L2.136,3.953z
		 M5.243,3.817H3.751v-0.76h1.492V3.817z M7.498,3.817H6.007v-0.76h1.491V3.817z M2.816,2.991c0.772-0.052,1.642-0.66,1.71-1.505
		c0.976,0.808,2.357,0.848,3.509,0.95C8.18,2.503,8.286,2.793,8.313,3.178L7.711,3.271V2.846H5.793v0.443H5.455V2.846H3.537V3.26
		L2.796,3.153C2.804,3.099,2.811,3.047,2.816,2.991z"/>
	<path d="M9.726,4.026L5.379,4.719L1.031,4.026V6.8C0.735,6.976,0.527,7.366,0.527,7.821c0,0.454,0.208,0.845,0.504,1.02v2.277
		l4.348,0.693l4.347-0.693V8.766c0.239-0.199,0.398-0.547,0.398-0.944c0-0.399-0.159-0.748-0.398-0.947V4.026z M5.182,11.38
		l-3.757-0.598V8.937c0.453-0.029,0.814-0.516,0.814-1.115c0-0.602-0.361-1.087-0.814-1.117V4.487l3.757,0.599V11.38z M9.331,5.282
		v1.426C9.31,6.705,9.291,6.699,9.268,6.699c-0.472,0-0.856,0.502-0.856,1.122c0,0.618,0.385,1.121,0.856,1.121
		c0.023,0,0.042-0.006,0.063-0.008v1.848L5.576,11.38V5.086l3.755-0.599V5.282z"/>
	<path d="M8.347,19.578c-0.128-1.634-0.755-3.849-3.356-3.849c-0.368,0-0.799,0.046-0.986,0.129
		c-0.188,0.084-0.22,0.276-0.342,0.316c-0.126,0.043-0.304,0.026-0.415,0.08c-1.733,0.832-1.673,2.868-1.673,2.868l0.035,0.56
		l0.787,0.135c-0.062-0.194-0.101-0.399-0.118-0.609l0.731,0.104v0.448h1.919v-0.316h0.338v0.316h1.917v-0.436l0.61-0.096
		c-0.006,0.149-0.024,0.306-0.055,0.465L8.347,19.578z M4.716,19.547H3.224v-0.76h1.492V19.547z M6.971,19.547H5.479v-0.76h1.491
		V19.547z M7.184,19.001v-0.426H5.267v0.443H4.929v-0.443H3.01v0.415l-0.74-0.106c0.007-0.055,0.015-0.107,0.02-0.163
		c0.772-0.052,1.642-0.66,1.71-1.505c0.976,0.809,2.358,0.848,3.51,0.951c0.144,0.067,0.249,0.356,0.278,0.74L7.184,19.001z"/>
	<path d="M9.198,19.757l-4.347,0.692l-4.347-0.692v2.773C0.208,22.706,0,23.096,0,23.552c0,0.454,0.208,0.844,0.505,1.021v2.275
		l4.347,0.692l4.347-0.692v-2.351c0.239-0.199,0.398-0.547,0.398-0.945s-0.159-0.748-0.398-0.946V19.757z M4.653,27.109
		l-3.755-0.599v-1.844c0.453-0.029,0.813-0.515,0.813-1.115c0-0.602-0.36-1.088-0.813-1.118V20.22l3.755,0.598V27.109z
		 M8.804,21.012v1.425c-0.021-0.002-0.041-0.008-0.063-0.008c-0.473,0-0.855,0.503-0.855,1.123c0,0.619,0.383,1.122,0.855,1.122
		c0.022,0,0.043-0.007,0.063-0.009v1.846l-3.755,0.599v-6.292l3.755-0.598V21.012z"/>
	<polygon points="22.333,10.718 28.61,7.089 22.333,3.459 22.333,6.041 14.062,6.041 14.062,8.136 22.333,8.136 	"/>
	<polygon points="22.333,21.596 14.062,21.596 14.062,23.691 22.333,23.691 22.333,26.273 28.61,22.644 22.333,19.016 	"/>
</g>
<g>
</g>
<g>
</g>
<g>
</g>
<g>
</g>
<g>
</g>
<g>
</g>
<g>
</g>
<g>
</g>
<g>
</g>
<g>
</g>
<g>
</g>
<g>
</g>
<g>
</g>
<g>
</g>
<g>
</g>
</svg>
