<?xml version="1.0" encoding="iso-8859-1"?>
<!-- Generator: Adobe Illustrator 16.0.0, SVG Export Plug-In . SVG Version: 6.00 Build 0)  -->
<!DOCTYPE svg PUBLIC "-//W3C//DTD SVG 1.1//EN" "http://www.w3.org/Graphics/SVG/1.1/DTD/svg11.dtd">
<svg version="1.1" id="Layer_1" xmlns="http://www.w3.org/2000/svg" xmlns:xlink="http://www.w3.org/1999/xlink" x="0px" y="0px"
	 width="29.005px" height="31.944px" viewBox="0 0 29.005 31.944" style="enable-background:new 0 0 29.005 31.944;"
	 xml:space="preserve">
<g>
	<circle cx="14.265" cy="5.63" r="3.344"/>
	<polygon points="11.237,15.991 11.3,17.239 11.475,17.239 11.475,18.001 11.475,18.563 10.064,21.18 7.28,19.705 6.187,21.771 
		6.188,21.771 5.896,22.321 6.627,22.709 6.919,22.157 10.837,24.233 11.93,22.168 11.926,22.166 13.869,18.563 14.71,18.563 
		15.704,22.591 13.354,26.063 13.359,26.066 13.354,26.075 15.77,27.71 16.341,26.864 15.822,26.514 18.206,22.992 18.193,22.983 
		17.103,18.563 17.103,18.001 17.103,17.239 17.316,17.239 17.735,11.761 22.847,8.661 22.475,6.956 17.071,9.478 15.481,9.478 
		14.205,10.956 12.973,9.478 10.567,9.93 10.57,9.954 5.377,6.648 4.162,8.557 10.889,12.839 	"/>
	<rect y="30.353" width="27.935" height="1.592"/>
	<path d="M28.343,0.041c-1.011-0.272-1.719,0.896-1.893,1.219h-2.224h-0.029h-2.336c-0.249-0.419-0.915-1.353-1.829-1.105
		c-0.862,0.231-0.696,1.393-0.521,2.621c0.076,0.53,0.155,1.075,0.158,1.572c0.005,0.441,0.161,0.802,0.464,1.073
		c0.518,0.461,1.342,0.534,1.809,0.534c0.198,0,0.332-0.013,0.352-0.015c0.602,1.142,1.237,1.701,1.237,1.701v0.34
		c0,0,0.204,0.02,0.272,0C23.794,8.912,23.232,9,23.232,9v0.426h-0.388v0.175h-0.204l-0.156,0.479h-0.583v0.492h4.509v-0.492h-0.471
		l-0.157-0.479h-0.204V9.426h-0.387V9c0,0-0.563-0.088-0.573-1.019c0.068,0.02,0.272,0,0.272,0v-0.34c0,0,0.673-0.596,1.292-1.807
		c0.062,0.004,0.146,0.008,0.25,0.008c0.467,0,1.292-0.072,1.809-0.535c0.303-0.271,0.46-0.632,0.464-1.072
		c0.004-0.496,0.083-1.043,0.158-1.574C29.04,1.434,29.205,0.272,28.343,0.041z M20.438,5.079c-0.206-0.185-0.308-0.426-0.311-0.734
		c-0.005-0.527-0.085-1.09-0.164-1.635c-0.146-1.021-0.284-1.988,0.187-2.115c0.772-0.206,1.388,1.021,1.404,1.056v0.095
		c0,0,0.136,0,0.407,0c-0.116,0.592-0.295,0.64-0.659,0.893c0.13,1.16,0.434,2.106,0.776,2.857
		C21.722,5.508,20.894,5.487,20.438,5.079z M28.412,2.597c-0.078,0.545-0.159,1.108-0.164,1.635
		c-0.003,0.311-0.104,0.551-0.311,0.734c-0.417,0.375-1.148,0.422-1.542,0.42c0.321-0.734,0.602-1.646,0.726-2.748
		c-0.364-0.253-0.543-0.301-0.66-0.893c0.272,0,0.408,0,0.408,0V1.449c0.161-0.283,0.708-1.142,1.357-0.967
		C28.696,0.608,28.558,1.575,28.412,2.597z"/>
</g>
<g>
</g>
<g>
</g>
<g>
</g>
<g>
</g>
<g>
</g>
<g>
</g>
<g>
</g>
<g>
</g>
<g>
</g>
<g>
</g>
<g>
</g>
<g>
</g>
<g>
</g>
<g>
</g>
<g>
</g>
</svg>
