<?xml version="1.0" encoding="iso-8859-1"?>
<!-- Generator: Adobe Illustrator 16.0.0, SVG Export Plug-In . SVG Version: 6.00 Build 0)  -->
<!DOCTYPE svg PUBLIC "-//W3C//DTD SVG 1.1//EN" "http://www.w3.org/Graphics/SVG/1.1/DTD/svg11.dtd">
<svg version="1.1" id="Layer_1" xmlns="http://www.w3.org/2000/svg" xmlns:xlink="http://www.w3.org/1999/xlink" x="0px" y="0px"
	 width="29.808px" height="31.653px" viewBox="0 0 29.808 31.653" style="enable-background:new 0 0 29.808 31.653;"
	 xml:space="preserve">
<g>
	<g>
		<circle cx="15.221" cy="3.568" r="3.568"/>
		<path d="M24.107,12.493c-1.81,0-3.282,1.473-3.282,3.282c0,1.811,1.472,3.281,3.282,3.281s3.282-1.471,3.282-3.281
			C27.389,13.966,25.917,12.493,24.107,12.493z M24.107,18.321c-1.404,0-2.546-1.143-2.546-2.546c0-1.404,1.142-2.547,2.546-2.547
			c1.403,0,2.546,1.143,2.546,2.547C26.653,17.179,25.51,18.321,24.107,18.321z"/>
		<path d="M23.948,14.525c-0.056,0.09-0.127,0.16-0.215,0.213c-0.087,0.053-0.186,0.092-0.294,0.113
			c-0.11,0.023-0.222,0.033-0.336,0.029v0.654h0.739v1.819h0.944v-3.159h-0.744C24.035,14.327,24.003,14.436,23.948,14.525z"/>
		<path d="M19.924,2.959v1.688h-0.013v2.235l-1.696,0.791h-1.697l-1.361,1.578l-1.315-1.578l-2.567,0.482l0.003,0.025L5.738,4.655
			L4.441,6.691l7.177,4.568l0.373,3.365l0.067,1.331h0.186v0.813v0.6l-1.505,2.793l-2.971-1.573l-1.167,2.203h0.001L6.291,21.38
			l0.78,0.413l0.312-0.589l4.181,2.215l1.167-2.203l-0.004-0.003l2.073-3.845h0.898l1.06,4.298l-2.507,3.705l0.006,0.004
			l-0.006,0.01l2.578,1.744l0.61-0.901l-0.554-0.375l2.543-3.758l-0.013-0.009l-1.164-4.718v-0.6v-0.813h0.228l0.447-5.847
			l2.01-1.219l1.843,2.947h2.944l2.589-4.61h0.03V4.971V4.647V2.959H19.924z M26.294,7.058l-1.953,3.328l-1.729-2.512l1.768-1.071
			l-0.396-1.819l-1.808,0.844l0.007-1.02l4.112,0.04V7.058z"/>
	</g>
	<rect y="29.979" width="29.808" height="1.675"/>
</g>
<g>
</g>
<g>
</g>
<g>
</g>
<g>
</g>
<g>
</g>
<g>
</g>
<g>
</g>
<g>
</g>
<g>
</g>
<g>
</g>
<g>
</g>
<g>
</g>
<g>
</g>
<g>
</g>
<g>
</g>
</svg>
