<?xml version="1.0" encoding="iso-8859-1"?>
<!-- Generator: Adobe Illustrator 16.0.0, SVG Export Plug-In . SVG Version: 6.00 Build 0)  -->
<!DOCTYPE svg PUBLIC "-//W3C//DTD SVG 1.1//EN" "http://www.w3.org/Graphics/SVG/1.1/DTD/svg11.dtd">
<svg version="1.1" id="Layer_1" xmlns="http://www.w3.org/2000/svg" xmlns:xlink="http://www.w3.org/1999/xlink" x="0px" y="0px"
	 width="21.167px" height="30.191px" viewBox="0 0 21.167 30.191" style="enable-background:new 0 0 21.167 30.191;"
	 xml:space="preserve">
<g>
	<circle cx="5.543" cy="4.25" r="4.25"/>
	<path d="M16.125,14.879c-2.155,0-3.908,1.754-3.908,3.908c0,2.156,1.753,3.908,3.908,3.908s3.909-1.752,3.909-3.908
		C20.034,16.633,18.281,14.879,16.125,14.879z M16.125,21.819c-1.672,0-3.032-1.36-3.032-3.032s1.36-3.032,3.032-3.032
		c1.671,0,3.032,1.36,3.032,3.032S17.797,21.819,16.125,21.819z"/>
	<path d="M15.936,17.299c-0.066,0.106-0.152,0.191-0.256,0.254s-0.222,0.108-0.351,0.135c-0.13,0.027-0.264,0.039-0.4,0.035v0.778
		h0.88v2.167h1.124v-3.762h-0.886C16.04,17.063,16.002,17.192,15.936,17.299z"/>
	<path d="M11.144,3.524v2.011h-0.015v2.662L9.109,9.14H7.089l-1.621,1.879L3.901,9.14L0.476,9.783l-0.238,7.634h1.459l0.08,1.586
		h0.222v0.968v0.714v7.564H1.706L0,28.618v1.573h1.451l1.697-0.278l0.014,0.278H5.04v-1.753v-0.189v-7.564h1.069v7.564v0.189v1.753
		h1.877l0.016-0.278l1.694,0.278h1.452v-1.573l-1.706-0.369H9.149v-7.564v-0.714v-0.968h0.271l0.532-6.963l2.394-1.451l2.195,3.51
		h3.507l3.083-5.491h0.035V5.92V5.535V3.524H11.144z M18.73,8.405l-2.326,3.964l-2.06-2.991l2.105-1.276l-0.472-2.167l-2.152,1.005
		l0.008-1.214l4.897,0.048V8.405z"/>
</g>
<g>
</g>
<g>
</g>
<g>
</g>
<g>
</g>
<g>
</g>
<g>
</g>
<g>
</g>
<g>
</g>
<g>
</g>
<g>
</g>
<g>
</g>
<g>
</g>
<g>
</g>
<g>
</g>
<g>
</g>
</svg>
