<?xml version="1.0" encoding="iso-8859-1"?>
<!-- Generator: Adobe Illustrator 16.0.0, SVG Export Plug-In . SVG Version: 6.00 Build 0)  -->
<!DOCTYPE svg PUBLIC "-//W3C//DTD SVG 1.1//EN" "http://www.w3.org/Graphics/SVG/1.1/DTD/svg11.dtd">
<svg version="1.1" id="Layer_1" xmlns="http://www.w3.org/2000/svg" xmlns:xlink="http://www.w3.org/1999/xlink" x="0px" y="0px"
	 width="31.686px" height="27.214px" viewBox="0 0 31.686 27.214" style="enable-background:new 0 0 31.686 27.214;"
	 xml:space="preserve">
<g>
	<path d="M31.285,4.925h-9.346V3.866h-2.479v1.059h-8.877H9.953V6.2h0.631v3.125L9.166,8.978c0.086-0.613,0.281-0.962,0.322-1.924
		C9.561,5.412,9.655,0,4.93,0C4.433,0.001,3.85,0.062,3.597,0.174C3.344,0.288,3.299,0.546,3.135,0.602
		c-0.17,0.058-0.412,0.035-0.563,0.106c-2.34,1.127-2.26,3.876-2.26,3.876l0.346,5.644L0,16.556l1.482,0.135l0.589-4.547
		c0.356,1.208,0.696,2.322,0.696,2.322l-0.389,3.051H4.85v-5.473L3.515,9.513l0.374-0.095V7.997C2.447,7.544,1.385,6.259,1.266,4.7
		l0.988,0.143v0.604h2.592V5.021h0.457v0.426h2.592V4.858l0.822-0.129C8.67,6.034,7.997,7.78,5.994,8.041v1.327H6l0.477,0.227
		l-1.305,2.349v5.573h1.314H7.73l-0.468-3.145c0,0,0.194-1.279,0.427-2.626l2.895,0.35v6.688h9.137v2.343l-5.042,5.689h1.812
		l3.403-3.845v3.845h1.042v-3.841l3.398,3.841h1.841l-5.071-5.689v-2.343h10.182V6.2h0.4V4.925H31.285z M4.557,5.157H2.541V4.132
		h2.016V5.157z M7.605,5.157H5.59V4.132h2.016V5.157z M7.895,4.42V3.844H5.303v0.601H4.846V3.844H2.254v0.562l-1-0.143
		c0.008-0.074,0.018-0.146,0.025-0.221c1.043-0.07,2.219-0.891,2.31-2.033c1.319,1.092,3.187,1.145,4.744,1.283
		C8.525,3.384,8.67,3.775,8.709,4.294L7.895,4.42z M30.395,17.845h-9.291h-1.383h-8.244v-5.642l3.428,0.413l0.007-2.229
		l-3.435-0.843V6.2h18.918V17.845z"/>
	<path d="M7.69,17.845l-5.313-0.021l-0.119,3.585h1.644v4.866c-0.749,0.013-1.212,0.13-1.212,0.466c0,0.355,0.73,0.473,0.73,0.473
		h0.481h1.155h0.058c0,0,0-0.251,0-0.445c0-0.068-0.018-0.137-0.058-0.197v-5.162h0.615l0.211,2.016l-0.328,3.062
		c-0.093,0.081-0.133,0.178-0.133,0.282c0,0.194,0,0.445,0,0.445h0.055h1.166h0.475c0,0,0.73-0.117,0.73-0.473
		c0-0.322-0.433-0.442-1.129-0.462l0.234-2.854l-0.162-2.016h1.102L7.69,17.845z"/>
	<path d="M17.598,9.62c-0.351,0.351-0.647,0.753-0.832,1.209c-0.207,0.511-0.575,2.185,0.556,2.083
		c0.234-0.021,0.464-0.078,0.69-0.152c-0.823,2.002,2.318,1.133,4.693,0.283c-0.043,0.07-0.088,0.14-0.127,0.22
		c-0.192,0.395-0.015,0.758,0.374,0.918c0.201,0.083,0.402,0.142,0.604,0.188c-0.12,0.279-0.036,0.646,0.246,0.791
		c0.958,0.488,1.654,0.475,2.582,0.312c0.313,0.681,1.116,0.792,1.918,1.229c0.708,0.385,1.339-0.694,0.631-1.08
		c-0.3-0.163-1.443-0.497-1.44-0.876c0.004-0.428-0.399-0.683-0.791-0.603c-0.155,0.049-0.312,0.08-0.468,0.107
		c0.06-0.021,0.115-0.051,0.175-0.069c0.746-0.271,0.455-1.425-0.332-1.205c-0.664,0.186-1.271,0.289-1.895,0.22
		c0.433-0.45,0.963-0.842,1.309-1.344c0.339-0.49-0.217-1.014-0.706-0.918c-1.67,0.327-3.206,1.031-4.791,1.616
		c1.319-0.513,3.037-1.374,3.655-2.452c0.148-0.261,0.086-0.539-0.098-0.758c-0.771-0.916-1.728-0.28-2.624,0.156
		c-0.925,0.451-1.767,0.89-2.576,1.525c-1.782,1.402,1.257-1.313,1.841-1.694c0.525-0.345,1.121-1.044,0.532-1.633
		c-0.358-0.358-0.946-0.268-1.383-0.217c-0.312,0.036-0.602,0.21-0.883,0.331c-0.057,0.024-0.488,0.17-0.853,0.301
		c0.312-0.382-0.018-1.139-0.654-1.009C14.467,7.606,15.249,10.414,17.598,9.62z"/>
</g>
<g>
</g>
<g>
</g>
<g>
</g>
<g>
</g>
<g>
</g>
<g>
</g>
<g>
</g>
<g>
</g>
<g>
</g>
<g>
</g>
<g>
</g>
<g>
</g>
<g>
</g>
<g>
</g>
<g>
</g>
</svg>
