<?xml version="1.0" encoding="iso-8859-1"?>
<!-- Generator: Adobe Illustrator 16.0.0, SVG Export Plug-In . SVG Version: 6.00 Build 0)  -->
<!DOCTYPE svg PUBLIC "-//W3C//DTD SVG 1.1//EN" "http://www.w3.org/Graphics/SVG/1.1/DTD/svg11.dtd">
<svg version="1.1" id="Layer_1" xmlns="http://www.w3.org/2000/svg" xmlns:xlink="http://www.w3.org/1999/xlink" x="0px" y="0px"
	 width="22.916px" height="30.525px" viewBox="0 0 22.916 30.525" style="enable-background:new 0 0 22.916 30.525;"
	 xml:space="preserve">
<path d="M19.397,19.843h-1.189h-1.289h-1.081l-1.846-1.608c0.173-0.485,0.419-0.816,0.571-0.985
	c0.261,1.427,1.507,2.514,3.006,2.514c1.44,0,2.643-1.002,2.969-2.343c0.245,0.431,0.674,1.341,0.569,2.314
	c2.546-0.021,1.286-2.946-0.499-3.259c-0.009-0.143-0.019-0.286-0.049-0.423c-0.094-0.915-0.911-2.814-3.281-2.756
	c-1.845,0.043-2.378,1.316-2.541,2.25c-0.126,0.311-0.194,0.647-0.214,0.999c-0.729,0.134-1.229,0.441-1.536,0.814l-1.216-1.057
	l0.339-0.135L9.107,7.522h1.066h0.719l-0.336-0.637c-0.009-0.015-0.766-1.463-1.06-2.834c0-0.02,0.003-0.037,0.003-0.056
	c0-0.268-0.04-0.525-0.101-0.775C9.397,3.142,9.391,3.066,9.389,2.985C9.345,1.725,9.285,0,6.279,0C5.111,0,4.225,0.303,3.642,0.903
	C2.821,1.746,2.75,3.005,2.779,4.007C2.824,5.62,1.845,6.796,1.835,6.808L1.23,7.522h1.754L0,16.176l1.658,0.662l1.862-5.107
	l0.186,2.366l-3.008,8.332H4.17v7.25H3.712v0.847h2.077v-0.847v-7.25h0.778v7.25v0.847h2.074v-0.847H8.188v-7.25h2.691l-2.653-8.332
	l0.145-2.913l2.061,5.655l0.45-0.18l-0.002,0.001l1.722,1.659c-0.041,0.728,0.431,1.395,1.227,1.416
	c-0.01-0.083-0.004-0.158-0.007-0.24l1.919,1.85l0.122,1.6l-2.191,3.767h2.528v3.277h-0.332v0.385h1.509v-0.385h0.003v-3.277h0.566
	v3.277v0.385h1.51v-0.385h-0.332v-3.277h1.961l-1.932-3.767l0.105-1.317l2.89,3.167l0.654-0.163l0.115,0.029V23.96L19.397,19.843z
	 M16.166,15.854c0,0,0.262,0.09,0.262,0.942c0.449,0.158,1.229-1.324,1.229-1.324v1.167c0.496,0.135,2.057-0.046,2.057-0.046
	l0.047,0.039c0,0.024,0.006,0.046,0.006,0.068c0,1.212-0.985,2.198-2.197,2.198c-1.183,0-2.146-0.945-2.188-2.12
	C15.833,16.649,16.166,15.854,16.166,15.854z M6.935,6.296L6.93,7.199L6.929,7.352L6.052,8.685L5.168,7.433V7.095V6.644V6.167
	c-0.81-0.393-1.372-1.214-1.372-2.172c0-0.403,0.108-0.78,0.283-1.114L5.356,2.76l3.085,0.283c0.125,0.293,0.194,0.615,0.194,0.952
	C8.636,5.078,7.916,5.986,6.935,6.296z"/>
<g>
</g>
<g>
</g>
<g>
</g>
<g>
</g>
<g>
</g>
<g>
</g>
<g>
</g>
<g>
</g>
<g>
</g>
<g>
</g>
<g>
</g>
<g>
</g>
<g>
</g>
<g>
</g>
<g>
</g>
</svg>
