<?xml version="1.0" encoding="iso-8859-1"?>
<!-- Generator: Adobe Illustrator 16.0.0, SVG Export Plug-In . SVG Version: 6.00 Build 0)  -->
<!DOCTYPE svg PUBLIC "-//W3C//DTD SVG 1.1//EN" "http://www.w3.org/Graphics/SVG/1.1/DTD/svg11.dtd">
<svg version="1.1" id="Layer_1" xmlns="http://www.w3.org/2000/svg" xmlns:xlink="http://www.w3.org/1999/xlink" x="0px" y="0px"
	 width="31.395px" height="28.967px" viewBox="0 0 31.395 28.967" style="enable-background:new 0 0 31.395 28.967;"
	 xml:space="preserve">
<g>
	<path d="M30.663,0.63c-2.005,1.72-8.539,7.438-8.414,8.708l0.009,0.081l0.291,0.388l-0.457,0.002l-0.077,0.004
		c-0.401,0.068-1.123,1.248-1.359,2.217c-0.272,1.124-0.001,2.028,0.785,2.616c0.045,0.034,0.095,0.062,0.141,0.093l-0.375,0.508
		l-0.61-0.418l-0.249,0.362l0.6,0.41l-2.809,3.81l1.318-0.741l1.973-2.739l0.438,0.299l0.247-0.361l-0.43-0.295l0.415-0.576
		c0.472,0.174,1,0.22,1.566,0.125c1.253-0.211,2.451-1.06,2.647-1.527c0.058-0.142,0.038-0.252,0.006-0.326l-0.089-0.328
		l0.333,0.099l0.148,0.007c0.274-0.046,0.649-0.11,2.607-6.201c0.941-2.933,1.801-5.89,1.811-5.918L31.395,0L30.663,0.63z
		 M26.599,12.451l-1.2-0.355l0.361,1.314c-0.17,0.262-1.12,0.964-2.191,1.144c-0.406,0.068-0.777,0.045-1.115-0.051l0.012-0.016
		l4.356-6.772l-0.103-0.056l-4.717,6.506l-0.076,0.104c-0.046-0.029-0.098-0.051-0.143-0.083c-0.456-0.341-0.675-0.825-0.654-1.439
		c0.038-1.05,0.765-2.154,1.005-2.363l1.561-0.007l-0.869-1.154c0.148-0.662,2.595-3.13,5.514-5.779l0.198,1.173l0.965-0.282
		C28.276,8.326,27.055,11.884,26.599,12.451z M29.641,3.896l-0.795,0.232l-0.167-0.989C29.21,2.66,29.752,2.179,30.3,1.703
		C30.083,2.436,29.863,3.17,29.641,3.896z"/>
	<path d="M24.012,26.13c-1.047-0.42-2.249-0.633-3.579-0.633c-3.267,0-6.375,1.251-7.31,1.664v-5.978l0.435,0.479v-8.98
		c1.761-1.48,3.917-2.239,6.427-2.239c0.217,0,0.428,0.006,0.635,0.018l0.498-0.707c-0.361-0.03-0.738-0.05-1.133-0.05
		c-2.726,0-5.074,0.831-6.984,2.468c-1.911-1.638-4.259-2.468-6.984-2.468c-2.545,0-4.452,0.742-4.533,0.772L1.25,10.568v1.504
		C0.479,12.216,0,12.474,0,12.896C0,15.087,0,28.39,0,28.39h11.411c0.395,0.354,0.972,0.577,1.617,0.577
		c0.646,0,1.223-0.224,1.618-0.577h11.125c0,0,0-13.449,0-13.29c-0.626,0.462-1.759,0.703-1.759,0.703V26.13z M12.877,27.169
		c-0.948-0.392-4.211-1.632-7.479-1.632c-1.291,0-2.435,0.198-3.41,0.59V11.082c0.569-0.191,2.119-0.638,4.028-0.638
		c2.509,0,4.665,0.759,6.426,2.239v8.98l0.435-0.479V27.169z"/>
	<path d="M3.152,13.383l0.155,0.586c3.907-1.035,7.42,0.882,7.457,0.902l0.295-0.53C10.908,14.257,7.3,12.285,3.152,13.383z"/>
	<path d="M19.103,13.494c-0.694-0.084-2.317-0.279-4.361,0.362l0.182,0.58c1.921-0.604,3.397-0.424,4.107-0.339
		c0.151,0.019,0.266,0.031,0.342,0.033l0.015-0.606C19.324,13.521,19.229,13.509,19.103,13.494z"/>
	<path d="M19.372,15.684l0.015-0.607c-0.063-0.001-0.158-0.014-0.284-0.029c-0.694-0.085-2.317-0.28-4.361,0.362l0.182,0.58
		c1.921-0.604,3.397-0.424,4.107-0.339C19.182,15.669,19.296,15.682,19.372,15.684z"/>
	<path d="M14.742,16.911l0.182,0.58c1.917-0.603,3.076-0.459,3.634-0.39c0.129,0.016,0.231,0.028,0.309,0.03l0.014-0.606
		c-0.062-0.001-0.144-0.013-0.249-0.026C18.031,16.425,16.785,16.27,14.742,16.911z"/>
	<path d="M3.152,15.102l0.155,0.586c3.907-1.036,7.42,0.881,7.457,0.9l0.295-0.529C10.908,15.974,7.3,14.002,3.152,15.102z"/>
	<path d="M3.152,16.716l0.155,0.587c3.907-1.035,7.42,0.882,7.457,0.901l0.295-0.53C10.908,17.589,7.3,15.618,3.152,16.716z"/>
	<path d="M3.152,18.486l0.155,0.586c3.907-1.036,7.42,0.881,7.457,0.9l0.295-0.529C10.908,19.358,7.3,17.386,3.152,18.486z"/>
	<path d="M3.152,20.126l0.155,0.586c3.907-1.035,7.42,0.882,7.457,0.901l0.295-0.53C10.908,20.999,7.3,19.027,3.152,20.126z"/>
	<path d="M3.152,21.81l0.155,0.587c3.907-1.036,7.42,0.881,7.457,0.9l0.295-0.529C10.908,22.683,7.3,20.711,3.152,21.81z"/>
	<path d="M3.152,23.499l0.155,0.586c3.907-1.036,7.42,0.882,7.457,0.901l0.295-0.529C10.908,24.372,7.3,22.399,3.152,23.499z"/>
</g>
<g>
</g>
<g>
</g>
<g>
</g>
<g>
</g>
<g>
</g>
<g>
</g>
<g>
</g>
<g>
</g>
<g>
</g>
<g>
</g>
<g>
</g>
<g>
</g>
<g>
</g>
<g>
</g>
<g>
</g>
</svg>
