<?xml version="1.0" encoding="iso-8859-1"?>
<!-- Generator: Adobe Illustrator 16.0.0, SVG Export Plug-In . SVG Version: 6.00 Build 0)  -->
<!DOCTYPE svg PUBLIC "-//W3C//DTD SVG 1.1//EN" "http://www.w3.org/Graphics/SVG/1.1/DTD/svg11.dtd">
<svg version="1.1" id="Layer_1" xmlns="http://www.w3.org/2000/svg" xmlns:xlink="http://www.w3.org/1999/xlink" x="0px" y="0px"
	 width="24.904px" height="29.144px" viewBox="0 0 24.904 29.144" style="enable-background:new 0 0 24.904 29.144;"
	 xml:space="preserve">
<rect x="3.238" y="4.518" width="7.553" height="1.01"/>
<rect x="3.238" y="6.465" width="7.553" height="1.01"/>
<path style="fill:#070909;" d="M19.893,21.203l0.776-0.651l-1.033-1.231c0.595-1.077,0.935-2.311,0.935-3.623
	c0-4.146-3.371-7.517-7.518-7.517c-4.144,0-7.516,3.371-7.516,7.517c0,4.145,3.372,7.516,7.516,7.516
	c0.888,0,1.736-0.161,2.524-0.443l1.01,1.202l0.963-0.805l5.011,5.977l2.344-1.966L19.893,21.203z M8.678,15.697
	c0-2.413,1.963-4.376,4.375-4.376c2.414,0,4.377,1.963,4.377,4.376c0,2.412-1.963,4.376-4.377,4.376
	C10.641,20.073,8.678,18.109,8.678,15.697z"/>
<path d="M5.009,14.371H3.216v1.01h1.691C4.922,15.039,4.956,14.702,5.009,14.371z"/>
<path d="M5.583,12.424H3.216v1.011h2.002C5.318,13.088,5.438,12.75,5.583,12.424z"/>
<path d="M6.918,10.334H3.262v1.009h2.901C6.39,10.986,6.641,10.648,6.918,10.334z"/>
<path d="M9.447,8.387H3.262v1.01h4.61C8.354,8.999,8.885,8.666,9.447,8.387z"/>
<path d="M5.273,18.157H3.216v1.009h2.461C5.522,18.839,5.383,18.505,5.273,18.157z"/>
<path d="M4.918,16.21H3.216v1.009h1.823C4.977,16.89,4.939,16.553,4.918,16.21z"/>
<g>
	<path d="M6.281,20.248H3.216v1.009h3.88C6.8,20.941,6.524,20.607,6.281,20.248z"/>
</g>
<path d="M8.134,22.194H3.216v1.009h6.638C9.236,22.94,8.662,22.595,8.134,22.194z"/>
<path d="M17.471,24.074l-0.454,0.381v1.596L1.154,26.018V1.154h11.104v5.213h4.758V8.57c0.408,0.227,0.794,0.487,1.154,0.778V4.688
	L13.469,0H0v27.168l18.171,0.039V24.91L17.471,24.074z M13.412,1.571l3.604,3.594v0.05h-3.604V1.571z"/>
<g>
	<path d="M13.119,12.107c-0.561,0-1.089,0.134-1.561,0.367h3.119C14.206,12.241,13.678,12.107,13.119,12.107z"/>
</g>
<path d="M16.626,15.212c-0.063-0.517-0.239-0.997-0.5-1.419h-6.015c-0.262,0.422-0.437,0.902-0.5,1.419H16.626z"/>
<path d="M9.658,16.379c0.113,0.527,0.343,1.007,0.659,1.42h5.601c0.317-0.413,0.549-0.893,0.66-1.42H9.658z"/>
<path d="M13.788,19.117h-1.339c0.217,0.041,0.439,0.064,0.67,0.064C13.347,19.182,13.57,19.158,13.788,19.117z"/>
<g>
</g>
<g>
</g>
<g>
</g>
<g>
</g>
<g>
</g>
<g>
</g>
<g>
</g>
<g>
</g>
<g>
</g>
<g>
</g>
<g>
</g>
<g>
</g>
<g>
</g>
<g>
</g>
<g>
</g>
</svg>
